<svg xmlns="http://www.w3.org/2000/svg" width="681.273" height="228.635" viewBox="0 0 681.273 228.635">
  <g id="グループ_2579" data-name="グループ 2579" transform="translate(-598.5 -5352.445)">
    <g id="グループ_2459" data-name="グループ 2459" transform="translate(635.227 5421.021)">
      <path id="パス_9605" data-name="パス 9605" d="M35.834-20.93H24.518v-7.544h18.63V-31.51H24.518V-37.9c.6-.092.874-.322.92-.644l-4.094-.276v7.314H2.9v3.036H21.344v7.544H5.428v3.036H12.65l-2.622.966A33.931,33.931,0,0,0,20.1-4.692,63.9,63.9,0,0,1,1.61.966a11.146,11.146,0,0,1,1.7,2.944,63.4,63.4,0,0,0,19.55-6.716,51.2,51.2,0,0,0,19.6,6.854A13.757,13.757,0,0,1,44.436,1.1,53.255,53.255,0,0,1,25.9-4.646a33.6,33.6,0,0,0,12.19-14.582,1.12,1.12,0,0,0,.644-.46l-2.3-1.334ZM33.9-17.894a29.19,29.19,0,0,1-10.81,11.5,29.415,29.415,0,0,1-10.166-11.5Zm50.14,5.336H70.38c.322-1.242.6-2.484.874-3.772H89.746v-2.622H71.76c.23-1.334.414-2.668.6-4.048H87.584v-2.576H82.34a60.5,60.5,0,0,0,4.232-6.578c.506,0,.828-.138.92-.414l-3.4-1.242a45.749,45.749,0,0,1-4.508,8l.552.23H62.652V-23h6.762c-.184,1.38-.368,2.714-.6,4.048h-6.67v2.622H68.31C66.7-8.372,63.894-1.886,59.294,1.978a15.1,15.1,0,0,1,2.3,1.748c3.68-3.266,6.256-8.05,8.05-13.8H82.478A17.178,17.178,0,0,1,77.51-3.542a19.07,19.07,0,0,1-5.658-5.7l-2.484.828a21.853,21.853,0,0,0,5.888,6.486,30.113,30.113,0,0,1-8.924,3.5A9.747,9.747,0,0,1,68.08,3.91,30.084,30.084,0,0,0,77.648-.276,34.475,34.475,0,0,0,88.55,3.91a11.876,11.876,0,0,1,1.886-2.622,33.577,33.577,0,0,1-10.442-3.4,21.532,21.532,0,0,0,5.98-9.246.731.731,0,0,0,.368-.46l-1.748-.828ZM64.4-32.154a24.089,24.089,0,0,1,2.3,6.118l2.53-.874a21.857,21.857,0,0,0-2.438-5.98Zm-3.266,14.03-3.772,1.2v-9.384h5.2v-2.9h-5.2v-8.74c.644-.092.874-.276.92-.644l-3.864-.23v9.614H47.886v2.9h6.532v10.3c-2.622.828-5.06,1.564-6.992,2.116l1.15,3.542a.841.841,0,0,0,.6-.69l5.244-1.84V.046c0,.92,0,.966-3.22.966-.828,0-1.748,0-2.76-.046a9.843,9.843,0,0,1,.966,2.99c6.164,0,7.958-.23,7.958-3.864v-14.03l4.186-1.518Zm24.288-20.7c-5.428,1.38-15.456,2.346-23.644,2.806a8.063,8.063,0,0,1,.736,2.392c8.326-.414,18.446-1.38,24.15-2.668a1.274,1.274,0,0,0,.414.046,1.154,1.154,0,0,0,.46-.092Zm-12.558,5.7A28.384,28.384,0,0,1,74.2-26.726l2.576-.552A23.875,23.875,0,0,0,75.3-33.534Zm59.984,20.93v-2.76H116.426v-6.44h10.258V-24.2H103.546a52.972,52.972,0,0,0,11.27-11.638c4.324,6.072,12.558,12.788,19.734,16.744a16.928,16.928,0,0,1,2.07-2.714c-7.13-3.45-15.41-10.12-19.872-16.284a1.075,1.075,0,0,0,.92-.69l-4.508-.276c-3.634,6.21-11.546,13.57-19.6,17.848A18.694,18.694,0,0,1,95.5-18.768a66.29,66.29,0,0,0,7.82-5.244v2.622h9.89v6.44H97.152v2.76h16.054V-.414H95.082v2.76H135.01V-.414H116.426V-12.19Zm-7.084,1.2a55.208,55.208,0,0,1-5.152,8.74l2.3,1.15a68.748,68.748,0,0,0,5.29-8c.506.046.874-.092,1.012-.368Zm-17.48,8.648a30.075,30.075,0,0,0-4.508-8.51l-2.53.966A31.8,31.8,0,0,1,105.57-1.2Zm42.182-20.608a44.6,44.6,0,0,1,2.806,4.554l-8.142.138a128.436,128.436,0,0,0,9.292-13.432,1.22,1.22,0,0,0,1.012-.368l-3.266-1.518a99.391,99.391,0,0,1-5.152,8.74,30.974,30.974,0,0,0-2.668-3.266,82.588,82.588,0,0,0,4.968-8.97q.759,0,.966-.414l-3.312-1.334a68.819,68.819,0,0,1-4.324,8.924l-1.472-1.38L139.518-29.3a42.067,42.067,0,0,1,5.888,6.854c-1.1,1.518-2.162,2.99-3.174,4.232h-3.174l.828,3.45a.841.841,0,0,0,.69-.6c1.794-.092,4.094-.184,6.624-.276V3.91h2.76V-15.778c1.472-.046,2.99-.138,4.554-.23a24.9,24.9,0,0,1,1.012,2.622l2.438-1.2a41.4,41.4,0,0,0-5.2-9.384Zm12.926-15.87A28.828,28.828,0,0,1,155.8-27.14a14.57,14.57,0,0,1,2.254,1.84,33.04,33.04,0,0,0,7.958-12.052c.414.046.828-.046.966-.414Zm8.51.92a32.288,32.288,0,0,0,9.154,12.282,11.367,11.367,0,0,1,2.162-2.3,26.055,26.055,0,0,1-8.786-10.9ZM158.148-19.55l1.15,3.358a.687.687,0,0,0,.644-.6c4.14-.23,10.4-.6,16.56-1.012a22.027,22.027,0,0,1,1.794,2.944l2.438-1.61a51.164,51.164,0,0,0-7.314-9.476l-2.254,1.334a51.34,51.34,0,0,1,3.68,4.462c-3.5.138-6.992.276-10.12.368a97.334,97.334,0,0,0,4.14-9.476c.506,0,.874-.138,1.012-.46l-3.68-1.15a81,81,0,0,1-4.37,11.224ZM173.7-10.81a24.891,24.891,0,0,0-7.728-5.52l-1.932,1.748a24.728,24.728,0,0,1,7.636,5.7ZM157.274-3.588a39.37,39.37,0,0,0-3.082-8.878l-2.346.782a41.546,41.546,0,0,1,2.944,8.97Zm-15.226-8.74c-.6,4.186-1.564,8.6-2.9,11.178.69.322,1.7.782,2.3,1.15a40.967,40.967,0,0,0,3.036-10.994c.552,0,.828-.184.92-.506Zm24.518,2.852c.6-.092.828-.322.874-.644l-3.726-.23V-.506c0,2.9.782,3.68,4,3.68h4.968c2.576,0,3.358-1.288,3.634-6.394a7.512,7.512,0,0,1-2.484-1.058C173.7.046,173.466.69,172.362.69h-4.278c-1.288,0-1.518-.184-1.518-1.242ZM182.942.782c-.736-2.944-3.128-7.222-5.658-10.442l-2.392,1.2a33.02,33.02,0,0,1,5.474,10.626ZM159.206-9.062c-.414,3.772-1.7,7.5-3.91,9.476L157.5,1.886C160.034-.46,161.322-4.6,161.736-8.6ZM207.874-4.83h18.584v-24.2h-9.384c.46-1.61.92-3.4,1.2-4.784h10.212v-2.76H206.034v2.76h9.108c-.23,1.518-.644,3.312-1.012,4.784h-6.256Zm2.852-9.752v-4.83h12.788v4.83Zm0-7.176v-4.784h12.788v4.784Zm0,14.444V-12.19h12.788v4.876Zm-8-24.334v4.508h2.714v-7.13h-8.05v-3.68c.6-.092.828-.322.874-.644l-3.818-.23v4.554h-8v7.13h2.622v-4.508Zm3.036,19.5a72.668,72.668,0,0,0-7.038-5.842,27.533,27.533,0,0,0,4.462-7.958,1.462,1.462,0,0,0,.46-.46c-.414-.184-.828-.368-1.886-.92l-.506.138H194.9c.368-.69.736-1.38,1.058-2.07q.828,0,.966-.414l-3.266-1.058A25.85,25.85,0,0,1,185.2-20.1a18.763,18.763,0,0,1,1.978,1.794,26.273,26.273,0,0,0,3.036-2.668c1.472,1.058,3.082,2.208,4.646,3.4a30.085,30.085,0,0,1-9.614,6.486,12.868,12.868,0,0,1,1.7,2.208c.69-.322,1.38-.644,2.07-1.012V3.128h2.714V.92h10.948v-12.1c.46.414.874.828,1.242,1.2Zm-14.444.874a34.06,34.06,0,0,0,5.658-4.692c2.07,1.656,4.048,3.266,5.612,4.692Zm.414,9.614V-8.74h8.188v7.084Zm8.1-23.184A23.632,23.632,0,0,1,196.6-19.6c-1.61-1.15-3.22-2.254-4.692-3.266.506-.644,1.012-1.288,1.472-1.978ZM211.876-3.772c-1.794,1.978-5.612,4.278-9.062,5.566a18.1,18.1,0,0,1,2.116,2.07c3.358-1.334,7.268-3.726,9.108-5.75a1.4,1.4,0,0,0,.828-.322Zm17.3,6.164a55.216,55.216,0,0,0-8.1-5.98l-2.3,1.518a54.507,54.507,0,0,1,7.912,6.164ZM252.4-31.234a13.026,13.026,0,0,1,1.38-.092c10.764,0,15.64,6.9,15.64,14.49,0,8.694-5.428,13.846-16.008,15.87a18.142,18.142,0,0,1,1.932,2.806c11.132-2.576,17.48-7.866,17.48-18.814,0-8.97-5.75-17.388-19.044-17.388-12.1,0-20.7,9.246-20.7,20.286,0,7.268,3.5,11.132,7.36,11.132,7.636,0,12.42-12.466,14.076-26.772a1.19,1.19,0,0,0,1.15-.736ZM240.534-6.164c-2.208,0-4.324-3.082-4.324-8A16.932,16.932,0,0,1,251.252-31.05C250.1-18.446,246.1-6.164,240.534-6.164Z" transform="translate(-36.253 101.331)" fill="#333"/>
      <path id="パス_9606" data-name="パス 9606" d="M22.4-31.234a13.026,13.026,0,0,1,1.38-.092c10.764,0,15.64,6.9,15.64,14.49,0,8.694-5.428,13.846-16.008,15.87A18.141,18.141,0,0,1,25.346,1.84c11.132-2.576,17.48-7.866,17.48-18.814,0-8.97-5.75-17.388-19.044-17.388-12.1,0-20.7,9.246-20.7,20.286,0,7.268,3.5,11.132,7.36,11.132,7.636,0,12.42-12.466,14.076-26.772a1.19,1.19,0,0,0,1.15-.736ZM10.534-6.164c-2.208,0-4.324-3.082-4.324-8A16.932,16.932,0,0,1,21.252-31.05C20.1-18.446,16.1-6.164,10.534-6.164ZM81.466-26.5a75.841,75.841,0,0,1-1.978,10.028,47.24,47.24,0,0,0-12.374-3.266,143.886,143.886,0,0,0,2.852-14.352,1.937,1.937,0,0,0,1.15-.736l-2.852-1.7a1.77,1.77,0,0,1-1.012.506c-2.76.276-11.316.828-15.272.966l.414,3.726a1.466,1.466,0,0,0,.966-.644c3.5-.23,10.856-.736,13.018-.92a110.716,110.716,0,0,1-2.484,12.972c-8.234.046-15.64,3.358-15.64,10.488,0,2.806,1.058,7.222,6.578,7.222S63.2-5.244,66.378-16.836a45.871,45.871,0,0,1,12.282,3.4C76.544-6.854,73.554-2.53,68.724.644a16.092,16.092,0,0,1,2.622,1.932C76.222-.644,79.4-5.474,81.6-12.1c2.346,1.012,4.738,2.208,7.222,3.45L90.3-11.73c-2.622-1.334-5.244-2.53-7.728-3.588A91,91,0,0,0,84.594-24.7a1.266,1.266,0,0,0,1.334-.828ZM54.648-5.106c-2.162,0-3.4-1.748-3.4-4.324,0-4.876,5.29-7.5,11.914-7.59C60.214-6.256,58.006-5.106,54.648-5.106Z" transform="translate(479.494 101.331)" fill="#333"/>
      <path id="パス_9607" data-name="パス 9607" d="M13.509-60.119H6.083L7.189-16.748H12.4ZM9.8.948a4.586,4.586,0,0,0,4.661-4.9c0-2.923-1.817-5.056-4.582-5.056A4.723,4.723,0,0,0,5.214-3.95C5.214-1.343,6.873.948,9.8.948ZM33.1-60.119H25.675l1.106,43.371h5.214ZM29.388.948a4.586,4.586,0,0,0,4.661-4.9c0-2.923-1.817-5.056-4.582-5.056A4.723,4.723,0,0,0,24.806-3.95C24.806-1.343,26.465.948,29.388.948ZM52.693-60.119H45.267l1.106,43.371h5.214ZM48.98.948a4.586,4.586,0,0,0,4.661-4.9c0-2.923-1.817-5.056-4.582-5.056A4.723,4.723,0,0,0,44.4-3.95C44.4-1.343,46.057.948,48.98.948Z" transform="translate(585.429 106.798)" fill="#333" stroke="#fff" stroke-width="1.5"/>
      <path id="パス_9604" data-name="パス 9604" d="M44.407,0V-91.113H32.549L11.979-80.1l3.146,10.285,15.367-8.47h.242V0Zm60.258,1.331c18.755,0,29.887-16.819,29.887-47.674,0-27.588-9.68-46.222-28.919-46.222-18.876,0-30.129,17.424-30.129,47.19C75.5-17.424,85.668,1.331,104.665,1.331Zm.242-11.253c-9.68,0-15.246-13.31-15.246-35.937,0-22.748,6.292-35.574,15.488-35.574,10.648,0,15.246,13.915,15.246,35.574C120.4-26.983,116.765-9.922,104.907-9.922ZM160.982-68.25c-9.009,0-15.925,8.008-15.925,20.93,0,12.831,6.916,20.293,15.561,20.293,8.281,0,15.834-7.1,15.834-21.2C176.452-59.969,170.992-68.25,160.982-68.25Zm-.182,6.1c5.642,0,7.553,6.734,7.553,14.378,0,8.19-2.184,14.56-7.553,14.56-5.1,0-7.644-6.279-7.644-14.014C153.156-54.054,154.976-62.153,160.8-62.153ZM203.934-40.4c-9.191,0-16.016,8.008-16.016,20.93S194.834.819,203.479.819c8.463,0,15.925-7.007,15.925-21.112C219.4-32.032,213.944-40.4,203.934-40.4Zm-.182,6.1c5.642,0,7.553,6.825,7.553,14.469,0,8.19-2.184,14.469-7.553,14.469-5.1,0-7.735-6.37-7.735-14.378C196.017-26.845,198.11-34.307,203.752-34.307Zm.819-34.034H198.2L159.708,1.274h6.279Z" transform="translate(243.559 106.831)" fill="#fb297a"/>
      <line id="線_457" data-name="線 457" x2="681.273" transform="translate(-36.727 135.689)" fill="none" stroke="#fb297a" stroke-width="3"/>
    </g>
    <g id="グループ_2462" data-name="グループ 2462" transform="translate(777.123 5353)">
      <path id="パス_9603" data-name="パス 9603" d="M37.76-8.68H21.28v-3.24H34.16v-2.16H21.28v-3.2H36.12v-2.24H26.64c.8-1.2,1.68-2.76,2.24-3.84a.758.758,0,0,0,.84-.36l-1.16-.36H37.6v-2.36H31.04a59.738,59.738,0,0,0,3.24-5.36c.44,0,.76-.12.84-.36l-3.16-1.08A37.279,37.279,0,0,1,28.68-27c.36.12.96.36,1.48.56H25.12v-6.48c.52-.08.88-.28.92-.68l-3.48-.2v7.36h-5.2v-6.48c.52-.08.84-.28.88-.68l-3.4-.2v7.36H9.6l2.12-.8a25.722,25.722,0,0,0-3.56-6.08l-2.28.8a30.159,30.159,0,0,1,3.36,6.08H2.52v2.36H12.76l-1.56.32a19.744,19.744,0,0,1,2.08,4.24H4.16v2.24H18.6v3.2H6.2v2.16H18.6v3.24H2.36v2.32H16A39.021,39.021,0,0,1,1.32.4,10.55,10.55,0,0,1,3.08,2.68c5.44-1.56,11.6-4.6,15.52-8.24V3.4h2.68V-5.76c3.92,3.8,10.08,7,15.64,8.56A11.516,11.516,0,0,1,38.72.44C33.44-.72,27.6-3.28,23.88-6.36H37.76ZM24.68-19.52H14.8l1.24-.28a18.96,18.96,0,0,0-2.2-4.28H26.28a36.393,36.393,0,0,1-2.24,4.32ZM75.92-32.24H48.16v16.76h7.32A28.631,28.631,0,0,1,43.4-7.8a11.223,11.223,0,0,1,1.8,2.16,32.185,32.185,0,0,0,9.36-5.56v2.12c0,3.36-.68,7.8-7.92,10.88a8.685,8.685,0,0,1,1.8,2.04C56.28.28,57.16-4.88,57.16-9v-1.84c.52-.04.76-.24.8-.52l-3-.2a25.505,25.505,0,0,0,3.64-3.92h6.92a22.942,22.942,0,0,0,3.64,4.04l-2.72-.16v15h2.68V-10.84a.89.89,0,0,0,.52-.2,29.177,29.177,0,0,0,9.12,5.28A10.015,10.015,0,0,1,80.6-8.04a26.3,26.3,0,0,1-12-7.44h7.32ZM60.56-29.96V-25H50.8v-4.96ZM63.2-25v-4.96h10V-25Zm-2.64,2.2v5H50.8v-5Zm2.64,5v-5h10v5Zm59-.28H85.84v2.28h3.68V-2.2l-3.84.4L86.6,1a.637.637,0,0,0,.56-.52C90.28.08,95-.56,99.76-1.28V3.4h2.6V-15.8H122.2ZM92.04-7.96v-2.92h7.72v2.92Zm0-5V-15.8h7.72v2.84Zm7.72,7.08v2.52c-2.64.32-5.28.6-7.72.88v-3.4ZM91.08-32.04v11.36h25.88V-32.04Zm2.6,4.68v-2.72h20.6v2.72Zm0,4.72v-2.8h20.6v2.8Zm24.52,9.56H103.52v2.24h3.8l-1.56.48a22.761,22.761,0,0,0,4.88,7.6,23.415,23.415,0,0,1-7.52,4.08,9.8,9.8,0,0,1,1.52,2.12,27.439,27.439,0,0,0,7.84-4.48,23.607,23.607,0,0,0,8.44,4.4,9.144,9.144,0,0,1,1.64-2.12,22.484,22.484,0,0,1-8.24-3.92A23.786,23.786,0,0,0,120.04-12a2.493,2.493,0,0,0,.36-.48l-1.72-.68Zm-1.32,2.24a20.5,20.5,0,0,1-4.44,6.52,18.614,18.614,0,0,1-4.4-6.52ZM160-26.28v6.08h2.8v-8.64H147.32V-33c.56-.08.76-.28.8-.56l-3.6-.24v4.96H129.2v8.64h2.72v-6.08Zm4.16,8.68H141.8c.96-2.2,1.88-4.32,2.64-6.16.52,0,.76-.12.88-.44l-3.44-.68c-.88,2.2-1.96,4.72-3.08,7.28H127.88V-15h9.76c-1.64,3.6-3.28,7.12-4.68,9.64l2.76.72c.28-.52.56-1.12.88-1.72,2.64.76,5.44,1.72,8.16,2.72-4,2.44-9.2,3.88-15.48,4.72a10.267,10.267,0,0,1,1.56,2.32c6.96-1.08,12.64-2.88,16.92-5.92a81.4,81.4,0,0,1,12.56,5.96l1.88-2.32A89.393,89.393,0,0,0,150.08-4.4a22.318,22.318,0,0,0,6.2-10.44,2.166,2.166,0,0,0,.6-.16h7.28ZM153.36-15a18.955,18.955,0,0,1-6.08,9.56c-3.28-1.16-6.6-2.24-9.64-3.04.96-2.04,2-4.28,3-6.52ZM187.84-4.44H204V-23.48h-8.92c.16-1.08.32-2.36.48-3.64h10.76v-2.4H195.84c.12-1.24.24-2.44.32-3.48.52-.04.76-.24.8-.52l-3.44-.24c-.08,1.28-.2,2.76-.32,4.24H181.88v2.4h11.08c-.12,1.32-.28,2.56-.44,3.64h-4.68Zm2.56-7.8V-15.8h11v3.56Zm0-5.6v-3.52h11v3.52Zm0,11.28V-10.2h11v3.64ZM177,3.44v-26.8c.52-.08.76-.28.8-.52l-.92-.28a72.322,72.322,0,0,0,3.36-7.92c.48.04.8-.12.88-.4l-3.16-1.04c-2.24,6.92-5.84,13.88-9.52,18.04a22.3,22.3,0,0,1,1.4,2.52,47.2,47.2,0,0,0,4.56-6.56V3.44Zm7.04-4.52V-20.72c.52-.08.72-.28.76-.56l-3.28-.2V3.32h2.52v-2h22.72v-2.4Z" transform="translate(73.039 35)" fill="#333"/>
      <g id="グループ_2460" data-name="グループ 2460" transform="translate(0 1.673)">
        <line id="線_458" data-name="線 458" x2="25.647" y2="39.029" transform="translate(25.647)" fill="none" stroke="#333" stroke-width="2"/>
        <line id="線_459" data-name="線 459" x2="25.647" y2="39.029" fill="none" stroke="#333" stroke-width="2"/>
      </g>
      <g id="グループ_2461" data-name="グループ 2461" transform="translate(303.308 0)">
        <line id="線_458-2" data-name="線 458" x1="26" y2="39" transform="translate(0.092)" fill="none" stroke="#333" stroke-width="2"/>
        <line id="線_459-2" data-name="線 459" x1="25" y2="39" transform="translate(26.092)" fill="none" stroke="#333" stroke-width="2"/>
      </g>
    </g>
    <path id="パス_9608" data-name="パス 9608" d="M-119.52-7.08a.907.907,0,0,0,.9-.9.907.907,0,0,0-.9-.9.907.907,0,0,0-.9.9A.906.906,0,0,0-119.52-7.08Zm-4.308-1.44,3.96,3.96L-123.84-.588l.348.348,3.972-3.972,3.96,3.96.348-.348-3.96-3.96,3.96-3.96-.348-.348-3.96,3.96-3.96-3.96Zm1.788,3.96a.907.907,0,0,0-.9-.9.907.907,0,0,0-.9.9.907.907,0,0,0,.9.9A.906.906,0,0,0-122.04-4.56Zm5.04,0a.907.907,0,0,0,.9.9.907.907,0,0,0,.9-.9.907.907,0,0,0-.9-.9A.906.906,0,0,0-117-4.56Zm-2.52,2.52a.907.907,0,0,0-.9.9.907.907,0,0,0,.9.9.907.907,0,0,0,.9-.9A.906.906,0,0,0-119.52-2.04Zm17.5-6.384h-4.74V-9.888c.156-.024.228-.084.24-.168l-1.068-.072v1.7h-4.428V-5.16c0,1.7-.1,4.068-1.176,5.748a3.4,3.4,0,0,1,.684.456c1.128-1.752,1.3-4.38,1.3-6.2v-2.5h9.192Zm-3.372,5a22.855,22.855,0,0,1,1.8,2.652l-5.208.24a51.632,51.632,0,0,0,1.968-5.856c.156-.012.264-.072.288-.156l-1.08-.288A44.811,44.811,0,0,1-109.644-.5l-1.44.06.372.972a.2.2,0,0,0,.18-.156c1.776-.1,4.644-.252,7.344-.432a10.775,10.775,0,0,1,.516,1.128l.792-.4a21.164,21.164,0,0,0-2.8-4.428Zm10.272-4.14h4.092V-8.3h-4.092V-9.9c.168-.024.228-.084.24-.168l-1.068-.072V-8.3h-2.316c.168-.432.324-.864.456-1.3.144,0,.228-.048.252-.132l-1.008-.276a11.224,11.224,0,0,1-1.776,3.828,3.969,3.969,0,0,1,.7.42,10.035,10.035,0,0,0,1.056-1.8h2.64v2.04h-4.968v.768h10.836V-5.52h-5.04Zm-3.192,8.58v-.5h5.64v.492h.84v-4.6h-7.3V1.02Zm5.64-1.26h-5.64V-2.832h5.64Zm13.188-.54V-5.064c.948,0,1.092-.192,1.236-1.488a1.619,1.619,0,0,0,.036-.216l-.444-.072-.168.012h-2.928v-.7h2.748V-9.372h-2.748V-9.9c.156-.024.228-.084.24-.168l-1.008-.06v.756h-1.992V-9.9c.156-.024.216-.084.228-.168l-.972-.06v.756h-3.108v.564h3.108v.72h-2.46a16,16,0,0,1-.708,1.944l.756.048.072-.18h1.752a5.844,5.844,0,0,1-3.036,1.26,2.308,2.308,0,0,1,.384.636,10.244,10.244,0,0,0,1.128-.288V-.78Zm-3.036-8.028v.72h-1.992v-.72Zm-2.124,1.98a4.439,4.439,0,0,0,.12-.7h2v.7ZM-82.524-5.4h.768v-.876h2.7c-.1.672-.168.672-.468.672-.132,0-.492-.012-.876-.048a1.745,1.745,0,0,1,.108.3H-85.8a2.665,2.665,0,0,0,.912-.924h2.364ZM-86.58-4.008v-.8H-80.3v.8Zm0,1.32V-3.48H-80.3v.792Zm0,1.356V-2.16H-80.3v.828Zm6.828-6.756h-2v-.72h2Zm-7.392.564h1.86a2.289,2.289,0,0,1-.18.7H-87.4Zm1.836,6.9A15.782,15.782,0,0,1-88.9.468a5.863,5.863,0,0,1,.54.564A21,21,0,0,0-84.708-.12c.156,0,.2,0,.264-.072ZM-78.1.588a36.473,36.473,0,0,0-3.732-1.2l-.648.432A28.9,28.9,0,0,1-78.96,1.032Zm1-2.316A26.706,26.706,0,0,1-74.472,1.02l.72-.66a23.749,23.749,0,0,0-2.712-2.652ZM-64.56-9.66v7.608h3.636V-9.66Zm.732,4.62V-6.7h2.148V-5.04Zm0-2.3V-8.976h2.148v1.632Zm0,4.62V-4.392h2.148v1.668ZM-55.092-6.4h-4.02V-8.832h5.064v-.756h-5.82V-5.16c0,1.776-.1,4.1-1.212,5.748a2.519,2.519,0,0,1,.648.456c1.164-1.74,1.32-4.32,1.32-6.2v-.516h3.72A9.332,9.332,0,0,1-56.7-2.028a9.98,9.98,0,0,1-1.38-3.42l-.672.156a11.611,11.611,0,0,0,1.584,3.9A5.854,5.854,0,0,1-59.58.372a2.584,2.584,0,0,1,.48.66A7.045,7.045,0,0,0-56.676-.744a6.542,6.542,0,0,0,2.3,1.752A2.72,2.72,0,0,1-53.844.36a6.171,6.171,0,0,1-2.364-1.716,10.754,10.754,0,0,0,1.656-4.788.322.322,0,0,0,.072-.144l-.468-.144Zm-8.8,4.632a5.738,5.738,0,0,1-1.26,2.34,5.389,5.389,0,0,1,.588.444A6.88,6.88,0,0,0-63.2-1.38c.132,0,.2-.036.24-.108ZM-60.756-.24a9.791,9.791,0,0,0-.912-1.524l-.636.3A7.969,7.969,0,0,1-61.44.108Zm9.288,1.3h.78V-6.9c.156-.012.216-.072.24-.144l-.324-.084a21.758,21.758,0,0,0,1.1-2.484c.144.012.228-.024.276-.108l-.96-.324a15.978,15.978,0,0,1-3,5.4,5.947,5.947,0,0,1,.42.756,14.175,14.175,0,0,0,1.464-2Zm9.24-3.816V-3.5H-45.4V-5.328h2.9V-9.564h-6.492v4.236h2.772V-.3a3.491,3.491,0,0,1-1.86-2.412c.084-.5.156-1.032.2-1.572.132-.012.216-.06.24-.156l-1-.144c-.168,2.244-.648,4.14-1.752,5.148a3.343,3.343,0,0,1,.6.468,5.744,5.744,0,0,0,1.44-2.616c.888,2,2.352,2.412,4.284,2.412h2a2.633,2.633,0,0,1,.276-.78C-42.168.06-43.716.06-44,.06A7.362,7.362,0,0,1-45.4-.048V-2.76ZM-43.3-8.808v2.724h-4.92V-8.808ZM-31.488-.78V-5.064c.948,0,1.092-.192,1.236-1.488a1.619,1.619,0,0,0,.036-.216l-.444-.072-.168.012h-2.928v-.7h2.748V-9.372h-2.748V-9.9c.156-.024.228-.084.24-.168l-1.008-.06v.756h-1.992V-9.9c.156-.024.216-.084.228-.168l-.972-.06v.756h-3.108v.564h3.108v.72h-2.46a16,16,0,0,1-.708,1.944l.756.048.072-.18h1.752a5.844,5.844,0,0,1-3.036,1.26,2.308,2.308,0,0,1,.384.636,10.244,10.244,0,0,0,1.128-.288V-.78Zm-3.036-8.028v.72h-1.992v-.72Zm-2.124,1.98a4.439,4.439,0,0,0,.12-.7h2v.7ZM-34.524-5.4h.768v-.876h2.7c-.1.672-.168.672-.468.672-.132,0-.492-.012-.876-.048a1.745,1.745,0,0,1,.108.3H-37.8a2.665,2.665,0,0,0,.912-.924h2.364ZM-38.58-4.008v-.8H-32.3v.8Zm0,1.32V-3.48H-32.3v.792Zm0,1.356V-2.16H-32.3v.828Zm6.828-6.756h-2v-.72h2Zm-7.392.564h1.86a2.289,2.289,0,0,1-.18.7H-39.4Zm1.836,6.9A15.782,15.782,0,0,1-40.9.468a5.863,5.863,0,0,1,.54.564A21,21,0,0,0-36.708-.12c.156,0,.2,0,.264-.072ZM-30.1.588a36.472,36.472,0,0,0-3.732-1.2l-.648.432A28.9,28.9,0,0,1-30.96,1.032Zm4.524-7.8a8.156,8.156,0,0,0-.444-1.152h2.328v-.7h-3.288q.18-.36.324-.72a.227.227,0,0,0,.252-.108l-.936-.3a8.11,8.11,0,0,1-1.776,2.952,4.78,4.78,0,0,1,.624.432,8.194,8.194,0,0,0,1.14-1.56h.528a6.811,6.811,0,0,1,.516,1.4Zm3.348-1.848a6.74,6.74,0,0,0,.348-.732c.108.012.216-.012.252-.108l-.96-.288A6.669,6.669,0,0,1-24.552-7.38a6.884,6.884,0,0,1,.6.432v.492h-3.84v.7h3.84V-4.6h-5.064v.708H-21.5v1.116H-28.44v.708H-21.5V.024c0,.252-.084.252-.756.252-.312,0-.756-.012-1.248-.024a3.337,3.337,0,0,1,.288.768c2.028,0,2.544-.012,2.544-.972V-2.064h2.2v-.708h-2.2v-.984c.132-.036.192-.072.216-.132H-18V-4.6h-5.124V-5.76h3.936v-.7h-3.936v-.708c.168-.024.228-.072.24-.156l-.576-.036a7.661,7.661,0,0,0,.816-1.008h.924a5.661,5.661,0,0,1,.888,1.476l.7-.312a6.166,6.166,0,0,0-.708-1.164h2.868v-.7ZM-24.108-.12a8.61,8.61,0,0,0-2.16-1.764l-.564.48A8.459,8.459,0,0,1-24.7.408ZM-12.84-5.94h1.824c.348,0,.852-.012,1.224-.036.06,1.176.132,2.436.168,3.192a4.144,4.144,0,0,0-1.14-.156c-1.1,0-2.34.54-2.34,1.764,0,1.056.936,1.728,2.34,1.728,1.8,0,1.992-1.14,2-2.16A7.206,7.206,0,0,1-6.816-.24l.468-.768A8.841,8.841,0,0,0-8.8-2.532c-.036-.768-.1-2.172-.144-3.5a11.562,11.562,0,0,0,2.424-.432l-.108-.84a10.625,10.625,0,0,1-2.352.48C-9-7.74-9.024-8.52-9.036-9.288c.192-.036.3-.132.312-.252l-1.212-.036c.024.888.06,1.776.108,2.808-1.008.072-2.016.06-3.024.048ZM-15.084.252a1.646,1.646,0,0,1-.12-.576,14.059,14.059,0,0,1,1.236-3.2l-.54-.5c-.252.564-.732,1.716-1,2.436a14.228,14.228,0,0,1-.108-2.268,23.039,23.039,0,0,1,.7-5.172.31.31,0,0,0,.312-.216l-1.164-.228a30.57,30.57,0,0,0-.648,5.6A13.173,13.173,0,0,0-15.9.348Zm5.532-1.836c0,.96-.324,1.392-1.212,1.392s-1.6-.336-1.6-1.008c0-.756.876-1.02,1.608-1.02A4.065,4.065,0,0,1-9.564-2Zm7.152-2.6c.072-.5.108-1,.156-1.44H.36V-9.576H-4.416v3.948h1.368C-3.18-3.588-3.528-.9-5.112.468A2.648,2.648,0,0,1-4.548,1a7.525,7.525,0,0,0,2.04-4.452h2.1C-.516-.984-.648-.048-.876.192c-.1.108-.2.132-.42.132s-.8,0-1.416-.06A2.091,2.091,0,0,1-2.5.984c.336.024.66.024.948.024C-.684,1.008-.48.972-.216.672.1.3.228-.792.372-3.888c0-.1.012-.18.012-.264L-.036-4.2-.2-4.188ZM-.42-8.832V-6.36H-3.672V-8.832ZM4.668-.084c0,.312-.048.312-1.008.312-.336,0-.744,0-1.188-.012a3.439,3.439,0,0,1,.312.816A7.509,7.509,0,0,0,4.944.876c.36-.132.528-.384.528-.96V-9.672c.156-.024.216-.072.228-.168L4.668-9.9ZM1.656-1.956h.792v-6.48c.156-.024.216-.084.228-.168l-1.02-.06Zm11.784-8.16a10.147,10.147,0,0,1-3.7,3.288,3.031,3.031,0,0,1,.444.66,11.512,11.512,0,0,0,3.66-3.2,12.941,12.941,0,0,0,3.744,3.144,4.044,4.044,0,0,1,.48-.732A11.475,11.475,0,0,1,14.34-9.912a.261.261,0,0,0,.192-.156Zm-6.324.744A8.5,8.5,0,0,1,9.1-7.332l.648-.528A8.8,8.8,0,0,0,7.728-9.84ZM17.76-4.356v-.708H14.292V-6.276h1.884V-6.96H11.688v.684h1.824v1.212H10.248v.708h3.264V-1.5c0,.18,0,.192-.624.192-.2,0-.468-.012-.744-.012a2.666,2.666,0,0,1,.24.7c1.608,0,1.908-.1,1.908-.864V-4.356ZM7-5.328v.768H8.58v3.216C8-.828,7.356-.288,6.828.1l.48.888A.171.171,0,0,0,7.416.792C7.884.384,8.46-.156,9.024-.684,10.248.8,11.976.8,14.46.8c1.2,0,2.52-.024,3.36-.06a3.423,3.423,0,0,1,.264-.816c-.936.06-2.472.1-3.78.1-2.16,0-3.984,0-4.932-1.428V-5.328ZM17.8-1.56a10.924,10.924,0,0,0-1.884-2.352c-.144.072-.276.132-.624.312a11.037,11.037,0,0,1,1.836,2.4ZM11.724-3.876A7.218,7.218,0,0,1,9.936-1.584a5.6,5.6,0,0,1,.576.444,8.972,8.972,0,0,0,1.872-2.328c.132,0,.2-.036.24-.108ZM28.512-.78V-5.064c.948,0,1.092-.192,1.236-1.488a1.619,1.619,0,0,0,.036-.216L29.34-6.84l-.168.012H26.244v-.7h2.748V-9.372H26.244V-9.9c.156-.024.228-.084.24-.168l-1.008-.06v.756H23.484V-9.9c.156-.024.216-.084.228-.168l-.972-.06v.756H19.632v.564H22.74v.72H20.28a16,16,0,0,1-.708,1.944l.756.048.072-.18h1.752a5.844,5.844,0,0,1-3.036,1.26,2.308,2.308,0,0,1,.384.636,10.244,10.244,0,0,0,1.128-.288V-.78ZM25.476-8.808v.72H23.484v-.72Zm-2.124,1.98a4.439,4.439,0,0,0,.12-.7h2v.7ZM25.476-5.4h.768v-.876h2.7c-.1.672-.168.672-.468.672-.132,0-.492-.012-.876-.048a1.745,1.745,0,0,1,.108.3H22.2a2.665,2.665,0,0,0,.912-.924h2.364ZM21.42-4.008v-.8H27.7v.8Zm0,1.32V-3.48H27.7v.792Zm0,1.356V-2.16H27.7v.828Zm6.828-6.756h-2v-.72h2Zm-7.392.564h1.86a2.289,2.289,0,0,1-.18.7H20.6Zm1.836,6.9A15.782,15.782,0,0,1,19.1.468a5.862,5.862,0,0,1,.54.564A21,21,0,0,0,23.292-.12c.156,0,.2,0,.264-.072ZM29.9.588a36.472,36.472,0,0,0-3.732-1.2l-.648.432A28.9,28.9,0,0,1,29.04,1.032Zm2.388-9.852v4.416c0,1.716-.132,3.876-1.476,5.388a2.947,2.947,0,0,1,.612.54,7,7,0,0,0,1.536-3.828H36.12V.9h.78V-2.748h3.456v2.6c0,.336-.06.336-1.056.336-.348,0-.78-.012-1.224-.024a3.1,3.1,0,0,1,.288.78c2.268.024,2.8.012,2.8-1.092v-9.12ZM36.12-6.372H33.084V-8.5H36.12Zm.78,0V-8.5h3.456v2.124Zm-3.816.756H36.12v2.1H33.036c.036-.468.048-.912.048-1.332Zm3.816,0h3.456v2.1H36.9Zm14.82-4.44A8.045,8.045,0,0,1,53.3-8.376l.468-.348a7.846,7.846,0,0,0-1.62-1.668Zm-1.824.48A7.99,7.99,0,0,1,51.48-7.908l.468-.336a8.435,8.435,0,0,0-1.608-1.68ZM46.308-9.72c-.144,1.056-.336,2.136-.516,3.012-.8.1-1.788.2-2.376.276l.072.84c.648-.108,1.524-.216,2.136-.288a19.629,19.629,0,0,1-2.388,6L44.028.5a23.013,23.013,0,0,0,2.46-6.48,13.823,13.823,0,0,1,1.464-.12c1.2-.012,1.644.8,1.656,2.172a9.058,9.058,0,0,1-.384,2.46c-.24.768-.648,1.2-1.332,1.2a3.213,3.213,0,0,1-1.836-.912,4.505,4.505,0,0,1-.324.732A3.554,3.554,0,0,0,47.9.6,2.2,2.2,0,0,0,50.04-1.212,9.358,9.358,0,0,0,50.448-3.9c0-1.8-.624-3.012-2.448-2.988-.3,0-.792.048-1.332.108.144-.72.36-1.884.492-2.556.228-.012.372-.072.4-.216Zm7.584,6.456A7.951,7.951,0,0,0,51.276-7.5l-.7.468A7.556,7.556,0,0,1,53.028-2.94Zm9.864-6.756a13.682,13.682,0,0,1-1.584,1.5,9.183,9.183,0,0,1-.792-1.572l-.708.216a10.6,10.6,0,0,0,2.82,4.1h-5.9A8.844,8.844,0,0,0,60.06-9.228a.206.206,0,0,0,.132-.132,4.1,4.1,0,0,1-.564-.288l-.144.048H55.872v.72H59.04a7.824,7.824,0,0,1-1.224,1.8,12.661,12.661,0,0,0-1.524-1.248l-.516.432a14.6,14.6,0,0,1,1.536,1.332,8.5,8.5,0,0,1-2.5,1.668,3.04,3.04,0,0,1,.5.612,9.9,9.9,0,0,0,1.812-1.1V-5h1.344V-3.1H55.608v.756h2.784c-.2,1.056-.9,2.064-3.024,2.784a2.359,2.359,0,0,1,.516.636C58.3.228,59.028-1.008,59.22-2.34h2.316V-.264c0,.936.252,1.188,1.236,1.188h1.644c.876,0,1.092-.432,1.176-1.98a2.384,2.384,0,0,1-.732-.336C64.812-.06,64.752.18,64.356.18H62.868c-.432,0-.5-.06-.5-.444V-2.34h2.952V-3.1H62.364V-5h1.512V-5.46A8.334,8.334,0,0,0,65.64-4.392a3.366,3.366,0,0,1,.552-.684A7.886,7.886,0,0,1,63.84-6.54a20.91,20.91,0,0,0,1.836-1.476.289.289,0,0,0,.252-.06l-.732-.54a16.387,16.387,0,0,1-1.824,1.632,8.5,8.5,0,0,1-.84-1.008,19.631,19.631,0,0,0,1.716-1.416.246.246,0,0,0,.24-.072ZM59.28-3.1V-5h2.256V-3.1Zm13.608-.288H76.92v-.78H72.888V-6.936h4.476v-.792H72.888V-9.9c.168-.024.24-.084.252-.168l-1.08-.06v2.4H69.48c.24-.576.444-1.176.624-1.764.156,0,.24-.048.276-.132l-1.044-.288a11.683,11.683,0,0,1-2.328,4.7,4.852,4.852,0,0,1,.672.492,9.458,9.458,0,0,0,1.44-2.22h2.94v2.772H68.4v.78h3.66V-.168H67.08V.624H77.928V-.168h-5.04Zm8.64-6.336c-.084,1.476-.192,5.2-.192,6.708,0,2.268,1.116,3.528,3.3,3.528A6.507,6.507,0,0,0,89.508-1.92a4.772,4.772,0,0,1-.54-.708,5.842,5.842,0,0,1-4.32,2.28c-1.512,0-2.4-.864-2.4-2.652s.12-4.956.216-6.348c.24-.036.348-.12.372-.264ZM91.872-7.476c.72.024,1.812.024,2.58.024.54,0,1.14,0,1.656-.024l.072,2.22c-.264.012-.54.012-.8.012-1.524,0-2.088-.072-2.088-.432,0-.24.288-.5.828-.8l-.576-.372c-.768.492-1.116.864-1.116,1.32,0,.7.576,1.02,2.628,1.02.348,0,.78-.012,1.164-.024.012.648.036,1.272.048,1.788A5.276,5.276,0,0,0,95-2.892c-1.344,0-2.652.636-2.652,1.788,0,1.128,1.116,1.752,2.64,1.752,1.452,0,2.136-.66,2.148-1.8,0-.156-.012-.372-.012-.564A11.7,11.7,0,0,1,100.1.048l.528-.732A13.338,13.338,0,0,0,97.1-2.556l-.1-2a22.861,22.861,0,0,0,3.468-.42l-.1-.78A20.2,20.2,0,0,1,97-5.292c-.024-.744-.036-1.488-.048-2.208a24.594,24.594,0,0,0,4.092-.456l-.108-.792a23.558,23.558,0,0,1-3.984.468c0-.2-.012-1.128,0-1.32.2-.036.312-.108.324-.252l-1.212-.06c0,.42.012,1.092.024,1.668-.5.012-1.116.024-1.656.024-.816,0-1.812,0-2.556-.048ZM96.324-1.32c0,.84-.36,1.26-1.308,1.26-1.044,0-1.884-.348-1.884-1.056s.924-1.092,1.836-1.092a5.042,5.042,0,0,1,1.344.192Zm9.72-6.732-2.736.072.024.792c.492-.024,4.284-.156,5.532-.18.024.516.048,1.32.048,1.524a1.778,1.778,0,0,0-1.116-.372,2.209,2.209,0,0,0-2.16,2.244,2.047,2.047,0,0,0,2.016,2.1,1.507,1.507,0,0,0,1.236-.636h.012c-.3,1.14-1.284,2.136-3.12,2.8a6.565,6.565,0,0,1,.612.684c2.112-.84,3.144-2.076,3.456-3.48a5.172,5.172,0,0,0,.12-1.164,4.09,4.09,0,0,0-.144-1.26c-.036-.66-.06-1.524-.084-2.46,1.428-.048,2.88-.072,3.9-.048v-.828c-.9.012-2.448.048-3.924.1-.024-1.26-.024-1.4-.024-1.548.216-.036.3-.156.312-.252l-1.236-.048c.024.3.06,1.608.072,1.872Zm1.7,5.472a1.343,1.343,0,0,1-1.332-1.392A1.448,1.448,0,0,1,107.844-5.5c1.224,0,1.224,1.092,1.224,1.56A1.294,1.294,0,0,1,107.748-2.58Zm7.872.24a1.685,1.685,0,0,0-1.68,1.68,1.685,1.685,0,0,0,1.68,1.68A1.685,1.685,0,0,0,117.3-.66,1.685,1.685,0,0,0,115.62-2.34Zm0,2.916A1.234,1.234,0,0,1,114.384-.66a1.237,1.237,0,0,1,1.236-1.248A1.239,1.239,0,0,1,116.868-.66,1.237,1.237,0,0,1,115.62.576Z" transform="translate(1161 5580)" fill="#333"/>
  </g>
</svg>
