<svg xmlns="http://www.w3.org/2000/svg" width="293.776" height="131.123" viewBox="0 0 293.776 131.123">
  <g id="グループ_2584" data-name="グループ 2584" transform="translate(-45.332 -6764.445)">
    <g id="グループ_2552" data-name="グループ 2552" transform="translate(98 6765)">
      <path id="パス_9642" data-name="パス 9642" d="M16.992-3.906H9.576V-5.364h5.8v-.972h-5.8v-1.44h6.678V-8.784H11.988c.36-.54.756-1.242,1.008-1.728a.341.341,0,0,0,.378-.162l-.522-.162H16.92V-11.9H13.968a26.882,26.882,0,0,0,1.458-2.412c.2,0,.342-.054.378-.162l-1.422-.486a16.776,16.776,0,0,1-1.476,2.808c.162.054.432.162.666.252H11.3v-2.916c.234-.036.4-.126.414-.306l-1.566-.09V-11.9H7.812v-2.916c.234-.036.378-.126.4-.306l-1.53-.09V-11.9H4.32l.954-.36a11.575,11.575,0,0,0-1.6-2.736l-1.026.36A13.571,13.571,0,0,1,4.158-11.9H1.134v1.062H5.742l-.7.144a8.885,8.885,0,0,1,.936,1.908h-4.1v1.008h6.5v1.44H2.79v.972H8.37v1.458H1.062v1.044H7.2A17.56,17.56,0,0,1,.594.18a4.747,4.747,0,0,1,.792,1.026A18.374,18.374,0,0,0,8.37-2.5V1.53H9.576V-2.592A17.553,17.553,0,0,0,16.614,1.26,5.182,5.182,0,0,1,17.424.2a16.876,16.876,0,0,1-6.678-3.06h6.246ZM11.106-8.784H6.66l.558-.126a8.532,8.532,0,0,0-.99-1.926h5.6a16.377,16.377,0,0,1-1.008,1.944Zm23.058-5.724H21.672v7.542h3.294A12.884,12.884,0,0,1,19.53-3.51a5.05,5.05,0,0,1,.81.972,14.483,14.483,0,0,0,4.212-2.5v.954c0,1.512-.306,3.51-3.564,4.9a3.908,3.908,0,0,1,.81.918C25.326.126,25.722-2.2,25.722-4.05v-.828c.234-.018.342-.108.36-.234l-1.35-.09A11.477,11.477,0,0,0,26.37-6.966h3.114a10.324,10.324,0,0,0,1.638,1.818L29.9-5.22V1.53H31.1V-4.878a.4.4,0,0,0,.234-.09,13.13,13.13,0,0,0,4.1,2.376,4.507,4.507,0,0,1,.828-1.026,11.837,11.837,0,0,1-5.4-3.348h3.294Zm-6.912,1.026v2.232H22.86v-2.232ZM28.44-11.25v-2.232h4.5v2.232Zm-1.188.99v2.25H22.86v-2.25ZM28.44-8.01v-2.25h4.5v2.25Zm26.55-.126H38.628V-7.11h1.656V-.99l-1.728.18L38.97.45a.287.287,0,0,0,.252-.234c1.4-.18,3.528-.468,5.67-.792V1.53h1.17V-7.11H54.99ZM41.418-3.582V-4.9h3.474v1.314Zm0-2.25V-7.11h3.474v1.278Zm3.474,3.186v1.134c-1.188.144-2.376.27-3.474.4v-1.53ZM40.986-14.418v5.112H52.632v-5.112Zm1.17,2.106v-1.224h9.27v1.224Zm0,2.124v-1.26h9.27v1.26Zm11.034,4.3H46.584v1.008h1.71l-.7.216a10.242,10.242,0,0,0,2.2,3.42A10.537,10.537,0,0,1,46.4.594a4.41,4.41,0,0,1,.684.954A12.347,12.347,0,0,0,50.616-.468a10.623,10.623,0,0,0,3.8,1.98,4.115,4.115,0,0,1,.738-.954,10.118,10.118,0,0,1-3.708-1.764A10.7,10.7,0,0,0,54.018-5.4a1.122,1.122,0,0,0,.162-.216l-.774-.306ZM52.6-4.878a9.223,9.223,0,0,1-2,2.934,8.376,8.376,0,0,1-1.98-2.934ZM72-11.826V-9.09h1.26v-3.888H66.294V-14.85c.252-.036.342-.126.36-.252l-1.62-.108v2.232H58.14V-9.09h1.224v-2.736ZM73.872-7.92H63.81c.432-.99.846-1.944,1.188-2.772.234,0,.342-.054.4-.2L63.846-11.2c-.4.99-.882,2.124-1.386,3.276H57.546v1.17h4.392c-.738,1.62-1.476,3.2-2.106,4.338l1.242.324c.126-.234.252-.5.4-.774,1.188.342,2.448.774,3.672,1.224A17.969,17.969,0,0,1,58.176.486a4.62,4.62,0,0,1,.7,1.044,17.747,17.747,0,0,0,7.614-2.664,36.628,36.628,0,0,1,5.652,2.682L72.99.5A40.227,40.227,0,0,0,67.536-1.98a10.043,10.043,0,0,0,2.79-4.7.975.975,0,0,0,.27-.072h3.276Zm-4.86,1.17a8.53,8.53,0,0,1-2.736,4.3c-1.476-.522-2.97-1.008-4.338-1.368.432-.918.9-1.926,1.35-2.934ZM84.528-2H91.8v-8.568H87.786c.072-.486.144-1.062.216-1.638h4.842v-1.08H88.128c.054-.558.108-1.1.144-1.566.234-.018.342-.108.36-.234l-1.548-.108c-.036.576-.09,1.242-.144,1.908H81.846v1.08h4.986c-.054.594-.126,1.152-.2,1.638H84.528Zm1.152-3.51v-1.6h4.95v1.6Zm0-2.52V-9.612h4.95v1.584Zm0,5.076V-4.59h4.95v1.638Zm-6.03,4.5v-12.06c.234-.036.342-.126.36-.234l-.414-.126a32.546,32.546,0,0,0,1.512-3.564c.216.018.36-.054.4-.18l-1.422-.468A24.478,24.478,0,0,1,75.8-6.966a10.037,10.037,0,0,1,.63,1.134A21.241,21.241,0,0,0,78.48-8.784V1.548ZM82.818-.486V-9.324c.234-.036.324-.126.342-.252l-1.476-.09V1.494h1.134v-.9H93.042V-.486Z" transform="translate(42.725 17)" fill="#333"/>
      <g id="グループ_2460" data-name="グループ 2460" transform="translate(0 0.841)">
        <line id="線_458" data-name="線 458" x2="12.896" y2="19.624" transform="translate(12.896)" fill="none" stroke="#333" stroke-width="2"/>
        <line id="線_459" data-name="線 459" x2="12.896" y2="19.624" fill="none" stroke="#333" stroke-width="2"/>
      </g>
      <g id="グループ_2461" data-name="グループ 2461" transform="translate(152.551 0)">
        <line id="線_458-2" data-name="線 458" x1="13.073" y2="19.609" transform="translate(0)" fill="none" stroke="#333" stroke-width="2"/>
        <line id="線_459-2" data-name="線 459" x1="12.57" y2="19.609" transform="translate(13.073)" fill="none" stroke="#333" stroke-width="2"/>
      </g>
    </g>
    <g id="グループ_2553" data-name="グループ 2553" transform="translate(94.804 6800.078)">
      <path id="パス_9644" data-name="パス 9644" d="M14.022-8.19H9.594v-2.952h7.29V-12.33H9.594v-2.5c.234-.036.342-.126.36-.252l-1.6-.108v2.862H1.134v1.188H8.352V-8.19H2.124V-7H4.95l-1.026.378A13.277,13.277,0,0,0,7.866-1.836,25.005,25.005,0,0,1,.63.378,4.362,4.362,0,0,1,1.3,1.53,24.808,24.808,0,0,0,8.946-1.1a20.033,20.033,0,0,0,7.668,2.682A5.383,5.383,0,0,1,17.388.432a20.839,20.839,0,0,1-7.254-2.25A13.146,13.146,0,0,0,14.9-7.524a.438.438,0,0,0,.252-.18l-.9-.522ZM13.266-7a11.422,11.422,0,0,1-4.23,4.5A11.51,11.51,0,0,1,5.058-7Zm19.62,2.088H27.54c.126-.486.234-.972.342-1.476h7.236V-7.416H28.08c.09-.522.162-1.044.234-1.584h5.958v-1.008H32.22a23.676,23.676,0,0,0,1.656-2.574c.2,0,.324-.054.36-.162L32.9-13.23A17.9,17.9,0,0,1,31.14-10.1l.216.09h-6.84V-9h2.646c-.072.54-.144,1.062-.234,1.584h-2.61V-6.39H26.73C26.1-3.276,25-.738,23.2.774a5.908,5.908,0,0,1,.9.684,11.733,11.733,0,0,0,3.15-5.4h5.022A6.722,6.722,0,0,1,30.33-1.386a7.462,7.462,0,0,1-2.214-2.232l-.972.324a8.551,8.551,0,0,0,2.3,2.538A11.783,11.783,0,0,1,25.956.612a3.814,3.814,0,0,1,.684.918A11.772,11.772,0,0,0,30.384-.108,13.49,13.49,0,0,0,34.65,1.53,4.647,4.647,0,0,1,35.388.5,13.139,13.139,0,0,1,31.3-.828a8.425,8.425,0,0,0,2.34-3.618.286.286,0,0,0,.144-.18L33.1-4.95ZM25.2-12.582a9.426,9.426,0,0,1,.9,2.394l.99-.342a8.553,8.553,0,0,0-.954-2.34Zm-1.278,5.49-1.476.468V-10.3H24.48V-11.43H22.446v-3.42c.252-.036.342-.108.36-.252l-1.512-.09v3.762H18.738V-10.3h2.556v4.032c-1.026.324-1.98.612-2.736.828l.45,1.386a.329.329,0,0,0,.234-.27l2.052-.72V.018c0,.36,0,.378-1.26.378-.324,0-.684,0-1.08-.018a3.852,3.852,0,0,1,.378,1.17c2.412,0,3.114-.09,3.114-1.512v-5.49l1.638-.594Zm9.5-8.1a59.37,59.37,0,0,1-9.252,1.1,3.155,3.155,0,0,1,.288.936,66.26,66.26,0,0,0,9.45-1.044.5.5,0,0,0,.162.018.452.452,0,0,0,.18-.036ZM28.512-12.96a11.107,11.107,0,0,1,.522,2.5l1.008-.216a9.342,9.342,0,0,0-.576-2.448ZM51.984-4.77V-5.85H45.558V-8.37h4.014v-1.1H40.518a20.728,20.728,0,0,0,4.41-4.554A25.5,25.5,0,0,0,52.65-7.47a6.624,6.624,0,0,1,.81-1.062A22.991,22.991,0,0,1,45.684-14.9a.421.421,0,0,0,.36-.27l-1.764-.108A21.078,21.078,0,0,1,36.612-8.3a7.315,7.315,0,0,1,.756.954A25.94,25.94,0,0,0,40.428-9.4V-8.37H44.3v2.52H38.016v1.08H44.3V-.162H37.206V.918H52.83V-.162H45.558V-4.77ZM49.212-4.3A21.6,21.6,0,0,1,47.2-.882l.9.45a26.9,26.9,0,0,0,2.07-3.132c.2.018.342-.036.4-.144ZM42.372-.918a11.769,11.769,0,0,0-1.764-3.33l-.99.378a12.443,12.443,0,0,1,1.692,3.4ZM58.878-8.982a17.451,17.451,0,0,1,1.1,1.782l-3.186.054A50.258,50.258,0,0,0,60.426-12.4a.477.477,0,0,0,.4-.144l-1.278-.594a38.891,38.891,0,0,1-2.016,3.42A12.12,12.12,0,0,0,56.484-11a32.317,32.317,0,0,0,1.944-3.51q.3,0,.378-.162l-1.3-.522A26.929,26.929,0,0,1,55.818-11.7l-.576-.54-.648.774a16.461,16.461,0,0,1,2.3,2.682c-.432.594-.846,1.17-1.242,1.656H54.414l.324,1.35a.329.329,0,0,0,.27-.234c.7-.036,1.6-.072,2.592-.108V1.53h1.08v-7.7c.576-.018,1.17-.054,1.782-.09a9.744,9.744,0,0,1,.4,1.026l.954-.468a16.2,16.2,0,0,0-2.034-3.672Zm5.058-6.21a11.28,11.28,0,0,1-2.97,4.572,5.7,5.7,0,0,1,.882.72,12.928,12.928,0,0,0,3.114-4.716c.162.018.324-.018.378-.162Zm3.33.36a12.635,12.635,0,0,0,3.582,4.806,4.448,4.448,0,0,1,.846-.9,10.2,10.2,0,0,1-3.438-4.266ZM61.884-7.65l.45,1.314a.269.269,0,0,0,.252-.234c1.62-.09,4.068-.234,6.48-.4a8.619,8.619,0,0,1,.7,1.152l.954-.63a20.021,20.021,0,0,0-2.862-3.708l-.882.522a20.087,20.087,0,0,1,1.44,1.746c-1.368.054-2.736.108-3.96.144a38.09,38.09,0,0,0,1.62-3.708c.2,0,.342-.054.4-.18l-1.44-.45a31.7,31.7,0,0,1-1.71,4.392Zm6.084,3.42a9.74,9.74,0,0,0-3.024-2.16l-.756.684a9.676,9.676,0,0,1,2.988,2.232ZM61.542-1.4a15.406,15.406,0,0,0-1.206-3.474l-.918.306a16.257,16.257,0,0,1,1.152,3.51Zm-5.958-3.42A15.537,15.537,0,0,1,54.45-.45c.27.126.666.306.9.45a16.031,16.031,0,0,0,1.188-4.3c.216,0,.324-.072.36-.2Zm9.594,1.116c.234-.036.324-.126.342-.252l-1.458-.09V-.2c0,1.134.306,1.44,1.566,1.44h1.944c1.008,0,1.314-.5,1.422-2.5a2.939,2.939,0,0,1-.972-.414C67.968.018,67.878.27,67.446.27H65.772c-.5,0-.594-.072-.594-.486ZM71.586.306A12.77,12.77,0,0,0,69.372-3.78l-.936.468A12.921,12.921,0,0,1,70.578.846ZM62.3-3.546A6,6,0,0,1,60.768.162l.864.576a6.636,6.636,0,0,0,1.656-4.1ZM81.342-1.89h7.272v-9.468H84.942c.18-.63.36-1.332.468-1.872h4v-1.08H80.622v1.08h3.564c-.09.594-.252,1.3-.4,1.872H81.342Zm1.116-3.816V-7.6h5v1.89Zm0-2.808v-1.872h5v1.872Zm0,5.652V-4.77h5v1.908Zm-3.132-9.522v1.764h1.062v-2.79h-3.15v-1.44c.234-.036.324-.126.342-.252l-1.494-.09v1.782H72.954v2.79H73.98v-1.764Zm1.188,7.632A28.436,28.436,0,0,0,77.76-7.038a10.774,10.774,0,0,0,1.746-3.114.572.572,0,0,0,.18-.18c-.162-.072-.324-.144-.738-.36l-.2.054H76.266c.144-.27.288-.54.414-.81q.324,0,.378-.162l-1.278-.414a10.115,10.115,0,0,1-3.312,4.158,7.343,7.343,0,0,1,.774.7A10.281,10.281,0,0,0,74.43-8.208c.576.414,1.206.864,1.818,1.332a11.772,11.772,0,0,1-3.762,2.538,5.035,5.035,0,0,1,.666.864c.27-.126.54-.252.81-.4V1.224h1.062V.36h4.284V-4.374c.18.162.342.324.486.468Zm-5.652.342a13.328,13.328,0,0,0,2.214-1.836c.81.648,1.584,1.278,2.2,1.836Zm.162,3.762V-3.42h3.2V-.648ZM78.192-9.72a9.248,9.248,0,0,1-1.26,2.052c-.63-.45-1.26-.882-1.836-1.278.2-.252.4-.5.576-.774Zm4.716,8.244A10.194,10.194,0,0,1,79.362.7a7.082,7.082,0,0,1,.828.81,10.916,10.916,0,0,0,3.564-2.25.549.549,0,0,0,.324-.126ZM89.676.936A21.607,21.607,0,0,0,86.508-1.4l-.9.594A21.328,21.328,0,0,1,88.7,1.6Zm9.09-13.158a5.1,5.1,0,0,1,.54-.036c4.212,0,6.12,2.7,6.12,5.67,0,3.4-2.124,5.418-6.264,6.21a7.1,7.1,0,0,1,.756,1.1c4.356-1.008,6.84-3.078,6.84-7.362,0-3.51-2.25-6.8-7.452-6.8a7.9,7.9,0,0,0-8.1,7.938c0,2.844,1.368,4.356,2.88,4.356,2.988,0,4.86-4.878,5.508-10.476a.465.465,0,0,0,.45-.288Zm-4.644,9.81c-.864,0-1.692-1.206-1.692-3.132a6.626,6.626,0,0,1,5.886-6.606C97.866-7.218,96.3-2.412,94.122-2.412Z" transform="translate(-49.472 57.187)" fill="#333"/>
      <path id="パス_9645" data-name="パス 9645" d="M8.766-12.222a5.1,5.1,0,0,1,.54-.036c4.212,0,6.12,2.7,6.12,5.67,0,3.4-2.124,5.418-6.264,6.21A7.1,7.1,0,0,1,9.918.72c4.356-1.008,6.84-3.078,6.84-7.362,0-3.51-2.25-6.8-7.452-6.8a7.9,7.9,0,0,0-8.1,7.938c0,2.844,1.368,4.356,2.88,4.356,2.988,0,4.86-4.878,5.508-10.476a.465.465,0,0,0,.45-.288ZM4.122-2.412c-.864,0-1.692-1.206-1.692-3.132A6.626,6.626,0,0,1,8.316-12.15C7.866-7.218,6.3-2.412,4.122-2.412Zm27.756-7.956A29.677,29.677,0,0,1,31.1-6.444a18.485,18.485,0,0,0-4.842-1.278,56.3,56.3,0,0,0,1.116-5.616.758.758,0,0,0,.45-.288l-1.116-.666a.693.693,0,0,1-.4.2c-1.08.108-4.428.324-5.976.378l.162,1.458a.574.574,0,0,0,.378-.252c1.368-.09,4.248-.288,5.094-.36A43.323,43.323,0,0,1,25-7.794c-3.222.018-6.12,1.314-6.12,4.1,0,1.1.414,2.826,2.574,2.826s3.276-1.188,4.518-5.724A17.95,17.95,0,0,1,30.78-5.256,9.545,9.545,0,0,1,26.892.252a6.3,6.3,0,0,1,1.026.756,10.384,10.384,0,0,0,4.014-5.742c.918.4,1.854.864,2.826,1.35l.576-1.206c-1.026-.522-2.052-.99-3.024-1.4A35.607,35.607,0,0,0,33.1-9.666a.5.5,0,0,0,.522-.324ZM21.384-2c-.846,0-1.332-.684-1.332-1.692,0-1.908,2.07-2.934,4.662-2.97C23.562-2.448,22.7-2,21.384-2Z" transform="translate(174.529 57.187)" fill="#333"/>
      <path id="パス_9646" data-name="パス 9646" d="M5.814-25.874h-3.2L3.094-7.208H5.338ZM4.216.408A1.974,1.974,0,0,0,6.222-1.7,1.987,1.987,0,0,0,4.25-3.876,2.033,2.033,0,0,0,2.244-1.7,1.964,1.964,0,0,0,4.216.408Zm10.03-26.282h-3.2l.476,18.666H13.77ZM12.648.408A1.974,1.974,0,0,0,14.654-1.7a1.987,1.987,0,0,0-1.972-2.176A2.033,2.033,0,0,0,10.676-1.7,1.964,1.964,0,0,0,12.648.408Zm10.03-26.282h-3.2l.476,18.666H22.2ZM21.08.408A1.974,1.974,0,0,0,23.086-1.7a1.987,1.987,0,0,0-1.972-2.176A2.033,2.033,0,0,0,19.108-1.7,1.964,1.964,0,0,0,21.08.408Z" transform="translate(215.531 57.187)" fill="#333" stroke="#fff" stroke-width="0.5"/>
      <path id="パス_9643" data-name="パス 9643" d="M23.488,0V-48.192H17.216L6.336-42.368,8-36.928l8.128-4.48h.128V0ZM55.36.7c9.92,0,15.808-8.9,15.808-25.216,0-14.592-5.12-24.448-15.3-24.448-9.984,0-15.936,9.216-15.936,24.96C39.936-9.216,45.312.7,55.36.7Zm.128-5.952c-5.12,0-8.064-7.04-8.064-19.008,0-12.032,3.328-18.816,8.192-18.816,5.632,0,8.064,7.36,8.064,18.816C63.68-14.272,61.76-5.248,55.488-5.248ZM85.12-36c-4.752,0-8.4,4.224-8.4,11.04,0,6.768,3.648,10.7,8.208,10.7C89.3-14.256,93.28-18,93.28-25.44,93.28-31.632,90.4-36,85.12-36Zm-.1,3.216c2.976,0,3.984,3.552,3.984,7.584,0,4.32-1.152,7.68-3.984,7.68-2.688,0-4.032-3.312-4.032-7.392C80.992-28.512,81.952-32.784,85.024-32.784Zm22.752,11.472c-4.848,0-8.448,4.224-8.448,11.04s3.648,10.7,8.208,10.7c4.464,0,8.4-3.7,8.4-11.136C115.936-16.9,113.056-21.312,107.776-21.312Zm-.1,3.216c2.976,0,3.984,3.6,3.984,7.632,0,4.32-1.152,7.632-3.984,7.632-2.688,0-4.08-3.36-4.08-7.584C103.6-14.16,104.7-18.1,107.68-18.1Zm.432-17.952h-3.36L84.448.672H87.76Z" transform="translate(50.528 57.389)" fill="#fb297a"/>
      <line id="線_457" data-name="線 457" x2="293.776" transform="translate(-49.472 67.41)" fill="none" stroke="#fb297a" stroke-width="3"/>
    </g>
    <path id="パス_9647" data-name="パス 9647" d="M-119.52-7.08a.907.907,0,0,0,.9-.9.907.907,0,0,0-.9-.9.907.907,0,0,0-.9.9A.906.906,0,0,0-119.52-7.08Zm-4.308-1.44,3.96,3.96L-123.84-.588l.348.348,3.972-3.972,3.96,3.96.348-.348-3.96-3.96,3.96-3.96-.348-.348-3.96,3.96-3.96-3.96Zm1.788,3.96a.907.907,0,0,0-.9-.9.907.907,0,0,0-.9.9.907.907,0,0,0,.9.9A.906.906,0,0,0-122.04-4.56Zm5.04,0a.907.907,0,0,0,.9.9.907.907,0,0,0,.9-.9.907.907,0,0,0-.9-.9A.906.906,0,0,0-117-4.56Zm-2.52,2.52a.907.907,0,0,0-.9.9.907.907,0,0,0,.9.9.907.907,0,0,0,.9-.9A.906.906,0,0,0-119.52-2.04Zm17.5-6.384h-4.74V-9.888c.156-.024.228-.084.24-.168l-1.068-.072v1.7h-4.428V-5.16c0,1.7-.1,4.068-1.176,5.748a3.4,3.4,0,0,1,.684.456c1.128-1.752,1.3-4.38,1.3-6.2v-2.5h9.192Zm-3.372,5a22.855,22.855,0,0,1,1.8,2.652l-5.208.24a51.632,51.632,0,0,0,1.968-5.856c.156-.012.264-.072.288-.156l-1.08-.288A44.811,44.811,0,0,1-109.644-.5l-1.44.06.372.972a.2.2,0,0,0,.18-.156c1.776-.1,4.644-.252,7.344-.432a10.775,10.775,0,0,1,.516,1.128l.792-.4a21.164,21.164,0,0,0-2.8-4.428Zm10.272-4.14h4.092V-8.3h-4.092V-9.9c.168-.024.228-.084.24-.168l-1.068-.072V-8.3h-2.316c.168-.432.324-.864.456-1.3.144,0,.228-.048.252-.132l-1.008-.276a11.224,11.224,0,0,1-1.776,3.828,3.969,3.969,0,0,1,.7.42,10.035,10.035,0,0,0,1.056-1.8h2.64v2.04h-4.968v.768h10.836V-5.52h-5.04Zm-3.192,8.58v-.5h5.64v.492h.84v-4.6h-7.3V1.02Zm5.64-1.26h-5.64V-2.832h5.64Zm13.188-.54V-5.064c.948,0,1.092-.192,1.236-1.488a1.619,1.619,0,0,0,.036-.216l-.444-.072-.168.012h-2.928v-.7h2.748V-9.372h-2.748V-9.9c.156-.024.228-.084.24-.168l-1.008-.06v.756h-1.992V-9.9c.156-.024.216-.084.228-.168l-.972-.06v.756h-3.108v.564h3.108v.72h-2.46a16,16,0,0,1-.708,1.944l.756.048.072-.18h1.752a5.844,5.844,0,0,1-3.036,1.26,2.308,2.308,0,0,1,.384.636,10.244,10.244,0,0,0,1.128-.288V-.78Zm-3.036-8.028v.72h-1.992v-.72Zm-2.124,1.98a4.439,4.439,0,0,0,.12-.7h2v.7ZM-82.524-5.4h.768v-.876h2.7c-.1.672-.168.672-.468.672-.132,0-.492-.012-.876-.048a1.745,1.745,0,0,1,.108.3H-85.8a2.665,2.665,0,0,0,.912-.924h2.364ZM-86.58-4.008v-.8H-80.3v.8Zm0,1.32V-3.48H-80.3v.792Zm0,1.356V-2.16H-80.3v.828Zm6.828-6.756h-2v-.72h2Zm-7.392.564h1.86a2.289,2.289,0,0,1-.18.7H-87.4Zm1.836,6.9A15.782,15.782,0,0,1-88.9.468a5.863,5.863,0,0,1,.54.564A21,21,0,0,0-84.708-.12c.156,0,.2,0,.264-.072ZM-78.1.588a36.473,36.473,0,0,0-3.732-1.2l-.648.432A28.9,28.9,0,0,1-78.96,1.032Zm1-2.316A26.706,26.706,0,0,1-74.472,1.02l.72-.66a23.749,23.749,0,0,0-2.712-2.652ZM-64.56-9.66v7.608h3.636V-9.66Zm.732,4.62V-6.7h2.148V-5.04Zm0-2.3V-8.976h2.148v1.632Zm0,4.62V-4.392h2.148v1.668ZM-55.092-6.4h-4.02V-8.832h5.064v-.756h-5.82V-5.16c0,1.776-.1,4.1-1.212,5.748a2.519,2.519,0,0,1,.648.456c1.164-1.74,1.32-4.32,1.32-6.2v-.516h3.72A9.332,9.332,0,0,1-56.7-2.028a9.98,9.98,0,0,1-1.38-3.42l-.672.156a11.611,11.611,0,0,0,1.584,3.9A5.854,5.854,0,0,1-59.58.372a2.584,2.584,0,0,1,.48.66A7.045,7.045,0,0,0-56.676-.744a6.542,6.542,0,0,0,2.3,1.752A2.72,2.72,0,0,1-53.844.36a6.171,6.171,0,0,1-2.364-1.716,10.754,10.754,0,0,0,1.656-4.788.322.322,0,0,0,.072-.144l-.468-.144Zm-8.8,4.632a5.738,5.738,0,0,1-1.26,2.34,5.389,5.389,0,0,1,.588.444A6.88,6.88,0,0,0-63.2-1.38c.132,0,.2-.036.24-.108ZM-60.756-.24a9.791,9.791,0,0,0-.912-1.524l-.636.3A7.969,7.969,0,0,1-61.44.108Zm9.288,1.3h.78V-6.9c.156-.012.216-.072.24-.144l-.324-.084a21.758,21.758,0,0,0,1.1-2.484c.144.012.228-.024.276-.108l-.96-.324a15.978,15.978,0,0,1-3,5.4,5.947,5.947,0,0,1,.42.756,14.175,14.175,0,0,0,1.464-2Zm9.24-3.816V-3.5H-45.4V-5.328h2.9V-9.564h-6.492v4.236h2.772V-.3a3.491,3.491,0,0,1-1.86-2.412c.084-.5.156-1.032.2-1.572.132-.012.216-.06.24-.156l-1-.144c-.168,2.244-.648,4.14-1.752,5.148a3.343,3.343,0,0,1,.6.468,5.744,5.744,0,0,0,1.44-2.616c.888,2,2.352,2.412,4.284,2.412h2a2.633,2.633,0,0,1,.276-.78C-42.168.06-43.716.06-44,.06A7.362,7.362,0,0,1-45.4-.048V-2.76ZM-43.3-8.808v2.724h-4.92V-8.808ZM-31.488-.78V-5.064c.948,0,1.092-.192,1.236-1.488a1.619,1.619,0,0,0,.036-.216l-.444-.072-.168.012h-2.928v-.7h2.748V-9.372h-2.748V-9.9c.156-.024.228-.084.24-.168l-1.008-.06v.756h-1.992V-9.9c.156-.024.216-.084.228-.168l-.972-.06v.756h-3.108v.564h3.108v.72h-2.46a16,16,0,0,1-.708,1.944l.756.048.072-.18h1.752a5.844,5.844,0,0,1-3.036,1.26,2.308,2.308,0,0,1,.384.636,10.244,10.244,0,0,0,1.128-.288V-.78Zm-3.036-8.028v.72h-1.992v-.72Zm-2.124,1.98a4.439,4.439,0,0,0,.12-.7h2v.7ZM-34.524-5.4h.768v-.876h2.7c-.1.672-.168.672-.468.672-.132,0-.492-.012-.876-.048a1.745,1.745,0,0,1,.108.3H-37.8a2.665,2.665,0,0,0,.912-.924h2.364ZM-38.58-4.008v-.8H-32.3v.8Zm0,1.32V-3.48H-32.3v.792Zm0,1.356V-2.16H-32.3v.828Zm6.828-6.756h-2v-.72h2Zm-7.392.564h1.86a2.289,2.289,0,0,1-.18.7H-39.4Zm1.836,6.9A15.782,15.782,0,0,1-40.9.468a5.863,5.863,0,0,1,.54.564A21,21,0,0,0-36.708-.12c.156,0,.2,0,.264-.072ZM-30.1.588a36.472,36.472,0,0,0-3.732-1.2l-.648.432A28.9,28.9,0,0,1-30.96,1.032Zm4.524-7.8a8.156,8.156,0,0,0-.444-1.152h2.328v-.7h-3.288q.18-.36.324-.72a.227.227,0,0,0,.252-.108l-.936-.3a8.11,8.11,0,0,1-1.776,2.952,4.78,4.78,0,0,1,.624.432,8.194,8.194,0,0,0,1.14-1.56h.528a6.811,6.811,0,0,1,.516,1.4Zm3.348-1.848a6.74,6.74,0,0,0,.348-.732c.108.012.216-.012.252-.108l-.96-.288A6.669,6.669,0,0,1-24.552-7.38a6.884,6.884,0,0,1,.6.432v.492h-3.84v.7h3.84V-4.6h-5.064v.708H-21.5v1.116H-28.44v.708H-21.5V.024c0,.252-.084.252-.756.252-.312,0-.756-.012-1.248-.024a3.337,3.337,0,0,1,.288.768c2.028,0,2.544-.012,2.544-.972V-2.064h2.2v-.708h-2.2v-.984c.132-.036.192-.072.216-.132H-18V-4.6h-5.124V-5.76h3.936v-.7h-3.936v-.708c.168-.024.228-.072.24-.156l-.576-.036a7.661,7.661,0,0,0,.816-1.008h.924a5.661,5.661,0,0,1,.888,1.476l.7-.312a6.166,6.166,0,0,0-.708-1.164h2.868v-.7ZM-24.108-.12a8.61,8.61,0,0,0-2.16-1.764l-.564.48A8.459,8.459,0,0,1-24.7.408ZM-12.84-5.94h1.824c.348,0,.852-.012,1.224-.036.06,1.176.132,2.436.168,3.192a4.144,4.144,0,0,0-1.14-.156c-1.1,0-2.34.54-2.34,1.764,0,1.056.936,1.728,2.34,1.728,1.8,0,1.992-1.14,2-2.16A7.206,7.206,0,0,1-6.816-.24l.468-.768A8.841,8.841,0,0,0-8.8-2.532c-.036-.768-.1-2.172-.144-3.5a11.562,11.562,0,0,0,2.424-.432l-.108-.84a10.625,10.625,0,0,1-2.352.48C-9-7.74-9.024-8.52-9.036-9.288c.192-.036.3-.132.312-.252l-1.212-.036c.024.888.06,1.776.108,2.808-1.008.072-2.016.06-3.024.048ZM-15.084.252a1.646,1.646,0,0,1-.12-.576,14.059,14.059,0,0,1,1.236-3.2l-.54-.5c-.252.564-.732,1.716-1,2.436a14.228,14.228,0,0,1-.108-2.268,23.039,23.039,0,0,1,.7-5.172.31.31,0,0,0,.312-.216l-1.164-.228a30.57,30.57,0,0,0-.648,5.6A13.173,13.173,0,0,0-15.9.348Zm5.532-1.836c0,.96-.324,1.392-1.212,1.392s-1.6-.336-1.6-1.008c0-.756.876-1.02,1.608-1.02A4.065,4.065,0,0,1-9.564-2Zm7.152-2.6c.072-.5.108-1,.156-1.44H.36V-9.576H-4.416v3.948h1.368C-3.18-3.588-3.528-.9-5.112.468A2.648,2.648,0,0,1-4.548,1a7.525,7.525,0,0,0,2.04-4.452h2.1C-.516-.984-.648-.048-.876.192c-.1.108-.2.132-.42.132s-.8,0-1.416-.06A2.091,2.091,0,0,1-2.5.984c.336.024.66.024.948.024C-.684,1.008-.48.972-.216.672.1.3.228-.792.372-3.888c0-.1.012-.18.012-.264L-.036-4.2-.2-4.188ZM-.42-8.832V-6.36H-3.672V-8.832ZM4.668-.084c0,.312-.048.312-1.008.312-.336,0-.744,0-1.188-.012a3.439,3.439,0,0,1,.312.816A7.509,7.509,0,0,0,4.944.876c.36-.132.528-.384.528-.96V-9.672c.156-.024.216-.072.228-.168L4.668-9.9ZM1.656-1.956h.792v-6.48c.156-.024.216-.084.228-.168l-1.02-.06Zm11.784-8.16a10.147,10.147,0,0,1-3.7,3.288,3.031,3.031,0,0,1,.444.66,11.512,11.512,0,0,0,3.66-3.2,12.941,12.941,0,0,0,3.744,3.144,4.044,4.044,0,0,1,.48-.732A11.475,11.475,0,0,1,14.34-9.912a.261.261,0,0,0,.192-.156Zm-6.324.744A8.5,8.5,0,0,1,9.1-7.332l.648-.528A8.8,8.8,0,0,0,7.728-9.84ZM17.76-4.356v-.708H14.292V-6.276h1.884V-6.96H11.688v.684h1.824v1.212H10.248v.708h3.264V-1.5c0,.18,0,.192-.624.192-.2,0-.468-.012-.744-.012a2.666,2.666,0,0,1,.24.7c1.608,0,1.908-.1,1.908-.864V-4.356ZM7-5.328v.768H8.58v3.216C8-.828,7.356-.288,6.828.1l.48.888A.171.171,0,0,0,7.416.792C7.884.384,8.46-.156,9.024-.684,10.248.8,11.976.8,14.46.8c1.2,0,2.52-.024,3.36-.06a3.423,3.423,0,0,1,.264-.816c-.936.06-2.472.1-3.78.1-2.16,0-3.984,0-4.932-1.428V-5.328ZM17.8-1.56a10.924,10.924,0,0,0-1.884-2.352c-.144.072-.276.132-.624.312a11.037,11.037,0,0,1,1.836,2.4ZM11.724-3.876A7.218,7.218,0,0,1,9.936-1.584a5.6,5.6,0,0,1,.576.444,8.972,8.972,0,0,0,1.872-2.328c.132,0,.2-.036.24-.108ZM28.512-.78V-5.064c.948,0,1.092-.192,1.236-1.488a1.619,1.619,0,0,0,.036-.216L29.34-6.84l-.168.012H26.244v-.7h2.748V-9.372H26.244V-9.9c.156-.024.228-.084.24-.168l-1.008-.06v.756H23.484V-9.9c.156-.024.216-.084.228-.168l-.972-.06v.756H19.632v.564H22.74v.72H20.28a16,16,0,0,1-.708,1.944l.756.048.072-.18h1.752a5.844,5.844,0,0,1-3.036,1.26,2.308,2.308,0,0,1,.384.636,10.244,10.244,0,0,0,1.128-.288V-.78ZM25.476-8.808v.72H23.484v-.72Zm-2.124,1.98a4.439,4.439,0,0,0,.12-.7h2v.7ZM25.476-5.4h.768v-.876h2.7c-.1.672-.168.672-.468.672-.132,0-.492-.012-.876-.048a1.745,1.745,0,0,1,.108.3H22.2a2.665,2.665,0,0,0,.912-.924h2.364ZM21.42-4.008v-.8H27.7v.8Zm0,1.32V-3.48H27.7v.792Zm0,1.356V-2.16H27.7v.828Zm6.828-6.756h-2v-.72h2Zm-7.392.564h1.86a2.289,2.289,0,0,1-.18.7H20.6Zm1.836,6.9A15.782,15.782,0,0,1,19.1.468a5.862,5.862,0,0,1,.54.564A21,21,0,0,0,23.292-.12c.156,0,.2,0,.264-.072ZM29.9.588a36.472,36.472,0,0,0-3.732-1.2l-.648.432A28.9,28.9,0,0,1,29.04,1.032Zm2.388-9.852v4.416c0,1.716-.132,3.876-1.476,5.388a2.947,2.947,0,0,1,.612.54,7,7,0,0,0,1.536-3.828H36.12V.9h.78V-2.748h3.456v2.6c0,.336-.06.336-1.056.336-.348,0-.78-.012-1.224-.024a3.1,3.1,0,0,1,.288.78c2.268.024,2.8.012,2.8-1.092v-9.12ZM36.12-6.372H33.084V-8.5H36.12Zm.78,0V-8.5h3.456v2.124Zm-3.816.756H36.12v2.1H33.036c.036-.468.048-.912.048-1.332Zm3.816,0h3.456v2.1H36.9Zm14.82-4.44A8.045,8.045,0,0,1,53.3-8.376l.468-.348a7.846,7.846,0,0,0-1.62-1.668Zm-1.824.48A7.99,7.99,0,0,1,51.48-7.908l.468-.336a8.435,8.435,0,0,0-1.608-1.68ZM46.308-9.72c-.144,1.056-.336,2.136-.516,3.012-.8.1-1.788.2-2.376.276l.072.84c.648-.108,1.524-.216,2.136-.288a19.629,19.629,0,0,1-2.388,6L44.028.5a23.013,23.013,0,0,0,2.46-6.48,13.823,13.823,0,0,1,1.464-.12c1.2-.012,1.644.8,1.656,2.172a9.058,9.058,0,0,1-.384,2.46c-.24.768-.648,1.2-1.332,1.2a3.213,3.213,0,0,1-1.836-.912,4.505,4.505,0,0,1-.324.732A3.554,3.554,0,0,0,47.9.6,2.2,2.2,0,0,0,50.04-1.212,9.358,9.358,0,0,0,50.448-3.9c0-1.8-.624-3.012-2.448-2.988-.3,0-.792.048-1.332.108.144-.72.36-1.884.492-2.556.228-.012.372-.072.4-.216Zm7.584,6.456A7.951,7.951,0,0,0,51.276-7.5l-.7.468A7.556,7.556,0,0,1,53.028-2.94Zm9.864-6.756a13.682,13.682,0,0,1-1.584,1.5,9.183,9.183,0,0,1-.792-1.572l-.708.216a10.6,10.6,0,0,0,2.82,4.1h-5.9A8.844,8.844,0,0,0,60.06-9.228a.206.206,0,0,0,.132-.132,4.1,4.1,0,0,1-.564-.288l-.144.048H55.872v.72H59.04a7.824,7.824,0,0,1-1.224,1.8,12.661,12.661,0,0,0-1.524-1.248l-.516.432a14.6,14.6,0,0,1,1.536,1.332,8.5,8.5,0,0,1-2.5,1.668,3.04,3.04,0,0,1,.5.612,9.9,9.9,0,0,0,1.812-1.1V-5h1.344V-3.1H55.608v.756h2.784c-.2,1.056-.9,2.064-3.024,2.784a2.359,2.359,0,0,1,.516.636C58.3.228,59.028-1.008,59.22-2.34h2.316V-.264c0,.936.252,1.188,1.236,1.188h1.644c.876,0,1.092-.432,1.176-1.98a2.384,2.384,0,0,1-.732-.336C64.812-.06,64.752.18,64.356.18H62.868c-.432,0-.5-.06-.5-.444V-2.34h2.952V-3.1H62.364V-5h1.512V-5.46A8.334,8.334,0,0,0,65.64-4.392a3.366,3.366,0,0,1,.552-.684A7.886,7.886,0,0,1,63.84-6.54a20.91,20.91,0,0,0,1.836-1.476.289.289,0,0,0,.252-.06l-.732-.54a16.387,16.387,0,0,1-1.824,1.632,8.5,8.5,0,0,1-.84-1.008,19.631,19.631,0,0,0,1.716-1.416.246.246,0,0,0,.24-.072ZM59.28-3.1V-5h2.256V-3.1Zm13.608-.288H76.92v-.78H72.888V-6.936h4.476v-.792H72.888V-9.9c.168-.024.24-.084.252-.168l-1.08-.06v2.4H69.48c.24-.576.444-1.176.624-1.764.156,0,.24-.048.276-.132l-1.044-.288a11.683,11.683,0,0,1-2.328,4.7,4.852,4.852,0,0,1,.672.492,9.458,9.458,0,0,0,1.44-2.22h2.94v2.772H68.4v.78h3.66V-.168H67.08V.624H77.928V-.168h-5.04Zm8.64-6.336c-.084,1.476-.192,5.2-.192,6.708,0,2.268,1.116,3.528,3.3,3.528A6.507,6.507,0,0,0,89.508-1.92a4.772,4.772,0,0,1-.54-.708,5.842,5.842,0,0,1-4.32,2.28c-1.512,0-2.4-.864-2.4-2.652s.12-4.956.216-6.348c.24-.036.348-.12.372-.264ZM91.872-7.476c.72.024,1.812.024,2.58.024.54,0,1.14,0,1.656-.024l.072,2.22c-.264.012-.54.012-.8.012-1.524,0-2.088-.072-2.088-.432,0-.24.288-.5.828-.8l-.576-.372c-.768.492-1.116.864-1.116,1.32,0,.7.576,1.02,2.628,1.02.348,0,.78-.012,1.164-.024.012.648.036,1.272.048,1.788A5.276,5.276,0,0,0,95-2.892c-1.344,0-2.652.636-2.652,1.788,0,1.128,1.116,1.752,2.64,1.752,1.452,0,2.136-.66,2.148-1.8,0-.156-.012-.372-.012-.564A11.7,11.7,0,0,1,100.1.048l.528-.732A13.338,13.338,0,0,0,97.1-2.556l-.1-2a22.861,22.861,0,0,0,3.468-.42l-.1-.78A20.2,20.2,0,0,1,97-5.292c-.024-.744-.036-1.488-.048-2.208a24.594,24.594,0,0,0,4.092-.456l-.108-.792a23.558,23.558,0,0,1-3.984.468c0-.2-.012-1.128,0-1.32.2-.036.312-.108.324-.252l-1.212-.06c0,.42.012,1.092.024,1.668-.5.012-1.116.024-1.656.024-.816,0-1.812,0-2.556-.048ZM96.324-1.32c0,.84-.36,1.26-1.308,1.26-1.044,0-1.884-.348-1.884-1.056s.924-1.092,1.836-1.092a5.042,5.042,0,0,1,1.344.192Zm9.72-6.732-2.736.072.024.792c.492-.024,4.284-.156,5.532-.18.024.516.048,1.32.048,1.524a1.778,1.778,0,0,0-1.116-.372,2.209,2.209,0,0,0-2.16,2.244,2.047,2.047,0,0,0,2.016,2.1,1.507,1.507,0,0,0,1.236-.636h.012c-.3,1.14-1.284,2.136-3.12,2.8a6.565,6.565,0,0,1,.612.684c2.112-.84,3.144-2.076,3.456-3.48a5.172,5.172,0,0,0,.12-1.164,4.09,4.09,0,0,0-.144-1.26c-.036-.66-.06-1.524-.084-2.46,1.428-.048,2.88-.072,3.9-.048v-.828c-.9.012-2.448.048-3.924.1-.024-1.26-.024-1.4-.024-1.548.216-.036.3-.156.312-.252l-1.236-.048c.024.3.06,1.608.072,1.872Zm1.7,5.472a1.343,1.343,0,0,1-1.332-1.392A1.448,1.448,0,0,1,107.844-5.5c1.224,0,1.224,1.092,1.224,1.56A1.294,1.294,0,0,1,107.748-2.58Zm7.872.24a1.685,1.685,0,0,0-1.68,1.68,1.685,1.685,0,0,0,1.68,1.68A1.685,1.685,0,0,0,117.3-.66,1.685,1.685,0,0,0,115.62-2.34Zm0,2.916A1.234,1.234,0,0,1,114.384-.66a1.237,1.237,0,0,1,1.236-1.248A1.239,1.239,0,0,1,116.868-.66,1.237,1.237,0,0,1,115.62.576Z" transform="translate(192 6894.488)" fill="#333"/>
  </g>
</svg>
