<svg xmlns="http://www.w3.org/2000/svg" width="1920.695" height="1067" viewBox="0 0 1920.695 1067">
  <g id="グループ_2580" data-name="グループ 2580" transform="translate(0.695 -5916)">
    <g id="Colored_Shapes_2_" data-name="Colored Shapes (2)" transform="translate(0 5916)">
      <rect id="長方形_3469" data-name="長方形 3469" width="1920" height="1067" fill="#f5f5f5"/>
      <path id="パス_5570" data-name="パス 5570" d="M1491.67,1068.81a97.409,97.409,0,1,0,172.322-90.881Z" transform="translate(-20.46 -63.159)" fill="none" stroke="#1d2a56" stroke-width="1"/>
      <path id="パス_5571" data-name="パス 5571" d="M1029.61,1046.76h14.84v14.84h-14.84Z" fill="#1d2a56"/>
      <path id="パス_5572" data-name="パス 5572" d="M1370.68,940.39a65.93,65.93,0,1,0,65.93-65.93,65.93,65.93,0,0,0-65.93,65.93Z" fill="#8abcd7"/>
      <path id="パス_5573" data-name="パス 5573" d="M1170.65,89.36a69.57,69.57,0,1,0,69.57-69.57,69.57,69.57,0,0,0-69.57,69.57Z" fill="none" stroke="#8abcd7" stroke-width="1"/>
      <path id="パス_5574" data-name="パス 5574" d="M214.63,430.47h79.51v49.99H214.63Z" fill="#8abcd7"/>
      <path id="パス_5575" data-name="パス 5575" d="M-53.13,1084A96.6,96.6,0,1,0,56.36,924.82Z" transform="translate(53.13 -39.419)" fill="none" stroke="#8abcd7" stroke-width="1"/>
      <path id="パス_5576" data-name="パス 5576" d="M1269.05,914.77a37.98,37.98,0,1,0,37.98-37.98,37.98,37.98,0,0,0-37.98,37.98Z" fill="none" stroke="#8abcd7" stroke-width="1"/>
      <path id="パス_5577" data-name="パス 5577" d="M331.07,70.84h86.56v93.29H331.07Z" fill="#8abcd7"/>
      <path id="パス_5578" data-name="パス 5578" d="M1144.34,32.27h71.98V51.89h-71.98Z" fill="none" stroke="#8abcd7" stroke-width="1"/>
      <path id="パス_5579" data-name="パス 5579" d="M968.7,664.38h2.26v2.26H968.7Z" fill="#8abcd7"/>
      <path id="パス_5580" data-name="パス 5580" d="M1051.03,695.05h12.83v12.83h-12.83Z" fill="#8abcd7"/>
      <path id="パス_5581" data-name="パス 5581" d="M1689.91,692.41h15.7v15.7h-15.7Z" fill="#1d2a56"/>
      <path id="パス_5582" data-name="パス 5582" d="M1798.93,227.08a57.36,57.36,0,1,0,57.36-57.36,57.36,57.36,0,0,0-57.36,57.36Z" fill="#8abcd7"/>
      <path id="パス_5583" data-name="パス 5583" d="M1654.8,1018.13h60.95v60.95H1654.8Z" transform="translate(12.485 -24.9)" fill="#1d2a56"/>
      <path id="パス_5584" data-name="パス 5584" d="M1237.81,194.86h45.47v91.23h-45.47Z" fill="#8abcd7"/>
      <path id="パス_5585" data-name="パス 5585" d="M1682.5,868.24h68.98v68.98H1682.5Z" fill="#8abcd7"/>
      <path id="パス_5586" data-name="パス 5586" d="M1599.21,1020.89h7.71v7.71h-7.71Z" fill="#8abcd7"/>
      <path id="パス_5587" data-name="パス 5587" d="M1854.66,41.11h55.91V75.14h-55.91Z" fill="none" stroke="#1d2a56" stroke-width="1"/>
      <path id="パス_5588" data-name="パス 5588" d="M1824.52,19.63H1925.1V120.21H1824.52Z" transform="translate(-257.814 74.65)" fill="#8abcd7"/>
      <path id="パス_5589" data-name="パス 5589" d="M274.31,343.96a69.86,69.86,0,1,0,69.86-69.86,69.86,69.86,0,0,0-69.86,69.86Z" fill="#8abcd7"/>
      <path id="パス_5590" data-name="パス 5590" d="M1325.97,913.63a2.99,2.99,0,1,0,2.99-2.99,2.99,2.99,0,0,0-2.99,2.99Z" fill="none" stroke="#1d2a56" stroke-width="1"/>
      <path id="パス_5591" data-name="パス 5591" d="M1791.01,143.91a41.09,41.09,0,1,0,41.09-41.09,41.09,41.09,0,0,0-41.09,41.09Z" fill="none" stroke="#1d2a56" stroke-width="1"/>
      <path id="パス_5592" data-name="パス 5592" d="M30.15,576.4H46.44v33.76H30.15Z" fill="#1d2a56"/>
    </g>
    <path id="パス_4235" data-name="パス 4235" d="M0,0H1920V1067H0Z" transform="translate(0 5916)" fill="#f5f5f5" opacity="0.9"/>
  </g>
</svg>
