<svg xmlns="http://www.w3.org/2000/svg" xmlns:xlink="http://www.w3.org/1999/xlink" width="1124.962" height="614.045" viewBox="0 0 1124.962 614.045">
  <defs>
    <clipPath id="clip-path">
      <circle id="楕円形_292" data-name="楕円形 292" cx="47.435" cy="47.435" r="47.435" transform="translate(0)" fill="none"/>
    </clipPath>
  </defs>
  <g id="グループ_2106" data-name="グループ 2106" transform="translate(-352.146 -6176.893)">
    <g id="グループ_2101" data-name="グループ 2101" transform="translate(16.5 56.413)">
      <g id="長方形_2749" data-name="長方形 2749" transform="translate(535.339 6275.478)" fill="#fff" stroke="#707070" stroke-width="1">
        <rect width="300" height="459.047" stroke="none"/>
        <rect x="0.5" y="0.5" width="299" height="458.047" fill="none"/>
      </g>
      <g id="長方形_2750" data-name="長方形 2750" transform="translate(835.339 6275.478)" fill="#fff" stroke="#707070" stroke-width="1">
        <rect width="300" height="459.047" stroke="none"/>
        <rect x="0.5" y="0.5" width="299" height="458.047" fill="none"/>
      </g>
      <g id="長方形_2566" data-name="長方形 2566" transform="translate(1136.339 6275.478)" fill="#fff" stroke="#707070" stroke-width="1">
        <rect width="324.27" height="459.047" stroke="none"/>
        <rect x="0.5" y="0.5" width="323.27" height="458.047" fill="none"/>
      </g>
      <path id="Icon_feather-circle" data-name="Icon feather-circle" d="M53,29A24,24,0,1,1,29,5,24,24,0,0,1,53,29Z" transform="translate(1269.974 6282.811)" fill="none" stroke="#284192" stroke-linecap="round" stroke-linejoin="round" stroke-width="5"/>
      <path id="Icon_feather-circle-2" data-name="Icon feather-circle" d="M53,29A24,24,0,1,1,29,5,24,24,0,0,1,53,29Z" transform="translate(1269.974 6360.712)" fill="none" stroke="#284192" stroke-linecap="round" stroke-linejoin="round" stroke-width="5"/>
      <path id="Icon_feather-circle-3" data-name="Icon feather-circle" d="M53,29A24,24,0,1,1,29,5,24,24,0,0,1,53,29Z" transform="translate(1269.974 6438.614)" fill="none" stroke="#284192" stroke-linecap="round" stroke-linejoin="round" stroke-width="5"/>
      <path id="Icon_feather-circle-4" data-name="Icon feather-circle" d="M53,29A24,24,0,1,1,29,5,24,24,0,0,1,53,29Z" transform="translate(1269.974 6516.515)" fill="none" stroke="#284192" stroke-linecap="round" stroke-linejoin="round" stroke-width="5"/>
      <path id="Icon_feather-circle-5" data-name="Icon feather-circle" d="M53,29A24,24,0,1,1,29,5,24,24,0,0,1,53,29Z" transform="translate(1269.974 6594.416)" fill="none" stroke="#284192" stroke-linecap="round" stroke-linejoin="round" stroke-width="5"/>
      <path id="Icon_metro-cross" data-name="Icon metro-cross" d="M56.246,45.342h0L40.337,29.433,56.246,13.525h0a1.643,1.643,0,0,0,0-2.317L48.731,3.692a1.643,1.643,0,0,0-2.317,0h0L30.5,19.6,14.6,3.692h0a1.643,1.643,0,0,0-2.317,0L4.763,11.207a1.643,1.643,0,0,0,0,2.317h0L20.672,29.433,4.763,45.342h0a1.642,1.642,0,0,0,0,2.317l7.515,7.515a1.643,1.643,0,0,0,2.317,0h0L30.5,39.266,46.413,55.175h0a1.642,1.642,0,0,0,2.317,0l7.515-7.515a1.642,1.642,0,0,0,0-2.317Z" transform="translate(652.834 6360.148)" fill="#ddd"/>
      <path id="Icon_metro-cross-2" data-name="Icon metro-cross" d="M56.246,45.342h0L40.337,29.433,56.246,13.525h0a1.643,1.643,0,0,0,0-2.317L48.731,3.692a1.643,1.643,0,0,0-2.317,0h0L30.5,19.6,14.6,3.692h0a1.643,1.643,0,0,0-2.317,0L4.763,11.207a1.643,1.643,0,0,0,0,2.317h0L20.672,29.433,4.763,45.342h0a1.642,1.642,0,0,0,0,2.317l7.515,7.515a1.643,1.643,0,0,0,2.317,0h0L30.5,39.266,46.413,55.175h0a1.642,1.642,0,0,0,2.317,0l7.515-7.515a1.642,1.642,0,0,0,0-2.317Z" transform="translate(652.834 6438.026)" fill="#ddd"/>
      <path id="Icon_metro-cross-3" data-name="Icon metro-cross" d="M56.246,45.342h0L40.337,29.433,56.246,13.525h0a1.643,1.643,0,0,0,0-2.317L48.731,3.692a1.643,1.643,0,0,0-2.317,0h0L30.5,19.6,14.6,3.692h0a1.643,1.643,0,0,0-2.317,0L4.763,11.207a1.643,1.643,0,0,0,0,2.317h0L20.672,29.433,4.763,45.342h0a1.642,1.642,0,0,0,0,2.317l7.515,7.515a1.643,1.643,0,0,0,2.317,0h0L30.5,39.266,46.413,55.175h0a1.642,1.642,0,0,0,2.317,0l7.515-7.515a1.642,1.642,0,0,0,0-2.317Z" transform="translate(650.495 6515.14)" fill="#ddd"/>
      <g id="グループ_1639" data-name="グループ 1639" transform="translate(960.22 6520.155)">
        <path id="Icon_feather-circle-6" data-name="Icon feather-circle" d="M53,29A24,24,0,1,1,29,5,24,24,0,0,1,53,29Z" transform="translate(-5 -5)" fill="none" stroke="#284192" stroke-linecap="round" stroke-linejoin="round" stroke-width="5"/>
      </g>
      <g id="グループ_2308" data-name="グループ 2308" transform="translate(657.119 6597.808)">
        <path id="Icon_feather-circle-7" data-name="Icon feather-circle" d="M53,29A24,24,0,1,1,29,5,24,24,0,0,1,53,29Z" transform="translate(-5 -5)" fill="none" stroke="#284192" stroke-linecap="round" stroke-linejoin="round" stroke-width="5"/>
      </g>
      <path id="Icon_metro-cross-4" data-name="Icon metro-cross" d="M56.246,45.342h0L40.337,29.433,56.246,13.525h0a1.643,1.643,0,0,0,0-2.317L48.731,3.692a1.643,1.643,0,0,0-2.317,0h0L30.5,19.6,14.6,3.692h0a1.643,1.643,0,0,0-2.317,0L4.763,11.207a1.643,1.643,0,0,0,0,2.317h0L20.672,29.433,4.763,45.342h0a1.642,1.642,0,0,0,0,2.317l7.515,7.515a1.643,1.643,0,0,0,2.317,0h0L30.5,39.266,46.413,55.175h0a1.642,1.642,0,0,0,2.317,0l7.515-7.515a1.642,1.642,0,0,0,0-2.317Z" transform="translate(953.715 6282.058)" fill="#ddd"/>
      <path id="Icon_metro-cross-5" data-name="Icon metro-cross" d="M56.246,45.342h0L40.337,29.433,56.246,13.525h0a1.643,1.643,0,0,0,0-2.317L48.731,3.692a1.643,1.643,0,0,0-2.317,0h0L30.5,19.6,14.6,3.692h0a1.643,1.643,0,0,0-2.317,0L4.763,11.207a1.643,1.643,0,0,0,0,2.317h0L20.672,29.433,4.763,45.342h0a1.642,1.642,0,0,0,0,2.317l7.515,7.515a1.643,1.643,0,0,0,2.317,0h0L30.5,39.266,46.413,55.175h0a1.642,1.642,0,0,0,2.317,0l7.515-7.515a1.642,1.642,0,0,0,0-2.317Z" transform="translate(953.495 6593.696)" fill="#ddd"/>
      <path id="パス_9620" data-name="パス 9620" d="M18.384-11.256H13.1v-3.36H22.56v-2.256H13.1v-2.9c.408-.072.552-.192.576-.408l-2.928-.168v3.48H1.464v2.256h9.288v3.36H2.808v2.232h4.1l-1.7.6A17.85,17.85,0,0,0,9.84-2.616,32.61,32.61,0,0,1,.72-.048a8.244,8.244,0,0,1,1.272,2.16A32.543,32.543,0,0,0,11.9-1.152,26.65,26.65,0,0,0,21.84,2.184,10.275,10.275,0,0,1,23.28-.024a27.77,27.77,0,0,1-9.12-2.568,17.172,17.172,0,0,0,5.928-7.464.594.594,0,0,0,.384-.336l-1.68-.96ZM16.968-9.024a13.966,13.966,0,0,1-4.92,5.184A13.964,13.964,0,0,1,7.392-9.024ZM43.68-6.648h-6.5c.12-.5.24-1.008.336-1.512h9.312v-1.9H37.872l.216-1.608h7.7v-1.824H43.44a28.1,28.1,0,0,0,1.9-3,.574.574,0,0,0,.576-.24l-2.376-.816a24.486,24.486,0,0,1-2.088,3.912l.36.144H32.736V-15.5H30.192v-4.3c.384-.048.528-.192.552-.408l-2.712-.12V-15.5h-3.12v2.088h3.12V-8.64c-1.3.384-2.472.7-3.408.936l.7,2.544a.491.491,0,0,0,.36-.408c.648-.216,1.464-.48,2.352-.792V-.48c0,.336-.1.456-.432.456h-.936c-.432,0-.96,0-1.512-.024A8.969,8.969,0,0,1,25.8,2.136c3.48.048,4.392-.384,4.392-2.616V-7.128l2.016-.7L31.92-9.768l-1.728.5v-4.152h2.5v1.752h3.288c-.072.552-.144,1.08-.24,1.608H32.448v1.9h2.928C34.56-4.272,33.144-1.1,30.864.792A10.634,10.634,0,0,1,32.592,2.04a14.5,14.5,0,0,0,3.72-5.9,11.744,11.744,0,0,0,2.544,2.808,15.087,15.087,0,0,1-4.1,1.464,6.961,6.961,0,0,1,1.224,1.7A15.1,15.1,0,0,0,40.584.144a18.117,18.117,0,0,0,5.448,1.968A8.613,8.613,0,0,1,47.376.24a18.821,18.821,0,0,1-5.088-1.464A11.274,11.274,0,0,0,45.1-5.88a.516.516,0,0,0,.216-.288L44.064-6.72ZM33.6-16.584a11.981,11.981,0,0,1,1.08,3.048l1.824-.6a12.114,12.114,0,0,0-1.176-2.976Zm9,11.664a8.471,8.471,0,0,1-2.088,2.736,8.714,8.714,0,0,1-2.52-2.424l-1.584.48c.1-.264.192-.528.264-.792Zm1.848-15.432a79.307,79.307,0,0,1-12.192,1.368,7.36,7.36,0,0,1,.528,1.7A82.177,82.177,0,0,0,45.36-18.552a1.238,1.238,0,0,0,.264.048.386.386,0,0,0,.264-.072ZM37.872-17.04a13.15,13.15,0,0,1,.6,3.216l1.872-.408a12.072,12.072,0,0,0-.7-3.144ZM61.08-6.048h7.992V-8.016H61.08V-10.9h4.968V-12.24a34.96,34.96,0,0,0,3.888,2.472,13.81,13.81,0,0,1,1.512-2.016,28.008,28.008,0,0,1-10.176-8.088.55.55,0,0,0,.528-.408l-3.12-.192a26.873,26.873,0,0,1-10.032,9.024,8.842,8.842,0,0,1,1.392,1.8,32.819,32.819,0,0,0,3.84-2.5V-10.9h4.8v2.88H50.856v1.968H58.68V-.6h-9V1.392H70.32V-.6H61.08Zm-6.24-6.84a25.762,25.762,0,0,0,5.064-5.28,26.928,26.928,0,0,0,5.3,5.28ZM56.784-1.536A15.638,15.638,0,0,0,54.5-5.76l-1.848.768a15.78,15.78,0,0,1,2.16,4.32ZM64.32-.6a34.1,34.1,0,0,0,2.688-3.888c.288,0,.5-.072.576-.24L65.16-5.76a25.069,25.069,0,0,1-2.52,4.32ZM85.008-20.376a14.216,14.216,0,0,1-3.792,5.928A14.754,14.754,0,0,1,82.8-13.08a17.7,17.7,0,0,0,4.176-6.288.485.485,0,0,0,.552-.264ZM82.44-7.56a21.928,21.928,0,0,0-2.472-5.016l-1.632.7c.408.648.792,1.368,1.152,2.088l-3.264.072a60.954,60.954,0,0,0,4.584-6.6.645.645,0,0,0,.6-.24l-2.232-.984a45.087,45.087,0,0,1-2.424,4.224c-.288-.408-.672-.864-1.056-1.32a37.356,37.356,0,0,0,2.5-4.584.648.648,0,0,0,.576-.216l-2.3-.912a32.246,32.246,0,0,1-1.992,4.416c-.216-.216-.432-.408-.648-.6l-1.152,1.512a22.792,22.792,0,0,1,2.9,3.48c-.48.648-.96,1.3-1.392,1.848l-1.656.024.48,2.352a.434.434,0,0,0,.384-.336c.864-.024,1.92-.1,3.1-.144V2.136H78.48V-7.92l1.776-.12a10.212,10.212,0,0,1,.432,1.3Zm6.936-12.1A17.861,17.861,0,0,0,94.1-13.248a7.883,7.883,0,0,1,1.56-1.656,13.624,13.624,0,0,1-4.416-5.448Zm-7.032,9.168.768,2.352a.407.407,0,0,0,.36-.336c2.136-.12,5.3-.336,8.448-.552a14.681,14.681,0,0,1,.84,1.512l1.8-1.1a23.6,23.6,0,0,0-3.744-5.064l-1.68.96c.528.6,1.1,1.3,1.632,1.992l-4.272.144a46.634,46.634,0,0,0,1.968-4.488c.312-.024.5-.1.6-.264L86.5-16.128a37.47,37.47,0,0,1-2.088,5.592ZM90.936-5.76a13.151,13.151,0,0,0-4.008-2.88L85.512-7.392a12.593,12.593,0,0,1,3.936,3.024ZM82.2-1.8a24.666,24.666,0,0,0-1.536-4.608l-1.68.528a26.741,26.741,0,0,1,1.464,4.7ZM73.8-6.336A22.088,22.088,0,0,1,72.5-.6a11.125,11.125,0,0,1,1.608.792,22.025,22.025,0,0,0,1.44-5.736c.288,0,.456-.1.5-.264ZM87.384-4.8c.36-.072.5-.192.528-.36L85.32-5.328v4.68c0,1.872.432,2.424,2.352,2.424H89.88c1.512,0,2.04-.7,2.232-3.48a4.9,4.9,0,0,1-1.776-.744C90.264-.312,90.144.024,89.664.024H88.008c-.528,0-.624-.1-.624-.672ZM95.544.312a16.675,16.675,0,0,0-2.9-5.472L90.912-4.3A17.138,17.138,0,0,1,93.648,1.3Zm-12.7-5.088A8.244,8.244,0,0,1,80.952.24l1.656,1.008c1.3-1.32,1.872-3.528,2.04-5.712ZM108.384-2.52h9.936V-15.24h-4.656c.24-.7.432-1.464.6-2.088h5.016V-19.3H107.52v1.968h4.44c-.12.672-.264,1.416-.408,2.088h-3.168Zm2.064-5.4V-9.888h5.712V-7.92Zm0-3.6v-1.968h5.712v1.968Zm0,7.248V-6.264h5.712v1.992ZM105.432-16.3v2.016h1.92v-3.864h-4.08v-1.68c.384-.048.528-.168.552-.36l-2.688-.168v2.208H97.1v3.864h1.872V-16.3Zm.84,11.3,1.32-1.584c-.84-.744-2.112-1.728-3.5-2.736a14.108,14.108,0,0,0,2.328-4.1.579.579,0,0,0,.24-.288c-.36-.144-.744-.312-1.344-.6l-.336.072h-2.784l.432-.84c.288.024.48-.072.528-.24l-2.232-.7a12.461,12.461,0,0,1-4.392,5.3A11.724,11.724,0,0,1,97.9-9.432a16.247,16.247,0,0,0,1.3-1.032c.648.456,1.344.936,2.016,1.44A14.445,14.445,0,0,1,96.5-6.1a7.152,7.152,0,0,1,1.2,1.632l.792-.36V1.728h1.944V.648h5.3a11.914,11.914,0,0,1,1.464,1.44,15.244,15.244,0,0,0,4.776-3,.733.733,0,0,0,.456-.192L110.424-2.28A13.837,13.837,0,0,1,105.96.528V-5.28ZM100.3-5.856a17.814,17.814,0,0,0,2.5-1.992c.912.7,1.776,1.368,2.5,1.992Zm.144,4.728V-4.08h3.552v2.952Zm3.528-11.52a12.208,12.208,0,0,1-1.44,2.232c-.7-.48-1.392-.96-2.04-1.392.24-.288.456-.552.672-.84Zm15.7,13.656a28.952,28.952,0,0,0-4.056-3.12l-1.7,1.056a25.189,25.189,0,0,1,3.96,3.264ZM131.376-15.84c.336-.024.648-.048.984-.048,5.016,0,7.608,3.072,7.608,6.984,0,4.152-2.5,6.792-7.992,7.872a15.8,15.8,0,0,1,1.512,2.04c5.928-1.464,9.024-4.3,9.024-9.984,0-4.944-3.24-9.144-10.128-9.144a10.574,10.574,0,0,0-10.9,10.608c0,3.936,1.872,6.072,4.2,6.072,4.032,0,6.48-5.592,7.416-13.464a.644.644,0,0,0,.648-.384ZM125.76-3.816c-1.1,0-1.944-1.488-1.944-3.768A8.2,8.2,0,0,1,130.68-15.7C130.176-9.6,128.352-3.816,125.76-3.816ZM152.808,0V-18.072h-2.352l-4.08,2.184.624,2.04,3.048-1.68h.048V0ZM164.16.264c3.72,0,5.928-3.336,5.928-9.456,0-5.472-1.92-9.168-5.736-9.168-3.744,0-5.976,3.456-5.976,9.36C158.376-3.456,160.392.264,164.16.264Zm.048-2.232c-1.92,0-3.024-2.64-3.024-7.128,0-4.512,1.248-7.056,3.072-7.056,2.112,0,3.024,2.76,3.024,7.056C167.28-5.352,166.56-1.968,164.208-1.968ZM175.968-18c-2.376,0-4.2,2.112-4.2,5.52,0,3.384,1.824,5.352,4.1,5.352,2.184,0,4.176-1.872,4.176-5.592C180.048-15.816,178.608-18,175.968-18Zm-.048,1.608c1.488,0,1.992,1.776,1.992,3.792,0,2.16-.576,3.84-1.992,3.84-1.344,0-2.016-1.656-2.016-3.7C173.9-14.256,174.384-16.392,175.92-16.392ZM187.3-10.656c-2.424,0-4.224,2.112-4.224,5.52S184.9.216,187.176.216c2.232,0,4.2-1.848,4.2-5.568C191.376-8.448,189.936-10.656,187.3-10.656Zm-.048,1.608c1.488,0,1.992,1.8,1.992,3.816,0,2.16-.576,3.816-1.992,3.816-1.344,0-2.04-1.68-2.04-3.792C185.208-7.08,185.76-9.048,187.248-9.048Zm.216-8.976h-1.68L175.632.336h1.656Z" transform="translate(1214.474 6703.808)" fill="#343434"/>
      <path id="パス_9618" data-name="パス 9618" d="M18.384-11.256H13.1v-3.36H22.56v-2.256H13.1v-2.9c.408-.072.552-.192.576-.408l-2.928-.168v3.48H1.464v2.256h9.288v3.36H2.808v2.232h4.1l-1.7.6A17.85,17.85,0,0,0,9.84-2.616,32.61,32.61,0,0,1,.72-.048a8.244,8.244,0,0,1,1.272,2.16A32.543,32.543,0,0,0,11.9-1.152,26.65,26.65,0,0,0,21.84,2.184,10.275,10.275,0,0,1,23.28-.024a27.77,27.77,0,0,1-9.12-2.568,17.172,17.172,0,0,0,5.928-7.464.594.594,0,0,0,.384-.336l-1.68-.96ZM16.968-9.024a13.966,13.966,0,0,1-4.92,5.184A13.964,13.964,0,0,1,7.392-9.024ZM43.68-6.648h-6.5c.12-.5.24-1.008.336-1.512h9.312v-1.9H37.872l.216-1.608h7.7v-1.824H43.44a28.1,28.1,0,0,0,1.9-3,.574.574,0,0,0,.576-.24l-2.376-.816a24.486,24.486,0,0,1-2.088,3.912l.36.144H32.736V-15.5H30.192v-4.3c.384-.048.528-.192.552-.408l-2.712-.12V-15.5h-3.12v2.088h3.12V-8.64c-1.3.384-2.472.7-3.408.936l.7,2.544a.491.491,0,0,0,.36-.408c.648-.216,1.464-.48,2.352-.792V-.48c0,.336-.1.456-.432.456h-.936c-.432,0-.96,0-1.512-.024A8.969,8.969,0,0,1,25.8,2.136c3.48.048,4.392-.384,4.392-2.616V-7.128l2.016-.7L31.92-9.768l-1.728.5v-4.152h2.5v1.752h3.288c-.072.552-.144,1.08-.24,1.608H32.448v1.9h2.928C34.56-4.272,33.144-1.1,30.864.792A10.634,10.634,0,0,1,32.592,2.04a14.5,14.5,0,0,0,3.72-5.9,11.744,11.744,0,0,0,2.544,2.808,15.087,15.087,0,0,1-4.1,1.464,6.961,6.961,0,0,1,1.224,1.7A15.1,15.1,0,0,0,40.584.144a18.117,18.117,0,0,0,5.448,1.968A8.613,8.613,0,0,1,47.376.24a18.821,18.821,0,0,1-5.088-1.464A11.274,11.274,0,0,0,45.1-5.88a.516.516,0,0,0,.216-.288L44.064-6.72ZM33.6-16.584a11.981,11.981,0,0,1,1.08,3.048l1.824-.6a12.114,12.114,0,0,0-1.176-2.976Zm9,11.664a8.471,8.471,0,0,1-2.088,2.736,8.714,8.714,0,0,1-2.52-2.424l-1.584.48c.1-.264.192-.528.264-.792Zm1.848-15.432a79.307,79.307,0,0,1-12.192,1.368,7.36,7.36,0,0,1,.528,1.7A82.177,82.177,0,0,0,45.36-18.552a1.238,1.238,0,0,0,.264.048.386.386,0,0,0,.264-.072ZM37.872-17.04a13.15,13.15,0,0,1,.6,3.216l1.872-.408a12.072,12.072,0,0,0-.7-3.144ZM61.08-6.048h7.992V-8.016H61.08V-10.9h4.968V-12.24a34.96,34.96,0,0,0,3.888,2.472,13.81,13.81,0,0,1,1.512-2.016,28.008,28.008,0,0,1-10.176-8.088.55.55,0,0,0,.528-.408l-3.12-.192a26.873,26.873,0,0,1-10.032,9.024,8.842,8.842,0,0,1,1.392,1.8,32.819,32.819,0,0,0,3.84-2.5V-10.9h4.8v2.88H50.856v1.968H58.68V-.6h-9V1.392H70.32V-.6H61.08Zm-6.24-6.84a25.762,25.762,0,0,0,5.064-5.28,26.928,26.928,0,0,0,5.3,5.28ZM56.784-1.536A15.638,15.638,0,0,0,54.5-5.76l-1.848.768a15.78,15.78,0,0,1,2.16,4.32ZM64.32-.6a34.1,34.1,0,0,0,2.688-3.888c.288,0,.5-.072.576-.24L65.16-5.76a25.069,25.069,0,0,1-2.52,4.32ZM85.008-20.376a14.216,14.216,0,0,1-3.792,5.928A14.754,14.754,0,0,1,82.8-13.08a17.7,17.7,0,0,0,4.176-6.288.485.485,0,0,0,.552-.264ZM82.44-7.56a21.928,21.928,0,0,0-2.472-5.016l-1.632.7c.408.648.792,1.368,1.152,2.088l-3.264.072a60.954,60.954,0,0,0,4.584-6.6.645.645,0,0,0,.6-.24l-2.232-.984a45.087,45.087,0,0,1-2.424,4.224c-.288-.408-.672-.864-1.056-1.32a37.356,37.356,0,0,0,2.5-4.584.648.648,0,0,0,.576-.216l-2.3-.912a32.246,32.246,0,0,1-1.992,4.416c-.216-.216-.432-.408-.648-.6l-1.152,1.512a22.792,22.792,0,0,1,2.9,3.48c-.48.648-.96,1.3-1.392,1.848l-1.656.024.48,2.352a.434.434,0,0,0,.384-.336c.864-.024,1.92-.1,3.1-.144V2.136H78.48V-7.92l1.776-.12a10.212,10.212,0,0,1,.432,1.3Zm6.936-12.1A17.861,17.861,0,0,0,94.1-13.248a7.883,7.883,0,0,1,1.56-1.656,13.624,13.624,0,0,1-4.416-5.448Zm-7.032,9.168.768,2.352a.407.407,0,0,0,.36-.336c2.136-.12,5.3-.336,8.448-.552a14.681,14.681,0,0,1,.84,1.512l1.8-1.1a23.6,23.6,0,0,0-3.744-5.064l-1.68.96c.528.6,1.1,1.3,1.632,1.992l-4.272.144a46.634,46.634,0,0,0,1.968-4.488c.312-.024.5-.1.6-.264L86.5-16.128a37.47,37.47,0,0,1-2.088,5.592ZM90.936-5.76a13.151,13.151,0,0,0-4.008-2.88L85.512-7.392a12.593,12.593,0,0,1,3.936,3.024ZM82.2-1.8a24.666,24.666,0,0,0-1.536-4.608l-1.68.528a26.741,26.741,0,0,1,1.464,4.7ZM73.8-6.336A22.088,22.088,0,0,1,72.5-.6a11.125,11.125,0,0,1,1.608.792,22.025,22.025,0,0,0,1.44-5.736c.288,0,.456-.1.5-.264ZM87.384-4.8c.36-.072.5-.192.528-.36L85.32-5.328v4.68c0,1.872.432,2.424,2.352,2.424H89.88c1.512,0,2.04-.7,2.232-3.48a4.9,4.9,0,0,1-1.776-.744C90.264-.312,90.144.024,89.664.024H88.008c-.528,0-.624-.1-.624-.672ZM95.544.312a16.675,16.675,0,0,0-2.9-5.472L90.912-4.3A17.138,17.138,0,0,1,93.648,1.3Zm-12.7-5.088A8.244,8.244,0,0,1,80.952.24l1.656,1.008c1.3-1.32,1.872-3.528,2.04-5.712ZM108.384-2.52h9.936V-15.24h-4.656c.24-.7.432-1.464.6-2.088h5.016V-19.3H107.52v1.968h4.44c-.12.672-.264,1.416-.408,2.088h-3.168Zm2.064-5.4V-9.888h5.712V-7.92Zm0-3.6v-1.968h5.712v1.968Zm0,7.248V-6.264h5.712v1.992ZM105.432-16.3v2.016h1.92v-3.864h-4.08v-1.68c.384-.048.528-.168.552-.36l-2.688-.168v2.208H97.1v3.864h1.872V-16.3Zm.84,11.3,1.32-1.584c-.84-.744-2.112-1.728-3.5-2.736a14.108,14.108,0,0,0,2.328-4.1.579.579,0,0,0,.24-.288c-.36-.144-.744-.312-1.344-.6l-.336.072h-2.784l.432-.84c.288.024.48-.072.528-.24l-2.232-.7a12.461,12.461,0,0,1-4.392,5.3A11.724,11.724,0,0,1,97.9-9.432a16.247,16.247,0,0,0,1.3-1.032c.648.456,1.344.936,2.016,1.44A14.445,14.445,0,0,1,96.5-6.1a7.152,7.152,0,0,1,1.2,1.632l.792-.36V1.728h1.944V.648h5.3a11.914,11.914,0,0,1,1.464,1.44,15.244,15.244,0,0,0,4.776-3,.733.733,0,0,0,.456-.192L110.424-2.28A13.837,13.837,0,0,1,105.96.528V-5.28ZM100.3-5.856a17.814,17.814,0,0,0,2.5-1.992c.912.7,1.776,1.368,2.5,1.992Zm.144,4.728V-4.08h3.552v2.952Zm3.528-11.52a12.208,12.208,0,0,1-1.44,2.232c-.7-.48-1.392-.96-2.04-1.392.24-.288.456-.552.672-.84Zm15.7,13.656a28.952,28.952,0,0,0-4.056-3.12l-1.7,1.056a25.189,25.189,0,0,1,3.96,3.264Zm3.96-19.992A75.465,75.465,0,0,0,122.448-7.32a26.705,26.705,0,0,0,1.08,8.424L125.9.72a3.048,3.048,0,0,1-.12-.816,3.972,3.972,0,0,1,.192-1.128c.336-1.1,1.128-2.448,2.016-4.488l-1.224-1.656c-.312.816-1.3,3.072-1.68,4.008a27.054,27.054,0,0,1-.216-4.056,58.238,58.238,0,0,1,1.248-10.656c.48-.024.72-.168.768-.432Zm7.128,5.424a83.462,83.462,0,0,0,10.464-.864l-.24-2.352a80.729,80.729,0,0,1-10.3.912Zm11.04,10.392A29.564,29.564,0,0,1,138.5-3c-2.76,0-5.76-.144-5.76-2.376a5.294,5.294,0,0,1,1.92-3.576l-2.256-.816c-1.3,1.584-2.16,3.024-2.16,4.7,0,1.992,1.368,3.7,4.512,4.128A32.068,32.068,0,0,0,139.1-.7c.888,0,1.776-.024,2.616-.072Zm23.5,1.08a29.046,29.046,0,0,0-8.136-4.2c-.024-.528-.1-1.08-.144-1.56-.1-1.368-.24-2.88-.24-4.608a63.466,63.466,0,0,0,7.8-.672l-.24-2.4a58,58,0,0,1-7.584.816l-.024-4.3c.432-.1.624-.312.624-.552l-3.216-.168c0,3.12.264,8.472.456,11.64.048.432.12.888.144,1.392a17.587,17.587,0,0,0-2.472-.168c-3.024.024-5.712,1.488-5.688,4.152.048,2.544,2.64,4.152,5.856,4.152,2.664,0,3.936-.984,4.248-2.232a6.5,6.5,0,0,0,.576-2.976,26.2,26.2,0,0,1,6.48,3.912ZM154.8-4.56c.048.552.048,1.224.048,1.92,0,1.3-1.1,1.992-2.64,1.992-1.8,0-3.456-.7-3.48-2.136-.024-1.224,1.416-2.088,3.456-2.112A9.216,9.216,0,0,1,154.8-4.56Zm17.256-3.888a.67.67,0,0,0,.48-.432c.408-.144,1.008-.36,1.512-.552a26.989,26.989,0,0,1,7.8-1.7c2.3,0,4.2,1.152,4.2,3.84,0,3.672-4.368,5.208-10.1,5.592a13.293,13.293,0,0,1,.672,2.088c6.72-.528,11.808-2.472,11.808-7.848,0-3.984-3-5.712-6.288-5.712a34.763,34.763,0,0,0-8.592,1.632c-.96.264-1.776.48-2.28.576ZM193.7-14.424a.92.92,0,0,0,.576-.384c2.616-.264,9.072-.816,11.712-.96-3.96,2.616-6.96,6.576-6.96,9.72,0,4.2,2.592,6.936,9.432,7.824L209.616-.6c-5.592-.672-7.968-2.448-7.968-5.472,0-2.9,3.36-6.48,6.456-8.448a7.281,7.281,0,0,1,5.088-1.32l-.024-2.544c-3.6.1-14.832.84-17.28,1.032-.672.048-1.7.072-2.424.072Zm39.384,6.888h-7.032c.288-.336.576-.672.84-1.008q.468,0,.576-.288v.072c3.576,0,4.32-.216,4.32-2.256V-15.96h6.456v-2.112h-9.576v-1.7c.384-.072.552-.192.576-.408l-2.9-.168v2.28h-9.456v2.112h7.7a6.872,6.872,0,0,1-3.648,6.576A8.4,8.4,0,0,1,222.6-7.848c3.792-2.352,4.128-5.664,4.128-8.112h2.856v4.872c0,.36-.1.36-1.08.36-.456,0-1.056-.024-1.656-.048a8.714,8.714,0,0,1,.6,1.9l-2.712-.48a16.009,16.009,0,0,1-7.728,5.352,6.135,6.135,0,0,1,1.44,1.68,24,24,0,0,0,4.008-2.136,14.69,14.69,0,0,0,2.88,2.712,35.961,35.961,0,0,1-9,1.9,7.354,7.354,0,0,1,1.1,2.04,37.139,37.139,0,0,0,10.1-2.616,28.13,28.13,0,0,0,9.96,2.568A10.606,10.606,0,0,1,238.848,0a32.069,32.069,0,0,1-8.88-1.7,13.943,13.943,0,0,0,4.752-4.632.5.5,0,0,0,.384-.288L233.5-7.632Zm-1.56,1.824a12.557,12.557,0,0,1-3.864,2.976,11.78,11.78,0,0,1-3.576-2.928l.048-.048Zm7.2-4.632A26.723,26.723,0,0,0,234.576-15l-1.752,1.032a26.869,26.869,0,0,1,3.984,4.776ZM220.3-14.88a11.013,11.013,0,0,1-3.864,4.176,11.582,11.582,0,0,1,1.56,1.344,15.852,15.852,0,0,0,4.272-4.56.485.485,0,0,0,.528-.24Zm37.08.24v-4.944c.384-.072.528-.192.552-.408l-2.688-.144v5.5h-2.568V-12.5h2.568c0,3.6-.36,8.112-3.072,11.64V-1.7c-1.56.144-3.144.312-4.68.456V-2.9h4.656v-1.7h-4.656V-5.88h4.488v-7.3h-4.488v-1.3h5.088v-1.7h-5.088v-1.416a1.911,1.911,0,0,0,.408-.144,35.181,35.181,0,0,0,3.84-.7,1.076,1.076,0,0,0,.264.024.36.36,0,0,0,.24-.048l-1.56-1.656a58.965,58.965,0,0,1-10.128,1.32,5.961,5.961,0,0,1,.552,1.632c1.368-.072,2.856-.168,4.3-.312v1.3h-5.04v1.7h5.04v1.3h-4.248v7.3H245.4v1.272h-4.416v1.7H245.4V-1.08c-1.968.192-3.744.336-5.112.432l.7,2.28a.462.462,0,0,0,.36-.36c2.472-.264,6.288-.7,10.008-1.176a8.879,8.879,0,0,1-.672.672,9.059,9.059,0,0,1,1.7,1.416C256.8-1.8,257.352-7.7,257.376-12.5h2.832c-.192,8.328-.432,11.352-.96,12.024a.829.829,0,0,1-.816.408c-.432,0-1.368,0-2.4-.1a5.632,5.632,0,0,1,.624,2.112c.552.024,1.08.048,1.56.048,1.584,0,2.3-.168,2.952-1.1.744-1.032.984-4.464,1.224-14.736.024-.24.024-.552.048-.744l-1.2-.048Zm-11.976,3v1.392h-2.352V-11.64Zm4.608,1.392h-2.52V-11.64h2.52Zm-6.96,1.44H245.4v1.392h-2.352Zm4.44,1.392V-8.808h2.52v1.392Z" transform="translate(549.339 6703.808)" fill="#343434"/>
      <path id="パス_9619" data-name="パス 9619" d="M18.384-11.256H13.1v-3.36H22.56v-2.256H13.1v-2.9c.408-.072.552-.192.576-.408l-2.928-.168v3.48H1.464v2.256h9.288v3.36H2.808v2.232h4.1l-1.7.6A17.85,17.85,0,0,0,9.84-2.616,32.61,32.61,0,0,1,.72-.048a8.244,8.244,0,0,1,1.272,2.16A32.543,32.543,0,0,0,11.9-1.152,26.65,26.65,0,0,0,21.84,2.184,10.275,10.275,0,0,1,23.28-.024a27.77,27.77,0,0,1-9.12-2.568,17.172,17.172,0,0,0,5.928-7.464.594.594,0,0,0,.384-.336l-1.68-.96ZM16.968-9.024a13.966,13.966,0,0,1-4.92,5.184A13.964,13.964,0,0,1,7.392-9.024ZM43.68-6.648h-6.5c.12-.5.24-1.008.336-1.512h9.312v-1.9H37.872l.216-1.608h7.7v-1.824H43.44a28.1,28.1,0,0,0,1.9-3,.574.574,0,0,0,.576-.24l-2.376-.816a24.486,24.486,0,0,1-2.088,3.912l.36.144H32.736V-15.5H30.192v-4.3c.384-.048.528-.192.552-.408l-2.712-.12V-15.5h-3.12v2.088h3.12V-8.64c-1.3.384-2.472.7-3.408.936l.7,2.544a.491.491,0,0,0,.36-.408c.648-.216,1.464-.48,2.352-.792V-.48c0,.336-.1.456-.432.456h-.936c-.432,0-.96,0-1.512-.024A8.969,8.969,0,0,1,25.8,2.136c3.48.048,4.392-.384,4.392-2.616V-7.128l2.016-.7L31.92-9.768l-1.728.5v-4.152h2.5v1.752h3.288c-.072.552-.144,1.08-.24,1.608H32.448v1.9h2.928C34.56-4.272,33.144-1.1,30.864.792A10.634,10.634,0,0,1,32.592,2.04a14.5,14.5,0,0,0,3.72-5.9,11.744,11.744,0,0,0,2.544,2.808,15.087,15.087,0,0,1-4.1,1.464,6.961,6.961,0,0,1,1.224,1.7A15.1,15.1,0,0,0,40.584.144a18.117,18.117,0,0,0,5.448,1.968A8.613,8.613,0,0,1,47.376.24a18.821,18.821,0,0,1-5.088-1.464A11.274,11.274,0,0,0,45.1-5.88a.516.516,0,0,0,.216-.288L44.064-6.72ZM33.6-16.584a11.981,11.981,0,0,1,1.08,3.048l1.824-.6a12.114,12.114,0,0,0-1.176-2.976Zm9,11.664a8.471,8.471,0,0,1-2.088,2.736,8.714,8.714,0,0,1-2.52-2.424l-1.584.48c.1-.264.192-.528.264-.792Zm1.848-15.432a79.307,79.307,0,0,1-12.192,1.368,7.36,7.36,0,0,1,.528,1.7A82.177,82.177,0,0,0,45.36-18.552a1.238,1.238,0,0,0,.264.048.386.386,0,0,0,.264-.072ZM37.872-17.04a13.15,13.15,0,0,1,.6,3.216l1.872-.408a12.072,12.072,0,0,0-.7-3.144ZM61.08-6.048h7.992V-8.016H61.08V-10.9h4.968V-12.24a34.96,34.96,0,0,0,3.888,2.472,13.81,13.81,0,0,1,1.512-2.016,28.008,28.008,0,0,1-10.176-8.088.55.55,0,0,0,.528-.408l-3.12-.192a26.873,26.873,0,0,1-10.032,9.024,8.842,8.842,0,0,1,1.392,1.8,32.819,32.819,0,0,0,3.84-2.5V-10.9h4.8v2.88H50.856v1.968H58.68V-.6h-9V1.392H70.32V-.6H61.08Zm-6.24-6.84a25.762,25.762,0,0,0,5.064-5.28,26.928,26.928,0,0,0,5.3,5.28ZM56.784-1.536A15.638,15.638,0,0,0,54.5-5.76l-1.848.768a15.78,15.78,0,0,1,2.16,4.32ZM64.32-.6a34.1,34.1,0,0,0,2.688-3.888c.288,0,.5-.072.576-.24L65.16-5.76a25.069,25.069,0,0,1-2.52,4.32ZM85.008-20.376a14.216,14.216,0,0,1-3.792,5.928A14.754,14.754,0,0,1,82.8-13.08a17.7,17.7,0,0,0,4.176-6.288.485.485,0,0,0,.552-.264ZM82.44-7.56a21.928,21.928,0,0,0-2.472-5.016l-1.632.7c.408.648.792,1.368,1.152,2.088l-3.264.072a60.954,60.954,0,0,0,4.584-6.6.645.645,0,0,0,.6-.24l-2.232-.984a45.087,45.087,0,0,1-2.424,4.224c-.288-.408-.672-.864-1.056-1.32a37.356,37.356,0,0,0,2.5-4.584.648.648,0,0,0,.576-.216l-2.3-.912a32.246,32.246,0,0,1-1.992,4.416c-.216-.216-.432-.408-.648-.6l-1.152,1.512a22.792,22.792,0,0,1,2.9,3.48c-.48.648-.96,1.3-1.392,1.848l-1.656.024.48,2.352a.434.434,0,0,0,.384-.336c.864-.024,1.92-.1,3.1-.144V2.136H78.48V-7.92l1.776-.12a10.212,10.212,0,0,1,.432,1.3Zm6.936-12.1A17.861,17.861,0,0,0,94.1-13.248a7.883,7.883,0,0,1,1.56-1.656,13.624,13.624,0,0,1-4.416-5.448Zm-7.032,9.168.768,2.352a.407.407,0,0,0,.36-.336c2.136-.12,5.3-.336,8.448-.552a14.681,14.681,0,0,1,.84,1.512l1.8-1.1a23.6,23.6,0,0,0-3.744-5.064l-1.68.96c.528.6,1.1,1.3,1.632,1.992l-4.272.144a46.634,46.634,0,0,0,1.968-4.488c.312-.024.5-.1.6-.264L86.5-16.128a37.47,37.47,0,0,1-2.088,5.592ZM90.936-5.76a13.151,13.151,0,0,0-4.008-2.88L85.512-7.392a12.593,12.593,0,0,1,3.936,3.024ZM82.2-1.8a24.666,24.666,0,0,0-1.536-4.608l-1.68.528a26.741,26.741,0,0,1,1.464,4.7ZM73.8-6.336A22.088,22.088,0,0,1,72.5-.6a11.125,11.125,0,0,1,1.608.792,22.025,22.025,0,0,0,1.44-5.736c.288,0,.456-.1.5-.264ZM87.384-4.8c.36-.072.5-.192.528-.36L85.32-5.328v4.68c0,1.872.432,2.424,2.352,2.424H89.88c1.512,0,2.04-.7,2.232-3.48a4.9,4.9,0,0,1-1.776-.744C90.264-.312,90.144.024,89.664.024H88.008c-.528,0-.624-.1-.624-.672ZM95.544.312a16.675,16.675,0,0,0-2.9-5.472L90.912-4.3A17.138,17.138,0,0,1,93.648,1.3Zm-12.7-5.088A8.244,8.244,0,0,1,80.952.24l1.656,1.008c1.3-1.32,1.872-3.528,2.04-5.712ZM108.384-2.52h9.936V-15.24h-4.656c.24-.7.432-1.464.6-2.088h5.016V-19.3H107.52v1.968h4.44c-.12.672-.264,1.416-.408,2.088h-3.168Zm2.064-5.4V-9.888h5.712V-7.92Zm0-3.6v-1.968h5.712v1.968Zm0,7.248V-6.264h5.712v1.992ZM105.432-16.3v2.016h1.92v-3.864h-4.08v-1.68c.384-.048.528-.168.552-.36l-2.688-.168v2.208H97.1v3.864h1.872V-16.3Zm.84,11.3,1.32-1.584c-.84-.744-2.112-1.728-3.5-2.736a14.108,14.108,0,0,0,2.328-4.1.579.579,0,0,0,.24-.288c-.36-.144-.744-.312-1.344-.6l-.336.072h-2.784l.432-.84c.288.024.48-.072.528-.24l-2.232-.7a12.461,12.461,0,0,1-4.392,5.3A11.724,11.724,0,0,1,97.9-9.432a16.247,16.247,0,0,0,1.3-1.032c.648.456,1.344.936,2.016,1.44A14.445,14.445,0,0,1,96.5-6.1a7.152,7.152,0,0,1,1.2,1.632l.792-.36V1.728h1.944V.648h5.3a11.914,11.914,0,0,1,1.464,1.44,15.244,15.244,0,0,0,4.776-3,.733.733,0,0,0,.456-.192L110.424-2.28A13.837,13.837,0,0,1,105.96.528V-5.28ZM100.3-5.856a17.814,17.814,0,0,0,2.5-1.992c.912.7,1.776,1.368,2.5,1.992Zm.144,4.728V-4.08h3.552v2.952Zm3.528-11.52a12.208,12.208,0,0,1-1.44,2.232c-.7-.48-1.392-.96-2.04-1.392.24-.288.456-.552.672-.84Zm15.7,13.656a28.952,28.952,0,0,0-4.056-3.12l-1.7,1.056a25.189,25.189,0,0,1,3.96,3.264ZM131.376-15.84c.336-.024.648-.048.984-.048,5.016,0,7.608,3.072,7.608,6.984,0,4.152-2.5,6.792-7.992,7.872a15.8,15.8,0,0,1,1.512,2.04c5.928-1.464,9.024-4.3,9.024-9.984,0-4.944-3.24-9.144-10.128-9.144a10.574,10.574,0,0,0-10.9,10.608c0,3.936,1.872,6.072,4.2,6.072,4.032,0,6.48-5.592,7.416-13.464a.644.644,0,0,0,.648-.384ZM125.76-3.816c-1.1,0-1.944-1.488-1.944-3.768A8.2,8.2,0,0,1,130.68-15.7C130.176-9.6,128.352-3.816,125.76-3.816ZM156.1-2.3h-7.272v-.048l1.488-1.512c3.144-3.168,5.4-5.928,5.4-9.24a4.955,4.955,0,0,0-5.352-5.256,7.8,7.8,0,0,0-4.872,1.68l.84,1.992a5.807,5.807,0,0,1,3.48-1.416c2.28,0,3.12,1.536,3.12,3.288,0,2.712-2.112,5.208-5.928,9.12L145.1-1.7V0H156.1ZM164.16.264c3.72,0,5.928-3.336,5.928-9.456,0-5.472-1.92-9.168-5.736-9.168-3.744,0-5.976,3.456-5.976,9.36C158.376-3.456,160.392.264,164.16.264Zm.048-2.232c-1.92,0-3.024-2.64-3.024-7.128,0-4.512,1.248-7.056,3.072-7.056,2.112,0,3.024,2.76,3.024,7.056C167.28-5.352,166.56-1.968,164.208-1.968ZM175.968-18c-2.376,0-4.2,2.112-4.2,5.52,0,3.384,1.824,5.352,4.1,5.352,2.184,0,4.176-1.872,4.176-5.592C180.048-15.816,178.608-18,175.968-18Zm-.048,1.608c1.488,0,1.992,1.776,1.992,3.792,0,2.16-.576,3.84-1.992,3.84-1.344,0-2.016-1.656-2.016-3.7C173.9-14.256,174.384-16.392,175.92-16.392ZM187.3-10.656c-2.424,0-4.224,2.112-4.224,5.52S184.9.216,187.176.216c2.232,0,4.2-1.848,4.2-5.568C191.376-8.448,189.936-10.656,187.3-10.656Zm-.048,1.608c1.488,0,1.992,1.8,1.992,3.816,0,2.16-.576,3.816-1.992,3.816-1.344,0-2.04-1.68-2.04-3.792C185.208-7.08,185.76-9.048,187.248-9.048Zm.216-8.976h-1.68L175.632.336h1.656Z" transform="translate(888 6703.808)" fill="#343434"/>
      <g id="グループ_2020" data-name="グループ 2020" transform="translate(1135.339 6120.479)">
        <rect id="長方形_2565" data-name="長方形 2565" width="324.27" height="154.998" fill="#1d2a56"/>
        <g id="selectia_logo" transform="translate(37.854 -8.17)">
          <path id="パス_9611" data-name="パス 9611" d="M11.928-16.268a5.006,5.006,0,0,0-4.536-2.66A4.537,4.537,0,0,0,2.6-14.28a4.015,4.015,0,0,0,.588,2.128c.644,1.064,1.568,1.568,3.416,2.464,1.54.756,2.632,1.316,3.164,1.624a3.286,3.286,0,0,1,1.82,2.94A4.343,4.343,0,0,1,7.084-.812a4.49,4.49,0,0,1-3.5-1.6A6.455,6.455,0,0,1,2.576-4.2l-1.064.5a6.135,6.135,0,0,0,1.2,2.044A5.334,5.334,0,0,0,7.056.308a5.589,5.589,0,0,0,5.824-5.46,4.105,4.105,0,0,0-1.988-3.612,26.3,26.3,0,0,0-3.724-1.96c-1.876-.924-3.276-1.6-3.276-3.612a3.32,3.32,0,0,1,3.472-3.472,3.992,3.992,0,0,1,3.668,2.3Zm18.144-2.408h-8.96V0h8.96V-1.12H22.344V-9.66H29.9v-1.12h-7.56v-6.776h7.728Zm8.232,0V0h6.44V-1.12H39.536V-18.676Zm22.512,0h-8.96V0h8.96V-1.12H53.088V-9.66h7.56v-1.12h-7.56v-6.776h7.728ZM84-16.492a9.094,9.094,0,0,0-6.272-2.436A9.608,9.608,0,0,0,68.04-9.3a9.6,9.6,0,0,0,9.744,9.6A9.379,9.379,0,0,0,84-2.016V-3.64A8.686,8.686,0,0,1,77.728-.812a8.365,8.365,0,0,1-8.4-8.428A8.368,8.368,0,0,1,77.7-17.808a8.267,8.267,0,0,1,6.3,2.94Zm17.024-1.064v-1.12H90.1v1.12h4.844V0H96.18V-17.556Zm7.112-1.12V0h1.232V-18.676ZM130.76,0H132.1l-7.756-19.236L116.48,0h1.344l2.492-6.132h7.952Zm-10-7.252L124.32-16.1l3.5,8.848Z" transform="translate(58.28 143.54)" fill="#f5f5f5" stroke="#f5f5f5" stroke-width="0.75"/>
          <g id="グループ_2034" data-name="グループ 2034" transform="translate(58.547 114.667)">
            <path id="パス_789" data-name="パス 789" d="M84.7,217.07l-3.526,3.555,2.225,1.281Z" transform="translate(-71.31 -212.16)" fill="#f5f5f5" stroke="#f5f5f5" stroke-miterlimit="10" stroke-width="1"/>
            <g id="グループ_2033" data-name="グループ 2033" transform="translate(0)">
              <path id="パス_787" data-name="パス 787" d="M74.282,211.17l-1.692,6.377h3.384Z" transform="translate(-66.925 -209.145)" fill="#f5f5f5" stroke="#f5f5f5" stroke-miterlimit="10" stroke-width="1"/>
              <circle id="楕円形_289" data-name="楕円形 289" cx="0.856" cy="0.856" r="0.856" transform="translate(6.486)" fill="#1d2a56" stroke="#f5f5f5" stroke-miterlimit="10" stroke-width="1"/>
              <g id="グループ_2032" data-name="グループ 2032" transform="translate(0 3.009)">
                <path id="パス_788" data-name="パス 788" d="M63.7,217.07l3.526,3.555L65,221.906Z" transform="translate(-62.383 -215.169)" fill="#f5f5f5" stroke="#f5f5f5" stroke-miterlimit="10" stroke-width="1"/>
                <circle id="楕円形_290" data-name="楕円形 290" cx="0.856" cy="0.856" r="0.856" transform="translate(0 0.058) rotate(-1.95)" fill="#1d2a56" stroke="#f5f5f5" stroke-miterlimit="10" stroke-width="1"/>
              </g>
            </g>
            <circle id="楕円形_291" data-name="楕円形 291" cx="0.856" cy="0.856" r="0.856" transform="translate(13.592 2.254) rotate(-1.718)" fill="#1d2a56" stroke="#f5f5f5" stroke-miterlimit="10" stroke-width="1"/>
          </g>
          <g id="グループ_2031" data-name="グループ 2031" transform="translate(76.846 19.798)" clip-path="url(#clip-path)">
            <rect id="長方形_2762" data-name="長方形 2762" width="3.912" height="9.78" transform="translate(96.732 -2.709)" fill="#f5f5f5"/>
            <rect id="長方形_2763" data-name="長方形 2763" width="3.912" height="9.78" transform="translate(102.601 -2.709)" fill="#f5f5f5"/>
            <rect id="長方形_2764" data-name="長方形 2764" width="3.912" height="9.78" transform="translate(118.494 -2.709) rotate(90)" fill="#f5f5f5"/>
            <rect id="長方形_2765" data-name="長方形 2765" width="3.912" height="9.78" transform="translate(118.494 3.159) rotate(90)" fill="#f5f5f5"/>
            <rect id="長方形_2766" data-name="長方形 2766" width="3.912" height="9.78" transform="translate(120.67 -2.709)" fill="#f5f5f5"/>
            <rect id="長方形_2767" data-name="長方形 2767" width="3.912" height="9.78" transform="translate(126.538 -2.709)" fill="#f5f5f5"/>
            <rect id="長方形_2768" data-name="長方形 2768" width="3.912" height="9.78" transform="translate(142.431 -2.709) rotate(90)" fill="#f5f5f5"/>
            <rect id="長方形_2769" data-name="長方形 2769" width="3.912" height="9.78" transform="translate(142.431 3.159) rotate(90)" fill="#f5f5f5"/>
            <rect id="長方形_2770" data-name="長方形 2770" width="3.912" height="9.78" transform="translate(48.946 -2.709)" fill="#f5f5f5"/>
            <rect id="長方形_2771" data-name="長方形 2771" width="3.912" height="9.78" transform="translate(54.814 -2.709)" fill="#f5f5f5"/>
            <rect id="長方形_2772" data-name="長方形 2772" width="3.912" height="9.78" transform="translate(70.712 -2.709) rotate(90)" fill="#f5f5f5"/>
            <rect id="長方形_2773" data-name="長方形 2773" width="3.912" height="9.78" transform="translate(70.712 3.159) rotate(90)" fill="#f5f5f5"/>
            <rect id="長方形_2774" data-name="長方形 2774" width="3.912" height="9.78" transform="translate(72.888 -2.709)" fill="#f5f5f5"/>
            <rect id="長方形_2775" data-name="長方形 2775" width="3.912" height="9.78" transform="translate(78.756 -2.709)" fill="#f5f5f5"/>
            <rect id="長方形_2776" data-name="長方形 2776" width="3.912" height="9.78" transform="translate(94.649 -2.709) rotate(90)" fill="#f5f5f5"/>
            <rect id="長方形_2777" data-name="長方形 2777" width="3.912" height="9.78" transform="translate(94.649 3.159) rotate(90)" fill="#f5f5f5"/>
            <rect id="長方形_2778" data-name="長方形 2778" width="3.912" height="9.78" transform="translate(0.954 -2.709)" fill="#f5f5f5"/>
            <rect id="長方形_2779" data-name="長方形 2779" width="3.912" height="9.78" transform="translate(6.822 -2.709)" fill="#f5f5f5"/>
            <rect id="長方形_2780" data-name="長方形 2780" width="3.912" height="9.78" transform="translate(22.72 -2.709) rotate(90)" fill="#f5f5f5"/>
            <rect id="長方形_2781" data-name="長方形 2781" width="3.912" height="9.78" transform="translate(22.72 3.159) rotate(90)" fill="#f5f5f5"/>
            <rect id="長方形_2782" data-name="長方形 2782" width="3.912" height="9.78" transform="translate(24.891 -2.709)" fill="#f5f5f5"/>
            <rect id="長方形_2783" data-name="長方形 2783" width="3.912" height="9.78" transform="translate(30.759 -2.709)" fill="#f5f5f5"/>
            <rect id="長方形_2784" data-name="長方形 2784" width="3.912" height="9.78" transform="translate(46.657 -2.709) rotate(90)" fill="#f5f5f5"/>
            <rect id="長方形_2785" data-name="長方形 2785" width="3.912" height="9.78" transform="translate(46.657 3.159) rotate(90)" fill="#f5f5f5"/>
            <rect id="長方形_2786" data-name="長方形 2786" width="3.912" height="9.78" transform="translate(-46.828 -2.709)" fill="#f5f5f5"/>
            <rect id="長方形_2787" data-name="長方形 2787" width="3.912" height="9.78" transform="translate(-40.96 -2.709)" fill="#f5f5f5"/>
            <rect id="長方形_2788" data-name="長方形 2788" width="3.912" height="9.78" transform="translate(-25.067 -2.709) rotate(90)" fill="#f5f5f5"/>
            <rect id="長方形_2789" data-name="長方形 2789" width="3.912" height="9.78" transform="translate(-25.067 3.159) rotate(90)" fill="#f5f5f5"/>
            <rect id="長方形_2790" data-name="長方形 2790" width="3.912" height="9.78" transform="translate(-22.891 -2.709)" fill="#f5f5f5"/>
            <rect id="長方形_2791" data-name="長方形 2791" width="3.912" height="9.78" transform="translate(-17.023 -2.709)" fill="#f5f5f5"/>
            <rect id="長方形_2792" data-name="長方形 2792" width="3.912" height="9.78" transform="translate(-1.13 -2.709) rotate(90)" fill="#f5f5f5"/>
            <rect id="長方形_2793" data-name="長方形 2793" width="3.912" height="9.78" transform="translate(-1.13 3.159) rotate(90)" fill="#f5f5f5"/>
            <rect id="長方形_2794" data-name="長方形 2794" width="3.912" height="9.78" transform="translate(84.844 8.705)" fill="#f5f5f5"/>
            <rect id="長方形_2795" data-name="長方形 2795" width="3.912" height="9.78" transform="translate(90.713 8.705)" fill="#f5f5f5"/>
            <rect id="長方形_2796" data-name="長方形 2796" width="3.912" height="9.78" transform="translate(106.606 8.704) rotate(90)" fill="#f5f5f5"/>
            <rect id="長方形_2797" data-name="長方形 2797" width="3.912" height="9.78" transform="translate(106.606 14.573) rotate(90)" fill="#f5f5f5"/>
            <rect id="長方形_2798" data-name="長方形 2798" width="3.912" height="9.78" transform="translate(108.782 8.705)" fill="#f5f5f5"/>
            <rect id="長方形_2799" data-name="長方形 2799" width="3.912" height="9.78" transform="translate(114.65 8.705)" fill="#f5f5f5"/>
            <rect id="長方形_2800" data-name="長方形 2800" width="3.912" height="9.78" transform="translate(130.543 8.704) rotate(90)" fill="#f5f5f5"/>
            <rect id="長方形_2801" data-name="長方形 2801" width="3.912" height="9.78" transform="translate(130.543 14.573) rotate(90)" fill="#f5f5f5"/>
            <rect id="長方形_2802" data-name="長方形 2802" width="3.912" height="9.78" transform="translate(37.058 8.705)" fill="#f5f5f5"/>
            <rect id="長方形_2803" data-name="長方形 2803" width="3.912" height="9.78" transform="translate(42.926 8.705)" fill="#f5f5f5"/>
            <rect id="長方形_2804" data-name="長方形 2804" width="3.912" height="9.78" transform="translate(58.824 8.705) rotate(90)" fill="#f5f5f5"/>
            <rect id="長方形_2805" data-name="長方形 2805" width="3.912" height="9.78" transform="translate(58.824 14.573) rotate(90)" fill="#f5f5f5"/>
            <rect id="長方形_2806" data-name="長方形 2806" width="3.912" height="9.78" transform="translate(60.995 8.705)" fill="#f5f5f5"/>
            <rect id="長方形_2807" data-name="長方形 2807" width="3.912" height="9.78" transform="translate(66.863 8.705)" fill="#f5f5f5"/>
            <rect id="長方形_2808" data-name="長方形 2808" width="3.912" height="9.78" transform="translate(82.761 8.704) rotate(90)" fill="#f5f5f5"/>
            <rect id="長方形_2809" data-name="長方形 2809" width="3.912" height="9.78" transform="translate(82.761 14.573) rotate(90)" fill="#f5f5f5"/>
            <rect id="長方形_2810" data-name="長方形 2810" width="3.912" height="9.78" transform="translate(-10.934 8.705)" fill="#f5f5f5"/>
            <rect id="長方形_2811" data-name="長方形 2811" width="3.912" height="9.78" transform="translate(-5.066 8.705)" fill="#f5f5f5"/>
            <rect id="長方形_2812" data-name="長方形 2812" width="3.912" height="9.78" transform="translate(10.827 8.705) rotate(90)" fill="#f5f5f5"/>
            <rect id="長方形_2813" data-name="長方形 2813" width="3.912" height="9.78" transform="translate(10.827 14.573) rotate(90)" fill="#f5f5f5"/>
            <rect id="長方形_2814" data-name="長方形 2814" width="3.912" height="9.78" transform="translate(13.003 8.705)" fill="#f5f5f5"/>
            <rect id="長方形_2815" data-name="長方形 2815" width="3.912" height="9.78" transform="translate(18.871 8.705)" fill="#f5f5f5"/>
            <rect id="長方形_2816" data-name="長方形 2816" width="3.912" height="9.78" transform="translate(34.769 8.705) rotate(90)" fill="#f5f5f5"/>
            <rect id="長方形_2817" data-name="長方形 2817" width="3.912" height="9.78" transform="translate(34.769 14.573) rotate(90)" fill="#f5f5f5"/>
            <rect id="長方形_2818" data-name="長方形 2818" width="3.912" height="9.78" transform="translate(-58.721 8.705)" fill="#f5f5f5"/>
            <rect id="長方形_2819" data-name="長方形 2819" width="3.912" height="9.78" transform="translate(-52.853 8.705)" fill="#f5f5f5"/>
            <rect id="長方形_2820" data-name="長方形 2820" width="3.912" height="9.78" transform="translate(-36.955 8.705) rotate(90)" fill="#f5f5f5"/>
            <rect id="長方形_2821" data-name="長方形 2821" width="3.912" height="9.78" transform="translate(-36.955 14.573) rotate(90)" fill="#f5f5f5"/>
            <rect id="長方形_2822" data-name="長方形 2822" width="3.912" height="9.78" transform="translate(-34.779 8.705)" fill="#f5f5f5"/>
            <rect id="長方形_2823" data-name="長方形 2823" width="3.912" height="9.78" transform="translate(-28.911 8.705)" fill="#f5f5f5"/>
            <rect id="長方形_2824" data-name="長方形 2824" width="3.912" height="9.78" transform="translate(-13.018 8.705) rotate(90)" fill="#f5f5f5"/>
            <rect id="長方形_2825" data-name="長方形 2825" width="3.912" height="9.78" transform="translate(-13.018 14.573) rotate(90)" fill="#f5f5f5"/>
            <rect id="長方形_2826" data-name="長方形 2826" width="3.912" height="9.78" transform="translate(96.913 19.786)" fill="#f5f5f5"/>
            <rect id="長方形_2827" data-name="長方形 2827" width="3.912" height="9.78" transform="translate(102.782 19.786)" fill="#f5f5f5"/>
            <rect id="長方形_2828" data-name="長方形 2828" width="3.912" height="9.78" transform="translate(118.675 19.786) rotate(90)" fill="#f5f5f5"/>
            <rect id="長方形_2829" data-name="長方形 2829" width="3.912" height="9.78" transform="translate(118.675 25.654) rotate(90)" fill="#f5f5f5"/>
            <rect id="長方形_2830" data-name="長方形 2830" width="3.912" height="9.78" transform="translate(120.851 19.786)" fill="#f5f5f5"/>
            <rect id="長方形_2831" data-name="長方形 2831" width="3.912" height="9.78" transform="translate(126.719 19.786)" fill="#f5f5f5"/>
            <rect id="長方形_2832" data-name="長方形 2832" width="3.912" height="9.78" transform="translate(142.612 19.786) rotate(90)" fill="#f5f5f5"/>
            <rect id="長方形_2833" data-name="長方形 2833" width="3.912" height="9.78" transform="translate(142.612 25.654) rotate(90)" fill="#f5f5f5"/>
            <rect id="長方形_2834" data-name="長方形 2834" width="3.912" height="9.78" transform="translate(49.127 19.786)" fill="#f5f5f5"/>
            <rect id="長方形_2835" data-name="長方形 2835" width="3.912" height="9.78" transform="translate(54.995 19.786)" fill="#f5f5f5"/>
            <rect id="長方形_2836" data-name="長方形 2836" width="3.912" height="9.78" transform="translate(70.893 19.786) rotate(90)" fill="#f5f5f5"/>
            <rect id="長方形_2837" data-name="長方形 2837" width="3.912" height="9.78" transform="translate(70.893 25.654) rotate(90)" fill="#f5f5f5"/>
            <rect id="長方形_2838" data-name="長方形 2838" width="3.912" height="9.78" transform="translate(73.069 19.786)" fill="#f5f5f5"/>
            <rect id="長方形_2839" data-name="長方形 2839" width="3.912" height="9.78" transform="translate(78.937 19.786)" fill="#f5f5f5"/>
            <rect id="長方形_2840" data-name="長方形 2840" width="3.912" height="9.78" transform="translate(94.83 19.786) rotate(90)" fill="#f5f5f5"/>
            <rect id="長方形_2841" data-name="長方形 2841" width="3.912" height="9.78" transform="translate(94.83 25.654) rotate(90)" fill="#f5f5f5"/>
            <rect id="長方形_2842" data-name="長方形 2842" width="3.912" height="9.78" transform="translate(1.135 19.786)" fill="#f5f5f5"/>
            <rect id="長方形_2843" data-name="長方形 2843" width="3.912" height="9.78" transform="translate(7.003 19.786)" fill="#f5f5f5"/>
            <rect id="長方形_2844" data-name="長方形 2844" width="3.912" height="9.78" transform="translate(22.896 19.786) rotate(90)" fill="#f5f5f5"/>
            <rect id="長方形_2845" data-name="長方形 2845" width="3.912" height="9.78" transform="translate(22.896 25.654) rotate(90)" fill="#f5f5f5"/>
            <rect id="長方形_2846" data-name="長方形 2846" width="3.912" height="9.78" transform="translate(25.072 19.786)" fill="#f5f5f5"/>
            <rect id="長方形_2847" data-name="長方形 2847" width="3.912" height="9.78" transform="translate(30.94 19.786)" fill="#f5f5f5"/>
            <rect id="長方形_2848" data-name="長方形 2848" width="3.912" height="9.78" transform="translate(46.838 19.786) rotate(90)" fill="#f5f5f5"/>
            <rect id="長方形_2849" data-name="長方形 2849" width="3.912" height="9.78" transform="translate(46.838 25.654) rotate(90)" fill="#f5f5f5"/>
            <rect id="長方形_2850" data-name="長方形 2850" width="3.912" height="9.78" transform="translate(-46.647 19.786)" fill="#f5f5f5"/>
            <rect id="長方形_2851" data-name="長方形 2851" width="3.912" height="9.78" transform="translate(-40.779 19.786)" fill="#f5f5f5"/>
            <rect id="長方形_2852" data-name="長方形 2852" width="3.912" height="9.78" transform="translate(-24.886 19.786) rotate(90)" fill="#f5f5f5"/>
            <rect id="長方形_2853" data-name="長方形 2853" width="3.912" height="9.78" transform="translate(-24.886 25.654) rotate(90)" fill="#f5f5f5"/>
            <rect id="長方形_2854" data-name="長方形 2854" width="3.912" height="9.78" transform="translate(-22.71 19.786)" fill="#f5f5f5"/>
            <rect id="長方形_2855" data-name="長方形 2855" width="3.912" height="9.78" transform="translate(-16.842 19.786)" fill="#f5f5f5"/>
            <rect id="長方形_2856" data-name="長方形 2856" width="3.912" height="9.78" transform="translate(-0.949 19.786) rotate(90)" fill="#f5f5f5"/>
            <rect id="長方形_2857" data-name="長方形 2857" width="3.912" height="9.78" transform="translate(-0.949 25.654) rotate(90)" fill="#f5f5f5"/>
            <rect id="長方形_2858" data-name="長方形 2858" width="3.912" height="9.78" transform="translate(84.854 31.273)" fill="#f5f5f5"/>
            <rect id="長方形_2859" data-name="長方形 2859" width="3.912" height="9.78" transform="translate(90.722 31.273)" fill="#f5f5f5"/>
            <rect id="長方形_2860" data-name="長方形 2860" width="3.912" height="9.78" transform="translate(106.615 31.268) rotate(90)" fill="#f5f5f5"/>
            <rect id="長方形_2861" data-name="長方形 2861" width="3.912" height="9.78" transform="translate(106.615 37.136) rotate(90)" fill="#f5f5f5"/>
            <rect id="長方形_2862" data-name="長方形 2862" width="3.912" height="9.78" transform="translate(108.792 31.273)" fill="#f5f5f5"/>
            <rect id="長方形_2863" data-name="長方形 2863" width="3.912" height="9.78" transform="translate(114.66 31.273)" fill="#f5f5f5"/>
            <rect id="長方形_2864" data-name="長方形 2864" width="3.912" height="9.78" transform="translate(130.553 31.273) rotate(90)" fill="#f5f5f5"/>
            <rect id="長方形_2865" data-name="長方形 2865" width="3.912" height="9.78" transform="translate(130.553 37.141) rotate(90)" fill="#f5f5f5"/>
            <rect id="長方形_2866" data-name="長方形 2866" width="3.912" height="9.78" transform="translate(37.067 31.273)" fill="#f5f5f5"/>
            <rect id="長方形_2867" data-name="長方形 2867" width="3.912" height="9.78" transform="translate(42.936 31.273)" fill="#f5f5f5"/>
            <rect id="長方形_2868" data-name="長方形 2868" width="3.912" height="9.78" transform="translate(58.834 31.273) rotate(90)" fill="#f5f5f5"/>
            <rect id="長方形_2869" data-name="長方形 2869" width="3.912" height="9.78" transform="translate(58.834 37.141) rotate(90)" fill="#f5f5f5"/>
            <rect id="長方形_2870" data-name="長方形 2870" width="3.912" height="9.78" transform="translate(61.01 31.273)" fill="#f5f5f5"/>
            <rect id="長方形_2871" data-name="長方形 2871" width="3.912" height="9.78" transform="translate(66.878 31.273)" fill="#f5f5f5"/>
            <rect id="長方形_2872" data-name="長方形 2872" width="3.912" height="9.78" transform="translate(82.771 31.273) rotate(90)" fill="#f5f5f5"/>
            <rect id="長方形_2873" data-name="長方形 2873" width="3.912" height="9.78" transform="translate(82.771 37.141) rotate(90)" fill="#f5f5f5"/>
            <rect id="長方形_2874" data-name="長方形 2874" width="3.912" height="9.78" transform="translate(-10.925 31.273)" fill="#f5f5f5"/>
            <rect id="長方形_2875" data-name="長方形 2875" width="3.912" height="9.78" transform="translate(-5.056 31.273)" fill="#f5f5f5"/>
            <rect id="長方形_2876" data-name="長方形 2876" width="3.912" height="9.78" transform="translate(10.837 31.273) rotate(90)" fill="#f5f5f5"/>
            <rect id="長方形_2877" data-name="長方形 2877" width="3.912" height="9.78" transform="translate(10.837 37.141) rotate(90)" fill="#f5f5f5"/>
            <rect id="長方形_2878" data-name="長方形 2878" width="3.912" height="9.78" transform="translate(13.013 31.273)" fill="#f5f5f5"/>
            <rect id="長方形_2879" data-name="長方形 2879" width="3.912" height="9.78" transform="translate(18.881 31.273)" fill="#f5f5f5"/>
            <rect id="長方形_2880" data-name="長方形 2880" width="3.912" height="9.78" transform="translate(34.779 31.273) rotate(90)" fill="#f5f5f5"/>
            <rect id="長方形_2881" data-name="長方形 2881" width="3.912" height="9.78" transform="translate(34.779 37.141) rotate(90)" fill="#f5f5f5"/>
            <rect id="長方形_2882" data-name="長方形 2882" width="3.912" height="9.78" transform="translate(-58.706 31.273)" fill="#f5f5f5"/>
            <rect id="長方形_2883" data-name="長方形 2883" width="3.912" height="9.78" transform="translate(-52.838 31.273)" fill="#f5f5f5"/>
            <rect id="長方形_2884" data-name="長方形 2884" width="3.912" height="9.78" transform="translate(-36.945 31.273) rotate(90)" fill="#f5f5f5"/>
            <rect id="長方形_2885" data-name="長方形 2885" width="3.912" height="9.78" transform="translate(-36.945 37.141) rotate(90)" fill="#f5f5f5"/>
            <rect id="長方形_2886" data-name="長方形 2886" width="3.912" height="9.78" transform="translate(-34.769 31.273)" fill="#f5f5f5"/>
            <rect id="長方形_2887" data-name="長方形 2887" width="3.912" height="9.78" transform="translate(-28.901 31.273)" fill="#f5f5f5"/>
            <rect id="長方形_2888" data-name="長方形 2888" width="3.912" height="9.78" transform="translate(-13.008 31.273) rotate(90)" fill="#f5f5f5"/>
            <rect id="長方形_2889" data-name="長方形 2889" width="3.912" height="9.78" transform="translate(-13.008 37.141) rotate(90)" fill="#f5f5f5"/>
            <rect id="長方形_2890" data-name="長方形 2890" width="3.912" height="9.78" transform="translate(96.703 42.74)" fill="#f5f5f5"/>
            <rect id="長方形_2891" data-name="長方形 2891" width="3.912" height="9.78" transform="translate(102.571 42.74)" fill="#f5f5f5"/>
            <rect id="長方形_2892" data-name="長方形 2892" width="3.912" height="9.78" transform="translate(118.464 42.74) rotate(90)" fill="#f5f5f5"/>
            <rect id="長方形_2893" data-name="長方形 2893" width="3.912" height="9.78" transform="translate(118.464 48.608) rotate(90)" fill="#f5f5f5"/>
            <rect id="長方形_2894" data-name="長方形 2894" width="3.912" height="9.78" transform="translate(120.645 42.74)" fill="#f5f5f5"/>
            <rect id="長方形_2895" data-name="長方形 2895" width="3.912" height="9.78" transform="translate(126.514 42.74)" fill="#f5f5f5"/>
            <rect id="長方形_2896" data-name="長方形 2896" width="3.912" height="9.78" transform="translate(142.402 42.74) rotate(90)" fill="#f5f5f5"/>
            <rect id="長方形_2897" data-name="長方形 2897" width="3.912" height="9.78" transform="translate(142.402 48.608) rotate(90)" fill="#f5f5f5"/>
            <rect id="長方形_2898" data-name="長方形 2898" width="3.912" height="9.78" transform="translate(48.921 42.74)" fill="#f5f5f5"/>
            <rect id="長方形_2899" data-name="長方形 2899" width="3.912" height="9.78" transform="translate(54.789 42.74)" fill="#f5f5f5"/>
            <rect id="長方形_2900" data-name="長方形 2900" width="3.912" height="9.78" transform="translate(70.683 42.735) rotate(90)" fill="#f5f5f5"/>
            <rect id="長方形_2901" data-name="長方形 2901" width="3.912" height="9.78" transform="translate(70.683 48.603) rotate(90)" fill="#f5f5f5"/>
            <rect id="長方形_2902" data-name="長方形 2902" width="3.912" height="9.78" transform="translate(72.859 42.74)" fill="#f5f5f5"/>
            <rect id="長方形_2903" data-name="長方形 2903" width="3.912" height="9.78" transform="translate(78.727 42.74)" fill="#f5f5f5"/>
            <rect id="長方形_2904" data-name="長方形 2904" width="3.912" height="9.78" transform="translate(94.62 42.74) rotate(90)" fill="#f5f5f5"/>
            <rect id="長方形_2905" data-name="長方形 2905" width="3.912" height="9.78" transform="translate(94.62 48.608) rotate(90)" fill="#f5f5f5"/>
            <rect id="長方形_2906" data-name="長方形 2906" width="3.912" height="9.78" transform="translate(0.929 42.74)" fill="#f5f5f5"/>
            <rect id="長方形_2907" data-name="長方形 2907" width="3.912" height="9.78" transform="translate(6.797 42.74)" fill="#f5f5f5"/>
            <rect id="長方形_2908" data-name="長方形 2908" width="3.912" height="9.78" transform="translate(22.685 42.74) rotate(90)" fill="#f5f5f5"/>
            <rect id="長方形_2909" data-name="長方形 2909" width="3.912" height="9.78" transform="translate(22.685 48.608) rotate(90)" fill="#f5f5f5"/>
            <rect id="長方形_2910" data-name="長方形 2910" width="3.912" height="9.78" transform="translate(24.867 42.74)" fill="#f5f5f5"/>
            <rect id="長方形_2911" data-name="長方形 2911" width="3.912" height="9.78" transform="translate(30.735 42.74)" fill="#f5f5f5"/>
            <rect id="長方形_2912" data-name="長方形 2912" width="3.912" height="9.78" transform="translate(46.628 42.735) rotate(90)" fill="#f5f5f5"/>
            <rect id="長方形_2913" data-name="長方形 2913" width="3.912" height="9.78" transform="translate(46.628 48.603) rotate(90)" fill="#f5f5f5"/>
            <rect id="長方形_2914" data-name="長方形 2914" width="3.912" height="9.78" transform="translate(-46.858 42.74)" fill="#f5f5f5"/>
            <rect id="長方形_2915" data-name="長方形 2915" width="3.912" height="9.78" transform="translate(-40.989 42.74)" fill="#f5f5f5"/>
            <rect id="長方形_2916" data-name="長方形 2916" width="3.912" height="9.78" transform="translate(-25.096 42.74) rotate(90)" fill="#f5f5f5"/>
            <rect id="長方形_2917" data-name="長方形 2917" width="3.912" height="9.78" transform="translate(-25.096 48.608) rotate(90)" fill="#f5f5f5"/>
            <rect id="長方形_2918" data-name="長方形 2918" width="3.912" height="9.78" transform="translate(-22.92 42.74)" fill="#f5f5f5"/>
            <rect id="長方形_2919" data-name="長方形 2919" width="3.912" height="9.78" transform="translate(-17.052 42.74)" fill="#f5f5f5"/>
            <rect id="長方形_2920" data-name="長方形 2920" width="3.912" height="9.78" transform="translate(-1.159 42.74) rotate(90)" fill="#f5f5f5"/>
            <rect id="長方形_2921" data-name="長方形 2921" width="3.912" height="9.78" transform="translate(-1.159 48.608) rotate(90)" fill="#f5f5f5"/>
            <rect id="長方形_2922" data-name="長方形 2922" width="3.912" height="9.78" transform="translate(84.478 53.987)" fill="#f5f5f5"/>
            <rect id="長方形_2923" data-name="長方形 2923" width="3.912" height="9.78" transform="translate(90.346 53.987)" fill="#f5f5f5"/>
            <rect id="長方形_2924" data-name="長方形 2924" width="3.912" height="9.78" transform="translate(106.239 53.987) rotate(90)" fill="#f5f5f5"/>
            <rect id="長方形_2925" data-name="長方形 2925" width="3.912" height="9.78" transform="translate(106.239 59.856) rotate(90)" fill="#f5f5f5"/>
            <rect id="長方形_2926" data-name="長方形 2926" width="3.912" height="9.78" transform="translate(108.42 53.987)" fill="#f5f5f5"/>
            <rect id="長方形_2927" data-name="長方形 2927" width="3.912" height="9.78" transform="translate(114.288 53.987)" fill="#f5f5f5"/>
            <rect id="長方形_2928" data-name="長方形 2928" width="3.912" height="9.78" transform="translate(130.176 53.987) rotate(90)" fill="#f5f5f5"/>
            <rect id="長方形_2929" data-name="長方形 2929" width="3.912" height="9.78" transform="translate(130.176 59.856) rotate(90)" fill="#f5f5f5"/>
            <rect id="長方形_2930" data-name="長方形 2930" width="3.912" height="9.78" transform="translate(36.696 53.987)" fill="#f5f5f5"/>
            <rect id="長方形_2931" data-name="長方形 2931" width="3.912" height="9.78" transform="translate(42.564 53.987)" fill="#f5f5f5"/>
            <rect id="長方形_2932" data-name="長方形 2932" width="3.912" height="9.78" transform="translate(58.457 53.983) rotate(90)" fill="#f5f5f5"/>
            <rect id="長方形_2933" data-name="長方形 2933" width="3.912" height="9.78" transform="translate(58.457 59.851) rotate(90)" fill="#f5f5f5"/>
            <rect id="長方形_2934" data-name="長方形 2934" width="3.912" height="9.78" transform="translate(60.633 53.987)" fill="#f5f5f5"/>
            <rect id="長方形_2935" data-name="長方形 2935" width="3.912" height="9.78" transform="translate(66.501 53.987)" fill="#f5f5f5"/>
            <rect id="長方形_2936" data-name="長方形 2936" width="3.912" height="9.78" transform="translate(82.394 53.987) rotate(90)" fill="#f5f5f5"/>
            <rect id="長方形_2937" data-name="長方形 2937" width="3.912" height="9.78" transform="translate(82.394 59.856) rotate(90)" fill="#f5f5f5"/>
            <rect id="長方形_2938" data-name="長方形 2938" width="3.912" height="9.78" transform="translate(-11.296 53.987)" fill="#f5f5f5"/>
            <rect id="長方形_2939" data-name="長方形 2939" width="3.912" height="9.78" transform="translate(-5.428 53.987)" fill="#f5f5f5"/>
            <rect id="長方形_2940" data-name="長方形 2940" width="3.912" height="9.78" transform="translate(10.46 53.987) rotate(90)" fill="#f5f5f5"/>
            <rect id="長方形_2941" data-name="長方形 2941" width="3.912" height="9.78" transform="translate(10.46 59.856) rotate(90)" fill="#f5f5f5"/>
            <rect id="長方形_2942" data-name="長方形 2942" width="3.912" height="9.78" transform="translate(12.641 53.987)" fill="#f5f5f5"/>
            <rect id="長方形_2943" data-name="長方形 2943" width="3.912" height="9.78" transform="translate(18.509 53.987)" fill="#f5f5f5"/>
            <rect id="長方形_2944" data-name="長方形 2944" width="3.912" height="9.78" transform="translate(34.402 53.983) rotate(90)" fill="#f5f5f5"/>
            <rect id="長方形_2945" data-name="長方形 2945" width="3.912" height="9.78" transform="translate(34.402 59.851) rotate(90)" fill="#f5f5f5"/>
            <rect id="長方形_2946" data-name="長方形 2946" width="3.912" height="9.78" transform="translate(-59.083 53.987)" fill="#f5f5f5"/>
            <rect id="長方形_2947" data-name="長方形 2947" width="3.912" height="9.78" transform="translate(-53.215 53.987)" fill="#f5f5f5"/>
            <rect id="長方形_2948" data-name="長方形 2948" width="3.912" height="9.78" transform="translate(-37.322 53.987) rotate(90)" fill="#f5f5f5"/>
            <rect id="長方形_2949" data-name="長方形 2949" width="3.912" height="9.78" transform="translate(-37.322 59.856) rotate(90)" fill="#f5f5f5"/>
            <rect id="長方形_2950" data-name="長方形 2950" width="3.912" height="9.78" transform="translate(-35.146 53.987)" fill="#f5f5f5"/>
            <rect id="長方形_2951" data-name="長方形 2951" width="3.912" height="9.78" transform="translate(-29.277 53.987)" fill="#f5f5f5"/>
            <rect id="長方形_2952" data-name="長方形 2952" width="3.912" height="9.78" transform="translate(-13.384 53.987) rotate(90)" fill="#f5f5f5"/>
            <rect id="長方形_2953" data-name="長方形 2953" width="3.912" height="9.78" transform="translate(-13.384 59.856) rotate(90)" fill="#f5f5f5"/>
            <rect id="長方形_2954" data-name="長方形 2954" width="3.912" height="9.78" transform="translate(96.322 65.22)" fill="#f5f5f5"/>
            <rect id="長方形_2955" data-name="長方形 2955" width="3.912" height="9.78" transform="translate(102.19 65.22)" fill="#f5f5f5"/>
            <rect id="長方形_2956" data-name="長方形 2956" width="3.912" height="9.78" transform="translate(118.078 65.22) rotate(90)" fill="#f5f5f5"/>
            <rect id="長方形_2957" data-name="長方形 2957" width="3.912" height="9.78" transform="translate(118.078 71.088) rotate(90)" fill="#f5f5f5"/>
            <rect id="長方形_2958" data-name="長方形 2958" width="3.912" height="9.78" transform="translate(120.259 65.22)" fill="#f5f5f5"/>
            <rect id="長方形_2959" data-name="長方形 2959" width="3.912" height="9.78" transform="translate(126.127 65.22)" fill="#f5f5f5"/>
            <rect id="長方形_2960" data-name="長方形 2960" width="3.912" height="9.78" transform="translate(142.02 65.22) rotate(90)" fill="#f5f5f5"/>
            <rect id="長方形_2961" data-name="長方形 2961" width="3.912" height="9.78" transform="translate(142.02 71.088) rotate(90)" fill="#f5f5f5"/>
            <rect id="長方形_2962" data-name="長方形 2962" width="3.912" height="9.78" transform="translate(48.535 65.22)" fill="#f5f5f5"/>
            <rect id="長方形_2963" data-name="長方形 2963" width="3.912" height="9.78" transform="translate(54.403 65.22)" fill="#f5f5f5"/>
            <rect id="長方形_2964" data-name="長方形 2964" width="3.912" height="9.78" transform="translate(70.296 65.225) rotate(90)" fill="#f5f5f5"/>
            <rect id="長方形_2965" data-name="長方形 2965" width="3.912" height="9.78" transform="translate(70.296 71.093) rotate(90)" fill="#f5f5f5"/>
            <rect id="長方形_2966" data-name="長方形 2966" width="3.912" height="9.78" transform="translate(72.472 65.22)" fill="#f5f5f5"/>
            <rect id="長方形_2967" data-name="長方形 2967" width="3.912" height="9.78" transform="translate(78.341 65.22)" fill="#f5f5f5"/>
            <rect id="長方形_2968" data-name="長方形 2968" width="3.912" height="9.78" transform="translate(94.234 65.225) rotate(90)" fill="#f5f5f5"/>
            <rect id="長方形_2969" data-name="長方形 2969" width="3.912" height="9.78" transform="translate(94.234 71.093) rotate(90)" fill="#f5f5f5"/>
            <rect id="長方形_2970" data-name="長方形 2970" width="3.912" height="9.78" transform="translate(0.543 65.22)" fill="#f5f5f5"/>
            <rect id="長方形_2971" data-name="長方形 2971" width="3.912" height="9.78" transform="translate(6.411 65.22)" fill="#f5f5f5"/>
            <rect id="長方形_2972" data-name="長方形 2972" width="3.912" height="9.78" transform="translate(22.304 65.22) rotate(90)" fill="#f5f5f5"/>
            <rect id="長方形_2973" data-name="長方形 2973" width="3.912" height="9.78" transform="translate(22.304 71.088) rotate(90)" fill="#f5f5f5"/>
            <rect id="長方形_2974" data-name="長方形 2974" width="3.912" height="9.78" transform="translate(24.48 65.22)" fill="#f5f5f5"/>
            <rect id="長方形_2975" data-name="長方形 2975" width="3.912" height="9.78" transform="translate(30.348 65.22)" fill="#f5f5f5"/>
            <rect id="長方形_2976" data-name="長方形 2976" width="3.912" height="9.78" transform="translate(46.241 65.225) rotate(90)" fill="#f5f5f5"/>
            <rect id="長方形_2977" data-name="長方形 2977" width="3.912" height="9.78" transform="translate(46.241 71.093) rotate(90)" fill="#f5f5f5"/>
            <rect id="長方形_2978" data-name="長方形 2978" width="3.912" height="9.78" transform="translate(-47.244 65.22)" fill="#f5f5f5"/>
            <rect id="長方形_2979" data-name="長方形 2979" width="3.912" height="9.78" transform="translate(-41.376 65.22)" fill="#f5f5f5"/>
            <rect id="長方形_2980" data-name="長方形 2980" width="3.912" height="9.78" transform="translate(-25.483 65.225) rotate(90)" fill="#f5f5f5"/>
            <rect id="長方形_2981" data-name="長方形 2981" width="3.912" height="9.78" transform="translate(-25.483 71.093) rotate(90)" fill="#f5f5f5"/>
            <rect id="長方形_2982" data-name="長方形 2982" width="3.912" height="9.78" transform="translate(-23.307 65.22)" fill="#f5f5f5"/>
            <rect id="長方形_2983" data-name="長方形 2983" width="3.912" height="9.78" transform="translate(-17.438 65.22)" fill="#f5f5f5"/>
            <rect id="長方形_2984" data-name="長方形 2984" width="3.912" height="9.78" transform="translate(-1.545 65.22) rotate(90)" fill="#f5f5f5"/>
            <rect id="長方形_2985" data-name="長方形 2985" width="3.912" height="9.78" transform="translate(-1.545 71.088) rotate(90)" fill="#f5f5f5"/>
            <rect id="長方形_2986" data-name="長方形 2986" width="3.912" height="9.78" transform="translate(84.585 76.468)" fill="#f5f5f5"/>
            <rect id="長方形_2987" data-name="長方形 2987" width="3.912" height="9.78" transform="translate(90.453 76.468)" fill="#f5f5f5"/>
            <rect id="長方形_2988" data-name="長方形 2988" width="3.912" height="9.78" transform="translate(106.342 76.468) rotate(90)" fill="#f5f5f5"/>
            <rect id="長方形_2989" data-name="長方形 2989" width="3.912" height="9.78" transform="translate(106.342 82.336) rotate(90)" fill="#f5f5f5"/>
            <rect id="長方形_2990" data-name="長方形 2990" width="3.912" height="9.78" transform="translate(108.523 76.468)" fill="#f5f5f5"/>
            <rect id="長方形_2991" data-name="長方形 2991" width="3.912" height="9.78" transform="translate(114.391 76.468)" fill="#f5f5f5"/>
            <rect id="長方形_2992" data-name="長方形 2992" width="3.912" height="9.78" transform="translate(130.284 76.468) rotate(90)" fill="#f5f5f5"/>
            <rect id="長方形_2993" data-name="長方形 2993" width="3.912" height="9.78" transform="translate(130.284 82.336) rotate(90)" fill="#f5f5f5"/>
            <rect id="長方形_2994" data-name="長方形 2994" width="3.912" height="9.78" transform="translate(36.799 76.468)" fill="#f5f5f5"/>
            <rect id="長方形_2995" data-name="長方形 2995" width="3.912" height="9.78" transform="translate(42.667 76.468)" fill="#f5f5f5"/>
            <rect id="長方形_2996" data-name="長方形 2996" width="3.912" height="9.78" transform="translate(58.56 76.472) rotate(90)" fill="#f5f5f5"/>
            <rect id="長方形_2997" data-name="長方形 2997" width="3.912" height="9.78" transform="translate(58.56 82.341) rotate(90)" fill="#f5f5f5"/>
            <rect id="長方形_2998" data-name="長方形 2998" width="3.912" height="9.78" transform="translate(60.736 76.468)" fill="#f5f5f5"/>
            <rect id="長方形_2999" data-name="長方形 2999" width="3.912" height="9.78" transform="translate(66.604 76.468)" fill="#f5f5f5"/>
            <rect id="長方形_3000" data-name="長方形 3000" width="3.912" height="9.78" transform="translate(82.497 76.472) rotate(90)" fill="#f5f5f5"/>
            <rect id="長方形_3001" data-name="長方形 3001" width="3.912" height="9.78" transform="translate(82.497 82.341) rotate(90)" fill="#f5f5f5"/>
            <rect id="長方形_3002" data-name="長方形 3002" width="3.912" height="9.78" transform="translate(-11.194 76.468)" fill="#f5f5f5"/>
            <rect id="長方形_3003" data-name="長方形 3003" width="3.912" height="9.78" transform="translate(-5.325 76.468)" fill="#f5f5f5"/>
            <rect id="長方形_3004" data-name="長方形 3004" width="3.912" height="9.78" transform="translate(10.568 76.468) rotate(90)" fill="#f5f5f5"/>
            <rect id="長方形_3005" data-name="長方形 3005" width="3.912" height="9.78" transform="translate(10.568 82.336) rotate(90)" fill="#f5f5f5"/>
            <rect id="長方形_3006" data-name="長方形 3006" width="3.912" height="9.78" transform="translate(12.744 76.468)" fill="#f5f5f5"/>
            <rect id="長方形_3007" data-name="長方形 3007" width="3.912" height="9.78" transform="translate(18.612 76.468)" fill="#f5f5f5"/>
            <rect id="長方形_3008" data-name="長方形 3008" width="3.912" height="9.78" transform="translate(34.505 76.472) rotate(90)" fill="#f5f5f5"/>
            <rect id="長方形_3009" data-name="長方形 3009" width="3.912" height="9.78" transform="translate(34.505 82.341) rotate(90)" fill="#f5f5f5"/>
            <rect id="長方形_3010" data-name="長方形 3010" width="3.912" height="9.78" transform="translate(-58.98 76.468)" fill="#f5f5f5"/>
            <rect id="長方形_3011" data-name="長方形 3011" width="3.912" height="9.78" transform="translate(-53.112 76.468)" fill="#f5f5f5"/>
            <rect id="長方形_3012" data-name="長方形 3012" width="3.912" height="9.78" transform="translate(-37.219 76.472) rotate(90)" fill="#f5f5f5"/>
            <rect id="長方形_3013" data-name="長方形 3013" width="3.912" height="9.78" transform="translate(-37.219 82.341) rotate(90)" fill="#f5f5f5"/>
            <rect id="長方形_3014" data-name="長方形 3014" width="3.912" height="9.78" transform="translate(-35.043 76.468)" fill="#f5f5f5"/>
            <rect id="長方形_3015" data-name="長方形 3015" width="3.912" height="9.78" transform="translate(-29.175 76.468)" fill="#f5f5f5"/>
            <rect id="長方形_3016" data-name="長方形 3016" width="3.912" height="9.78" transform="translate(-13.282 76.468) rotate(90)" fill="#f5f5f5"/>
            <rect id="長方形_3017" data-name="長方形 3017" width="3.912" height="9.78" transform="translate(-13.282 82.336) rotate(90)" fill="#f5f5f5"/>
            <rect id="長方形_3018" data-name="長方形 3018" width="3.912" height="9.78" transform="translate(96.322 88.204)" fill="#f5f5f5"/>
            <rect id="長方形_3019" data-name="長方形 3019" width="3.912" height="9.78" transform="translate(102.19 88.204)" fill="#f5f5f5"/>
            <rect id="長方形_3020" data-name="長方形 3020" width="3.912" height="9.78" transform="translate(118.078 88.204) rotate(90)" fill="#f5f5f5"/>
            <rect id="長方形_3021" data-name="長方形 3021" width="3.912" height="9.78" transform="translate(118.078 94.072) rotate(90)" fill="#f5f5f5"/>
            <rect id="長方形_3022" data-name="長方形 3022" width="3.912" height="9.78" transform="translate(120.259 88.204)" fill="#f5f5f5"/>
            <rect id="長方形_3023" data-name="長方形 3023" width="3.912" height="9.78" transform="translate(126.127 88.204)" fill="#f5f5f5"/>
            <rect id="長方形_3024" data-name="長方形 3024" width="3.912" height="9.78" transform="translate(142.02 88.204) rotate(90)" fill="#f5f5f5"/>
            <rect id="長方形_3025" data-name="長方形 3025" width="3.912" height="9.78" transform="translate(142.02 94.072) rotate(90)" fill="#f5f5f5"/>
            <rect id="長方形_3026" data-name="長方形 3026" width="3.912" height="9.78" transform="translate(48.535 88.204)" fill="#f5f5f5"/>
            <rect id="長方形_3027" data-name="長方形 3027" width="3.912" height="9.78" transform="translate(54.403 88.204)" fill="#f5f5f5"/>
            <rect id="長方形_3028" data-name="長方形 3028" width="3.912" height="9.78" transform="translate(70.296 88.209) rotate(90)" fill="#f5f5f5"/>
            <rect id="長方形_3029" data-name="長方形 3029" width="3.912" height="9.78" transform="translate(70.296 94.077) rotate(90)" fill="#f5f5f5"/>
            <rect id="長方形_3030" data-name="長方形 3030" width="3.912" height="9.78" transform="translate(72.472 88.204)" fill="#f5f5f5"/>
            <rect id="長方形_3031" data-name="長方形 3031" width="3.912" height="9.78" transform="translate(78.341 88.204)" fill="#f5f5f5"/>
            <rect id="長方形_3032" data-name="長方形 3032" width="3.912" height="9.78" transform="translate(94.234 88.209) rotate(90)" fill="#f5f5f5"/>
            <rect id="長方形_3033" data-name="長方形 3033" width="3.912" height="9.78" transform="translate(94.234 94.077) rotate(90)" fill="#f5f5f5"/>
            <rect id="長方形_3034" data-name="長方形 3034" width="3.912" height="9.78" transform="translate(0.543 88.204)" fill="#f5f5f5"/>
            <rect id="長方形_3035" data-name="長方形 3035" width="3.912" height="9.78" transform="translate(6.411 88.204)" fill="#f5f5f5"/>
            <rect id="長方形_3036" data-name="長方形 3036" width="3.912" height="9.78" transform="translate(22.304 88.204) rotate(90)" fill="#f5f5f5"/>
            <rect id="長方形_3037" data-name="長方形 3037" width="3.912" height="9.78" transform="translate(22.304 94.072) rotate(90)" fill="#f5f5f5"/>
            <rect id="長方形_3038" data-name="長方形 3038" width="3.912" height="9.78" transform="translate(24.48 88.204)" fill="#f5f5f5"/>
            <rect id="長方形_3039" data-name="長方形 3039" width="3.912" height="9.78" transform="translate(30.348 88.204)" fill="#f5f5f5"/>
            <rect id="長方形_3040" data-name="長方形 3040" width="3.912" height="9.78" transform="translate(46.241 88.209) rotate(90)" fill="#f5f5f5"/>
            <rect id="長方形_3041" data-name="長方形 3041" width="3.912" height="9.78" transform="translate(46.241 94.077) rotate(90)" fill="#f5f5f5"/>
            <rect id="長方形_3042" data-name="長方形 3042" width="3.912" height="9.78" transform="translate(-47.244 88.204)" fill="#f5f5f5"/>
            <rect id="長方形_3043" data-name="長方形 3043" width="3.912" height="9.78" transform="translate(-41.376 88.204)" fill="#f5f5f5"/>
            <rect id="長方形_3044" data-name="長方形 3044" width="3.912" height="9.78" transform="translate(-25.483 88.209) rotate(90)" fill="#f5f5f5"/>
            <rect id="長方形_3045" data-name="長方形 3045" width="3.912" height="9.78" transform="translate(-25.483 94.077) rotate(90)" fill="#f5f5f5"/>
            <rect id="長方形_3046" data-name="長方形 3046" width="3.912" height="9.78" transform="translate(-23.307 88.204)" fill="#f5f5f5"/>
            <rect id="長方形_3047" data-name="長方形 3047" width="3.912" height="9.78" transform="translate(-17.438 88.204)" fill="#f5f5f5"/>
            <rect id="長方形_3048" data-name="長方形 3048" width="3.912" height="9.78" transform="translate(-1.545 88.204) rotate(90)" fill="#f5f5f5"/>
            <rect id="長方形_3049" data-name="長方形 3049" width="3.912" height="9.78" transform="translate(-1.545 94.072) rotate(90)" fill="#f5f5f5"/>
          </g>
        </g>
      </g>
      <rect id="長方形_21" data-name="長方形 21" width="299" height="119.862" transform="translate(535.339 6155.615)" fill="#333"/>
      <rect id="長方形_2751" data-name="長方形 2751" width="300" height="119.862" transform="translate(835.339 6155.615)" fill="#333"/>
      <path id="パス_9609" data-name="パス 9609" d="M16.842-32.13H10.878L1.05,0h5L8.82-9.45h9.828L21.546,0H26.67ZM9.576-13.188l2.562-8.442c.546-1.974,1.05-4.326,1.512-6.3h.084c.462,1.974,1.008,4.242,1.6,6.342l2.52,8.4Zm39.48-14.7-.63.168H44.94v-6.888c.672-.126.924-.378.966-.714l-4.914-.294v7.9H34.4v3.654H46.242A35.842,35.842,0,0,1,33.222-10.08a16.379,16.379,0,0,1,2.016,3.7,38.375,38.375,0,0,0,5.754-4.662V3.738H44.94V-12.6c1.848,1.6,3.948,3.528,5.04,4.662l2.352-3.276c-1.05-.8-4.788-3.57-6.846-4.956a42.145,42.145,0,0,0,5.586-9.66,1.076,1.076,0,0,0,.588-.546Zm14.952,9.7h8.61v-3.906h-8.61v-12.18c.672-.084.966-.336,1.008-.672l-5.082-.336v13.188H51.282v3.906h8.652V-1.428H49.56V2.52H73.584V-1.428H64.008Z" transform="translate(643.839 6233.047)" fill="#fff"/>
      <path id="パス_9610" data-name="パス 9610" d="M17.052-17.346c3.36-1.26,5.292-3.948,5.292-7.014,0-3.234-1.68-8.022-11.466-8.022a40.088,40.088,0,0,0-7.518.672V-.084A52.033,52.033,0,0,0,9.744.294c5.292,0,8.82-.966,10.962-3.024A8.428,8.428,0,0,0,23.478-9.2a8.08,8.08,0,0,0-6.426-8.022ZM8.19-18.732v-9.7a15.3,15.3,0,0,1,3.15-.252c3.024,0,6.132.966,6.132,4.83,0,2.982-2.436,5.124-6.3,5.124Zm0,3.612H11c3.738,0,7.392,1.554,7.392,5.8s-3.36,5.88-7.266,5.88a18.1,18.1,0,0,1-2.94-.168ZM46.578-27.888l-.63.168H42.462v-6.888c.672-.126.924-.378.966-.714l-4.914-.294v7.9H31.92v3.654H43.764A35.842,35.842,0,0,1,30.744-10.08a16.379,16.379,0,0,1,2.016,3.7,38.375,38.375,0,0,0,5.754-4.662V3.738h3.948V-12.6C44.31-11,46.41-9.072,47.5-7.938l2.352-3.276c-1.05-.8-4.788-3.57-6.846-4.956a42.145,42.145,0,0,0,5.586-9.66,1.076,1.076,0,0,0,.588-.546Zm14.952,9.7h8.61v-3.906H61.53v-12.18c.672-.084.966-.336,1.008-.672l-5.082-.336v13.188H48.8v3.906h8.652V-1.428H47.082V2.52H71.106V-1.428H61.53Z" transform="translate(944.839 6233.047)" fill="#fff"/>
      <line id="線_437" data-name="線 437" x2="924.43" transform="translate(535.07 6348.14)" fill="none" stroke="#707070" stroke-width="1"/>
      <line id="線_437-2" data-name="線 437" x2="924.43" transform="translate(535.07 6426.271)" fill="none" stroke="#707070" stroke-width="1"/>
      <line id="線_437-3" data-name="線 437" x2="924.43" transform="translate(535.07 6504.401)" fill="none" stroke="#707070" stroke-width="1"/>
      <line id="線_437-4" data-name="線 437" x2="924.43" transform="translate(535.07 6582.532)" fill="none" stroke="#707070" stroke-width="1"/>
      <line id="線_437-5" data-name="線 437" x2="924.43" transform="translate(535.07 6657.547)" fill="none" stroke="#707070" stroke-width="1"/>
      <path id="Icon_metro-cross-6" data-name="Icon metro-cross" d="M56.246,45.342h0L40.337,29.433,56.246,13.525h0a1.643,1.643,0,0,0,0-2.317L48.731,3.692a1.643,1.643,0,0,0-2.317,0h0L30.5,19.6,14.6,3.692h0a1.643,1.643,0,0,0-2.317,0L4.763,11.207a1.643,1.643,0,0,0,0,2.317h0L20.672,29.433,4.763,45.342h0a1.642,1.642,0,0,0,0,2.317l7.515,7.515a1.643,1.643,0,0,0,2.317,0h0L30.5,39.266,46.413,55.175h0a1.642,1.642,0,0,0,2.317,0l7.515-7.515a1.642,1.642,0,0,0,0-2.317Z" transform="translate(953.495 6359.541)" fill="#ddd"/>
      <path id="Icon_metro-cross-7" data-name="Icon metro-cross" d="M56.246,45.342h0L40.337,29.433,56.246,13.525h0a1.643,1.643,0,0,0,0-2.317L48.731,3.692a1.643,1.643,0,0,0-2.317,0h0L30.5,19.6,14.6,3.692h0a1.643,1.643,0,0,0-2.317,0L4.763,11.207a1.643,1.643,0,0,0,0,2.317h0L20.672,29.433,4.763,45.342h0a1.642,1.642,0,0,0,0,2.317l7.515,7.515a1.643,1.643,0,0,0,2.317,0h0L30.5,39.266,46.413,55.175h0a1.642,1.642,0,0,0,2.317,0l7.515-7.515a1.642,1.642,0,0,0,0-2.317Z" transform="translate(954.834 6437.672)" fill="#ddd"/>
      <g id="グループ_2289" data-name="グループ 2289" transform="translate(659.44 6287.67)">
        <path id="Icon_feather-circle-8" data-name="Icon feather-circle" d="M53,29A24,24,0,1,1,29,5,24,24,0,0,1,53,29Z" transform="translate(-5 -5)" fill="none" stroke="#284192" stroke-linecap="round" stroke-linejoin="round" stroke-width="5"/>
      </g>
    </g>
    <rect id="長方形_2788-2" data-name="長方形 2788" width="198.854" height="73" transform="translate(352.146 6332)" fill="#333"/>
    <rect id="長方形_2789-2" data-name="長方形 2789" width="198.854" height="76" transform="translate(352.146 6406)" fill="#333"/>
    <rect id="長方形_2790-2" data-name="長方形 2790" width="198.854" height="77" transform="translate(352.146 6483)" fill="#333"/>
    <rect id="長方形_2791-2" data-name="長方形 2791" width="198.854" height="77" transform="translate(352.146 6561)" fill="#333"/>
    <rect id="長方形_2792-2" data-name="長方形 2792" width="198.854" height="75" transform="translate(352.146 6639)" fill="#333"/>
    <rect id="長方形_2793-2" data-name="長方形 2793" width="198.854" height="75" transform="translate(352.146 6715)" fill="#333"/>
    <path id="パス_9612" data-name="パス 9612" d="M20.568-6.408v-3H13.056v-1.3h7.128v-4.848H13.056v-1.176h9.528v-1.848H13.056V-19.8c.408-.072.552-.216.576-.432l-2.88-.144v1.8H1.464v1.848h9.288v1.176H3.96V-10.7h6.792v1.3H3.312V-7.8h7.44v1.392H.96v1.8h9.792V-3.1H3.1v1.7h7.656V-.24c0,.6-.192.6-1.824.6-.6,0-1.3,0-1.968-.024a6.553,6.553,0,0,1,.768,1.848c4.2,0,5.328-.144,5.328-2.424V-1.392h5.208V-.336h2.3V-4.608h2.544v-1.8ZM6.144-14.04h4.608v1.824H6.144ZM17.88-12.216H13.056V-14.04H17.88ZM18.264-7.8v1.392H13.056V-7.8ZM13.056-3.1V-4.608h5.208V-3.1Zm16.32-9.36V2.136h2.16V-2.976H35.88v2.76c0,.408,0,.408-1.584.408-.384,0-.84,0-1.3-.024a6.777,6.777,0,0,1,.744,1.968c3.216,0,4.344-.192,4.344-2.328V-12.456Zm6.5,3.936H31.536v-1.992H35.88ZM31.536-6.792H35.88V-4.7H31.536Zm12.432-13.68a22.557,22.557,0,0,1-2.616,3.456l1.224.528H34.992l1.3-.576a17.745,17.745,0,0,0-2.88-3.312l-2.064.912a16.255,16.255,0,0,1,2.472,2.976h-6v2.064H49.608v-2.064H43.68a26.543,26.543,0,0,0,2.4-2.688c.312,0,.528-.072.624-.24ZM47.9-12.384c.384-.072.528-.216.552-.408l-2.808-.144v12.5c0,.456,0,.48-1.68.48-.528,0-1.2-.024-1.9-.048a8.828,8.828,0,0,1,.816,2.16c4.1.048,5.016-.384,5.016-2.568Zm-7.56.168V-2.28h2.184v-9.384c.384-.072.528-.192.552-.408ZM65.208-2.352h-7.08V-18.36H55.344V0h9.864ZM70.392,0h2.76V-7.2a7.775,7.775,0,0,0,1.56.12c3.312,0,6.864-1.536,6.864-6a5.1,5.1,0,0,0-1.656-3.96A7.462,7.462,0,0,0,74.856-18.5a25.823,25.823,0,0,0-4.464.36Zm2.76-16.152a9.714,9.714,0,0,1,1.872-.168c2.232,0,3.768,1.128,3.768,3.36,0,2.352-1.536,3.672-4.08,3.672a5.738,5.738,0,0,1-1.56-.144Zm25.32,1.3V-16.92h-4.56V-19.8c.36-.072.528-.192.552-.384l-2.736-.168v3.432H89.592c.144-.648.264-1.32.36-1.944.312,0,.48-.1.552-.264l-2.568-.648a27.265,27.265,0,0,1-1.656,6.7,12.248,12.248,0,0,1,1.512.72h-1.8v2.088h5.736v1.92H87.144V.24h2.04V-6.288h2.544v8.4h2.184v-8.4h2.616V-1.92c0,.312-.1.312-.984.312-.312,0-.7,0-1.1-.024a8.012,8.012,0,0,1,.576,1.92c2.736,0,3.576-.216,3.576-2.16v-6.48h-4.68v-1.92h5.4V-12.36h-5.4v-2.5Zm-6.744,0v2.5H88.2a18.729,18.729,0,0,0,.864-2.5ZM105.36-.624c0,.408-.168.528-.576.528h-1.152c-.552,0-1.2,0-1.9-.024a10.56,10.56,0,0,1,.7,2.256c4.032,0,5.112-.288,5.112-2.76v-18.72c.36-.048.5-.192.552-.408l-2.736-.12Zm-5.016-16.8V-3.888h2.136V-16.872c.36-.072.5-.192.528-.384ZM116.16,2.136h2.232V-13.656c.36-.024.528-.168.576-.36l-.816-.216a45.722,45.722,0,0,0,2.184-4.824.626.626,0,0,0,.624-.264l-2.64-.912A29.923,29.923,0,0,1,112.3-9.672a16.8,16.8,0,0,1,1.176,2.256,27.675,27.675,0,0,0,2.688-3.48Zm19.176-18.48H124.992c.384-.888.72-1.776,1.008-2.64.312.024.528-.072.6-.264l-2.76-.84a27.484,27.484,0,0,1-4.776,9.528,15.552,15.552,0,0,1,1.728,1.584,26.6,26.6,0,0,0,3.216-5.184h1.7V2.112h2.352V-3.576h6.984V-5.712h-6.984V-8.976h6.672v-2.088h-6.672v-3.1h7.272Z" transform="translate(384.5 6376.5)" fill="#fff"/>
    <path id="パス_9614" data-name="パス 9614" d="M18.984-18.36,17.016-9.7c-.48,2.232-.912,4.3-1.224,6.456H15.72c-.264-2.112-.7-4.224-1.152-6.384l-1.92-8.736H9.864L7.776-9.672C7.248-7.344,6.72-5.184,6.432-3.216H6.384c-.312-1.9-.72-4.152-1.176-6.408L3.384-18.36H.432L4.728,0H7.656L9.84-8.856a57.571,57.571,0,0,0,1.248-5.952h.072a52.83,52.83,0,0,0,1.056,5.952L14.208,0h2.9l4.7-18.36ZM31.656-2.5a8.25,8.25,0,0,1-3.336.624c-2.088,0-3.936-1.128-4.008-4.1h8.4a8.339,8.339,0,0,0,.072-1.176c0-3.264-1.488-6.36-5.208-6.36-3.744,0-5.952,3.144-5.952,7.08,0,4.032,2.3,6.7,6.288,6.7a10.339,10.339,0,0,0,4.2-.792Zm-7.32-5.472c.144-1.536,1.008-3.552,3.048-3.552,2.136,0,2.784,1.968,2.76,3.552Zm12.456-3.408v-7.872H34.008v15.72c0,1.2-.048,2.64-.1,3.528h2.376l.144-1.992H36.5A4.194,4.194,0,0,0,40.416.264c2.736,0,5.544-2.256,5.544-7.08,0-4.032-2.088-6.7-5.112-6.7a4.393,4.393,0,0,0-4.008,2.136Zm0,3.552A3.325,3.325,0,0,1,39.84-11.28c2.208,0,3.288,2.088,3.288,4.584,0,2.832-1.176,4.728-3.312,4.728a3.126,3.126,0,0,1-3.024-3.264ZM65.664-18.456l-.312.192H47.688v2.28h16.32A13.786,13.786,0,0,1,59.88-10.7a14.777,14.777,0,0,1,2.088,1.32,22.948,22.948,0,0,0,5.376-7.68.781.781,0,0,0,.408-.312ZM55.32-13.176c-.456,5.544-2.28,10.44-6.984,12.984a17.407,17.407,0,0,1,2.04,1.536c4.872-2.88,6.84-8.3,7.488-13.752.36-.048.576-.216.624-.456Zm34.488-.312H81.432c.072-1.68.1-3.528.1-5.568q.612-.072.648-.5l-3.168-.192c0,2.352,0,4.44-.072,6.264H69.7v2.3H78.84c-.456,5.232-1.92,8.352-6.792,11.04A15.064,15.064,0,0,1,74.04,1.488c5.232-3.024,6.792-6.792,7.248-12.672h8.52Zm16.536-5.688v8.184c0,4.2-1.368,8.232-7.848,10.68a14.027,14.027,0,0,1,1.8,1.776c6.816-2.712,8.52-7.392,8.52-12.456v-7.56c.408-.048.6-.216.624-.456ZM98.04-6.288V-17.376c.408-.048.624-.24.648-.456L95.616-18V-6.288ZM129.792-18.1l-.432.144h-12.6v2.28h11.28A32.818,32.818,0,0,1,114.528-.888,13.972,13.972,0,0,1,116.28.96a38.049,38.049,0,0,0,8.856-7.7A73.92,73.92,0,0,1,132.96.96l2.112-1.824a91.291,91.291,0,0,0-8.4-7.752A37.267,37.267,0,0,0,131.3-16.7a.714.714,0,0,0,.408-.336Zm25.656,9.264a84.128,84.128,0,0,0-8.808-3.888l-.48.672v-6.864c.456-.1.672-.288.7-.552l-3.216-.192v21h2.52V-10.272A71.25,71.25,0,0,1,154.1-6.5Z" transform="translate(373 6531.5)" fill="#fff"/>
    <path id="パス_9615" data-name="パス 9615" d="M22.968-14.088v-2.184H20.832L22.08-17.52a21.6,21.6,0,0,0-4.008-2.736l-1.416,1.344a22.322,22.322,0,0,1,3.744,2.64H15.336c-.048-1.152-.072-2.328-.072-3.48.408-.048.6-.192.6-.408l-2.9-.168c0,1.344.048,2.712.144,4.056H3V-9.48C3-6.336,2.808-2.208.672.7a8.9,8.9,0,0,1,1.8,1.464c2.3-3.048,2.736-7.848,2.76-11.328H9.456c-.1,3.792-.216,5.232-.5,5.592a.82.82,0,0,1-.744.288c-.408,0-1.344-.024-2.376-.12A5.118,5.118,0,0,1,6.456-1.3c.48.024.96.024,1.392.024,2.064,0,2.544-.264,3-.864.552-.7.7-2.808.792-8.376.024-.24.024-.528.024-.72l-1.176-.048-.5.024H5.232v-2.832h8.016A48.546,48.546,0,0,0,15.1-3.912,17.854,17.854,0,0,1,9.84.432a17.157,17.157,0,0,1,1.488,1.776,21.056,21.056,0,0,0,4.7-3.792C17.208.864,18.6,2.16,20.448,2.16c1.968,0,2.736-1.176,3.144-5.424A6.318,6.318,0,0,1,21.72-4.536C21.576-1.368,21.24-.1,20.568-.1c-1.08,0-2.088-1.32-2.928-3.456a28.237,28.237,0,0,0,3.96-7.776c.336,0,.552-.1.624-.288l-2.664-.792A24.916,24.916,0,0,1,16.776-6.24a49.086,49.086,0,0,1-1.3-7.848Zm23.064,6.5h-9.6V-9.336H43.8V-19.2H26.976v9.864h7.152v1.752H24.6V-5.5h7.8A22.384,22.384,0,0,1,23.9-.384,12.2,12.2,0,0,1,25.488,1.56,24.431,24.431,0,0,0,34.128-4.3V2.136h2.3V-4.512a25.728,25.728,0,0,0,8.712,6.1A9.774,9.774,0,0,1,46.752-.384,23.775,23.775,0,0,1,38.232-5.5h7.8Zm-11.9-9.7v2.088h-4.92V-17.28Zm2.3,2.088V-17.28H41.5v2.088Zm-7.224,1.8h4.92v2.112h-4.92Zm7.224,2.112v-2.112H41.5v2.112ZM57.576-16.2v-1.92h-3.5V-19.8c.384-.048.528-.192.552-.384l-2.664-.168v2.232H48.432v1.92H51.96v2.208H47.424v1.944H58.56v-1.944H54.072V-16.2Zm9.84,6H61.248v-7.056H66.72v3.624c0,.36-.1.384-1.152.384-.48,0-1.128-.024-1.776-.048a8.9,8.9,0,0,1,.624,1.968c3.48,0,4.416-.12,4.416-2.256v-5.688h-9.7V2.136h2.112V-8.256h5.28A17.76,17.76,0,0,1,65.16-4.032a15.8,15.8,0,0,1-1.776-3.816l-1.752.408a20.488,20.488,0,0,0,2.376,5.352A10.774,10.774,0,0,1,61.464.48a6.837,6.837,0,0,1,1.488,1.512,12.019,12.019,0,0,0,2.4-2.28A11.412,11.412,0,0,0,68.4,2.16,7.984,7.984,0,0,1,69.912.24a10.012,10.012,0,0,1-3.288-2.4,21.4,21.4,0,0,0,2.352-7.272.652.652,0,0,0,.192-.384l-1.344-.432ZM54.6-8.376H50.256l1.512-.48a11.8,11.8,0,0,0-1.1-3.1l-1.632.48a15.415,15.415,0,0,1,1.008,3.1H47.856v1.944h4.1v2.28H48.168v1.944H51.96V2.136h2.112V-2.208h3.744V-4.152H54.072v-2.28h4.08V-8.376H55.584c.5-.792,1.08-1.9,1.44-2.616.312,0,.48-.072.552-.24l-2.208-.72A22.911,22.911,0,0,1,54.1-8.592ZM80.64-17.52v-1.8H70.68v1.8H73.7v3.264H71.472v16.1h1.56V.336h5.28v1.08H79.92V-14.256h-2.3V-17.52ZM78.312-5.256h-5.28V-6.84a4.366,4.366,0,0,1,.912.7,9.323,9.323,0,0,0,1.2-4.968v-1.32h.984V-8.88c0,1.224.264,1.488,1.2,1.488H78.1a.664.664,0,0,0,.216-.024ZM76.128-17.52v3.264h-.984V-17.52ZM78.24-9.288c-.024.7-.1.768-.336.768h-.456c-.192,0-.216-.024-.216-.36v-3.552h1.08V-9.24Zm-4.248-1.824a7.923,7.923,0,0,1-.96,4.224v-5.544h.96Zm-.96,7.536h5.28v2.16h-5.28ZM90.384-10.2a25.618,25.618,0,0,0-1.248-3.12l-.792.384v-5.976c.336-.048.48-.192.5-.36L86.5-19.416v9.624A28.01,28.01,0,0,0,85.488-13.1l-1.032.5v-6.7c.36-.048.48-.168.5-.36L82.608-19.8v9.672c0,4.152-.264,8.064-2.424,11.136a7.706,7.706,0,0,1,1.656,1.2c2.328-3.408,2.616-7.776,2.616-12.336v-1.56a25.314,25.314,0,0,1,.984,4.56l1.056-.5V1.536h1.848V-11.352a22.589,22.589,0,0,1,1.224,4.128l.816-.432V2.112H92.3V-19.344c.36-.048.5-.168.528-.36l-2.448-.144Zm-9.24,3.744c1.008-1.656,1.3-4.3,1.416-6.6l-1.344-.288c-.12,2.112-.408,4.488-1.248,5.808Zm20.352-.7h2.112v-5.136h2.424V-14.3h-2.424v-3.1h2.016v-2.016H94.848V-17.4h2.016v3.1H94.3v2.016h2.4a6.012,6.012,0,0,1-2.832,4.08A8.6,8.6,0,0,1,95.4-6.648a7.832,7.832,0,0,0,3.432-5.64H101.5Zm0-10.248v3.1h-2.52v-3.1Zm4.8,14.088h7.368V-5.4H106.3V-7.56c.408-.048.552-.168.576-.384l-2.9-.168V-5.4H96.744v2.088h7.224V-.624H94.2V1.488h22.032V-.624H106.3Zm6.6-16.9v10.92c0,.312-.12.408-.456.408s-1.512,0-2.664-.048a10.194,10.194,0,0,1,.72,2.016c3.7,0,4.56-.264,4.56-2.352V-19.7c.384-.048.528-.192.552-.384Zm-5.64,1.1v8.52h2.16v-7.992c.36-.048.528-.168.552-.36Z" transform="translate(391 6609.5)" fill="#fff"/>
    <path id="パス_9616" data-name="パス 9616" d="M22.968-14.088v-2.184H20.832L22.08-17.52a21.6,21.6,0,0,0-4.008-2.736l-1.416,1.344a22.322,22.322,0,0,1,3.744,2.64H15.336c-.048-1.152-.072-2.328-.072-3.48.408-.048.6-.192.6-.408l-2.9-.168c0,1.344.048,2.712.144,4.056H3V-9.48C3-6.336,2.808-2.208.672.7a8.9,8.9,0,0,1,1.8,1.464c2.3-3.048,2.736-7.848,2.76-11.328H9.456c-.1,3.792-.216,5.232-.5,5.592a.82.82,0,0,1-.744.288c-.408,0-1.344-.024-2.376-.12A5.118,5.118,0,0,1,6.456-1.3c.48.024.96.024,1.392.024,2.064,0,2.544-.264,3-.864.552-.7.7-2.808.792-8.376.024-.24.024-.528.024-.72l-1.176-.048-.5.024H5.232v-2.832h8.016A48.546,48.546,0,0,0,15.1-3.912,17.854,17.854,0,0,1,9.84.432a17.157,17.157,0,0,1,1.488,1.776,21.056,21.056,0,0,0,4.7-3.792C17.208.864,18.6,2.16,20.448,2.16c1.968,0,2.736-1.176,3.144-5.424A6.318,6.318,0,0,1,21.72-4.536C21.576-1.368,21.24-.1,20.568-.1c-1.08,0-2.088-1.32-2.928-3.456a28.237,28.237,0,0,0,3.96-7.776c.336,0,.552-.1.624-.288l-2.664-.792A24.916,24.916,0,0,1,16.776-6.24a49.086,49.086,0,0,1-1.3-7.848Zm20.592-.48H38.376c.048-1.56.048-3.168.072-4.776.408-.048.6-.192.624-.456L36.1-19.968c0,1.872,0,3.672-.072,5.4H31.7v2.184h4.224C35.568-6.864,34.32-2.352,29.856.36a7.363,7.363,0,0,1,1.656,1.8c4.992-3.168,6.36-8.472,6.744-14.544h4.728C42.72-4.44,42.408-1.32,41.76-.624a1.053,1.053,0,0,1-.96.384c-.552,0-1.848-.024-3.24-.144a5.6,5.6,0,0,1,.7,2.256c.624.024,1.272.048,1.848.048,2.256,0,2.928-.192,3.672-1.152.888-1.08,1.176-4.56,1.488-14.52.024-.264.048-.552.048-.744l-1.248-.1ZM29.088-5.976v-9.48H32.76v-2.16H23.4v2.16h3.456V-5.4c-1.464.384-2.784.72-3.84.96l1.008,2.568A.493.493,0,0,0,24.36-2.3c2.232-.624,5.664-1.656,8.9-2.664l-.288-2.016Zm38.448-.048H57.6a10.4,10.4,0,0,0,.24-1.7h6.768V-9.6h-6.72v-1.584H65.3v-1.464H66.96v-4.944H57.936V-19.8c.384-.072.528-.192.552-.408l-2.88-.168v2.784H46.7v4.944h1.824v1.464h7.056V-9.6h-6.36v1.872h6.312a8.5,8.5,0,0,1-.312,1.7h-9V-4.08h7.992c-1.272,1.68-3.7,3.24-8.3,4.416A8.57,8.57,0,0,1,47.3,2.16C52.728.624,55.44-1.512,56.76-3.864c1.872,3.312,5.016,5.208,9.72,6.024A8.375,8.375,0,0,1,67.848.168c-4.1-.528-7.056-1.92-8.784-4.248h8.472ZM48.96-15.576H64.608v2.52h-6.72v-1.488c.384-.048.528-.192.552-.384L55.584-15.1v2.04H48.96Zm39.984,4.584H78.168v9.384h2.208A17.545,17.545,0,0,1,75.48.768a13.587,13.587,0,0,1,1.44,1.44,17.6,17.6,0,0,0,5.328-2.76A.73.73,0,0,0,82.7-.72l-1.488-.888H85.7L84.456-.7c1.512.936,3.216,2.112,4.176,2.856l1.992-1.1C89.568.336,87.864-.72,86.3-1.608h2.64Zm-2.16,4.056v1.224H80.232V-6.936Zm0-2.568v1.176H80.232V-9.5Zm0,5.184v1.248H80.232V-4.32ZM77.712-7.536a20.524,20.524,0,0,0-2.448-5.04l-1.656.7A21.905,21.905,0,0,1,74.76-9.768l-3.216.048A60.405,60.405,0,0,0,76.1-16.3a.753.753,0,0,0,.624-.216L74.5-17.544c-.648,1.272-1.512,2.784-2.448,4.248a12.87,12.87,0,0,0-1.1-1.32,35.928,35.928,0,0,0,2.52-4.56.648.648,0,0,0,.576-.216l-2.3-.96a34.362,34.362,0,0,1-2.016,4.464c-.216-.216-.432-.408-.648-.6l-1.128,1.512a21.247,21.247,0,0,1,2.928,3.408c-.456.672-.936,1.32-1.392,1.872l-1.68.024.48,2.352a.456.456,0,0,0,.408-.336c.864-.024,1.944-.1,3.144-.144V2.136h2.016V-7.92L75.5-8.04a10.443,10.443,0,0,1,.432,1.32Zm.312-8.592v1.488h4.32v1.128H76.488v1.536H90.48v-1.536H84.624V-14.64h4.44v-1.488h-4.44v-1.056H89.9v-1.56h-5.28v-1.032c.384-.072.528-.192.552-.408l-2.832-.168v1.608h-5.16v1.56h5.16v1.056ZM74.256-5.88A25.835,25.835,0,0,1,75.768-1.1c.816-.288,1.3-.456,1.8-.648a25.85,25.85,0,0,0-1.608-4.68ZM69.12-6.336A20.968,20.968,0,0,1,67.752-.6a11.417,11.417,0,0,1,1.632.792A20.589,20.589,0,0,0,70.9-5.544c.24.024.456-.024.5-.264Z" transform="translate(404 6685.5)" fill="#fff"/>
    <path id="パス_9617" data-name="パス 9617" d="M7.3-9.888H11.16v-2.136H7.3V-19.8c.36-.072.528-.192.552-.384l-2.736-.168v8.328h-4.1v2.136H4.68A23.361,23.361,0,0,1,.6-3.144,13.2,13.2,0,0,1,1.728-.888,21.861,21.861,0,0,0,5.112-6.576V2.112H7.3v-8.88A37.365,37.365,0,0,1,9.792-3.7l1.32-1.848c-.528-.576-3-2.88-3.816-3.552Zm4.416-1.3a19.714,19.714,0,0,1,3.744,3.768,13.464,13.464,0,0,1,1.7-1.368,19.473,19.473,0,0,0-3.864-3.6Zm-10.656-7.1a22.745,22.745,0,0,1,1.416,5.3l1.872-.528a20.464,20.464,0,0,0-1.536-5.232ZM22.944-6.84l-2.784.5V-19.7c.384-.072.552-.216.576-.408l-2.808-.168V-5.928L11.064-4.68l.384,2.16,6.48-1.2V2.112H20.16v-6.24l3.168-.6Zm-13.488-12a34.76,34.76,0,0,1-1.8,5.4c.432.144,1.128.432,1.56.6a32.783,32.783,0,0,0,2.112-4.992c.312,0,.5-.1.576-.264Zm2.9,1.368A17.438,17.438,0,0,1,15.648-13.8l1.728-1.3a17.663,17.663,0,0,0-3.384-3.5ZM39.792-6.048h7.992V-8.016H39.792V-10.9H44.76V-12.24a34.959,34.959,0,0,0,3.888,2.472,13.81,13.81,0,0,1,1.512-2.016,28.008,28.008,0,0,1-10.176-8.088.55.55,0,0,0,.528-.408l-3.12-.192A26.873,26.873,0,0,1,27.36-11.448a8.842,8.842,0,0,1,1.392,1.8,32.819,32.819,0,0,0,3.84-2.5V-10.9h4.8v2.88H29.568v1.968h7.824V-.6h-9V1.392h20.64V-.6h-9.24Zm-6.24-6.84a25.762,25.762,0,0,0,5.064-5.28,26.928,26.928,0,0,0,5.3,5.28ZM35.5-1.536a15.638,15.638,0,0,0-2.28-4.224l-1.848.768a15.78,15.78,0,0,1,2.16,4.32ZM43.032-.6A34.1,34.1,0,0,0,45.72-4.488c.288,0,.5-.072.576-.24L43.872-5.76a25.069,25.069,0,0,1-2.52,4.32Z" transform="translate(424 6762.5)" fill="#fff"/>
    <path id="パス_9613" data-name="パス 9613" d="M18.744-18.336a2.587,2.587,0,0,0,2.616,2.592,2.581,2.581,0,0,0,2.592-2.592,2.6,2.6,0,0,0-2.592-2.616A2.607,2.607,0,0,0,18.744-18.336Zm2.616,1.752a1.746,1.746,0,0,1-1.752-1.752,1.752,1.752,0,0,1,1.752-1.776,1.747,1.747,0,0,1,1.728,1.776A1.741,1.741,0,0,1,21.36-16.584ZM3.024-14.5H17.256C15.864-7.488,11.832-3.168,5.088-.7A13.2,13.2,0,0,1,6.6,1.3c7.368-2.832,11.472-7.344,13.536-16.32a1.063,1.063,0,0,0,.36-.288L18.312-16.9l-.168.1H3.024Zm28.1-3.672c.48-.072.7-.288.72-.552l-3.216-.168V-1.56l-.336.5L29.664,1.2A.743.743,0,0,0,30.1.672C37.224-1.176,42.72-4.56,45.888-9.816a12.958,12.958,0,0,1-1.752-1.7C41.4-6.744,36.744-3.744,31.128-2.136Zm32.448.072-.432.144h-12.6v2.28h11.28A32.818,32.818,0,0,1,48.312-.888,13.972,13.972,0,0,1,50.064.96a38.049,38.049,0,0,0,8.856-7.7A73.922,73.922,0,0,1,66.744.96L68.856-.864a91.292,91.292,0,0,0-8.4-7.752A37.266,37.266,0,0,0,65.088-16.7a.714.714,0,0,0,.408-.336Zm22.392-1.08v8.184c0,4.2-1.368,8.232-7.848,10.68a14.026,14.026,0,0,1,1.8,1.776c6.816-2.712,8.52-7.392,8.52-12.456v-7.56c.408-.048.6-.216.624-.456Zm-8.3,12.888V-17.376c.408-.048.624-.24.648-.456L75.24-18V-6.288Zm31.608-12.888v8.184c0,4.2-1.368,8.232-7.848,10.68a14.026,14.026,0,0,1,1.8,1.776c6.816-2.712,8.52-7.392,8.52-12.456v-7.56c.408-.048.6-.216.624-.456Zm-8.3,12.888V-17.376c.408-.048.624-.24.648-.456L98.544-18V-6.288Zm17.568-1.584A1.006,1.006,0,0,0,119.3-8.3h19.08v-2.4h-20.04ZM156.072-18.1l-.432.144h-12.6v2.28h11.28A32.818,32.818,0,0,1,140.808-.888,13.971,13.971,0,0,1,142.56.96a38.049,38.049,0,0,0,8.856-7.7A73.921,73.921,0,0,1,159.24.96l2.112-1.824a91.293,91.293,0,0,0-8.4-7.752,37.267,37.267,0,0,0,4.632-8.088.714.714,0,0,0,.408-.336Z" transform="translate(371 6453.5)" fill="#fff"/>
  </g>
</svg>
