<?xml version="1.0" encoding="utf-8"?>
<!-- Generator: Adobe Illustrator 26.0.1, SVG Export Plug-In . SVG Version: 6.00 Build 0)  -->
<svg version="1.1" id="レイヤー_1" xmlns="http://www.w3.org/2000/svg" xmlns:xlink="http://www.w3.org/1999/xlink" x="0px"
	 y="0px" viewBox="0 0 276 276" style="enable-background:new 0 0 276 276;" xml:space="preserve">
<style type="text/css">
	.st0{filter:url(#楕円形_351);}
	.st1{fill:#FFFFFF;}
	.st2{fill:#E0E0E0;}
	.st3{fill:#284192;}
	.st4{opacity:0.3;enable-background:new    ;}
	.st5{opacity:0.3;fill:#1D2A56;enable-background:new    ;}
	.st6{fill:#1D2A56;}
</style>
<filter  filterUnits="userSpaceOnUse" height="276" id="楕円形_351" width="276" x="0" y="0">
	<feOffset  dx="5" dy="5" input="SourceAlpha"></feOffset>
	<feGaussianBlur  result="blur" stdDeviation="5"></feGaussianBlur>
	<feFlood  flood-opacity="0.161"></feFlood>
	<feComposite  in2="blur" operator="in"></feComposite>
	<feComposite  in="SourceGraphic" operator="over"></feComposite>
</filter>
<g id="グループ_2391" transform="translate(-279 -2512)">
	<g id="グループ_2226" transform="translate(289 2522)">
		<g transform="matrix(1, 0, 0, 1, -10, -10)" class="st0">
			<circle id="楕円形_351-2_00000173152424435967331730000010775621797460105344_" class="st1" cx="133" cy="133" r="123"/>
		</g>
	</g>
	<g id="Business_challenge-amico_1_" transform="translate(336.389 2567.478)">
		<g id="freepik--Shadows--inject-132" transform="translate(6.056 83.444)">
			<path id="freepik--shadow--inject-132" class="st2" d="M17.2,71.1l106-61.2L106,0L0,61.2L17.2,71.1z"/>
		</g>
		<g id="freepik--Arrow--inject-132" transform="translate(14.651 0)">
			<g id="freepik--arrow--inject-132-2" transform="translate(0)">
				<path id="パス_4780" class="st3" d="M30.4,124.4l14.3,8.3l-15.5-14.4l-14.3-8.3L30.4,124.4z"/>
				<path id="パス_4781" class="st4" d="M14.9,109.9l15.5,14.4l14.3,8.3l-15.5-14.4L14.9,109.9z"/>
				<path id="パス_4782" class="st3" d="M55.2,72.8L69.5,81l24.2,23.3l-14.3-8.3L55.2,72.8z"/>
				<path id="パス_4783" class="st5" d="M55.2,72.8L69.5,81l24.2,23.3l-14.3-8.3L55.2,72.8z"/>
				<path id="パス_4784" class="st6" d="M0,141.3l14.3,8.3l14.9-31.4l-14.3-8.3L0,141.3z"/>
				<path id="パス_4785" class="st6" d="M32.1,120.8l12.6,11.8L69.5,81l-14.3-8.3L32.1,120.8z"/>
				<path id="パス_4786" class="st6" d="M81.2,92.3l12.5,12.1l37.7-78.8L117,17.3L81.2,92.3z"/>
				<path id="パス_4787" class="st6" d="M112,14.8l24.1,13.9L134.4,0L112,14.8z"/>
			</g>
		</g>
		<g id="freepik--speech-bubble--inject-132" transform="translate(0 0)">
			<g id="freepik--speech-bubble--inject-132-2">
				<g id="freepik--speech-bubble--inject-132-3">
					<path id="パス_4788" class="st6" d="M63.8,10.9C49.2-3.7,25.5-3.6,10.9,11C-3.7,25.6-3.6,49.3,11,63.9
						c14.6,14.6,38.2,14.6,52.8,0C78.4,49.3,78.5,25.6,63.8,10.9C63.9,11,63.8,10.9,63.8,10.9z"/>
					<path id="パス_4789" class="st1" d="M61.4,61.5c-13.3,13.3-34.9,13.3-48.2,0c-13.3-13.3-13.3-34.9,0-48.2s34.9-13.3,48.2,0
						c0,0,0,0,0,0C74.7,26.6,74.7,48.2,61.4,61.5z"/>
				</g>
				<path id="パス_4791" class="st6" d="M24.3,20l1.5,15.1c0.7,6.4,6.5,10.9,12.9,10.2c5.4-0.6,9.6-4.8,10.2-10.2L50.4,20H24.3z"
					/>
				<path id="パス_4792" class="st6" d="M37.3,45.2c-2.1,0-3.9,1.7-3.9,3.8c0,0,0,0,0,0.1h7.9C41.3,46.9,39.5,45.2,37.3,45.2
					C37.4,45.2,37.4,45.2,37.3,45.2z"/>
				<path id="パス_4793" class="st6" d="M43.8,52.2H30.9c-0.5,0-0.9-0.4-0.9-0.9l0,0l0,0c0-0.5,0.4-0.9,0.9-0.9l0,0h12.9
					c0.5,0,0.9,0.4,0.9,0.9l0,0l0,0C44.7,51.8,44.3,52.2,43.8,52.2L43.8,52.2z"/>
				<path id="パス_4794" class="st6" d="M46,53.5H28.7c-1.7,0-3,1.3-3,3l0,0H49C49,54.8,47.6,53.5,46,53.5
					C46,53.5,46,53.5,46,53.5z"/>
				<path id="パス_4795" class="st6" d="M26.4,40.9h-0.6c-4,0-7.5-2.7-8.5-6.5l-2-7.2c-0.4-1.6,0.5-3.2,2.1-3.7
					c0.3-0.1,0.5-0.1,0.8-0.1h5.2l0.3,2.6h-5.4c-0.1,0-0.2,0.1-0.3,0.2c-0.1,0.1-0.1,0.2,0,0.3l2,7.2c0.7,2.5,2.8,4.3,5.4,4.6
					C25.6,39.2,26,40.1,26.4,40.9L26.4,40.9z"/>
				<path id="パス_4796" class="st6" d="M48.2,40.9h0.6c4,0,7.5-2.7,8.5-6.5l2-7.2c0.4-1.6-0.5-3.2-2.1-3.7
					c-0.3-0.1-0.6-0.1-0.8-0.1h-5.2L51,26h5.4c0.1,0,0.2,0.1,0.3,0.2c0.1,0.1,0.1,0.2,0.1,0.3l-2,7.2c-0.7,2.5-2.8,4.3-5.4,4.6
					C49.1,39.2,48.7,40.1,48.2,40.9z"/>
			</g>
		</g>
	</g>
</g>
</svg>
