<svg xmlns="http://www.w3.org/2000/svg" xmlns:xlink="http://www.w3.org/1999/xlink" width="276" height="276" viewBox="0 0 276 276">
  <defs>
    <filter id="楕円形_351" x="0" y="0" width="276" height="276" filterUnits="userSpaceOnUse">
      <feOffset dx="5" dy="5" input="SourceAlpha"/>
      <feGaussianBlur stdDeviation="5" result="blur"/>
      <feFlood flood-opacity="0.161"/>
      <feComposite operator="in" in2="blur"/>
      <feComposite in="SourceGraphic"/>
    </filter>
    <clipPath id="clip-path">
      <circle id="楕円形_350" data-name="楕円形 350" cx="123" cy="123" r="123" opacity="0.228"/>
    </clipPath>
  </defs>
  <g id="グループ_2391" data-name="グループ 2391" transform="translate(-279 -2512)">
    <g id="グループ_2226" data-name="グループ 2226" transform="translate(289 2522)">
      <g transform="matrix(1, 0, 0, 1, -10, -10)" filter="url(#楕円形_351)">
        <circle id="楕円形_351-2" data-name="楕円形 351" cx="123" cy="123" r="123" transform="translate(10 10)" fill="#fff"/>
      </g>
    </g>
    <g id="Business_challenge-amico_1_" data-name="Business challenge-amico (1)" transform="translate(336.389 2567.478)">
      <g id="freepik--Shadows--inject-132" transform="translate(6.056 83.444)">
        <path id="freepik--shadow--inject-132" d="M47.841,337.578l106.021-61.213-17.191-9.925L30.65,327.653Z" transform="translate(-30.65 -266.44)" fill="#e0e0e0"/>
      </g>
      <g id="freepik--Arrow--inject-132" transform="translate(14.651 0)">
        <g id="freepik--arrow--inject-132-2" data-name="freepik--arrow--inject-132" transform="translate(0)">
          <path id="パス_4780" data-name="パス 4780" d="M112.762,356l14.327,8.274-15.452-14.415L97.31,341.58Z" transform="translate(-82.394 -231.634)" fill="#284192"/>
          <path id="パス_4781" data-name="パス 4781" d="M97.31,341.58,112.762,356l14.327,8.274-15.452-14.415Z" transform="translate(-82.394 -231.634)" opacity="0.3"/>
          <path id="パス_4782" data-name="パス 4782" d="M211.46,236.2l14.327,8.271,24.157,23.314-14.327-8.271Z" transform="translate(-156.282 -163.422)" fill="#284192"/>
          <path id="パス_4783" data-name="パス 4783" d="M211.46,236.2l14.327,8.271,24.157,23.314-14.327-8.271Z" transform="translate(-156.282 -163.422)" fill="#1d2a56" opacity="0.3"/>
          <path id="パス_4784" data-name="パス 4784" d="M55.02,372.982l14.327,8.271,14.916-31.4L69.936,341.58Z" transform="translate(-55.02 -231.634)" fill="#1d2a56"/>
          <path id="パス_4785" data-name="パス 4785" d="M145.91,284.271l12.638,11.788,24.809-51.587L169.03,236.2Z" transform="translate(-113.852 -163.422)" fill="#1d2a56"/>
          <path id="パス_4786" data-name="パス 4786" d="M285.11,153.912l12.507,12.073L335.29,87.2,320.963,78.93Z" transform="translate(-203.955 -61.623)" fill="#1d2a56"/>
          <path id="パス_4787" data-name="パス 4787" d="M372.48,44.614l24.136,13.936L394.937,29.86Z" transform="translate(-260.509 -29.86)" fill="#1d2a56"/>
        </g>
      </g>
      <g id="freepik--speech-bubble--inject-132" transform="translate(0 0)">
        <g id="freepik--speech-bubble--inject-132-2" data-name="freepik--speech-bubble--inject-132">
          <g id="freepik--speech-bubble--inject-132-3" data-name="freepik--speech-bubble--inject-132">
            <path id="パス_4788" data-name="パス 4788" d="M229.091,64.455a37.4,37.4,0,1,0,0,52.96A37.4,37.4,0,0,0,229.091,64.455ZM178.5,115.029a24.1,24.1,0,1,1,0,.026Z" transform="translate(-165.268 -53.53)" fill="#1d2a56"/>
            <path id="パス_4789" data-name="パス 4789" d="M225.972,114.3a34.077,34.077,0,1,1,0-48.188A34.077,34.077,0,0,1,225.972,114.3Z" transform="translate(-164.535 -52.776)" fill="#fff"/>
          </g>
          <path id="パス_4791" data-name="パス 4791" d="M184.09,69.07l1.522,15.117a11.608,11.608,0,0,0,23.062,0l1.535-15.117Z" transform="translate(-159.813 -49.026)" fill="#1d2a56"/>
          <path id="パス_4792" data-name="パス 4792" d="M195.1,88.58a3.869,3.869,0,0,0-3.934,3.869h7.855A3.869,3.869,0,0,0,195.1,88.58Z" transform="translate(-157.761 -43.372)" fill="#1d2a56"/>
          <path id="パス_4793" data-name="パス 4793" d="M202.324,94.412h-12.9a.916.916,0,0,1-.916-.916h0a.916.916,0,0,1,.916-.916h12.9a.916.916,0,0,1,.916.916h0A.916.916,0,0,1,202.324,94.412Z" transform="translate(-158.532 -42.213)" fill="#1d2a56"/>
          <path id="パス_4794" data-name="パス 4794" d="M205.466,95H188.2a3.005,3.005,0,0,0-3.005,3.005h23.281A3.005,3.005,0,0,0,205.466,95Z" transform="translate(-159.494 -41.511)" fill="#1d2a56"/>
          <path id="パス_4795" data-name="パス 4795" d="M188.276,89.2h-.58a8.861,8.861,0,0,1-8.539-6.526l-1.973-7.236a2.979,2.979,0,0,1,2.876-3.766h5.159l.271,2.58h-5.443a.451.451,0,0,0-.322.155.413.413,0,0,0,0,.348L181.7,82a6.243,6.243,0,0,0,5.43,4.579,13.051,13.051,0,0,0,1.148,2.618Z" transform="translate(-161.845 -48.273)" fill="#1d2a56"/>
          <path id="パス_4796" data-name="パス 4796" d="M202.67,89.2h.58a8.861,8.861,0,0,0,8.539-6.526l1.973-7.236a2.98,2.98,0,0,0-2.928-3.766h-5.159l-.271,2.58h5.43a.452.452,0,0,1,.322.155.413.413,0,0,1,.064.348L209.248,82a6.243,6.243,0,0,1-5.43,4.579A13.059,13.059,0,0,1,202.67,89.2Z" transform="translate(-154.428 -48.273)" fill="#1d2a56"/>
        </g>
      </g>
    </g>
  </g>
</svg>
