<svg xmlns="http://www.w3.org/2000/svg" xmlns:xlink="http://www.w3.org/1999/xlink" width="343" height="343" viewBox="0 0 343 343">
  <defs>
    <filter id="楕円形_333" x="0" y="0" width="343" height="343" filterUnits="userSpaceOnUse">
      <feOffset dx="5" dy="5" input="SourceAlpha"/>
      <feGaussianBlur stdDeviation="5" result="blur"/>
      <feFlood flood-opacity="0.161"/>
      <feComposite operator="in" in2="blur"/>
      <feComposite in="SourceGraphic"/>
    </filter>
    <clipPath id="clip-path">
      <circle id="楕円形_349" data-name="楕円形 349" cx="156.5" cy="156.5" r="156.5" opacity="0.502"/>
    </clipPath>
  </defs>
  <g id="グループ_2307" data-name="グループ 2307" transform="translate(-1335 -2512)">
    <g id="グループ_2227" data-name="グループ 2227" transform="translate(105 1234)">
      <g transform="matrix(1, 0, 0, 1, 1230, 1278)" filter="url(#楕円形_333)">
        <circle id="楕円形_333-2" data-name="楕円形 333" cx="156.5" cy="156.5" r="156.5" transform="translate(10 10)" fill="#fff"/>
      </g>
    </g>
    <g id="Good_team-pana" data-name="Good team-pana" transform="translate(1353.683 2524.432)">
      <g id="freepik--Hand--inject-3" transform="translate(137.101 15.31)">
        <path id="パス_5200" data-name="パス 5200" d="M243.43,113.983l.819-34.79S252,77.69,258.9,67.187c4.567-6.968,2.887-14.354,3.763-17.413.522-1.869,4.943-1.493,6.88-1.268,1.827.214,4.854,1.232,6.128,4.129,2.354,5.366-.945,18.212-.945,18.212s-1.435,2.61,2.224,2.61H290a7.1,7.1,0,0,1,4.646,1.665,5.277,5.277,0,0,1,1.91,4.614c-.392,4.974-3.007,7.2-3.007,8.242s1.435,2.876.392,5.888-1.7,2.746-1.7,4.176a23.4,23.4,0,0,1-1.174,7.308,10.686,10.686,0,0,1-1.963,3.268s.391,4.7-.919,7.459-6.786,4.176-8.633,4.176-14.908-2.61-18.572-3.529S246.964,112.281,243.43,113.983Z" transform="translate(-238.753 -31.088)" fill="#263238"/>
        <path id="パス_5201" data-name="パス 5201" d="M234.47,114.639V79.453s7.751-1.5,14.652-12.005a58.707,58.707,0,0,0,7.506-15.659,3.993,3.993,0,0,1,4.259-2.907,6.092,6.092,0,0,1,5.3,3.826c2.354,5.371-1.242,18.4-1.242,18.4s-1.441,2.61,2.224,2.61h13.049a7.115,7.115,0,0,1,4.646,1.665A5.277,5.277,0,0,1,286.777,80c-.391,4.974-3.012,7.2-3.012,8.242s1.441,2.876.4,5.888-1.7,2.746-1.7,4.176a23.276,23.276,0,0,1-1.18,7.308,10.623,10.623,0,0,1-1.957,3.268s.391,4.7-.919,7.459-6.786,4.176-8.633,4.176-14.908-2.61-18.572-3.529S238,112.937,234.47,114.639Z" transform="translate(-234.47 -31.347)" fill="#455a64"/>
        <path id="パス_5202" data-name="パス 5202" d="M258.943,45.446a23.32,23.32,0,0,1-2.907-2.161A23.97,23.97,0,0,1,253.3,40.91a24.189,24.189,0,0,1,2.907,2.166A24.844,24.844,0,0,1,258.943,45.446Z" transform="translate(-243.471 -27.547)" fill="#263238"/>
        <path id="パス_5203" data-name="パス 5203" d="M269.368,33.19a9.63,9.63,0,0,1-1.018-1.3c-.6-.835-1.388-2.01-2.2-3.341s-1.5-2.568-1.973-3.476a8.96,8.96,0,0,1-.7-1.5,10.168,10.168,0,0,1,.872,1.409c.522.882,1.227,2.088,2.036,3.424s1.566,2.516,2.13,3.372A11.1,11.1,0,0,1,269.368,33.19Z" transform="translate(-248.333 -19.258)" fill="#263238"/>
        <path id="パス_5204" data-name="パス 5204" d="M284.411,15.31a46.494,46.494,0,0,1,.136,5.074,46.551,46.551,0,0,1-.136,5.079,48.162,48.162,0,0,1-.136-5.079,48.13,48.13,0,0,1,.136-5.074Z" transform="translate(-258.27 -15.31)" fill="#263238"/>
        <path id="パス_5205" data-name="パス 5205" d="M302.793,30.53a20.7,20.7,0,0,1-2.26,2.453,19.419,19.419,0,0,1-2.453,2.255,20.916,20.916,0,0,1,2.26-2.448A20.24,20.24,0,0,1,302.793,30.53Z" transform="translate(-264.877 -22.586)" fill="#263238"/>
        <path id="パス_5206" data-name="パス 5206" d="M310.646,42.37a12.72,12.72,0,0,1-1.816,2.01,12.721,12.721,0,0,1-2.01,1.816,14,14,0,0,1,1.816-2.01,14,14,0,0,1,2.01-1.816Z" transform="translate(-269.055 -28.245)" fill="#263238"/>
        <path id="パス_5207" data-name="パス 5207" d="M299.791,78a6.023,6.023,0,0,1-.83,1.044c-.522.621-1.31,1.462-2.2,2.354s-1.728,1.66-2.354,2.2a6.492,6.492,0,0,1-1.044.825,6.87,6.87,0,0,1,.919-.966L296.57,81.2c.846-.861,1.613-1.634,2.255-2.291A7.345,7.345,0,0,1,299.791,78Z" transform="translate(-262.621 -45.277)" fill="#455a64"/>
        <path id="パス_5208" data-name="パス 5208" d="M301.407,69a4.526,4.526,0,0,1-.757.955,26.784,26.784,0,0,1-2.119,2.036c-.867.746-1.67,1.394-2.255,1.869a6.029,6.029,0,0,1-.976.726,27.08,27.08,0,0,1,3.054-2.8c.861-.746,1.623-1.441,2.161-1.963A7.171,7.171,0,0,1,301.407,69Z" transform="translate(-263.548 -40.975)" fill="#455a64"/>
        <path id="パス_5209" data-name="パス 5209" d="M301.655,60.828a3.017,3.017,0,0,1-.605.788,12.152,12.152,0,0,1-1.785,1.6c-1.519,1.08-2.673,2.036-2.725,1.984A12.33,12.33,0,0,1,299.1,63C300.591,61.908,301.587,60.765,301.655,60.828Z" transform="translate(-264.141 -37.067)" fill="#455a64"/>
        <path id="パス_5210" data-name="パス 5210" d="M300.138,54.05a11.053,11.053,0,0,1-1.79,1.712,11.447,11.447,0,0,1-1.968,1.5,11.165,11.165,0,0,1,1.79-1.707A11.327,11.327,0,0,1,300.138,54.05Z" transform="translate(-264.064 -33.829)" fill="#455a64"/>
        <path id="パス_5211" data-name="パス 5211" d="M296.272,50.05a4.087,4.087,0,0,1-1.143.919,3.972,3.972,0,0,1-1.289.689,7.641,7.641,0,0,1,2.432-1.608Z" transform="translate(-262.85 -31.917)" fill="#455a64"/>
        <path id="パス_5212" data-name="パス 5212" d="M300.068,89.86a12.269,12.269,0,0,1-1.9,1.806,12.612,12.612,0,0,1-2.088,1.6,13.047,13.047,0,0,1,1.9-1.811,12.892,12.892,0,0,1,2.088-1.6Z" transform="translate(-263.921 -50.947)" fill="#455a64"/>
        <path id="パス_5213" data-name="パス 5213" d="M337.122,113.36a42.616,42.616,0,0,1-3.92,2.85,43.842,43.842,0,0,1-4.082,2.61,43.5,43.5,0,0,1,3.925-2.855,42.676,42.676,0,0,1,4.077-2.6Z" transform="translate(-279.715 -62.18)" fill="#455a64"/>
        <path id="パス_5214" data-name="パス 5214" d="M339.7,101.93a15.732,15.732,0,0,1-2.307,1.754,15.507,15.507,0,0,1-2.458,1.524,31.459,31.459,0,0,1,4.766-3.278Z" transform="translate(-282.492 -56.716)" fill="#455a64"/>
        <path id="パス_5215" data-name="パス 5215" d="M335.214,129.72c.036.068-1.342.882-2.965,1.994s-2.892,2.088-2.944,2.036.261-.313.762-.731,1.206-.966,2.025-1.529a20.4,20.4,0,0,1,2.161-1.331A3.748,3.748,0,0,1,335.214,129.72Z" transform="translate(-279.801 -70.001)" fill="#455a64"/>
        <path id="パス_5216" data-name="パス 5216" d="M332.141,142.15a26.2,26.2,0,0,1-2.949,2.38,25.491,25.491,0,0,1-3.132,2.166,53.545,53.545,0,0,1,6.06-4.546Z" transform="translate(-278.252 -75.943)" fill="#455a64"/>
        <path id="パス_5217" data-name="パス 5217" d="M327.907,158.07a4.8,4.8,0,0,1-.872.846c-.564.491-1.373,1.143-2.3,1.811s-1.806,1.221-2.453,1.6a4.651,4.651,0,0,1-1.08.553,5.889,5.889,0,0,1,.981-.715c.616-.418,1.467-1,2.4-1.665s1.743-1.284,2.338-1.733A5.643,5.643,0,0,1,327.907,158.07Z" transform="translate(-275.929 -83.553)" fill="#455a64"/>
        <path id="パス_5218" data-name="パス 5218" d="M323.665,171a6.635,6.635,0,0,1-1.044.971c-.668.564-1.618,1.31-2.7,2.088s-2.088,1.441-2.845,1.89a6.346,6.346,0,0,1-1.248.668,8.667,8.667,0,0,1,1.143-.83c.72-.491,1.712-1.174,2.787-1.947s2.046-1.493,2.74-2.02A8.623,8.623,0,0,1,323.665,171Z" transform="translate(-273.362 -89.734)" fill="#455a64"/>
        <path id="パス_5219" data-name="パス 5219" d="M322.179,63.827a13.946,13.946,0,0,1-2.719-.136,26.307,26.307,0,0,1,5.439,0A13.906,13.906,0,0,1,322.179,63.827Z" transform="translate(-275.097 -38.37)" fill="#263238"/>
      </g>
      <g id="freepik--character-1--inject-3" transform="translate(51.184 48.097)">
        <path id="パス_5221" data-name="パス 5221" d="M121.163,112.389c-.052-1.67-.089-2.991-.073-2.991s5.71-.82,5.846-6.519c.068-2.756-.256-8.435-.611-13.571A10.622,10.622,0,0,0,115.85,79.39h-.522c-5.94.277-9.02,5.47-8.576,11.395l.882,20.78,4.233,4.63a5.366,5.366,0,0,0,9.322-3.826Z" transform="translate(-87.48 -78.729)" fill="#ffa8a7"/>
        <path id="パス_5222" data-name="パス 5222" d="M127.546,134.781a13.733,13.733,0,0,1-7.4-2.281s1.7,4.369,7.4,3.92Z" transform="translate(-93.905 -104.117)" fill="#f28f8f"/>
        <path id="パス_5230" data-name="パス 5230" d="M104.095,109.18c-.1-.047-3.9-1.206-3.826,2.693s3.977,3.017,3.983,2.9S104.095,109.18,104.095,109.18Z" transform="translate(-84.401 -92.875)" fill="#ffa8a7"/>
        <path id="パス_5231" data-name="パス 5231" d="M103.947,114.479a1.853,1.853,0,0,1-.177.1.689.689,0,0,1-.522,0,1.7,1.7,0,0,1-.809-1.493,2.26,2.26,0,0,1,.172-.976.788.788,0,0,1,.522-.522.339.339,0,0,1,.4.177c.057.11.031.188.052.193s.084-.068.052-.23a.47.47,0,0,0-.162-.24.522.522,0,0,0-.376-.089.96.96,0,0,0-.7.616,2.385,2.385,0,0,0-.214,1.091,1.75,1.75,0,0,0,1.044,1.665.715.715,0,0,0,.616-.115C103.942,114.573,103.963,114.484,103.947,114.479Z" transform="translate(-85.318 -94.03)" fill="#f28f8f"/>
        <path id="パス_5234" data-name="パス 5234" d="M127.64,434.517l-2.177,11.671s11.129,6.133,10.935,8.352l-22.779-3.414,2.652-18.327Z" transform="translate(-90.784 -247.667)" fill="#284192"/>
        <g id="グループ_2290" data-name="グループ 2290" transform="translate(22.836 185.133)" opacity="0.3">
          <path id="パス_5235" data-name="パス 5235" d="M127.64,434.517l-2.177,11.671s11.129,6.133,10.935,8.352l-22.779-3.414,2.652-18.327Z" transform="translate(-113.62 -432.8)"/>
        </g>
        <path id="パス_5236" data-name="パス 5236" d="M122.358,454.512a.94.94,0,0,0-.8.966.9.9,0,0,0,.95.8.987.987,0,0,0,.84-1.044.94.94,0,0,0-1.08-.731" transform="translate(-94.578 -258.037)" fill="#e0e0e0"/>
        <path id="パス_5237" data-name="パス 5237" d="M113.62,466.187l.339-1.837,21.714,3.962s.95.6.726,1.289Z" transform="translate(-90.784 -262.749)" fill="#263238"/>
        <path id="パス_5238" data-name="パス 5238" d="M135,458.172c0,.11-.585.078-1.185.355s-.966.7-1.044.642.167-.679.9-1S135.033,458.073,135,458.172Z" transform="translate(-99.93 -259.714)" fill="#263238"/>
        <path id="パス_5239" data-name="パス 5239" d="M139.744,460.847c0,.115-.522.23-.95.642s-.632.9-.741.877-.084-.663.48-1.169S139.76,460.743,139.744,460.847Z" transform="translate(-102.439 -261.041)" fill="#263238"/>
        <path id="パス_5240" data-name="パス 5240" d="M143.043,465.134c-.1,0-.177-.569.2-1.138s.929-.731.966-.632-.339.381-.642.851S143.158,465.14,143.043,465.134Z" transform="translate(-104.809 -262.265)" fill="#263238"/>
        <path id="パス_5241" data-name="パス 5241" d="M135.248,452.594c-.057.094-.548-.136-1.18-.188s-1.159.073-1.2-.031.485-.428,1.232-.355S135.316,452.527,135.248,452.594Z" transform="translate(-99.983 -256.85)" fill="#263238"/>
        <path id="パス_5242" data-name="パス 5242" d="M115.7,441.44l-.209,11.87s12.005,4.2,12.172,6.4l-23.035.418-.428-18.509Z" transform="translate(-86.281 -251.797)" fill="#284192"/>
        <path id="パス_5243" data-name="パス 5243" d="M111.554,462.5a.945.945,0,0,0-.632,1.086.9.9,0,0,0,1.044.632.987.987,0,0,0,.663-1.154.929.929,0,0,0-1.185-.522" transform="translate(-89.485 -261.859)" fill="#e0e0e0"/>
        <path id="パス_5244" data-name="パス 5244" d="M105,475.529l.031-1.869,22.074.3s1.044.428.929,1.154Z" transform="translate(-86.663 -267.199)" fill="#263238"/>
        <path id="パス_5245" data-name="パス 5245" d="M124.639,463.852c0,.115-.564.177-1.107.548s-.835.851-.94.8.052-.694.72-1.133S124.665,463.748,124.639,463.852Z" transform="translate(-95.059 -262.465)" fill="#263238"/>
        <path id="パス_5246" data-name="パス 5246" d="M129.83,465.732c0,.11-.459.308-.83.793s-.475.987-.59.987-.193-.642.282-1.232S129.825,465.628,129.83,465.732Z" transform="translate(-97.812 -263.39)" fill="#263238"/>
        <path id="パス_5247" data-name="パス 5247" d="M133.805,469.469c-.1.026-.271-.522,0-1.154s.8-.877.851-.783-.271.428-.491.945S133.915,469.458,133.805,469.469Z" transform="translate(-100.362 -264.261)" fill="#263238"/>
        <path id="パス_5248" data-name="パス 5248" d="M123.871,458.394c-.047.1-.564-.042-1.2,0s-1.127.266-1.185.172.407-.522,1.159-.559S123.923,458.3,123.871,458.394Z" transform="translate(-94.541 -259.716)" fill="#263238"/>
        <path id="パス_5249" data-name="パス 5249" d="M95.11,264.84l.3,11.75,3.471,36.46s-1.107,17.747-1.806,27.79c-.611,8.707,1.148,23.8,1.148,23.8l14.657-.381,3.93-50.59,2.438-31.553,4.948-16.489Z" transform="translate(-81.935 -167.378)" fill="#263238"/>
        <path id="パス_5250" data-name="パス 5250" d="M144.113,267.533l.924,47.688a20.018,20.018,0,0,1-1.19,7.12l-12.574,35.077-.621,2.318-8.811-1.9,4.259-93Z" transform="translate(-94.713 -167.378)" fill="#263238"/>
        <path id="パス_5251" data-name="パス 5251" d="M135.341,286.1v3.487c0,2.239-.063,5.486-.167,9.495-.235,8.018-.773,19.083-1.743,31.277s-2.088,23.207-2.876,31.178c-.418,3.972-.757,7.188-.992,9.432-.12,1.1-.214,1.963-.277,2.563-.037.282-.063.522-.084.668a1.644,1.644,0,0,1-.037.224,1.518,1.518,0,0,1,0-.23c0-.167.031-.386.052-.668.052-.605.13-1.467.23-2.568.214-2.25.522-5.47.9-9.448.767-7.971,1.848-18.984,2.8-31.178s1.535-23.249,1.822-31.256c.13-4.009.224-7.25.256-9.495.026-1.107.047-1.973.057-2.579v-.673A1.564,1.564,0,0,1,135.341,286.1Z" transform="translate(-98.213 -177.541)" fill="#455a64"/>
        <path id="パス_5252" data-name="パス 5252" d="M107.727,270.61a2.015,2.015,0,0,1-.047.522,8.63,8.63,0,0,1-.381,1.43,9.4,9.4,0,0,1-7.125,6.081,7.963,7.963,0,0,1-1.472.136,1.806,1.806,0,0,1-.522-.042,17.561,17.561,0,0,0,1.973-.287,9.709,9.709,0,0,0,7-5.935C107.576,271.372,107.675,270.6,107.727,270.61Z" transform="translate(-83.403 -170.136)" fill="#455a64"/>
        <path id="パス_5253" data-name="パス 5253" d="M141.064,273.526a.757.757,0,1,1-.778-.736A.757.757,0,0,1,141.064,273.526Z" transform="translate(-103.179 -171.178)" fill="#455a64"/>
        <path id="パス_5254" data-name="パス 5254" d="M161.508,277.251a4.7,4.7,0,0,1-1.044-.94,11.677,11.677,0,0,1-2.928-6.107,4.818,4.818,0,0,1-.068-1.415c.042,0,.089.522.261,1.378a13.509,13.509,0,0,0,2.881,6.013C161.148,276.844,161.54,277.215,161.508,277.251Z" transform="translate(-111.733 -169.266)" fill="#455a64"/>
        <path id="パス_5255" data-name="パス 5255" d="M69.87,300.99l27.367-10.45,9.448,21.4L77.757,322.02Z" transform="translate(-69.87 -179.663)" fill="#455a64"/>
        <path id="パス_5256" data-name="パス 5256" d="M96.786,296.884a16.681,16.681,0,0,1-2.537-2.61c-.016-.251-.391-1.905-.726-3.351a1.373,1.373,0,0,1,1.535-1.728l1.853-.715a11.95,11.95,0,0,0-1.686-2.526,18.972,18.972,0,0,0-3.372-2.2l-.282-3.231L84.17,282l1.044,7.433s1.837,6.979,2.657,7.642a8.964,8.964,0,0,0,3.132.992c.924,1.044,2.8.611,2.8.611,2.088,1.221,1.989-.313,1.989-.313a.443.443,0,0,0,.219.115A.932.932,0,0,0,96.786,296.884Z" transform="translate(-76.706 -174.874)" fill="#ffa8a7"/>
        <path id="パス_5257" data-name="パス 5257" d="M97.969,302A4.227,4.227,0,0,0,98,303.268a6.6,6.6,0,0,0,.908,2.907,5.873,5.873,0,0,0,2.354,1.91,4,4,0,0,0,1.159.459,5.742,5.742,0,0,0-1.044-.663,6.6,6.6,0,0,1-2.192-1.895,7.485,7.485,0,0,1-.96-2.772A5.638,5.638,0,0,0,97.969,302Z" transform="translate(-83.286 -185.142)" fill="#f28f8f"/>
        <path id="パス_5258" data-name="パス 5258" d="M94.916,303.59a2.37,2.37,0,0,0-.037,1.164,8.355,8.355,0,0,0,.24,1.237,3.821,3.821,0,0,0,.658,1.42,6.667,6.667,0,0,0,1.154,1.007l1,.71a3.884,3.884,0,0,0,.971.59,3.893,3.893,0,0,0-.83-.778c-.266-.224-.59-.485-.955-.767a7.485,7.485,0,0,1-1.086-.976,3.774,3.774,0,0,1-.647-1.3,11.621,11.621,0,0,1-.3-1.18A9.051,9.051,0,0,1,94.916,303.59Z" transform="translate(-81.798 -185.902)" fill="#f28f8f"/>
        <path id="パス_5259" data-name="パス 5259" d="M91.553,305.75a8.826,8.826,0,0,0,.679,2.746,1.253,1.253,0,0,0,.355.522,4.12,4.12,0,0,0,.407.355,4.651,4.651,0,0,0,.757.5c.459.24.783.3.793.256a5.145,5.145,0,0,0-.673-.454,7.792,7.792,0,0,1-.684-.522,4.609,4.609,0,0,1-.371-.35.987.987,0,0,1-.271-.4c-.24-.752-.485-1.4-.663-1.884A3.742,3.742,0,0,0,91.553,305.75Z" transform="translate(-80.221 -186.934)" fill="#f28f8f"/>
        <path id="パス_5260" data-name="パス 5260" d="M146.14,154.68s6.41,3.21,8.926,6.843,6.859,10.22,6.859,10.22l5.794-15.043,8.68,3.852s-4.959,17.966-5.872,19.934c-1.274,2.725-4.3,5.162-9.03,4.875s-3.221-.162-6.332-3.074l-4.176-4.9Z" transform="translate(-106.329 -114.719)" fill="#284192"/>
        <g id="グループ_2291" data-name="グループ 2291" transform="translate(43.794 53.976)" opacity="0.3">
          <path id="パス_5261" data-name="パス 5261" d="M153.77,181.53a47.081,47.081,0,0,0,5.371,13.874,33.964,33.964,0,0,1-2.735-3.09c-.715-.84-1.728-2.015-1.728-2.015-.277-2.949-.908-8.769-.908-8.769" transform="translate(-153.77 -181.53)"/>
        </g>
        <path id="パス_5262" data-name="パス 5262" d="M177.481,193.864a3.936,3.936,0,0,1-.266-1.044c-.131-.658-.277-1.566-.4-2.61s-.2-1.937-.235-2.61a4.133,4.133,0,0,1,0-1.08,36.711,36.711,0,0,1,.522,3.654C177.329,192.22,177.554,193.854,177.481,193.864Z" transform="translate(-120.862 -129.939)" fill="#263238"/>
        <path id="パス_5263" data-name="パス 5263" d="M106.364,139.01l-.324-3.132a1.044,1.044,0,0,1,1.221-.992c3.706.788,14.553,3.132,14.678,3.716.078.339,0,2.61-.031,4.5l-15.544-4.118" transform="translate(-87.16 -105.25)" fill="#284192"/>
        <path id="パス_5264" data-name="パス 5264" d="M76.3,158.55s-3.842,2.725-4.5,10.069c-.407,4.51-.966,33.751-.966,33.751l6.264,24.361,9.959-2.521-3.534-25.66.345-22.288Z" transform="translate(-70.329 -116.569)" fill="#284192"/>
        <path id="パス_5265" data-name="パス 5265" d="M82.8,241.8a.72.72,0,0,1,.172-.063l.522-.146,1.978-.522,7.271-1.89-.078.12c-.752-5.136-1.743-11.943-2.829-19.4-.256-1.775-.522-3.508-.741-5.173h0c.12-7,.23-13.154.3-17.585.052-2.192.094-3.951.12-5.188,0-.6.037-1.044.047-1.4v-.36a.775.775,0,0,1,0-.125.391.391,0,0,1,0,.125v1.759c0,1.237,0,3-.037,5.188-.052,4.432-.125,10.591-.209,17.591v-.026l.746,5.173c1.044,7.459,2.025,14.271,2.756,19.407v.1h-.1l-7.208,1.8-1.994.475-.522.115a.756.756,0,0,1-.2.021Z" transform="translate(-76.051 -131.636)" fill="#263238"/>
        <path id="パス_5266" data-name="パス 5266" d="M94.595,141.25s-11.483,5.669-13.874,9.03c-2.913,4.071,5.147,17.095,5.742,20.326.3,1.566,2.218,13.211,1.315,22.408a157.6,157.6,0,0,0-.689,18.4l37.06-2.986c0-6.462-1.67-11.447-2.782-19.652L118.59,162l-4.024-13.754-5.742-2.417Z" transform="translate(-74.755 -108.299)" fill="#284192"/>
        <path id="パス_5267" data-name="パス 5267" d="M152.544,172.38a1.044,1.044,0,0,1,.063.282c.037.219.078.491.13.82.11.71.251,1.738.418,3.012.334,2.547.757,6.071,1.169,9.97s.726,7.433.924,9.991c.1,1.284.177,2.318.219,3.038l.042.825a1.1,1.1,0,0,1,0,.287,1.044,1.044,0,0,1-.052-.282c-.026-.219-.057-.491-.1-.82-.073-.762-.177-1.785-.308-3.027-.261-2.61-.616-6.1-1.013-9.985s-.8-7.381-1.081-9.97c-.136-1.248-.245-2.271-.324-3.027l-.078-.82A.955.955,0,0,1,152.544,172.38Z" transform="translate(-109.387 -123.18)" fill="#263238"/>
        <path id="パス_5268" data-name="パス 5268" d="M91.853,168.75c-.057,0,0-.767-.256-1.968a9.667,9.667,0,0,0-5.778-7.052c-1.127-.475-1.89-.59-1.879-.642a1.879,1.879,0,0,1,.522.052,8.1,8.1,0,0,1,1.415.4,9.281,9.281,0,0,1,5.924,7.208,7.95,7.95,0,0,1,.11,1.467,1.926,1.926,0,0,1-.057.538Z" transform="translate(-76.596 -116.826)" fill="#263238"/>
        <path id="パス_5269" data-name="パス 5269" d="M133,228.166a3.346,3.346,0,0,1-.726-.1,18.764,18.764,0,0,1-1.931-.485,23,23,0,0,1-2.772-1.044,25.671,25.671,0,0,1-3.174-1.749,25.024,25.024,0,0,1-2.866-2.218,21.834,21.834,0,0,1-2.062-2.124,16.469,16.469,0,0,1-1.211-1.566,3.591,3.591,0,0,1-.386-.621c.047-.031.637.825,1.749,2.088a26.22,26.22,0,0,0,2.088,2.062,27.386,27.386,0,0,0,2.845,2.177,28.355,28.355,0,0,0,3.132,1.749,26.8,26.8,0,0,0,2.72,1.091C131.984,227.916,133.007,228.114,133,228.166Z" transform="translate(-92.815 -145.111)" fill="#263238"/>
        <g id="グループ_2292" data-name="グループ 2292" transform="translate(12.287 59.692)" opacity="0.3">
          <path id="パス_5270" data-name="パス 5270" d="M94.642,192.48c-2.385,14.2-1.174,29.231,2.49,43.131l.95-.073A174.953,174.953,0,0,0,94.642,192.48Z" transform="translate(-93.41 -192.48)"/>
        </g>
        <g id="グループ_2293" data-name="グループ 2293" transform="translate(30.061 83.943)" opacity="0.3">
          <path id="パス_5271" data-name="パス 5271" d="M127.46,238.94a32.885,32.885,0,0,0,12.23,2.485A3.637,3.637,0,0,1,136.7,242.7a9.5,9.5,0,0,1-3.367-.324c-2.088-.647-4.593-1.634-5.872-3.435" transform="translate(-127.46 -238.94)"/>
        </g>
        <path id="パス_5272" data-name="パス 5272" d="M122.1,146.2a2.416,2.416,0,0,1-.637.115,9.212,9.212,0,0,1-1.764,0,22.007,22.007,0,0,1-5.622-1.435c-2.124-.767-4.082-1.4-5.429-2.057a8.711,8.711,0,0,1-1.524-.893,2.74,2.74,0,0,1-.36-.324c-.073-.078-.11-.12-.1-.13s.183.146.522.365a11.029,11.029,0,0,0,1.566.809c1.347.605,3.3,1.206,5.434,1.973a25.007,25.007,0,0,0,5.549,1.514A20.46,20.46,0,0,0,122.1,146.2Z" transform="translate(-87.456 -108.409)" fill="#263238"/>
        <path id="パス_5273" data-name="パス 5273" d="M110.446,135.53a12.152,12.152,0,0,1,0,2.187,12.377,12.377,0,0,1-.12,2.182,6.973,6.973,0,0,1-.151-2.192A7.187,7.187,0,0,1,110.446,135.53Z" transform="translate(-89.123 -105.565)" fill="#263238"/>
        <path id="パス_5274" data-name="パス 5274" d="M121.024,137.85a16.12,16.12,0,0,1,.162,2.579,16.6,16.6,0,0,1,0,2.61,16.4,16.4,0,0,1-.162-5.188Z" transform="translate(-94.246 -106.674)" fill="#263238"/>
        <path id="パス_5275" data-name="パス 5275" d="M133.681,141a8.414,8.414,0,0,1,.224,2.537,8.075,8.075,0,0,1-.3,2.526,22.313,22.313,0,0,1,.026-2.532A21.4,21.4,0,0,1,133.681,141Z" transform="translate(-100.327 -108.18)" fill="#263238"/>
        <g id="グループ_2294" data-name="グループ 2294" transform="translate(19.778 33.441)" opacity="0.3">
          <path id="パス_5276" data-name="パス 5276" d="M107.76,142.2a7.843,7.843,0,0,0,3.335,2.443,24.627,24.627,0,0,0,5.251,2.088,9.917,9.917,0,0,0,5.585-.136,21.805,21.805,0,0,1-7.151-1.639c-2.3-.861-4.74-1.869-6.994-2.761" transform="translate(-107.76 -142.19)"/>
        </g>
        <path id="パス_5277" data-name="パス 5277" d="M198.678,131.361l-3.257.459-.376-4.411-.585-3.884.251-6.786L191.4,120.7a3.017,3.017,0,0,0-.485,1.425l-.339,11.938-.057,5.11,5.789,3.654-.12-6.112,1.341-1.441A5.788,5.788,0,0,0,198.678,131.361Z" transform="translate(-127.544 -96.583)" fill="#ffa8a7"/>
        <rect id="長方形_3451" data-name="長方形 3451" width="13.446" height="36.131" transform="translate(70.43 14.525)" fill="#263238"/>
        <rect id="長方形_3452" data-name="長方形 3452" width="13.446" height="36.131" transform="translate(66.802 14.525)" fill="#455a64"/>
        <path id="パス_5278" data-name="パス 5278" d="M210.315,119.933a3.033,3.033,0,1,1-3.033-3.033A3.033,3.033,0,0,1,210.315,119.933Z" transform="translate(-134.107 -96.659)" fill="#fff"/>
        <path id="パス_5279" data-name="パス 5279" d="M227.2,116.36a18.009,18.009,0,0,1-1.7,2.683,18.463,18.463,0,0,1-1.921,2.532,18.547,18.547,0,0,1,1.7-2.683A18.462,18.462,0,0,1,227.2,116.36Z" transform="translate(-143.347 -96.401)" fill="#455a64"/>
        <path id="パス_5280" data-name="パス 5280" d="M227.2,124a18.318,18.318,0,0,1-1.7,2.683,18.464,18.464,0,0,1-1.921,2.532,18.745,18.745,0,0,1,1.7-2.688A18.6,18.6,0,0,1,227.2,124Z" transform="translate(-143.347 -100.053)" fill="#455a64"/>
        <path id="パス_5281" data-name="パス 5281" d="M227.2,131.68a18.638,18.638,0,0,1-1.7,2.683,17.814,17.814,0,0,1-1.921,2.526,19.217,19.217,0,0,1,1.7-2.683,18.6,18.6,0,0,1,1.921-2.526Z" transform="translate(-143.347 -103.725)" fill="#455a64"/>
        <path id="パス_5282" data-name="パス 5282" d="M227.2,139.34a18.638,18.638,0,0,1-1.7,2.683,18.194,18.194,0,0,1-1.921,2.526,19.217,19.217,0,0,1,1.7-2.683A18.2,18.2,0,0,1,227.2,139.34Z" transform="translate(-143.347 -107.386)" fill="#455a64"/>
        <path id="パス_5283" data-name="パス 5283" d="M227.2,147a37.429,37.429,0,0,1-3.622,5.209,19.217,19.217,0,0,1,1.7-2.683A17.816,17.816,0,0,1,227.2,147Z" transform="translate(-143.347 -111.048)" fill="#455a64"/>
        <path id="パス_5284" data-name="パス 5284" d="M227.2,154.65a18.008,18.008,0,0,1-1.7,2.683,18.463,18.463,0,0,1-1.921,2.532,19.216,19.216,0,0,1,1.7-2.683A18.464,18.464,0,0,1,227.2,154.65Z" transform="translate(-143.347 -114.705)" fill="#455a64"/>
        <path id="パス_5285" data-name="パス 5285" d="M227.2,162.31a18.009,18.009,0,0,1-1.7,2.683,18.463,18.463,0,0,1-1.921,2.532,37.9,37.9,0,0,1,3.623-5.215Z" transform="translate(-143.347 -118.366)" fill="#455a64"/>
        <path id="パス_5286" data-name="パス 5286" d="M227.133,109.61a18.638,18.638,0,0,1-1.7,2.683,18.194,18.194,0,0,1-1.921,2.526,18.64,18.64,0,0,1,1.7-2.683,18.594,18.594,0,0,1,1.921-2.526Z" transform="translate(-143.314 -93.175)" fill="#455a64"/>
        <path id="パス_5287" data-name="パス 5287" d="M225.86,106a13.3,13.3,0,0,1-2.14,3.085A13.294,13.294,0,0,1,225.86,106Z" transform="translate(-143.414 -91.449)" fill="#455a64"/>
        <path id="パス_5288" data-name="パス 5288" d="M192.59,130.131a24.8,24.8,0,0,1,2.61-3.748,3.487,3.487,0,0,1,1.112-.976,1.321,1.321,0,0,1,1.409.1,1.388,1.388,0,0,1,.235,1.566,5.424,5.424,0,0,1-1.013,1.352,2.751,2.751,0,0,0-.793,1.472,4.531,4.531,0,0,0,.287,1.566,5.126,5.126,0,0,1-1.336,4.792" transform="translate(-128.533 -100.652)" fill="#ffa8a7"/>
        <path id="パス_5289" data-name="パス 5289" d="M195.1,136.152s.172-.214.449-.616a5.188,5.188,0,0,0,.8-1.869,5.043,5.043,0,0,0,.1-1.4,6.988,6.988,0,0,0-.339-1.566,2.5,2.5,0,0,1-.094-.934,2.187,2.187,0,0,1,.36-.919c.355-.559.877-.987,1.232-1.519a1.858,1.858,0,0,0,.334-.851,1.044,1.044,0,0,0-1.676-.976,4.552,4.552,0,0,0-1.159,1.1c-.329.4-.626.772-.887,1.122-.522.7-.924,1.289-1.19,1.7a4.319,4.319,0,0,1-.438.632,3.553,3.553,0,0,1,.339-.689,19.873,19.873,0,0,1,1.122-1.759,13.97,13.97,0,0,1,.872-1.154,4.572,4.572,0,0,1,1.211-1.174,1.7,1.7,0,0,1,.929-.235,1.18,1.18,0,0,1,.908.454,1.749,1.749,0,0,1-.125,2c-.391.579-.908,1-1.237,1.514a1.978,1.978,0,0,0-.318.8,2.135,2.135,0,0,0,.078.83,6.89,6.89,0,0,1,.318,1.639,4.969,4.969,0,0,1-.141,1.456,4.912,4.912,0,0,1-.908,1.895,2.774,2.774,0,0,1-.381.423A.686.686,0,0,1,195.1,136.152Z" transform="translate(-128.533 -100.549)" fill="#f28f8f"/>
        <path id="パス_5470" data-name="パス 5470" d="M146.812,107.585c.31-2.294-1.147-5.241-1.528-7.443a9.648,9.648,0,0,1,.157-5.4c.381-1,1.455-2.178,2.3-2.232a4.964,4.964,0,0,1,5.319-4.817,16.771,16.771,0,0,0,2.27.07c.928-.086,1.32-.688,2.159-1.044,1.441-.61,3.365-.032,3.638,1.657,1.066-.742,2.086-.4,3.179.27a2.124,2.124,0,0,1,.839,2.777,2.231,2.231,0,0,1,2.826,2.159c-.108.723-.437,1.258-.178,2.016a1.112,1.112,0,0,0,1.722.672c-.143,1.031-.758,1.657-1.8,1.271a2.321,2.321,0,0,1-.3,1.954,2.127,2.127,0,0,1-2.272.826,3.6,3.6,0,0,1-.936,1.349,3.708,3.708,0,0,1-1.6.737,22.839,22.839,0,0,1-5.541-.224l-2.189-.216c-.127,0-.758-.17-.866-.086Z" transform="translate(-128.259 -90.216)" fill="#263238"/>
      </g>
      <g id="freepik--character-3--inject-3" transform="translate(163.852 63.956)">
        <path id="パス_5290" data-name="パス 5290" d="M354.537,237.78c-.752.418-7.757.5-7.757.5l.282,5.622,13.926,1.357Z" transform="translate(-314.907 -170.302)" fill="#284192"/>
        <path id="パス_5291" data-name="パス 5291" d="M289.5,229.38a2.354,2.354,0,0,0-.48,1.091c0,.438,12.183,9.369,14.678,11.2a1.707,1.707,0,0,0,1,.324h16.729l.089-1.331s-15.278-10.894-15.571-10.862S289.5,229.38,289.5,229.38Z" transform="translate(-287.297 -166.287)" fill="#263238"/>
        <path id="パス_5292" data-name="パス 5292" d="M307.857,231.144c-.224,0-14.767-.2-14.767-.2s11.045,8.3,12.992,9.724a1.326,1.326,0,0,0,.772.251l15.44.3Z" transform="translate(-289.242 -167.032)" fill="#fafafa"/>
        <path id="パス_5293" data-name="パス 5293" d="M334.949,236.911h-1.169s-4.244-3.132-4.7-3.215c-.188-.042-3.455-.485-3.455-.485l-3.654,1.409s-.193.825,1.268.976a7.25,7.25,0,0,0,3.132-.632,37.828,37.828,0,0,0,4.651,4c1.388.772,4.077,1.983,4.077,1.983Z" transform="translate(-303.045 -168.117)" fill="#ffbe9d"/>
        <g id="グループ_2295" data-name="グループ 2295" transform="translate(31.873 67.478)" opacity="0.3">
          <path id="パス_5294" data-name="パス 5294" d="M354.537,237.78c-.752.418-7.757.5-7.757.5l.282,5.622,13.926,1.357Z" transform="translate(-346.78 -237.78)"/>
        </g>
        <path id="パス_5295" data-name="パス 5295" d="M375.554,376.86l6.681,16.181-20.091,8.425c-.689-1.968,8.091-10.173,8.091-10.173l-4.7-10.194Z" transform="translate(-322.234 -236.786)" fill="#284192"/>
        <g id="グループ_2296" data-name="グループ 2296" transform="translate(53.112 151.018)" opacity="0.6">
          <path id="パス_5296" data-name="パス 5296" d="M388.211,397.833a.882.882,0,0,1,.955.7.851.851,0,0,1-.684.955.94.94,0,0,1-1.013-.746c0-.433.392-.955.825-.913" transform="translate(-387.47 -397.825)" fill="#fff"/>
        </g>
        <path id="パス_5297" data-name="パス 5297" d="M382.177,406.364l-.679-1.634-19.047,8.7s-.731.762-.365,1.352Z" transform="translate(-322.175 -250.108)" fill="#fff"/>
        <path id="パス_5298" data-name="パス 5298" d="M376.994,404.244c.042.094.553-.068,1.169.047s1.044.418,1.117.339-.308-.579-1.044-.7S376.921,404.161,376.994,404.244Z" transform="translate(-329.347 -249.711)" fill="#263238"/>
        <path id="パス_5299" data-name="パス 5299" d="M373.639,407.783c0,.1.522.089,1.018.365s.788.673.882.632-.073-.626-.71-.96S373.6,407.684,373.639,407.783Z" transform="translate(-327.745 -251.496)" fill="#263238"/>
        <path id="パス_5300" data-name="パス 5300" d="M372,412.427c.1,0,.031-.564-.449-1s-1.044-.454-1.044-.355.4.266.788.626S371.9,412.458,372,412.427Z" transform="translate(-326.251 -253.118)" fill="#263238"/>
        <path id="パス_5301" data-name="パス 5301" d="M375.408,399.042c.078.073.47-.251,1.044-.449s1.075-.2,1.091-.3-.522-.282-1.211-.047S375.325,398.985,375.408,399.042Z" transform="translate(-328.586 -246.952)" fill="#263238"/>
        <path id="パス_5302" data-name="パス 5302" d="M374.42,392.448a2.051,2.051,0,0,0,1-.428,4.855,4.855,0,0,0,1.368-1.315,1.284,1.284,0,0,0,.2-.36.459.459,0,0,0-.172-.522.585.585,0,0,0-.522-.042,1.414,1.414,0,0,0-.355.209,3.654,3.654,0,0,0-.522.475,4.137,4.137,0,0,0-.7.976,1.916,1.916,0,0,0-.251,1.044c.063,0,.157-.386.485-.94a4.257,4.257,0,0,1,.684-.882,4.461,4.461,0,0,1,.522-.423c.193-.141.371-.219.465-.151s.047.042.026.125a1.043,1.043,0,0,1-.151.266,6.233,6.233,0,0,1-.4.522,5.84,5.84,0,0,1-.82.778,7.931,7.931,0,0,0-.861.668Z" transform="translate(-328.12 -242.942)" fill="#263238"/>
        <path id="パス_5303" data-name="パス 5303" d="M372.562,392.426a1.722,1.722,0,0,0-.141-1.08,3.5,3.5,0,0,0-.6-1.044,3.617,3.617,0,0,0-.522-.522.9.9,0,0,0-.856-.235.522.522,0,0,0-.3.454,1.414,1.414,0,0,0,.052.412,2.475,2.475,0,0,0,.282.679,2.563,2.563,0,0,0,.866.861,1.4,1.4,0,0,0,1.044.261,8.678,8.678,0,0,1-.919-.48,2.516,2.516,0,0,1-.715-.814,2.163,2.163,0,0,1-.224-.59c-.057-.224-.052-.433.037-.444a.632.632,0,0,1,.491.183,3.558,3.558,0,0,1,.48.444,3.838,3.838,0,0,1,.611.919C372.452,392.024,372.5,392.436,372.562,392.426Z" transform="translate(-326.074 -242.836)" fill="#263238"/>
        <path id="パス_5304" data-name="パス 5304" d="M331.754,389.46l5.883,16.489-20.472,7.422c-.59-2,8.576-9.766,8.576-9.766l-4.2-10.408Z" transform="translate(-300.738 -242.809)" fill="#284192"/>
        <g id="グループ_2297" data-name="グループ 2297" transform="translate(30.234 157.607)" opacity="0.6">
          <path id="パス_5305" data-name="パス 5305" d="M344.423,410.455a.893.893,0,0,1,.924.746.861.861,0,0,1-.731.924.945.945,0,0,1-.976-.793c0-.438.433-.94.867-.877" transform="translate(-343.64 -410.45)" fill="#fff"/>
        </g>
        <path id="パス_5306" data-name="パス 5306" d="M337.575,419.525l-.59-1.665-19.459,7.757s-.767.731-.433,1.331Z" transform="translate(-300.676 -256.385)" fill="#fff"/>
        <path id="パス_5307" data-name="パス 5307" d="M332.916,416.316c.037.1.553-.037,1.164.1s1.044.47,1.1.4-.277-.6-1.018-.757S332.859,416.232,332.916,416.316Z" transform="translate(-308.278 -255.503)" fill="#263238"/>
        <path id="パス_5308" data-name="パス 5308" d="M329.419,419.677c0,.1.522.115,1,.418s.757.71.851.668-.042-.626-.663-.987S329.388,419.578,329.419,419.677Z" transform="translate(-306.608 -257.194)" fill="#263238"/>
        <path id="パス_5309" data-name="パス 5309" d="M327.574,424.212c.1,0,.057-.564-.4-1.018s-1-.522-1.013-.4.386.287.752.663S327.47,424.238,327.574,424.212Z" transform="translate(-305.05 -258.717)" fill="#263238"/>
        <path id="パス_5310" data-name="パス 5310" d="M331.571,411.073c.078.078.485-.224,1.044-.391s1.086-.151,1.107-.256-.522-.308-1.211-.1S331.5,411.016,331.571,411.073Z" transform="translate(-307.632 -252.74)" fill="#263238"/>
        <path id="パス_5311" data-name="パス 5311" d="M330.83,404.451a2.088,2.088,0,0,0,1.044-.376,4.871,4.871,0,0,0,.955-.72,5.223,5.223,0,0,0,.475-.522,1.223,1.223,0,0,0,.219-.35.459.459,0,0,0-.146-.548.6.6,0,0,0-.522-.073,1.565,1.565,0,0,0-.365.193,4.4,4.4,0,0,0-.553.449,3.854,3.854,0,0,0-.72.966,1.8,1.8,0,0,0-.3,1.044c.057,0,.172-.381.522-.919a4.272,4.272,0,0,1,.726-.846,4.564,4.564,0,0,1,.522-.4c.2-.136.381-.2.475-.125s.037.042,0,.12a1.148,1.148,0,0,1-.162.261,6.048,6.048,0,0,1-.428.522,6.373,6.373,0,0,1-.856.741A7.9,7.9,0,0,0,330.83,404.451Z" transform="translate(-307.283 -248.723)" fill="#263238"/>
        <path id="パス_5312" data-name="パス 5312" d="M329.065,404.307a1.717,1.717,0,0,0-.094-1.044,3.654,3.654,0,0,0-1.044-1.6.9.9,0,0,0-.84-.277.522.522,0,0,0-.329.438,1.723,1.723,0,0,0,.031.418,2.569,2.569,0,0,0,.251.689,2.479,2.479,0,0,0,.825.9,1.4,1.4,0,0,0,1.044.318,9.24,9.24,0,0,1-.9-.522,2.563,2.563,0,0,1-.673-.846,2.245,2.245,0,0,1-.193-.6c-.047-.23-.031-.433.057-.438a.811.811,0,0,1,.48.2,3.856,3.856,0,0,1,.459.465,4.075,4.075,0,0,1,.569.95C328.971,403.916,329,404.307,329.065,404.307Z" transform="translate(-305.335 -248.5)" fill="#263238"/>
        <path id="パス_5313" data-name="パス 5313" d="M359.525,120.44a3.377,3.377,0,0,0-.9,2.866c.084,1.039.4,2.046.418,3.085.042,2.01-1.013,3.925-.971,5.94s1.169,3.878,1.357,5.893c.183,1.905,2.391,3.33,1.916,5.183s-3.612,4.353-2.683,6.029a1.6,1.6,0,0,0,.752.757,1.879,1.879,0,0,0,1.044,0l4.807-.908a3.168,3.168,0,0,0,1.649-.663,2.865,2.865,0,0,0,.668-1.843c.4-4.035-.522-8.065-1.044-12.084a57.31,57.31,0,0,1-.037-14.151" transform="translate(-320.303 -114.211)" fill="#263238"/>
        <path id="パス_5314" data-name="パス 5314" d="M373.37,172.49Z" transform="translate(-327.618 -139.092)" fill="#ffbe9d"/>
        <path id="パス_5315" data-name="パス 5315" d="M361.6,121.824a9.338,9.338,0,0,1,8.78-9.239,9.067,9.067,0,0,1,9.61,8.874l-.219,20.441a1.743,1.743,0,0,1-.386,1.086,8.352,8.352,0,0,1-5.533,3.007,8.7,8.7,0,0,1-5.262-1.514,1.738,1.738,0,0,1-.778-1.566l.235-4.562s0-.031-.026-.031a6.467,6.467,0,0,1-1.274-.125c-1.185-.381-4.176-1.775-4.891-6.358A86.07,86.07,0,0,1,361.6,121.824Z" transform="translate(-321.982 -110.448)" fill="#ffa8a7"/>
        <path id="パス_5321" data-name="パス 5321" d="M373.858,160.056a13.08,13.08,0,0,0,7.026-2.046s-1.253,4.045-7.1,3.5Z" transform="translate(-327.814 -132.17)" fill="#f28f8f"/>
        <path id="パス_5326" data-name="パス 5326" d="M376.5,109.573a2.746,2.746,0,0,1,2.156-1.044c3.6-.287,7.433,2.14,9.218,5.282a11.914,11.914,0,0,1-.115,10.821l-1.352.136c-2.777-.36-6.916-8.451-10.518-13.013C375.442,111.207,376.089,110.168,376.5,109.573Z" transform="translate(-328.75 -108.506)" fill="#263238"/>
        <path id="パス_5327" data-name="パス 5327" d="M361.723,111.752c1.613-1.566,4.176-3.492,7.193-2.088.4.9-.6,1.957-1.415,2.563-1.19.882-2.218,1.467-3,2.088-1.592,1.284-3.6,3.461-3.925,6.008,0,.157-.141.172-.3.136a5.041,5.041,0,0,1-.762-2.526A6.75,6.75,0,0,1,361.723,111.752Z" transform="translate(-320.966 -108.827)" fill="#263238"/>
        <path id="パス_5328" data-name="パス 5328" d="M394.619,136.289c.083-.042,3.471-1.112,3.435,2.37s-3.518,2.725-3.523,2.61S394.619,136.289,394.619,136.289Z" transform="translate(-337.733 -121.697)" fill="#ffbe9d"/>
        <path id="パス_5329" data-name="パス 5329" d="M396.587,141a.992.992,0,0,0,.162.089.621.621,0,0,0,.454,0,1.514,1.514,0,0,0,.7-1.341,1.948,1.948,0,0,0-.162-.866.694.694,0,0,0-.449-.47.3.3,0,0,0-.36.162c-.047.094-.026.167-.047.172s-.073-.063-.042-.2a.376.376,0,0,1,.141-.214.443.443,0,0,1,.334-.089.851.851,0,0,1,.626.522,2.088,2.088,0,0,1,.2.971,1.566,1.566,0,0,1-.9,1.493.642.642,0,0,1-.553-.1C396.593,141.081,396.577,141,396.587,141Z" transform="translate(-338.715 -122.715)" fill="#eb996e"/>
        <path id="パス_5330" data-name="パス 5330" d="M301.182,153.423l-5.115,2.641-2.051-3.445a16.239,16.239,0,0,1-2.693-1.937l-1.822-2.088a1.9,1.9,0,0,1-.459-1.655.553.553,0,0,1,.157-.324l.522-.887s-.277-1.268-.355-2.088a6.106,6.106,0,0,1,.6-2.265l-1.91-4.092a1.044,1.044,0,0,1,.151-1.159.454.454,0,0,1,.637-.089,23.5,23.5,0,0,1,2.552,3.748l.7.684.9.146s-.266-1.274.287-1.566l2.61,1.879,2.151,3.012s.428,4.353,1,5.517S301.182,153.423,301.182,153.423Z" transform="translate(-286.78 -121.622)" fill="#ffa8a7"/>
        <path id="パス_5331" data-name="パス 5331" d="M293.161,149.641a5.14,5.14,0,0,1-.919-1.529,5.293,5.293,0,0,1-.522-1.712c.052,0,.261.752.652,1.644S293.2,149.615,293.161,149.641Z" transform="translate(-288.587 -126.62)" fill="#f28f8f"/>
        <path id="パス_5332" data-name="パス 5332" d="M291.579,154.874a2.015,2.015,0,0,1-.407-.9A2.7,2.7,0,0,1,291,153a3.174,3.174,0,0,1,.339.919A6.023,6.023,0,0,1,291.579,154.874Z" transform="translate(-288.243 -129.775)" fill="#f28f8f"/>
        <path id="パス_5333" data-name="パス 5333" d="M293.67,142a8.839,8.839,0,0,1,.605.825c.365.522.882,1.211,1.472,1.963.3.376.585.731.851,1.044a3.4,3.4,0,0,0,.783.741,1.629,1.629,0,0,0,.95.251.522.522,0,0,1-.277.057,1.566,1.566,0,0,1-.731-.2,3.216,3.216,0,0,1-.84-.746c-.271-.313-.569-.668-.866-1.044-.6-.752-1.1-1.467-1.441-2a4.849,4.849,0,0,1-.506-.887Z" transform="translate(-289.519 -124.517)" fill="#f28f8f"/>
        <path id="パス_5334" data-name="パス 5334" d="M299.5,147.033c-.026,0-.078-.251-.235-.621a3.652,3.652,0,0,0-.913-1.274,4.356,4.356,0,0,1-.663-.605,1.279,1.279,0,0,1-.282-.694,1.445,1.445,0,0,1,.037-.679c.031,0,0,.261.078.658a1.284,1.284,0,0,0,.282.616,4.945,4.945,0,0,0,.658.579,3.346,3.346,0,0,1,.913,1.352A1.623,1.623,0,0,1,299.5,147.033Z" transform="translate(-291.295 -125.071)" fill="#f28f8f"/>
        <path id="パス_5335" data-name="パス 5335" d="M381.114,208.6v-9.046s.971-14.093.971-18.426-5.115-13.963-5.115-13.963l-8.383.256-6.17.136c-.063,0-10.189,9.813-10.189,9.813a28.855,28.855,0,0,0-1.723,12.694,23.183,23.183,0,0,0,.715,3.534l2.177,8.519s1.216,5.684,1.639,7.652c.329,1.566,17.554.809,25.055.668C381.871,210.405,381.114,208.6,381.114,208.6Z" transform="translate(-316.634 -136.549)" fill="#284192"/>
        <path id="パス_5336" data-name="パス 5336" d="M305.9,162s10.747,15.367,11.118,15.367,12.935-8.847,12.935-8.847,5.5-4.082,8.832-3.341-.924,15.424-.924,15.424-17.225,9.8-23.009,10.288-13.284-22.706-13.284-22.706l-.987-1.326Z" transform="translate(-292.823 -134.077)" fill="#284192"/>
        <path id="パス_5337" data-name="パス 5337" d="M359.625,199.55a1.494,1.494,0,0,1-.277.172l-.814.459-3.027,1.639-2.088,1.117c-.381.2-.757.418-1.185.611a7.1,7.1,0,0,0-1.216.637,1.315,1.315,0,0,0-.574,1.164,8.041,8.041,0,0,0,.214,1.493c.214,1.018.522,2.046.778,3.132.9,4.338,2.01,8.2,2.7,11.024.35,1.409.611,2.552.778,3.351.073.376.136.679.183.919a2.292,2.292,0,0,1,.047.324,1.2,1.2,0,0,1-.1-.313q-.094-.35-.235-.908c-.209-.82-.522-1.947-.861-3.325-.731-2.808-1.869-6.666-2.777-11.014-.235-1.044-.564-2.088-.773-3.132a7.745,7.745,0,0,1-.209-1.566,1.566,1.566,0,0,1,.162-.783,1.7,1.7,0,0,1,.522-.579l4.552-2.338,3.069-1.566.835-.412a1.113,1.113,0,0,1,.3-.1Z" transform="translate(-316.535 -152.027)" fill="#263238"/>
        <path id="パス_5338" data-name="パス 5338" d="M331.011,197.046a8.466,8.466,0,0,1,.381-5.716c.078,0-.318,1.263-.418,2.845S331.095,197.03,331.011,197.046Z" transform="translate(-307.213 -148.098)" fill="#263238"/>
        <path id="パス_5339" data-name="パス 5339" d="M326.75,196.207a5.334,5.334,0,0,1,.866-2.7,5.773,5.773,0,0,1,1.91-2.088,24.445,24.445,0,0,0-1.676,2.234A17.78,17.78,0,0,0,326.75,196.207Z" transform="translate(-305.332 -148.141)" fill="#263238"/>
        <path id="パス_5340" data-name="パス 5340" d="M372,182.017c-.047,0,.115-.642.2-1.67a12.45,12.45,0,0,0-.318-3.993,12.611,12.611,0,0,0-1.566-3.68c-.559-.872-.992-1.347-.955-1.383a1.7,1.7,0,0,1,.334.313,7.784,7.784,0,0,1,.778.96,11.269,11.269,0,0,1,1.931,7.83,7.388,7.388,0,0,1-.24,1.216A1.626,1.626,0,0,1,372,182.017Z" transform="translate(-325.699 -138.518)" fill="#263238"/>
        <g id="グループ_2298" data-name="グループ 2298" transform="translate(51.242 33.816)" opacity="0.3">
          <path id="パス_5341" data-name="パス 5341" d="M395.576,176.046a5.433,5.433,0,0,1-1.007-2.756l-10.5,2.359a3.227,3.227,0,0,0,.846,3.341,9.25,9.25,0,0,0,3.074,1.91,7.292,7.292,0,0,0,4.306.945,6.3,6.3,0,0,0,2.673-1.467,3.518,3.518,0,0,0,1.227-1.514A3.611,3.611,0,0,0,395.576,176.046Z" transform="translate(-383.888 -173.29)"/>
        </g>
        <g id="グループ_2299" data-name="グループ 2299" transform="translate(34.112 45.853)" opacity="0.3">
          <path id="パス_5342" data-name="パス 5342" d="M351.451,202.431l-.381.449a9.077,9.077,0,0,0,10.721-6.53A43.65,43.65,0,0,1,351.451,202.431Z" transform="translate(-351.07 -196.35)"/>
        </g>
        <g id="グループ_2300" data-name="グループ 2300" transform="translate(19.622 43.274)" opacity="0.3">
          <path id="パス_5343" data-name="パス 5343" d="M327.882,191.41c-2.166.825-4.317,3.132-4.552,5.429a1.253,1.253,0,0,0,.047.637.522.522,0,0,0,.5.35c.324-.031.47-.418.553-.731a14.151,14.151,0,0,1,3.456-5.684Z" transform="translate(-323.309 -191.41)"/>
        </g>
        <path id="パス_5344" data-name="パス 5344" d="M396.855,142.354a5.4,5.4,0,0,1-2.61-5.512,29.338,29.338,0,0,1,1.3-3.654,3.735,3.735,0,0,0-.407-3.654,12.465,12.465,0,0,0-1.926-1.326,4.922,4.922,0,0,1-1.649-2.61c-.052-1,0-2.03,0-3.033a12.668,12.668,0,0,0-10.507-12.005l-5.481,1.978a13.994,13.994,0,0,0,3.132,6.786,30.216,30.216,0,0,1,2.438,2.866,4.147,4.147,0,0,1,.652,3.576c-.376,1.044-1.331,1.8-1.691,2.85-.72,2.088,1.1,4.259.762,6.42a4.536,4.536,0,0,1-.752,1.775,10.268,10.268,0,0,1-1.409.444,10.038,10.038,0,0,0-2.813.94A2.787,2.787,0,0,0,374.4,140.6a44.434,44.434,0,0,1,6.974.031c-1.566,2.088-2.766,5.888-2.3,6.352.611.611,5,1.66,5.867,1.728,3.654.277,2.881-2.135,6.493-2.61a1.9,1.9,0,0,0,1.028-.344,1.785,1.785,0,0,0,.345-1.566c-.125-1.044-.4-2.088-.606-3.132a5.554,5.554,0,0,0,4.656,1.289Z" transform="translate(-328.11 -109.488)" fill="#263238"/>
        <path id="パス_5346" data-name="パス 5346" d="M347.728,258.216l-2.265-.146c-.913,1.1-1.477,2.464-2.412,3.549a8.874,8.874,0,0,1-3.837,2.469,26.352,26.352,0,0,1-4.494,1.044,5.181,5.181,0,0,0,.2,1.419,1.743,1.743,0,0,0,.887,1.076,2.443,2.443,0,0,0,1.315.083,24.665,24.665,0,0,0,6.859-1.916,6.844,6.844,0,0,0,3.1-2.271C348.077,262,347.916,260.022,347.728,258.216Z" transform="translate(-309.142 -180.001)" fill="#455a64"/>
        <path id="パス_5347" data-name="パス 5347" d="M333.29,313.138c.4.47,19.214,43.423,19.214,43.423s12.741-5.345,12.428-5.815S349.732,312,349.732,312Z" transform="translate(-308.459 -205.781)" fill="#263238"/>
        <path id="パス_5348" data-name="パス 5348" d="M349.786,249.787l-25.378-.157-.339,5.6c-1.409,3.21-2.772,4.849-4.656,5.46-7.7,2.505-27.388,8.973-30.233,10.648-3.555,2.088-3.038,7.584-3.456,11.343s20.618,50.334,20.618,50.334L320.9,326.8l-11.885-37.922-.835-4.807,40.276-.579s7.673-1.921,7.464-12.574S349.786,249.787,349.786,249.787Z" transform="translate(-285.718 -175.967)" fill="#263238"/>
        <path id="パス_5349" data-name="パス 5349" d="M387.888,285.38a3.7,3.7,0,0,1,.172.741,11.251,11.251,0,0,1,.162,2.088,12.773,12.773,0,0,1-6.786,11.212,11.447,11.447,0,0,1-1.9.82,3.316,3.316,0,0,1-.736.193,24.959,24.959,0,0,0,2.542-1.18A13.1,13.1,0,0,0,388,288.2,25.494,25.494,0,0,0,387.888,285.38Z" transform="translate(-330.214 -193.056)" fill="#284192"/>
        <path id="パス_5350" data-name="パス 5350" d="M356.935,250.915a2.709,2.709,0,0,0-2.636.157,2.046,2.046,0,0,0-.673,1.937,2.86,2.86,0,0,0,1.154,1.749,1.93,1.93,0,0,0,2.177.245,1.717,1.717,0,0,0,.642-1.18,4.9,4.9,0,0,0-.057-1.378,3.131,3.131,0,0,0-.355-1.248,1.044,1.044,0,0,0-1.107-.522" transform="translate(-318.162 -176.448)" fill="#455a64"/>
        <path id="パス_5351" data-name="パス 5351" d="M385.3,249.2a92.4,92.4,0,0,1,4.327,12.24,30.6,30.6,0,0,1,.726,12.877c-.522,2.96-1.268,6.415-3.816,8.018a4.841,4.841,0,0,1-3.132,1.091c-4.745.251-13.263.1-18.008-.068-2.291-.084-5.22.214-7.516.13,6.916-6.039,10.988-16.181,9.458-25.227a5.557,5.557,0,0,0-1.79-3.716,6.59,6.59,0,0,0-3.622-.861c-1.258-.068-1.566.24-2.725.24-1.738,0-1.493-4.176-.271-4.5Z" transform="translate(-320.213 -175.761)" fill="#455a64"/>
        <path id="パス_5352" data-name="パス 5352" d="M391.1,285a4.348,4.348,0,0,1-.2.715c-.146.454-.386,1.107-.715,1.9a35.189,35.189,0,0,1-3.174,5.893,34.73,34.73,0,0,1-4.249,5.173c-.611.605-1.122,1.075-1.488,1.383a3.6,3.6,0,0,1-.585.459,4.7,4.7,0,0,1,.522-.522c.345-.329.835-.82,1.42-1.435a39.069,39.069,0,0,0,7.386-11.014c.35-.778.616-1.415.793-1.858A3.789,3.789,0,0,1,391.1,285Z" transform="translate(-331.117 -192.874)" fill="#263238"/>
        <path id="パス_5353" data-name="パス 5353" d="M395.7,298.269a2.024,2.024,0,0,1-.277.449c-.193.277-.522.668-.882,1.133A26.042,26.042,0,0,1,391.2,303.2a26.531,26.531,0,0,1-3.889,2.7c-.522.3-.96.522-1.268.663a1.963,1.963,0,0,1-.491.193c0-.037.637-.391,1.665-1.044a33.817,33.817,0,0,0,3.81-2.74A33.408,33.408,0,0,0,394.4,299.7C395.207,298.828,395.666,298.243,395.7,298.269Z" transform="translate(-333.44 -199.217)" fill="#263238"/>
        <path id="パス_5354" data-name="パス 5354" d="M388.96,314.526c0,.073-6.378.136-14.245.136s-14.255-.063-14.255-.136,6.384-.136,14.255-.136S388.96,314.447,388.96,314.526Z" transform="translate(-321.447 -206.923)" fill="#263238"/>
        <path id="パス_5355" data-name="パス 5355" d="M376.161,261.763c-.037.037-.647-.522-1.743-1.247a18.6,18.6,0,0,0-2.01-1.143,19.692,19.692,0,0,0-2.61-1.044,19.283,19.283,0,0,0-2.761-.585,17.412,17.412,0,0,0-2.307-.141c-1.321,0-2.135.136-2.14.089a2.166,2.166,0,0,1,.564-.125,11.394,11.394,0,0,1,1.566-.157,15.539,15.539,0,0,1,2.338.089,17.813,17.813,0,0,1,2.813.569,18.086,18.086,0,0,1,2.667,1.044,16.143,16.143,0,0,1,2.01,1.211,11.849,11.849,0,0,1,1.227.987,2.579,2.579,0,0,1,.386.454Z" transform="translate(-322.465 -179.68)" fill="#263238"/>
        <path id="パス_5356" data-name="パス 5356" d="M388.307,260.5a5.364,5.364,0,0,1-1.227-.167c-.752-.141-1.785-.371-2.913-.684s-2.13-.642-2.85-.908a5.01,5.01,0,0,1-1.138-.491,6.264,6.264,0,0,1,1.2.308c.731.219,1.738.522,2.86.83s2.14.569,2.881.757A5.832,5.832,0,0,1,388.307,260.5Z" transform="translate(-330.873 -180.087)" fill="#263238"/>
        <path id="パス_5357" data-name="パス 5357" d="M358.912,254.17a1.4,1.4,0,0,1-.809-.355,2.667,2.667,0,0,1-1.044-1.837,2.7,2.7,0,0,1,.652-2.025,1.658,1.658,0,0,1,.72-.522,4.852,4.852,0,0,0-.569.632,2.61,2.61,0,0,0,.381,3.6C358.615,254.013,358.933,254.123,358.912,254.17Z" transform="translate(-319.815 -175.871)" fill="#263238"/>
        <path id="パス_5358" data-name="パス 5358" d="M356.167,255.006c0,.078-.444.063-.908.271s-.752.522-.82.475.157-.491.71-.726A1.1,1.1,0,0,1,356.167,255.006Z" transform="translate(-318.563 -178.487)" fill="#263238"/>
        <path id="パス_5359" data-name="パス 5359" d="M357.253,254.9s0,.141-.2.292a1.44,1.44,0,0,1-.929.266,2.787,2.787,0,0,1-1.362-.444,2.61,2.61,0,0,1-1.091-1.373,2.459,2.459,0,0,1,.083-1.754,2.088,2.088,0,0,1,1.013-1.013,1.854,1.854,0,0,1,.945-.183c.23,0,.344.073.339.089a2.61,2.61,0,0,0-1.2.266,1.962,1.962,0,0,0-.872.945,2.229,2.229,0,0,0-.052,1.566,2.4,2.4,0,0,0,.971,1.248,2.766,2.766,0,0,0,1.232.459,1.446,1.446,0,0,0,.856-.162C357.17,255,357.232,254.887,357.253,254.9Z" transform="translate(-318.141 -176.474)" fill="#263238"/>
        <g id="グループ_2301" data-name="グループ 2301" transform="translate(42.156 77.892)" opacity="0.3">
          <path id="パス_5360" data-name="パス 5360" d="M379.942,263.989h0a4.176,4.176,0,0,0-1.274-1.717c-3.184-2.907-8.211-4.99-12.188-4.458a16.52,16.52,0,0,1,8.007,2.9,28.306,28.306,0,0,1,3.957,4.066.861.861,0,0,0,1.5-.788Z" transform="translate(-366.48 -257.73)"/>
        </g>
        <g id="グループ_2302" data-name="グループ 2302" transform="translate(52.225 99.433)" opacity="0.3">
          <path id="パス_5361" data-name="パス 5361" d="M395.562,299a29.806,29.806,0,0,1-9.792,8.049c2.135-.4,4.823-.919,6.593-2.171C394.242,303.552,395.808,301.271,395.562,299Z" transform="translate(-385.77 -299)"/>
        </g>
      </g>
      <g id="freepik--character-2--inject-3" transform="translate(108.022 90.442)">
        <path id="パス_5362" data-name="パス 5362" d="M178.76,421.194l3.1-.047L188.709,361l-3.054-.355Z" transform="translate(-178.76 -255.523)" fill="#455a64"/>
        <path id="パス_5363" data-name="パス 5363" d="M213.58,421.194l3.1-.047L223.529,361l-3.054-.355Z" transform="translate(-195.405 -255.523)" fill="#455a64"/>
        <path id="パス_5364" data-name="パス 5364" d="M309.419,421.915l-3.1-.047L299.47,362.28l3.054-.35Z" transform="translate(-236.462 -256.135)" fill="#455a64"/>
        <path id="パス_5365" data-name="パス 5365" d="M271.129,421.915l-3.1-.047L261.18,362.28l3.054-.35Z" transform="translate(-218.159 -256.135)" fill="#455a64"/>
        <rect id="長方形_3453" data-name="長方形 3453" width="62.554" height="6.483" transform="translate(67.382 115.442) rotate(180)" fill="#455a64"/>
        <path id="パス_5366" data-name="パス 5366" d="M228.14,229.57l-39.628.491-.5,71.766,45.506.621Z" transform="translate(-183.182 -192.863)" fill="#455a64"/>
        <path id="パス_5367" data-name="パス 5367" d="M250.179,252.7c-.2-1.383-4.353-5.971-4.353-5.971s-2.088-8.352-2.693-10.779a8.219,8.219,0,0,0-.9-2.01,16.218,16.218,0,0,0-6.055-5.841l-5.742-3.226-1.373-3.054-14.751-2.61-2.97,3.419s-11.139,4.223-12.6,5.507c-1.79,1.566,3.132,27.842,3.132,27.842s-3.8,15.941-4.6,19.24.35,7.929.35,7.929l7.548-7.214c2.088-2.61,5.836-5.82,9.15-5.773l28.317.125-1.127-7.934L264.4,266.8s3.941-7.678,4.254-7.83S250.179,252.7,250.179,252.7Z" transform="translate(-187.474 -187.911)" fill="#284192"/>
        <path id="パス_5368" data-name="パス 5368" d="M230.567,227a122.016,122.016,0,0,0,4.019,12.726,30.447,30.447,0,0,1,1.827,10.44v22.4l13.571-.919-2.025-14.793s-1.655-9.516-2.088-13.138c-.428-3.315-1.89-13.4-1.89-13.4S236.252,232.764,230.567,227Z" transform="translate(-203.954 -191.662)" fill="#fff"/>
        <path id="パス_5369" data-name="パス 5369" d="M288.594,288.845a.856.856,0,0,1,0-.344,4.618,4.618,0,0,1,.177-.913,6.143,6.143,0,0,1,4.176-4.176,5.542,5.542,0,0,1,.913-.178.856.856,0,0,1,.344,0c0,.042-.475.094-1.2.345a6.733,6.733,0,0,0-2.511,1.566,6.661,6.661,0,0,0-1.566,2.516C288.688,288.391,288.636,288.871,288.594,288.845Z" transform="translate(-231.255 -218.508)" fill="#263238"/>
        <path id="パス_5370" data-name="パス 5370" d="M290,283.173a5.423,5.423,0,0,1,4.218-.345c0,.073-.96-.11-2.124,0S290,283.241,290,283.173Z" transform="translate(-231.935 -218.191)" fill="#263238"/>
        <g id="グループ_2303" data-name="グループ 2303" transform="translate(11.828 77.207)" opacity="0.3">
          <path id="パス_5371" data-name="パス 5371" d="M202.6,307.16l-1.18,1.336a9.531,9.531,0,0,0,4.787,3.163,24.252,24.252,0,0,0,5.742.522,8.3,8.3,0,0,0,2.333-.224,11.1,11.1,0,0,1,2.286-.7,5.852,5.852,0,0,1,1.566.23,3.132,3.132,0,0,0,1.566.026,1.258,1.258,0,0,0,.924-1.174A83.727,83.727,0,0,0,202.6,307.16Z" transform="translate(-201.42 -307.16)"/>
        </g>
        <path id="パス_5372" data-name="パス 5372" d="M256.013,305.612l-3.33-3.539-6.854-1.733s-6.264,1.884-6.431,1.874-5.465-1.451-5.465-1.451l-1.853,6.817,9.568.652,10.93-.438s.569-.522.235-.893,1.827.616,2.088.626.746.209,1.086-.2A1.446,1.446,0,0,0,256.013,305.612Z" transform="translate(-204.248 -226.693)" fill="#ffa8a7"/>
        <path id="パス_5373" data-name="パス 5373" d="M264.969,311.15a5.652,5.652,0,0,1-1.091-.308c-.663-.214-1.566-.5-2.61-.757s-1.973-.459-2.657-.6a6.372,6.372,0,0,1-1.1-.256,4.589,4.589,0,0,1,1.133.084,25.382,25.382,0,0,1,2.688.522,24.486,24.486,0,0,1,2.61.83A4.7,4.7,0,0,1,264.969,311.15Z" transform="translate(-216.404 -230.942)" fill="#f28f8f"/>
        <path id="パス_5374" data-name="パス 5374" d="M268.326,307.974a13.679,13.679,0,0,1-1.519-.491c-.934-.313-2.234-.7-3.685-1.1a19.314,19.314,0,0,0-3.716-.919,8.78,8.78,0,0,0-1.566.063,1.165,1.165,0,0,1,.407-.141,4.73,4.73,0,0,1,1.18-.1,16.408,16.408,0,0,1,3.774.856c1.446.407,2.751.819,3.654,1.18.465.177.83.334,1.08.449A1.357,1.357,0,0,1,268.326,307.974Z" transform="translate(-216.562 -229.056)" fill="#f28f8f"/>
        <path id="パス_5375" data-name="パス 5375" d="M191.982,236.27s-2.427,1.6-3.654,6.546-6.4,25.144-5.34,28.187,21.86,5.966,21.86,5.966l2.464-10.382L196.764,263.7s.13-9.62.266-13.6S191.982,236.27,191.982,236.27Z" transform="translate(-180.713 -196.066)" fill="#284192"/>
        <path id="パス_5376" data-name="パス 5376" d="M227.633,297.32l3.4.835L228.991,306l-3.341-.538Z" transform="translate(-201.175 -225.249)" fill="#fff"/>
        <path id="パス_5377" data-name="パス 5377" d="M182.981,295.076a3.325,3.325,0,0,0,.052.491,2.271,2.271,0,0,0,.726,1.18,9.953,9.953,0,0,0,4.813,1.937h0c1,.329,2.135.59,3.351.866s2.526.553,3.91.835c2.766.564,5.82,1.159,9.061,1.764l-.141.089c.235-.96.485-1.978.736-3.012.579-2.385,1.148-4.7,1.681-6.88l.084.141-9.4-2.678h0a9.139,9.139,0,0,0-4.087-.715,9.009,9.009,0,0,0-3.09.72,11.1,11.1,0,0,0-1.77.981l-.428.313a1.044,1.044,0,0,1-.157.1l.136-.125c.094-.073.23-.193.412-.334a9.726,9.726,0,0,1,1.764-1.044,9,9,0,0,1,3.132-.778,9.323,9.323,0,0,1,4.176.694h0l9.4,2.61.115.031-.031.115c-.522,2.187-1.091,4.494-1.67,6.88-.256,1.044-.522,2.051-.736,3.012l-.031.115h-.11c-3.241-.611-6.3-1.216-9.061-1.79-1.383-.292-2.693-.579-3.91-.856a32.815,32.815,0,0,1-3.367-.9h0a9.85,9.85,0,0,1-4.849-2.03,2.292,2.292,0,0,1-.71-1.237A1.468,1.468,0,0,1,182.981,295.076Z" transform="translate(-180.768 -221.231)" fill="#263238"/>
        <path id="パス_5378" data-name="パス 5378" d="M203.391,287.806c-.031.031-.381-.292-1.013-.715a9.919,9.919,0,0,0-2.683-1.253,10.049,10.049,0,0,0-2.939-.386c-.762,0-1.232.1-1.237.063a3.748,3.748,0,0,1,1.232-.235,8.612,8.612,0,0,1,5.742,1.67,3.825,3.825,0,0,1,.9.856Z" transform="translate(-186.772 -219.483)" fill="#263238"/>
        <path id="パス_5379" data-name="パス 5379" d="M210.425,257.72a3.044,3.044,0,0,1,0,.637c0,.407-.042,1-.1,1.723-.115,1.451-.334,3.45-.71,5.643a40,40,0,0,1-1.31,5.538c-.115.35-.235.658-.339.929l-.3.679a2.918,2.918,0,0,1-.324.548,3.55,3.55,0,0,1,.24-.585l.261-.689c.089-.277.193-.585.3-.934a48.235,48.235,0,0,0,1.237-5.512c.381-2.182.621-4.176.783-5.616.073-.689.13-1.263.177-1.712a3.406,3.406,0,0,1,.089-.647Z" transform="translate(-192.422 -206.32)" fill="#263238"/>
        <path id="パス_5380" data-name="パス 5380" d="M230.459,236.861s-.052-.12-.167-.324a1.968,1.968,0,0,0-.71-.715,1.89,1.89,0,0,0-2.834,1.148l-.063.308-.146-.287a29.487,29.487,0,0,1-1.446-3.367,16.38,16.38,0,0,1-1.044-5.945,9.511,9.511,0,0,1,.084-1.044c.057-.308.1-.569.151-.778a3.2,3.2,0,0,1,.209-.647,13.488,13.488,0,0,0-.271,2.469,17.518,17.518,0,0,0,1.127,5.877,32.736,32.736,0,0,0,1.415,3.351h-.209a2.062,2.062,0,0,1,3.132-1.211,1.9,1.9,0,0,1,.7.793,1.253,1.253,0,0,1,.089.256C230.459,236.829,230.464,236.861,230.459,236.861Z" transform="translate(-200.409 -190.779)" fill="#263238"/>
        <path id="パス_5381" data-name="パス 5381" d="M258.2,237.406a3.32,3.32,0,0,1-.1-.564,5.853,5.853,0,0,1-.1-1.566,3.31,3.31,0,0,1,1.143-2.088,2.182,2.182,0,0,1,1.373-.5,1.864,1.864,0,0,1,1.446.647l-.209.12c-.141-.365-.292-.741-.449-1.127-.882-2.229-1.665-4.249-2.224-5.742l-.647-1.743a3.658,3.658,0,0,1-.2-.647,3.622,3.622,0,0,1,.292.616c.188.449.433,1.044.72,1.712.6,1.451,1.409,3.461,2.291,5.69.157.386.3.767.449,1.133l.287.726-.5-.611a1.66,1.66,0,0,0-1.258-.564,1.979,1.979,0,0,0-1.242.428,3.226,3.226,0,0,0-1.112,1.947,6.9,6.9,0,0,0,.026,1.566A2.182,2.182,0,0,1,258.2,237.406Z" transform="translate(-216.626 -190.296)" fill="#263238"/>
        <path id="パス_5382" data-name="パス 5382" d="M275.2,251.75c.068,0,1.133,7.172,2.385,16.046s2.208,16.072,2.14,16.082-1.133-7.172-2.385-16.046S275.129,251.755,275.2,251.75Z" transform="translate(-224.858 -203.466)" fill="#263238"/>
        <g id="グループ_2304" data-name="グループ 2304" transform="translate(24.83 42.615)" opacity="0.3">
          <path id="パス_5383" data-name="パス 5383" d="M226.33,240.89a14.761,14.761,0,0,0,1.18,5.34,3.818,3.818,0,0,1,1.869-1.5,2.971,2.971,0,0,1,2.667,1.1,4.87,4.87,0,0,0-.851-2.036,2.4,2.4,0,0,0-1.874-.981,1.665,1.665,0,0,0-1.566,1.289l-1.352-3.184" transform="translate(-226.33 -240.89)"/>
        </g>
        <path id="パス_5384" data-name="パス 5384" d="M206.783,244.572c-.047,0-.031-.522-.172-1.268a7.741,7.741,0,0,0-1.148-2.808,8.442,8.442,0,0,0-1.08-1.284,7.564,7.564,0,0,0-1.086-.846c-.663-.418-1.133-.579-1.117-.621s.125,0,.339.084a2.418,2.418,0,0,1,.381.146,3.859,3.859,0,0,1,.485.245,6.393,6.393,0,0,1,1.148.825,7.49,7.49,0,0,1,1.133,1.315,7.031,7.031,0,0,1,1.117,2.918,5.477,5.477,0,0,1,.047.95A1.043,1.043,0,0,1,206.783,244.572Z" transform="translate(-189.955 -196.763)" fill="#263238"/>
        <path id="パス_5385" data-name="パス 5385" d="M240.957,174.181a10.126,10.126,0,0,0-11.322-7.777l-.522.078c-5.554,1.133-7.689,6.478-6.4,12.005l3.936,19.5.757,2.025a10.267,10.267,0,0,0,12.632,1.31l.12-1.143-1.174-6.264s5.262-1.613,4.552-7C243.186,184.276,242.048,178.968,240.957,174.181Z" transform="translate(-199.596 -162.618)" fill="#ffa8a7"/>
        <path id="パス_5386" data-name="パス 5386" d="M247.559,218.154a13.18,13.18,0,0,1-7.349-1.044s2.218,3.654,7.516,2.375Z" transform="translate(-208.135 -186.907)" fill="#f28f8f"/>
        <path id="パス_5394" data-name="パス 5394" d="M240.2,165.852a1.044,1.044,0,0,0-1.18-.7,2.276,2.276,0,0,0,.7-.465.746.746,0,0,0,.167-.783c-.188-.4-.731-.423-1.169-.5a2.777,2.777,0,0,1-1.519-.773,24.6,24.6,0,0,1-1.415-2.051,3.607,3.607,0,0,0-5.632.042,3.763,3.763,0,0,0-5.9,1.623,4.39,4.39,0,0,0-5.423,5.47l3.607,1.66a1.827,1.827,0,0,1,2.03-1.832c1.044.172,1.832,1.268,2.9,1.227.83-.037,1.451-.752,2.218-1.044a3.951,3.951,0,0,1,2.923.282,11.483,11.483,0,0,0,2.824,1.044,5.627,5.627,0,0,0,3.377-.809,3.654,3.654,0,0,0,1.174-.934,1.566,1.566,0,0,0,.318-1.456Z" transform="translate(-197.829 -159.247)" fill="#263238"/>
        <path id="パス_5395" data-name="パス 5395" d="M222.765,170.232l15.383-1.905a7.073,7.073,0,0,0-2.61-2.276,12.084,12.084,0,0,0-7.308-1.482c-2.511.318-7.156,4.108-8.717,6.1a3.881,3.881,0,0,0-1.044,2.787c.057,2.02,1.5,4.118,2.229,6.008.376.971,1.263,3.951,1.263,3.951h0c.84-.125,1.044-.84.809-1.66l-.637-3.252a5.011,5.011,0,0,0,.668-6C222.5,172.231,221.835,170.937,222.765,170.232Z" transform="translate(-197.736 -161.754)" fill="#263238"/>
        <path id="パス_5396" data-name="パス 5396" d="M219.428,183.419c-1.107-2.61-2.171-5.47-1.655-8.279l-.459.037-.177.162a2.166,2.166,0,0,0-2.025,3.6,1.879,1.879,0,0,0-1.681,1.853,3.456,3.456,0,0,0,.71,1.738,4.244,4.244,0,0,1,.793,1.712,1.357,1.357,0,0,1-.861,1.508,1.566,1.566,0,0,0,1.843.642,3.054,3.054,0,0,1-.9,1.456,3.56,3.56,0,0,0,3.461-.491,2.975,2.975,0,0,0,1.378-1.613A3.707,3.707,0,0,0,219.428,183.419Z" transform="translate(-195.333 -166.844)" fill="#263238"/>
        <path id="パス_5397" data-name="パス 5397" d="M222.146,197.072c-.094,0-3.852-.559-3.2,3.1s4.176,2.26,4.176,2.151S222.146,197.072,222.146,197.072Z" transform="translate(-197.932 -177.314)" fill="#ffa8a7"/>
        <path id="パス_5398" data-name="パス 5398" d="M223.229,202.243a1.2,1.2,0,0,1-.157.125.642.642,0,0,1-.475.094,1.592,1.592,0,0,1-.976-1.284,2.051,2.051,0,0,1,0-.945.741.741,0,0,1,.391-.574.329.329,0,0,1,.407.1c.068.094.057.172.078.177s.068-.078,0-.224a.412.412,0,0,0-.183-.2.522.522,0,0,0-.371-.031.919.919,0,0,0-.564.689,2.177,2.177,0,0,0-.042,1.044,1.674,1.674,0,0,0,1.211,1.415.7.7,0,0,0,.564-.2C223.229,202.352,223.255,202.248,223.229,202.243Z" transform="translate(-199.093 -178.47)" fill="#f28f8f"/>
        <path id="パス_5403" data-name="パス 5403" d="M328.664,354.657a7.276,7.276,0,0,0-5.22-1.722l-3.195,10.152c2.344.1,4.7,1.31,6.937.689a4.938,4.938,0,0,0,3.44-4.061A5.872,5.872,0,0,0,328.664,354.657Z" transform="translate(-246.396 -251.826)" fill="#284192"/>
        <path id="パス_5404" data-name="パス 5404" d="M324.012,352.371c0-.083.345-.146.966-.141a7.908,7.908,0,0,1,2.61.491,7.083,7.083,0,0,1,3.184,2.474,6.5,6.5,0,0,1,1.044,2.2,5.783,5.783,0,0,1,.078,2.662,5.345,5.345,0,0,1-1.159,2.422,5.094,5.094,0,0,1-2.062,1.43,7.307,7.307,0,0,1-4.014.256,12,12,0,0,1-2.506-.778c-.564-.24-.856-.418-.835-.522s.371-.057.971.042,1.451.282,2.49.376a7.14,7.14,0,0,0,3.471-.449,4.051,4.051,0,0,0,1.566-1.148,4.4,4.4,0,0,0,.877-1.9,5.22,5.22,0,0,0-.861-3.967,6.869,6.869,0,0,0-2.61-2.323,11.853,11.853,0,0,0-2.328-.814C324.336,352.553,324,352.454,324.012,352.371Z" transform="translate(-246.906 -251.497)" fill="#f5f5f5"/>
        <path id="パス_5405" data-name="パス 5405" d="M263.408,425.44,256.46,444.9l24.178,8.769c.694-2.359-10.132-11.536-10.132-11.536l4.964-12.287Z" transform="translate(-215.902 -286.494)" fill="#284192"/>
        <g id="グループ_2305" data-name="グループ 2305" transform="translate(46.415 151.871)" opacity="0.6">
          <path id="パス_5406" data-name="パス 5406" d="M268.777,450.216a1.044,1.044,0,0,0-1.091.882,1.007,1.007,0,0,0,.861,1.086,1.1,1.1,0,0,0,1.148-.934,1.075,1.075,0,0,0-1.044-1.044" transform="translate(-267.682 -450.201)" fill="#fff"/>
        </g>
        <path id="パス_5407" data-name="パス 5407" d="M256.46,460.933l.7-1.963,22.967,9.161s.908.856.522,1.566Z" transform="translate(-215.902 -302.522)" fill="#fff"/>
        <path id="パス_5408" data-name="パス 5408" d="M281.752,457.145c-.047.115-.658-.042-1.373.125s-1.211.553-1.3.465.329-.7,1.2-.893S281.814,457.046,281.752,457.145Z" transform="translate(-226.709 -301.48)" fill="#263238"/>
        <path id="パス_5409" data-name="パス 5409" d="M286.307,461.106c0,.125-.6.141-1.18.5s-.893.84-1.007.793.052-.746.783-1.169S286.343,460.981,286.307,461.106Z" transform="translate(-229.109 -303.473)" fill="#263238"/>
        <path id="パス_5410" data-name="パス 5410" d="M288.953,466.476c-.115,0-.068-.663.47-1.2s1.185-.6,1.2-.48-.449.339-.887.788S289.068,466.507,288.953,466.476Z" transform="translate(-231.41 -305.283)" fill="#263238"/>
        <path id="パス_5411" data-name="パス 5411" d="M283.437,450.955c-.089.094-.569-.266-1.253-.465s-1.284-.172-1.3-.3.626-.365,1.43-.12S283.552,450.887,283.437,450.955Z" transform="translate(-227.575 -298.218)" fill="#263238"/>
        <path id="パス_5412" data-name="パス 5412" d="M283.74,443.16a2.448,2.448,0,0,1-1.206-.444,5.744,5.744,0,0,1-1.127-.851,5.976,5.976,0,0,1-.564-.621,1.6,1.6,0,0,1-.261-.418.553.553,0,0,1,.172-.647.7.7,0,0,1,.616-.083,1.68,1.68,0,0,1,.433.23,4.5,4.5,0,0,1,.658.522,4.385,4.385,0,0,1,.851,1.138c.376.72.407,1.232.355,1.237s-.2-.449-.621-1.081a5.158,5.158,0,0,0-.856-1,4.813,4.813,0,0,0-.621-.465c-.23-.162-.449-.245-.553-.151s-.052.047-.026.146a1.3,1.3,0,0,0,.193.3,7.484,7.484,0,0,0,.522.6,7.184,7.184,0,0,0,1.007.872C283.322,442.884,283.766,443.082,283.74,443.16Z" transform="translate(-227.413 -293.482)" fill="#263238"/>
        <path id="パス_5413" data-name="パス 5413" d="M286.208,442.959a2.088,2.088,0,0,1,.1-1.289,4.176,4.176,0,0,1,1.221-1.884,1.044,1.044,0,0,1,.992-.334.605.605,0,0,1,.386.522,1.806,1.806,0,0,1-.037.491,2.907,2.907,0,0,1-.3.814,2.944,2.944,0,0,1-.971,1.044c-.7.454-1.242.418-1.237.371a10.168,10.168,0,0,0,1.044-.621,3.018,3.018,0,0,0,.8-1,2.61,2.61,0,0,0,.23-.71c.057-.271.037-.522-.073-.522a.951.951,0,0,0-.564.245,3.761,3.761,0,0,0-.522.522,4.453,4.453,0,0,0-.673,1.127C286.312,442.473,286.276,442.964,286.208,442.959Z" transform="translate(-230.095 -293.181)" fill="#263238"/>
        <path id="パス_5414" data-name="パス 5414" d="M208.938,325.39c-3.654.084-7.146.6-9.672,3.262-3.351,3.529-7.49,8.55-7.73,12.037-.35,5.22,2.793,6.76,5.089,8.028a6.373,6.373,0,0,0,3.33.773l42.384-.324,1.331-7.177-27.414-6.76,1.138-10.319Z" transform="translate(-184.854 -238.438)" fill="#263238"/>
        <path id="パス_5415" data-name="パス 5415" d="M240.058,324.351l13.336-.611s23.035,1.279,27.947,5.783,4.3,9.62,2.662,14.537S267.931,380.4,267.931,380.4a5.474,5.474,0,0,1,.522,3.993,5.277,5.277,0,0,1-3.763,3.586l-12.82-4.7a1.321,1.321,0,0,1-.522-2.25,5.546,5.546,0,0,1,2.051-1.947v-3.273s4.5-8.19,4.912-9.317,4.724-17.789,4.724-17.789l2.871-4.933s-6.937-3.257-12.945-5.622l-14.041-3.461Z" transform="translate(-207.518 -237.879)" fill="#263238"/>
        <path id="パス_5416" data-name="パス 5416" d="M274.791,433.658c-.026.031-.433-.292-1.128-.741a15.614,15.614,0,0,0-2.871-1.456,15.934,15.934,0,0,0-3.132-.82,13.283,13.283,0,0,1-1.331-.193,4.974,4.974,0,0,1,1.352,0,12.913,12.913,0,0,1,3.179.762,12.7,12.7,0,0,1,2.881,1.566A5.074,5.074,0,0,1,274.791,433.658Z" transform="translate(-220.621 -288.866)" fill="#455a64"/>
        <path id="パス_5417" data-name="パス 5417" d="M290.823,426.9a4.473,4.473,0,0,1-.746-.783c-.428-.522-1.007-1.227-1.608-2.046s-1.122-1.566-1.477-2.145a4.7,4.7,0,0,1-.522-.945,4.666,4.666,0,0,1,.673.846l1.529,2.088L290.239,426A5.389,5.389,0,0,1,290.823,426.9Z" transform="translate(-230.248 -284.362)" fill="#455a64"/>
        <path id="パス_5418" data-name="パス 5418" d="M297.189,353.46a11.8,11.8,0,0,1-1.216.392,13.108,13.108,0,0,0-2.756,1.294,12.953,12.953,0,0,0-2.375,1.91,8.49,8.49,0,0,1-.882.919,4.268,4.268,0,0,1,.752-1.044,10.887,10.887,0,0,1,2.375-2,10.7,10.7,0,0,1,2.84-1.253,4.431,4.431,0,0,1,1.263-.219Z" transform="translate(-231.916 -252.086)" fill="#455a64"/>
        <path id="パス_5419" data-name="パス 5419" d="M278.69,373.571a1.114,1.114,0,0,1,.052-.282c.052-.2.115-.459.2-.778.188-.71.449-1.676.767-2.86.679-2.438,1.6-5.742,2.61-9.4.522-1.837.987-3.586,1.5-5.173a10.763,10.763,0,0,1,2.417-3.685,13.318,13.318,0,0,1,2.291-1.884c.292-.188.522-.334.689-.418a1.683,1.683,0,0,1,.251-.125s-.318.219-.887.621a14.969,14.969,0,0,0-2.218,1.931,10.773,10.773,0,0,0-2.328,3.654c-.491,1.566-.95,3.335-1.477,5.162-1.044,3.654-1.994,6.958-2.693,9.4l-.846,2.84c-.094.313-.177.564-.24.767A1.158,1.158,0,0,1,278.69,373.571Z" transform="translate(-226.529 -249.939)" fill="#455a64"/>
        <path id="パス_5420" data-name="パス 5420" d="M255.159,339.885c-.068,0-.344-2.485-.621-5.564s-.449-5.585-.381-5.59.344,2.485.621,5.57S255.227,339.879,255.159,339.885Z" transform="translate(-214.794 -240.264)" fill="#455a64"/>
        <path id="パス_5421" data-name="パス 5421" d="M207.949,358.462c-.037,0-.245-.386-.663-.976a9.65,9.65,0,0,0-1.937-2.036,9.788,9.788,0,0,0-2.443-1.388c-.673-.261-1.117-.365-1.107-.4a3.581,3.581,0,0,1,1.164.24,8.221,8.221,0,0,1,2.537,1.357,8.425,8.425,0,0,1,1.931,2.13A3.836,3.836,0,0,1,207.949,358.462Z" transform="translate(-189.774 -252.181)" fill="#455a64"/>
        <path id="パス_5422" data-name="パス 5422" d="M218.728,343.392c0,.036-.59-.324-1.566-.773a15.393,15.393,0,0,0-4.009-1.174,15.044,15.044,0,0,0-4.176,0c-1.044.151-1.707.339-1.717.3a1.831,1.831,0,0,1,.438-.167,9.648,9.648,0,0,1,1.253-.3,13.457,13.457,0,0,1,8.3,1.19,10.114,10.114,0,0,1,1.117.642A1.7,1.7,0,0,1,218.728,343.392Z" transform="translate(-192.384 -246.162)" fill="#455a64"/>
        <path id="パス_5423" data-name="パス 5423" d="M260.714,351.734a1.566,1.566,0,0,1-.329-.052l-.94-.2-3.455-.778c-2.918-.652-6.958-1.529-11.431-2.417s-8.54-1.613-11.483-2.119l-3.487-.6-.95-.172a1.4,1.4,0,0,1-.329-.073,1.5,1.5,0,0,1,.339.026l.955.125c.825.11,2.025.287,3.5.522,2.954.465,7.026,1.164,11.51,2.051s8.508,1.79,11.416,2.485c1.456.35,2.61.642,3.44.856l.929.245A2.035,2.035,0,0,1,260.714,351.734Z" transform="translate(-202.446 -248.194)" fill="#455a64"/>
        <path id="パス_5424" data-name="パス 5424" d="M232.17,341.034a13,13,0,0,0-.585-1.352,6.1,6.1,0,0,0-.971-1.258,15.707,15.707,0,0,0-1.482-1.279,22.238,22.238,0,0,0-3.038-1.89,9.563,9.563,0,0,1-1.294-.736,8.249,8.249,0,0,1,1.373.585,17.412,17.412,0,0,1,3.106,1.843,13.62,13.62,0,0,1,1.5,1.321,5.632,5.632,0,0,1,.96,1.331,4.649,4.649,0,0,1,.381,1.044A1.043,1.043,0,0,1,232.17,341.034Z" transform="translate(-200.768 -243.032)" fill="#455a64"/>
        <path id="パス_5425" data-name="パス 5425" d="M327.525,359.29a22.1,22.1,0,0,0-1.206,1.858,21.559,21.559,0,0,0-.809,2.088,4.264,4.264,0,0,1,.59-2.177A4.353,4.353,0,0,1,327.525,359.29Z" transform="translate(-248.91 -254.873)" fill="#263238"/>
        <g id="グループ_2306" data-name="グループ 2306" transform="translate(50.757 51.223)" opacity="0.3">
          <path id="パス_5426" data-name="パス 5426" d="M276,257.38l3.033,21.375.151.339A45.892,45.892,0,0,0,276,257.38Z" transform="translate(-276 -257.38)"/>
        </g>
        <path id="パス_5427" data-name="パス 5427" d="M275.9,280.418l-9.865,17.272-24.308.522-.057,1.1,23.536-.172.746-.026,24.857.047,5.021-8.66,6.415-9.2a.9.9,0,0,0-.746-1.425l-24.81.094A.908.908,0,0,0,275.9,280.418Z" transform="translate(-208.832 -216.913)" fill="#e0e0e0"/>
        <path id="パス_5428" data-name="パス 5428" d="M338.051,300.21s1.279,1.169,1.075,2.161-.136,1.738-1.075,1.806a1.43,1.43,0,0,1-1.279,1.477,1.573,1.573,0,0,1-1.524,1.827s-.559,1.67-1.7,1.263a10.136,10.136,0,0,1-1.884-.872l-.334-.605s-1.686-.632-1.268-1.566c.251-.579,1.122-.731,1.122-.731a1.634,1.634,0,0,1,.11-1.477c.4-.522,1.717-.094,1.717-.094a1.837,1.837,0,0,1,.418-1.284c.444-.522,2.537.908,2.537.908l1.143-1.362Z" transform="translate(-251.053 -226.631)" fill="#ffa8a7"/>
        <path id="パス_5429" data-name="パス 5429" d="M336.336,311.826a23.332,23.332,0,0,1-4.066-2.526,23.329,23.329,0,0,1,4.066,2.526Z" transform="translate(-252.141 -230.976)" fill="#f28f8f"/>
        <path id="パス_5430" data-name="パス 5430" d="M339.553,308.561a19.313,19.313,0,0,1-3.763-2.271,10.033,10.033,0,0,1,1.947,1.044,9.791,9.791,0,0,1,1.816,1.227Z" transform="translate(-253.824 -229.537)" fill="#f28f8f"/>
        <path id="パス_5431" data-name="パス 5431" d="M339,304.08a6.786,6.786,0,0,1,1.723.919,15.187,15.187,0,0,1,1.623,1.075,5.187,5.187,0,0,1-1.754-.866A9.4,9.4,0,0,1,339,304.08Z" transform="translate(-255.359 -228.481)" fill="#f28f8f"/>
        <path id="パス_5432" data-name="パス 5432" d="M325.478,281a.311.311,0,0,1-.12,0h-1.691l-4.938.042-16.28.037h-1.185a.987.987,0,0,0-.908.428l-1.1,2.046c-.731,1.31-1.43,2.573-2.088,3.779l-3.56,6.4-2.438,4.291-.658,1.19-.183.3c-.042.068-.063.1-.068.1l.047-.11.157-.313c.157-.287.365-.684.632-1.185.564-1.044,1.362-2.521,2.349-4.338l3.513-6.457c.668-1.206,1.362-2.474,2.088-3.79l1.112-2.01a1.242,1.242,0,0,1,1.112-.522h1.185l16.28.037,4.938.042h1.691a.314.314,0,0,1,.115.037Z" transform="translate(-232.06 -217.392)" fill="#263238"/>
        <path id="パス_5433" data-name="パス 5433" d="M324.056,297.342a1.044,1.044,0,1,0,1.566-.188,1.122,1.122,0,0,0-1.566.188Z" transform="translate(-248.129 -225.058)" fill="#fff"/>
        <path id="パス_5434" data-name="パス 5434" d="M298.743,365.014a.283.283,0,0,1,.037-.11l.12-.313.5-1.2c.454-1.044,1.1-2.579,1.89-4.452,1.634-3.795,3.9-9.061,6.478-15.043h0a21.206,21.206,0,0,0,.611-4.625,11.864,11.864,0,0,0-1.044-5.361,9.5,9.5,0,0,0-1.482-2.151,9.919,9.919,0,0,0-1.8-1.738,10.318,10.318,0,0,0-2.14-1.044c-.726-.292-1.435-.553-2.135-.778-1.394-.459-2.719-.814-3.936-1.1-2.432-.574-4.437-.882-5.82-1.08l-1.6-.209-.418-.057a.52.52,0,0,1-.141-.031h.146l.418.031c.365.031.908.078,1.6.162a58.124,58.124,0,0,1,5.83,1c1.221.277,2.552.621,3.957,1.075.7.224,1.425.48,2.156.767a10.789,10.789,0,0,1,2.2,1.07,10.116,10.116,0,0,1,1.853,1.78,9.991,9.991,0,0,1,1.524,2.2,12.1,12.1,0,0,1,1.1,5.481,21.287,21.287,0,0,1-.621,4.7h0l-6.561,15.007c-.83,1.863-1.493,3.367-1.963,4.421l-.522,1.185-.146.3C298.764,365.014,298.748,365.014,298.743,365.014Z" transform="translate(-230.912 -238.825)" fill="#455a64"/>
      </g>
      <g id="freepik--Floor--inject-3" transform="translate(30.78 255.847)">
        <path id="パス_5435" data-name="パス 5435" d="M264.855,476.266c0,.073-52.4.136-117.032.136s-117.043-.063-117.043-.136,52.391-.136,117.043-.136S264.855,476.187,264.855,476.266Z" transform="translate(-30.78 -476.13)" fill="#263238"/>
      </g>
      <g id="freepik--speech-bubble--inject-3" transform="translate(96.364 34.314)">
        <path id="パス_5436" data-name="パス 5436" d="M158.023,80.166l5.126-2.907A13.728,13.728,0,1,0,159.5,73.97h0Z" transform="translate(-156.523 -51.78)" fill="#fff"/>
        <path id="パス_5437" data-name="パス 5437" d="M157.926,80.1c.084-.36.522-2.286,1.409-6.212a.052.052,0,0,1,.063-.042h0l-.073.073a13.7,13.7,0,0,1-2.777-6.587,12.35,12.35,0,0,1-.115-2.171c0-.376.031-.757.063-1.138s.115-.767.177-1.159a13.838,13.838,0,0,1,5.533-8.566,13.571,13.571,0,0,1,5.3-2.323,13.979,13.979,0,0,1,6.107.162,13.462,13.462,0,0,1,5.648,2.944,13.733,13.733,0,0,1,3.779,5.288,13.953,13.953,0,0,1,.945,6.159,13.571,13.571,0,0,1-1.686,5.648,13.9,13.9,0,0,1-8.023,6.514,14.777,14.777,0,0,1-4.463.6,13.639,13.639,0,0,1-6.786-2.051h.052L157.931,80.1l5.1-2.949a.047.047,0,0,1,.052,0,13.671,13.671,0,0,0,6.786,1.994,14.955,14.955,0,0,0,4.411-.605,13.8,13.8,0,0,0,4.369-2.328,13.639,13.639,0,0,0,3.513-4.129,13.331,13.331,0,0,0,1.639-5.569,13.9,13.9,0,0,0-.934-6.065,13.6,13.6,0,0,0-3.727-5.22,13.3,13.3,0,0,0-5.559-2.9,13.843,13.843,0,0,0-6.024-.167,13.688,13.688,0,0,0-10.674,10.742c-.063.386-.12.767-.177,1.143s-.042.757-.068,1.127a12.7,12.7,0,0,0,.1,2.151,13.676,13.676,0,0,0,2.719,6.54.052.052,0,0,1,0,.073.068.068,0,0,1-.063,0h0l.084-.031C158.484,77.829,158.015,79.744,157.926,80.1Z" transform="translate(-156.425 -51.719)" fill="#263238"/>
        <path id="パス_5438" data-name="パス 5438" d="M168.07,74.178l1.973-1.968,3.795,3.377L181.3,68.41l1.827,1.968-9.563,9Z" transform="translate(-161.992 -59.697)" fill="#284192"/>
      </g>
      <g id="freepik--Desk--inject-3" transform="translate(59.515 171.423)">
        <path id="パス_5439" data-name="パス 5439" d="M110.471,404.548H108.19l-1.3-78.448h4.88Z" transform="translate(-95.897 -319.988)" fill="#e0e0e0"/>
        <path id="パス_5440" data-name="パス 5440" d="M110.342,404.361v-1.6c0-1.044.031-2.579.057-4.552.057-3.957.136-9.667.235-16.75.219-14.146.522-33.735.866-55.554l.136.136h-4.88l.136-.136c.632,38.36,1.117,70.294,1.19,78.453l-.026-.031h-.031V404.3c-.2-8.159-.767-40.093-1.4-78.448v-.141h5.157v.141c-.386,21.855-.731,41.481-.981,55.653-.13,7.062-.24,12.768-.313,16.7-.042,1.957-.073,3.482-.1,4.52V403.9Z" transform="translate(-95.768 -319.801)" fill="#263238"/>
        <path id="パス_5441" data-name="パス 5441" d="M396.462,404.748h-2.286l-.726-78.229h4.88Z" transform="translate(-232.88 -320.188)" fill="#e0e0e0"/>
        <path id="パス_5442" data-name="パス 5442" d="M396.347,404.562V402.97c0-1.044.052-2.573.089-4.541.084-3.941.209-9.641.36-16.7.324-14.093.767-33.641,1.268-55.4l.136.136h-4.88l.136-.136c.355,38.245.605,70.086.621,78.229l-.031-.031h0v-.031c-.136-8.143-.48-39.983-.835-78.223v-.141h5.162v.141c-.522,21.792-1.044,41.361-1.383,55.5-.188,7.041-.334,12.726-.438,16.661-.057,1.952-.1,3.471-.13,4.51,0,.522-.026.893-.037,1.164Z" transform="translate(-232.765 -320.002)" fill="#263238"/>
        <rect id="長方形_3454" data-name="長方形 3454" width="182.227" height="6.472" transform="translate(0.01 0.136)" fill="#e0e0e0"/>
        <path id="パス_5443" data-name="パス 5443" d="M85.84,314.526h14.2l38.882-.042,129.168-.094h.136v6.744h-.136l-182.227-.1H85.83v-6.509c0,.23,0,2.088.037,6.472l-.037-.037,182.258-.094-.136.136v-6.473l.136.136L139.045,314.6l-38.919-.042H86.806Z" transform="translate(-85.83 -314.39)" fill="#263238"/>
        <path id="パス_5444" data-name="パス 5444" d="M124.723,314.83s0,.026-.057.073l-.193.193a3.915,3.915,0,0,1-.913.6,5.9,5.9,0,0,1-1.759.48,15.268,15.268,0,0,1-2.458.089c-.913-.026-1.9-.141-2.954-.277a32.587,32.587,0,0,0-3.367-.329,25.128,25.128,0,0,0-7.574,1.2c-2.61.752-5.032,1.613-7.355,2.135a24.691,24.691,0,0,1-3.356.522,17.127,17.127,0,0,1-2.975,0,11.749,11.749,0,0,1-4.087-1.044,6.19,6.19,0,0,1-1.263-.767l.089.047.24.146a8.974,8.974,0,0,0,.976.522,12.006,12.006,0,0,0,4.061,1,17.388,17.388,0,0,0,2.944,0,24.376,24.376,0,0,0,3.315-.553c2.3-.522,4.7-1.388,7.308-2.145a25.237,25.237,0,0,1,7.657-1.19,32.362,32.362,0,0,1,3.393.345,29.165,29.165,0,0,0,2.928.3,15.813,15.813,0,0,0,2.432-.057,6.033,6.033,0,0,0,1.738-.444A4.291,4.291,0,0,0,124.723,314.83Z" transform="translate(-86.107 -314.6)" fill="#fff"/>
        <path id="パス_5445" data-name="パス 5445" d="M106.357,314.981a4.064,4.064,0,0,1-.553.381,12.869,12.869,0,0,1-1.66.872,16.922,16.922,0,0,1-2.719.9,17.909,17.909,0,0,1-3.555.449,16.28,16.28,0,0,1-6.347-1.044,3.983,3.983,0,0,1-1.535-1.034,1.65,1.65,0,0,1-.251-.391.522.522,0,0,1-.047-.151,3.913,3.913,0,0,0,.371.522,4.175,4.175,0,0,0,1.529.94,16.828,16.828,0,0,0,6.264,1,18.27,18.27,0,0,0,3.5-.428,17.35,17.35,0,0,0,2.7-.851,16.973,16.973,0,0,0,1.686-.814,5.007,5.007,0,0,1,.611-.345Z" transform="translate(-87.675 -314.662)" fill="#fff"/>
        <path id="パス_5446" data-name="パス 5446" d="M190.2,320.332l.282.083a6.173,6.173,0,0,0,.84.177,5.971,5.971,0,0,0,3.189-.4v.084a8.633,8.633,0,0,0-3.951-1.253,9.082,9.082,0,0,0-5.147,1.086c-.193.115-.376.251-.4.418s.13.324.339.418a2.955,2.955,0,0,0,.71.2l.773.141c1.044.188,2.119.376,3.236.522a24.01,24.01,0,0,0,3.44.188,15.527,15.527,0,0,0,1.77-.136c.292-.042.585-.089.877-.151a4.963,4.963,0,0,0,.851-.224,2.8,2.8,0,0,0,1.1-.647.866.866,0,0,0,.214-.992,1.863,1.863,0,0,0-.866-.788,7.7,7.7,0,0,0-1.211-.48,19.834,19.834,0,0,0-5.058-.851,25.377,25.377,0,0,0-8.649,1.1,23.333,23.333,0,0,0-5.22,2.307c-.553.35-.981.626-1.258.83l-.318.219a.962.962,0,0,1-.115.073,1.115,1.115,0,0,1,.1-.084l.308-.24c.261-.209.684-.5,1.232-.856a22.383,22.383,0,0,1,5.22-2.37,25.238,25.238,0,0,1,8.707-1.133,20.053,20.053,0,0,1,5.131.851,8.274,8.274,0,0,1,1.248.5,2.057,2.057,0,0,1,.955.877,1.044,1.044,0,0,1-.261,1.117,3.132,3.132,0,0,1-1.2.7,5.17,5.17,0,0,1-.887.235c-.292.063-.6.11-.893.151a16.1,16.1,0,0,1-1.8.141,23.751,23.751,0,0,1-3.482-.2c-1.122-.136-2.2-.329-3.247-.522l-.778-.146a3.189,3.189,0,0,1-.762-.219,1.044,1.044,0,0,1-.324-.23.465.465,0,0,1-.115-.35c.037-.256.282-.412.48-.522a9.239,9.239,0,0,1,5.277-1.086,8.691,8.691,0,0,1,4.014,1.3l.073.047-.084.037a6,6,0,0,1-3.257.365,4.238,4.238,0,0,1-1.1-.3Z" transform="translate(-128.757 -315.901)" fill="#fff"/>
        <path id="パス_5447" data-name="パス 5447" d="M242.666,315.15a.935.935,0,0,1,.177.329,2.057,2.057,0,0,1,.125.971,4.557,4.557,0,0,1-1.775,2.824,8.817,8.817,0,0,1-1.66,1.143,7.918,7.918,0,0,1-1.6.632,8.539,8.539,0,0,1-1.159.235,2.235,2.235,0,0,1-.433.031c0-.037.611-.1,1.54-.386a8.555,8.555,0,0,0,1.566-.652,9,9,0,0,0,1.608-1.127,4.656,4.656,0,0,0,1.78-2.714A2.839,2.839,0,0,0,242.666,315.15Z" transform="translate(-157.777 -314.753)" fill="#fff"/>
        <path id="パス_5448" data-name="パス 5448" d="M286.823,322.487a7.987,7.987,0,0,0-.835-.663,6.682,6.682,0,0,0-2.85-1.044,7.666,7.666,0,0,0-2.171.052,11.575,11.575,0,0,1-2.542.188,5.6,5.6,0,0,1-2.532-1.007,9.337,9.337,0,0,0-2.542-1.227,11.353,11.353,0,0,0-5.653-.068,14.705,14.705,0,0,0-4.176,1.717,22.688,22.688,0,0,0-2.422,1.681l-.621.5a1.453,1.453,0,0,1-.219.167,1.867,1.867,0,0,1,.188-.193c.13-.12.329-.3.59-.522a19.912,19.912,0,0,1,2.391-1.733,14.558,14.558,0,0,1,4.218-1.775,11.484,11.484,0,0,1,5.783.057,9.505,9.505,0,0,1,2.61,1.258,5.408,5.408,0,0,0,2.422.981,11.413,11.413,0,0,0,2.49-.172,7.97,7.97,0,0,1,2.224-.026,6.41,6.41,0,0,1,2.881,1.117A3.326,3.326,0,0,1,286.823,322.487Z" transform="translate(-169.212 -316.218)" fill="#fff"/>
        <path id="パス_5449" data-name="パス 5449" d="M340.766,314.77s-.063.078-.2.219a8.082,8.082,0,0,1-.621.6,16.1,16.1,0,0,1-2.662,1.921,22.968,22.968,0,0,1-4.614,2.088,22.477,22.477,0,0,1-2.975.773,18.5,18.5,0,0,1-3.33.344,19.7,19.7,0,0,1-6.316-1.044,22.791,22.791,0,0,1-4.593-2.114,17.366,17.366,0,0,1-2.641-1.936c-.292-.245-.48-.465-.621-.6a1.522,1.522,0,0,1-.2-.219,1.442,1.442,0,0,1,.235.2c.157.125.355.334.652.574a18.957,18.957,0,0,0,2.672,1.879,23.138,23.138,0,0,0,4.578,2.062,19.778,19.778,0,0,0,6.238,1.044,19,19,0,0,0,3.278-.339,22.929,22.929,0,0,0,2.949-.757,23.662,23.662,0,0,0,4.6-2.025,18.006,18.006,0,0,0,2.688-1.863c.3-.235.5-.444.652-.574A1.607,1.607,0,0,1,340.766,314.77Z" transform="translate(-193.94 -314.572)" fill="#fff"/>
        <path id="パス_5450" data-name="パス 5450" d="M342.461,314.65a.694.694,0,0,1-.157.1c-.1.057-.261.151-.47.256-.418.219-1.044.522-1.827.84a22.234,22.234,0,0,1-2.887.955,15.592,15.592,0,0,1-3.758.522,18.338,18.338,0,0,1-6.681-1.373,16.219,16.219,0,0,1-1.811-.861c-.209-.11-.355-.214-.459-.277s-.157-.1-.151-.1a5.59,5.59,0,0,1,.658.318,19.915,19.915,0,0,0,1.832.809,19.032,19.032,0,0,0,6.613,1.3,15.615,15.615,0,0,0,3.7-.522,24.311,24.311,0,0,0,2.876-.908c.793-.308,1.42-.585,1.848-.783Q342.117,314.774,342.461,314.65Z" transform="translate(-199.805 -314.514)" fill="#fff"/>
        <path id="パス_5451" data-name="パス 5451" d="M377.722,315.762h-.209l-.6-.031-.433-.026h-1.769l-.726.031-.767.068c-.522.037-1.112.141-1.712.224a30.225,30.225,0,0,0-3.81.924,29.052,29.052,0,0,0-3.57,1.425c-.522.271-1.018.522-1.451.773l-.637.376-.569.371c-.365.23-.668.465-.94.663l-.381.282-.3.251-.418.345a1.1,1.1,0,0,1-.162.115,1.211,1.211,0,0,1,.125-.141l.391-.365c.089-.083.188-.167.287-.266l.371-.292c.266-.209.564-.449.929-.689l.559-.381.637-.386c.433-.277.94-.522,1.456-.8a28.2,28.2,0,0,1,3.591-1.451,29.832,29.832,0,0,1,3.852-.919c.611-.078,1.185-.177,1.733-.209l.788-.063h2.516l.428.042.6.063A.724.724,0,0,1,377.722,315.762Z" transform="translate(-216.541 -314.964)" fill="#fff"/>
        <path id="パス_5452" data-name="パス 5452" d="M283.829,321.284a7.017,7.017,0,0,0-1-.971,10,10,0,0,0-3.654-1.665,24.433,24.433,0,0,0-2.866-.522c-1.044-.13-2.171-.24-3.351-.4a33.582,33.582,0,0,1-3.654-.741,28.089,28.089,0,0,0-3.883-.762,19.631,19.631,0,0,0-7.558.846c-1.117.334-2.135.736-3.08,1.122s-1.806.783-2.61,1.143c-1.566.72-2.819,1.331-3.68,1.759l-.987.491-.261.125a.385.385,0,0,1-.094.042l.084-.057.245-.141.966-.522c.851-.444,2.088-1.075,3.654-1.811.778-.365,1.644-.762,2.584-1.159a29.17,29.17,0,0,1,3.09-1.148,19.777,19.777,0,0,1,7.663-.872,28.7,28.7,0,0,1,3.915.772,33.721,33.721,0,0,0,3.612.746c1.169.167,2.3.282,3.341.423a24.636,24.636,0,0,1,2.887.522,9.714,9.714,0,0,1,3.685,1.738A3.936,3.936,0,0,1,283.829,321.284Z" transform="translate(-162.945 -315.145)" fill="#fff"/>
        <path id="パス_5453" data-name="パス 5453" d="M230.429,314.83a1.273,1.273,0,0,1,0,.418,4.076,4.076,0,0,1-.355,1.091,6.629,6.629,0,0,1-2.8,2.907,21,21,0,0,1-4.15,1.566c-.553.146-1.007.256-1.326.324a3.359,3.359,0,0,1-.5.083,1.989,1.989,0,0,1,.47-.151l1.3-.381a24.245,24.245,0,0,0,4.082-1.566,6.932,6.932,0,0,0,2.777-2.8A7.72,7.72,0,0,0,230.429,314.83Z" transform="translate(-150.588 -314.6)" fill="#fff"/>
        <path id="パス_5454" data-name="パス 5454" d="M157.75,321.209a2.64,2.64,0,0,1,.444-.35c.292-.214.736-.522,1.295-.861a39.763,39.763,0,0,1,4.651-2.432c1.89-.846,3.654-1.519,4.943-2,.642-.24,1.164-.428,1.529-.553a4.647,4.647,0,0,1,.574-.183,2.9,2.9,0,0,1-.522.245l-1.5.605c-1.263.522-3.017,1.206-4.907,2.046A48.1,48.1,0,0,0,159.6,320.1c-.569.334-1.044.616-1.336.814A4.376,4.376,0,0,1,157.75,321.209Z" transform="translate(-120.21 -314.6)" fill="#fff"/>
        <path id="パス_5455" data-name="パス 5455" d="M148.243,315.274a8.453,8.453,0,0,0-1.174,0,9.7,9.7,0,0,0-3.038.746,29.092,29.092,0,0,0-3.951,2.156,21.016,21.016,0,0,1-2.375,1.253,15.224,15.224,0,0,1-2.845.893,32.485,32.485,0,0,1-5.82.569c-1.806.042-3.424,0-4.776.057a29.093,29.093,0,0,0-3.194.251l-.861.141a2.094,2.094,0,0,1-.3.047,1.1,1.1,0,0,1,.287-.083c.193-.047.48-.1.851-.172a25.57,25.57,0,0,1,3.2-.313c1.362-.063,2.986-.047,4.776-.1a32.748,32.748,0,0,0,5.773-.574,15.1,15.1,0,0,0,2.8-.872,21.205,21.205,0,0,0,2.359-1.227,27.915,27.915,0,0,1,4-2.135,9.584,9.584,0,0,1,3.132-.7,6.96,6.96,0,0,1,.882.026,1.753,1.753,0,0,1,.271.042Z" transform="translate(-102.121 -314.778)" fill="#fff"/>
        <path id="パス_5456" data-name="パス 5456" d="M402.83,321.209a2.641,2.641,0,0,1,.444-.35c.292-.214.736-.522,1.294-.861a40.06,40.06,0,0,1,4.646-2.432c1.895-.846,3.654-1.519,4.948-2,.642-.24,1.164-.428,1.529-.553a4.077,4.077,0,0,1,.574-.183,3.131,3.131,0,0,1-.522.245l-1.5.605c-1.263.522-3.017,1.206-4.907,2.046a48.1,48.1,0,0,0-4.661,2.375c-.569.334-1.044.616-1.336.814A5.014,5.014,0,0,1,402.83,321.209Z" transform="translate(-237.364 -314.6)" fill="#fff"/>
        <path id="パス_5457" data-name="パス 5457" d="M393.323,315.269a8.453,8.453,0,0,0-1.174,0,9.7,9.7,0,0,0-3.038.746,29.094,29.094,0,0,0-3.951,2.156,21.108,21.108,0,0,1-2.38,1.248,15.05,15.05,0,0,1-2.84.893,32.494,32.494,0,0,1-5.825.569c-1.8.042-3.419,0-4.776.057a29.084,29.084,0,0,0-3.194.251l-.856.141a2.09,2.09,0,0,1-.3.047,1.1,1.1,0,0,1,.287-.084c.193-.047.48-.1.851-.172a25.57,25.57,0,0,1,3.2-.313c1.362-.063,2.98-.047,4.776-.1a32.749,32.749,0,0,0,5.773-.574,15.105,15.105,0,0,0,2.8-.872,21.69,21.69,0,0,0,2.359-1.227,27.915,27.915,0,0,1,4-2.135,9.584,9.584,0,0,1,3.106-.7,6.822,6.822,0,0,1,.877.026A1.894,1.894,0,0,1,393.323,315.269Z" transform="translate(-219.275 -314.773)" fill="#fff"/>
        <path id="パス_5458" data-name="パス 5458" d="M360.767,314.519c0,.052-7.616.094-17.006.094s-17.011-.042-17.011-.094,7.616-.089,17.011-.089S360.767,314.467,360.767,314.519Z" transform="translate(-200.996 -314.409)" fill="#263238"/>
      </g>
    </g>
  </g>
</svg>
