<svg xmlns="http://www.w3.org/2000/svg" xmlns:xlink="http://www.w3.org/1999/xlink" width="1451.388" height="194.264" viewBox="0 0 1451.388 194.264">
  <defs>
    <filter id="長方形_3533" x="356.592" y="16.346" width="182" height="98" filterUnits="userSpaceOnUse">
      <feOffset dy="3" input="SourceAlpha"/>
      <feGaussianBlur stdDeviation="3" result="blur"/>
      <feFlood flood-opacity="0.161"/>
      <feComposite operator="in" in2="blur"/>
      <feComposite in="SourceGraphic"/>
    </filter>
    <filter id="長方形_3534" x="356.592" y="96.346" width="182" height="97" filterUnits="userSpaceOnUse">
      <feOffset dy="3" input="SourceAlpha"/>
      <feGaussianBlur stdDeviation="3" result="blur-2"/>
      <feFlood flood-opacity="0.161"/>
      <feComposite operator="in" in2="blur-2"/>
      <feComposite in="SourceGraphic"/>
    </filter>
    <filter id="長方形_3533-2" x="175.592" y="16.346" width="182" height="98" filterUnits="userSpaceOnUse">
      <feOffset dy="3" input="SourceAlpha"/>
      <feGaussianBlur stdDeviation="3" result="blur-3"/>
      <feFlood flood-opacity="0.161"/>
      <feComposite operator="in" in2="blur-3"/>
      <feComposite in="SourceGraphic"/>
    </filter>
    <filter id="長方形_3534-2" x="175.592" y="96.346" width="182" height="97" filterUnits="userSpaceOnUse">
      <feOffset dy="3" input="SourceAlpha"/>
      <feGaussianBlur stdDeviation="3" result="blur-4"/>
      <feFlood flood-opacity="0.161"/>
      <feComposite operator="in" in2="blur-4"/>
      <feComposite in="SourceGraphic"/>
    </filter>
    <filter id="長方形_3533-3" x="537.593" y="16.346" width="182" height="98" filterUnits="userSpaceOnUse">
      <feOffset dy="3" input="SourceAlpha"/>
      <feGaussianBlur stdDeviation="3" result="blur-5"/>
      <feFlood flood-opacity="0.161"/>
      <feComposite operator="in" in2="blur-5"/>
      <feComposite in="SourceGraphic"/>
    </filter>
    <filter id="長方形_3535" x="537.593" y="96.346" width="182" height="97" filterUnits="userSpaceOnUse">
      <feOffset dy="3" input="SourceAlpha"/>
      <feGaussianBlur stdDeviation="3" result="blur-6"/>
      <feFlood flood-opacity="0.161"/>
      <feComposite operator="in" in2="blur-6"/>
      <feComposite in="SourceGraphic"/>
    </filter>
    <filter id="長方形_3533-4" x="718.593" y="16.346" width="182" height="98" filterUnits="userSpaceOnUse">
      <feOffset dy="3" input="SourceAlpha"/>
      <feGaussianBlur stdDeviation="3" result="blur-7"/>
      <feFlood flood-opacity="0.161"/>
      <feComposite operator="in" in2="blur-7"/>
      <feComposite in="SourceGraphic"/>
    </filter>
    <filter id="長方形_3536" x="718.593" y="96.346" width="182" height="97" filterUnits="userSpaceOnUse">
      <feOffset dy="3" input="SourceAlpha"/>
      <feGaussianBlur stdDeviation="3" result="blur-8"/>
      <feFlood flood-opacity="0.161"/>
      <feComposite operator="in" in2="blur-8"/>
      <feComposite in="SourceGraphic"/>
    </filter>
    <filter id="長方形_3533-5" x="899.593" y="16.346" width="181" height="98" filterUnits="userSpaceOnUse">
      <feOffset dy="3" input="SourceAlpha"/>
      <feGaussianBlur stdDeviation="3" result="blur-9"/>
      <feFlood flood-opacity="0.161"/>
      <feComposite operator="in" in2="blur-9"/>
      <feComposite in="SourceGraphic"/>
    </filter>
    <filter id="長方形_3538" x="899.593" y="96.346" width="181" height="97" filterUnits="userSpaceOnUse">
      <feOffset dy="3" input="SourceAlpha"/>
      <feGaussianBlur stdDeviation="3" result="blur-10"/>
      <feFlood flood-opacity="0.161"/>
      <feComposite operator="in" in2="blur-10"/>
      <feComposite in="SourceGraphic"/>
    </filter>
    <filter id="長方形_3533-6" x="1079.593" y="16.346" width="182" height="98" filterUnits="userSpaceOnUse">
      <feOffset dy="3" input="SourceAlpha"/>
      <feGaussianBlur stdDeviation="3" result="blur-11"/>
      <feFlood flood-opacity="0.161"/>
      <feComposite operator="in" in2="blur-11"/>
      <feComposite in="SourceGraphic"/>
    </filter>
    <filter id="長方形_3539" x="1079.593" y="96.346" width="182" height="97" filterUnits="userSpaceOnUse">
      <feOffset dy="3" input="SourceAlpha"/>
      <feGaussianBlur stdDeviation="3" result="blur-12"/>
      <feFlood flood-opacity="0.161"/>
      <feComposite operator="in" in2="blur-12"/>
      <feComposite in="SourceGraphic"/>
    </filter>
    <filter id="パス_9583">
      <feOffset dx="3" dy="3" input="SourceAlpha"/>
      <feGaussianBlur stdDeviation="3" result="blur-13"/>
      <feFlood flood-opacity="0.161" result="color"/>
      <feComposite operator="out" in="SourceGraphic" in2="blur-13"/>
      <feComposite operator="in" in="color"/>
      <feComposite operator="in" in2="SourceGraphic"/>
    </filter>
  </defs>
  <g id="グループ_2542" data-name="グループ 2542" transform="translate(-241.408 -4617.736)">
    <path id="パス_9581" data-name="パス 9581" d="M17.138-16.808a2.408,2.408,0,0,0,2.42,2.4,2.4,2.4,0,0,0,2.4-2.4,2.408,2.408,0,0,0-2.4-2.42A2.413,2.413,0,0,0,17.138-16.808Zm2.42,1.694a1.709,1.709,0,0,1-1.694-1.694A1.7,1.7,0,0,1,19.558-18.5a1.676,1.676,0,0,1,1.672,1.694A1.69,1.69,0,0,1,19.558-15.114ZM2.794-13.772H16.346C14.916-6.622,11.22-2.53,4.818-.176a9.62,9.62,0,0,1,.99,1.3C12.54-1.43,16.368-5.742,18.15-14.014a.5.5,0,0,0,.264-.2l-1.5-1.144-.132.066H2.794Zm22.572-1.166V-.374h1.54V-1.8H39.028V-.418h1.584v-14.52Zm1.54,11.66V-13.464H39.028V-3.278Zm34.65-15.158a20.019,20.019,0,0,1,2.794,3.168l.858-.638a19.7,19.7,0,0,0-2.86-3.168Zm-3.08,1.32A19.122,19.122,0,0,1,61.27-13.9l.858-.638a17.207,17.207,0,0,0-2.838-3.19ZM48.334-15.73a34.625,34.625,0,0,1,5.83,2.222l.726-1.342a35.233,35.233,0,0,0-5.9-2.156ZM49.148.924a.5.5,0,0,0,.242-.55C56.034-1.98,61.248-6.116,64.2-12.606a14.021,14.021,0,0,1-1.342-.99c-2.9,6.556-7.9,10.428-14.96,12.8ZM45.914-10.208a32.1,32.1,0,0,1,5.918,2.024l.66-1.386a31.6,31.6,0,0,0-5.918-1.98Zm24-1.562v1.276h5.368v8.646H68.64V-.572h14.7V-1.848H76.692v-8.646H82.1V-11.77Zm34.408-2.75-.264.132H96.316c.506-.88.968-1.8,1.408-2.772.286,0,.55-.066.638-.286l-2.09-.594a22.357,22.357,0,0,1-7.018,9.548A8.658,8.658,0,0,1,90.508-7.48a22.547,22.547,0,0,0,4.928-5.434h7.854A20.666,20.666,0,0,1,92.136.11a5.73,5.73,0,0,1,1.122,1.21c6.072-3.08,9.68-7.656,11.99-14.784a1.481,1.481,0,0,0,.33-.308Zm22.66,6.8a76.47,76.47,0,0,0-8.272-3.674l-.33.462v-6.424c.374-.066.55-.22.572-.462l-2.222-.132V1.166h1.65v-11A79.461,79.461,0,0,1,126.1-6.248ZM1.584,17.884V34.23H2.992V32.448h4.84V17.884Zm4.862,6.534H2.992v-5.17H6.446ZM2.992,25.76H6.446v5.324H2.992ZM15.422,20.5h4.906v-1.32H15.422v-2.31c.286-.044.418-.154.44-.308l-1.892-.11v2.728h-4.8V20.5h4.8v3.014H8.228v1.342h12.98V23.516H15.422Zm1.628,4.862v2.288H8.316v1.32H17.05V35.11c0,.462-.11.462-1.342.462-.572,0-1.364-.022-2.2-.044a5.04,5.04,0,0,1,.506,1.386,13.88,13.88,0,0,0,3.608-.242c.682-.22.88-.638.88-1.54v-6.16h2.662v-1.32H18.5V25.76c.286-.022.4-.132.418-.286Zm-3.124,8.448a16.577,16.577,0,0,0-2.97-3.872l-1.188.7A17.237,17.237,0,0,1,12.65,34.6Zm22.506-8.206a30.851,30.851,0,0,1,2.75,2.442c-3.014.044-6.116.088-8.932.11a75.29,75.29,0,0,0,7.7-7c.242,0,.418-.044.506-.176L36.85,20.04a58.9,58.9,0,0,1-5.632,5.588,23.27,23.27,0,0,0-2.706-2.112A42.794,42.794,0,0,0,32.186,19.6a.449.449,0,0,0,.484-.154l-.44-.242a83.857,83.857,0,0,0,9.064-1.1,1.1,1.1,0,0,0,.264.044.269.269,0,0,0,.2-.066l-1.144-1.32a122.594,122.594,0,0,1-16.874,1.562,6.473,6.473,0,0,1,.352,1.32c2.046-.066,4.2-.154,6.358-.308a35.078,35.078,0,0,1-3.058,3.432c-.55-.33-1.078-.66-1.584-.946l-1.012.924a33.306,33.306,0,0,1,5.3,3.85c-.682.572-1.364,1.1-2,1.584-1.914.022-3.63.022-5.038.022l.55,1.782a.45.45,0,0,0,.374-.308c2.178-.022,5.06-.088,8.206-.154V36.87h1.562V29.478c2.178-.044,4.466-.11,6.688-.176a20.821,20.821,0,0,1,1.474,1.76l1.3-.9a35.2,35.2,0,0,0-5.566-5.324Zm-.176,5.94a44.44,44.44,0,0,1,5.544,4.8l1.254-.924a48.078,48.078,0,0,0-5.61-4.686ZM27.94,30.82A19.513,19.513,0,0,1,22.814,35.4a11,11,0,0,1,1.21.946,25.3,25.3,0,0,0,5.192-4.62c.242.044.418-.022.484-.154ZM62.7,34.89c0,.572-.176.572-1.518.572-.638,0-1.474-.022-2.4-.044a7.009,7.009,0,0,1,.528,1.474c4,0,4.862-.088,4.862-2.024v-17.6c.308-.044.418-.132.44-.308L62.7,16.85ZM49.1,19.072c-.77,3.278-2.266,6.952-4.642,9.218a8.836,8.836,0,0,1,1.034.99,16.893,16.893,0,0,0,3.432-5.236h4.928a21.622,21.622,0,0,1-1.65,5.17A34.411,34.411,0,0,0,48.4,26.772l-.726,1.078a38.17,38.17,0,0,1,3.872,2.64,13.737,13.737,0,0,1-5.588,5.368A6.02,6.02,0,0,1,47.08,36.98c4.092-2.288,7.194-6.688,8.382-13.728a.688.688,0,0,0,.2-.242l-.946-.418-.264.066H49.5a33.217,33.217,0,0,0,1.122-3.586h5.61V17.686H45.144v1.386Zm8.118,12.166h1.452V19.446c.286-.044.418-.154.44-.308l-1.892-.11Z" transform="translate(240 4671.582)" fill="#333"/>
    <path id="パス_9582" data-name="パス 9582" d="M20.548-12.848h-4.6v-4.51c.352-.044.528-.22.55-.418l-2.112-.132v5.06H7.282v-4.18a.572.572,0,0,0,.55-.462L5.72-17.622v4.774H1.408v1.5H5.72v5.478H7.282v-5.478h7.106v1.54c0,3.608-1.034,7.524-6.622,9.944a7.793,7.793,0,0,1,1.144,1.1c5.742-2.6,7.04-6.864,7.04-11.066v-1.518h4.6ZM38.1-16.588a2.465,2.465,0,0,0,2.486,2.464,2.455,2.455,0,0,0,2.442-2.464,2.455,2.455,0,0,0-2.442-2.464A2.464,2.464,0,0,0,38.1-16.588ZM40.59-14.85a1.761,1.761,0,0,1-1.76-1.738,1.765,1.765,0,0,1,1.76-1.76,1.742,1.742,0,0,1,1.716,1.76A1.737,1.737,0,0,1,40.59-14.85Zm.638,3.256v-1.5H33.792V-17.2c.33-.044.484-.2.506-.418l-2.09-.11v4.642h-7.48v1.5h7.48v10.34a.838.838,0,0,1-.9.924H30.03c-.594,0-1.3,0-1.936-.022a9.328,9.328,0,0,1,.462,1.474c3.52,0,5.236,0,5.236-2.4V-11.594ZM36.476-8.206a40.711,40.711,0,0,1,4.488,6.512l1.408-.814a43.474,43.474,0,0,0-4.642-6.4Zm-8.822-.55a15.438,15.438,0,0,1-3.982,6.2l1.276.836a18.285,18.285,0,0,0,4.136-6.49Zm18.172,1.21a1.013,1.013,0,0,0,.7-.418H64.064V-9.526H45.694Zm38.258-.176A76.47,76.47,0,0,0,75.812-11.4l-.33.462v-6.424c.374-.066.55-.22.572-.462l-2.222-.132V1.166h1.65v-11A79.461,79.461,0,0,1,83.2-6.248ZM1.584,17.884V34.23H2.992V32.448h4.84V17.884Zm4.862,6.534H2.992v-5.17H6.446ZM2.992,25.76H6.446v5.324H2.992ZM15.422,20.5h4.906v-1.32H15.422v-2.31c.286-.044.418-.154.44-.308l-1.892-.11v2.728h-4.8V20.5h4.8v3.014H8.228v1.342h12.98V23.516H15.422Zm1.628,4.862v2.288H8.316v1.32H17.05V35.11c0,.462-.11.462-1.342.462-.572,0-1.364-.022-2.2-.044a5.04,5.04,0,0,1,.506,1.386,13.88,13.88,0,0,0,3.608-.242c.682-.22.88-.638.88-1.54v-6.16h2.662v-1.32H18.5V25.76c.286-.022.4-.132.418-.286Zm-3.124,8.448a16.577,16.577,0,0,0-2.97-3.872l-1.188.7A17.237,17.237,0,0,1,12.65,34.6Zm22.506-8.206a30.851,30.851,0,0,1,2.75,2.442c-3.014.044-6.116.088-8.932.11a75.29,75.29,0,0,0,7.7-7c.242,0,.418-.044.506-.176L36.85,20.04a58.9,58.9,0,0,1-5.632,5.588,23.27,23.27,0,0,0-2.706-2.112A42.794,42.794,0,0,0,32.186,19.6a.449.449,0,0,0,.484-.154l-.44-.242a83.857,83.857,0,0,0,9.064-1.1,1.1,1.1,0,0,0,.264.044.269.269,0,0,0,.2-.066l-1.144-1.32a122.594,122.594,0,0,1-16.874,1.562,6.473,6.473,0,0,1,.352,1.32c2.046-.066,4.2-.154,6.358-.308a35.078,35.078,0,0,1-3.058,3.432c-.55-.33-1.078-.66-1.584-.946l-1.012.924a33.306,33.306,0,0,1,5.3,3.85c-.682.572-1.364,1.1-2,1.584-1.914.022-3.63.022-5.038.022l.55,1.782a.45.45,0,0,0,.374-.308c2.178-.022,5.06-.088,8.206-.154V36.87h1.562V29.478c2.178-.044,4.466-.11,6.688-.176a20.821,20.821,0,0,1,1.474,1.76l1.3-.9a35.2,35.2,0,0,0-5.566-5.324Zm-.176,5.94a44.44,44.44,0,0,1,5.544,4.8l1.254-.924a48.078,48.078,0,0,0-5.61-4.686ZM27.94,30.82A19.513,19.513,0,0,1,22.814,35.4a11,11,0,0,1,1.21.946,25.3,25.3,0,0,0,5.192-4.62c.242.044.418-.022.484-.154ZM62.7,34.89c0,.572-.176.572-1.518.572-.638,0-1.474-.022-2.4-.044a7.009,7.009,0,0,1,.528,1.474c4,0,4.862-.088,4.862-2.024v-17.6c.308-.044.418-.132.44-.308L62.7,16.85ZM49.1,19.072c-.77,3.278-2.266,6.952-4.642,9.218a8.836,8.836,0,0,1,1.034.99,16.893,16.893,0,0,0,3.432-5.236h4.928a21.622,21.622,0,0,1-1.65,5.17A34.411,34.411,0,0,0,48.4,26.772l-.726,1.078a38.17,38.17,0,0,1,3.872,2.64,13.737,13.737,0,0,1-5.588,5.368A6.02,6.02,0,0,1,47.08,36.98c4.092-2.288,7.194-6.688,8.382-13.728a.688.688,0,0,0,.2-.242l-.946-.418-.264.066H49.5a33.217,33.217,0,0,0,1.122-3.586h5.61V17.686H45.144v1.386Zm8.118,12.166h1.452V19.446c.286-.044.418-.154.44-.308l-1.892-.11Z" transform="translate(240 4751.582)" fill="#333"/>
    <rect id="長方形_3540" data-name="長方形 3540" width="2" height="57" transform="translate(389 4732.582)" fill="#1d2a56"/>
    <rect id="長方形_3541" data-name="長方形 3541" width="2" height="57" transform="translate(389 4652.582)" fill="#1d2a56"/>
    <rect id="長方形_3542" data-name="長方形 3542" width="1132" height="52" transform="translate(402 4693.582)" fill="#fff"/>
    <g id="グループ_2448" data-name="グループ 2448" transform="translate(606.895 4640.082)">
      <g transform="matrix(1, 0, 0, 1, -365.49, -22.35)" filter="url(#長方形_3533)">
        <rect id="長方形_3533-7" data-name="長方形 3533" width="164" height="80" transform="translate(365.59 22.35)" fill="#fff"/>
      </g>
      <g transform="matrix(1, 0, 0, 1, -365.49, -22.35)" filter="url(#長方形_3534)">
        <rect id="長方形_3534-3" data-name="長方形 3534" width="164" height="79" transform="translate(365.59 102.35)" fill="#f5f5f5"/>
      </g>
      <path id="パス_9585" data-name="パス 9585" d="M2.88,1.53H4.086V.252h9.738V1.53h1.26V-13.95H2.88ZM13.824-5.292H4.086V-8.478h9.738Zm0-4.338H4.086v-3.15h9.738ZM4.086-4.122h9.738V-.936H4.086ZM25.4-12.006v4.338H34.92v-4.338H31.986v-1.35H35.37v-1.026H24.822v1.026h3.312v1.35Zm3.744,0v-1.35h1.836v1.35ZM30.978-8.64H29.142v-2.394h1.836Zm-2.754-2.394V-8.64H26.442v-2.394ZM31.878-8.64v-2.394h1.944V-8.64ZM22.59-10.062H24.7V-11.2H22.59v-3.672c.234-.036.342-.126.36-.234l-1.476-.108V-11.2H18.846v1.134H21.33a20.976,20.976,0,0,1-2.844,7.038,6.7,6.7,0,0,1,.63,1.044,20.023,20.023,0,0,0,2.358-5.4V1.494H22.59V-7.29c.558.918,1.242,2.088,1.512,2.682l.684-.918c-.306-.5-1.692-2.538-2.2-3.2ZM34.452-6.5H25.866v.954h8.586Zm.9,2.394H24.714V-3.1h4.734V.27c0,.252,0,.27-.972.27-.324,0-.738-.018-1.206-.018a3.724,3.724,0,0,1,.378,1.026c2.394,0,2.934-.072,2.934-1.26V-3.1h4.77Zm-8.46,1.458A10.723,10.723,0,0,1,24.048.126a3.785,3.785,0,0,1,.774.738,13.354,13.354,0,0,0,2.9-2.754c.144.018.27,0,.306-.126ZM35.478.2a19.924,19.924,0,0,0-2.592-2.79L32.04-2A23.314,23.314,0,0,1,34.6.864Zm9.288-12.42a5.1,5.1,0,0,1,.54-.036c4.212,0,6.12,2.7,6.12,5.67,0,3.4-2.124,5.418-6.264,6.21a7.1,7.1,0,0,1,.756,1.1c4.356-1.008,6.84-3.078,6.84-7.362,0-3.51-2.25-6.8-7.452-6.8a7.9,7.9,0,0,0-8.1,7.938c0,2.844,1.368,4.356,2.88,4.356,2.988,0,4.86-4.878,5.508-10.476a.465.465,0,0,0,.45-.288Zm-4.644,9.81c-.864,0-1.692-1.206-1.692-3.132a6.626,6.626,0,0,1,5.886-6.606C43.866-7.218,42.3-2.412,40.122-2.412ZM55.44-4.806V1.332h1.08V.486h4.338V-4.806ZM59.778-.54H56.52V-3.78h3.258ZM67.5-13.5v3.456c0,1.188.306,1.512,1.368,1.512h1.3c.936,0,1.242-.522,1.332-2.646a2.926,2.926,0,0,1-1.026-.45c-.036,1.8-.09,2.034-.432,2.034H69.03c-.324,0-.378-.072-.378-.468v-4.554h-5.67V-12.4a4.321,4.321,0,0,1-2.07,3.96,4.718,4.718,0,0,1,.882.81,5.335,5.335,0,0,0,2.34-4.752V-13.5ZM55.566-14.544v.99h5.256v-.99Zm-.954,2.394v1.008h6.876V-12.15Zm6.264,3.438V-9.7H55.458v.99ZM69.462-7.29H61.74v1.116h7.11a10.219,10.219,0,0,1-2.538,3.8,10.642,10.642,0,0,1-2.484-3.762l-1.08.342A12.385,12.385,0,0,0,65.412-1.62,12.846,12.846,0,0,1,60.948.468a3.892,3.892,0,0,1,.666,1.062,13.784,13.784,0,0,0,4.68-2.34A12.33,12.33,0,0,0,70.74,1.512,5.505,5.505,0,0,1,71.532.468a11.474,11.474,0,0,1-4.32-2.07,11.375,11.375,0,0,0,3.114-5.2A.407.407,0,0,0,70.47-7l-.792-.324ZM60.876-6.264v-.99H55.458v.99Zm26.424-5.6v2.718h1.242v-3.87H81.594v-1.854c.252-.036.36-.126.378-.252l-1.638-.108v2.214H73.458v3.87h1.188v-2.718ZM87.12-4.1V-5.256H81.594V-8.442h4.752V-9.594H75.762v1.152h4.59v7.92a5.743,5.743,0,0,1-3.564-3.672c.162-.684.306-1.386.414-2.106.216,0,.324-.09.36-.216l-1.548-.252C75.6-3.4,74.556-.648,72.576.81a5.706,5.706,0,0,1,.918.792,9.347,9.347,0,0,0,2.826-4.23C77.994.594,80.8,1.26,84.672,1.26h4.212A3.751,3.751,0,0,1,89.352.036c-.828.018-4,.018-4.626.018A17.054,17.054,0,0,1,81.594-.18V-4.1Z" transform="translate(34.106 46)" fill="#333"/>
      <path id="パス_9588" data-name="パス 9588" d="M1.422-14.562V-3.006h5.67V-14.562Zm1.53,6.786V-9.828H5.49v2.052Zm0-3.366v-2.034H5.49v2.034Zm0,6.75V-6.48H5.49v2.088ZM15.516-9.72H10.062v-3.222h7.2V-14.49H8.478v6.768A17.977,17.977,0,0,1,7.362-.45a12.4,12.4,0,0,0-1.386-2.3l-1.35.576A13.494,13.494,0,0,1,5.976.27L7.344-.4A8.471,8.471,0,0,1,6.714.72a5.806,5.806,0,0,1,1.368.9c1.98-2.88,1.98-7.506,1.98-9.828h4.824A14.074,14.074,0,0,1,13.3-3.546a14.669,14.669,0,0,1-1.728-4.32l-1.4.306a17.558,17.558,0,0,0,2.178,5.382A8.438,8.438,0,0,1,9.144.216a5.438,5.438,0,0,1,.972,1.4,10.03,10.03,0,0,0,3.24-2.43,10.016,10.016,0,0,0,3.132,2.394A5.541,5.541,0,0,1,17.6.216a9.042,9.042,0,0,1-3.258-2.34,16.806,16.806,0,0,0,2.268-7.092.534.534,0,0,0,.126-.27l-.936-.27ZM2.358-2.736A8.428,8.428,0,0,1,.45.72,9.038,9.038,0,0,1,1.692,1.6,10.586,10.586,0,0,0,3.8-2.016a.363.363,0,0,0,.4-.18ZM22.536-15.174a23.055,23.055,0,0,1-4.3,7.794,18.3,18.3,0,0,1,.828,1.692,22.888,22.888,0,0,0,1.854-2.448V1.62H22.59V-10.314c.252-.036.378-.126.4-.27l-.558-.162a33.056,33.056,0,0,0,1.584-3.564c.252,0,.4-.054.468-.2ZM30.528-3.906h4.464V-5.472H30.528V-7.866h4.1v-6.588H24.858v6.588h3.978V-.99a5.117,5.117,0,0,1-2.268-3.132c.126-.7.216-1.44.288-2.178.234-.018.36-.09.4-.234l-1.98-.306c-.234,3.2-.882,5.994-2.394,7.488a8.48,8.48,0,0,1,1.26.936,8.421,8.421,0,0,0,1.908-3.51c1.368,2.7,3.474,3.258,6.174,3.258h2.934a5.944,5.944,0,0,1,.558-1.62H32.328a11.614,11.614,0,0,1-1.8-.126Zm2.394-8.964v3.42H26.478v-3.42Zm20.25.648h-7.38V-14.9c.306-.036.414-.144.432-.288l-2.178-.144v3.114H36.828v1.638h5.436C42.066-6.516,41.58-2,36.594.27A5.287,5.287,0,0,1,37.8,1.692a10.562,10.562,0,0,0,5.8-7.938H49.23C48.96-2.412,48.618-.7,48.114-.27a1.2,1.2,0,0,1-.882.234c-.5,0-1.782-.018-3.06-.126a3.554,3.554,0,0,1,.594,1.674c.72.036,1.422.054,2.016.054,1.62,0,2.232-.126,2.808-.738.72-.756,1.1-2.79,1.458-8.046a4.853,4.853,0,0,0,.072-.5L50.112-7.9l-.378.036H43.866c.126-.918.2-1.836.27-2.718h9.036Zm13.05,4.446v-3.06H70.4v-1.638H66.222v-2.25a.487.487,0,0,0,.468-.4l-2.232-.144v2.79h-4.05v1.638h4.05v3.06h-4.95v1.62h3.474A37.429,37.429,0,0,1,60.93-.972l-1.4.054.648,1.962a.393.393,0,0,0,.306-.27C62.586.63,65.844.4,68.994.126a13.04,13.04,0,0,1,.7,1.458l1.6-.9a22.045,22.045,0,0,0-3.51-5.2l-1.458.774c.594.72,1.206,1.548,1.764,2.376l-5.31.306a41.749,41.749,0,0,0,2-4.626.521.521,0,0,0,.468-.234l-.756-.234h6.912v-1.62ZM55.548-13.9a14.14,14.14,0,0,1,3.492,2l.99-1.4a14.874,14.874,0,0,0-3.546-1.872ZM54.54-8.91a14.47,14.47,0,0,1,3.546,1.818l.936-1.44a15.573,15.573,0,0,0-3.6-1.692Zm2.268,10.4a.43.43,0,0,0,.09-.252A.489.489,0,0,0,56.79.936a58.686,58.686,0,0,0,2.862-5.4c-.054-.054-.108-.108-1.278-1.1A51.341,51.341,0,0,1,55.116.252Z" transform="translate(41.106 113)" fill="#fb297a"/>
      <path id="パス_9589" data-name="パス 9589" d="M6.048-11.368V-6.51h6.664v-4.858Zm1.218,1.96V-10.4h4.186v.994Zm0,1.932V-8.484h4.186v1.008ZM5.11-5.768l-1.386.42V-7.854H5.236V-9.086H3.724V-11.55c.224-.028.308-.112.322-.238l-1.6-.07v2.772H.518v1.232H2.45V-4.97c-.8.238-1.526.434-2.114.588L.742-2.9a.286.286,0,0,0,.21-.238c.42-.14.938-.308,1.5-.5V-.308c0,.2-.07.266-.252.266s-.77,0-1.372-.014a5.206,5.206,0,0,1,.392,1.288c2.086,0,2.506-.294,2.506-1.54v-3.78l1.568-.546Zm7.742,3.794V-3.066H9.912V-4.508h3.626V-5.642H5.488v1.134h3.15V-.742A3.171,3.171,0,0,1,7.168-2.45,10.4,10.4,0,0,0,7.392-3.6c.168-.014.28-.07.294-.182L6.2-4.046A7.377,7.377,0,0,1,4.354.56a5.836,5.836,0,0,1,.98.7,6.15,6.15,0,0,0,1.414-2.3C7.756.518,9.226.9,11.13.9h2.184a4.378,4.378,0,0,1,.392-1.162c-.49.014-2.128.014-2.478.014A9.9,9.9,0,0,1,9.912-.336V-1.974ZM18.27-5.81c.56.126,1.162.252,1.75.406a24.719,24.719,0,0,1-4.774.63,3.541,3.541,0,0,1,.434,1.036,19.086,19.086,0,0,0,6.174-1.19,38.273,38.273,0,0,1,3.864,1.26l.8-.938c-.882-.336-2.086-.714-3.388-1.064a5.036,5.036,0,0,0,1.4-1.722h2.7V-8.456H20.342c.182-.224.336-.448.49-.658.21.028.322-.014.378-.126l-1.47-.448c-.266.378-.574.8-.9,1.232H14.8v1.064h3.22c-.434.546-.868,1.064-1.232,1.47l1.26.378Zm7.308-3.948v.994h1.288v-2.1H21.658v-.686c.21-.042.308-.112.322-.238l-1.652-.1v1.022h-5.11v2.1H16.45v-.994ZM19.53-7.392h3.5a3.332,3.332,0,0,1-1.358,1.358c-.938-.238-1.876-.434-2.73-.6ZM27.384-3.22H21.63v-.77c.224-.028.322-.1.336-.224l-1.666-.1V-3.22H14.644v1.106H19.32a12.781,12.781,0,0,1-4.984,2.1,5.517,5.517,0,0,1,.826,1.078A12.836,12.836,0,0,0,20.3-1.582V1.232h1.33V-1.652a13.173,13.173,0,0,0,5.25,2.73,5.638,5.638,0,0,1,.854-1.12,13.335,13.335,0,0,1-5.068-2.072h4.718Zm4.074-8.134c-.112,1.708-.224,5.908-.224,7.728,0,2.7,1.246,4.3,4.088,4.3a7.631,7.631,0,0,0,5.614-2.7,8.824,8.824,0,0,1-.826-1.218A6.67,6.67,0,0,1,35.336-.77c-1.624,0-2.59-.91-2.59-2.856,0-2.058.14-5.53.252-7.294.28-.028.406-.14.434-.308Zm12.152,2.8c.868.028,2.212.042,3.136.042.532,0,1.134-.014,1.652-.028.028.742.042,1.512.07,2.282-.392.014-.812.014-1.162.014-1.12-.014-1.666-.07-1.666-.406,0-.154.084-.406.91-.812L45.6-8.008c-.952.6-1.372,1.092-1.372,1.638,0,.98.966,1.274,3.416,1.274.28,0,.574,0,.868-.014.028.63.042,1.218.056,1.722A5.744,5.744,0,0,0,47.292-3.5c-1.624,0-3.136.784-3.136,2.17,0,1.316,1.274,2.156,3.108,2.156s2.7-.784,2.716-2.03v-.532A13.256,13.256,0,0,1,53.032.21l.84-1.2A14.4,14.4,0,0,0,49.924-3.08c-.028-.532-.056-1.26-.084-2.072A24.5,24.5,0,0,0,53.676-5.6l-.14-1.232a23.994,23.994,0,0,1-3.724.5L49.77-8.582a30.243,30.243,0,0,0,4.592-.462l-.154-1.288a29.26,29.26,0,0,1-4.424.5c-.014-.434-.014-1.008-.014-1.4.238-.042.35-.126.364-.28l-1.806-.1c0,.462.014,1.19.028,1.834-.5.014-1.078.028-1.61.028-1.022,0-2.268,0-3.136-.056Zm5.012,7c0,.826-.378,1.246-1.344,1.246-1.064,0-1.876-.35-1.876-1.05s.854-1.078,1.806-1.078a5.246,5.246,0,0,1,1.414.21ZM56.98-8.2c1.54-.084,3.836-.14,6.146-.21.014.49.028,1.05.042,1.316,0,.042.014.1.014.154a1.978,1.978,0,0,0-1.106-.308,2.65,2.65,0,0,0-2.618,2.66A2.45,2.45,0,0,0,61.88-2.086a1.414,1.414,0,0,0,1.092-.49h.014A5.261,5.261,0,0,1,59.612.084a9.357,9.357,0,0,1,1.022,1.092c2.24-.854,4.214-2.534,4.214-5.4a5.18,5.18,0,0,0-.2-1.54c-.014-.448-.028-.812-.056-1.3-.014-.35-.014-.854-.028-1.372,1.722-.056,3.388-.07,4.466-.056V-9.814c-.9.014-2.716.056-4.494.112-.014-.616-.028-1.288-.028-1.652.252-.042.378-.182.392-.308L63-11.746c.028.378.084,1.876.084,2.072-.966.042-5.264.154-6.146.182Zm5.082,5.012a1.346,1.346,0,0,1-1.33-1.4,1.429,1.429,0,0,1,1.428-1.54c.812,0,1.232.5,1.232,1.512A1.327,1.327,0,0,1,62.062-3.192Z" transform="translate(43.106 139)" fill="#333"/>
    </g>
    <g id="グループ_2500" data-name="グループ 2500" transform="translate(425.895 4640.082)">
      <g transform="matrix(1, 0, 0, 1, -184.49, -22.35)" filter="url(#長方形_3533-2)">
        <rect id="長方形_3533-8" data-name="長方形 3533" width="164" height="80" transform="translate(184.59 22.35)" fill="#fff"/>
      </g>
      <g transform="matrix(1, 0, 0, 1, -184.49, -22.35)" filter="url(#長方形_3534-2)">
        <rect id="長方形_3534-4" data-name="長方形 3534" width="164" height="79" transform="translate(184.59 102.35)" fill="#f5f5f5"/>
      </g>
      <path id="パス_9584" data-name="パス 9584" d="M12.186-12.906A2.017,2.017,0,0,0,14.22-10.89a2.009,2.009,0,0,0,2-2.016,2.009,2.009,0,0,0-2-2.016A2.016,2.016,0,0,0,12.186-12.906Zm2.034,1.422a1.441,1.441,0,0,1-1.44-1.422,1.444,1.444,0,0,1,1.44-1.44,1.425,1.425,0,0,1,1.4,1.44A1.421,1.421,0,0,1,14.22-11.484ZM1.692-4.644a.507.507,0,0,0,.18-.378.306.306,0,0,0-.018-.126c1.206-1.3,3.834-4.32,4.68-5.238.288-.27.5-.45.738-.45a1.26,1.26,0,0,1,.774.45A79.116,79.116,0,0,1,16.38-.7l1.08-.99A89.711,89.711,0,0,0,8.676-11.5a2.269,2.269,0,0,0-1.458-.684,1.994,1.994,0,0,0-1.4.684C4.788-10.4,1.944-7.236.576-5.8ZM28.17-13.77a.409.409,0,0,0,.4-.342l-1.674-.09V-.99l-.2.27L27.63.468a.752.752,0,0,0,.306-.36A13.43,13.43,0,0,0,35.28-8.028a7.247,7.247,0,0,1-1.116-.7A11.847,11.847,0,0,1,28.17-1.494ZM21.8-12.024c-.054,4.842-.378,9.342-3.06,12.258a10.14,10.14,0,0,1,1.08.684C22.59-2.3,22.986-6.714,23.094-11.556c.234-.036.4-.144.414-.306Zm28.422-1.17C48.51-6.318,45.18-2.574,40.23-.4a5.7,5.7,0,0,1,.918.954c5.058-2.3,8.514-6.246,10.332-12.96.288,0,.414-.072.468-.234Zm-12.006.936A20.419,20.419,0,0,1,41.2-7.11l1.242-.63a20.206,20.206,0,0,0-3.1-5.112ZM70.506-9.882H64.062c.072-1.314.072-2.772.09-4.41.252-.036.414-.144.432-.324l-1.764-.108c0,1.818-.018,3.438-.072,4.842H55.476V-8.64h7.218c-.342,4.266-1.44,6.732-5.166,8.8a7.11,7.11,0,0,1,1.026.882c3.924-2.25,5.094-5.058,5.436-9.684h6.516Zm10.26-2.34a5.1,5.1,0,0,1,.54-.036c4.212,0,6.12,2.7,6.12,5.67,0,3.4-2.124,5.418-6.264,6.21a7.1,7.1,0,0,1,.756,1.1c4.356-1.008,6.84-3.078,6.84-7.362,0-3.51-2.25-6.8-7.452-6.8a7.9,7.9,0,0,0-8.1,7.938c0,2.844,1.368,4.356,2.88,4.356,2.988,0,4.86-4.878,5.508-10.476a.465.465,0,0,0,.45-.288Zm-4.644,9.81c-.864,0-1.692-1.206-1.692-3.132a6.626,6.626,0,0,1,5.886-6.606C79.866-7.218,78.3-2.412,76.122-2.412ZM91.44-4.806V1.332h1.08V.486h4.338V-4.806ZM95.778-.54H92.52V-3.78h3.258ZM103.5-13.5v3.456c0,1.188.306,1.512,1.368,1.512h1.3c.936,0,1.242-.522,1.332-2.646a2.926,2.926,0,0,1-1.026-.45c-.036,1.8-.09,2.034-.432,2.034H105.03c-.324,0-.378-.072-.378-.468v-4.554h-5.67V-12.4a4.321,4.321,0,0,1-2.07,3.96,4.718,4.718,0,0,1,.882.81,5.335,5.335,0,0,0,2.34-4.752V-13.5ZM91.566-14.544v.99h5.256v-.99Zm-.954,2.394v1.008h6.876V-12.15Zm6.264,3.438V-9.7H91.458v.99Zm8.586,1.422H97.74v1.116h7.11a10.219,10.219,0,0,1-2.538,3.8,10.641,10.641,0,0,1-2.484-3.762l-1.08.342a12.385,12.385,0,0,0,2.664,4.176A12.845,12.845,0,0,1,96.948.468a3.892,3.892,0,0,1,.666,1.062,13.784,13.784,0,0,0,4.68-2.34,12.33,12.33,0,0,0,4.446,2.322,5.505,5.505,0,0,1,.792-1.044,11.474,11.474,0,0,1-4.32-2.07,11.375,11.375,0,0,0,3.114-5.2.407.407,0,0,0,.144-.2l-.792-.324ZM96.876-6.264v-.99H91.458v.99Zm26.424-5.6v2.718h1.242v-3.87h-6.948v-1.854c.252-.036.36-.126.378-.252l-1.638-.108v2.214h-6.876v3.87h1.188v-2.718ZM123.12-4.1V-5.256h-5.526V-8.442h4.752V-9.594H111.762v1.152h4.59v7.92a5.743,5.743,0,0,1-3.564-3.672c.162-.684.306-1.386.414-2.106.216,0,.324-.09.36-.216l-1.548-.252C111.6-3.4,110.556-.648,108.576.81a5.706,5.706,0,0,1,.918.792,9.347,9.347,0,0,0,2.826-4.23C113.994.594,116.8,1.26,120.672,1.26h4.212a3.751,3.751,0,0,1,.468-1.224c-.828.018-4,.018-4.626.018a17.054,17.054,0,0,1-3.132-.234V-4.1Z" transform="translate(19.106 47)" fill="#333"/>
      <path id="パス_9586" data-name="パス 9586" d="M10.4-1.872h6.588v-9.576h-3.06c.126-.522.252-1.08.342-1.548h3.15v-1.458H9.792V-13h2.862c-.054.5-.144,1.062-.234,1.548H10.4Zm1.4-4.05V-7.416h3.708v1.494Zm0-2.736v-1.476h3.708v1.476Zm0,5.472V-4.68h3.708v1.494ZM.846-14.454v1.422H9.18v-1.422ZM7.29-.576v-.972H9.018V-2.52H7.29v-.954H9.018v-.972H7.29V-5.4H9.216V-6.516H7.452c.162-.306.306-.612.414-.864.2,0,.342-.054.378-.18l-1.494-.5a12.363,12.363,0,0,1-.54,1.548H5Q5.22-7,5.382-7.488c.18,0,.306-.054.36-.18l-1.494-.45a11.849,11.849,0,0,1-1.422,3.2c.054-.864.072-1.692.072-2.412v-.846H8.982V-12.06H1.44v4.734C1.44-5.04,1.35-1.854.36.45a4.559,4.559,0,0,1,1.224.864,16.923,16.923,0,0,0,1.17-5.238c.18.18.36.36.468.486.108-.126.234-.288.342-.432V1.386H4.806V.576H9L8.964.594a10.207,10.207,0,0,1,1.1,1.026,10.023,10.023,0,0,0,2.952-2.3.492.492,0,0,0,.324-.126l-1.476-.828A9.547,9.547,0,0,1,9.378.378V-.576ZM4.806-2.52v-.954h1.35v.954Zm0-1.926V-5.4h1.35v.954Zm1.35,2.9v.972H4.806v-.972Zm1.3-7.83H2.9v-1.458H7.452ZM17.694.738a18.275,18.275,0,0,0-2.376-2.322L14.094-.81a18.776,18.776,0,0,1,2.3,2.43ZM30.672-10.674H25.848c.18-.216.36-.45.522-.666.252,0,.4-.09.432-.252l-1.782-.324h7.866v2.07h1.746v-3.618h-6.8V-14.85c.288-.054.4-.144.414-.306l-2.16-.126v1.818H19.4v3.618h1.674v-2.07H24.7a11.367,11.367,0,0,1-5.148,3.888,5.042,5.042,0,0,1,1.134,1.26A17.585,17.585,0,0,0,23.274-8.3,12.9,12.9,0,0,0,25.4-6.5,26.442,26.442,0,0,1,18.5-4.374a6.535,6.535,0,0,1,.828,1.512c.864-.18,1.746-.4,2.61-.648V1.584h1.674V.99h6.822v.558h1.746v-5.22c.72.162,1.44.306,2.2.414a8.4,8.4,0,0,1,1.1-1.638A25.6,25.6,0,0,1,28.656-6.57a12.214,12.214,0,0,0,3.312-3.276.752.752,0,0,0,.27-.2l-1.278-.7ZM23.616-2.628h6.822v2.2H23.616Zm5.85-6.732A10.921,10.921,0,0,1,27-7.38a10.606,10.606,0,0,1-2.52-1.89l.108-.09Zm-5.85,5.31a23.594,23.594,0,0,0,3.366-1.494A21.282,21.282,0,0,0,30.744-4.05Zm17.8,3.258H38.844V-3.438h2.574Zm1.494-5.166V-7.29h-5.49v1.332ZM37.386-4.806V1.368h1.458V.594h4.068v-5.4Zm11.736-8.388v2.808c0,1.512.378,1.944,1.638,1.944h1.188c1.062,0,1.476-.576,1.6-2.754a4.146,4.146,0,0,1-1.4-.63c-.036,1.692-.108,1.926-.378,1.926h-.72c-.27,0-.306-.072-.306-.5v-4.3H44.856v2.178a4.166,4.166,0,0,1-1.944,3.834V-9.738h-5.49v1.332h5.49v-.252a5.6,5.6,0,0,1,1.242,1.1,5.589,5.589,0,0,0,2.322-4.95v-.684Zm2.124,5.778H43.794v1.548h6.588a9.132,9.132,0,0,1-2.124,3.1A9.817,9.817,0,0,1,46.134-5.85l-1.512.486A12.71,12.71,0,0,0,47-1.728,11.9,11.9,0,0,1,42.93.09a5.865,5.865,0,0,1,.918,1.494,13.959,13.959,0,0,0,4.41-2.142A12.58,12.58,0,0,0,52.47,1.584,6.921,6.921,0,0,1,53.586.108a12.007,12.007,0,0,1-4.014-1.8,11.354,11.354,0,0,0,2.9-5.094.743.743,0,0,0,.18-.234l-1.1-.45ZM37.494-14.652v1.332h5.382v-1.332Zm-.936,2.412v1.368h7V-12.24Zm32.292.648V-9H70.6v-4.212H63.882v-1.656c.306-.036.414-.144.432-.306l-2.25-.126v2.088H55.4V-9h1.674v-2.592ZM69.1-3.8V-5.4H63.864V-8.1h4.194V-9.738H57.96V-8.1H62.1V-.972a5.3,5.3,0,0,1-3.006-3.294c.144-.63.27-1.278.36-1.944.234,0,.378-.09.414-.252L57.78-6.786C57.4-3.546,56.43-.846,54.486.54A10.188,10.188,0,0,1,55.8,1.656a8.889,8.889,0,0,0,2.628-3.8c1.674,2.9,4.32,3.51,7.938,3.51H70.74A5.1,5.1,0,0,1,71.37-.36c-1.044.036-4.122.036-4.914.036A16.746,16.746,0,0,1,63.864-.5V-3.8Z" transform="translate(46.106 113)" fill="#fb297a"/>
      <path id="パス_9587" data-name="パス 9587" d="M6.048-11.368V-6.51h6.664v-4.858Zm1.218,1.96V-10.4h4.186v.994Zm0,1.932V-8.484h4.186v1.008ZM5.11-5.768l-1.386.42V-7.854H5.236V-9.086H3.724V-11.55c.224-.028.308-.112.322-.238l-1.6-.07v2.772H.518v1.232H2.45V-4.97c-.8.238-1.526.434-2.114.588L.742-2.9a.286.286,0,0,0,.21-.238c.42-.14.938-.308,1.5-.5V-.308c0,.2-.07.266-.252.266s-.77,0-1.372-.014a5.206,5.206,0,0,1,.392,1.288c2.086,0,2.506-.294,2.506-1.54v-3.78l1.568-.546Zm7.742,3.794V-3.066H9.912V-4.508h3.626V-5.642H5.488v1.134h3.15V-.742A3.171,3.171,0,0,1,7.168-2.45,10.4,10.4,0,0,0,7.392-3.6c.168-.014.28-.07.294-.182L6.2-4.046A7.377,7.377,0,0,1,4.354.56a5.836,5.836,0,0,1,.98.7,6.15,6.15,0,0,0,1.414-2.3C7.756.518,9.226.9,11.13.9h2.184a4.378,4.378,0,0,1,.392-1.162c-.49.014-2.128.014-2.478.014A9.9,9.9,0,0,1,9.912-.336V-1.974ZM18.27-5.81c.56.126,1.162.252,1.75.406a24.719,24.719,0,0,1-4.774.63,3.541,3.541,0,0,1,.434,1.036,19.086,19.086,0,0,0,6.174-1.19,38.273,38.273,0,0,1,3.864,1.26l.8-.938c-.882-.336-2.086-.714-3.388-1.064a5.036,5.036,0,0,0,1.4-1.722h2.7V-8.456H20.342c.182-.224.336-.448.49-.658.21.028.322-.014.378-.126l-1.47-.448c-.266.378-.574.8-.9,1.232H14.8v1.064h3.22c-.434.546-.868,1.064-1.232,1.47l1.26.378Zm7.308-3.948v.994h1.288v-2.1H21.658v-.686c.21-.042.308-.112.322-.238l-1.652-.1v1.022h-5.11v2.1H16.45v-.994ZM19.53-7.392h3.5a3.332,3.332,0,0,1-1.358,1.358c-.938-.238-1.876-.434-2.73-.6ZM27.384-3.22H21.63v-.77c.224-.028.322-.1.336-.224l-1.666-.1V-3.22H14.644v1.106H19.32a12.781,12.781,0,0,1-4.984,2.1,5.517,5.517,0,0,1,.826,1.078A12.836,12.836,0,0,0,20.3-1.582V1.232h1.33V-1.652a13.173,13.173,0,0,0,5.25,2.73,5.638,5.638,0,0,1,.854-1.12,13.335,13.335,0,0,1-5.068-2.072h4.718Zm4.074-8.134c-.112,1.708-.224,5.908-.224,7.728,0,2.7,1.246,4.3,4.088,4.3a7.631,7.631,0,0,0,5.614-2.7,8.824,8.824,0,0,1-.826-1.218A6.67,6.67,0,0,1,35.336-.77c-1.624,0-2.59-.91-2.59-2.856,0-2.058.14-5.53.252-7.294.28-.028.406-.14.434-.308Zm12.152,2.8c.868.028,2.212.042,3.136.042.532,0,1.134-.014,1.652-.028.028.742.042,1.512.07,2.282-.392.014-.812.014-1.162.014-1.12-.014-1.666-.07-1.666-.406,0-.154.084-.406.91-.812L45.6-8.008c-.952.6-1.372,1.092-1.372,1.638,0,.98.966,1.274,3.416,1.274.28,0,.574,0,.868-.014.028.63.042,1.218.056,1.722A5.744,5.744,0,0,0,47.292-3.5c-1.624,0-3.136.784-3.136,2.17,0,1.316,1.274,2.156,3.108,2.156s2.7-.784,2.716-2.03v-.532A13.256,13.256,0,0,1,53.032.21l.84-1.2A14.4,14.4,0,0,0,49.924-3.08c-.028-.532-.056-1.26-.084-2.072A24.5,24.5,0,0,0,53.676-5.6l-.14-1.232a23.994,23.994,0,0,1-3.724.5L49.77-8.582a30.243,30.243,0,0,0,4.592-.462l-.154-1.288a29.26,29.26,0,0,1-4.424.5c-.014-.434-.014-1.008-.014-1.4.238-.042.35-.126.364-.28l-1.806-.1c0,.462.014,1.19.028,1.834-.5.014-1.078.028-1.61.028-1.022,0-2.268,0-3.136-.056Zm5.012,7c0,.826-.378,1.246-1.344,1.246-1.064,0-1.876-.35-1.876-1.05s.854-1.078,1.806-1.078a5.246,5.246,0,0,1,1.414.21ZM56.98-8.2c1.54-.084,3.836-.14,6.146-.21.014.49.028,1.05.042,1.316,0,.042.014.1.014.154a1.978,1.978,0,0,0-1.106-.308,2.65,2.65,0,0,0-2.618,2.66A2.45,2.45,0,0,0,61.88-2.086a1.414,1.414,0,0,0,1.092-.49h.014A5.261,5.261,0,0,1,59.612.084a9.357,9.357,0,0,1,1.022,1.092c2.24-.854,4.214-2.534,4.214-5.4a5.18,5.18,0,0,0-.2-1.54c-.014-.448-.028-.812-.056-1.3-.014-.35-.014-.854-.028-1.372,1.722-.056,3.388-.07,4.466-.056V-9.814c-.9.014-2.716.056-4.494.112-.014-.616-.028-1.288-.028-1.652.252-.042.378-.182.392-.308L63-11.746c.028.378.084,1.876.084,2.072-.966.042-5.264.154-6.146.182Zm5.082,5.012a1.346,1.346,0,0,1-1.33-1.4,1.429,1.429,0,0,1,1.428-1.54c.812,0,1.232.5,1.232,1.512A1.327,1.327,0,0,1,62.062-3.192Z" transform="translate(47.106 139)" fill="#333"/>
    </g>
    <g id="グループ_2449" data-name="グループ 2449" transform="translate(788.342 4640.082)">
      <g transform="matrix(1, 0, 0, 1, -546.93, -22.35)" filter="url(#長方形_3533-3)">
        <rect id="長方形_3533-9" data-name="長方形 3533" width="164" height="80" transform="translate(546.59 22.35)" fill="#fff"/>
      </g>
      <g transform="matrix(1, 0, 0, 1, -546.93, -22.35)" filter="url(#長方形_3535)">
        <rect id="長方形_3535-2" data-name="長方形 3535" width="164" height="79" transform="translate(546.59 102.35)" fill="#f5f5f5"/>
      </g>
      <path id="パス_9590" data-name="パス 9590" d="M15.354-4.572V-6.858h-5.8V-8.064H15.1v-3.474H9.558v-1.134H16.92V-13.7H9.558v-1.17c.234-.018.324-.108.342-.252l-1.566-.09V-13.7H1.116v1.026H8.334v1.134H3.042v3.474H8.334v1.206H2.5v.918H8.334v1.368H.792v.99H8.334v1.476H2.34v.954H8.334V.09c0,.468-.108.468-1.206.468C6.642.558,5.976.54,5.31.522a4.28,4.28,0,0,1,.432,1.044,12.377,12.377,0,0,0,3.042-.18c.54-.18.774-.5.774-1.314V-1.152H14.13v.828h1.224V-3.582h1.908v-.99ZM4.212-10.656H8.334v1.71H4.212Zm9.648,1.71h-4.3v-1.71h4.3Zm.27,3.006v1.368H9.558V-5.94ZM9.558-2.106V-3.582H14.13v1.476ZM20.106-9.36V1.566h1.152V-2.448H25.2V.108c0,.342,0,.342-1.278.342-.324,0-.72,0-1.116-.018a4.945,4.945,0,0,1,.414,1.08c2.556,0,3.15-.108,3.15-1.386V-9.342h-.612V-9.36ZM25.2-6.372H21.258V-8.3H25.2ZM21.258-5.4H25.2v1.98H21.258Zm9.954-9.864A17.7,17.7,0,0,1,29.178-12.6l.972.432H23.886l1.062-.486a12.552,12.552,0,0,0-2.2-2.538l-1.062.486A14.27,14.27,0,0,1,23.8-12.168H18.864v1.116H35.136v-1.116h-4.86a20.181,20.181,0,0,0,2.016-2.376.408.408,0,0,0,.414-.144Zm2.556,5.85a.349.349,0,0,0,.36-.252L32.58-9.738V.054c0,.378-.108.378-1.1.378-.45,0-1.08-.018-1.746-.036a4.244,4.244,0,0,1,.45,1.17c3.024,0,3.582-.108,3.582-1.512ZM28.422-1.692h1.152V-8.838c.234-.036.342-.126.36-.234L28.422-9.18Zm16.344-10.53a5.1,5.1,0,0,1,.54-.036c4.212,0,6.12,2.7,6.12,5.67,0,3.4-2.124,5.418-6.264,6.21a7.1,7.1,0,0,1,.756,1.1c4.356-1.008,6.84-3.078,6.84-7.362,0-3.51-2.25-6.8-7.452-6.8a7.9,7.9,0,0,0-8.1,7.938c0,2.844,1.368,4.356,2.88,4.356,2.988,0,4.86-4.878,5.508-10.476a.465.465,0,0,0,.45-.288Zm-4.644,9.81c-.864,0-1.692-1.206-1.692-3.132a6.626,6.626,0,0,1,5.886-6.606C43.866-7.218,42.3-2.412,40.122-2.412Zm31.032-1.62h-7.6V-5.2a.667.667,0,0,0,.27-.09h6.8v-.99H63.846V-7.614h5.346v-.9H63.846v-1.3h5.31v-.9h-5.31v-1.278h5.976V-13H63.738c.342-.576.7-1.224.936-1.71.234-.018.36-.072.4-.2l-1.548-.306A17.19,17.19,0,0,1,62.5-13H58.842c.4-.612.738-1.206,1.026-1.746.234-.018.342-.108.378-.234l-1.512-.252a16.744,16.744,0,0,1-4.356,5.634,3.432,3.432,0,0,1,.846.846,18.517,18.517,0,0,0,1.872-1.89v5.346h5.256v1.26H54.864v1.008H61.29A19.883,19.883,0,0,1,54.5.288a4.964,4.964,0,0,1,.81,1.026,21.361,21.361,0,0,0,7.038-3.87V1.512h1.206V-2.61a20.556,20.556,0,0,0,7.164,3.762,4.67,4.67,0,0,1,.792-.99,19.077,19.077,0,0,1-6.858-3.186h6.5ZM58.266-8.514v-1.3h4.41v1.3Zm0-2.2v-1.278h4.41v1.278Zm4.41,3.1v1.332h-4.41V-7.614Zm22.23-3.006H79.2c.27-.306.5-.612.72-.9.216-.018.342-.09.36-.234l-1.512-.252a12.643,12.643,0,0,1-5.256,4.212,3.359,3.359,0,0,1,.828.846,15.859,15.859,0,0,0,2.97-1.89,12.547,12.547,0,0,0,2.646,2.286,27.454,27.454,0,0,1-7.4,2.52,4.114,4.114,0,0,1,.594,1.062c.936-.2,1.908-.468,2.862-.756V1.512h1.17V.882h7.65v.612h1.242V-3.96c.846.216,1.692.4,2.574.54a5.489,5.489,0,0,1,.774-1.134,23.932,23.932,0,0,1-7.218-2.052,13.065,13.065,0,0,0,3.6-3.4.4.4,0,0,0,.234-.144l-.9-.54ZM77.058-4.086a26.758,26.758,0,0,0,4-1.8,21.91,21.91,0,0,0,4.518,1.8Zm.126,1.044h7.65v2.88h-7.65Zm6.84-6.588A12.53,12.53,0,0,1,81.072-7.2a10.965,10.965,0,0,1-2.9-2.376l.054-.054Zm3.294-2.592v2.106h1.224v-3.24H81.576v-1.512c.234-.018.342-.108.36-.234l-1.6-.108v1.854H73.476v3.24h1.17v-2.106Z" transform="translate(35.659 46)" fill="#333"/>
      <path id="パス_9591" data-name="パス 9591" d="M17.28-11.2v-1.638H10.422v-2c.288-.054.4-.144.414-.306l-2.178-.126v2.43H2.142V-8.1C2.142-5.526,2-1.89.4.648A5.833,5.833,0,0,1,1.854,1.6c1.728-2.7,2-6.894,2-9.7v-3.1ZM11.952-5.148A36.492,36.492,0,0,1,14.364-1.44L7.7-1.134a72.367,72.367,0,0,0,2.646-8.19c.252-.036.45-.126.5-.288L8.6-10.17A60.974,60.974,0,0,1,5.886-1.062c-.774.036-1.476.054-2.088.072L4.536.99A.343.343,0,0,0,4.842.72C7.4.576,11.376.342,15.156.054a13.724,13.724,0,0,1,.684,1.6l1.728-.81a30.09,30.09,0,0,0-4.05-6.678ZM27.864-11.16h5.868v-1.566H27.864v-2.106c.288-.054.414-.162.432-.306l-2.178-.126v2.538h-2.9c.216-.558.414-1.116.576-1.656.234,0,.4-.072.45-.2l-2.07-.576A16.171,16.171,0,0,1,19.6-9.522a11.763,11.763,0,0,1,1.476.864,14.122,14.122,0,0,0,1.476-2.5h3.564v2.682H18.846v1.584H35.19V-8.478H27.864ZM23.148,1.6V.9h7.776v.666h1.782v-7H21.438V1.6ZM30.924-.684H23.148V-3.852h7.776Zm15.822-4.41,1.44-.666v4.3H49.7V-6.48l1.458-.684c0,1.926-.036,3.186-.072,3.42-.036.252-.144.288-.324.288-.144,0-.522,0-.81-.018A4.477,4.477,0,0,1,50.292-2.2c1.854.072,2.178-.522,2.232-1.242.054-.522.072-2.574.09-5.13a.366.366,0,0,0,.216-.216c-.54-.2-.882-.306-1.224-.414-.27.2-.306.216-.558.414l-1.35.648v-2.106c.27-.036.36-.144.378-.288l-1.89-.108v3.2l-1.44.666V-8.784c.27-.036.36-.126.378-.288L45.36-9.18a13.47,13.47,0,0,0,1.062-1.962h6.984V-12.69H47.034c.216-.612.4-1.242.558-1.872a.43.43,0,0,0,.432-.216l-2-.5A13.45,13.45,0,0,1,43.38-9.27a10.209,10.209,0,0,1,1.188,1.134,7.77,7.77,0,0,0,.648-.828v2.916L43.65-5.31l.612,1.386.954-.45V-.936c0,1.8.522,2.286,2.5,2.286H51.21c1.6,0,2.07-.594,2.286-2.664a4.567,4.567,0,0,1-1.422-.594C51.984-.378,51.84-.09,51.1-.09h-3.24c-.972,0-1.116-.144-1.116-.864Zm-6.66-3.42c.036-.756.054-1.53.072-2.286H44.37v-1.584H41.346v-2.448c.27-.036.378-.126.4-.288l-2.034-.126v2.862H36.666V-10.8h1.89C38.484-6.408,38.3-2.088,36.45.432a4.474,4.474,0,0,1,1.242,1.152c1.53-2.106,2.088-5.256,2.322-8.55h1.872c-.09,4.734-.2,6.444-.468,6.822a.49.49,0,0,1-.468.252c-.324,0-.936,0-1.62-.054a4.144,4.144,0,0,1,.432,1.53c2.214.054,2.592-.09,3.024-.72.468-.63.558-2.718.666-8.82.018-.2.018-.4.018-.54l-.828-.018ZM67.77-5.67v1.908c0,.162-.054.234-.252.234-.18,0-.7,0-1.3-.018a6.3,6.3,0,0,1,.522,1.3c2,0,2.736-.09,2.736-1.512V-7.128H63.81V-8.244h7.308V-9.756H63.81v-.936c.306-.054.414-.144.432-.306l-.846-.054A11.276,11.276,0,0,0,64.6-12.42h1.17a13.8,13.8,0,0,1,1.26,2.052l1.548-.522a10.935,10.935,0,0,0-.972-1.53h3.744v-1.3h-5.9c.18-.306.324-.612.468-.918.216.018.36-.054.414-.18-.5-.162-1.026-.306-1.872-.558a9.865,9.865,0,0,1-1.71,2.79v-1.134H58.212c.144-.306.288-.612.414-.9a.431.431,0,0,0,.432-.18l-1.872-.576a11.775,11.775,0,0,1-2.646,4.23,10.7,10.7,0,0,1,1.3.846,12.205,12.205,0,0,0,1.638-2.124H58a9.549,9.549,0,0,1,.828,1.98l1.53-.486a11.741,11.741,0,0,0-.648-1.494h2.9a7.339,7.339,0,0,1-.882.81c.216.126.5.324.774.5l-.378-.018v1.368H54.936v1.512h7.182v1.116H56.646V-2.34h1.692V-5.67h3.78v1.206a14.257,14.257,0,0,1-7.6,4.158,7.2,7.2,0,0,1,1.062,1.4A15.338,15.338,0,0,0,62.118-2.52v4.1H63.81V-2.61a16.26,16.26,0,0,0,6.678,3.69,6.88,6.88,0,0,1,1.08-1.494A14.762,14.762,0,0,1,63.81-4.482V-5.67Z" transform="translate(44.659 113)" fill="#fb297a"/>
      <path id="パス_9592" data-name="パス 9592" d="M-35.91-8.358h-2.758v-2.688c.252-.042.364-.154.378-.294l-1.778-.1v3.08h-4.06v-2.464c.252-.042.378-.182.392-.322l-1.778-.112v2.9H-48.09v1.344h2.576V-3.7h1.386V-7.014h4.06v.8c0,2.282-.672,4.592-4.06,6.076a7.6,7.6,0,0,1,1.022.98,7.09,7.09,0,0,0,4.438-7.084v-.77h2.758Zm11.284-2.254a1.536,1.536,0,0,0,1.54,1.54,1.536,1.536,0,0,0,1.54-1.54,1.548,1.548,0,0,0-1.54-1.554A1.547,1.547,0,0,0-24.626-10.612Zm1.54,1.05a1.058,1.058,0,0,1-1.05-1.05,1.049,1.049,0,0,1,1.05-1.05,1.049,1.049,0,0,1,1.05,1.05A1.057,1.057,0,0,1-23.086-9.562Zm.35,2.38v-1.33H-27.3v-2.436a.371.371,0,0,0,.378-.308l-1.792-.084v2.828h-4.578v1.33h4.578v6.146c0,.532-.294.532-1.148.532-.406,0-.924-.014-1.344-.028A7.068,7.068,0,0,1-30.814.756C-28.728.784-27.3.8-27.3-1.064V-7.182ZM-25.928-5.11a23.881,23.881,0,0,1,2.7,4.1l1.26-.728A26.421,26.421,0,0,0-24.794-5.7Zm-5.67-.476A9.561,9.561,0,0,1-34.02-1.75l1.162.728A11.875,11.875,0,0,0-30.324-5.11Zm11.774.994a.587.587,0,0,0,.448-.252h11.13v-1.4h-11.69Zm24.542-.56A49.076,49.076,0,0,0-.42-7.42l-.28.392v-4c.266-.056.392-.168.406-.322l-1.876-.112V.784H-.7V-5.992a41.562,41.562,0,0,1,4.634,2.2Zm5.74-6.2c-.112,1.708-.224,5.908-.224,7.728,0,2.7,1.246,4.3,4.088,4.3a7.631,7.631,0,0,0,5.614-2.7,8.824,8.824,0,0,1-.826-1.218A6.67,6.67,0,0,1,14.336-.77c-1.624,0-2.59-.91-2.59-2.856,0-2.058.14-5.53.252-7.294.28-.028.406-.14.434-.308Zm12.152,2.8c.868.028,2.212.042,3.136.042.532,0,1.134-.014,1.652-.028.028.742.042,1.512.07,2.282-.392.014-.812.014-1.162.014-1.12-.014-1.666-.07-1.666-.406,0-.154.084-.406.91-.812L24.6-8.008c-.952.6-1.372,1.092-1.372,1.638,0,.98.966,1.274,3.416,1.274.28,0,.574,0,.868-.014.028.63.042,1.218.056,1.722A5.744,5.744,0,0,0,26.292-3.5c-1.624,0-3.136.784-3.136,2.17,0,1.316,1.274,2.156,3.108,2.156s2.7-.784,2.716-2.03v-.532A13.256,13.256,0,0,1,32.032.21l.84-1.2A14.4,14.4,0,0,0,28.924-3.08c-.028-.532-.056-1.26-.084-2.072A24.5,24.5,0,0,0,32.676-5.6l-.14-1.232a23.994,23.994,0,0,1-3.724.5L28.77-8.582a30.243,30.243,0,0,0,4.592-.462l-.154-1.288a29.26,29.26,0,0,1-4.424.5c-.014-.434-.014-1.008-.014-1.4.238-.042.35-.126.364-.28l-1.806-.1c0,.462.014,1.19.028,1.834-.5.014-1.078.028-1.61.028-1.022,0-2.268,0-3.136-.056Zm5.012,7c0,.826-.378,1.246-1.344,1.246-1.064,0-1.876-.35-1.876-1.05s.854-1.078,1.806-1.078a5.246,5.246,0,0,1,1.414.21ZM35.98-8.2c1.54-.084,3.836-.14,6.146-.21.014.49.028,1.05.042,1.316,0,.042.014.1.014.154a1.978,1.978,0,0,0-1.106-.308,2.65,2.65,0,0,0-2.618,2.66A2.45,2.45,0,0,0,40.88-2.086a1.414,1.414,0,0,0,1.092-.49h.014A5.261,5.261,0,0,1,38.612.084a9.357,9.357,0,0,1,1.022,1.092c2.24-.854,4.214-2.534,4.214-5.4a5.18,5.18,0,0,0-.2-1.54c-.014-.448-.028-.812-.056-1.3-.014-.35-.014-.854-.028-1.372,1.722-.056,3.388-.07,4.466-.056V-9.814c-.9.014-2.716.056-4.494.112-.014-.616-.028-1.288-.028-1.652.252-.042.378-.182.392-.308L42-11.746c.028.378.084,1.876.084,2.072-.966.042-5.264.154-6.146.182Zm5.082,5.012a1.346,1.346,0,0,1-1.33-1.4,1.429,1.429,0,0,1,1.428-1.54c.812,0,1.232.5,1.232,1.512A1.327,1.327,0,0,1,41.062-3.192Z" transform="translate(82.659 139)" fill="#333"/>
    </g>
    <g id="グループ_2450" data-name="グループ 2450" transform="translate(968.854 4640.082)">
      <g transform="matrix(1, 0, 0, 1, -727.45, -22.35)" filter="url(#長方形_3533-4)">
        <rect id="長方形_3533-10" data-name="長方形 3533" width="164" height="80" transform="translate(727.59 22.35)" fill="#fff"/>
      </g>
      <g transform="matrix(1, 0, 0, 1, -727.45, -22.35)" filter="url(#長方形_3536)">
        <rect id="長方形_3536-2" data-name="長方形 3536" width="164" height="79" transform="translate(727.59 102.35)" fill="#f5f5f5"/>
      </g>
      <path id="パス_9593" data-name="パス 9593" d="M16.038-6.858H9.4q.378-.7.7-1.4a.363.363,0,0,0,.4-.18L10.44-8.46H16.2v-6.192H7.344V-8.46H8.928A13.1,13.1,0,0,1,5.256-3.6a6.674,6.674,0,0,1,.81.774A11.728,11.728,0,0,0,7.6-4.3v2.538C7.6-.576,7.956-.27,9.4-.27H12.15c1.1,0,1.44-.4,1.566-1.962a3.257,3.257,0,0,1-.99-.4c-.054,1.188-.144,1.35-.684,1.35H9.5c-.72,0-.828-.072-.828-.486v-.864A25.2,25.2,0,0,0,12.726-4a.675.675,0,0,0,.18.018.2.2,0,0,0,.144-.054l-.9-.828A20.242,20.242,0,0,1,8.676-3.492v-1.35c.216-.036.306-.108.324-.234L8.262-5.13c.162-.216.324-.45.486-.684h6.966c-.27,4.086-.594,5.688-1.008,6.12a.773.773,0,0,1-.666.216c-.342,0-1.224,0-2.16-.09A2.439,2.439,0,0,1,12.2,1.476c.576.036,1.17.054,1.638.054,1.044,0,1.458-.072,1.854-.54.576-.612.882-2.394,1.188-7.416a1.345,1.345,0,0,0,.054-.36l-.648-.108ZM15.03-13.716v1.692H8.478v-1.692Zm0,2.592V-9.4H8.478v-1.728ZM4.446-10.3h2.2V-11.43h-2.2v-3.42c.252-.036.342-.108.36-.252l-1.512-.09v3.762H.738V-10.3H3.294v4.05c-1.044.288-1.98.54-2.736.72l.45,1.4a.33.33,0,0,0,.234-.288l2.052-.63V.018c0,.36,0,.378-1.26.378C1.71.4,1.35.4.954.378a3.852,3.852,0,0,1,.378,1.17c2.412,0,3.114-.09,3.114-1.512V-5.418c.774-.234,1.584-.5,2.376-.756L6.678-7.2c-.738.216-1.494.432-2.232.63Zm30.762.216v-1.044H29.97c-.054-1.206-.072-2.43-.072-3.69.252-.036.36-.126.36-.27-.18-.018-.378-.036-1.584-.09,0,1.368.054,2.736.126,4.05H24.246V-12.69h3.366V-13.7H24.246v-1.17c.252-.036.342-.126.36-.252l-1.53-.09V-13.7H19.692v1.008h3.384v1.566H18.882v1.044h9.972a35.737,35.737,0,0,0,1.152,7.362A15.774,15.774,0,0,1,28.044-.594v-.7h-3.87V-2.358h3.312V-6.822H24.192V-7.866h3.78V-8.8h-3.78v-.864c.234-.036.342-.126.36-.234l-1.476-.108V-8.8h-3.69v.936h3.69v1.044H19.89v4.464h3.186V-1.3H19.1v.972h3.978V1.548h1.1V-.324H27.72A13.566,13.566,0,0,1,26.406.63a4.162,4.162,0,0,1,.882.9,14.3,14.3,0,0,0,3.168-2.916C31.194.432,32.184,1.53,33.5,1.53c1.278,0,1.71-.864,1.926-3.726a2.734,2.734,0,0,1-.972-.63c-.108,2.25-.324,3.168-.864,3.168-.918,0-1.674-1.08-2.268-2.826A22.031,22.031,0,0,0,34.272-8.46a.37.37,0,0,0,.378-.2l-1.4-.4a21.718,21.718,0,0,1-2.34,5.076,38.234,38.234,0,0,1-.864-6.1ZM23.148-6.066v1.1H20.826v-1.1Zm.972,1.1v-1.1h2.394v1.1Zm-.972.738v1.116H20.826V-4.23Zm.972,1.116V-4.23h2.394v1.116Zm7.092-11.214a13.788,13.788,0,0,1,2.556,2.592l.9-.7a13.794,13.794,0,0,0-2.592-2.484Zm13.554,2.106a5.1,5.1,0,0,1,.54-.036c4.212,0,6.12,2.7,6.12,5.67,0,3.4-2.124,5.418-6.264,6.21a7.1,7.1,0,0,1,.756,1.1c4.356-1.008,6.84-3.078,6.84-7.362,0-3.51-2.25-6.8-7.452-6.8a7.9,7.9,0,0,0-8.1,7.938c0,2.844,1.368,4.356,2.88,4.356,2.988,0,4.86-4.878,5.508-10.476a.465.465,0,0,0,.45-.288Zm-4.644,9.81c-.864,0-1.692-1.206-1.692-3.132a6.626,6.626,0,0,1,5.886-6.606C43.866-7.218,42.3-2.412,40.122-2.412ZM63.81-14.4v6.1h5.562v8.19c0,.414-.108.414-1.062.414-.45,0-1.044-.018-1.656-.036a4.739,4.739,0,0,1,.4,1.242c2.826,0,3.51-.072,3.51-1.62V-14.4Zm5.562,2.538H64.98v-1.584h4.392Zm-4.392.9h4.392v1.71H64.98ZM62.118-14.4H55.53V1.548h1.188V-8.316h5.4Zm-1.152,2.538H56.718v-1.584h4.248Zm-4.248.9h4.248V-9.27H56.718ZM67.932-4H65.376V-6.1h2.16V-7.128h-9.09V-6.1H60.48V-4H58.086V-2.97h2.358A4.718,4.718,0,0,1,58.23.594a4.074,4.074,0,0,1,.81.756,5.985,5.985,0,0,0,2.484-4.32h2.754V1.188h1.1V-2.97h2.556ZM61.56-6.1h2.718V-4H61.56Zm17.1-5.292H75.888c.27-1.206.522-2.376.72-3.4.234-.018.342-.09.36-.216l-1.476-.18c-.216,1.152-.468,2.448-.756,3.8H72.684v1.134h1.8c-.522,2.322-1.08,4.608-1.53,6.192l1.026.54L74.2-4.32a24.157,24.157,0,0,1,2.052,1.386A8.51,8.51,0,0,1,72.864.576a4.978,4.978,0,0,1,.756.99A9.729,9.729,0,0,0,77.184-2.2,12.825,12.825,0,0,1,79.11-.324l.738-.99a12.854,12.854,0,0,0-2.124-1.962,23.474,23.474,0,0,0,1.728-7.74l.108-.252-.684-.18Zm-.414,1.134A21.337,21.337,0,0,1,76.752-4C76-4.5,75.222-5,74.466-5.418c.378-1.476.792-3.168,1.17-4.842Zm3.78,11.79V.684H87.3v.774h1.206V-5.85H80.874V1.53ZM87.3-.432H82.026V-4.716H87.3ZM85.644-11.718a26.493,26.493,0,0,1,1.764,2.61l-5.238.252A56.376,56.376,0,0,0,84.2-14.6c.216-.018.36-.09.414-.216l-1.584-.4a44.83,44.83,0,0,1-2.052,6.39l-1.458.054.5,1.4A.3.3,0,0,0,80.28-7.6c1.89-.126,4.806-.306,7.65-.54a12.384,12.384,0,0,1,.522,1.224l1.062-.576a19.286,19.286,0,0,0-2.88-4.734Z" transform="translate(30.147 46)" fill="#333"/>
      <path id="パス_9594" data-name="パス 9594" d="M10.4-1.872h6.588v-9.576h-3.06c.126-.522.252-1.08.342-1.548h3.15v-1.458H9.792V-13h2.862c-.054.5-.144,1.062-.234,1.548H10.4Zm1.4-4.05V-7.416h3.708v1.494Zm0-2.736v-1.476h3.708v1.476Zm0,5.472V-4.68h3.708v1.494ZM.846-14.454v1.422H9.18v-1.422ZM7.29-.576v-.972H9.018V-2.52H7.29v-.954H9.018v-.972H7.29V-5.4H9.216V-6.516H7.452c.162-.306.306-.612.414-.864.2,0,.342-.054.378-.18l-1.494-.5a12.363,12.363,0,0,1-.54,1.548H5Q5.22-7,5.382-7.488c.18,0,.306-.054.36-.18l-1.494-.45a11.849,11.849,0,0,1-1.422,3.2c.054-.864.072-1.692.072-2.412v-.846H8.982V-12.06H1.44v4.734C1.44-5.04,1.35-1.854.36.45a4.559,4.559,0,0,1,1.224.864,16.923,16.923,0,0,0,1.17-5.238c.18.18.36.36.468.486.108-.126.234-.288.342-.432V1.386H4.806V.576H9L8.964.594a10.207,10.207,0,0,1,1.1,1.026,10.023,10.023,0,0,0,2.952-2.3.492.492,0,0,0,.324-.126l-1.476-.828A9.547,9.547,0,0,1,9.378.378V-.576ZM4.806-2.52v-.954h1.35v.954Zm0-1.926V-5.4h1.35v.954Zm1.35,2.9v.972H4.806v-.972Zm1.3-7.83H2.9v-1.458H7.452ZM17.694.738a18.275,18.275,0,0,0-2.376-2.322L14.094-.81a18.776,18.776,0,0,1,2.3,2.43ZM30.672-10.674H25.848c.18-.216.36-.45.522-.666.252,0,.4-.09.432-.252l-1.782-.324h7.866v2.07h1.746v-3.618h-6.8V-14.85c.288-.054.4-.144.414-.306l-2.16-.126v1.818H19.4v3.618h1.674v-2.07H24.7a11.367,11.367,0,0,1-5.148,3.888,5.042,5.042,0,0,1,1.134,1.26A17.585,17.585,0,0,0,23.274-8.3,12.9,12.9,0,0,0,25.4-6.5,26.442,26.442,0,0,1,18.5-4.374a6.535,6.535,0,0,1,.828,1.512c.864-.18,1.746-.4,2.61-.648V1.584h1.674V.99h6.822v.558h1.746v-5.22c.72.162,1.44.306,2.2.414a8.4,8.4,0,0,1,1.1-1.638A25.6,25.6,0,0,1,28.656-6.57a12.214,12.214,0,0,0,3.312-3.276.752.752,0,0,0,.27-.2l-1.278-.7ZM23.616-2.628h6.822v2.2H23.616Zm5.85-6.732A10.921,10.921,0,0,1,27-7.38a10.606,10.606,0,0,1-2.52-1.89l.108-.09Zm-5.85,5.31a23.594,23.594,0,0,0,3.366-1.494A21.282,21.282,0,0,0,30.744-4.05Zm27.7-6.984V-14.85c.288-.054.4-.144.414-.306l-2.106-.108v4.23H45.414v-1.224H41.832v-2.574c.288-.054.4-.144.414-.288l-2.052-.126v2.988h-3.6v1.584H44.82v1.3h4.806V-.63c0,.432-.072.432-1.134.432-.468,0-1.062-.018-1.71-.036a7.81,7.81,0,0,1,.558,1.818c3.24,0,3.978-.306,3.978-2.214V-9.378h2.07v-1.656ZM37.332-8.172a44.525,44.525,0,0,1,3.132,3.8A9.937,9.937,0,0,1,36.486.054,7.726,7.726,0,0,1,37.53,1.332,11.375,11.375,0,0,0,41.508-2.9a19.6,19.6,0,0,1,1.458,2.52l1.368-1.17a20.558,20.558,0,0,0-1.98-3.078,24.741,24.741,0,0,0,1.422-5.04c.252,0,.4-.09.432-.234l-2-.4A24.468,24.468,0,0,1,41.2-6.12c-.864-1.062-1.8-2.106-2.664-3.024ZM44.856-7.02a15.064,15.064,0,0,1,1.926,4.032l1.476-.738a14.458,14.458,0,0,0-2.016-3.96ZM71.28-11.376v-1.638H64.44v-1.818c.288-.054.4-.144.414-.306l-2.2-.126v2.25H56.034v4.662c0,2.628-.126,6.354-1.62,8.964a7.348,7.348,0,0,1,1.458.972c1.6-2.808,1.872-7.074,1.872-9.936v-3.024Zm-9.324,1.314a24.5,24.5,0,0,1,4.428,2.808l1.206-1.26a22.855,22.855,0,0,0-4.482-2.664ZM63.45-6.894c.288-.036.4-.144.414-.288l-2.106-.126v6.5c0,1.728.432,2.25,2.124,2.25h2.25c1.584,0,2-.846,2.16-3.888a5.362,5.362,0,0,1-1.53-.7C66.708-.54,66.6-.09,66.006-.09H64.134c-.576,0-.684-.108-.684-.738Zm8.136,6.21A19.279,19.279,0,0,0,69.1-6.5l-1.53.576A20.071,20.071,0,0,1,69.912,0ZM59.238-6.3A13.885,13.885,0,0,1,57.744-.774l1.53.7a15.818,15.818,0,0,0,1.512-5.886Z" transform="translate(40.147 113)" fill="#fb297a"/>
      <path id="パス_9595" data-name="パス 9595" d="M6.048-11.368V-6.51h6.664v-4.858Zm1.218,1.96V-10.4h4.186v.994Zm0,1.932V-8.484h4.186v1.008ZM5.11-5.768l-1.386.42V-7.854H5.236V-9.086H3.724V-11.55c.224-.028.308-.112.322-.238l-1.6-.07v2.772H.518v1.232H2.45V-4.97c-.8.238-1.526.434-2.114.588L.742-2.9a.286.286,0,0,0,.21-.238c.42-.14.938-.308,1.5-.5V-.308c0,.2-.07.266-.252.266s-.77,0-1.372-.014a5.206,5.206,0,0,1,.392,1.288c2.086,0,2.506-.294,2.506-1.54v-3.78l1.568-.546Zm7.742,3.794V-3.066H9.912V-4.508h3.626V-5.642H5.488v1.134h3.15V-.742A3.171,3.171,0,0,1,7.168-2.45,10.4,10.4,0,0,0,7.392-3.6c.168-.014.28-.07.294-.182L6.2-4.046A7.377,7.377,0,0,1,4.354.56a5.836,5.836,0,0,1,.98.7,6.15,6.15,0,0,0,1.414-2.3C7.756.518,9.226.9,11.13.9h2.184a4.378,4.378,0,0,1,.392-1.162c-.49.014-2.128.014-2.478.014A9.9,9.9,0,0,1,9.912-.336V-1.974ZM18.27-5.81c.56.126,1.162.252,1.75.406a24.719,24.719,0,0,1-4.774.63,3.541,3.541,0,0,1,.434,1.036,19.086,19.086,0,0,0,6.174-1.19,38.273,38.273,0,0,1,3.864,1.26l.8-.938c-.882-.336-2.086-.714-3.388-1.064a5.036,5.036,0,0,0,1.4-1.722h2.7V-8.456H20.342c.182-.224.336-.448.49-.658.21.028.322-.014.378-.126l-1.47-.448c-.266.378-.574.8-.9,1.232H14.8v1.064h3.22c-.434.546-.868,1.064-1.232,1.47l1.26.378Zm7.308-3.948v.994h1.288v-2.1H21.658v-.686c.21-.042.308-.112.322-.238l-1.652-.1v1.022h-5.11v2.1H16.45v-.994ZM19.53-7.392h3.5a3.332,3.332,0,0,1-1.358,1.358c-.938-.238-1.876-.434-2.73-.6ZM27.384-3.22H21.63v-.77c.224-.028.322-.1.336-.224l-1.666-.1V-3.22H14.644v1.106H19.32a12.781,12.781,0,0,1-4.984,2.1,5.517,5.517,0,0,1,.826,1.078A12.836,12.836,0,0,0,20.3-1.582V1.232h1.33V-1.652a13.173,13.173,0,0,0,5.25,2.73,5.638,5.638,0,0,1,.854-1.12,13.335,13.335,0,0,1-5.068-2.072h4.718Zm4.074-8.134c-.112,1.708-.224,5.908-.224,7.728,0,2.7,1.246,4.3,4.088,4.3a7.631,7.631,0,0,0,5.614-2.7,8.824,8.824,0,0,1-.826-1.218A6.67,6.67,0,0,1,35.336-.77c-1.624,0-2.59-.91-2.59-2.856,0-2.058.14-5.53.252-7.294.28-.028.406-.14.434-.308Zm12.152,2.8c.868.028,2.212.042,3.136.042.532,0,1.134-.014,1.652-.028.028.742.042,1.512.07,2.282-.392.014-.812.014-1.162.014-1.12-.014-1.666-.07-1.666-.406,0-.154.084-.406.91-.812L45.6-8.008c-.952.6-1.372,1.092-1.372,1.638,0,.98.966,1.274,3.416,1.274.28,0,.574,0,.868-.014.028.63.042,1.218.056,1.722A5.744,5.744,0,0,0,47.292-3.5c-1.624,0-3.136.784-3.136,2.17,0,1.316,1.274,2.156,3.108,2.156s2.7-.784,2.716-2.03v-.532A13.256,13.256,0,0,1,53.032.21l.84-1.2A14.4,14.4,0,0,0,49.924-3.08c-.028-.532-.056-1.26-.084-2.072A24.5,24.5,0,0,0,53.676-5.6l-.14-1.232a23.994,23.994,0,0,1-3.724.5L49.77-8.582a30.243,30.243,0,0,0,4.592-.462l-.154-1.288a29.26,29.26,0,0,1-4.424.5c-.014-.434-.014-1.008-.014-1.4.238-.042.35-.126.364-.28l-1.806-.1c0,.462.014,1.19.028,1.834-.5.014-1.078.028-1.61.028-1.022,0-2.268,0-3.136-.056Zm5.012,7c0,.826-.378,1.246-1.344,1.246-1.064,0-1.876-.35-1.876-1.05s.854-1.078,1.806-1.078a5.246,5.246,0,0,1,1.414.21ZM56.98-8.2c1.54-.084,3.836-.14,6.146-.21.014.49.028,1.05.042,1.316,0,.042.014.1.014.154a1.978,1.978,0,0,0-1.106-.308,2.65,2.65,0,0,0-2.618,2.66A2.45,2.45,0,0,0,61.88-2.086a1.414,1.414,0,0,0,1.092-.49h.014A5.261,5.261,0,0,1,59.612.084a9.357,9.357,0,0,1,1.022,1.092c2.24-.854,4.214-2.534,4.214-5.4a5.18,5.18,0,0,0-.2-1.54c-.014-.448-.028-.812-.056-1.3-.014-.35-.014-.854-.028-1.372,1.722-.056,3.388-.07,4.466-.056V-9.814c-.9.014-2.716.056-4.494.112-.014-.616-.028-1.288-.028-1.652.252-.042.378-.182.392-.308L63-11.746c.028.378.084,1.876.084,2.072-.966.042-5.264.154-6.146.182Zm5.082,5.012a1.346,1.346,0,0,1-1.33-1.4,1.429,1.429,0,0,1,1.428-1.54c.812,0,1.232.5,1.232,1.512A1.327,1.327,0,0,1,62.062-3.192Z" transform="translate(42.147 139)" fill="#333"/>
    </g>
    <g id="グループ_2452" data-name="グループ 2452" transform="translate(1149.813 4640.082)">
      <g transform="matrix(1, 0, 0, 1, -908.4, -22.35)" filter="url(#長方形_3533-5)">
        <rect id="長方形_3533-11" data-name="長方形 3533" width="163" height="80" transform="translate(908.59 22.35)" fill="#fff"/>
      </g>
      <g transform="matrix(1, 0, 0, 1, -908.4, -22.35)" filter="url(#長方形_3538)">
        <rect id="長方形_3538-2" data-name="長方形 3538" width="163" height="79" transform="translate(908.59 102.35)" fill="#f5f5f5"/>
      </g>
      <path id="パス_9596" data-name="パス 9596" d="M16.038-6.858H9.4q.378-.7.7-1.4a.363.363,0,0,0,.4-.18L10.44-8.46H16.2v-6.192H7.344V-8.46H8.928A13.1,13.1,0,0,1,5.256-3.6a6.674,6.674,0,0,1,.81.774A11.728,11.728,0,0,0,7.6-4.3v2.538C7.6-.576,7.956-.27,9.4-.27H12.15c1.1,0,1.44-.4,1.566-1.962a3.257,3.257,0,0,1-.99-.4c-.054,1.188-.144,1.35-.684,1.35H9.5c-.72,0-.828-.072-.828-.486v-.864A25.2,25.2,0,0,0,12.726-4a.675.675,0,0,0,.18.018.2.2,0,0,0,.144-.054l-.9-.828A20.242,20.242,0,0,1,8.676-3.492v-1.35c.216-.036.306-.108.324-.234L8.262-5.13c.162-.216.324-.45.486-.684h6.966c-.27,4.086-.594,5.688-1.008,6.12a.773.773,0,0,1-.666.216c-.342,0-1.224,0-2.16-.09A2.439,2.439,0,0,1,12.2,1.476c.576.036,1.17.054,1.638.054,1.044,0,1.458-.072,1.854-.54.576-.612.882-2.394,1.188-7.416a1.345,1.345,0,0,0,.054-.36l-.648-.108ZM15.03-13.716v1.692H8.478v-1.692Zm0,2.592V-9.4H8.478v-1.728ZM4.446-10.3h2.2V-11.43h-2.2v-3.42c.252-.036.342-.108.36-.252l-1.512-.09v3.762H.738V-10.3H3.294v4.05c-1.044.288-1.98.54-2.736.72l.45,1.4a.33.33,0,0,0,.234-.288l2.052-.63V.018c0,.36,0,.378-1.26.378C1.71.4,1.35.4.954.378a3.852,3.852,0,0,1,.378,1.17c2.412,0,3.114-.09,3.114-1.512V-5.418c.774-.234,1.584-.5,2.376-.756L6.678-7.2c-.738.216-1.494.432-2.232.63Zm30.762.216v-1.044H29.97c-.054-1.206-.072-2.43-.072-3.69.252-.036.36-.126.36-.27-.18-.018-.378-.036-1.584-.09,0,1.368.054,2.736.126,4.05H24.246V-12.69h3.366V-13.7H24.246v-1.17c.252-.036.342-.126.36-.252l-1.53-.09V-13.7H19.692v1.008h3.384v1.566H18.882v1.044h9.972a35.737,35.737,0,0,0,1.152,7.362A15.774,15.774,0,0,1,28.044-.594v-.7h-3.87V-2.358h3.312V-6.822H24.192V-7.866h3.78V-8.8h-3.78v-.864c.234-.036.342-.126.36-.234l-1.476-.108V-8.8h-3.69v.936h3.69v1.044H19.89v4.464h3.186V-1.3H19.1v.972h3.978V1.548h1.1V-.324H27.72A13.566,13.566,0,0,1,26.406.63a4.162,4.162,0,0,1,.882.9,14.3,14.3,0,0,0,3.168-2.916C31.194.432,32.184,1.53,33.5,1.53c1.278,0,1.71-.864,1.926-3.726a2.734,2.734,0,0,1-.972-.63c-.108,2.25-.324,3.168-.864,3.168-.918,0-1.674-1.08-2.268-2.826A22.031,22.031,0,0,0,34.272-8.46a.37.37,0,0,0,.378-.2l-1.4-.4a21.718,21.718,0,0,1-2.34,5.076,38.234,38.234,0,0,1-.864-6.1ZM23.148-6.066v1.1H20.826v-1.1Zm.972,1.1v-1.1h2.394v1.1Zm-.972.738v1.116H20.826V-4.23Zm.972,1.116V-4.23h2.394v1.116Zm7.092-11.214a13.788,13.788,0,0,1,2.556,2.592l.9-.7a13.794,13.794,0,0,0-2.592-2.484Zm13.554,2.106a5.1,5.1,0,0,1,.54-.036c4.212,0,6.12,2.7,6.12,5.67,0,3.4-2.124,5.418-6.264,6.21a7.1,7.1,0,0,1,.756,1.1c4.356-1.008,6.84-3.078,6.84-7.362,0-3.51-2.25-6.8-7.452-6.8a7.9,7.9,0,0,0-8.1,7.938c0,2.844,1.368,4.356,2.88,4.356,2.988,0,4.86-4.878,5.508-10.476a.465.465,0,0,0,.45-.288Zm-4.644,9.81c-.864,0-1.692-1.206-1.692-3.132a6.626,6.626,0,0,1,5.886-6.606C43.866-7.218,42.3-2.412,40.122-2.412ZM63.558-14.85c.234-.036.342-.126.36-.252L62.3-15.21v3.294H55.674v8.568H56.88V-4.5H62.3V1.494h1.26V-4.5h5.49v1.062H70.29v-8.478H63.558ZM56.88-10.728H62.3v5.022H56.88Zm6.678,0h5.49v5.022h-5.49Zm16.632,6.7v-7.6h1.368v-1.1H80.19v-1.926c.234-.018.324-.108.342-.234l-1.476-.09v2.25h-3.51v-1.926c.234-.036.324-.108.342-.234l-1.458-.09v2.25H72.864v1.1H74.43v7.6H72.612v1.1h9.054v-1.1ZM79.056-8.838V-7.02h-3.51V-8.838Zm0-1.008h-3.51v-1.782h3.51Zm0,3.816v2h-3.51v-2Zm3.456-8.244V-7.65c0,2.412-.144,5.472-1.548,7.83a16.763,16.763,0,0,0-1.908-2.7L78.1-2A14.812,14.812,0,0,1,79.974.792c.18-.108.954-.576.99-.576a6.993,6.993,0,0,1-.5.7,3.335,3.335,0,0,1,.936.72A12.334,12.334,0,0,0,83.52-4.7h4.1V0c0,.4-.108.4-1.026.4C86.184.4,85.626.378,85.05.36a4.423,4.423,0,0,1,.378,1.17c2.7.036,3.366-.072,3.366-1.53V-14.274Zm5.112,4.212H83.646v-3.1h3.978Zm-3.978,1.1h3.978V-5.8H83.592c.036-.648.054-1.278.054-1.854ZM75.2-2.5A9.678,9.678,0,0,1,72.72.828a6.955,6.955,0,0,1,.9.684,12.5,12.5,0,0,0,2.61-3.384q.3,0,.378-.162Z" transform="translate(30.188 46)" fill="#333"/>
      <path id="パス_9597" data-name="パス 9597" d="M17.424-11.952H11.34c.252-.864.486-1.746.666-2.628.252,0,.4-.09.45-.234l-2.106-.468A18.844,18.844,0,0,1,7.362-7.434v-6.408H.738v1.584H5.706v3.492H1.314v5.742c0,1.782.5,2.268,2.232,2.268H6.03c1.476,0,1.962-.63,2.16-3.042a5.121,5.121,0,0,1-1.53-.666c-.072,1.818-.18,2.088-.774,2.088H3.762c-.684,0-.792-.09-.792-.666V-7.218H5.706v.5H7.362V-7c.4.27.882.648,1.152.882a11.789,11.789,0,0,0,1.17-1.746,20.469,20.469,0,0,0,1.782,4.608A10.455,10.455,0,0,1,6.786.18a8.426,8.426,0,0,1,.972,1.44,12.683,12.683,0,0,0,4.68-3.366A10.562,10.562,0,0,0,16.452,1.6,6.39,6.39,0,0,1,17.64.108,9.63,9.63,0,0,1,13.518-3.24a20.052,20.052,0,0,0,2.412-7.092h1.494Zm-3.24,1.62A18.044,18.044,0,0,1,12.51-4.9a20.277,20.277,0,0,1-1.764-5.346l.036-.09Zm17.064,2.97H34.7V-8.64H27.828V-9.666h5.184v-1.242H27.828v-1.008h6.3v-1.278H30.546c.378-.468.792-1.008,1.062-1.422.234,0,.36-.054.414-.2l-2.034-.5a11.9,11.9,0,0,1-1.152,2l.378.126H24.642l.45-.144a7.782,7.782,0,0,0-1.134-1.926l-1.53.414a10.067,10.067,0,0,1,.918,1.656H19.872v1.278h6.21v1.008H21.024v1.242h5.058V-8.64h-6.7v1.278h3.4l-1.206.324a7.626,7.626,0,0,1,.756,1.35H18.81v1.35h16.4v-1.35H31.482c.324-.378.648-.774.882-1.1.2,0,.342-.054.4-.2ZM26.082-5.688H23.976l.162-.054a6.215,6.215,0,0,0-.954-1.62h2.9Zm1.746-1.674H30.69a18.609,18.609,0,0,1-1.062,1.674h-1.8ZM23,1.584V1.008h8.028V1.53h1.746V-3.438H21.312V1.584ZM31.032-.342H23V-2.106h8.028ZM46.746-5.094l1.44-.666v4.3H49.7V-6.48l1.458-.684c0,1.926-.036,3.186-.072,3.42-.036.252-.144.288-.324.288-.144,0-.522,0-.81-.018A4.477,4.477,0,0,1,50.292-2.2c1.854.072,2.178-.522,2.232-1.242.054-.522.072-2.574.09-5.13a.366.366,0,0,0,.216-.216c-.54-.2-.882-.306-1.224-.414-.27.2-.306.216-.558.414l-1.35.648v-2.106c.27-.036.36-.144.378-.288l-1.89-.108v3.2l-1.44.666V-8.784c.27-.036.36-.126.378-.288L45.36-9.18a13.47,13.47,0,0,0,1.062-1.962h6.984V-12.69H47.034c.216-.612.4-1.242.558-1.872a.43.43,0,0,0,.432-.216l-2-.5A13.45,13.45,0,0,1,43.38-9.27a10.209,10.209,0,0,1,1.188,1.134,7.77,7.77,0,0,0,.648-.828v2.916L43.65-5.31l.612,1.386.954-.45V-.936c0,1.8.522,2.286,2.5,2.286H51.21c1.6,0,2.07-.594,2.286-2.664a4.567,4.567,0,0,1-1.422-.594C51.984-.378,51.84-.09,51.1-.09h-3.24c-.972,0-1.116-.144-1.116-.864Zm-6.66-3.42c.036-.756.054-1.53.072-2.286H44.37v-1.584H41.346v-2.448c.27-.036.378-.126.4-.288l-2.034-.126v2.862H36.666V-10.8h1.89C38.484-6.408,38.3-2.088,36.45.432a4.474,4.474,0,0,1,1.242,1.152c1.53-2.106,2.088-5.256,2.322-8.55h1.872c-.09,4.734-.2,6.444-.468,6.822a.49.49,0,0,1-.468.252c-.324,0-.936,0-1.62-.054a4.144,4.144,0,0,1,.432,1.53c2.214.054,2.592-.09,3.024-.72.468-.63.558-2.718.666-8.82.018-.2.018-.4.018-.54l-.828-.018ZM67.77-5.67v1.908c0,.162-.054.234-.252.234-.18,0-.7,0-1.3-.018a6.3,6.3,0,0,1,.522,1.3c2,0,2.736-.09,2.736-1.512V-7.128H63.81V-8.244h7.308V-9.756H63.81v-.936c.306-.054.414-.144.432-.306l-.846-.054A11.276,11.276,0,0,0,64.6-12.42h1.17a13.8,13.8,0,0,1,1.26,2.052l1.548-.522a10.935,10.935,0,0,0-.972-1.53h3.744v-1.3h-5.9c.18-.306.324-.612.468-.918.216.018.36-.054.414-.18-.5-.162-1.026-.306-1.872-.558a9.865,9.865,0,0,1-1.71,2.79v-1.134H58.212c.144-.306.288-.612.414-.9a.431.431,0,0,0,.432-.18l-1.872-.576a11.775,11.775,0,0,1-2.646,4.23,10.7,10.7,0,0,1,1.3.846,12.205,12.205,0,0,0,1.638-2.124H58a9.549,9.549,0,0,1,.828,1.98l1.53-.486a11.741,11.741,0,0,0-.648-1.494h2.9a7.339,7.339,0,0,1-.882.81c.216.126.5.324.774.5l-.378-.018v1.368H54.936v1.512h7.182v1.116H56.646V-2.34h1.692V-5.67h3.78v1.206a14.257,14.257,0,0,1-7.6,4.158,7.2,7.2,0,0,1,1.062,1.4A15.338,15.338,0,0,0,62.118-2.52v4.1H63.81V-2.61a16.26,16.26,0,0,0,6.678,3.69,6.88,6.88,0,0,1,1.08-1.494A14.762,14.762,0,0,1,63.81-4.482V-5.67Z" transform="translate(41.188 113)" fill="#fb297a"/>
      <path id="パス_9598" data-name="パス 9598" d="M-35.91-8.358h-2.758v-2.688c.252-.042.364-.154.378-.294l-1.778-.1v3.08h-4.06v-2.464c.252-.042.378-.182.392-.322l-1.778-.112v2.9H-48.09v1.344h2.576V-3.7h1.386V-7.014h4.06v.8c0,2.282-.672,4.592-4.06,6.076a7.6,7.6,0,0,1,1.022.98,7.09,7.09,0,0,0,4.438-7.084v-.77h2.758Zm11.284-2.254a1.536,1.536,0,0,0,1.54,1.54,1.536,1.536,0,0,0,1.54-1.54,1.548,1.548,0,0,0-1.54-1.554A1.547,1.547,0,0,0-24.626-10.612Zm1.54,1.05a1.058,1.058,0,0,1-1.05-1.05,1.049,1.049,0,0,1,1.05-1.05,1.049,1.049,0,0,1,1.05,1.05A1.057,1.057,0,0,1-23.086-9.562Zm.35,2.38v-1.33H-27.3v-2.436a.371.371,0,0,0,.378-.308l-1.792-.084v2.828h-4.578v1.33h4.578v6.146c0,.532-.294.532-1.148.532-.406,0-.924-.014-1.344-.028A7.068,7.068,0,0,1-30.814.756C-28.728.784-27.3.8-27.3-1.064V-7.182ZM-25.928-5.11a23.881,23.881,0,0,1,2.7,4.1l1.26-.728A26.421,26.421,0,0,0-24.794-5.7Zm-5.67-.476A9.561,9.561,0,0,1-34.02-1.75l1.162.728A11.875,11.875,0,0,0-30.324-5.11Zm11.774.994a.587.587,0,0,0,.448-.252h11.13v-1.4h-11.69Zm24.542-.56A49.076,49.076,0,0,0-.42-7.42l-.28.392v-4c.266-.056.392-.168.406-.322l-1.876-.112V.784H-.7V-5.992a41.562,41.562,0,0,1,4.634,2.2Zm5.74-6.2c-.112,1.708-.224,5.908-.224,7.728,0,2.7,1.246,4.3,4.088,4.3a7.631,7.631,0,0,0,5.614-2.7,8.824,8.824,0,0,1-.826-1.218A6.67,6.67,0,0,1,14.336-.77c-1.624,0-2.59-.91-2.59-2.856,0-2.058.14-5.53.252-7.294.28-.028.406-.14.434-.308Zm12.152,2.8c.868.028,2.212.042,3.136.042.532,0,1.134-.014,1.652-.028.028.742.042,1.512.07,2.282-.392.014-.812.014-1.162.014-1.12-.014-1.666-.07-1.666-.406,0-.154.084-.406.91-.812L24.6-8.008c-.952.6-1.372,1.092-1.372,1.638,0,.98.966,1.274,3.416,1.274.28,0,.574,0,.868-.014.028.63.042,1.218.056,1.722A5.744,5.744,0,0,0,26.292-3.5c-1.624,0-3.136.784-3.136,2.17,0,1.316,1.274,2.156,3.108,2.156s2.7-.784,2.716-2.03v-.532A13.256,13.256,0,0,1,32.032.21l.84-1.2A14.4,14.4,0,0,0,28.924-3.08c-.028-.532-.056-1.26-.084-2.072A24.5,24.5,0,0,0,32.676-5.6l-.14-1.232a23.994,23.994,0,0,1-3.724.5L28.77-8.582a30.243,30.243,0,0,0,4.592-.462l-.154-1.288a29.26,29.26,0,0,1-4.424.5c-.014-.434-.014-1.008-.014-1.4.238-.042.35-.126.364-.28l-1.806-.1c0,.462.014,1.19.028,1.834-.5.014-1.078.028-1.61.028-1.022,0-2.268,0-3.136-.056Zm5.012,7c0,.826-.378,1.246-1.344,1.246-1.064,0-1.876-.35-1.876-1.05s.854-1.078,1.806-1.078a5.246,5.246,0,0,1,1.414.21ZM35.98-8.2c1.54-.084,3.836-.14,6.146-.21.014.49.028,1.05.042,1.316,0,.042.014.1.014.154a1.978,1.978,0,0,0-1.106-.308,2.65,2.65,0,0,0-2.618,2.66A2.45,2.45,0,0,0,40.88-2.086a1.414,1.414,0,0,0,1.092-.49h.014A5.261,5.261,0,0,1,38.612.084a9.357,9.357,0,0,1,1.022,1.092c2.24-.854,4.214-2.534,4.214-5.4a5.18,5.18,0,0,0-.2-1.54c-.014-.448-.028-.812-.056-1.3-.014-.35-.014-.854-.028-1.372,1.722-.056,3.388-.07,4.466-.056V-9.814c-.9.014-2.716.056-4.494.112-.014-.616-.028-1.288-.028-1.652.252-.042.378-.182.392-.308L42-11.746c.028.378.084,1.876.084,2.072-.966.042-5.264.154-6.146.182Zm5.082,5.012a1.346,1.346,0,0,1-1.33-1.4,1.429,1.429,0,0,1,1.428-1.54c.812,0,1.232.5,1.232,1.512A1.327,1.327,0,0,1,41.062-3.192Z" transform="translate(78.188 139)" fill="#333"/>
    </g>
    <g id="グループ_2453" data-name="グループ 2453" transform="translate(1330.324 4640.082)">
      <g transform="matrix(1, 0, 0, 1, -1088.92, -22.35)" filter="url(#長方形_3533-6)">
        <rect id="長方形_3533-12" data-name="長方形 3533" width="164" height="80" transform="translate(1088.59 22.35)" fill="#fff"/>
      </g>
      <g transform="matrix(1, 0, 0, 1, -1088.92, -22.35)" filter="url(#長方形_3539)">
        <rect id="長方形_3539-2" data-name="長方形 3539" width="164" height="79" transform="translate(1088.59 102.35)" fill="#f5f5f5"/>
      </g>
      <path id="パス_9599" data-name="パス 9599" d="M16.038-6.858H9.4q.378-.7.7-1.4a.363.363,0,0,0,.4-.18L10.44-8.46H16.2v-6.192H7.344V-8.46H8.928A13.1,13.1,0,0,1,5.256-3.6a6.674,6.674,0,0,1,.81.774A11.728,11.728,0,0,0,7.6-4.3v2.538C7.6-.576,7.956-.27,9.4-.27H12.15c1.1,0,1.44-.4,1.566-1.962a3.257,3.257,0,0,1-.99-.4c-.054,1.188-.144,1.35-.684,1.35H9.5c-.72,0-.828-.072-.828-.486v-.864A25.2,25.2,0,0,0,12.726-4a.675.675,0,0,0,.18.018.2.2,0,0,0,.144-.054l-.9-.828A20.242,20.242,0,0,1,8.676-3.492v-1.35c.216-.036.306-.108.324-.234L8.262-5.13c.162-.216.324-.45.486-.684h6.966c-.27,4.086-.594,5.688-1.008,6.12a.773.773,0,0,1-.666.216c-.342,0-1.224,0-2.16-.09A2.439,2.439,0,0,1,12.2,1.476c.576.036,1.17.054,1.638.054,1.044,0,1.458-.072,1.854-.54.576-.612.882-2.394,1.188-7.416a1.345,1.345,0,0,0,.054-.36l-.648-.108ZM15.03-13.716v1.692H8.478v-1.692Zm0,2.592V-9.4H8.478v-1.728ZM4.446-10.3h2.2V-11.43h-2.2v-3.42c.252-.036.342-.108.36-.252l-1.512-.09v3.762H.738V-10.3H3.294v4.05c-1.044.288-1.98.54-2.736.72l.45,1.4a.33.33,0,0,0,.234-.288l2.052-.63V.018c0,.36,0,.378-1.26.378C1.71.4,1.35.4.954.378a3.852,3.852,0,0,1,.378,1.17c2.412,0,3.114-.09,3.114-1.512V-5.418c.774-.234,1.584-.5,2.376-.756L6.678-7.2c-.738.216-1.494.432-2.232.63Zm30.762.216v-1.044H29.97c-.054-1.206-.072-2.43-.072-3.69.252-.036.36-.126.36-.27-.18-.018-.378-.036-1.584-.09,0,1.368.054,2.736.126,4.05H24.246V-12.69h3.366V-13.7H24.246v-1.17c.252-.036.342-.126.36-.252l-1.53-.09V-13.7H19.692v1.008h3.384v1.566H18.882v1.044h9.972a35.737,35.737,0,0,0,1.152,7.362A15.774,15.774,0,0,1,28.044-.594v-.7h-3.87V-2.358h3.312V-6.822H24.192V-7.866h3.78V-8.8h-3.78v-.864c.234-.036.342-.126.36-.234l-1.476-.108V-8.8h-3.69v.936h3.69v1.044H19.89v4.464h3.186V-1.3H19.1v.972h3.978V1.548h1.1V-.324H27.72A13.566,13.566,0,0,1,26.406.63a4.162,4.162,0,0,1,.882.9,14.3,14.3,0,0,0,3.168-2.916C31.194.432,32.184,1.53,33.5,1.53c1.278,0,1.71-.864,1.926-3.726a2.734,2.734,0,0,1-.972-.63c-.108,2.25-.324,3.168-.864,3.168-.918,0-1.674-1.08-2.268-2.826A22.031,22.031,0,0,0,34.272-8.46a.37.37,0,0,0,.378-.2l-1.4-.4a21.718,21.718,0,0,1-2.34,5.076,38.234,38.234,0,0,1-.864-6.1ZM23.148-6.066v1.1H20.826v-1.1Zm.972,1.1v-1.1h2.394v1.1Zm-.972.738v1.116H20.826V-4.23Zm.972,1.116V-4.23h2.394v1.116Zm7.092-11.214a13.788,13.788,0,0,1,2.556,2.592l.9-.7a13.794,13.794,0,0,0-2.592-2.484Zm13.554,2.106a5.1,5.1,0,0,1,.54-.036c4.212,0,6.12,2.7,6.12,5.67,0,3.4-2.124,5.418-6.264,6.21a7.1,7.1,0,0,1,.756,1.1c4.356-1.008,6.84-3.078,6.84-7.362,0-3.51-2.25-6.8-7.452-6.8a7.9,7.9,0,0,0-8.1,7.938c0,2.844,1.368,4.356,2.88,4.356,2.988,0,4.86-4.878,5.508-10.476a.465.465,0,0,0,.45-.288Zm-4.644,9.81c-.864,0-1.692-1.206-1.692-3.132a6.626,6.626,0,0,1,5.886-6.606C43.866-7.218,42.3-2.412,40.122-2.412ZM69.1-13.374H65.124c.234-.486.45-.954.63-1.386.216-.018.324-.108.36-.234l-1.476-.216a15.129,15.129,0,0,1-3.78,5.8,3.088,3.088,0,0,1,.864.738,14.4,14.4,0,0,0,1.962-2.268,13.754,13.754,0,0,0,1.89,2.664,15.357,15.357,0,0,1-3.8,2.61,15.758,15.758,0,0,0-2-3.708l-.9.4A17.244,17.244,0,0,1,59.94-7.2l-3.114.054a51.783,51.783,0,0,0,3.618-5.238.457.457,0,0,0,.4-.162l-1.26-.594a36.436,36.436,0,0,1-2.016,3.42A12.767,12.767,0,0,0,56.484-11a28.237,28.237,0,0,0,1.944-3.492q.3,0,.378-.162l-1.278-.54a27.3,27.3,0,0,1-1.71,3.51c-.2-.2-.4-.378-.576-.54l-.63.774a17.447,17.447,0,0,1,2.322,2.664c-.432.612-.846,1.17-1.242,1.656h-1.26l.324,1.35c.126-.036.234-.09.252-.234.72-.018,1.62-.054,2.628-.108V1.53h1.08v-7.7c.54-.036,1.116-.054,1.674-.09a7.633,7.633,0,0,1,.414,1.08l.072-.036a4.35,4.35,0,0,1,.738.918A16.537,16.537,0,0,0,66.348-7.47,13.915,13.915,0,0,0,70.83-4.5a7.073,7.073,0,0,1,.792-.99A13.169,13.169,0,0,1,67.1-8.244a14.3,14.3,0,0,0,2.79-4.554.35.35,0,0,0,.234-.18l-.828-.45Zm-.648,1.08a12.766,12.766,0,0,1-2.142,3.258,13.531,13.531,0,0,1-2-2.88l.216-.378ZM68.6-3.438a18.783,18.783,0,0,0-3.672-2.034l-.738.756a18.452,18.452,0,0,1,3.636,2.124Zm-6.93,2.106a16.787,16.787,0,0,0-1.242-3.546l-.936.306A16.035,16.035,0,0,1,60.678-.99ZM55.6-4.824A15.537,15.537,0,0,1,54.468-.45c.252.126.648.306.9.468A16.641,16.641,0,0,0,56.574-4.3a.359.359,0,0,0,.36-.18ZM70.02.648A38.033,38.033,0,0,0,62.928-2.16L62.19-1.3A33.085,33.085,0,0,1,69.3,1.62Zm10.17-4.68v-7.6h1.368v-1.1H80.19v-1.926c.234-.018.324-.108.342-.234l-1.476-.09v2.25h-3.51v-1.926c.234-.036.324-.108.342-.234l-1.458-.09v2.25H72.864v1.1H74.43v7.6H72.612v1.1h9.054v-1.1ZM79.056-8.838V-7.02h-3.51V-8.838Zm0-1.008h-3.51v-1.782h3.51Zm0,3.816v2h-3.51v-2Zm3.456-8.244V-7.65c0,2.412-.144,5.472-1.548,7.83a16.763,16.763,0,0,0-1.908-2.7L78.1-2A14.812,14.812,0,0,1,79.974.792c.18-.108.954-.576.99-.576a6.993,6.993,0,0,1-.5.7,3.335,3.335,0,0,1,.936.72A12.334,12.334,0,0,0,83.52-4.7h4.1V0c0,.4-.108.4-1.026.4C86.184.4,85.626.378,85.05.36a4.423,4.423,0,0,1,.378,1.17c2.7.036,3.366-.072,3.366-1.53V-14.274Zm5.112,4.212H83.646v-3.1h3.978Zm-3.978,1.1h3.978V-5.8H83.592c.036-.648.054-1.278.054-1.854ZM75.2-2.5A9.678,9.678,0,0,1,72.72.828a6.955,6.955,0,0,1,.9.684,12.5,12.5,0,0,0,2.61-3.384q.3,0,.378-.162Z" transform="translate(29.676 46)" fill="#333"/>
      <path id="パス_9600" data-name="パス 9600" d="M17.226-8.334H.792v1.386h1.6v5.8c-.612.054-1.17.09-1.656.126L1.26.666A.305.305,0,0,0,1.53.414C2.862.234,4.842-.018,6.858-.27V1.584H8.5V-6.948h8.73ZM3.96-3.708V-4.734h2.9v1.026Zm0-2.25v-.99h2.9v.99Zm2.9,3.474v.9c-.99.108-1.98.2-2.9.288V-2.484ZM3.15-14.562v5.328H14.868v-5.328Zm1.638,2.106v-.954h8.37v.954Zm0,2.07v-.972h8.37v.972Zm10.35,4.392H8.946v1.332h1.746l-.972.27a10.406,10.406,0,0,0,1.944,3.078,9.713,9.713,0,0,1-2.97,1.6A6.035,6.035,0,0,1,9.63,1.6,11.889,11.889,0,0,0,12.816-.216a10.727,10.727,0,0,0,3.564,1.8A5.269,5.269,0,0,1,17.406.252a10.421,10.421,0,0,1-3.456-1.53A10.489,10.489,0,0,0,16.308-5.4a.77.77,0,0,0,.162-.234l-1.062-.414Zm-.81,1.332A8.747,8.747,0,0,1,12.744-2.3a8.288,8.288,0,0,1-1.6-2.358Zm18.648-8.874H29.592c.2-.4.36-.792.522-1.17a.409.409,0,0,0,.414-.27l-1.98-.288A14.181,14.181,0,0,1,24.84-9.648a4.982,4.982,0,0,1,1.206,1.1,14.689,14.689,0,0,0,1.674-1.872A16.314,16.314,0,0,0,29.25-8.3a14.771,14.771,0,0,1-3.456,2.286,17.449,17.449,0,0,0-1.728-3.42l-1.242.522c.288.486.576,1.026.846,1.566l-2.448.054a45.3,45.3,0,0,0,3.42-4.932.565.565,0,0,0,.468-.162l-1.674-.774C22.95-12.2,22.3-11.07,21.6-9.972a9.652,9.652,0,0,0-.828-.99,26.946,26.946,0,0,0,1.89-3.42.486.486,0,0,0,.432-.162l-1.728-.72a25.772,25.772,0,0,1-1.512,3.348c-.162-.162-.324-.306-.486-.45l-.846,1.134a15.935,15.935,0,0,1,2.2,2.556c-.342.5-.7.99-1.044,1.4l-1.26.018.36,1.764a.342.342,0,0,0,.306-.252c.648-.018,1.458-.072,2.358-.108V1.6H22.95V-5.94l1.3-.09a7.832,7.832,0,0,1,.324.99l.5-.234a5.868,5.868,0,0,1,.756,1.062,15.9,15.9,0,0,0,4.518-2.952A13.853,13.853,0,0,0,34.632-4.41a7.323,7.323,0,0,1,1.1-1.368,12.74,12.74,0,0,1-4.3-2.5,14.742,14.742,0,0,0,2.7-4.482.473.473,0,0,0,.27-.216l-1.152-.612Zm-.864,1.476a11.467,11.467,0,0,1-1.818,2.7A12.357,12.357,0,0,1,28.6-11.718l.2-.342Zm.63,8.5a19.7,19.7,0,0,0-3.654-2l-.99,1.08a17.267,17.267,0,0,1,3.636,2.106ZM23.364-4.41A19.232,19.232,0,0,1,24.48-.828c.612-.216.99-.342,1.368-.486a19.388,19.388,0,0,0-1.206-3.51ZM19.4-4.752a15.726,15.726,0,0,1-1.026,4.3A8.563,8.563,0,0,1,19.6.144a15.442,15.442,0,0,0,1.134-4.3c.18.018.342-.018.378-.2ZM34.11.4a36.488,36.488,0,0,0-6.93-2.79L26.172-1.188A31.209,31.209,0,0,1,33.1,1.746ZM53.19-4.122H45.81V-5.04a.617.617,0,0,0,.324-.108H52.65V-6.48H46.17V-7.506h5.022v-1.17H46.17V-9.684h4.986v-1.152H46.17v-.99h5.724v-1.368H46.242c.306-.5.594-1.026.81-1.458.27-.018.4-.072.45-.216l-2.106-.4a16.932,16.932,0,0,1-.936,2.07H41.418c.324-.522.612-1.026.882-1.494a.383.383,0,0,0,.414-.252L40.68-15.3a15.97,15.97,0,0,1-4.356,5.472,5.238,5.238,0,0,1,1.152,1.206,16.9,16.9,0,0,0,1.53-1.458v4.932h5.112v1.026H36.846v1.386H42.8A20.041,20.041,0,0,1,36.414.018a7.5,7.5,0,0,1,1.116,1.4,21.441,21.441,0,0,0,6.588-3.4V1.584H45.81V-2.034a21.172,21.172,0,0,0,6.678,3.348A7.093,7.093,0,0,1,53.55-.072,20.282,20.282,0,0,1,47.2-2.736H53.19ZM40.608-8.676V-9.684h3.924v1.008Zm0-2.16v-.99h3.924v.99Zm3.924,3.33V-6.48H40.608V-7.506Zm22.14-3.168H61.848c.18-.216.36-.45.522-.666.252,0,.4-.09.432-.252l-1.782-.324h7.866v2.07h1.746v-3.618h-6.8V-14.85c.288-.054.4-.144.414-.306l-2.16-.126v1.818H55.4v3.618h1.674v-2.07H60.7a11.367,11.367,0,0,1-5.148,3.888,5.042,5.042,0,0,1,1.134,1.26A17.585,17.585,0,0,0,59.274-8.3,12.9,12.9,0,0,0,61.4-6.5,26.442,26.442,0,0,1,54.5-4.374a6.535,6.535,0,0,1,.828,1.512c.864-.18,1.746-.4,2.61-.648V1.584h1.674V.99h6.822v.558h1.746v-5.22c.72.162,1.44.306,2.2.414a8.4,8.4,0,0,1,1.1-1.638A25.6,25.6,0,0,1,64.656-6.57a12.214,12.214,0,0,0,3.312-3.276.752.752,0,0,0,.27-.2l-1.278-.7ZM59.616-2.628h6.822v2.2H59.616Zm5.85-6.732A10.921,10.921,0,0,1,63-7.38a10.606,10.606,0,0,1-2.52-1.89l.108-.09Zm-5.85,5.31a23.6,23.6,0,0,0,3.366-1.494A21.282,21.282,0,0,0,66.744-4.05Z" transform="translate(41.676 113)" fill="#fb297a"/>
      <path id="パス_9601" data-name="パス 9601" d="M-35.91-8.358h-2.758v-2.688c.252-.042.364-.154.378-.294l-1.778-.1v3.08h-4.06v-2.464c.252-.042.378-.182.392-.322l-1.778-.112v2.9H-48.09v1.344h2.576V-3.7h1.386V-7.014h4.06v.8c0,2.282-.672,4.592-4.06,6.076a7.6,7.6,0,0,1,1.022.98,7.09,7.09,0,0,0,4.438-7.084v-.77h2.758Zm11.284-2.254a1.536,1.536,0,0,0,1.54,1.54,1.536,1.536,0,0,0,1.54-1.54,1.548,1.548,0,0,0-1.54-1.554A1.547,1.547,0,0,0-24.626-10.612Zm1.54,1.05a1.058,1.058,0,0,1-1.05-1.05,1.049,1.049,0,0,1,1.05-1.05,1.049,1.049,0,0,1,1.05,1.05A1.057,1.057,0,0,1-23.086-9.562Zm.35,2.38v-1.33H-27.3v-2.436a.371.371,0,0,0,.378-.308l-1.792-.084v2.828h-4.578v1.33h4.578v6.146c0,.532-.294.532-1.148.532-.406,0-.924-.014-1.344-.028A7.068,7.068,0,0,1-30.814.756C-28.728.784-27.3.8-27.3-1.064V-7.182ZM-25.928-5.11a23.881,23.881,0,0,1,2.7,4.1l1.26-.728A26.421,26.421,0,0,0-24.794-5.7Zm-5.67-.476A9.561,9.561,0,0,1-34.02-1.75l1.162.728A11.875,11.875,0,0,0-30.324-5.11Zm11.774.994a.587.587,0,0,0,.448-.252h11.13v-1.4h-11.69Zm24.542-.56A49.076,49.076,0,0,0-.42-7.42l-.28.392v-4c.266-.056.392-.168.406-.322l-1.876-.112V.784H-.7V-5.992a41.562,41.562,0,0,1,4.634,2.2Zm5.74-6.2c-.112,1.708-.224,5.908-.224,7.728,0,2.7,1.246,4.3,4.088,4.3a7.631,7.631,0,0,0,5.614-2.7,8.824,8.824,0,0,1-.826-1.218A6.67,6.67,0,0,1,14.336-.77c-1.624,0-2.59-.91-2.59-2.856,0-2.058.14-5.53.252-7.294.28-.028.406-.14.434-.308Zm12.152,2.8c.868.028,2.212.042,3.136.042.532,0,1.134-.014,1.652-.028.028.742.042,1.512.07,2.282-.392.014-.812.014-1.162.014-1.12-.014-1.666-.07-1.666-.406,0-.154.084-.406.91-.812L24.6-8.008c-.952.6-1.372,1.092-1.372,1.638,0,.98.966,1.274,3.416,1.274.28,0,.574,0,.868-.014.028.63.042,1.218.056,1.722A5.744,5.744,0,0,0,26.292-3.5c-1.624,0-3.136.784-3.136,2.17,0,1.316,1.274,2.156,3.108,2.156s2.7-.784,2.716-2.03v-.532A13.256,13.256,0,0,1,32.032.21l.84-1.2A14.4,14.4,0,0,0,28.924-3.08c-.028-.532-.056-1.26-.084-2.072A24.5,24.5,0,0,0,32.676-5.6l-.14-1.232a23.994,23.994,0,0,1-3.724.5L28.77-8.582a30.243,30.243,0,0,0,4.592-.462l-.154-1.288a29.26,29.26,0,0,1-4.424.5c-.014-.434-.014-1.008-.014-1.4.238-.042.35-.126.364-.28l-1.806-.1c0,.462.014,1.19.028,1.834-.5.014-1.078.028-1.61.028-1.022,0-2.268,0-3.136-.056Zm5.012,7c0,.826-.378,1.246-1.344,1.246-1.064,0-1.876-.35-1.876-1.05s.854-1.078,1.806-1.078a5.246,5.246,0,0,1,1.414.21ZM35.98-8.2c1.54-.084,3.836-.14,6.146-.21.014.49.028,1.05.042,1.316,0,.042.014.1.014.154a1.978,1.978,0,0,0-1.106-.308,2.65,2.65,0,0,0-2.618,2.66A2.45,2.45,0,0,0,40.88-2.086a1.414,1.414,0,0,0,1.092-.49h.014A5.261,5.261,0,0,1,38.612.084a9.357,9.357,0,0,1,1.022,1.092c2.24-.854,4.214-2.534,4.214-5.4a5.18,5.18,0,0,0-.2-1.54c-.014-.448-.028-.812-.056-1.3-.014-.35-.014-.854-.028-1.372,1.722-.056,3.388-.07,4.466-.056V-9.814c-.9.014-2.716.056-4.494.112-.014-.616-.028-1.288-.028-1.652.252-.042.378-.182.392-.308L42-11.746c.028.378.084,1.876.084,2.072-.966.042-5.264.154-6.146.182Zm5.082,5.012a1.346,1.346,0,0,1-1.33-1.4,1.429,1.429,0,0,1,1.428-1.54c.812,0,1.232.5,1.232,1.512A1.327,1.327,0,0,1,41.062-3.192Z" transform="translate(78.676 139)" fill="#333"/>
    </g>
    <path id="多角形_6" data-name="多角形 6" d="M52,0l52,68.649H0Z" transform="translate(1590.149 4666.082) rotate(90)" fill="#fff"/>
    <g id="グループ_2455" data-name="グループ 2455" transform="translate(1525.676 4629)">
      <g id="グループ_2427" data-name="グループ 2427" transform="translate(0 0)">
        <g id="グループ_2426" data-name="グループ 2426" transform="translate(29.268 0) rotate(11)">
          <path id="パス_7039" data-name="パス 7039" d="M71.348,0l6.423,12.841L89.9,6.56l2.462,14.372,13.323-1.894-1.74,14.5,13.209,2.679-5.772,13.2,11.8,6.989-9.239,10.615,9.239,10.615-11.8,6.989,5.772,13.2L103.948,100.5l1.74,14.5L92.366,113.1,89.9,127.476,77.771,121.2l-6.423,12.841-9.755-10.053-9.755,10.053L45.415,121.2l-12.133,6.281L30.82,113.1,17.5,115l1.74-14.5L6.029,97.823l5.772-13.2L0,77.633,9.239,67.018,0,56.4l11.8-6.989-5.772-13.2,13.209-2.679-1.74-14.5L30.82,20.932,33.282,6.56l12.133,6.281L51.838,0l9.755,10.053Z" transform="matrix(0.985, 0.174, -0.174, 0.985, 23.275, 0)" fill="#fb297a"/>
          <path id="パス_9602" data-name="パス 9602" d="M12.388-4.009c0-2.717-2.413-3.534-3.477-3.762l-3.61-.8c-1.482-.323-1.957-.95-1.957-1.748,0-1.805,2.584-1.843,3.04-1.843.7,0,2.926.114,3.021,2.2H11.97a4.335,4.335,0,0,0-1.368-3,6.212,6.212,0,0,0-4.18-1.368C3.7-14.326.836-13.167.836-10.184c0,2.641,1.938,3.648,3.724,4.047L7.9-5.4c1.254.285,1.862.665,1.862,1.672,0,1.957-2.755,2.033-3.4,2.033-1.026,0-3.059-.247-3.173-2.47H.627C.836-.19,4.218.456,6.593.456,10.26.456,12.388-1.463,12.388-4.009ZM22.762,0V-10.222H20.254v5.928a2.27,2.27,0,0,1-2.166,2.508A1.681,1.681,0,0,1,16.34-3.648v-6.574H13.832v6.574c0,2.356.969,3.9,3.344,3.9a3.108,3.108,0,0,0,3.192-2.109L20.254-.8V0ZM33.687-3.8H31.122a2.142,2.142,0,0,1-2.185,2.014c-1.919,0-2.394-2.014-2.394-3.344,0-2.223,1.33-3.344,2.641-3.344a1.947,1.947,0,0,1,1.976,1.9h2.508A3.668,3.668,0,0,0,32.528-9.2,4.556,4.556,0,0,0,29.2-10.469c-2.451,0-5.168,1.539-5.168,5.472,0,2.7,1.387,5.244,4.845,5.244A4.655,4.655,0,0,0,33.687-3.8Zm10.564,0H41.686A2.142,2.142,0,0,1,39.5-1.786c-1.919,0-2.394-2.014-2.394-3.344,0-2.223,1.33-3.344,2.641-3.344a1.947,1.947,0,0,1,1.976,1.9h2.508A3.668,3.668,0,0,0,43.092-9.2a4.556,4.556,0,0,0-3.325-1.273C37.316-10.469,34.6-8.93,34.6-5c0,2.7,1.387,5.244,4.845,5.244A4.655,4.655,0,0,0,44.251-3.8Zm10.526-.57a7.613,7.613,0,0,0-1.026-4.161,4.361,4.361,0,0,0-3.762-1.938c-2.527,0-4.788,1.729-4.788,5.377,0,3.5,2.09,5.339,4.864,5.339a4.466,4.466,0,0,0,4.522-3.268H52.06A1.866,1.866,0,0,1,50.2-1.786c-2.014,0-2.394-2.071-2.489-2.584ZM52.06-6H47.709c.114-.646.437-2.413,2.3-2.413C51.262-8.417,52-7.6,52.06-6ZM64.2-2.926a2.634,2.634,0,0,0-1.14-2.185,12.7,12.7,0,0,0-3.23-1.425c-.8-.3-1.273-.475-1.273-.988,0-.38.4-.95,1.406-.95a1.317,1.317,0,0,1,1.463,1.387h2.508A3.188,3.188,0,0,0,63-9.4a4.2,4.2,0,0,0-2.983-1.064c-2.337,0-3.971,1.387-3.971,3.1,0,1.862,1.406,2.356,3.5,3.116,1.615.57,2.128.8,2.128,1.5,0,1.007-1.254,1.007-1.463,1.007a1.665,1.665,0,0,1-1.843-1.6H55.86A3.226,3.226,0,0,0,56.791-.95,4.735,4.735,0,0,0,60.1.247C62.32.247,64.2-.931,64.2-2.926Zm9.5,0a2.634,2.634,0,0,0-1.14-2.185,12.7,12.7,0,0,0-3.23-1.425c-.8-.3-1.273-.475-1.273-.988,0-.38.4-.95,1.406-.95a1.317,1.317,0,0,1,1.463,1.387h2.508A3.188,3.188,0,0,0,72.5-9.4a4.2,4.2,0,0,0-2.983-1.064c-2.337,0-3.971,1.387-3.971,3.1,0,1.862,1.406,2.356,3.5,3.116,1.615.57,2.128.8,2.128,1.5,0,1.007-1.254,1.007-1.463,1.007a1.665,1.665,0,0,1-1.843-1.6H65.36A3.226,3.226,0,0,0,66.291-.95,4.735,4.735,0,0,0,69.6.247C71.82.247,73.7-.931,73.7-2.926Zm4.313-7.087V-13.87H75.449v3.857l.665,6.27h1.254ZM78.014,0V-2.565H75.449V0Z" transform="translate(32.748 83.349)" fill="#fff"/>
        </g>
      </g>
    </g>
    <g id="長方形_4141" data-name="長方形 4141" transform="translate(415 4626)" fill="none" stroke="#8abcd7" stroke-width="5">
      <rect width="366" height="186" stroke="none"/>
      <rect x="2.5" y="2.5" width="361" height="181" fill="none"/>
    </g>
    <rect id="長方形_4142" data-name="長方形 4142" width="120" height="17" transform="translate(544 4618)" fill="#f5f5f5"/>
    <g data-type="innerShadowGroup">
      <path id="パス_9583-2" data-name="パス 9583" d="M-35.136-8.982v1.548h2.5V-4.68h-2.232v1.548H-19.1V-4.68h-2.214V-7.434h2.484V-8.982h-2.484v-2.754h1.8v-1.512H-30.8q.378-.594.7-1.188a.373.373,0,0,0,.432-.162l-1.926-.666a13.011,13.011,0,0,1-3.8,4.626,9.487,9.487,0,0,1,1.3,1.062,12.583,12.583,0,0,0,1.458-1.35v1.944Zm8.964,0h-1.782v-2.754h1.782Zm0,4.3h-1.782V-7.434h1.782Zm-3.222-7.056v2.754H-31.1v-2.754Zm0,4.3V-4.68H-31.1V-7.434Zm4.68-1.548v-2.754H-22.9v2.754Zm0,4.3V-7.434H-22.9V-4.68Zm6.156,5.688A22.135,22.135,0,0,0-20.97-2.61l-1.62.522a22.072,22.072,0,0,1,2.3,3.708Zm-14.58-3.546A8.067,8.067,0,0,1-35.3.936l1.62.684a9.6,9.6,0,0,0,2.2-3.744ZM-23.526,1.1A17.775,17.775,0,0,0-24.642-2.25l-1.6.27a18.368,18.368,0,0,1,1.026,3.42Zm-4.356.072a20.564,20.564,0,0,0-.45-3.33L-29.916-2a20.685,20.685,0,0,1,.36,3.42Zm15.354-8.586h2.9v-1.6h-2.9V-14.85c.27-.054.4-.144.414-.288l-2.052-.126v6.246h-3.078v1.6h2.754a17.521,17.521,0,0,1-3.06,5.058A9.9,9.9,0,0,1-16.7-.666a16.4,16.4,0,0,0,2.538-4.266V1.584h1.638v-6.66a28.024,28.024,0,0,1,1.872,2.3l.99-1.386c-.4-.432-2.25-2.16-2.862-2.664Zm3.312-.972A14.786,14.786,0,0,1-6.408-5.562,10.1,10.1,0,0,1-5.13-6.588a14.6,14.6,0,0,0-2.9-2.7Zm-7.992-5.328a17.058,17.058,0,0,1,1.062,3.978l1.4-.4a15.348,15.348,0,0,0-1.152-3.924ZM-.792-5.13l-2.088.378V-14.778c.288-.054.414-.162.432-.306l-2.106-.126V-4.446L-9.7-3.51l.288,1.62,4.86-.9V1.584H-2.88V-3.1L-.5-3.546Zm-10.116-9a26.07,26.07,0,0,1-1.35,4.05c.324.108.846.324,1.17.45A24.588,24.588,0,0,0-9.5-13.374c.234,0,.378-.072.432-.2ZM-8.73-13.1A13.079,13.079,0,0,1-6.264-10.35l1.3-.972A13.248,13.248,0,0,0-7.506-13.95ZM8.46,1.458H10.1V.36h5V1.368h1.71V-14.238H8.46ZM15.1-8.352v2.79h-5v-2.79Zm0-1.566h-5v-2.7h5ZM10.1-4h5v2.808h-5ZM7.722-9.81v-1.62H5.256v-3.42c.288-.054.4-.144.414-.306l-2.052-.108v3.834H.81v1.62H3.4A18.7,18.7,0,0,1,.378-3.258a9.332,9.332,0,0,1,.846,1.566A17.58,17.58,0,0,0,3.618-6.534V1.584H5.256V-6.462a27.322,27.322,0,0,1,1.638,2.5L7.9-5.346c-.378-.486-2-2.412-2.646-3.078V-9.81Zm19.206-.684a5.867,5.867,0,0,0,1.494-3.33l-1.4-.288a5.461,5.461,0,0,1-1.4,3.006Zm-8.37-1.746v1.368H25.38V-12.24Zm.828,7.434V1.368h1.458V.594H24.8v-5.4ZM23.328-.792H20.844V-3.438h2.484ZM29.7-15.264c-.162,3.762-.576,5.9-4.356,7.074a4.858,4.858,0,0,1,.972,1.332,6.509,6.509,0,0,0,3.96-3.006A33.065,33.065,0,0,1,34.254-7L35.37-8.3A36.006,36.006,0,0,0,30.834-11.3a17.683,17.683,0,0,0,.5-3.51c.252-.036.4-.144.414-.288Zm-10.224.612v1.332h5.256v-1.332Zm13.986.45A17.294,17.294,0,0,1,32-11.25s1.224.54,1.242.558a23.677,23.677,0,0,0,1.62-2.646A.456.456,0,0,0,35.3-13.5ZM19.4-9.738v1.332h5.382V-9.738ZM29.556-7.686v2.718c0,1.116-.756,3.816-4.68,5.2a7.735,7.735,0,0,1,.972,1.386,7.423,7.423,0,0,0,4.59-4.338A7.04,7.04,0,0,0,34.56,1.62,15.089,15.089,0,0,1,35.568.162C31.986-1.188,31.3-3.87,31.3-4.968V-7.254c.27-.054.432-.18.45-.342Zm-4.77,1.728V-7.29H19.4v1.332Zm8.838-.432A20.772,20.772,0,0,1,32-3.24l1.278.576A20.022,20.022,0,0,0,35.046-5.49c.234,0,.378-.054.45-.18Zm-6.8.126a5.553,5.553,0,0,1-1.656,3.2L26.55-2.3a6.486,6.486,0,0,0,1.764-3.654Z" transform="translate(599 4633)" fill="#8abcd7"/>
      <g transform="matrix(1, 0, 0, 1, 241.41, 4617.74)" filter="url(#パス_9583)">
        <path id="パス_9583-3" data-name="パス 9583" d="M-35.136-8.982v1.548h2.5V-4.68h-2.232v1.548H-19.1V-4.68h-2.214V-7.434h2.484V-8.982h-2.484v-2.754h1.8v-1.512H-30.8q.378-.594.7-1.188a.373.373,0,0,0,.432-.162l-1.926-.666a13.011,13.011,0,0,1-3.8,4.626,9.487,9.487,0,0,1,1.3,1.062,12.583,12.583,0,0,0,1.458-1.35v1.944Zm8.964,0h-1.782v-2.754h1.782Zm0,4.3h-1.782V-7.434h1.782Zm-3.222-7.056v2.754H-31.1v-2.754Zm0,4.3V-4.68H-31.1V-7.434Zm4.68-1.548v-2.754H-22.9v2.754Zm0,4.3V-7.434H-22.9V-4.68Zm6.156,5.688A22.135,22.135,0,0,0-20.97-2.61l-1.62.522a22.072,22.072,0,0,1,2.3,3.708Zm-14.58-3.546A8.067,8.067,0,0,1-35.3.936l1.62.684a9.6,9.6,0,0,0,2.2-3.744ZM-23.526,1.1A17.775,17.775,0,0,0-24.642-2.25l-1.6.27a18.368,18.368,0,0,1,1.026,3.42Zm-4.356.072a20.564,20.564,0,0,0-.45-3.33L-29.916-2a20.685,20.685,0,0,1,.36,3.42Zm15.354-8.586h2.9v-1.6h-2.9V-14.85c.27-.054.4-.144.414-.288l-2.052-.126v6.246h-3.078v1.6h2.754a17.521,17.521,0,0,1-3.06,5.058A9.9,9.9,0,0,1-16.7-.666a16.4,16.4,0,0,0,2.538-4.266V1.584h1.638v-6.66a28.024,28.024,0,0,1,1.872,2.3l.99-1.386c-.4-.432-2.25-2.16-2.862-2.664Zm3.312-.972A14.786,14.786,0,0,1-6.408-5.562,10.1,10.1,0,0,1-5.13-6.588a14.6,14.6,0,0,0-2.9-2.7Zm-7.992-5.328a17.058,17.058,0,0,1,1.062,3.978l1.4-.4a15.348,15.348,0,0,0-1.152-3.924ZM-.792-5.13l-2.088.378V-14.778c.288-.054.414-.162.432-.306l-2.106-.126V-4.446L-9.7-3.51l.288,1.62,4.86-.9V1.584H-2.88V-3.1L-.5-3.546Zm-10.116-9a26.07,26.07,0,0,1-1.35,4.05c.324.108.846.324,1.17.45A24.588,24.588,0,0,0-9.5-13.374c.234,0,.378-.072.432-.2ZM-8.73-13.1A13.079,13.079,0,0,1-6.264-10.35l1.3-.972A13.248,13.248,0,0,0-7.506-13.95ZM8.46,1.458H10.1V.36h5V1.368h1.71V-14.238H8.46ZM15.1-8.352v2.79h-5v-2.79Zm0-1.566h-5v-2.7h5ZM10.1-4h5v2.808h-5ZM7.722-9.81v-1.62H5.256v-3.42c.288-.054.4-.144.414-.306l-2.052-.108v3.834H.81v1.62H3.4A18.7,18.7,0,0,1,.378-3.258a9.332,9.332,0,0,1,.846,1.566A17.58,17.58,0,0,0,3.618-6.534V1.584H5.256V-6.462a27.322,27.322,0,0,1,1.638,2.5L7.9-5.346c-.378-.486-2-2.412-2.646-3.078V-9.81Zm19.206-.684a5.867,5.867,0,0,0,1.494-3.33l-1.4-.288a5.461,5.461,0,0,1-1.4,3.006Zm-8.37-1.746v1.368H25.38V-12.24Zm.828,7.434V1.368h1.458V.594H24.8v-5.4ZM23.328-.792H20.844V-3.438h2.484ZM29.7-15.264c-.162,3.762-.576,5.9-4.356,7.074a4.858,4.858,0,0,1,.972,1.332,6.509,6.509,0,0,0,3.96-3.006A33.065,33.065,0,0,1,34.254-7L35.37-8.3A36.006,36.006,0,0,0,30.834-11.3a17.683,17.683,0,0,0,.5-3.51c.252-.036.4-.144.414-.288Zm-10.224.612v1.332h5.256v-1.332Zm13.986.45A17.294,17.294,0,0,1,32-11.25s1.224.54,1.242.558a23.677,23.677,0,0,0,1.62-2.646A.456.456,0,0,0,35.3-13.5ZM19.4-9.738v1.332h5.382V-9.738ZM29.556-7.686v2.718c0,1.116-.756,3.816-4.68,5.2a7.735,7.735,0,0,1,.972,1.386,7.423,7.423,0,0,0,4.59-4.338A7.04,7.04,0,0,0,34.56,1.62,15.089,15.089,0,0,1,35.568.162C31.986-1.188,31.3-3.87,31.3-4.968V-7.254c.27-.054.432-.18.45-.342Zm-4.77,1.728V-7.29H19.4v1.332Zm8.838-.432A20.772,20.772,0,0,1,32-3.24l1.278.576A20.022,20.022,0,0,0,35.046-5.49c.234,0,.378-.054.45-.18Zm-6.8.126a5.553,5.553,0,0,1-1.656,3.2L26.55-2.3a6.486,6.486,0,0,0,1.764-3.654Z" transform="translate(357.59 15.26)" fill="#fff"/>
      </g>
    </g>
  </g>
</svg>
