<svg xmlns="http://www.w3.org/2000/svg" xmlns:xlink="http://www.w3.org/1999/xlink" width="317.944" height="595.494" viewBox="0 0 317.944 595.494">
  <defs>
    <filter id="長方形_4158">
      <feOffset dy="3" input="SourceAlpha"/>
      <feGaussianBlur stdDeviation="3" result="blur"/>
      <feFlood flood-opacity="0.161" result="color"/>
      <feComposite operator="out" in="SourceGraphic" in2="blur"/>
      <feComposite operator="in" in="color"/>
      <feComposite operator="in" in2="SourceGraphic"/>
    </filter>
    <filter id="長方形_3533" x="6.531" y="42.078" width="158" height="91.125" filterUnits="userSpaceOnUse">
      <feOffset dy="3" input="SourceAlpha"/>
      <feGaussianBlur stdDeviation="3" result="blur-2"/>
      <feFlood flood-opacity="0.161"/>
      <feComposite operator="in" in2="blur-2"/>
      <feComposite in="SourceGraphic"/>
    </filter>
    <filter id="長方形_3534" x="159.944" y="42.078" width="158" height="91.125" filterUnits="userSpaceOnUse">
      <feOffset dy="3" input="SourceAlpha"/>
      <feGaussianBlur stdDeviation="3" result="blur-3"/>
      <feFlood flood-opacity="0.161"/>
      <feComposite operator="in" in2="blur-3"/>
      <feComposite in="SourceGraphic"/>
    </filter>
    <filter id="長方形_3533-2" x="6.531" y="129.183" width="158" height="91.125" filterUnits="userSpaceOnUse">
      <feOffset dy="3" input="SourceAlpha"/>
      <feGaussianBlur stdDeviation="3" result="blur-4"/>
      <feFlood flood-opacity="0.161"/>
      <feComposite operator="in" in2="blur-4"/>
      <feComposite in="SourceGraphic"/>
    </filter>
    <filter id="長方形_3534-2" x="159.944" y="129.183" width="158" height="91.125" filterUnits="userSpaceOnUse">
      <feOffset dy="3" input="SourceAlpha"/>
      <feGaussianBlur stdDeviation="3" result="blur-5"/>
      <feFlood flood-opacity="0.161"/>
      <feComposite operator="in" in2="blur-5"/>
      <feComposite in="SourceGraphic"/>
    </filter>
    <filter id="長方形_3533-3" x="6.325" y="211.414" width="158" height="91.125" filterUnits="userSpaceOnUse">
      <feOffset dy="3" input="SourceAlpha"/>
      <feGaussianBlur stdDeviation="3" result="blur-6"/>
      <feFlood flood-opacity="0.161"/>
      <feComposite operator="in" in2="blur-6"/>
      <feComposite in="SourceGraphic"/>
    </filter>
    <filter id="長方形_3534-3" x="159.738" y="211.414" width="158" height="91.125" filterUnits="userSpaceOnUse">
      <feOffset dy="3" input="SourceAlpha"/>
      <feGaussianBlur stdDeviation="3" result="blur-7"/>
      <feFlood flood-opacity="0.161"/>
      <feComposite operator="in" in2="blur-7"/>
      <feComposite in="SourceGraphic"/>
    </filter>
    <filter id="長方形_3533-4" x="6.325" y="293.644" width="158" height="91.125" filterUnits="userSpaceOnUse">
      <feOffset dy="3" input="SourceAlpha"/>
      <feGaussianBlur stdDeviation="3" result="blur-8"/>
      <feFlood flood-opacity="0.161"/>
      <feComposite operator="in" in2="blur-8"/>
      <feComposite in="SourceGraphic"/>
    </filter>
    <filter id="長方形_3534-4" x="159.738" y="293.644" width="158" height="91.125" filterUnits="userSpaceOnUse">
      <feOffset dy="3" input="SourceAlpha"/>
      <feGaussianBlur stdDeviation="3" result="blur-9"/>
      <feFlood flood-opacity="0.161"/>
      <feComposite operator="in" in2="blur-9"/>
      <feComposite in="SourceGraphic"/>
    </filter>
    <filter id="長方形_3533-5" x="6.324" y="375.875" width="158" height="91.125" filterUnits="userSpaceOnUse">
      <feOffset dy="3" input="SourceAlpha"/>
      <feGaussianBlur stdDeviation="3" result="blur-10"/>
      <feFlood flood-opacity="0.161"/>
      <feComposite operator="in" in2="blur-10"/>
      <feComposite in="SourceGraphic"/>
    </filter>
    <filter id="長方形_3534-5" x="159.737" y="375.875" width="158" height="91.125" filterUnits="userSpaceOnUse">
      <feOffset dy="3" input="SourceAlpha"/>
      <feGaussianBlur stdDeviation="3" result="blur-11"/>
      <feFlood flood-opacity="0.161"/>
      <feComposite operator="in" in2="blur-11"/>
      <feComposite in="SourceGraphic"/>
    </filter>
    <filter id="パス_9625">
      <feOffset dx="3" dy="3" input="SourceAlpha"/>
      <feGaussianBlur stdDeviation="3" result="blur-12"/>
      <feFlood flood-opacity="0.161" result="color-2"/>
      <feComposite operator="out" in="SourceGraphic" in2="blur-12"/>
      <feComposite operator="in" in="color-2"/>
      <feComposite operator="in" in2="SourceGraphic"/>
    </filter>
  </defs>
  <g id="グループ_2583" data-name="グループ 2583" transform="translate(-25.469 -5596.297)">
    <g data-type="innerShadowGroup">
      <rect id="長方形_4158-2" data-name="長方形 4158" width="444.383" height="52" transform="translate(213.5 5628.895) rotate(90)" fill="#fff"/>
      <g transform="matrix(1, 0, 0, 1, 25.47, 5596.3)" filter="url(#長方形_4158)">
        <rect id="長方形_4158-3" data-name="長方形 4158" width="444.383" height="52" transform="translate(188.03 32.6) rotate(90)" fill="#fff"/>
      </g>
    </g>
    <path id="パス_9623" data-name="パス 9623" d="M10.934-10.7A1.509,1.509,0,0,0,12.46-9.184,1.506,1.506,0,0,0,13.972-10.7a1.518,1.518,0,0,0-1.512-1.526A1.521,1.521,0,0,0,10.934-10.7ZM12.46-9.674A1.019,1.019,0,0,1,11.438-10.7a1.022,1.022,0,0,1,1.022-1.036A1.019,1.019,0,0,1,13.468-10.7,1.015,1.015,0,0,1,12.46-9.674ZM1.764-8.456h8.3C9.254-4.368,6.9-1.848,2.968-.406A7.7,7.7,0,0,1,3.85.756c4.3-1.652,6.692-4.284,7.9-9.52a.62.62,0,0,0,.21-.168l-1.274-.924-.1.056H1.764Zm14.294-1.12V-.2h1.386v-.868h7.07v.84h1.414V-9.576Zm1.372,7.21V-8.274H24.5v5.908Zm21.784-9.31A12.215,12.215,0,0,1,40.88-9.7l.714-.518a12.184,12.184,0,0,0-1.736-1.974Zm-2.058.812a12.5,12.5,0,0,1,1.68,2l.714-.518a11.288,11.288,0,0,0-1.736-2ZM30.744-9.8A19.974,19.974,0,0,1,34.37-8.358l.658-1.19A24.008,24.008,0,0,0,31.36-10.92ZM31.416.672a.339.339,0,0,0,.2-.364,15.484,15.484,0,0,0,9.366-8.134,11.647,11.647,0,0,1-1.2-.9C37.9-4.564,34.734-2.2,30.352-.77ZM29.148-6.3a22.7,22.7,0,0,1,3.668,1.33l.6-1.218a20.883,20.883,0,0,0-3.682-1.274Zm15.47-1.26v1.12H47.88v5.054H43.792V-.28H53.2V-1.386H49.112V-6.44h3.3V-7.56Zm21.8-1.778-.21.084H61.754c.28-.5.574-1.036.826-1.6.2,0,.378-.07.42-.21l-1.778-.448A14.206,14.206,0,0,1,56.784-5.5a6.812,6.812,0,0,1,1.134.9A14.521,14.521,0,0,0,60.97-7.938h4.536A12.406,12.406,0,0,1,58.674-.2,5.224,5.224,0,0,1,59.7.882c3.836-1.932,6.076-4.774,7.6-9.324a.686.686,0,0,0,.252-.238ZM81.158-5.152A49.076,49.076,0,0,0,76.02-7.42l-.28.392v-4c.266-.056.392-.168.406-.322l-1.876-.112V.784h1.47V-5.992a41.563,41.563,0,0,1,4.634,2.2Zm3.22-5.838V-.336H85.61v-1.2h2.954v-9.45Zm2.94,4.1H85.61v-2.9h1.708ZM85.61-5.726h1.708v3H85.61Zm7.938-3.346h2.968v-1.176H93.548v-1.288c.224-.042.308-.112.322-.238l-1.638-.1v1.624H89.348v1.176h2.884V-7.49H88.816V-6.3h8.176V-7.49H93.548Zm.56,2.954V-4.83h-5.25v1.176h5.25V-.2c0,.252-.014.252-.98.252-.322,0-.714,0-1.12-.014a4.717,4.717,0,0,1,.434,1.246c2.436,0,2.968-.182,2.968-1.47V-3.654h1.568V-4.83H95.41v-.98c.224-.042.308-.112.322-.238ZM92.456-.882a10.481,10.481,0,0,0-1.806-2.38l-1.064.616A10.368,10.368,0,0,1,91.308-.2Zm14.056-4.942c.462.378.938.826,1.414,1.288-1.61.014-3.248.042-4.774.056a43.6,43.6,0,0,0,4.536-4.06.543.543,0,0,0,.406-.112l-1.442-.84a31.029,31.029,0,0,1-3.332,3.3,13.7,13.7,0,0,0-1.386-1.092,23.193,23.193,0,0,0,2.17-2.268.442.442,0,0,0,.378-.112l-.308-.168a53.122,53.122,0,0,0,5.558-.672.6.6,0,0,0,.154.028.456.456,0,0,0,.2-.056l-.994-1.176a70.111,70.111,0,0,1-10.626.938,4.926,4.926,0,0,1,.322,1.2c1.19-.028,2.436-.07,3.682-.154a18.842,18.842,0,0,1-1.568,1.75l-.826-.49-.924.84a20.231,20.231,0,0,1,3.122,2.3c-.378.308-.756.6-1.12.854-1.19.014-2.254.014-3.136.014l.49,1.526a.325.325,0,0,0,.266-.2l4.942-.112V1.232h1.4V-3.276c1.288-.028,2.618-.07,3.92-.112a12.836,12.836,0,0,1,.812,1.008l1.19-.8a23.024,23.024,0,0,0-3.43-3.346ZM110.866.112a25.948,25.948,0,0,0-3.472-2.772c-.322.21-.644.434-1.092.742A23.935,23.935,0,0,1,109.69.966Zm-9.828-2.7A11.676,11.676,0,0,1,97.888.1a9.428,9.428,0,0,1,1.106.868,17.314,17.314,0,0,0,3.248-2.8.351.351,0,0,0,.35-.112ZM123.074-.406c0,.266-.1.35-.364.35h-.784c-.378,0-.826,0-1.288-.014a5.474,5.474,0,0,1,.462,1.316c2.66.028,3.29-.168,3.29-1.652V-11.27c.238-.028.308-.112.322-.252l-1.638-.07Zm-8.61-9.464a11.9,11.9,0,0,1-2.8,5.572,6.075,6.075,0,0,1,.938.854,10.888,10.888,0,0,0,2.128-3.248h2.646a12.874,12.874,0,0,1-.854,2.772,23.5,23.5,0,0,0-2.156-1.358l-.63.98a24.013,24.013,0,0,1,2.184,1.526,8.3,8.3,0,0,1-3.3,3.122,5.068,5.068,0,0,1,.994.98c2.59-1.456,4.466-4.34,5.194-8.722a.5.5,0,0,0,.154-.224l-.826-.35-.224.056H115.22a18.143,18.143,0,0,0,.6-1.96h3.332V-11.1H112.14V-9.87Zm5.222-.392v7.8h1.3V-9.926c.238-.042.322-.112.336-.238Z" transform="translate(36.5 5608.52)" fill="#333"/>
    <path id="パス_9624" data-name="パス 9624" d="M13.09-8.358H10.332v-2.688c.252-.042.364-.154.378-.294l-1.778-.1v3.08H4.872v-2.464c.252-.042.378-.182.392-.322l-1.778-.112v2.9H.91v1.344H3.486V-3.7H4.872V-7.014h4.06v.8c0,2.282-.672,4.592-4.06,6.076A7.6,7.6,0,0,1,5.894.84a7.09,7.09,0,0,0,4.438-7.084v-.77H13.09Zm11.284-2.254a1.536,1.536,0,0,0,1.54,1.54,1.536,1.536,0,0,0,1.54-1.54,1.548,1.548,0,0,0-1.54-1.554A1.547,1.547,0,0,0,24.374-10.612Zm1.54,1.05a1.058,1.058,0,0,1-1.05-1.05,1.049,1.049,0,0,1,1.05-1.05,1.049,1.049,0,0,1,1.05,1.05A1.057,1.057,0,0,1,25.914-9.562Zm.35,2.38v-1.33H21.7v-2.436a.371.371,0,0,0,.378-.308l-1.792-.084v2.828H15.708v1.33h4.578v6.146c0,.532-.294.532-1.148.532-.406,0-.924-.014-1.344-.028A7.068,7.068,0,0,1,18.186.756C20.272.784,21.7.8,21.7-1.064V-7.182ZM23.072-5.11a23.881,23.881,0,0,1,2.7,4.1l1.26-.728A26.421,26.421,0,0,0,24.206-5.7ZM17.4-5.586A9.561,9.561,0,0,1,14.98-1.75l1.162.728A11.875,11.875,0,0,0,18.676-5.11Zm11.774.994a.587.587,0,0,0,.448-.252h11.13v-1.4H29.064Zm24.542-.56A49.076,49.076,0,0,0,48.58-7.42l-.28.392v-4c.266-.056.392-.168.406-.322l-1.876-.112V.784H48.3V-5.992a41.562,41.562,0,0,1,4.634,2.2Zm3.22-5.838V-.336H58.17v-1.2h2.954v-9.45Zm2.94,4.1H58.17v-2.9h1.708ZM58.17-5.726h1.708v3H58.17Zm7.938-3.346h2.968v-1.176H66.108v-1.288c.224-.042.308-.112.322-.238l-1.638-.1v1.624H61.908v1.176h2.884V-7.49H61.376V-6.3h8.176V-7.49H66.108Zm.56,2.954V-4.83h-5.25v1.176h5.25V-.2c0,.252-.014.252-.98.252-.322,0-.714,0-1.12-.014A4.717,4.717,0,0,1,65,1.288c2.436,0,2.968-.182,2.968-1.47V-3.654h1.568V-4.83H67.97v-.98c.224-.042.308-.112.322-.238ZM65.016-.882a10.482,10.482,0,0,0-1.806-2.38l-1.064.616A10.368,10.368,0,0,1,63.868-.2ZM79.072-5.824c.462.378.938.826,1.414,1.288-1.61.014-3.248.042-4.774.056a43.6,43.6,0,0,0,4.536-4.06.543.543,0,0,0,.406-.112l-1.442-.84a31.029,31.029,0,0,1-3.332,3.3A13.7,13.7,0,0,0,74.494-7.28a23.193,23.193,0,0,0,2.17-2.268.442.442,0,0,0,.378-.112l-.308-.168a53.122,53.122,0,0,0,5.558-.672.6.6,0,0,0,.154.028.456.456,0,0,0,.2-.056L81.648-11.7a70.111,70.111,0,0,1-10.626.938,4.926,4.926,0,0,1,.322,1.2c1.19-.028,2.436-.07,3.682-.154a18.842,18.842,0,0,1-1.568,1.75l-.826-.49-.924.84a20.231,20.231,0,0,1,3.122,2.3c-.378.308-.756.6-1.12.854-1.19.014-2.254.014-3.136.014l.49,1.526a.325.325,0,0,0,.266-.2l4.942-.112V1.232h1.4V-3.276c1.288-.028,2.618-.07,3.92-.112A12.836,12.836,0,0,1,82.4-2.38l1.19-.8a23.024,23.024,0,0,0-3.43-3.346ZM83.426.112A25.948,25.948,0,0,0,79.954-2.66c-.322.21-.644.434-1.092.742A23.935,23.935,0,0,1,82.25.966ZM73.6-2.59A11.676,11.676,0,0,1,70.448.1a9.428,9.428,0,0,1,1.106.868,17.314,17.314,0,0,0,3.248-2.8.351.351,0,0,0,.35-.112ZM95.634-.406c0,.266-.1.35-.364.35h-.784c-.378,0-.826,0-1.288-.014a5.474,5.474,0,0,1,.462,1.316c2.66.028,3.29-.168,3.29-1.652V-11.27c.238-.028.308-.112.322-.252l-1.638-.07ZM87.024-9.87a11.9,11.9,0,0,1-2.8,5.572,6.075,6.075,0,0,1,.938.854A10.888,10.888,0,0,0,87.29-6.692h2.646a12.874,12.874,0,0,1-.854,2.772,23.5,23.5,0,0,0-2.156-1.358l-.63.98A24.013,24.013,0,0,1,88.48-2.772,8.3,8.3,0,0,1,85.176.35a5.068,5.068,0,0,1,.994.98c2.59-1.456,4.466-4.34,5.194-8.722a.5.5,0,0,0,.154-.224l-.826-.35-.224.056H87.78a18.143,18.143,0,0,0,.6-1.96h3.332V-11.1H84.7V-9.87Zm5.222-.392v7.8h1.3V-9.926c.238-.042.322-.112.336-.238Z" transform="translate(223 5608.52)" fill="#333"/>
    <rect id="長方形_4154" data-name="長方形 4154" width="0.75" height="83" transform="translate(54 5630.395) rotate(-90)" fill="#1d2a56"/>
    <rect id="長方形_4155" data-name="長方形 4155" width="0.75" height="83" transform="translate(230.5 5629.645) rotate(-90)" fill="#1d2a56"/>
    <g id="グループ_2544" data-name="グループ 2544" transform="translate(41 5644.375)">
      <g transform="matrix(1, 0, 0, 1, -15.53, -48.08)" filter="url(#長方形_3533)">
        <rect id="長方形_3533-6" data-name="長方形 3533" width="140" height="73.125" transform="translate(15.53 48.08)" fill="#fff"/>
      </g>
      <g transform="matrix(1, 0, 0, 1, -15.53, -48.08)" filter="url(#長方形_3534)">
        <rect id="長方形_3534-6" data-name="長方形 3534" width="140" height="73.125" transform="translate(168.94 48.08)" fill="#f5f5f5"/>
      </g>
      <path id="パス_9626" data-name="パス 9626" d="M8.124-8.6A1.344,1.344,0,0,0,9.48-7.26,1.339,1.339,0,0,0,10.812-8.6,1.339,1.339,0,0,0,9.48-9.948,1.344,1.344,0,0,0,8.124-8.6Zm1.356.948A.96.96,0,0,1,8.52-8.6a.963.963,0,0,1,.96-.96.95.95,0,0,1,.936.96A.947.947,0,0,1,9.48-7.656ZM1.128-3.1a.338.338,0,0,0,.12-.252.2.2,0,0,0-.012-.084c.8-.864,2.556-2.88,3.12-3.492.192-.18.336-.3.492-.3a.84.84,0,0,1,.516.3A52.744,52.744,0,0,1,10.92-.468l.72-.66a59.807,59.807,0,0,0-5.856-6.54,1.513,1.513,0,0,0-.972-.456,1.329,1.329,0,0,0-.936.456c-.684.732-2.58,2.844-3.492,3.8ZM18.78-9.18a.273.273,0,0,0,.264-.228l-1.116-.06V-.66L17.8-.48l.624.792a.5.5,0,0,0,.2-.24,8.953,8.953,0,0,0,4.9-5.424,4.831,4.831,0,0,1-.744-.468A7.9,7.9,0,0,1,18.78-1ZM14.532-8.016C14.5-4.788,14.28-1.788,12.492.156a6.76,6.76,0,0,1,.72.456C15.06-1.536,15.324-4.476,15.4-7.7c.156-.024.264-.1.276-.2ZM33.48-8.8c-1.14,4.584-3.36,7.08-6.66,8.532a3.8,3.8,0,0,1,.612.636c3.372-1.536,5.676-4.164,6.888-8.64.192,0,.276-.048.312-.156Zm-8,.624A13.612,13.612,0,0,1,27.468-4.74l.828-.42a13.471,13.471,0,0,0-2.064-3.408ZM47-6.588h-4.3c.048-.876.048-1.848.06-2.94.168-.024.276-.1.288-.216L41.88-9.816c0,1.212-.012,2.292-.048,3.228H36.984v.828H41.8c-.228,2.844-.96,4.488-3.444,5.868A4.74,4.74,0,0,1,39.036.7c2.616-1.5,3.4-3.372,3.624-6.456H47Zm6.84-1.56a3.4,3.4,0,0,1,.36-.024c2.808,0,4.08,1.8,4.08,3.78,0,2.268-1.416,3.612-4.176,4.14a4.733,4.733,0,0,1,.5.732c2.9-.672,4.56-2.052,4.56-4.908,0-2.34-1.5-4.536-4.968-4.536a5.265,5.265,0,0,0-5.4,5.292c0,1.9.912,2.9,1.92,2.9,1.992,0,3.24-3.252,3.672-6.984a.31.31,0,0,0,.3-.192Zm-3.1,6.54c-.576,0-1.128-.8-1.128-2.088a4.417,4.417,0,0,1,3.924-4.4C53.244-4.812,52.2-1.608,50.748-1.608ZM60.96-3.2V.888h.72V.324h2.892V-3.2ZM63.852-.36H61.68V-2.52h2.172ZM69-9v2.3c0,.792.2,1.008.912,1.008h.864c.624,0,.828-.348.888-1.764a1.951,1.951,0,0,1-.684-.3c-.024,1.2-.06,1.356-.288,1.356H70.02c-.216,0-.252-.048-.252-.312V-9.744h-3.78v1.476a2.881,2.881,0,0,1-1.38,2.64,3.145,3.145,0,0,1,.588.54,3.557,3.557,0,0,0,1.56-3.168V-9Zm-7.956-.7v.66h3.5V-9.7Zm-.636,1.6v.672h4.584V-8.1Zm4.176,2.292v-.66H60.972v.66Zm5.724.948H65.16v.744H69.9a6.813,6.813,0,0,1-1.692,2.532,7.094,7.094,0,0,1-1.656-2.508l-.72.228A8.257,8.257,0,0,0,67.608-1.08,8.564,8.564,0,0,1,64.632.312a2.6,2.6,0,0,1,.444.708A9.189,9.189,0,0,0,68.2-.54,8.22,8.22,0,0,0,71.16,1.008a3.67,3.67,0,0,1,.528-.7,7.65,7.65,0,0,1-2.88-1.38,7.584,7.584,0,0,0,2.076-3.468.271.271,0,0,0,.1-.132l-.528-.216Zm-5.724.684v-.66H60.972v.66ZM82.2-7.908V-6.1h.828v-2.58H78.4V-9.912c.168-.024.24-.084.252-.168l-1.092-.072v1.476H72.972V-6.1h.792V-7.908Zm-.12,5.172V-3.5H78.4V-5.628h3.168V-6.4H74.508v.768h3.06v5.28A3.829,3.829,0,0,1,75.192-2.8c.108-.456.2-.924.276-1.4.144,0,.216-.06.24-.144l-1.032-.168C74.4-2.268,73.7-.432,72.384.54A3.8,3.8,0,0,1,73,1.068a6.231,6.231,0,0,0,1.884-2.82C76,.4,77.868.84,80.448.84h2.808a2.5,2.5,0,0,1,.312-.816c-.552.012-2.664.012-3.084.012A11.369,11.369,0,0,1,78.4-.12V-2.736Z" transform="translate(28 41.563)" fill="#333"/>
      <path id="パス_9627" data-name="パス 9627" d="M9.248-1.664H15.1v-8.512h-2.72c.112-.464.224-.96.3-1.376h2.8v-1.3H8.7v1.3h2.544c-.048.448-.128.944-.208,1.376H9.248Zm1.248-3.6V-6.592h3.3v1.328Zm0-2.432V-9.008h3.3V-7.7Zm0,4.864V-4.16h3.3v1.328ZM.752-12.848v1.264H8.16v-1.264ZM6.48-.512v-.864H8.016V-2.24H6.48v-.848H8.016v-.864H6.48V-4.8H8.192v-.992H6.624c.144-.272.272-.544.368-.768.176,0,.3-.048.336-.16L6-7.168a10.99,10.99,0,0,1-.48,1.376H4.448q.192-.432.336-.864c.16,0,.272-.048.32-.16l-1.328-.4A10.533,10.533,0,0,1,2.512-4.368c.048-.768.064-1.5.064-2.144v-.752H7.984V-10.72H1.28v4.208A18.829,18.829,0,0,1,.32.4a4.053,4.053,0,0,1,1.088.768,15.043,15.043,0,0,0,1.04-4.656c.16.16.32.32.416.432.1-.112.208-.256.3-.384V1.232h1.1V.512H8L7.968.528a9.073,9.073,0,0,1,.976.912A8.91,8.91,0,0,0,11.568-.608a.438.438,0,0,0,.288-.112l-1.312-.736A8.486,8.486,0,0,1,8.336.336V-.512ZM4.272-2.24v-.848h1.2v.848Zm0-1.712V-4.8h1.2v.848Zm1.2,2.576v.864h-1.2v-.864Zm1.152-6.96H2.576v-1.3H6.624Zm9.1,8.992a16.245,16.245,0,0,0-2.112-2.064L12.528-.72a16.69,16.69,0,0,1,2.048,2.16ZM27.264-9.488H22.976c.16-.192.32-.4.464-.592.224,0,.352-.08.384-.224l-1.584-.288h6.992v1.84h1.552v-3.216H24.736V-13.2c.256-.048.352-.128.368-.272l-1.92-.112v1.616H17.248v3.216h1.488v-1.84h3.216a10.1,10.1,0,0,1-4.576,3.456,4.482,4.482,0,0,1,1.008,1.12,15.631,15.631,0,0,0,2.3-1.36,11.466,11.466,0,0,0,1.888,1.6,23.5,23.5,0,0,1-6.128,1.888,5.809,5.809,0,0,1,.736,1.344c.768-.16,1.552-.352,2.32-.576V1.408h1.488V.88h6.064v.5h1.552v-4.64c.64.144,1.28.272,1.952.368a7.47,7.47,0,0,1,.976-1.456A22.756,22.756,0,0,1,25.472-5.84a10.857,10.857,0,0,0,2.944-2.912.668.668,0,0,0,.24-.176L27.52-9.552ZM20.992-2.336h6.064V-.384H20.992Zm5.2-5.984A9.707,9.707,0,0,1,24-6.56a9.428,9.428,0,0,1-2.24-1.68l.1-.08Zm-5.2,4.72a20.973,20.973,0,0,0,2.992-1.328A18.918,18.918,0,0,0,27.328-3.6ZM36.816-.7H34.528V-3.056h2.288ZM38.144-5.3V-6.48h-4.88V-5.3ZM33.232-4.272V1.216h1.3V.528h3.616v-4.8Zm10.432-7.456v2.5C43.664-7.888,44-7.5,45.12-7.5h1.056c.944,0,1.312-.512,1.424-2.448a3.685,3.685,0,0,1-1.248-.56c-.032,1.5-.1,1.712-.336,1.712h-.64c-.24,0-.272-.064-.272-.448v-3.824H39.872v1.936a3.7,3.7,0,0,1-1.728,3.408v-.928h-4.88v1.184h4.88V-7.7a4.981,4.981,0,0,1,1.1.976,4.968,4.968,0,0,0,2.064-4.4v-.608Zm1.888,5.136H38.928v1.376h5.856A8.118,8.118,0,0,1,42.9-2.464,8.726,8.726,0,0,1,41.008-5.2l-1.344.432a11.3,11.3,0,0,0,2.112,3.232A10.574,10.574,0,0,1,38.16.08a5.213,5.213,0,0,1,.816,1.328A12.408,12.408,0,0,0,42.9-.5a11.182,11.182,0,0,0,3.744,1.9A6.152,6.152,0,0,1,47.632.1a10.673,10.673,0,0,1-3.568-1.6A10.092,10.092,0,0,0,46.64-6.032a.66.66,0,0,0,.16-.208l-.976-.4ZM33.328-13.024v1.184h4.784v-1.184ZM32.5-10.88v1.216H38.72V-10.88Zm28.7.576V-8h1.552v-3.744H56.784v-1.472c.272-.032.368-.128.384-.272l-2-.112v1.856h-5.92V-8h1.488v-2.3Zm.224,6.928V-4.8H56.768V-7.2H60.5V-8.656H51.52V-7.2H55.2V-.864a4.709,4.709,0,0,1-2.672-2.928c.128-.56.24-1.136.32-1.728.208,0,.336-.08.368-.224L51.36-6.032c-.336,2.88-1.2,5.28-2.928,6.512a9.056,9.056,0,0,1,1.168.992A7.9,7.9,0,0,0,51.936-1.9c1.488,2.576,3.84,3.12,7.056,3.12H62.88A4.531,4.531,0,0,1,63.44-.32c-.928.032-3.664.032-4.368.032a14.885,14.885,0,0,1-2.3-.16V-3.376Z" transform="translate(191.413 34.563)" fill="#fb297a"/>
      <path id="パス_9628" data-name="パス 9628" d="M5.184-9.744V-5.58H10.9V-9.744Zm1.044,1.68v-.852H9.816v.852Zm0,1.656v-.864H9.816v.864ZM4.38-4.944l-1.188.36V-6.732h1.3V-7.788h-1.3V-9.9c.192-.024.264-.1.276-.2L2.1-10.164v2.376H.444v1.056H2.1V-4.26c-.684.2-1.308.372-1.812.5L.636-2.484a.245.245,0,0,0,.18-.2c.36-.12.8-.264,1.284-.432V-.264c0,.168-.06.228-.216.228s-.66,0-1.176-.012a4.462,4.462,0,0,1,.336,1.1c1.788,0,2.148-.252,2.148-1.32V-3.5l1.344-.468Zm6.636,3.252v-.936H8.5V-3.864H11.6v-.972H4.7v.972H7.4V-.636A2.718,2.718,0,0,1,6.144-2.1a8.91,8.91,0,0,0,.192-.984c.144-.012.24-.06.252-.156L5.316-3.468A6.323,6.323,0,0,1,3.732.48a5,5,0,0,1,.84.6A5.271,5.271,0,0,0,5.784-.888C6.648.444,7.908.768,9.54.768h1.872a3.752,3.752,0,0,1,.336-1c-.42.012-1.824.012-2.124.012A8.489,8.489,0,0,1,8.5-.288v-1.4ZM15.66-4.98c.48.108,1,.216,1.5.348a21.188,21.188,0,0,1-4.092.54,3.035,3.035,0,0,1,.372.888,16.359,16.359,0,0,0,5.292-1.02,32.805,32.805,0,0,1,3.312,1.08l.684-.8c-.756-.288-1.788-.612-2.9-.912a4.317,4.317,0,0,0,1.2-1.476H23.34v-.912h-5.9c.156-.192.288-.384.42-.564.18.024.276-.012.324-.108L16.92-8.3c-.228.324-.492.684-.768,1.056H12.684v.912h2.76c-.372.468-.744.912-1.056,1.26l1.08.324Zm6.264-3.384v.852h1.1v-1.8H18.564V-9.9c.18-.036.264-.1.276-.2l-1.416-.084v.876h-4.38v1.8H14.1v-.852ZM16.74-6.336h3a2.856,2.856,0,0,1-1.164,1.164c-.8-.2-1.608-.372-2.34-.516ZM23.472-2.76H18.54v-.66c.192-.024.276-.084.288-.192L17.4-3.7v.936H12.552v.948H16.56a10.955,10.955,0,0,1-4.272,1.8A4.729,4.729,0,0,1,13,.912a11,11,0,0,0,4.4-2.268V1.056h1.14V-1.416a11.291,11.291,0,0,0,4.5,2.34,4.833,4.833,0,0,1,.732-.96,11.43,11.43,0,0,1-4.344-1.776h4.044Zm3.492-6.972c-.1,1.464-.192,5.064-.192,6.624,0,2.316,1.068,3.684,3.5,3.684A6.541,6.541,0,0,0,35.088-1.74a7.564,7.564,0,0,1-.708-1.044A5.718,5.718,0,0,1,30.288-.66c-1.392,0-2.22-.78-2.22-2.448,0-1.764.12-4.74.216-6.252.24-.024.348-.12.372-.264Zm10.416,2.4c.744.024,1.9.036,2.688.036.456,0,.972-.012,1.416-.024.024.636.036,1.3.06,1.956-.336.012-.7.012-1,.012-.96-.012-1.428-.06-1.428-.348,0-.132.072-.348.78-.7l-.816-.468c-.816.516-1.176.936-1.176,1.4,0,.84.828,1.092,2.928,1.092.24,0,.492,0,.744-.012.024.54.036,1.044.048,1.476A4.923,4.923,0,0,0,40.536-3c-1.392,0-2.688.672-2.688,1.86,0,1.128,1.092,1.848,2.664,1.848s2.316-.672,2.328-1.74v-.456A11.362,11.362,0,0,1,45.456.18l.72-1.032A12.345,12.345,0,0,0,42.792-2.64c-.024-.456-.048-1.08-.072-1.776A21,21,0,0,0,46.008-4.8l-.12-1.056a20.567,20.567,0,0,1-3.192.432L42.66-7.356a25.922,25.922,0,0,0,3.936-.4l-.132-1.1a25.08,25.08,0,0,1-3.792.432c-.012-.372-.012-.864-.012-1.2.2-.036.3-.108.312-.24l-1.548-.084c0,.4.012,1.02.024,1.572-.432.012-.924.024-1.38.024-.876,0-1.944,0-2.688-.048Zm4.3,6c0,.708-.324,1.068-1.152,1.068-.912,0-1.608-.3-1.608-.9s.732-.924,1.548-.924a4.5,4.5,0,0,1,1.212.18Zm7.164-5.7c1.32-.072,3.288-.12,5.268-.18.012.42.024.9.036,1.128,0,.036.012.084.012.132a1.7,1.7,0,0,0-.948-.264,2.271,2.271,0,0,0-2.244,2.28A2.1,2.1,0,0,0,53.04-1.788a1.212,1.212,0,0,0,.936-.42h.012A4.509,4.509,0,0,1,51.1.072a8.02,8.02,0,0,1,.876.936c1.92-.732,3.612-2.172,3.612-4.632a4.44,4.44,0,0,0-.168-1.32c-.012-.384-.024-.7-.048-1.116-.012-.3-.012-.732-.024-1.176,1.476-.048,2.9-.06,3.828-.048V-8.412c-.768.012-2.328.048-3.852.1-.012-.528-.024-1.1-.024-1.416.216-.036.324-.156.336-.264L54-10.068c.024.324.072,1.608.072,1.776-.828.036-4.512.132-5.268.156Zm4.356,4.3a1.154,1.154,0,0,1-1.14-1.2,1.225,1.225,0,0,1,1.224-1.32c.7,0,1.056.432,1.056,1.3A1.137,1.137,0,0,1,53.2-2.736Z" transform="translate(193.413 50.563)" fill="#333"/>
    </g>
    <g id="グループ_2545" data-name="グループ 2545" transform="translate(41 5731.48)">
      <g transform="matrix(1, 0, 0, 1, -15.53, -135.18)" filter="url(#長方形_3533-2)">
        <rect id="長方形_3533-7" data-name="長方形 3533" width="140" height="73.125" transform="translate(15.53 135.18)" fill="#fff"/>
      </g>
      <g transform="matrix(1, 0, 0, 1, -15.53, -135.18)" filter="url(#長方形_3534-2)">
        <rect id="長方形_3534-7" data-name="長方形 3534" width="140" height="73.125" transform="translate(168.94 135.18)" fill="#f5f5f5"/>
      </g>
      <path id="パス_9629" data-name="パス 9629" d="M-19.764-3.048V-4.572h-3.864v-.8h3.7V-7.692h-3.7v-.756h4.908v-.684h-4.908v-.78c.156-.012.216-.072.228-.168l-1.044-.06v1.008h-4.812v.684h4.812v.756h-3.528v2.316h3.528v.8h-3.888v.612h3.888v.912h-5.028v.66h5.028V-1.4h-4v.636h4V.06c0,.312-.072.312-.8.312-.324,0-.768-.012-1.212-.024a2.853,2.853,0,0,1,.288.7,8.251,8.251,0,0,0,2.028-.12c.36-.12.516-.336.516-.876V-.768h3.048v.552h.816V-2.388h1.272v-.66ZM-27.192-7.1h2.748v1.14h-2.748Zm6.432,1.14h-2.868V-7.1h2.868Zm.18,2v.912h-3.048V-3.96ZM-23.628-1.4v-.984h3.048V-1.4ZM-16.6-6.24V1.044h.768V-1.632H-13.2v1.7c0,.228,0,.228-.852.228-.216,0-.48,0-.744-.012a3.3,3.3,0,0,1,.276.72c1.7,0,2.1-.072,2.1-.924V-6.228h-.408V-6.24Zm3.4,1.992h-2.628V-5.532H-13.2Zm-2.628.648H-13.2v1.32h-2.628Zm6.636-6.576A11.8,11.8,0,0,1-10.548-8.4l.648.288h-4.176l.708-.324a8.368,8.368,0,0,0-1.464-1.692l-.708.324a9.513,9.513,0,0,1,1.4,1.692h-3.288v.744H-6.576v-.744h-3.24A13.454,13.454,0,0,0-8.472-9.7a.272.272,0,0,0,.276-.1Zm1.7,3.9a.233.233,0,0,0,.24-.168L-8.28-6.492V.036c0,.252-.072.252-.732.252-.3,0-.72-.012-1.164-.024a2.829,2.829,0,0,1,.3.78c2.016,0,2.388-.072,2.388-1.008Zm-3.564,5.148h.768V-5.892c.156-.024.228-.084.24-.156l-1.008-.072Zm10.9-7.02A3.4,3.4,0,0,1,.2-8.172c2.808,0,4.08,1.8,4.08,3.78C4.284-2.124,2.868-.78.108-.252a4.732,4.732,0,0,1,.5.732c2.9-.672,4.56-2.052,4.56-4.908,0-2.34-1.5-4.536-4.968-4.536A5.265,5.265,0,0,0-5.2-3.672c0,1.9.912,2.9,1.92,2.9C-1.284-.768-.036-4.02.4-7.752a.31.31,0,0,0,.3-.192Zm-3.1,6.54c-.576,0-1.128-.8-1.128-2.088A4.417,4.417,0,0,1-.456-8.1C-.756-4.812-1.8-1.608-3.252-1.608Zm20.688-1.08H12.372v-.78a.445.445,0,0,0,.18-.06h4.536v-.66H12.564v-.888h3.564v-.6H12.564V-6.54H16.1v-.6h-3.54v-.852h3.984v-.672H12.492c.228-.384.468-.816.624-1.14.156-.012.24-.048.264-.132l-1.032-.2a11.46,11.46,0,0,1-.684,1.476H9.228c.264-.408.492-.8.684-1.164.156-.012.228-.072.252-.156l-1.008-.168A11.162,11.162,0,0,1,6.252-6.4a2.288,2.288,0,0,1,.564.564,12.345,12.345,0,0,0,1.248-1.26v3.564h3.5v.84H6.576v.672H10.86A13.256,13.256,0,0,1,6.336.192a3.309,3.309,0,0,1,.54.684A14.241,14.241,0,0,0,11.568-1.7V1.008h.8V-1.74A13.7,13.7,0,0,0,17.148.768a3.114,3.114,0,0,1,.528-.66A12.718,12.718,0,0,1,13.1-2.016h4.332ZM8.844-5.676V-6.54h2.94v.864Zm0-1.464v-.852h2.94v.852Zm2.94,2.064v.888H8.844v-.888Zm14.82-2H22.8c.18-.2.336-.408.48-.6.144-.012.228-.06.24-.156L22.512-8a8.428,8.428,0,0,1-3.5,2.808,2.239,2.239,0,0,1,.552.564,10.573,10.573,0,0,0,1.98-1.26A8.365,8.365,0,0,0,23.3-4.368a18.3,18.3,0,0,1-4.932,1.68,2.743,2.743,0,0,1,.4.708c.624-.132,1.272-.312,1.908-.5V1.008h.78V.588h5.1V1h.828V-2.64c.564.144,1.128.264,1.716.36a3.659,3.659,0,0,1,.516-.756A15.955,15.955,0,0,1,24.8-4.4a8.71,8.71,0,0,0,2.4-2.268.267.267,0,0,0,.156-.1l-.6-.36ZM21.372-2.724a17.838,17.838,0,0,0,2.664-1.2,14.607,14.607,0,0,0,3.012,1.2Zm.084.7h5.1v1.92h-5.1Zm4.56-4.392A8.353,8.353,0,0,1,24.048-4.8a7.31,7.31,0,0,1-1.932-1.584l.036-.036Zm2.2-1.728v1.4h.816V-8.9H24.384V-9.912c.156-.012.228-.072.24-.156l-1.068-.072V-8.9H18.984v2.16h.78v-1.4Z" transform="translate(70 41.563)" fill="#333"/>
      <path id="パス_9630" data-name="パス 9630" d="M-16.64-9.952v-1.456h-6.1v-1.776c.256-.048.352-.128.368-.272l-1.936-.112v2.16H-30.1V-7.2c0,2.288-.128,5.52-1.552,7.776a5.185,5.185,0,0,1,1.3.848c1.536-2.4,1.776-6.128,1.776-8.624V-9.952Zm-4.736,5.376a32.437,32.437,0,0,1,2.144,3.3l-5.92.272A64.327,64.327,0,0,0-22.8-8.288c.224-.032.4-.112.448-.256l-2-.5a54.2,54.2,0,0,1-2.416,8.1c-.688.032-1.312.048-1.856.064l.656,1.76A.3.3,0,0,0-27.7.64C-25.424.512-21.888.3-18.528.048a12.2,12.2,0,0,1,.608,1.424l1.536-.72a26.747,26.747,0,0,0-3.6-5.936ZM-7.232-9.92h5.216v-1.392H-7.232v-1.872c.256-.048.368-.144.384-.272l-1.936-.112v2.256H-11.36c.192-.5.368-.992.512-1.472.208,0,.352-.064.4-.176l-1.84-.512a14.374,14.374,0,0,1-2.288,5.008,10.456,10.456,0,0,1,1.312.768A12.553,12.553,0,0,0-11.952-9.92h3.168v2.384h-6.464v1.408H-.72V-7.536H-7.232ZM-11.424,1.424V.8h6.912v.592h1.584V-4.832H-12.944V1.424ZM-4.512-.608h-6.912V-3.424h6.912ZM9.552-4.528l1.28-.592V-1.3h1.344V-5.76l1.3-.608c0,1.712-.032,2.832-.064,3.04-.032.224-.128.256-.288.256-.128,0-.464,0-.72-.016a3.98,3.98,0,0,1,.3,1.136c1.648.064,1.936-.464,1.984-1.1.048-.464.064-2.288.08-4.56a.325.325,0,0,0,.192-.192c-.48-.176-.784-.272-1.088-.368-.24.176-.272.192-.5.368l-1.2.576V-9.1c.24-.032.32-.128.336-.256l-1.68-.1v2.848l-1.28.592V-7.808c.24-.032.32-.112.336-.256L8.32-8.16A11.973,11.973,0,0,0,9.264-9.9h6.208V-11.28H9.808c.192-.544.352-1.1.5-1.664a.382.382,0,0,0,.384-.192l-1.776-.448A11.955,11.955,0,0,1,6.56-8.24,9.075,9.075,0,0,1,7.616-7.232a6.907,6.907,0,0,0,.576-.736v2.592L6.8-4.72l.544,1.232.848-.4V-.832c0,1.6.464,2.032,2.224,2.032h3.1c1.424,0,1.84-.528,2.032-2.368A4.06,4.06,0,0,1,14.288-1.7c-.08,1.36-.208,1.616-.864,1.616h-2.88c-.864,0-.992-.128-.992-.768Zm-5.92-3.04c.032-.672.048-1.36.064-2.032H7.44v-1.408H4.752v-2.176c.24-.032.336-.112.352-.256L3.3-13.552v2.544H.592V-9.6h1.68C2.208-5.7,2.048-1.856.4.384A3.977,3.977,0,0,1,1.5,1.408c1.36-1.872,1.856-4.672,2.064-7.6H5.232c-.08,4.208-.176,5.728-.416,6.064A.436.436,0,0,1,4.4.1C4.112.1,3.568.1,2.96.048a3.683,3.683,0,0,1,.384,1.36c1.968.048,2.3-.08,2.688-.64.416-.56.5-2.416.592-7.84.016-.176.016-.352.016-.48L5.9-7.568ZM28.24-5.04v1.7c0,.144-.048.208-.224.208-.16,0-.624,0-1.152-.016A5.6,5.6,0,0,1,27.328-2C29.1-2,29.76-2.08,29.76-3.344V-6.336H24.72v-.992h6.5V-8.672h-6.5V-9.5c.272-.048.368-.128.384-.272l-.752-.048a10.023,10.023,0,0,0,1.072-1.216h1.04a12.271,12.271,0,0,1,1.12,1.824L28.96-9.68a9.719,9.719,0,0,0-.864-1.36h3.328v-1.152H26.176c.16-.272.288-.544.416-.816.192.016.32-.048.368-.16-.448-.144-.912-.272-1.664-.5a8.768,8.768,0,0,1-1.52,2.48v-1.008H19.744c.128-.272.256-.544.368-.8a.383.383,0,0,0,.384-.16l-1.664-.512A10.467,10.467,0,0,1,16.48-9.9a9.508,9.508,0,0,1,1.152.752,10.849,10.849,0,0,0,1.456-1.888h.464a8.487,8.487,0,0,1,.736,1.76l1.36-.432a10.436,10.436,0,0,0-.576-1.328h2.576a6.524,6.524,0,0,1-.784.72c.192.112.448.288.688.448l-.336-.016v1.216H16.832v1.344h6.384v.992H18.352V-2.08h1.5V-5.04h3.36v1.072a12.673,12.673,0,0,1-6.752,3.7A6.4,6.4,0,0,1,17.408.976,13.633,13.633,0,0,0,23.216-2.24V1.408h1.5V-2.32A14.453,14.453,0,0,0,30.656.96a6.116,6.116,0,0,1,.96-1.328,13.121,13.121,0,0,1-6.9-3.616V-5.04Z" transform="translate(223.413 34.563)" fill="#fb297a"/>
      <path id="パス_9631" data-name="パス 9631" d="M-30.78-7.164h-2.364v-2.3c.216-.036.312-.132.324-.252L-34.344-9.8v2.64h-3.48V-9.276c.216-.036.324-.156.336-.276l-1.524-.1v2.484H-41.22v1.152h2.208v2.844h1.188V-6.012h3.48v.684A5.145,5.145,0,0,1-37.824-.12a6.516,6.516,0,0,1,.876.84,6.078,6.078,0,0,0,3.8-6.072v-.66h2.364ZM-21.108-9.1a1.316,1.316,0,0,0,1.32,1.32,1.316,1.316,0,0,0,1.32-1.32,1.326,1.326,0,0,0-1.32-1.332A1.326,1.326,0,0,0-21.108-9.1Zm1.32.9a.907.907,0,0,1-.9-.9.9.9,0,0,1,.9-.9.9.9,0,0,1,.9.9A.906.906,0,0,1-19.788-8.2Zm.3,2.04V-7.3H-23.4V-9.384a.318.318,0,0,0,.324-.264l-1.536-.072V-7.3h-3.924v1.14h3.924V-.888c0,.456-.252.456-.984.456-.348,0-.792-.012-1.152-.024a6.058,6.058,0,0,1,.336,1.1C-24.624.672-23.4.684-23.4-.912V-6.156ZM-22.224-4.38A20.469,20.469,0,0,1-19.908-.864l1.08-.624a22.647,22.647,0,0,0-2.424-3.4Zm-4.86-.408A8.2,8.2,0,0,1-29.16-1.5l1,.624a10.178,10.178,0,0,0,2.172-3.5Zm10.092.852a.5.5,0,0,0,.384-.216h9.54v-1.2h-10.02Zm21.036-.48A42.065,42.065,0,0,0-.36-6.36l-.24.336V-9.456c.228-.048.336-.144.348-.276l-1.608-.1V.672H-.6V-5.136A35.625,35.625,0,0,1,3.372-3.252Zm4.92-5.316c-.1,1.464-.192,5.064-.192,6.624,0,2.316,1.068,3.684,3.5,3.684A6.541,6.541,0,0,0,17.088-1.74a7.564,7.564,0,0,1-.708-1.044A5.718,5.718,0,0,1,12.288-.66c-1.392,0-2.22-.78-2.22-2.448,0-1.764.12-4.74.216-6.252.24-.024.348-.12.372-.264Zm10.416,2.4c.744.024,1.9.036,2.688.036.456,0,.972-.012,1.416-.024.024.636.036,1.3.06,1.956-.336.012-.7.012-1,.012-.96-.012-1.428-.06-1.428-.348,0-.132.072-.348.78-.7l-.816-.468c-.816.516-1.176.936-1.176,1.4,0,.84.828,1.092,2.928,1.092.24,0,.492,0,.744-.012.024.54.036,1.044.048,1.476A4.923,4.923,0,0,0,22.536-3c-1.392,0-2.688.672-2.688,1.86,0,1.128,1.092,1.848,2.664,1.848s2.316-.672,2.328-1.74v-.456A11.362,11.362,0,0,1,27.456.18l.72-1.032A12.345,12.345,0,0,0,24.792-2.64c-.024-.456-.048-1.08-.072-1.776A21,21,0,0,0,28.008-4.8l-.12-1.056a20.567,20.567,0,0,1-3.192.432L24.66-7.356a25.922,25.922,0,0,0,3.936-.4l-.132-1.1a25.08,25.08,0,0,1-3.792.432c-.012-.372-.012-.864-.012-1.2.2-.036.3-.108.312-.24l-1.548-.084c0,.4.012,1.02.024,1.572-.432.012-.924.024-1.38.024-.876,0-1.944,0-2.688-.048Zm4.3,6c0,.708-.324,1.068-1.152,1.068-.912,0-1.608-.3-1.608-.9s.732-.924,1.548-.924a4.5,4.5,0,0,1,1.212.18Zm7.164-5.7c1.32-.072,3.288-.12,5.268-.18.012.42.024.9.036,1.128,0,.036.012.084.012.132a1.7,1.7,0,0,0-.948-.264,2.271,2.271,0,0,0-2.244,2.28A2.1,2.1,0,0,0,35.04-1.788a1.212,1.212,0,0,0,.936-.42h.012A4.509,4.509,0,0,1,33.1.072a8.02,8.02,0,0,1,.876.936c1.92-.732,3.612-2.172,3.612-4.632a4.44,4.44,0,0,0-.168-1.32c-.012-.384-.024-.7-.048-1.116-.012-.3-.012-.732-.024-1.176,1.476-.048,2.9-.06,3.828-.048V-8.412c-.768.012-2.328.048-3.852.1-.012-.528-.024-1.1-.024-1.416.216-.036.324-.156.336-.264L36-10.068c.024.324.072,1.608.072,1.776-.828.036-4.512.132-5.268.156Zm4.356,4.3a1.154,1.154,0,0,1-1.14-1.2,1.225,1.225,0,0,1,1.224-1.32c.7,0,1.056.432,1.056,1.3A1.137,1.137,0,0,1,35.2-2.736Z" transform="translate(223.413 50.563)" fill="#333"/>
    </g>
    <g id="グループ_2546" data-name="グループ 2546" transform="translate(40.794 5813.711)">
      <g transform="matrix(1, 0, 0, 1, -15.33, -217.41)" filter="url(#長方形_3533-3)">
        <rect id="長方形_3533-8" data-name="長方形 3533" width="140" height="73.125" transform="translate(15.32 217.41)" fill="#fff"/>
      </g>
      <g transform="matrix(1, 0, 0, 1, -15.33, -217.41)" filter="url(#長方形_3534-3)">
        <rect id="長方形_3534-8" data-name="長方形 3534" width="140" height="73.125" transform="translate(168.74 217.41)" fill="#f5f5f5"/>
      </g>
      <path id="パス_9632" data-name="パス 9632" d="M-19.308-4.572h-4.428q.252-.468.468-.936A.242.242,0,0,0-23-5.628l-.036-.012h3.84V-9.768h-5.9V-5.64h1.056A8.737,8.737,0,0,1-26.5-2.4a4.449,4.449,0,0,1,.54.516,7.819,7.819,0,0,0,1.02-.984v1.692c0,.792.24,1,1.2,1H-21.9c.732,0,.96-.264,1.044-1.308a2.172,2.172,0,0,1-.66-.264c-.036.792-.1.9-.456.9h-1.692c-.48,0-.552-.048-.552-.324v-.576a16.8,16.8,0,0,0,2.7-.912.45.45,0,0,0,.12.012.136.136,0,0,0,.1-.036l-.6-.552a13.5,13.5,0,0,1-2.316.912v-.9c.144-.024.2-.072.216-.156l-.492-.036c.108-.144.216-.3.324-.456h4.644C-19.7-1.152-19.92-.084-20.2.2a.515.515,0,0,1-.444.144c-.228,0-.816,0-1.44-.06a1.626,1.626,0,0,1,.216.7c.384.024.78.036,1.092.036.7,0,.972-.048,1.236-.36.384-.408.588-1.6.792-4.944a.9.9,0,0,0,.036-.24L-19.14-4.6Zm-.672-4.572v1.128h-4.368V-9.144Zm0,1.728v1.152h-4.368V-7.416Zm-7.056.552h1.464V-7.62h-1.464V-9.9c.168-.024.228-.072.24-.168l-1.008-.06V-7.62h-1.7v.756h1.7v2.7c-.7.192-1.32.36-1.824.48l.3.936a.22.22,0,0,0,.156-.192l1.368-.42V.012c0,.24,0,.252-.84.252-.216,0-.456,0-.72-.012a2.568,2.568,0,0,1,.252.78c1.608,0,2.076-.06,2.076-1.008V-3.612c.516-.156,1.056-.336,1.584-.5l-.1-.684c-.492.144-1,.288-1.488.42Zm20.508.144v-.7H-10.02c-.036-.8-.048-1.62-.048-2.46.168-.024.24-.084.24-.18-.12-.012-.252-.024-1.056-.06,0,.912.036,1.824.084,2.7h-3.036V-8.46h2.244v-.672h-2.244v-.78c.168-.024.228-.084.24-.168l-1.02-.06v1.008h-2.256v.672h2.256v1.044h-2.8v.7h6.648A23.825,23.825,0,0,0-10-1.812,10.516,10.516,0,0,1-11.3-.4V-.864h-2.58v-.708h2.208V-4.548h-2.2v-.7h2.52v-.624h-2.52v-.576c.156-.024.228-.084.24-.156l-.984-.072v.8h-2.46v.624h2.46v.7H-16.74v2.976h2.124v.708h-2.652v.648h2.652V1.032h.732V-.216h2.364A9.044,9.044,0,0,1-12.4.42a2.775,2.775,0,0,1,.588.6A9.536,9.536,0,0,0-9.7-.924C-9.2.288-8.544,1.02-7.668,1.02c.852,0,1.14-.576,1.284-2.484a1.823,1.823,0,0,1-.648-.42C-7.1-.384-7.248.228-7.608.228c-.612,0-1.116-.72-1.512-1.884A14.687,14.687,0,0,0-7.152-5.64.246.246,0,0,0-6.9-5.772l-.936-.264A14.479,14.479,0,0,1-9.4-2.652,25.489,25.489,0,0,1-9.972-6.72Zm-8.04,2.676v.732h-1.548v-.732Zm.648.732v-.732h1.6v.732Zm-.648.492v.744h-1.548V-2.82Zm.648.744V-2.82h1.6v.744Zm4.728-7.476a9.192,9.192,0,0,1,1.7,1.728l.6-.468A9.2,9.2,0,0,0-8.616-9.948Zm9.036,1.4A3.4,3.4,0,0,1,.2-8.172c2.808,0,4.08,1.8,4.08,3.78C4.284-2.124,2.868-.78.108-.252a4.732,4.732,0,0,1,.5.732c2.9-.672,4.56-2.052,4.56-4.908,0-2.34-1.5-4.536-4.968-4.536A5.265,5.265,0,0,0-5.2-3.672c0,1.9.912,2.9,1.92,2.9C-1.284-.768-.036-4.02.4-7.752a.31.31,0,0,0,.3-.192Zm-3.1,6.54c-.576,0-1.128-.8-1.128-2.088A4.417,4.417,0,0,1-.456-8.1C-.756-4.812-1.8-1.608-3.252-1.608ZM12.54-9.6v4.068h3.708v5.46c0,.276-.072.276-.708.276-.3,0-.7-.012-1.1-.024a3.159,3.159,0,0,1,.264.828c1.884,0,2.34-.048,2.34-1.08V-9.6Zm3.708,1.692H13.32V-8.964h2.928Zm-2.928.6h2.928v1.14H13.32ZM11.412-9.6H7.02V1.032h.792V-5.544h3.6Zm-.768,1.692H7.812V-8.964h2.832Zm-2.832.6h2.832V-6.18H7.812Zm7.476,4.644h-1.7v-1.4h1.44v-.684H8.964v.684H10.32v1.4h-1.6v.684H10.3A3.145,3.145,0,0,1,8.82.4a2.716,2.716,0,0,1,.54.5,3.99,3.99,0,0,0,1.656-2.88h1.836V.792h.732V-1.98h1.7Zm-4.248-1.4h1.812v1.4H11.04ZM22.44-7.6H20.592c.18-.8.348-1.584.48-2.268.156-.012.228-.06.24-.144l-.984-.12c-.144.768-.312,1.632-.5,2.532H18.456v.756h1.2c-.348,1.548-.72,3.072-1.02,4.128l.684.36.144-.528a16.1,16.1,0,0,1,1.368.924A5.673,5.673,0,0,1,18.576.384a3.319,3.319,0,0,1,.5.66,6.486,6.486,0,0,0,2.376-2.508A8.55,8.55,0,0,1,22.74-.216l.492-.66a8.57,8.57,0,0,0-1.416-1.308,15.649,15.649,0,0,0,1.152-5.16l.072-.168-.456-.12Zm-.276.756a14.224,14.224,0,0,1-1,4.176c-.5-.336-1.02-.672-1.524-.948.252-.984.528-2.112.78-3.228Zm2.52,7.86V.456H28.2V.972H29V-3.9H23.916V1.02ZM28.2-.288H24.684V-3.144H28.2ZM27.1-7.812a17.663,17.663,0,0,1,1.176,1.74L24.78-5.9a37.584,37.584,0,0,0,1.356-3.828c.144-.012.24-.06.276-.144l-1.056-.264a29.887,29.887,0,0,1-1.368,4.26l-.972.036.336.936a.2.2,0,0,0,.168-.156c1.26-.084,3.2-.2,5.1-.36a8.256,8.256,0,0,1,.348.816l.708-.384a12.857,12.857,0,0,0-1.92-3.156Z" transform="translate(70 41.563)" fill="#333"/>
      <path id="パス_9633" data-name="パス 9633" d="M-22.752-1.664H-16.9v-8.512h-2.72c.112-.464.224-.96.3-1.376h2.8v-1.3H-23.3v1.3h2.544c-.048.448-.128.944-.208,1.376h-1.792Zm1.248-3.6V-6.592h3.3v1.328Zm0-2.432V-9.008h3.3V-7.7Zm0,4.864V-4.16h3.3v1.328Zm-9.744-10.016v1.264h7.408v-1.264ZM-25.52-.512v-.864h1.536V-2.24H-25.52v-.848h1.536v-.864H-25.52V-4.8h1.712v-.992h-1.568c.144-.272.272-.544.368-.768.176,0,.3-.048.336-.16L-26-7.168a10.99,10.99,0,0,1-.48,1.376h-1.072q.192-.432.336-.864c.16,0,.272-.048.32-.16l-1.328-.4a10.533,10.533,0,0,1-1.264,2.848c.048-.768.064-1.5.064-2.144v-.752h5.408V-10.72h-6.7v4.208A18.829,18.829,0,0,1-31.68.4a4.053,4.053,0,0,1,1.088.768,15.043,15.043,0,0,0,1.04-4.656c.16.16.32.32.416.432.1-.112.208-.256.3-.384V1.232h1.1V.512H-24l-.032.016a9.073,9.073,0,0,1,.976.912A8.91,8.91,0,0,0-20.432-.608a.438.438,0,0,0,.288-.112l-1.312-.736A8.486,8.486,0,0,1-23.664.336V-.512ZM-27.728-2.24v-.848h1.2v.848Zm0-1.712V-4.8h1.2v.848Zm1.2,2.576v.864h-1.2v-.864Zm1.152-6.96h-4.048v-1.3h4.048Zm9.1,8.992a16.245,16.245,0,0,0-2.112-2.064l-1.088.688a16.69,16.69,0,0,1,2.048,2.16ZM-4.736-9.488H-9.024c.16-.192.32-.4.464-.592.224,0,.352-.08.384-.224l-1.584-.288h6.992v1.84h1.552v-3.216H-7.264V-13.2c.256-.048.352-.128.368-.272l-1.92-.112v1.616h-5.936v3.216h1.488v-1.84h3.216a10.1,10.1,0,0,1-4.576,3.456,4.482,4.482,0,0,1,1.008,1.12,15.631,15.631,0,0,0,2.3-1.36,11.466,11.466,0,0,0,1.888,1.6,23.5,23.5,0,0,1-6.128,1.888,5.809,5.809,0,0,1,.736,1.344c.768-.16,1.552-.352,2.32-.576V1.408h1.488V.88h6.064v.5h1.552v-4.64c.64.144,1.28.272,1.952.368A7.47,7.47,0,0,1-.464-4.352,22.756,22.756,0,0,1-6.528-5.84,10.857,10.857,0,0,0-3.584-8.752a.668.668,0,0,0,.24-.176L-4.48-9.552Zm-6.272,7.152h6.064V-.384h-6.064Zm5.2-5.984A9.707,9.707,0,0,1-8-6.56a9.428,9.428,0,0,1-2.24-1.68l.1-.08Zm-5.2,4.72A20.973,20.973,0,0,0-8.016-4.928,18.918,18.918,0,0,0-4.672-3.6ZM13.616-9.808V-13.2c.256-.048.352-.128.368-.272l-1.872-.1v3.76H8.368V-10.9H5.184v-2.288c.256-.048.352-.128.368-.256l-1.824-.112V-10.9H.528v1.408H7.84v1.152h4.272V-.56c0,.384-.064.384-1.008.384-.416,0-.944-.016-1.52-.032a6.942,6.942,0,0,1,.5,1.616c2.88,0,3.536-.272,3.536-1.968V-8.336h1.84V-9.808ZM1.184-7.264A39.577,39.577,0,0,1,3.968-3.888,8.833,8.833,0,0,1,.432.048,6.868,6.868,0,0,1,1.36,1.184,10.111,10.111,0,0,0,4.9-2.576a17.42,17.42,0,0,1,1.3,2.24l1.216-1.04a18.274,18.274,0,0,0-1.76-2.736,21.992,21.992,0,0,0,1.264-4.48c.224,0,.352-.08.384-.208L5.52-9.152a21.749,21.749,0,0,1-.9,3.712c-.768-.944-1.6-1.872-2.368-2.688ZM7.872-6.24A13.391,13.391,0,0,1,9.584-2.656L10.9-3.312A12.852,12.852,0,0,0,9.1-6.832ZM31.36-10.112v-1.456H25.28v-1.616c.256-.048.352-.128.368-.272L23.7-13.568v2H17.808v4.144c0,2.336-.112,5.648-1.44,7.968a6.532,6.532,0,0,1,1.3.864c1.424-2.5,1.664-6.288,1.664-8.832v-2.688ZM23.072-8.944a21.774,21.774,0,0,1,3.936,2.5l1.072-1.12A20.316,20.316,0,0,0,24.1-9.936ZM24.4-6.128c.256-.032.352-.128.368-.256L22.9-6.5V-.72c0,1.536.384,2,1.888,2h2c1.408,0,1.776-.752,1.92-3.456a4.766,4.766,0,0,1-1.36-.624C27.3-.48,27.2-.08,26.672-.08H25.008c-.512,0-.608-.1-.608-.656Zm7.232,5.52a17.137,17.137,0,0,0-2.208-5.168l-1.36.512A17.841,17.841,0,0,1,30.144,0ZM20.656-5.6A12.342,12.342,0,0,1,19.328-.688l1.36.624A14.061,14.061,0,0,0,22.032-5.3Z" transform="translate(223.413 34.563)" fill="#fb297a"/>
      <path id="パス_9634" data-name="パス 9634" d="M-30.78-7.164h-2.364v-2.3c.216-.036.312-.132.324-.252L-34.344-9.8v2.64h-3.48V-9.276c.216-.036.324-.156.336-.276l-1.524-.1v2.484H-41.22v1.152h2.208v2.844h1.188V-6.012h3.48v.684A5.145,5.145,0,0,1-37.824-.12a6.516,6.516,0,0,1,.876.84,6.078,6.078,0,0,0,3.8-6.072v-.66h2.364ZM-21.108-9.1a1.316,1.316,0,0,0,1.32,1.32,1.316,1.316,0,0,0,1.32-1.32,1.326,1.326,0,0,0-1.32-1.332A1.326,1.326,0,0,0-21.108-9.1Zm1.32.9a.907.907,0,0,1-.9-.9.9.9,0,0,1,.9-.9.9.9,0,0,1,.9.9A.906.906,0,0,1-19.788-8.2Zm.3,2.04V-7.3H-23.4V-9.384a.318.318,0,0,0,.324-.264l-1.536-.072V-7.3h-3.924v1.14h3.924V-.888c0,.456-.252.456-.984.456-.348,0-.792-.012-1.152-.024a6.058,6.058,0,0,1,.336,1.1C-24.624.672-23.4.684-23.4-.912V-6.156ZM-22.224-4.38A20.469,20.469,0,0,1-19.908-.864l1.08-.624a22.647,22.647,0,0,0-2.424-3.4Zm-4.86-.408A8.2,8.2,0,0,1-29.16-1.5l1,.624a10.178,10.178,0,0,0,2.172-3.5Zm10.092.852a.5.5,0,0,0,.384-.216h9.54v-1.2h-10.02Zm21.036-.48A42.065,42.065,0,0,0-.36-6.36l-.24.336V-9.456c.228-.048.336-.144.348-.276l-1.608-.1V.672H-.6V-5.136A35.625,35.625,0,0,1,3.372-3.252Zm4.92-5.316c-.1,1.464-.192,5.064-.192,6.624,0,2.316,1.068,3.684,3.5,3.684A6.541,6.541,0,0,0,17.088-1.74a7.564,7.564,0,0,1-.708-1.044A5.718,5.718,0,0,1,12.288-.66c-1.392,0-2.22-.78-2.22-2.448,0-1.764.12-4.74.216-6.252.24-.024.348-.12.372-.264Zm10.416,2.4c.744.024,1.9.036,2.688.036.456,0,.972-.012,1.416-.024.024.636.036,1.3.06,1.956-.336.012-.7.012-1,.012-.96-.012-1.428-.06-1.428-.348,0-.132.072-.348.78-.7l-.816-.468c-.816.516-1.176.936-1.176,1.4,0,.84.828,1.092,2.928,1.092.24,0,.492,0,.744-.012.024.54.036,1.044.048,1.476A4.923,4.923,0,0,0,22.536-3c-1.392,0-2.688.672-2.688,1.86,0,1.128,1.092,1.848,2.664,1.848s2.316-.672,2.328-1.74v-.456A11.362,11.362,0,0,1,27.456.18l.72-1.032A12.345,12.345,0,0,0,24.792-2.64c-.024-.456-.048-1.08-.072-1.776A21,21,0,0,0,28.008-4.8l-.12-1.056a20.567,20.567,0,0,1-3.192.432L24.66-7.356a25.922,25.922,0,0,0,3.936-.4l-.132-1.1a25.08,25.08,0,0,1-3.792.432c-.012-.372-.012-.864-.012-1.2.2-.036.3-.108.312-.24l-1.548-.084c0,.4.012,1.02.024,1.572-.432.012-.924.024-1.38.024-.876,0-1.944,0-2.688-.048Zm4.3,6c0,.708-.324,1.068-1.152,1.068-.912,0-1.608-.3-1.608-.9s.732-.924,1.548-.924a4.5,4.5,0,0,1,1.212.18Zm7.164-5.7c1.32-.072,3.288-.12,5.268-.18.012.42.024.9.036,1.128,0,.036.012.084.012.132a1.7,1.7,0,0,0-.948-.264,2.271,2.271,0,0,0-2.244,2.28A2.1,2.1,0,0,0,35.04-1.788a1.212,1.212,0,0,0,.936-.42h.012A4.509,4.509,0,0,1,33.1.072a8.02,8.02,0,0,1,.876.936c1.92-.732,3.612-2.172,3.612-4.632a4.44,4.44,0,0,0-.168-1.32c-.012-.384-.024-.7-.048-1.116-.012-.3-.012-.732-.024-1.176,1.476-.048,2.9-.06,3.828-.048V-8.412c-.768.012-2.328.048-3.852.1-.012-.528-.024-1.1-.024-1.416.216-.036.324-.156.336-.264L36-10.068c.024.324.072,1.608.072,1.776-.828.036-4.512.132-5.268.156Zm4.356,4.3a1.154,1.154,0,0,1-1.14-1.2,1.225,1.225,0,0,1,1.224-1.32c.7,0,1.056.432,1.056,1.3A1.137,1.137,0,0,1,35.2-2.736Z" transform="translate(223.413 50.563)" fill="#333"/>
    </g>
    <g id="グループ_2547" data-name="グループ 2547" transform="translate(40.794 5895.941)">
      <g transform="matrix(1, 0, 0, 1, -15.33, -299.64)" filter="url(#長方形_3533-4)">
        <rect id="長方形_3533-9" data-name="長方形 3533" width="140" height="73.125" transform="translate(15.32 299.64)" fill="#fff"/>
      </g>
      <g transform="matrix(1, 0, 0, 1, -15.33, -299.64)" filter="url(#長方形_3534-4)">
        <rect id="長方形_3534-9" data-name="長方形 3534" width="140" height="73.125" transform="translate(168.74 299.64)" fill="#f5f5f5"/>
      </g>
      <path id="パス_9635" data-name="パス 9635" d="M-19.308-4.572h-4.428q.252-.468.468-.936A.242.242,0,0,0-23-5.628l-.036-.012h3.84V-9.768h-5.9V-5.64h1.056A8.737,8.737,0,0,1-26.5-2.4a4.449,4.449,0,0,1,.54.516,7.819,7.819,0,0,0,1.02-.984v1.692c0,.792.24,1,1.2,1H-21.9c.732,0,.96-.264,1.044-1.308a2.172,2.172,0,0,1-.66-.264c-.036.792-.1.9-.456.9h-1.692c-.48,0-.552-.048-.552-.324v-.576a16.8,16.8,0,0,0,2.7-.912.45.45,0,0,0,.12.012.136.136,0,0,0,.1-.036l-.6-.552a13.5,13.5,0,0,1-2.316.912v-.9c.144-.024.2-.072.216-.156l-.492-.036c.108-.144.216-.3.324-.456h4.644C-19.7-1.152-19.92-.084-20.2.2a.515.515,0,0,1-.444.144c-.228,0-.816,0-1.44-.06a1.626,1.626,0,0,1,.216.7c.384.024.78.036,1.092.036.7,0,.972-.048,1.236-.36.384-.408.588-1.6.792-4.944a.9.9,0,0,0,.036-.24L-19.14-4.6Zm-.672-4.572v1.128h-4.368V-9.144Zm0,1.728v1.152h-4.368V-7.416Zm-7.056.552h1.464V-7.62h-1.464V-9.9c.168-.024.228-.072.24-.168l-1.008-.06V-7.62h-1.7v.756h1.7v2.7c-.7.192-1.32.36-1.824.48l.3.936a.22.22,0,0,0,.156-.192l1.368-.42V.012c0,.24,0,.252-.84.252-.216,0-.456,0-.72-.012a2.568,2.568,0,0,1,.252.78c1.608,0,2.076-.06,2.076-1.008V-3.612c.516-.156,1.056-.336,1.584-.5l-.1-.684c-.492.144-1,.288-1.488.42Zm20.508.144v-.7H-10.02c-.036-.8-.048-1.62-.048-2.46.168-.024.24-.084.24-.18-.12-.012-.252-.024-1.056-.06,0,.912.036,1.824.084,2.7h-3.036V-8.46h2.244v-.672h-2.244v-.78c.168-.024.228-.084.24-.168l-1.02-.06v1.008h-2.256v.672h2.256v1.044h-2.8v.7h6.648A23.825,23.825,0,0,0-10-1.812,10.516,10.516,0,0,1-11.3-.4V-.864h-2.58v-.708h2.208V-4.548h-2.2v-.7h2.52v-.624h-2.52v-.576c.156-.024.228-.084.24-.156l-.984-.072v.8h-2.46v.624h2.46v.7H-16.74v2.976h2.124v.708h-2.652v.648h2.652V1.032h.732V-.216h2.364A9.044,9.044,0,0,1-12.4.42a2.775,2.775,0,0,1,.588.6A9.536,9.536,0,0,0-9.7-.924C-9.2.288-8.544,1.02-7.668,1.02c.852,0,1.14-.576,1.284-2.484a1.823,1.823,0,0,1-.648-.42C-7.1-.384-7.248.228-7.608.228c-.612,0-1.116-.72-1.512-1.884A14.687,14.687,0,0,0-7.152-5.64.246.246,0,0,0-6.9-5.772l-.936-.264A14.479,14.479,0,0,1-9.4-2.652,25.489,25.489,0,0,1-9.972-6.72Zm-8.04,2.676v.732h-1.548v-.732Zm.648.732v-.732h1.6v.732Zm-.648.492v.744h-1.548V-2.82Zm.648.744V-2.82h1.6v.744Zm4.728-7.476a9.192,9.192,0,0,1,1.7,1.728l.6-.468A9.2,9.2,0,0,0-8.616-9.948Zm9.036,1.4A3.4,3.4,0,0,1,.2-8.172c2.808,0,4.08,1.8,4.08,3.78C4.284-2.124,2.868-.78.108-.252a4.732,4.732,0,0,1,.5.732c2.9-.672,4.56-2.052,4.56-4.908,0-2.34-1.5-4.536-4.968-4.536A5.265,5.265,0,0,0-5.2-3.672c0,1.9.912,2.9,1.92,2.9C-1.284-.768-.036-4.02.4-7.752a.31.31,0,0,0,.3-.192Zm-3.1,6.54c-.576,0-1.128-.8-1.128-2.088A4.417,4.417,0,0,1-.456-8.1C-.756-4.812-1.8-1.608-3.252-1.608ZM12.372-9.9c.156-.024.228-.084.24-.168l-1.08-.072v2.2H7.116v5.712h.8V-3h3.612V1h.84V-3h3.66v.708h.828V-7.944H12.372ZM7.92-7.152h3.612V-3.8H7.92Zm4.452,0h3.66V-3.8h-3.66ZM23.46-2.688V-7.752h.912v-.732H23.46V-9.768c.156-.012.216-.072.228-.156l-.984-.06v1.5h-2.34V-9.768c.156-.024.216-.072.228-.156l-.972-.06v1.5H18.576v.732H19.62v5.064H18.408v.732h6.036v-.732Zm-.756-3.2V-4.68h-2.34V-5.892Zm0-.672h-2.34V-7.752H22.7Zm0,2.544v1.332h-2.34V-4.02Zm2.3-5.5V-5.1A10.37,10.37,0,0,1,23.976.12,11.175,11.175,0,0,0,22.7-1.68l-.636.348A9.875,9.875,0,0,1,23.316.528c.12-.072.636-.384.66-.384a4.663,4.663,0,0,1-.336.468,2.223,2.223,0,0,1,.624.48A8.223,8.223,0,0,0,25.68-3.132h2.736V0c0,.264-.072.264-.684.264-.276,0-.648-.012-1.032-.024a2.948,2.948,0,0,1,.252.78C28.752,1.044,29.2.972,29.2,0V-9.516Zm3.408,2.808H25.764V-8.772h2.652Zm-2.652.732h2.652v2.112H25.728c.024-.432.036-.852.036-1.236ZM20.136-1.668A6.452,6.452,0,0,1,18.48.552a4.636,4.636,0,0,1,.6.456,8.331,8.331,0,0,0,1.74-2.256q.2,0,.252-.108Z" transform="translate(70 41.563)" fill="#333"/>
      <path id="パス_9636" data-name="パス 9636" d="M-16.512-10.624H-21.92c.224-.768.432-1.552.592-2.336.224,0,.352-.08.4-.208l-1.872-.416a16.75,16.75,0,0,1-2.656,6.976v-5.7h-5.888V-10.9h4.416v3.1h-3.9v5.1c0,1.584.448,2.016,1.984,2.016h2.208c1.312,0,1.744-.56,1.92-2.7a4.552,4.552,0,0,1-1.36-.592c-.064,1.616-.16,1.856-.688,1.856h-1.888c-.608,0-.7-.08-.7-.592V-6.416h2.432v.448h1.472v-.256c.352.24.784.576,1.024.784a10.479,10.479,0,0,0,1.04-1.552,18.2,18.2,0,0,0,1.584,4.1A9.294,9.294,0,0,1-25.968.16,7.489,7.489,0,0,1-25.1,1.44a11.273,11.273,0,0,0,4.16-2.992,9.388,9.388,0,0,0,3.568,2.976A5.68,5.68,0,0,1-16.32.1,8.56,8.56,0,0,1-19.984-2.88a17.824,17.824,0,0,0,2.144-6.3h1.328Zm-2.88,1.44A16.039,16.039,0,0,1-20.88-4.352,18.024,18.024,0,0,1-22.448-9.1l.032-.08Zm15.168,2.64h3.072V-7.68H-7.264v-.912h4.608V-9.7H-7.264v-.9h5.6v-1.136H-4.848c.336-.416.7-.9.944-1.264.208,0,.32-.048.368-.176l-1.808-.448A10.574,10.574,0,0,1-6.368-11.84l.336.112H-10.1l.4-.128A6.918,6.918,0,0,0-10.7-13.568l-1.36.368a8.949,8.949,0,0,1,.816,1.472h-3.088v1.136h5.52v.9h-4.5v1.1h4.5v.912h-5.952v1.136h3.024l-1.072.288a6.779,6.779,0,0,1,.672,1.2H-15.28v1.2H-.7v-1.2H-4.016c.288-.336.576-.688.784-.976.176,0,.3-.048.352-.176ZM-8.816-5.056h-1.872l.144-.048a5.525,5.525,0,0,0-.848-1.44h2.576Zm1.552-1.488H-4.72a16.542,16.542,0,0,1-.944,1.488h-1.6Zm-4.288,7.952V.9h7.136V1.36h1.552V-3.056H-13.056V1.408ZM-4.416-.3h-7.136V-1.872h7.136ZM9.552-4.528l1.28-.592V-1.3h1.344V-5.76l1.3-.608c0,1.712-.032,2.832-.064,3.04-.032.224-.128.256-.288.256-.128,0-.464,0-.72-.016a3.98,3.98,0,0,1,.3,1.136c1.648.064,1.936-.464,1.984-1.1.048-.464.064-2.288.08-4.56a.325.325,0,0,0,.192-.192c-.48-.176-.784-.272-1.088-.368-.24.176-.272.192-.5.368l-1.2.576V-9.1c.24-.032.32-.128.336-.256l-1.68-.1v2.848l-1.28.592V-7.808c.24-.032.32-.112.336-.256L8.32-8.16A11.973,11.973,0,0,0,9.264-9.9h6.208V-11.28H9.808c.192-.544.352-1.1.5-1.664a.382.382,0,0,0,.384-.192l-1.776-.448A11.955,11.955,0,0,1,6.56-8.24,9.075,9.075,0,0,1,7.616-7.232a6.907,6.907,0,0,0,.576-.736v2.592L6.8-4.72l.544,1.232.848-.4V-.832c0,1.6.464,2.032,2.224,2.032h3.1c1.424,0,1.84-.528,2.032-2.368A4.06,4.06,0,0,1,14.288-1.7c-.08,1.36-.208,1.616-.864,1.616h-2.88c-.864,0-.992-.128-.992-.768Zm-5.92-3.04c.032-.672.048-1.36.064-2.032H7.44v-1.408H4.752v-2.176c.24-.032.336-.112.352-.256L3.3-13.552v2.544H.592V-9.6h1.68C2.208-5.7,2.048-1.856.4.384A3.977,3.977,0,0,1,1.5,1.408c1.36-1.872,1.856-4.672,2.064-7.6H5.232c-.08,4.208-.176,5.728-.416,6.064A.436.436,0,0,1,4.4.1C4.112.1,3.568.1,2.96.048a3.683,3.683,0,0,1,.384,1.36c1.968.048,2.3-.08,2.688-.64.416-.56.5-2.416.592-7.84.016-.176.016-.352.016-.48L5.9-7.568ZM28.24-5.04v1.7c0,.144-.048.208-.224.208-.16,0-.624,0-1.152-.016A5.6,5.6,0,0,1,27.328-2C29.1-2,29.76-2.08,29.76-3.344V-6.336H24.72v-.992h6.5V-8.672h-6.5V-9.5c.272-.048.368-.128.384-.272l-.752-.048a10.023,10.023,0,0,0,1.072-1.216h1.04a12.271,12.271,0,0,1,1.12,1.824L28.96-9.68a9.719,9.719,0,0,0-.864-1.36h3.328v-1.152H26.176c.16-.272.288-.544.416-.816.192.016.32-.048.368-.16-.448-.144-.912-.272-1.664-.5a8.768,8.768,0,0,1-1.52,2.48v-1.008H19.744c.128-.272.256-.544.368-.8a.383.383,0,0,0,.384-.16l-1.664-.512A10.467,10.467,0,0,1,16.48-9.9a9.508,9.508,0,0,1,1.152.752,10.849,10.849,0,0,0,1.456-1.888h.464a8.487,8.487,0,0,1,.736,1.76l1.36-.432a10.436,10.436,0,0,0-.576-1.328h2.576a6.524,6.524,0,0,1-.784.72c.192.112.448.288.688.448l-.336-.016v1.216H16.832v1.344h6.384v.992H18.352V-2.08h1.5V-5.04h3.36v1.072a12.673,12.673,0,0,1-6.752,3.7A6.4,6.4,0,0,1,17.408.976,13.633,13.633,0,0,0,23.216-2.24V1.408h1.5V-2.32A14.453,14.453,0,0,0,30.656.96a6.116,6.116,0,0,1,.96-1.328,13.121,13.121,0,0,1-6.9-3.616V-5.04Z" transform="translate(223.413 34.563)" fill="#fb297a"/>
      <path id="パス_9637" data-name="パス 9637" d="M-30.78-7.164h-2.364v-2.3c.216-.036.312-.132.324-.252L-34.344-9.8v2.64h-3.48V-9.276c.216-.036.324-.156.336-.276l-1.524-.1v2.484H-41.22v1.152h2.208v2.844h1.188V-6.012h3.48v.684A5.145,5.145,0,0,1-37.824-.12a6.516,6.516,0,0,1,.876.84,6.078,6.078,0,0,0,3.8-6.072v-.66h2.364ZM-21.108-9.1a1.316,1.316,0,0,0,1.32,1.32,1.316,1.316,0,0,0,1.32-1.32,1.326,1.326,0,0,0-1.32-1.332A1.326,1.326,0,0,0-21.108-9.1Zm1.32.9a.907.907,0,0,1-.9-.9.9.9,0,0,1,.9-.9.9.9,0,0,1,.9.9A.906.906,0,0,1-19.788-8.2Zm.3,2.04V-7.3H-23.4V-9.384a.318.318,0,0,0,.324-.264l-1.536-.072V-7.3h-3.924v1.14h3.924V-.888c0,.456-.252.456-.984.456-.348,0-.792-.012-1.152-.024a6.058,6.058,0,0,1,.336,1.1C-24.624.672-23.4.684-23.4-.912V-6.156ZM-22.224-4.38A20.469,20.469,0,0,1-19.908-.864l1.08-.624a22.647,22.647,0,0,0-2.424-3.4Zm-4.86-.408A8.2,8.2,0,0,1-29.16-1.5l1,.624a10.178,10.178,0,0,0,2.172-3.5Zm10.092.852a.5.5,0,0,0,.384-.216h9.54v-1.2h-10.02Zm21.036-.48A42.065,42.065,0,0,0-.36-6.36l-.24.336V-9.456c.228-.048.336-.144.348-.276l-1.608-.1V.672H-.6V-5.136A35.625,35.625,0,0,1,3.372-3.252Zm4.92-5.316c-.1,1.464-.192,5.064-.192,6.624,0,2.316,1.068,3.684,3.5,3.684A6.541,6.541,0,0,0,17.088-1.74a7.564,7.564,0,0,1-.708-1.044A5.718,5.718,0,0,1,12.288-.66c-1.392,0-2.22-.78-2.22-2.448,0-1.764.12-4.74.216-6.252.24-.024.348-.12.372-.264Zm10.416,2.4c.744.024,1.9.036,2.688.036.456,0,.972-.012,1.416-.024.024.636.036,1.3.06,1.956-.336.012-.7.012-1,.012-.96-.012-1.428-.06-1.428-.348,0-.132.072-.348.78-.7l-.816-.468c-.816.516-1.176.936-1.176,1.4,0,.84.828,1.092,2.928,1.092.24,0,.492,0,.744-.012.024.54.036,1.044.048,1.476A4.923,4.923,0,0,0,22.536-3c-1.392,0-2.688.672-2.688,1.86,0,1.128,1.092,1.848,2.664,1.848s2.316-.672,2.328-1.74v-.456A11.362,11.362,0,0,1,27.456.18l.72-1.032A12.345,12.345,0,0,0,24.792-2.64c-.024-.456-.048-1.08-.072-1.776A21,21,0,0,0,28.008-4.8l-.12-1.056a20.567,20.567,0,0,1-3.192.432L24.66-7.356a25.922,25.922,0,0,0,3.936-.4l-.132-1.1a25.08,25.08,0,0,1-3.792.432c-.012-.372-.012-.864-.012-1.2.2-.036.3-.108.312-.24l-1.548-.084c0,.4.012,1.02.024,1.572-.432.012-.924.024-1.38.024-.876,0-1.944,0-2.688-.048Zm4.3,6c0,.708-.324,1.068-1.152,1.068-.912,0-1.608-.3-1.608-.9s.732-.924,1.548-.924a4.5,4.5,0,0,1,1.212.18Zm7.164-5.7c1.32-.072,3.288-.12,5.268-.18.012.42.024.9.036,1.128,0,.036.012.084.012.132a1.7,1.7,0,0,0-.948-.264,2.271,2.271,0,0,0-2.244,2.28A2.1,2.1,0,0,0,35.04-1.788a1.212,1.212,0,0,0,.936-.42h.012A4.509,4.509,0,0,1,33.1.072a8.02,8.02,0,0,1,.876.936c1.92-.732,3.612-2.172,3.612-4.632a4.44,4.44,0,0,0-.168-1.32c-.012-.384-.024-.7-.048-1.116-.012-.3-.012-.732-.024-1.176,1.476-.048,2.9-.06,3.828-.048V-8.412c-.768.012-2.328.048-3.852.1-.012-.528-.024-1.1-.024-1.416.216-.036.324-.156.336-.264L36-10.068c.024.324.072,1.608.072,1.776-.828.036-4.512.132-5.268.156Zm4.356,4.3a1.154,1.154,0,0,1-1.14-1.2,1.225,1.225,0,0,1,1.224-1.32c.7,0,1.056.432,1.056,1.3A1.137,1.137,0,0,1,35.2-2.736Z" transform="translate(223.413 50.563)" fill="#333"/>
    </g>
    <g id="グループ_2548" data-name="グループ 2548" transform="translate(40.793 5978.172)">
      <g transform="matrix(1, 0, 0, 1, -15.32, -381.87)" filter="url(#長方形_3533-5)">
        <rect id="長方形_3533-10" data-name="長方形 3533" width="140" height="73.125" transform="translate(15.32 381.87)" fill="#fff"/>
      </g>
      <g transform="matrix(1, 0, 0, 1, -15.32, -381.87)" filter="url(#長方形_3534-5)">
        <rect id="長方形_3534-10" data-name="長方形 3534" width="140" height="73.125" transform="translate(168.74 381.87)" fill="#f5f5f5"/>
      </g>
      <path id="パス_9638" data-name="パス 9638" d="M-19.308-4.572h-4.428q.252-.468.468-.936A.242.242,0,0,0-23-5.628l-.036-.012h3.84V-9.768h-5.9V-5.64h1.056A8.737,8.737,0,0,1-26.5-2.4a4.449,4.449,0,0,1,.54.516,7.819,7.819,0,0,0,1.02-.984v1.692c0,.792.24,1,1.2,1H-21.9c.732,0,.96-.264,1.044-1.308a2.172,2.172,0,0,1-.66-.264c-.036.792-.1.9-.456.9h-1.692c-.48,0-.552-.048-.552-.324v-.576a16.8,16.8,0,0,0,2.7-.912.45.45,0,0,0,.12.012.136.136,0,0,0,.1-.036l-.6-.552a13.5,13.5,0,0,1-2.316.912v-.9c.144-.024.2-.072.216-.156l-.492-.036c.108-.144.216-.3.324-.456h4.644C-19.7-1.152-19.92-.084-20.2.2a.515.515,0,0,1-.444.144c-.228,0-.816,0-1.44-.06a1.626,1.626,0,0,1,.216.7c.384.024.78.036,1.092.036.7,0,.972-.048,1.236-.36.384-.408.588-1.6.792-4.944a.9.9,0,0,0,.036-.24L-19.14-4.6Zm-.672-4.572v1.128h-4.368V-9.144Zm0,1.728v1.152h-4.368V-7.416Zm-7.056.552h1.464V-7.62h-1.464V-9.9c.168-.024.228-.072.24-.168l-1.008-.06V-7.62h-1.7v.756h1.7v2.7c-.7.192-1.32.36-1.824.48l.3.936a.22.22,0,0,0,.156-.192l1.368-.42V.012c0,.24,0,.252-.84.252-.216,0-.456,0-.72-.012a2.568,2.568,0,0,1,.252.78c1.608,0,2.076-.06,2.076-1.008V-3.612c.516-.156,1.056-.336,1.584-.5l-.1-.684c-.492.144-1,.288-1.488.42Zm20.508.144v-.7H-10.02c-.036-.8-.048-1.62-.048-2.46.168-.024.24-.084.24-.18-.12-.012-.252-.024-1.056-.06,0,.912.036,1.824.084,2.7h-3.036V-8.46h2.244v-.672h-2.244v-.78c.168-.024.228-.084.24-.168l-1.02-.06v1.008h-2.256v.672h2.256v1.044h-2.8v.7h6.648A23.825,23.825,0,0,0-10-1.812,10.516,10.516,0,0,1-11.3-.4V-.864h-2.58v-.708h2.208V-4.548h-2.2v-.7h2.52v-.624h-2.52v-.576c.156-.024.228-.084.24-.156l-.984-.072v.8h-2.46v.624h2.46v.7H-16.74v2.976h2.124v.708h-2.652v.648h2.652V1.032h.732V-.216h2.364A9.044,9.044,0,0,1-12.4.42a2.775,2.775,0,0,1,.588.6A9.536,9.536,0,0,0-9.7-.924C-9.2.288-8.544,1.02-7.668,1.02c.852,0,1.14-.576,1.284-2.484a1.823,1.823,0,0,1-.648-.42C-7.1-.384-7.248.228-7.608.228c-.612,0-1.116-.72-1.512-1.884A14.687,14.687,0,0,0-7.152-5.64.246.246,0,0,0-6.9-5.772l-.936-.264A14.479,14.479,0,0,1-9.4-2.652,25.489,25.489,0,0,1-9.972-6.72Zm-8.04,2.676v.732h-1.548v-.732Zm.648.732v-.732h1.6v.732Zm-.648.492v.744h-1.548V-2.82Zm.648.744V-2.82h1.6v.744Zm4.728-7.476a9.192,9.192,0,0,1,1.7,1.728l.6-.468A9.2,9.2,0,0,0-8.616-9.948Zm9.036,1.4A3.4,3.4,0,0,1,.2-8.172c2.808,0,4.08,1.8,4.08,3.78C4.284-2.124,2.868-.78.108-.252a4.732,4.732,0,0,1,.5.732c2.9-.672,4.56-2.052,4.56-4.908,0-2.34-1.5-4.536-4.968-4.536A5.265,5.265,0,0,0-5.2-3.672c0,1.9.912,2.9,1.92,2.9C-1.284-.768-.036-4.02.4-7.752a.31.31,0,0,0,.3-.192Zm-3.1,6.54c-.576,0-1.128-.8-1.128-2.088A4.417,4.417,0,0,1-.456-8.1C-.756-4.812-1.8-1.608-3.252-1.608Zm19.32-7.308H13.416c.156-.324.3-.636.42-.924.144-.012.216-.072.24-.156l-.984-.144a10.086,10.086,0,0,1-2.52,3.864,2.059,2.059,0,0,1,.576.492A9.6,9.6,0,0,0,12.456-7.3a9.169,9.169,0,0,0,1.26,1.776,10.238,10.238,0,0,1-2.532,1.74A10.505,10.505,0,0,0,9.852-6.252l-.6.264A11.5,11.5,0,0,1,9.96-4.8l-2.076.036A34.522,34.522,0,0,0,10.3-8.256a.3.3,0,0,0,.264-.108l-.84-.4A24.291,24.291,0,0,1,8.376-6.48a8.511,8.511,0,0,0-.72-.852,18.825,18.825,0,0,0,1.3-2.328q.2,0,.252-.108l-.852-.36a18.2,18.2,0,0,1-1.14,2.34c-.132-.132-.264-.252-.384-.36l-.42.516A11.631,11.631,0,0,1,7.956-5.856c-.288.408-.564.78-.828,1.1h-.84l.216.9c.084-.024.156-.06.168-.156.48-.012,1.08-.036,1.752-.072v5.1h.72V-4.116c.36-.024.744-.036,1.116-.06a5.088,5.088,0,0,1,.276.72l.048-.024a2.9,2.9,0,0,1,.492.612A11.025,11.025,0,0,0,14.232-4.98,9.277,9.277,0,0,0,17.22-3a4.715,4.715,0,0,1,.528-.66A8.779,8.779,0,0,1,14.736-5.5,9.531,9.531,0,0,0,16.6-8.532a.233.233,0,0,0,.156-.12l-.552-.3Zm-.432.72a8.511,8.511,0,0,1-1.428,2.172,9.021,9.021,0,0,1-1.332-1.92L13.02-8.2Zm.1,5.9a12.522,12.522,0,0,0-2.448-1.356l-.492.5a12.3,12.3,0,0,1,2.424,1.416Zm-4.62,1.4a11.191,11.191,0,0,0-.828-2.364l-.624.2A10.69,10.69,0,0,1,10.452-.66ZM7.068-3.216A10.358,10.358,0,0,1,6.312-.3c.168.084.432.2.6.312a11.094,11.094,0,0,0,.8-2.88.24.24,0,0,0,.24-.12ZM16.68.432A25.355,25.355,0,0,0,11.952-1.44l-.492.576A22.057,22.057,0,0,1,16.2,1.08Zm6.78-3.12V-7.752h.912v-.732H23.46V-9.768c.156-.012.216-.072.228-.156l-.984-.06v1.5h-2.34V-9.768c.156-.024.216-.072.228-.156l-.972-.06v1.5H18.576v.732H19.62v5.064H18.408v.732h6.036v-.732Zm-.756-3.2V-4.68h-2.34V-5.892Zm0-.672h-2.34V-7.752H22.7Zm0,2.544v1.332h-2.34V-4.02Zm2.3-5.5V-5.1A10.37,10.37,0,0,1,23.976.12,11.175,11.175,0,0,0,22.7-1.68l-.636.348A9.875,9.875,0,0,1,23.316.528c.12-.072.636-.384.66-.384a4.663,4.663,0,0,1-.336.468,2.223,2.223,0,0,1,.624.48A8.223,8.223,0,0,0,25.68-3.132h2.736V0c0,.264-.072.264-.684.264-.276,0-.648-.012-1.032-.024a2.948,2.948,0,0,1,.252.78C28.752,1.044,29.2.972,29.2,0V-9.516Zm3.408,2.808H25.764V-8.772h2.652Zm-2.652.732h2.652v2.112H25.728c.024-.432.036-.852.036-1.236ZM20.136-1.668A6.452,6.452,0,0,1,18.48.552a4.636,4.636,0,0,1,.6.456,8.331,8.331,0,0,0,1.74-2.256q.2,0,.252-.108Z" transform="translate(70 41.563)" fill="#333"/>
      <path id="パス_9639" data-name="パス 9639" d="M-16.688-7.408H-31.3v1.232h1.424v5.152c-.544.048-1.04.08-1.472.112l.464,1.5a.271.271,0,0,0,.24-.224C-29.456.208-27.7-.016-25.9-.24V1.408h1.456V-6.176h7.76ZM-28.48-3.3v-.912H-25.9V-3.3Zm0-2v-.88H-25.9v.88ZM-25.9-2.208v.8c-.88.1-1.76.176-2.576.256V-2.208Zm-3.3-10.736v4.736h10.416v-4.736Zm1.456,1.872v-.848h7.44v.848Zm0,1.84V-10.1h7.44v.864Zm9.2,3.9h-5.5v1.184H-22.5l-.864.24a9.25,9.25,0,0,0,1.728,2.736A8.634,8.634,0,0,1-24.272.256a5.365,5.365,0,0,1,.832,1.168A10.568,10.568,0,0,0-20.608-.192a9.535,9.535,0,0,0,3.168,1.6A4.684,4.684,0,0,1-16.528.224,9.263,9.263,0,0,1-19.6-1.136,9.324,9.324,0,0,0-17.5-4.8a.684.684,0,0,0,.144-.208l-.944-.368Zm-.72,1.184a7.775,7.775,0,0,1-1.408,2.1,7.367,7.367,0,0,1-1.424-2.1Zm16.576-7.888H-5.7c.176-.352.32-.7.464-1.04a.364.364,0,0,0,.368-.24l-1.76-.256a12.605,12.605,0,0,1-3.3,4.992A4.428,4.428,0,0,1-8.848-7.6,13.057,13.057,0,0,0-7.36-9.264,14.5,14.5,0,0,0-6-7.376,13.13,13.13,0,0,1-9.072-5.344a15.51,15.51,0,0,0-1.536-3.04l-1.1.464c.256.432.512.912.752,1.392l-2.176.048a40.271,40.271,0,0,0,3.04-4.384.5.5,0,0,0,.416-.144l-1.488-.688c-.432.848-1.008,1.856-1.632,2.832a8.58,8.58,0,0,0-.736-.88,23.952,23.952,0,0,0,1.68-3.04.432.432,0,0,0,.384-.144l-1.536-.64a22.909,22.909,0,0,1-1.344,2.976c-.144-.144-.288-.272-.432-.4l-.752,1.008a14.165,14.165,0,0,1,1.952,2.272c-.3.448-.624.88-.928,1.248l-1.12.016.32,1.568A.3.3,0,0,0-15.04-5.1c.576-.016,1.3-.064,2.1-.1V1.424H-11.6v-6.7l1.152-.08a6.962,6.962,0,0,1,.288.88l.448-.208a5.216,5.216,0,0,1,.672.944A14.138,14.138,0,0,0-5.024-6.368,12.314,12.314,0,0,0-1.216-3.92,6.51,6.51,0,0,1-.24-5.136,11.325,11.325,0,0,1-4.064-7.36a13.1,13.1,0,0,0,2.4-3.984.42.42,0,0,0,.24-.192l-1.024-.544Zm-.768,1.312a10.193,10.193,0,0,1-1.616,2.4,10.984,10.984,0,0,1-1.5-2.1l.176-.3Zm.56,7.552A17.51,17.51,0,0,0-6.144-4.944l-.88.96A15.348,15.348,0,0,1-3.792-2.112Zm-8.336-.752A17.1,17.1,0,0,1-10.24-.736c.544-.192.88-.3,1.216-.432A17.233,17.233,0,0,0-10.1-4.288Zm-3.52-.3A13.979,13.979,0,0,1-15.664-.4a7.611,7.611,0,0,1,1.088.528A13.726,13.726,0,0,0-13.568-3.7c.16.016.3-.016.336-.176ZM-1.68.352a32.434,32.434,0,0,0-6.16-2.48l-.9,1.072a27.742,27.742,0,0,1,6.16,2.608ZM15.28-3.664H8.72V-4.48a.548.548,0,0,0,.288-.1H14.8V-5.76H9.04v-.912H13.5v-1.04H9.04v-.9h4.432V-9.632H9.04v-.88h5.088v-1.216H9.1c.272-.448.528-.912.72-1.3.24-.016.352-.064.4-.192l-1.872-.352a15.051,15.051,0,0,1-.832,1.84h-2.7c.288-.464.544-.912.784-1.328a.341.341,0,0,0,.368-.224L4.16-13.6A14.2,14.2,0,0,1,.288-8.736,4.656,4.656,0,0,1,1.312-7.664a15.025,15.025,0,0,0,1.36-1.3v4.384H7.216v.912H.752v1.232h5.3A17.814,17.814,0,0,1,.368.016,6.668,6.668,0,0,1,1.36,1.264,19.059,19.059,0,0,0,7.216-1.76V1.408h1.5V-1.808a18.82,18.82,0,0,0,5.936,2.976A6.305,6.305,0,0,1,15.6-.064,18.029,18.029,0,0,1,9.952-2.432H15.28ZM4.1-7.712v-.9H7.584v.9Zm0-1.92v-.88H7.584v.88Zm3.488,2.96v.912H4.1v-.912Zm19.68-2.816H22.976c.16-.192.32-.4.464-.592.224,0,.352-.08.384-.224l-1.584-.288h6.992v1.84h1.552v-3.216H24.736V-13.2c.256-.048.352-.128.368-.272l-1.92-.112v1.616H17.248v3.216h1.488v-1.84h3.216a10.1,10.1,0,0,1-4.576,3.456,4.482,4.482,0,0,1,1.008,1.12,15.631,15.631,0,0,0,2.3-1.36,11.466,11.466,0,0,0,1.888,1.6,23.5,23.5,0,0,1-6.128,1.888,5.809,5.809,0,0,1,.736,1.344c.768-.16,1.552-.352,2.32-.576V1.408h1.488V.88h6.064v.5h1.552v-4.64c.64.144,1.28.272,1.952.368a7.47,7.47,0,0,1,.976-1.456A22.756,22.756,0,0,1,25.472-5.84a10.857,10.857,0,0,0,2.944-2.912.668.668,0,0,0,.24-.176L27.52-9.552ZM20.992-2.336h6.064V-.384H20.992Zm5.2-5.984A9.707,9.707,0,0,1,24-6.56a9.428,9.428,0,0,1-2.24-1.68l.1-.08Zm-5.2,4.72a20.973,20.973,0,0,0,2.992-1.328A18.918,18.918,0,0,0,27.328-3.6Z" transform="translate(223.413 34.563)" fill="#fb297a"/>
      <path id="パス_9640" data-name="パス 9640" d="M-30.78-7.164h-2.364v-2.3c.216-.036.312-.132.324-.252L-34.344-9.8v2.64h-3.48V-9.276c.216-.036.324-.156.336-.276l-1.524-.1v2.484H-41.22v1.152h2.208v2.844h1.188V-6.012h3.48v.684A5.145,5.145,0,0,1-37.824-.12a6.516,6.516,0,0,1,.876.84,6.078,6.078,0,0,0,3.8-6.072v-.66h2.364ZM-21.108-9.1a1.316,1.316,0,0,0,1.32,1.32,1.316,1.316,0,0,0,1.32-1.32,1.326,1.326,0,0,0-1.32-1.332A1.326,1.326,0,0,0-21.108-9.1Zm1.32.9a.907.907,0,0,1-.9-.9.9.9,0,0,1,.9-.9.9.9,0,0,1,.9.9A.906.906,0,0,1-19.788-8.2Zm.3,2.04V-7.3H-23.4V-9.384a.318.318,0,0,0,.324-.264l-1.536-.072V-7.3h-3.924v1.14h3.924V-.888c0,.456-.252.456-.984.456-.348,0-.792-.012-1.152-.024a6.058,6.058,0,0,1,.336,1.1C-24.624.672-23.4.684-23.4-.912V-6.156ZM-22.224-4.38A20.469,20.469,0,0,1-19.908-.864l1.08-.624a22.647,22.647,0,0,0-2.424-3.4Zm-4.86-.408A8.2,8.2,0,0,1-29.16-1.5l1,.624a10.178,10.178,0,0,0,2.172-3.5Zm10.092.852a.5.5,0,0,0,.384-.216h9.54v-1.2h-10.02Zm21.036-.48A42.065,42.065,0,0,0-.36-6.36l-.24.336V-9.456c.228-.048.336-.144.348-.276l-1.608-.1V.672H-.6V-5.136A35.625,35.625,0,0,1,3.372-3.252Zm4.92-5.316c-.1,1.464-.192,5.064-.192,6.624,0,2.316,1.068,3.684,3.5,3.684A6.541,6.541,0,0,0,17.088-1.74a7.564,7.564,0,0,1-.708-1.044A5.718,5.718,0,0,1,12.288-.66c-1.392,0-2.22-.78-2.22-2.448,0-1.764.12-4.74.216-6.252.24-.024.348-.12.372-.264Zm10.416,2.4c.744.024,1.9.036,2.688.036.456,0,.972-.012,1.416-.024.024.636.036,1.3.06,1.956-.336.012-.7.012-1,.012-.96-.012-1.428-.06-1.428-.348,0-.132.072-.348.78-.7l-.816-.468c-.816.516-1.176.936-1.176,1.4,0,.84.828,1.092,2.928,1.092.24,0,.492,0,.744-.012.024.54.036,1.044.048,1.476A4.923,4.923,0,0,0,22.536-3c-1.392,0-2.688.672-2.688,1.86,0,1.128,1.092,1.848,2.664,1.848s2.316-.672,2.328-1.74v-.456A11.362,11.362,0,0,1,27.456.18l.72-1.032A12.345,12.345,0,0,0,24.792-2.64c-.024-.456-.048-1.08-.072-1.776A21,21,0,0,0,28.008-4.8l-.12-1.056a20.567,20.567,0,0,1-3.192.432L24.66-7.356a25.922,25.922,0,0,0,3.936-.4l-.132-1.1a25.08,25.08,0,0,1-3.792.432c-.012-.372-.012-.864-.012-1.2.2-.036.3-.108.312-.24l-1.548-.084c0,.4.012,1.02.024,1.572-.432.012-.924.024-1.38.024-.876,0-1.944,0-2.688-.048Zm4.3,6c0,.708-.324,1.068-1.152,1.068-.912,0-1.608-.3-1.608-.9s.732-.924,1.548-.924a4.5,4.5,0,0,1,1.212.18Zm7.164-5.7c1.32-.072,3.288-.12,5.268-.18.012.42.024.9.036,1.128,0,.036.012.084.012.132a1.7,1.7,0,0,0-.948-.264,2.271,2.271,0,0,0-2.244,2.28A2.1,2.1,0,0,0,35.04-1.788a1.212,1.212,0,0,0,.936-.42h.012A4.509,4.509,0,0,1,33.1.072a8.02,8.02,0,0,1,.876.936c1.92-.732,3.612-2.172,3.612-4.632a4.44,4.44,0,0,0-.168-1.32c-.012-.384-.024-.7-.048-1.116-.012-.3-.012-.732-.024-1.176,1.476-.048,2.9-.06,3.828-.048V-8.412c-.768.012-2.328.048-3.852.1-.012-.528-.024-1.1-.024-1.416.216-.036.324-.156.336-.264L36-10.068c.024.324.072,1.608.072,1.776-.828.036-4.512.132-5.268.156Zm4.356,4.3a1.154,1.154,0,0,1-1.14-1.2,1.225,1.225,0,0,1,1.224-1.32c.7,0,1.056.432,1.056,1.3A1.137,1.137,0,0,1,35.2-2.736Z" transform="translate(223.413 50.563)" fill="#333"/>
    </g>
    <g id="長方形_4156" data-name="長方形 4156" transform="translate(36 5639.5)" fill="none" stroke="#8abcd7" stroke-width="5">
      <rect width="305.062" height="171" stroke="none"/>
      <rect x="2.5" y="2.5" width="300.062" height="166" fill="none"/>
    </g>
    <rect id="長方形_4157" data-name="長方形 4157" width="25.062" height="84" transform="translate(25.469 5684.043)" fill="#f5f5f5"/>
    <g data-type="innerShadowGroup">
      <path id="パス_9625-2" data-name="パス 9625" d="M-8.136-8.982v1.548h2.5V-4.68H-7.866v1.548H7.9V-4.68H5.688V-7.434H8.172V-8.982H5.688v-2.754h1.8v-1.512H-3.8q.378-.594.7-1.188a.373.373,0,0,0,.432-.162l-1.926-.666a13.011,13.011,0,0,1-3.8,4.626,9.487,9.487,0,0,1,1.3,1.062,12.582,12.582,0,0,0,1.458-1.35v1.944Zm8.964,0H-.954v-2.754H.828Zm0,4.3H-.954V-7.434H.828Zm-3.222-7.056v2.754H-4.1v-2.754Zm0,4.3V-4.68H-4.1V-7.434Zm4.68-1.548v-2.754H4.1v2.754Zm0,4.3V-7.434H4.1V-4.68ZM8.442,1.008A22.135,22.135,0,0,0,6.03-2.61l-1.62.522a22.072,22.072,0,0,1,2.3,3.708ZM-6.138-2.538A8.067,8.067,0,0,1-8.3.936l1.62.684a9.6,9.6,0,0,0,2.2-3.744ZM3.474,1.1A17.775,17.775,0,0,0,2.358-2.25l-1.6.27A18.368,18.368,0,0,1,1.782,1.44ZM-.882,1.17a20.564,20.564,0,0,0-.45-3.33L-2.916-2a20.685,20.685,0,0,1,.36,3.42ZM-3.528,12.584h2.9v-1.6h-2.9V5.15c.27-.054.4-.144.414-.288l-2.052-.126v6.246H-8.244v1.6H-5.49a17.521,17.521,0,0,1-3.06,5.058A9.9,9.9,0,0,1-7.7,19.334a16.4,16.4,0,0,0,2.538-4.266v6.516h1.638v-6.66a28.024,28.024,0,0,1,1.872,2.3l.99-1.386c-.4-.432-2.25-2.16-2.862-2.664Zm3.312-.972a14.786,14.786,0,0,1,2.808,2.826A10.1,10.1,0,0,1,3.87,13.412a14.6,14.6,0,0,0-2.9-2.7ZM-8.208,6.284a17.058,17.058,0,0,1,1.062,3.978l1.4-.4A15.348,15.348,0,0,0-6.894,5.942ZM8.208,14.87l-2.088.378V5.222c.288-.054.414-.162.432-.306L4.446,4.79V15.554L-.7,16.49l.288,1.62,4.86-.9v4.374H6.12V16.9l2.376-.45Zm-10.116-9a26.07,26.07,0,0,1-1.35,4.05c.324.108.846.324,1.17.45A24.588,24.588,0,0,0-.5,6.626c.234,0,.378-.072.432-.2ZM.27,6.9A13.079,13.079,0,0,1,2.736,9.65l1.3-.972A13.248,13.248,0,0,0,1.494,6.05ZM-.54,41.458H1.1v-1.1h5v1.008h1.71V25.762H-.54ZM6.1,31.648v2.79h-5v-2.79Zm0-1.566h-5v-2.7h5ZM1.1,36h5v2.808h-5ZM-1.278,30.19V28.57H-3.744V25.15c.288-.054.4-.144.414-.306l-2.052-.108V28.57H-8.19v1.62H-5.6a18.7,18.7,0,0,1-3.024,6.552,9.333,9.333,0,0,1,.846,1.566,17.58,17.58,0,0,0,2.394-4.842v8.118h1.638V33.538a27.321,27.321,0,0,1,1.638,2.5L-1.1,34.654c-.378-.486-2-2.412-2.646-3.078V30.19ZM-.072,49.506a5.867,5.867,0,0,0,1.494-3.33l-1.4-.288a5.461,5.461,0,0,1-1.4,3.006Zm-8.37-1.746v1.368H-1.62V47.76Zm.828,7.434v6.174h1.458v-.774H-2.2v-5.4Zm3.942,4.014H-6.156V56.562h2.484ZM2.7,44.736c-.162,3.762-.576,5.9-4.356,7.074a4.858,4.858,0,0,1,.972,1.332,6.509,6.509,0,0,0,3.96-3.006A33.064,33.064,0,0,1,7.254,53L8.37,51.7A36.006,36.006,0,0,0,3.834,48.7a17.683,17.683,0,0,0,.5-3.51c.252-.036.4-.144.414-.288Zm-10.224.612V46.68h5.256V45.348Zm13.986.45A17.294,17.294,0,0,1,5,48.75s1.224.54,1.242.558a23.677,23.677,0,0,0,1.62-2.646A.456.456,0,0,0,8.3,46.5ZM-7.6,50.262v1.332h5.382V50.262ZM2.556,52.314v2.718c0,1.116-.756,3.816-4.68,5.2a7.735,7.735,0,0,1,.972,1.386,7.423,7.423,0,0,0,4.59-4.338A7.04,7.04,0,0,0,7.56,61.62a15.089,15.089,0,0,1,1.008-1.458C4.986,58.812,4.3,56.13,4.3,55.032V52.746c.27-.054.432-.18.45-.342Zm-4.77,1.728V52.71H-7.6v1.332Zm8.838-.432A20.773,20.773,0,0,1,5,56.76l1.278.576A20.022,20.022,0,0,0,8.046,54.51c.234,0,.378-.054.45-.18Zm-6.8.126a5.553,5.553,0,0,1-1.656,3.2L-.45,57.7a6.486,6.486,0,0,0,1.764-3.654Z" transform="translate(39 5702.043)" fill="#8abcd7"/>
      <g transform="matrix(1, 0, 0, 1, 25.47, 5596.3)" filter="url(#パス_9625)">
        <path id="パス_9625-3" data-name="パス 9625" d="M-8.136-8.982v1.548h2.5V-4.68H-7.866v1.548H7.9V-4.68H5.688V-7.434H8.172V-8.982H5.688v-2.754h1.8v-1.512H-3.8q.378-.594.7-1.188a.373.373,0,0,0,.432-.162l-1.926-.666a13.011,13.011,0,0,1-3.8,4.626,9.487,9.487,0,0,1,1.3,1.062,12.582,12.582,0,0,0,1.458-1.35v1.944Zm8.964,0H-.954v-2.754H.828Zm0,4.3H-.954V-7.434H.828Zm-3.222-7.056v2.754H-4.1v-2.754Zm0,4.3V-4.68H-4.1V-7.434Zm4.68-1.548v-2.754H4.1v2.754Zm0,4.3V-7.434H4.1V-4.68ZM8.442,1.008A22.135,22.135,0,0,0,6.03-2.61l-1.62.522a22.072,22.072,0,0,1,2.3,3.708ZM-6.138-2.538A8.067,8.067,0,0,1-8.3.936l1.62.684a9.6,9.6,0,0,0,2.2-3.744ZM3.474,1.1A17.775,17.775,0,0,0,2.358-2.25l-1.6.27A18.368,18.368,0,0,1,1.782,1.44ZM-.882,1.17a20.564,20.564,0,0,0-.45-3.33L-2.916-2a20.685,20.685,0,0,1,.36,3.42ZM-3.528,12.584h2.9v-1.6h-2.9V5.15c.27-.054.4-.144.414-.288l-2.052-.126v6.246H-8.244v1.6H-5.49a17.521,17.521,0,0,1-3.06,5.058A9.9,9.9,0,0,1-7.7,19.334a16.4,16.4,0,0,0,2.538-4.266v6.516h1.638v-6.66a28.024,28.024,0,0,1,1.872,2.3l.99-1.386c-.4-.432-2.25-2.16-2.862-2.664Zm3.312-.972a14.786,14.786,0,0,1,2.808,2.826A10.1,10.1,0,0,1,3.87,13.412a14.6,14.6,0,0,0-2.9-2.7ZM-8.208,6.284a17.058,17.058,0,0,1,1.062,3.978l1.4-.4A15.348,15.348,0,0,0-6.894,5.942ZM8.208,14.87l-2.088.378V5.222c.288-.054.414-.162.432-.306L4.446,4.79V15.554L-.7,16.49l.288,1.62,4.86-.9v4.374H6.12V16.9l2.376-.45Zm-10.116-9a26.07,26.07,0,0,1-1.35,4.05c.324.108.846.324,1.17.45A24.588,24.588,0,0,0-.5,6.626c.234,0,.378-.072.432-.2ZM.27,6.9A13.079,13.079,0,0,1,2.736,9.65l1.3-.972A13.248,13.248,0,0,0,1.494,6.05ZM-.54,41.458H1.1v-1.1h5v1.008h1.71V25.762H-.54ZM6.1,31.648v2.79h-5v-2.79Zm0-1.566h-5v-2.7h5ZM1.1,36h5v2.808h-5ZM-1.278,30.19V28.57H-3.744V25.15c.288-.054.4-.144.414-.306l-2.052-.108V28.57H-8.19v1.62H-5.6a18.7,18.7,0,0,1-3.024,6.552,9.333,9.333,0,0,1,.846,1.566,17.58,17.58,0,0,0,2.394-4.842v8.118h1.638V33.538a27.321,27.321,0,0,1,1.638,2.5L-1.1,34.654c-.378-.486-2-2.412-2.646-3.078V30.19ZM-.072,49.506a5.867,5.867,0,0,0,1.494-3.33l-1.4-.288a5.461,5.461,0,0,1-1.4,3.006Zm-8.37-1.746v1.368H-1.62V47.76Zm.828,7.434v6.174h1.458v-.774H-2.2v-5.4Zm3.942,4.014H-6.156V56.562h2.484ZM2.7,44.736c-.162,3.762-.576,5.9-4.356,7.074a4.858,4.858,0,0,1,.972,1.332,6.509,6.509,0,0,0,3.96-3.006A33.064,33.064,0,0,1,7.254,53L8.37,51.7A36.006,36.006,0,0,0,3.834,48.7a17.683,17.683,0,0,0,.5-3.51c.252-.036.4-.144.414-.288Zm-10.224.612V46.68h5.256V45.348Zm13.986.45A17.294,17.294,0,0,1,5,48.75s1.224.54,1.242.558a23.677,23.677,0,0,0,1.62-2.646A.456.456,0,0,0,8.3,46.5ZM-7.6,50.262v1.332h5.382V50.262ZM2.556,52.314v2.718c0,1.116-.756,3.816-4.68,5.2a7.735,7.735,0,0,1,.972,1.386,7.423,7.423,0,0,0,4.59-4.338A7.04,7.04,0,0,0,7.56,61.62a15.089,15.089,0,0,1,1.008-1.458C4.986,58.812,4.3,56.13,4.3,55.032V52.746c.27-.054.432-.18.45-.342Zm-4.77,1.728V52.71H-7.6v1.332Zm8.838-.432A20.773,20.773,0,0,1,5,56.76l1.278.576A20.022,20.022,0,0,0,8.046,54.51c.234,0,.378-.054.45-.18Zm-6.8.126a5.553,5.553,0,0,1-1.656,3.2L-.45,57.7a6.486,6.486,0,0,0,1.764-3.654Z" transform="translate(13.53 105.75)" fill="#fff"/>
      </g>
    </g>
    <path id="多角形_10" data-name="多角形 10" d="M52,0l52,43.3H0Z" transform="translate(239.5 6116.578) rotate(180)" fill="#fff"/>
    <g id="グループ_2549" data-name="グループ 2549" transform="translate(122.737 6065.904)">
      <g id="グループ_2427" data-name="グループ 2427" transform="translate(0 0)">
        <g id="グループ_2426" data-name="グループ 2426" transform="translate(20.147 5.001) rotate(11)">
          <path id="パス_7039" data-name="パス 7039" d="M51.411-.405,55.966,8.41l8.778-4.4L66.436,13.9l9.611-1.381-1.336,10,9.5,1.771-4.234,9.133,8.464,4.751-6.718,7.37,6.6,7.265L79.779,57.7l4.084,9.068L74.33,68.69,75.5,78.673l-9.589-1.23-1.855,9.921L55.35,83.1l-4.7,8.888-6.972-6.874L36.591,92.1l-4.555-8.815-8.778,4.4-1.692-9.893-9.611,1.381,1.336-10L3.789,67.4l4.234-9.133L-.441,53.516l6.718-7.37-6.6-7.265L8.223,34,4.139,24.929l9.533-1.921L12.5,13.025l9.589,1.23,1.855-9.921,8.707,4.261,4.7-8.888L44.324,6.58Z" transform="matrix(0.985, 0.174, -0.174, 0.985, 16.794, 0)" fill="#fb297a"/>
          <path id="パス_9641" data-name="パス 9641" d="M8.476-2.743A2.691,2.691,0,0,0,6.1-5.317l-2.47-.546c-1.014-.221-1.339-.65-1.339-1.2,0-1.235,1.768-1.261,2.08-1.261.481,0,2,.078,2.067,1.508H8.19a2.966,2.966,0,0,0-.936-2.054A4.25,4.25,0,0,0,4.394-9.8C2.535-9.8.572-9.009.572-6.968A2.792,2.792,0,0,0,3.12-4.2l2.288.507c.858.2,1.274.455,1.274,1.144,0,1.339-1.885,1.391-2.327,1.391-.7,0-2.093-.169-2.171-1.69H.429C.572-.13,2.886.312,4.511.312,7.02.312,8.476-1,8.476-2.743ZM15.574,0V-6.994H13.858v4.056a1.553,1.553,0,0,1-1.482,1.716A1.15,1.15,0,0,1,11.18-2.5v-4.5H9.464v4.5c0,1.612.663,2.665,2.288,2.665a2.127,2.127,0,0,0,2.184-1.443l-.078.728V0Zm7.475-2.6H21.294A1.466,1.466,0,0,1,19.8-1.222c-1.313,0-1.638-1.378-1.638-2.288,0-1.521.91-2.288,1.807-2.288A1.332,1.332,0,0,1,21.32-4.5h1.716a2.51,2.51,0,0,0-.78-1.794,3.117,3.117,0,0,0-2.275-.871,3.431,3.431,0,0,0-3.536,3.744c0,1.846.949,3.588,3.315,3.588A3.185,3.185,0,0,0,23.049-2.6Zm7.228,0H28.522a1.466,1.466,0,0,1-1.495,1.378c-1.313,0-1.638-1.378-1.638-2.288,0-1.521.91-2.288,1.807-2.288a1.332,1.332,0,0,1,1.352,1.3h1.716a2.51,2.51,0,0,0-.78-1.794,3.117,3.117,0,0,0-2.275-.871,3.431,3.431,0,0,0-3.536,3.744c0,1.846.949,3.588,3.315,3.588A3.185,3.185,0,0,0,30.277-2.6Zm7.2-.39a5.209,5.209,0,0,0-.7-2.847A2.984,2.984,0,0,0,34.2-7.163c-1.729,0-3.276,1.183-3.276,3.679,0,2.392,1.43,3.653,3.328,3.653a3.056,3.056,0,0,0,3.094-2.236H35.62a1.277,1.277,0,0,1-1.274.845c-1.378,0-1.638-1.417-1.7-1.768ZM35.62-4.108H32.643c.078-.442.3-1.651,1.573-1.651C35.074-5.759,35.581-5.2,35.62-4.108ZM43.927-2a1.8,1.8,0,0,0-.78-1.495,8.689,8.689,0,0,0-2.21-.975c-.546-.208-.871-.325-.871-.676,0-.26.273-.65.962-.65a.9.9,0,0,1,1,.949h1.716a2.181,2.181,0,0,0-.637-1.586,2.871,2.871,0,0,0-2.041-.728c-1.6,0-2.717.949-2.717,2.119,0,1.274.962,1.612,2.392,2.132,1.1.39,1.456.546,1.456,1.027,0,.689-.858.689-1,.689a1.139,1.139,0,0,1-1.261-1.092H38.22A2.207,2.207,0,0,0,38.857-.65a3.24,3.24,0,0,0,2.262.819C42.64.169,43.927-.637,43.927-2Zm6.5,0a1.8,1.8,0,0,0-.78-1.495,8.689,8.689,0,0,0-2.21-.975c-.546-.208-.871-.325-.871-.676,0-.26.273-.65.962-.65a.9.9,0,0,1,1,.949h1.716a2.181,2.181,0,0,0-.637-1.586,2.871,2.871,0,0,0-2.041-.728c-1.6,0-2.717.949-2.717,2.119,0,1.274.962,1.612,2.392,2.132,1.1.39,1.456.546,1.456,1.027,0,.689-.858.689-1,.689a1.139,1.139,0,0,1-1.261-1.092H44.72A2.207,2.207,0,0,0,45.357-.65a3.24,3.24,0,0,0,2.262.819C49.14.169,50.427-.637,50.427-2Zm2.951-4.849V-9.49H51.623v2.639l.455,4.29h.858Zm0,6.851V-1.755H51.623V0Z" transform="translate(25.005 57.517)" fill="#fff"/>
        </g>
      </g>
    </g>
  </g>
</svg>
