<svg xmlns="http://www.w3.org/2000/svg" xmlns:xlink="http://www.w3.org/1999/xlink" width="110.5" height="121.75" viewBox="0 0 110.5 121.75">
  <defs>
    <clipPath id="clip-path">
      <circle id="楕円形_292" data-name="楕円形 292" cx="38.523" cy="38.523" r="38.523" transform="translate(0)" fill="none"/>
    </clipPath>
  </defs>
  <g id="selectia_logo" transform="translate(-60.174 -6.54)">
    <text id="SELECTIA" transform="translate(60.924 120.54)" fill="#1d2a56" stroke="#1d2a56" stroke-miterlimit="10" stroke-width="0.75" font-size="23" font-family="FuturaPT-Light, Futura PT" font-weight="300" letter-spacing="0.15em"><tspan x="0" y="0">SELECTIA</tspan></text>
    <g id="グループ_2034" data-name="グループ 2034" transform="translate(61.141 96.353)">
      <path id="パス_789" data-name="パス 789" d="M84.033,217.07l-2.863,2.887L82.977,221Z" transform="translate(-73.162 -213.083)" fill="#1d2a56" stroke="#1d2a56" stroke-miterlimit="10" stroke-width="1"/>
      <g id="グループ_2033" data-name="グループ 2033">
        <path id="パス_787" data-name="パス 787" d="M73.964,211.17l-1.374,5.179h2.748Z" transform="translate(-67.99 -209.526)" fill="#1d2a56" stroke="#1d2a56" stroke-miterlimit="10" stroke-width="1"/>
        <circle id="楕円形_289" data-name="楕円形 289" cx="0.695" cy="0.695" r="0.695" transform="translate(5.268)" fill="#fff" stroke="#1d2a56" stroke-miterlimit="10" stroke-width="1"/>
        <g id="グループ_2032" data-name="グループ 2032" transform="translate(0 2.444)">
          <path id="パス_788" data-name="パス 788" d="M63.7,217.07l2.863,2.887L64.756,221Z" transform="translate(-62.63 -215.526)" fill="#1d2a56" stroke="#1d2a56" stroke-miterlimit="10" stroke-width="1"/>
          <circle id="楕円形_290" data-name="楕円形 290" cx="0.695" cy="0.695" r="0.695" transform="translate(0 0.047) rotate(-1.95)" fill="#fff" stroke="#1d2a56" stroke-miterlimit="10" stroke-width="1"/>
        </g>
      </g>
      <circle id="楕円形_291" data-name="楕円形 291" cx="0.695" cy="0.695" r="0.695" transform="translate(11.039 1.83) rotate(-1.718)" fill="#fff" stroke="#1d2a56" stroke-miterlimit="10" stroke-width="1"/>
    </g>
    <g id="グループ_2031" data-name="グループ 2031" transform="translate(76.9 6.54)" clip-path="url(#clip-path)">
      <rect id="長方形_2762" data-name="長方形 2762" width="3.177" height="7.943" transform="translate(78.56 -2.2)" fill="#1d2a56"/>
      <rect id="長方形_2763" data-name="長方形 2763" width="3.177" height="7.943" transform="translate(83.325 -2.2)" fill="#1d2a56"/>
      <rect id="長方形_2764" data-name="長方形 2764" width="3.177" height="7.943" transform="translate(96.233 -2.2) rotate(90)" fill="#1d2a56"/>
      <rect id="長方形_2765" data-name="長方形 2765" width="3.177" height="7.943" transform="translate(96.233 2.566) rotate(90)" fill="#1d2a56"/>
      <rect id="長方形_2766" data-name="長方形 2766" width="3.177" height="7.943" transform="translate(98 -2.2)" fill="#1d2a56"/>
      <rect id="長方形_2767" data-name="長方形 2767" width="3.177" height="7.943" transform="translate(102.766 -2.2)" fill="#1d2a56"/>
      <rect id="長方形_2768" data-name="長方形 2768" width="3.177" height="7.943" transform="translate(115.673 -2.2) rotate(90)" fill="#1d2a56"/>
      <rect id="長方形_2769" data-name="長方形 2769" width="3.177" height="7.943" transform="translate(115.673 2.566) rotate(90)" fill="#1d2a56"/>
      <rect id="長方形_2770" data-name="長方形 2770" width="3.177" height="7.943" transform="translate(39.75 -2.2)" fill="#1d2a56"/>
      <rect id="長方形_2771" data-name="長方形 2771" width="3.177" height="7.943" transform="translate(44.516 -2.2)" fill="#1d2a56"/>
      <rect id="長方形_2772" data-name="長方形 2772" width="3.177" height="7.943" transform="translate(57.427 -2.2) rotate(90)" fill="#1d2a56"/>
      <rect id="長方形_2773" data-name="長方形 2773" width="3.177" height="7.943" transform="translate(57.427 2.566) rotate(90)" fill="#1d2a56"/>
      <rect id="長方形_2774" data-name="長方形 2774" width="3.177" height="7.943" transform="translate(59.195 -2.2)" fill="#1d2a56"/>
      <rect id="長方形_2775" data-name="長方形 2775" width="3.177" height="7.943" transform="translate(63.96 -2.2)" fill="#1d2a56"/>
      <rect id="長方形_2776" data-name="長方形 2776" width="3.177" height="7.943" transform="translate(76.868 -2.2) rotate(90)" fill="#1d2a56"/>
      <rect id="長方形_2777" data-name="長方形 2777" width="3.177" height="7.943" transform="translate(76.868 2.566) rotate(90)" fill="#1d2a56"/>
      <rect id="長方形_2778" data-name="長方形 2778" width="3.177" height="7.943" transform="translate(0.774 -2.2)" fill="#1d2a56"/>
      <rect id="長方形_2779" data-name="長方形 2779" width="3.177" height="7.943" transform="translate(5.54 -2.2)" fill="#1d2a56"/>
      <rect id="長方形_2780" data-name="長方形 2780" width="3.177" height="7.943" transform="translate(18.451 -2.2) rotate(90)" fill="#1d2a56"/>
      <rect id="長方形_2781" data-name="長方形 2781" width="3.177" height="7.943" transform="translate(18.451 2.566) rotate(90)" fill="#1d2a56"/>
      <rect id="長方形_2782" data-name="長方形 2782" width="3.177" height="7.943" transform="translate(20.215 -2.2)" fill="#1d2a56"/>
      <rect id="長方形_2783" data-name="長方形 2783" width="3.177" height="7.943" transform="translate(24.981 -2.2)" fill="#1d2a56"/>
      <rect id="長方形_2784" data-name="長方形 2784" width="3.177" height="7.943" transform="translate(37.892 -2.2) rotate(90)" fill="#1d2a56"/>
      <rect id="長方形_2785" data-name="長方形 2785" width="3.177" height="7.943" transform="translate(37.892 2.566) rotate(90)" fill="#1d2a56"/>
      <rect id="長方形_2786" data-name="長方形 2786" width="3.177" height="7.943" transform="translate(-38.031 -2.2)" fill="#1d2a56"/>
      <rect id="長方形_2787" data-name="長方形 2787" width="3.177" height="7.943" transform="translate(-33.265 -2.2)" fill="#1d2a56"/>
      <rect id="長方形_2788" data-name="長方形 2788" width="3.177" height="7.943" transform="translate(-20.358 -2.2) rotate(90)" fill="#1d2a56"/>
      <rect id="長方形_2789" data-name="長方形 2789" width="3.177" height="7.943" transform="translate(-20.358 2.566) rotate(90)" fill="#1d2a56"/>
      <rect id="長方形_2790" data-name="長方形 2790" width="3.177" height="7.943" transform="translate(-18.59 -2.2)" fill="#1d2a56"/>
      <rect id="長方形_2791" data-name="長方形 2791" width="3.177" height="7.943" transform="translate(-13.825 -2.2)" fill="#1d2a56"/>
      <rect id="長方形_2792" data-name="長方形 2792" width="3.177" height="7.943" transform="translate(-0.917 -2.2) rotate(90)" fill="#1d2a56"/>
      <rect id="長方形_2793" data-name="長方形 2793" width="3.177" height="7.943" transform="translate(-0.917 2.566) rotate(90)" fill="#1d2a56"/>
      <rect id="長方形_2794" data-name="長方形 2794" width="3.177" height="7.943" transform="translate(68.905 7.069)" fill="#1d2a56"/>
      <rect id="長方形_2795" data-name="長方形 2795" width="3.177" height="7.943" transform="translate(73.671 7.069)" fill="#1d2a56"/>
      <rect id="長方形_2796" data-name="長方形 2796" width="3.177" height="7.943" transform="translate(86.578 7.069) rotate(90)" fill="#1d2a56"/>
      <rect id="長方形_2797" data-name="長方形 2797" width="3.177" height="7.943" transform="translate(86.578 11.835) rotate(90)" fill="#1d2a56"/>
      <rect id="長方形_2798" data-name="長方形 2798" width="3.177" height="7.943" transform="translate(88.345 7.069)" fill="#1d2a56"/>
      <rect id="長方形_2799" data-name="長方形 2799" width="3.177" height="7.943" transform="translate(93.111 7.069)" fill="#1d2a56"/>
      <rect id="長方形_2800" data-name="長方形 2800" width="3.177" height="7.943" transform="translate(106.018 7.069) rotate(90)" fill="#1d2a56"/>
      <rect id="長方形_2801" data-name="長方形 2801" width="3.177" height="7.943" transform="translate(106.018 11.835) rotate(90)" fill="#1d2a56"/>
      <rect id="長方形_2802" data-name="長方形 2802" width="3.177" height="7.943" transform="translate(30.096 7.069)" fill="#1d2a56"/>
      <rect id="長方形_2803" data-name="長方形 2803" width="3.177" height="7.943" transform="translate(34.862 7.069)" fill="#1d2a56"/>
      <rect id="長方形_2804" data-name="長方形 2804" width="3.177" height="7.943" transform="translate(47.773 7.069) rotate(90)" fill="#1d2a56"/>
      <rect id="長方形_2805" data-name="長方形 2805" width="3.177" height="7.943" transform="translate(47.773 11.835) rotate(90)" fill="#1d2a56"/>
      <rect id="長方形_2806" data-name="長方形 2806" width="3.177" height="7.943" transform="translate(49.536 7.069)" fill="#1d2a56"/>
      <rect id="長方形_2807" data-name="長方形 2807" width="3.177" height="7.943" transform="translate(54.302 7.069)" fill="#1d2a56"/>
      <rect id="長方形_2808" data-name="長方形 2808" width="3.177" height="7.943" transform="translate(67.213 7.069) rotate(90)" fill="#1d2a56"/>
      <rect id="長方形_2809" data-name="長方形 2809" width="3.177" height="7.943" transform="translate(67.213 11.835) rotate(90)" fill="#1d2a56"/>
      <rect id="長方形_2810" data-name="長方形 2810" width="3.177" height="7.943" transform="translate(-8.88 7.069)" fill="#1d2a56"/>
      <rect id="長方形_2811" data-name="長方形 2811" width="3.177" height="7.943" transform="translate(-4.114 7.069)" fill="#1d2a56"/>
      <rect id="長方形_2812" data-name="長方形 2812" width="3.177" height="7.943" transform="translate(8.793 7.069) rotate(90)" fill="#1d2a56"/>
      <rect id="長方形_2813" data-name="長方形 2813" width="3.177" height="7.943" transform="translate(8.793 11.835) rotate(90)" fill="#1d2a56"/>
      <rect id="長方形_2814" data-name="長方形 2814" width="3.177" height="7.943" transform="translate(10.56 7.069)" fill="#1d2a56"/>
      <rect id="長方形_2815" data-name="長方形 2815" width="3.177" height="7.943" transform="translate(15.326 7.069)" fill="#1d2a56"/>
      <rect id="長方形_2816" data-name="長方形 2816" width="3.177" height="7.943" transform="translate(28.237 7.069) rotate(90)" fill="#1d2a56"/>
      <rect id="長方形_2817" data-name="長方形 2817" width="3.177" height="7.943" transform="translate(28.237 11.835) rotate(90)" fill="#1d2a56"/>
      <rect id="長方形_2818" data-name="長方形 2818" width="3.177" height="7.943" transform="translate(-47.689 7.069)" fill="#1d2a56"/>
      <rect id="長方形_2819" data-name="長方形 2819" width="3.177" height="7.943" transform="translate(-42.924 7.069)" fill="#1d2a56"/>
      <rect id="長方形_2820" data-name="長方形 2820" width="3.177" height="7.943" transform="translate(-30.012 7.069) rotate(90)" fill="#1d2a56"/>
      <rect id="長方形_2821" data-name="長方形 2821" width="3.177" height="7.943" transform="translate(-30.012 11.835) rotate(90)" fill="#1d2a56"/>
      <rect id="長方形_2822" data-name="長方形 2822" width="3.177" height="7.943" transform="translate(-28.245 7.069)" fill="#1d2a56"/>
      <rect id="長方形_2823" data-name="長方形 2823" width="3.177" height="7.943" transform="translate(-23.479 7.069)" fill="#1d2a56"/>
      <rect id="長方形_2824" data-name="長方形 2824" width="3.177" height="7.943" transform="translate(-10.572 7.069) rotate(90)" fill="#1d2a56"/>
      <rect id="長方形_2825" data-name="長方形 2825" width="3.177" height="7.943" transform="translate(-10.572 11.835) rotate(90)" fill="#1d2a56"/>
      <rect id="長方形_2826" data-name="長方形 2826" width="3.177" height="7.943" transform="translate(78.707 16.069)" fill="#1d2a56"/>
      <rect id="長方形_2827" data-name="長方形 2827" width="3.177" height="7.943" transform="translate(83.472 16.069)" fill="#1d2a56"/>
      <rect id="長方形_2828" data-name="長方形 2828" width="3.177" height="7.943" transform="translate(96.38 16.069) rotate(90)" fill="#1d2a56"/>
      <rect id="長方形_2829" data-name="長方形 2829" width="3.177" height="7.943" transform="translate(96.38 20.834) rotate(90)" fill="#1d2a56"/>
      <rect id="長方形_2830" data-name="長方形 2830" width="3.177" height="7.943" transform="translate(98.147 16.069)" fill="#1d2a56"/>
      <rect id="長方形_2831" data-name="長方形 2831" width="3.177" height="7.943" transform="translate(102.913 16.069)" fill="#1d2a56"/>
      <rect id="長方形_2832" data-name="長方形 2832" width="3.177" height="7.943" transform="translate(115.82 16.069) rotate(90)" fill="#1d2a56"/>
      <rect id="長方形_2833" data-name="長方形 2833" width="3.177" height="7.943" transform="translate(115.82 20.834) rotate(90)" fill="#1d2a56"/>
      <rect id="長方形_2834" data-name="長方形 2834" width="3.177" height="7.943" transform="translate(39.897 16.069)" fill="#1d2a56"/>
      <rect id="長方形_2835" data-name="長方形 2835" width="3.177" height="7.943" transform="translate(44.663 16.069)" fill="#1d2a56"/>
      <rect id="長方形_2836" data-name="長方形 2836" width="3.177" height="7.943" transform="translate(57.574 16.069) rotate(90)" fill="#1d2a56"/>
      <rect id="長方形_2837" data-name="長方形 2837" width="3.177" height="7.943" transform="translate(57.574 20.834) rotate(90)" fill="#1d2a56"/>
      <rect id="長方形_2838" data-name="長方形 2838" width="3.177" height="7.943" transform="translate(59.342 16.069)" fill="#1d2a56"/>
      <rect id="長方形_2839" data-name="長方形 2839" width="3.177" height="7.943" transform="translate(64.107 16.069)" fill="#1d2a56"/>
      <rect id="長方形_2840" data-name="長方形 2840" width="3.177" height="7.943" transform="translate(77.015 16.069) rotate(90)" fill="#1d2a56"/>
      <rect id="長方形_2841" data-name="長方形 2841" width="3.177" height="7.943" transform="translate(77.015 20.834) rotate(90)" fill="#1d2a56"/>
      <rect id="長方形_2842" data-name="長方形 2842" width="3.177" height="7.943" transform="translate(0.921 16.069)" fill="#1d2a56"/>
      <rect id="長方形_2843" data-name="長方形 2843" width="3.177" height="7.943" transform="translate(5.687 16.069)" fill="#1d2a56"/>
      <rect id="長方形_2844" data-name="長方形 2844" width="3.177" height="7.943" transform="translate(18.594 16.069) rotate(90)" fill="#1d2a56"/>
      <rect id="長方形_2845" data-name="長方形 2845" width="3.177" height="7.943" transform="translate(18.594 20.834) rotate(90)" fill="#1d2a56"/>
      <rect id="長方形_2846" data-name="長方形 2846" width="3.177" height="7.943" transform="translate(20.362 16.069)" fill="#1d2a56"/>
      <rect id="長方形_2847" data-name="長方形 2847" width="3.177" height="7.943" transform="translate(25.127 16.069)" fill="#1d2a56"/>
      <rect id="長方形_2848" data-name="長方形 2848" width="3.177" height="7.943" transform="translate(38.039 16.069) rotate(90)" fill="#1d2a56"/>
      <rect id="長方形_2849" data-name="長方形 2849" width="3.177" height="7.943" transform="translate(38.039 20.834) rotate(90)" fill="#1d2a56"/>
      <rect id="長方形_2850" data-name="長方形 2850" width="3.177" height="7.943" transform="translate(-37.884 16.069)" fill="#1d2a56"/>
      <rect id="長方形_2851" data-name="長方形 2851" width="3.177" height="7.943" transform="translate(-33.118 16.069)" fill="#1d2a56"/>
      <rect id="長方形_2852" data-name="長方形 2852" width="3.177" height="7.943" transform="translate(-20.211 16.069) rotate(90)" fill="#1d2a56"/>
      <rect id="長方形_2853" data-name="長方形 2853" width="3.177" height="7.943" transform="translate(-20.211 20.834) rotate(90)" fill="#1d2a56"/>
      <rect id="長方形_2854" data-name="長方形 2854" width="3.177" height="7.943" transform="translate(-18.443 16.069)" fill="#1d2a56"/>
      <rect id="長方形_2855" data-name="長方形 2855" width="3.177" height="7.943" transform="translate(-13.678 16.069)" fill="#1d2a56"/>
      <rect id="長方形_2856" data-name="長方形 2856" width="3.177" height="7.943" transform="translate(-0.77 16.069) rotate(90)" fill="#1d2a56"/>
      <rect id="長方形_2857" data-name="長方形 2857" width="3.177" height="7.943" transform="translate(-0.77 20.834) rotate(90)" fill="#1d2a56"/>
      <rect id="長方形_2858" data-name="長方形 2858" width="3.177" height="7.943" transform="translate(68.913 25.398)" fill="#1d2a56"/>
      <rect id="長方形_2859" data-name="長方形 2859" width="3.177" height="7.943" transform="translate(73.679 25.398)" fill="#1d2a56"/>
      <rect id="長方形_2860" data-name="長方形 2860" width="3.177" height="7.943" transform="translate(86.586 25.394) rotate(90)" fill="#1d2a56"/>
      <rect id="長方形_2861" data-name="長方形 2861" width="3.177" height="7.943" transform="translate(86.586 30.159) rotate(90)" fill="#1d2a56"/>
      <rect id="長方形_2862" data-name="長方形 2862" width="3.177" height="7.943" transform="translate(88.353 25.398)" fill="#1d2a56"/>
      <rect id="長方形_2863" data-name="長方形 2863" width="3.177" height="7.943" transform="translate(93.119 25.398)" fill="#1d2a56"/>
      <rect id="長方形_2864" data-name="長方形 2864" width="3.177" height="7.943" transform="translate(106.026 25.398) rotate(90)" fill="#1d2a56"/>
      <rect id="長方形_2865" data-name="長方形 2865" width="3.177" height="7.943" transform="translate(106.026 30.163) rotate(90)" fill="#1d2a56"/>
      <rect id="長方形_2866" data-name="長方形 2866" width="3.177" height="7.943" transform="translate(30.104 25.398)" fill="#1d2a56"/>
      <rect id="長方形_2867" data-name="長方形 2867" width="3.177" height="7.943" transform="translate(34.869 25.398)" fill="#1d2a56"/>
      <rect id="長方形_2868" data-name="長方形 2868" width="3.177" height="7.943" transform="translate(47.781 25.398) rotate(90)" fill="#1d2a56"/>
      <rect id="長方形_2869" data-name="長方形 2869" width="3.177" height="7.943" transform="translate(47.781 30.163) rotate(90)" fill="#1d2a56"/>
      <rect id="長方形_2870" data-name="長方形 2870" width="3.177" height="7.943" transform="translate(49.548 25.398)" fill="#1d2a56"/>
      <rect id="長方形_2871" data-name="長方形 2871" width="3.177" height="7.943" transform="translate(54.314 25.398)" fill="#1d2a56"/>
      <rect id="長方形_2872" data-name="長方形 2872" width="3.177" height="7.943" transform="translate(67.221 25.398) rotate(90)" fill="#1d2a56"/>
      <rect id="長方形_2873" data-name="長方形 2873" width="3.177" height="7.943" transform="translate(67.221 30.163) rotate(90)" fill="#1d2a56"/>
      <rect id="長方形_2874" data-name="長方形 2874" width="3.177" height="7.943" transform="translate(-8.872 25.398)" fill="#1d2a56"/>
      <rect id="長方形_2875" data-name="長方形 2875" width="3.177" height="7.943" transform="translate(-4.106 25.398)" fill="#1d2a56"/>
      <rect id="長方形_2876" data-name="長方形 2876" width="3.177" height="7.943" transform="translate(8.801 25.398) rotate(90)" fill="#1d2a56"/>
      <rect id="長方形_2877" data-name="長方形 2877" width="3.177" height="7.943" transform="translate(8.801 30.163) rotate(90)" fill="#1d2a56"/>
      <rect id="長方形_2878" data-name="長方形 2878" width="3.177" height="7.943" transform="translate(10.568 25.398)" fill="#1d2a56"/>
      <rect id="長方形_2879" data-name="長方形 2879" width="3.177" height="7.943" transform="translate(15.334 25.398)" fill="#1d2a56"/>
      <rect id="長方形_2880" data-name="長方形 2880" width="3.177" height="7.943" transform="translate(28.245 25.398) rotate(90)" fill="#1d2a56"/>
      <rect id="長方形_2881" data-name="長方形 2881" width="3.177" height="7.943" transform="translate(28.245 30.163) rotate(90)" fill="#1d2a56"/>
      <rect id="長方形_2882" data-name="長方形 2882" width="3.177" height="7.943" transform="translate(-47.677 25.398)" fill="#1d2a56"/>
      <rect id="長方形_2883" data-name="長方形 2883" width="3.177" height="7.943" transform="translate(-42.912 25.398)" fill="#1d2a56"/>
      <rect id="長方形_2884" data-name="長方形 2884" width="3.177" height="7.943" transform="translate(-30.004 25.398) rotate(90)" fill="#1d2a56"/>
      <rect id="長方形_2885" data-name="長方形 2885" width="3.177" height="7.943" transform="translate(-30.004 30.163) rotate(90)" fill="#1d2a56"/>
      <rect id="長方形_2886" data-name="長方形 2886" width="3.177" height="7.943" transform="translate(-28.237 25.398)" fill="#1d2a56"/>
      <rect id="長方形_2887" data-name="長方形 2887" width="3.177" height="7.943" transform="translate(-23.471 25.398)" fill="#1d2a56"/>
      <rect id="長方形_2888" data-name="長方形 2888" width="3.177" height="7.943" transform="translate(-10.564 25.398) rotate(90)" fill="#1d2a56"/>
      <rect id="長方形_2889" data-name="長方形 2889" width="3.177" height="7.943" transform="translate(-10.564 30.163) rotate(90)" fill="#1d2a56"/>
      <rect id="長方形_2890" data-name="長方形 2890" width="3.177" height="7.943" transform="translate(78.536 34.711)" fill="#1d2a56"/>
      <rect id="長方形_2891" data-name="長方形 2891" width="3.177" height="7.943" transform="translate(83.301 34.711)" fill="#1d2a56"/>
      <rect id="長方形_2892" data-name="長方形 2892" width="3.177" height="7.943" transform="translate(96.209 34.711) rotate(90)" fill="#1d2a56"/>
      <rect id="長方形_2893" data-name="長方形 2893" width="3.177" height="7.943" transform="translate(96.209 39.476) rotate(90)" fill="#1d2a56"/>
      <rect id="長方形_2894" data-name="長方形 2894" width="3.177" height="7.943" transform="translate(97.98 34.711)" fill="#1d2a56"/>
      <rect id="長方形_2895" data-name="長方形 2895" width="3.177" height="7.943" transform="translate(102.746 34.711)" fill="#1d2a56"/>
      <rect id="長方形_2896" data-name="長方形 2896" width="3.177" height="7.943" transform="translate(115.649 34.711) rotate(90)" fill="#1d2a56"/>
      <rect id="長方形_2897" data-name="長方形 2897" width="3.177" height="7.943" transform="translate(115.649 39.476) rotate(90)" fill="#1d2a56"/>
      <rect id="長方形_2898" data-name="長方形 2898" width="3.177" height="7.943" transform="translate(39.731 34.711)" fill="#1d2a56"/>
      <rect id="長方形_2899" data-name="長方形 2899" width="3.177" height="7.943" transform="translate(44.496 34.711)" fill="#1d2a56"/>
      <rect id="長方形_2900" data-name="長方形 2900" width="3.177" height="7.943" transform="translate(57.404 34.707) rotate(90)" fill="#1d2a56"/>
      <rect id="長方形_2901" data-name="長方形 2901" width="3.177" height="7.943" transform="translate(57.404 39.472) rotate(90)" fill="#1d2a56"/>
      <rect id="長方形_2902" data-name="長方形 2902" width="3.177" height="7.943" transform="translate(59.171 34.711)" fill="#1d2a56"/>
      <rect id="長方形_2903" data-name="長方形 2903" width="3.177" height="7.943" transform="translate(63.937 34.711)" fill="#1d2a56"/>
      <rect id="長方形_2904" data-name="長方形 2904" width="3.177" height="7.943" transform="translate(76.844 34.711) rotate(90)" fill="#1d2a56"/>
      <rect id="長方形_2905" data-name="長方形 2905" width="3.177" height="7.943" transform="translate(76.844 39.476) rotate(90)" fill="#1d2a56"/>
      <rect id="長方形_2906" data-name="長方形 2906" width="3.177" height="7.943" transform="translate(0.755 34.711)" fill="#1d2a56"/>
      <rect id="長方形_2907" data-name="長方形 2907" width="3.177" height="7.943" transform="translate(5.52 34.711)" fill="#1d2a56"/>
      <rect id="長方形_2908" data-name="長方形 2908" width="3.177" height="7.943" transform="translate(18.424 34.711) rotate(90)" fill="#1d2a56"/>
      <rect id="長方形_2909" data-name="長方形 2909" width="3.177" height="7.943" transform="translate(18.424 39.476) rotate(90)" fill="#1d2a56"/>
      <rect id="長方形_2910" data-name="長方形 2910" width="3.177" height="7.943" transform="translate(20.195 34.711)" fill="#1d2a56"/>
      <rect id="長方形_2911" data-name="長方形 2911" width="3.177" height="7.943" transform="translate(24.961 34.711)" fill="#1d2a56"/>
      <rect id="長方形_2912" data-name="長方形 2912" width="3.177" height="7.943" transform="translate(37.868 34.707) rotate(90)" fill="#1d2a56"/>
      <rect id="長方形_2913" data-name="長方形 2913" width="3.177" height="7.943" transform="translate(37.868 39.472) rotate(90)" fill="#1d2a56"/>
      <rect id="長方形_2914" data-name="長方形 2914" width="3.177" height="7.943" transform="translate(-38.055 34.711)" fill="#1d2a56"/>
      <rect id="長方形_2915" data-name="長方形 2915" width="3.177" height="7.943" transform="translate(-33.289 34.711)" fill="#1d2a56"/>
      <rect id="長方形_2916" data-name="長方形 2916" width="3.177" height="7.943" transform="translate(-20.382 34.711) rotate(90)" fill="#1d2a56"/>
      <rect id="長方形_2917" data-name="長方形 2917" width="3.177" height="7.943" transform="translate(-20.382 39.476) rotate(90)" fill="#1d2a56"/>
      <rect id="長方形_2918" data-name="長方形 2918" width="3.177" height="7.943" transform="translate(-18.614 34.711)" fill="#1d2a56"/>
      <rect id="長方形_2919" data-name="長方形 2919" width="3.177" height="7.943" transform="translate(-13.849 34.711)" fill="#1d2a56"/>
      <rect id="長方形_2920" data-name="長方形 2920" width="3.177" height="7.943" transform="translate(-0.941 34.711) rotate(90)" fill="#1d2a56"/>
      <rect id="長方形_2921" data-name="長方形 2921" width="3.177" height="7.943" transform="translate(-0.941 39.476) rotate(90)" fill="#1d2a56"/>
      <rect id="長方形_2922" data-name="長方形 2922" width="3.177" height="7.943" transform="translate(68.607 43.845)" fill="#1d2a56"/>
      <rect id="長方形_2923" data-name="長方形 2923" width="3.177" height="7.943" transform="translate(73.373 43.845)" fill="#1d2a56"/>
      <rect id="長方形_2924" data-name="長方形 2924" width="3.177" height="7.943" transform="translate(86.28 43.845) rotate(90)" fill="#1d2a56"/>
      <rect id="長方形_2925" data-name="長方形 2925" width="3.177" height="7.943" transform="translate(86.28 48.611) rotate(90)" fill="#1d2a56"/>
      <rect id="長方形_2926" data-name="長方形 2926" width="3.177" height="7.943" transform="translate(88.051 43.845)" fill="#1d2a56"/>
      <rect id="長方形_2927" data-name="長方形 2927" width="3.177" height="7.943" transform="translate(92.817 43.845)" fill="#1d2a56"/>
      <rect id="長方形_2928" data-name="長方形 2928" width="3.177" height="7.943" transform="translate(105.72 43.845) rotate(90)" fill="#1d2a56"/>
      <rect id="長方形_2929" data-name="長方形 2929" width="3.177" height="7.943" transform="translate(105.72 48.611) rotate(90)" fill="#1d2a56"/>
      <rect id="長方形_2930" data-name="長方形 2930" width="3.177" height="7.943" transform="translate(29.802 43.845)" fill="#1d2a56"/>
      <rect id="長方形_2931" data-name="長方形 2931" width="3.177" height="7.943" transform="translate(34.568 43.845)" fill="#1d2a56"/>
      <rect id="長方形_2932" data-name="長方形 2932" width="3.177" height="7.943" transform="translate(47.475 43.841) rotate(90)" fill="#1d2a56"/>
      <rect id="長方形_2933" data-name="長方形 2933" width="3.177" height="7.943" transform="translate(47.475 48.607) rotate(90)" fill="#1d2a56"/>
      <rect id="長方形_2934" data-name="長方形 2934" width="3.177" height="7.943" transform="translate(49.242 43.845)" fill="#1d2a56"/>
      <rect id="長方形_2935" data-name="長方形 2935" width="3.177" height="7.943" transform="translate(54.008 43.845)" fill="#1d2a56"/>
      <rect id="長方形_2936" data-name="長方形 2936" width="3.177" height="7.943" transform="translate(66.915 43.845) rotate(90)" fill="#1d2a56"/>
      <rect id="長方形_2937" data-name="長方形 2937" width="3.177" height="7.943" transform="translate(66.915 48.611) rotate(90)" fill="#1d2a56"/>
      <rect id="長方形_2938" data-name="長方形 2938" width="3.177" height="7.943" transform="translate(-9.174 43.845)" fill="#1d2a56"/>
      <rect id="長方形_2939" data-name="長方形 2939" width="3.177" height="7.943" transform="translate(-4.408 43.845)" fill="#1d2a56"/>
      <rect id="長方形_2940" data-name="長方形 2940" width="3.177" height="7.943" transform="translate(8.495 43.845) rotate(90)" fill="#1d2a56"/>
      <rect id="長方形_2941" data-name="長方形 2941" width="3.177" height="7.943" transform="translate(8.495 48.611) rotate(90)" fill="#1d2a56"/>
      <rect id="長方形_2942" data-name="長方形 2942" width="3.177" height="7.943" transform="translate(10.266 43.845)" fill="#1d2a56"/>
      <rect id="長方形_2943" data-name="長方形 2943" width="3.177" height="7.943" transform="translate(15.032 43.845)" fill="#1d2a56"/>
      <rect id="長方形_2944" data-name="長方形 2944" width="3.177" height="7.943" transform="translate(27.939 43.841) rotate(90)" fill="#1d2a56"/>
      <rect id="長方形_2945" data-name="長方形 2945" width="3.177" height="7.943" transform="translate(27.939 48.607) rotate(90)" fill="#1d2a56"/>
      <rect id="長方形_2946" data-name="長方形 2946" width="3.177" height="7.943" transform="translate(-47.983 43.845)" fill="#1d2a56"/>
      <rect id="長方形_2947" data-name="長方形 2947" width="3.177" height="7.943" transform="translate(-43.217 43.845)" fill="#1d2a56"/>
      <rect id="長方形_2948" data-name="長方形 2948" width="3.177" height="7.943" transform="translate(-30.31 43.845) rotate(90)" fill="#1d2a56"/>
      <rect id="長方形_2949" data-name="長方形 2949" width="3.177" height="7.943" transform="translate(-30.31 48.611) rotate(90)" fill="#1d2a56"/>
      <rect id="長方形_2950" data-name="長方形 2950" width="3.177" height="7.943" transform="translate(-28.543 43.845)" fill="#1d2a56"/>
      <rect id="長方形_2951" data-name="長方形 2951" width="3.177" height="7.943" transform="translate(-23.777 43.845)" fill="#1d2a56"/>
      <rect id="長方形_2952" data-name="長方形 2952" width="3.177" height="7.943" transform="translate(-10.87 43.845) rotate(90)" fill="#1d2a56"/>
      <rect id="長方形_2953" data-name="長方形 2953" width="3.177" height="7.943" transform="translate(-10.87 48.611) rotate(90)" fill="#1d2a56"/>
      <rect id="長方形_2954" data-name="長方形 2954" width="3.177" height="7.943" transform="translate(78.226 52.967)" fill="#1d2a56"/>
      <rect id="長方形_2955" data-name="長方形 2955" width="3.177" height="7.943" transform="translate(82.992 52.967)" fill="#1d2a56"/>
      <rect id="長方形_2956" data-name="長方形 2956" width="3.177" height="7.943" transform="translate(95.895 52.967) rotate(90)" fill="#1d2a56"/>
      <rect id="長方形_2957" data-name="長方形 2957" width="3.177" height="7.943" transform="translate(95.895 57.733) rotate(90)" fill="#1d2a56"/>
      <rect id="長方形_2958" data-name="長方形 2958" width="3.177" height="7.943" transform="translate(97.666 52.967)" fill="#1d2a56"/>
      <rect id="長方形_2959" data-name="長方形 2959" width="3.177" height="7.943" transform="translate(102.432 52.967)" fill="#1d2a56"/>
      <rect id="長方形_2960" data-name="長方形 2960" width="3.177" height="7.943" transform="translate(115.339 52.967) rotate(90)" fill="#1d2a56"/>
      <rect id="長方形_2961" data-name="長方形 2961" width="3.177" height="7.943" transform="translate(115.339 57.733) rotate(90)" fill="#1d2a56"/>
      <rect id="長方形_2962" data-name="長方形 2962" width="3.177" height="7.943" transform="translate(39.417 52.967)" fill="#1d2a56"/>
      <rect id="長方形_2963" data-name="長方形 2963" width="3.177" height="7.943" transform="translate(44.183 52.967)" fill="#1d2a56"/>
      <rect id="長方形_2964" data-name="長方形 2964" width="3.177" height="7.943" transform="translate(57.09 52.971) rotate(90)" fill="#1d2a56"/>
      <rect id="長方形_2965" data-name="長方形 2965" width="3.177" height="7.943" transform="translate(57.09 57.737) rotate(90)" fill="#1d2a56"/>
      <rect id="長方形_2966" data-name="長方形 2966" width="3.177" height="7.943" transform="translate(58.857 52.967)" fill="#1d2a56"/>
      <rect id="長方形_2967" data-name="長方形 2967" width="3.177" height="7.943" transform="translate(63.623 52.967)" fill="#1d2a56"/>
      <rect id="長方形_2968" data-name="長方形 2968" width="3.177" height="7.943" transform="translate(76.53 52.971) rotate(90)" fill="#1d2a56"/>
      <rect id="長方形_2969" data-name="長方形 2969" width="3.177" height="7.943" transform="translate(76.53 57.737) rotate(90)" fill="#1d2a56"/>
      <rect id="長方形_2970" data-name="長方形 2970" width="3.177" height="7.943" transform="translate(0.441 52.967)" fill="#1d2a56"/>
      <rect id="長方形_2971" data-name="長方形 2971" width="3.177" height="7.943" transform="translate(5.207 52.967)" fill="#1d2a56"/>
      <rect id="長方形_2972" data-name="長方形 2972" width="3.177" height="7.943" transform="translate(18.114 52.967) rotate(90)" fill="#1d2a56"/>
      <rect id="長方形_2973" data-name="長方形 2973" width="3.177" height="7.943" transform="translate(18.114 57.733) rotate(90)" fill="#1d2a56"/>
      <rect id="長方形_2974" data-name="長方形 2974" width="3.177" height="7.943" transform="translate(19.881 52.967)" fill="#1d2a56"/>
      <rect id="長方形_2975" data-name="長方形 2975" width="3.177" height="7.943" transform="translate(24.647 52.967)" fill="#1d2a56"/>
      <rect id="長方形_2976" data-name="長方形 2976" width="3.177" height="7.943" transform="translate(37.554 52.971) rotate(90)" fill="#1d2a56"/>
      <rect id="長方形_2977" data-name="長方形 2977" width="3.177" height="7.943" transform="translate(37.554 57.737) rotate(90)" fill="#1d2a56"/>
      <rect id="長方形_2978" data-name="長方形 2978" width="3.177" height="7.943" transform="translate(-38.368 52.967)" fill="#1d2a56"/>
      <rect id="長方形_2979" data-name="長方形 2979" width="3.177" height="7.943" transform="translate(-33.603 52.967)" fill="#1d2a56"/>
      <rect id="長方形_2980" data-name="長方形 2980" width="3.177" height="7.943" transform="translate(-20.695 52.971) rotate(90)" fill="#1d2a56"/>
      <rect id="長方形_2981" data-name="長方形 2981" width="3.177" height="7.943" transform="translate(-20.695 57.737) rotate(90)" fill="#1d2a56"/>
      <rect id="長方形_2982" data-name="長方形 2982" width="3.177" height="7.943" transform="translate(-18.928 52.967)" fill="#1d2a56"/>
      <rect id="長方形_2983" data-name="長方形 2983" width="3.177" height="7.943" transform="translate(-14.162 52.967)" fill="#1d2a56"/>
      <rect id="長方形_2984" data-name="長方形 2984" width="3.177" height="7.943" transform="translate(-1.255 52.967) rotate(90)" fill="#1d2a56"/>
      <rect id="長方形_2985" data-name="長方形 2985" width="3.177" height="7.943" transform="translate(-1.255 57.733) rotate(90)" fill="#1d2a56"/>
      <rect id="長方形_2986" data-name="長方形 2986" width="3.177" height="7.943" transform="translate(68.694 62.102)" fill="#1d2a56"/>
      <rect id="長方形_2987" data-name="長方形 2987" width="3.177" height="7.943" transform="translate(73.46 62.102)" fill="#1d2a56"/>
      <rect id="長方形_2988" data-name="長方形 2988" width="3.177" height="7.943" transform="translate(86.363 62.102) rotate(90)" fill="#1d2a56"/>
      <rect id="長方形_2989" data-name="長方形 2989" width="3.177" height="7.943" transform="translate(86.363 66.868) rotate(90)" fill="#1d2a56"/>
      <rect id="長方形_2990" data-name="長方形 2990" width="3.177" height="7.943" transform="translate(88.135 62.102)" fill="#1d2a56"/>
      <rect id="長方形_2991" data-name="長方形 2991" width="3.177" height="7.943" transform="translate(92.901 62.102)" fill="#1d2a56"/>
      <rect id="長方形_2992" data-name="長方形 2992" width="3.177" height="7.943" transform="translate(105.808 62.102) rotate(90)" fill="#1d2a56"/>
      <rect id="長方形_2993" data-name="長方形 2993" width="3.177" height="7.943" transform="translate(105.808 66.868) rotate(90)" fill="#1d2a56"/>
      <rect id="長方形_2994" data-name="長方形 2994" width="3.177" height="7.943" transform="translate(29.885 62.102)" fill="#1d2a56"/>
      <rect id="長方形_2995" data-name="長方形 2995" width="3.177" height="7.943" transform="translate(34.651 62.102)" fill="#1d2a56"/>
      <rect id="長方形_2996" data-name="長方形 2996" width="3.177" height="7.943" transform="translate(47.558 62.106) rotate(90)" fill="#1d2a56"/>
      <rect id="長方形_2997" data-name="長方形 2997" width="3.177" height="7.943" transform="translate(47.558 66.872) rotate(90)" fill="#1d2a56"/>
      <rect id="長方形_2998" data-name="長方形 2998" width="3.177" height="7.943" transform="translate(49.326 62.102)" fill="#1d2a56"/>
      <rect id="長方形_2999" data-name="長方形 2999" width="3.177" height="7.943" transform="translate(54.091 62.102)" fill="#1d2a56"/>
      <rect id="長方形_3000" data-name="長方形 3000" width="3.177" height="7.943" transform="translate(66.999 62.106) rotate(90)" fill="#1d2a56"/>
      <rect id="長方形_3001" data-name="長方形 3001" width="3.177" height="7.943" transform="translate(66.999 66.872) rotate(90)" fill="#1d2a56"/>
      <rect id="長方形_3002" data-name="長方形 3002" width="3.177" height="7.943" transform="translate(-9.091 62.102)" fill="#1d2a56"/>
      <rect id="長方形_3003" data-name="長方形 3003" width="3.177" height="7.943" transform="translate(-4.325 62.102)" fill="#1d2a56"/>
      <rect id="長方形_3004" data-name="長方形 3004" width="3.177" height="7.943" transform="translate(8.582 62.102) rotate(90)" fill="#1d2a56"/>
      <rect id="長方形_3005" data-name="長方形 3005" width="3.177" height="7.943" transform="translate(8.582 66.868) rotate(90)" fill="#1d2a56"/>
      <rect id="長方形_3006" data-name="長方形 3006" width="3.177" height="7.943" transform="translate(10.35 62.102)" fill="#1d2a56"/>
      <rect id="長方形_3007" data-name="長方形 3007" width="3.177" height="7.943" transform="translate(15.115 62.102)" fill="#1d2a56"/>
      <rect id="長方形_3008" data-name="長方形 3008" width="3.177" height="7.943" transform="translate(28.023 62.106) rotate(90)" fill="#1d2a56"/>
      <rect id="長方形_3009" data-name="長方形 3009" width="3.177" height="7.943" transform="translate(28.023 66.872) rotate(90)" fill="#1d2a56"/>
      <rect id="長方形_3010" data-name="長方形 3010" width="3.177" height="7.943" transform="translate(-47.9 62.102)" fill="#1d2a56"/>
      <rect id="長方形_3011" data-name="長方形 3011" width="3.177" height="7.943" transform="translate(-43.134 62.102)" fill="#1d2a56"/>
      <rect id="長方形_3012" data-name="長方形 3012" width="3.177" height="7.943" transform="translate(-30.227 62.106) rotate(90)" fill="#1d2a56"/>
      <rect id="長方形_3013" data-name="長方形 3013" width="3.177" height="7.943" transform="translate(-30.227 66.872) rotate(90)" fill="#1d2a56"/>
      <rect id="長方形_3014" data-name="長方形 3014" width="3.177" height="7.943" transform="translate(-28.46 62.102)" fill="#1d2a56"/>
      <rect id="長方形_3015" data-name="長方形 3015" width="3.177" height="7.943" transform="translate(-23.694 62.102)" fill="#1d2a56"/>
      <rect id="長方形_3016" data-name="長方形 3016" width="3.177" height="7.943" transform="translate(-10.787 62.102) rotate(90)" fill="#1d2a56"/>
      <rect id="長方形_3017" data-name="長方形 3017" width="3.177" height="7.943" transform="translate(-10.786 66.868) rotate(90)" fill="#1d2a56"/>
      <rect id="長方形_3018" data-name="長方形 3018" width="3.177" height="7.943" transform="translate(78.226 71.633)" fill="#1d2a56"/>
      <rect id="長方形_3019" data-name="長方形 3019" width="3.177" height="7.943" transform="translate(82.992 71.633)" fill="#1d2a56"/>
      <rect id="長方形_3020" data-name="長方形 3020" width="3.177" height="7.943" transform="translate(95.895 71.633) rotate(90)" fill="#1d2a56"/>
      <rect id="長方形_3021" data-name="長方形 3021" width="3.177" height="7.943" transform="translate(95.895 76.399) rotate(90)" fill="#1d2a56"/>
      <rect id="長方形_3022" data-name="長方形 3022" width="3.177" height="7.943" transform="translate(97.666 71.633)" fill="#1d2a56"/>
      <rect id="長方形_3023" data-name="長方形 3023" width="3.177" height="7.943" transform="translate(102.432 71.633)" fill="#1d2a56"/>
      <rect id="長方形_3024" data-name="長方形 3024" width="3.177" height="7.943" transform="translate(115.339 71.633) rotate(90)" fill="#1d2a56"/>
      <rect id="長方形_3025" data-name="長方形 3025" width="3.177" height="7.943" transform="translate(115.339 76.399) rotate(90)" fill="#1d2a56"/>
      <rect id="長方形_3026" data-name="長方形 3026" width="3.177" height="7.943" transform="translate(39.417 71.633)" fill="#1d2a56"/>
      <rect id="長方形_3027" data-name="長方形 3027" width="3.177" height="7.943" transform="translate(44.183 71.633)" fill="#1d2a56"/>
      <rect id="長方形_3028" data-name="長方形 3028" width="3.177" height="7.943" transform="translate(57.09 71.637) rotate(90)" fill="#1d2a56"/>
      <rect id="長方形_3029" data-name="長方形 3029" width="3.177" height="7.943" transform="translate(57.09 76.403) rotate(90)" fill="#1d2a56"/>
      <rect id="長方形_3030" data-name="長方形 3030" width="3.177" height="7.943" transform="translate(58.857 71.633)" fill="#1d2a56"/>
      <rect id="長方形_3031" data-name="長方形 3031" width="3.177" height="7.943" transform="translate(63.623 71.633)" fill="#1d2a56"/>
      <rect id="長方形_3032" data-name="長方形 3032" width="3.177" height="7.943" transform="translate(76.53 71.637) rotate(90)" fill="#1d2a56"/>
      <rect id="長方形_3033" data-name="長方形 3033" width="3.177" height="7.943" transform="translate(76.53 76.403) rotate(90)" fill="#1d2a56"/>
      <rect id="長方形_3034" data-name="長方形 3034" width="3.177" height="7.943" transform="translate(0.441 71.633)" fill="#1d2a56"/>
      <rect id="長方形_3035" data-name="長方形 3035" width="3.177" height="7.943" transform="translate(5.207 71.633)" fill="#1d2a56"/>
      <rect id="長方形_3036" data-name="長方形 3036" width="3.177" height="7.943" transform="translate(18.114 71.633) rotate(90)" fill="#1d2a56"/>
      <rect id="長方形_3037" data-name="長方形 3037" width="3.177" height="7.943" transform="translate(18.114 76.399) rotate(90)" fill="#1d2a56"/>
      <rect id="長方形_3038" data-name="長方形 3038" width="3.177" height="7.943" transform="translate(19.881 71.633)" fill="#1d2a56"/>
      <rect id="長方形_3039" data-name="長方形 3039" width="3.177" height="7.943" transform="translate(24.647 71.633)" fill="#1d2a56"/>
      <rect id="長方形_3040" data-name="長方形 3040" width="3.177" height="7.943" transform="translate(37.554 71.637) rotate(90)" fill="#1d2a56"/>
      <rect id="長方形_3041" data-name="長方形 3041" width="3.177" height="7.943" transform="translate(37.554 76.403) rotate(90)" fill="#1d2a56"/>
      <rect id="長方形_3042" data-name="長方形 3042" width="3.177" height="7.943" transform="translate(-38.368 71.633)" fill="#1d2a56"/>
      <rect id="長方形_3043" data-name="長方形 3043" width="3.177" height="7.943" transform="translate(-33.603 71.633)" fill="#1d2a56"/>
      <rect id="長方形_3044" data-name="長方形 3044" width="3.177" height="7.943" transform="translate(-20.695 71.637) rotate(90)" fill="#1d2a56"/>
      <rect id="長方形_3045" data-name="長方形 3045" width="3.177" height="7.943" transform="translate(-20.695 76.403) rotate(90)" fill="#1d2a56"/>
      <rect id="長方形_3046" data-name="長方形 3046" width="3.177" height="7.943" transform="translate(-18.928 71.633)" fill="#1d2a56"/>
      <rect id="長方形_3047" data-name="長方形 3047" width="3.177" height="7.943" transform="translate(-14.162 71.633)" fill="#1d2a56"/>
      <rect id="長方形_3048" data-name="長方形 3048" width="3.177" height="7.943" transform="translate(-1.255 71.633) rotate(90)" fill="#1d2a56"/>
      <rect id="長方形_3049" data-name="長方形 3049" width="3.177" height="7.943" transform="translate(-1.255 76.399) rotate(90)" fill="#1d2a56"/>
    </g>
  </g>
</svg>
