<svg xmlns="http://www.w3.org/2000/svg" xmlns:xlink="http://www.w3.org/1999/xlink" width="195.751" height="45.369" viewBox="0 0 195.751 45.369">
  <defs>
    <clipPath id="clip-path">
      <circle id="楕円形_292" data-name="楕円形 292" cx="22.685" cy="22.685" r="22.685" transform="translate(0)" fill="none"/>
    </clipPath>
  </defs>
  <g id="selectia_logo" transform="translate(-62.9 -8.986)">
    <g id="グループ_2442" data-name="グループ 2442" transform="translate(130.71 13.243)">
      <path id="パス_9621" data-name="パス 9621" d="M11.5-15.687a4.827,4.827,0,0,0-4.374-2.565A4.375,4.375,0,0,0,2.511-13.77a3.871,3.871,0,0,0,.567,2.052C3.7-10.692,4.59-10.206,6.372-9.342c1.485.729,2.538,1.269,3.051,1.566a3.169,3.169,0,0,1,1.755,2.835A4.187,4.187,0,0,1,6.831-.783,4.33,4.33,0,0,1,3.456-2.322,6.224,6.224,0,0,1,2.484-4.05l-1.026.486A5.915,5.915,0,0,0,2.619-1.593,5.144,5.144,0,0,0,6.8.3,5.389,5.389,0,0,0,12.42-4.968,3.959,3.959,0,0,0,10.5-8.451a25.36,25.36,0,0,0-3.591-1.89C5.1-11.232,3.753-11.88,3.753-13.824A3.2,3.2,0,0,1,7.1-17.172a3.849,3.849,0,0,1,3.537,2.214ZM29-18.009h-8.64V0H29V-1.08H21.546V-9.315h7.29v-1.08h-7.29v-6.534H29Zm7.938,0V0h6.21V-1.08H38.124V-18.009Zm21.708,0H50V0h8.64V-1.08H51.192V-9.315h7.29v-1.08h-7.29v-6.534h7.452ZM81-15.9a8.769,8.769,0,0,0-6.048-2.349A9.265,9.265,0,0,0,65.61-8.964,9.254,9.254,0,0,0,75.006.3,9.044,9.044,0,0,0,81-1.944V-3.51A8.376,8.376,0,0,1,74.952-.783a8.066,8.066,0,0,1-8.1-8.127,8.069,8.069,0,0,1,8.073-8.262A7.972,7.972,0,0,1,81-14.337Zm16.416-1.026v-1.08H86.886v1.08h4.671V0h1.188V-16.929Zm6.858-1.08V0h1.188V-18.009ZM126.09,0h1.3l-7.479-18.549L112.32,0h1.3l2.4-5.913h7.668Zm-9.639-6.993,3.429-8.532,3.375,8.532Z" transform="translate(0 28.402)" fill="#1d2a56" stroke="#1d2a56" stroke-width="0.75"/>
      <g id="グループ_2034" data-name="グループ 2034" transform="translate(0.256)">
        <path id="パス_789" data-name="パス 789" d="M84.554,217.07l-3.384,3.412,2.135,1.23Z" transform="translate(-71.707 -212.358)" fill="#1d2a56" stroke="#1d2a56" stroke-miterlimit="10" stroke-width="1"/>
        <g id="グループ_2033" data-name="グループ 2033" transform="translate(0)">
          <path id="パス_787" data-name="パス 787" d="M74.214,211.17l-1.624,6.12h3.248Z" transform="translate(-67.153 -209.227)" fill="#1d2a56" stroke="#1d2a56" stroke-miterlimit="10" stroke-width="1"/>
          <circle id="楕円形_289" data-name="楕円形 289" cx="0.821" cy="0.821" r="0.821" transform="translate(6.225)" fill="#fff" stroke="#1d2a56" stroke-miterlimit="10" stroke-width="1"/>
          <g id="グループ_2032" data-name="グループ 2032" transform="translate(0 2.888)">
            <path id="パス_788" data-name="パス 788" d="M63.7,217.07l3.384,3.412-2.135,1.23Z" transform="translate(-62.436 -215.246)" fill="#1d2a56" stroke="#1d2a56" stroke-miterlimit="10" stroke-width="1"/>
            <circle id="楕円形_290" data-name="楕円形 290" cx="0.821" cy="0.821" r="0.821" transform="translate(0 0.056) rotate(-1.95)" fill="#fff" stroke="#1d2a56" stroke-miterlimit="10" stroke-width="1"/>
          </g>
        </g>
        <circle id="楕円形_291" data-name="楕円形 291" cx="0.821" cy="0.821" r="0.821" transform="translate(13.045 2.163) rotate(-1.718)" fill="#fff" stroke="#1d2a56" stroke-miterlimit="10" stroke-width="1"/>
      </g>
    </g>
    <g id="グループ_2031" data-name="グループ 2031" transform="translate(62.9 8.986)" clip-path="url(#clip-path)">
      <rect id="長方形_2762" data-name="長方形 2762" width="1.871" height="4.677" transform="translate(46.26 -1.296)" fill="#1d2a56"/>
      <rect id="長方形_2763" data-name="長方形 2763" width="1.871" height="4.677" transform="translate(49.066 -1.296)" fill="#1d2a56"/>
      <rect id="長方形_2764" data-name="長方形 2764" width="1.871" height="4.677" transform="translate(56.667 -1.296) rotate(90)" fill="#1d2a56"/>
      <rect id="長方形_2765" data-name="長方形 2765" width="1.871" height="4.677" transform="translate(56.667 1.511) rotate(90)" fill="#1d2a56"/>
      <rect id="長方形_2766" data-name="長方形 2766" width="1.871" height="4.677" transform="translate(57.708 -1.296)" fill="#1d2a56"/>
      <rect id="長方形_2767" data-name="長方形 2767" width="1.871" height="4.677" transform="translate(60.514 -1.296)" fill="#1d2a56"/>
      <rect id="長方形_2768" data-name="長方形 2768" width="1.871" height="4.677" transform="translate(68.114 -1.296) rotate(90)" fill="#1d2a56"/>
      <rect id="長方形_2769" data-name="長方形 2769" width="1.871" height="4.677" transform="translate(68.114 1.511) rotate(90)" fill="#1d2a56"/>
      <rect id="長方形_2770" data-name="長方形 2770" width="1.871" height="4.677" transform="translate(23.407 -1.296)" fill="#1d2a56"/>
      <rect id="長方形_2771" data-name="長方形 2771" width="1.871" height="4.677" transform="translate(26.214 -1.296)" fill="#1d2a56"/>
      <rect id="長方形_2772" data-name="長方形 2772" width="1.871" height="4.677" transform="translate(33.816 -1.296) rotate(90)" fill="#1d2a56"/>
      <rect id="長方形_2773" data-name="長方形 2773" width="1.871" height="4.677" transform="translate(33.816 1.511) rotate(90)" fill="#1d2a56"/>
      <rect id="長方形_2774" data-name="長方形 2774" width="1.871" height="4.677" transform="translate(34.857 -1.296)" fill="#1d2a56"/>
      <rect id="長方形_2775" data-name="長方形 2775" width="1.871" height="4.677" transform="translate(37.663 -1.296)" fill="#1d2a56"/>
      <rect id="長方形_2776" data-name="長方形 2776" width="1.871" height="4.677" transform="translate(45.264 -1.296) rotate(90)" fill="#1d2a56"/>
      <rect id="長方形_2777" data-name="長方形 2777" width="1.871" height="4.677" transform="translate(45.264 1.511) rotate(90)" fill="#1d2a56"/>
      <rect id="長方形_2778" data-name="長方形 2778" width="1.871" height="4.677" transform="translate(0.456 -1.296)" fill="#1d2a56"/>
      <rect id="長方形_2779" data-name="長方形 2779" width="1.871" height="4.677" transform="translate(3.262 -1.296)" fill="#1d2a56"/>
      <rect id="長方形_2780" data-name="長方形 2780" width="1.871" height="4.677" transform="translate(10.865 -1.296) rotate(90)" fill="#1d2a56"/>
      <rect id="長方形_2781" data-name="長方形 2781" width="1.871" height="4.677" transform="translate(10.865 1.511) rotate(90)" fill="#1d2a56"/>
      <rect id="長方形_2782" data-name="長方形 2782" width="1.871" height="4.677" transform="translate(11.904 -1.296)" fill="#1d2a56"/>
      <rect id="長方形_2783" data-name="長方形 2783" width="1.871" height="4.677" transform="translate(14.71 -1.296)" fill="#1d2a56"/>
      <rect id="長方形_2784" data-name="長方形 2784" width="1.871" height="4.677" transform="translate(22.313 -1.296) rotate(90)" fill="#1d2a56"/>
      <rect id="長方形_2785" data-name="長方形 2785" width="1.871" height="4.677" transform="translate(22.313 1.511) rotate(90)" fill="#1d2a56"/>
      <rect id="長方形_2786" data-name="長方形 2786" width="1.871" height="4.677" transform="translate(-22.395 -1.296)" fill="#1d2a56"/>
      <rect id="長方形_2787" data-name="長方形 2787" width="1.871" height="4.677" transform="translate(-19.588 -1.296)" fill="#1d2a56"/>
      <rect id="長方形_2788" data-name="長方形 2788" width="1.871" height="4.677" transform="translate(-11.988 -1.296) rotate(90)" fill="#1d2a56"/>
      <rect id="長方形_2789" data-name="長方形 2789" width="1.871" height="4.677" transform="translate(-11.988 1.511) rotate(90)" fill="#1d2a56"/>
      <rect id="長方形_2790" data-name="長方形 2790" width="1.871" height="4.677" transform="translate(-10.947 -1.296)" fill="#1d2a56"/>
      <rect id="長方形_2791" data-name="長方形 2791" width="1.871" height="4.677" transform="translate(-8.141 -1.296)" fill="#1d2a56"/>
      <rect id="長方形_2792" data-name="長方形 2792" width="1.871" height="4.677" transform="translate(-0.54 -1.296) rotate(90)" fill="#1d2a56"/>
      <rect id="長方形_2793" data-name="長方形 2793" width="1.871" height="4.677" transform="translate(-0.54 1.511) rotate(90)" fill="#1d2a56"/>
      <rect id="長方形_2794" data-name="長方形 2794" width="1.871" height="4.677" transform="translate(40.575 4.163)" fill="#1d2a56"/>
      <rect id="長方形_2795" data-name="長方形 2795" width="1.871" height="4.677" transform="translate(43.381 4.163)" fill="#1d2a56"/>
      <rect id="長方形_2796" data-name="長方形 2796" width="1.871" height="4.677" transform="translate(50.982 4.163) rotate(90)" fill="#1d2a56"/>
      <rect id="長方形_2797" data-name="長方形 2797" width="1.871" height="4.677" transform="translate(50.982 6.969) rotate(90)" fill="#1d2a56"/>
      <rect id="長方形_2798" data-name="長方形 2798" width="1.871" height="4.677" transform="translate(52.022 4.163)" fill="#1d2a56"/>
      <rect id="長方形_2799" data-name="長方形 2799" width="1.871" height="4.677" transform="translate(54.829 4.163)" fill="#1d2a56"/>
      <rect id="長方形_2800" data-name="長方形 2800" width="1.871" height="4.677" transform="translate(62.429 4.163) rotate(90)" fill="#1d2a56"/>
      <rect id="長方形_2801" data-name="長方形 2801" width="1.871" height="4.677" transform="translate(62.429 6.969) rotate(90)" fill="#1d2a56"/>
      <rect id="長方形_2802" data-name="長方形 2802" width="1.871" height="4.677" transform="translate(17.722 4.163)" fill="#1d2a56"/>
      <rect id="長方形_2803" data-name="長方形 2803" width="1.871" height="4.677" transform="translate(20.528 4.163)" fill="#1d2a56"/>
      <rect id="長方形_2804" data-name="長方形 2804" width="1.871" height="4.677" transform="translate(28.131 4.163) rotate(90)" fill="#1d2a56"/>
      <rect id="長方形_2805" data-name="長方形 2805" width="1.871" height="4.677" transform="translate(28.131 6.969) rotate(90)" fill="#1d2a56"/>
      <rect id="長方形_2806" data-name="長方形 2806" width="1.871" height="4.677" transform="translate(29.17 4.163)" fill="#1d2a56"/>
      <rect id="長方形_2807" data-name="長方形 2807" width="1.871" height="4.677" transform="translate(31.976 4.163)" fill="#1d2a56"/>
      <rect id="長方形_2808" data-name="長方形 2808" width="1.871" height="4.677" transform="translate(39.579 4.163) rotate(90)" fill="#1d2a56"/>
      <rect id="長方形_2809" data-name="長方形 2809" width="1.871" height="4.677" transform="translate(39.579 6.969) rotate(90)" fill="#1d2a56"/>
      <rect id="長方形_2810" data-name="長方形 2810" width="1.871" height="4.677" transform="translate(-5.229 4.163)" fill="#1d2a56"/>
      <rect id="長方形_2811" data-name="長方形 2811" width="1.871" height="4.677" transform="translate(-2.423 4.163)" fill="#1d2a56"/>
      <rect id="長方形_2812" data-name="長方形 2812" width="1.871" height="4.677" transform="translate(5.178 4.163) rotate(90)" fill="#1d2a56"/>
      <rect id="長方形_2813" data-name="長方形 2813" width="1.871" height="4.677" transform="translate(5.178 6.969) rotate(90)" fill="#1d2a56"/>
      <rect id="長方形_2814" data-name="長方形 2814" width="1.871" height="4.677" transform="translate(6.218 4.163)" fill="#1d2a56"/>
      <rect id="長方形_2815" data-name="長方形 2815" width="1.871" height="4.677" transform="translate(9.025 4.163)" fill="#1d2a56"/>
      <rect id="長方形_2816" data-name="長方形 2816" width="1.871" height="4.677" transform="translate(16.628 4.163) rotate(90)" fill="#1d2a56"/>
      <rect id="長方形_2817" data-name="長方形 2817" width="1.871" height="4.677" transform="translate(16.628 6.969) rotate(90)" fill="#1d2a56"/>
      <rect id="長方形_2818" data-name="長方形 2818" width="1.871" height="4.677" transform="translate(-28.082 4.163)" fill="#1d2a56"/>
      <rect id="長方形_2819" data-name="長方形 2819" width="1.871" height="4.677" transform="translate(-25.276 4.163)" fill="#1d2a56"/>
      <rect id="長方形_2820" data-name="長方形 2820" width="1.871" height="4.677" transform="translate(-17.673 4.163) rotate(90)" fill="#1d2a56"/>
      <rect id="長方形_2821" data-name="長方形 2821" width="1.871" height="4.677" transform="translate(-17.673 6.969) rotate(90)" fill="#1d2a56"/>
      <rect id="長方形_2822" data-name="長方形 2822" width="1.871" height="4.677" transform="translate(-16.632 4.163)" fill="#1d2a56"/>
      <rect id="長方形_2823" data-name="長方形 2823" width="1.871" height="4.677" transform="translate(-13.826 4.163)" fill="#1d2a56"/>
      <rect id="長方形_2824" data-name="長方形 2824" width="1.871" height="4.677" transform="translate(-6.225 4.163) rotate(90)" fill="#1d2a56"/>
      <rect id="長方形_2825" data-name="長方形 2825" width="1.871" height="4.677" transform="translate(-6.225 6.969) rotate(90)" fill="#1d2a56"/>
      <rect id="長方形_2826" data-name="長方形 2826" width="1.871" height="4.677" transform="translate(46.347 9.462)" fill="#1d2a56"/>
      <rect id="長方形_2827" data-name="長方形 2827" width="1.871" height="4.677" transform="translate(49.153 9.462)" fill="#1d2a56"/>
      <rect id="長方形_2828" data-name="長方形 2828" width="1.871" height="4.677" transform="translate(56.753 9.462) rotate(90)" fill="#1d2a56"/>
      <rect id="長方形_2829" data-name="長方形 2829" width="1.871" height="4.677" transform="translate(56.753 12.268) rotate(90)" fill="#1d2a56"/>
      <rect id="長方形_2830" data-name="長方形 2830" width="1.871" height="4.677" transform="translate(57.794 9.462)" fill="#1d2a56"/>
      <rect id="長方形_2831" data-name="長方形 2831" width="1.871" height="4.677" transform="translate(60.6 9.462)" fill="#1d2a56"/>
      <rect id="長方形_2832" data-name="長方形 2832" width="1.871" height="4.677" transform="translate(68.201 9.462) rotate(90)" fill="#1d2a56"/>
      <rect id="長方形_2833" data-name="長方形 2833" width="1.871" height="4.677" transform="translate(68.201 12.268) rotate(90)" fill="#1d2a56"/>
      <rect id="長方形_2834" data-name="長方形 2834" width="1.871" height="4.677" transform="translate(23.494 9.462)" fill="#1d2a56"/>
      <rect id="長方形_2835" data-name="長方形 2835" width="1.871" height="4.677" transform="translate(26.3 9.462)" fill="#1d2a56"/>
      <rect id="長方形_2836" data-name="長方形 2836" width="1.871" height="4.677" transform="translate(33.903 9.462) rotate(90)" fill="#1d2a56"/>
      <rect id="長方形_2837" data-name="長方形 2837" width="1.871" height="4.677" transform="translate(33.903 12.268) rotate(90)" fill="#1d2a56"/>
      <rect id="長方形_2838" data-name="長方形 2838" width="1.871" height="4.677" transform="translate(34.944 9.462)" fill="#1d2a56"/>
      <rect id="長方形_2839" data-name="長方形 2839" width="1.871" height="4.677" transform="translate(37.75 9.462)" fill="#1d2a56"/>
      <rect id="長方形_2840" data-name="長方形 2840" width="1.871" height="4.677" transform="translate(45.35 9.462) rotate(90)" fill="#1d2a56"/>
      <rect id="長方形_2841" data-name="長方形 2841" width="1.871" height="4.677" transform="translate(45.35 12.268) rotate(90)" fill="#1d2a56"/>
      <rect id="長方形_2842" data-name="長方形 2842" width="1.871" height="4.677" transform="translate(0.543 9.462)" fill="#1d2a56"/>
      <rect id="長方形_2843" data-name="長方形 2843" width="1.871" height="4.677" transform="translate(3.349 9.462)" fill="#1d2a56"/>
      <rect id="長方形_2844" data-name="長方形 2844" width="1.871" height="4.677" transform="translate(10.949 9.462) rotate(90)" fill="#1d2a56"/>
      <rect id="長方形_2845" data-name="長方形 2845" width="1.871" height="4.677" transform="translate(10.949 12.268) rotate(90)" fill="#1d2a56"/>
      <rect id="長方形_2846" data-name="長方形 2846" width="1.871" height="4.677" transform="translate(11.99 9.462)" fill="#1d2a56"/>
      <rect id="長方形_2847" data-name="長方形 2847" width="1.871" height="4.677" transform="translate(14.796 9.462)" fill="#1d2a56"/>
      <rect id="長方形_2848" data-name="長方形 2848" width="1.871" height="4.677" transform="translate(22.399 9.462) rotate(90)" fill="#1d2a56"/>
      <rect id="長方形_2849" data-name="長方形 2849" width="1.871" height="4.677" transform="translate(22.399 12.268) rotate(90)" fill="#1d2a56"/>
      <rect id="長方形_2850" data-name="長方形 2850" width="1.871" height="4.677" transform="translate(-22.308 9.462)" fill="#1d2a56"/>
      <rect id="長方形_2851" data-name="長方形 2851" width="1.871" height="4.677" transform="translate(-19.502 9.462)" fill="#1d2a56"/>
      <rect id="長方形_2852" data-name="長方形 2852" width="1.871" height="4.677" transform="translate(-11.901 9.462) rotate(90)" fill="#1d2a56"/>
      <rect id="長方形_2853" data-name="長方形 2853" width="1.871" height="4.677" transform="translate(-11.901 12.268) rotate(90)" fill="#1d2a56"/>
      <rect id="長方形_2854" data-name="長方形 2854" width="1.871" height="4.677" transform="translate(-10.861 9.462)" fill="#1d2a56"/>
      <rect id="長方形_2855" data-name="長方形 2855" width="1.871" height="4.677" transform="translate(-8.054 9.462)" fill="#1d2a56"/>
      <rect id="長方形_2856" data-name="長方形 2856" width="1.871" height="4.677" transform="translate(-0.454 9.462) rotate(90)" fill="#1d2a56"/>
      <rect id="長方形_2857" data-name="長方形 2857" width="1.871" height="4.677" transform="translate(-0.454 12.268) rotate(90)" fill="#1d2a56"/>
      <rect id="長方形_2858" data-name="長方形 2858" width="1.871" height="4.677" transform="translate(40.58 14.955)" fill="#1d2a56"/>
      <rect id="長方形_2859" data-name="長方形 2859" width="1.871" height="4.677" transform="translate(43.386 14.955)" fill="#1d2a56"/>
      <rect id="長方形_2860" data-name="長方形 2860" width="1.871" height="4.677" transform="translate(50.986 14.953) rotate(90)" fill="#1d2a56"/>
      <rect id="長方形_2861" data-name="長方形 2861" width="1.871" height="4.677" transform="translate(50.986 17.759) rotate(90)" fill="#1d2a56"/>
      <rect id="長方形_2862" data-name="長方形 2862" width="1.871" height="4.677" transform="translate(52.027 14.955)" fill="#1d2a56"/>
      <rect id="長方形_2863" data-name="長方形 2863" width="1.871" height="4.677" transform="translate(54.833 14.955)" fill="#1d2a56"/>
      <rect id="長方形_2864" data-name="長方形 2864" width="1.871" height="4.677" transform="translate(62.434 14.955) rotate(90)" fill="#1d2a56"/>
      <rect id="長方形_2865" data-name="長方形 2865" width="1.871" height="4.677" transform="translate(62.434 17.762) rotate(90)" fill="#1d2a56"/>
      <rect id="長方形_2866" data-name="長方形 2866" width="1.871" height="4.677" transform="translate(17.727 14.955)" fill="#1d2a56"/>
      <rect id="長方形_2867" data-name="長方形 2867" width="1.871" height="4.677" transform="translate(20.533 14.955)" fill="#1d2a56"/>
      <rect id="長方形_2868" data-name="長方形 2868" width="1.871" height="4.677" transform="translate(28.136 14.955) rotate(90)" fill="#1d2a56"/>
      <rect id="長方形_2869" data-name="長方形 2869" width="1.871" height="4.677" transform="translate(28.136 17.762) rotate(90)" fill="#1d2a56"/>
      <rect id="長方形_2870" data-name="長方形 2870" width="1.871" height="4.677" transform="translate(29.177 14.955)" fill="#1d2a56"/>
      <rect id="長方形_2871" data-name="長方形 2871" width="1.871" height="4.677" transform="translate(31.983 14.955)" fill="#1d2a56"/>
      <rect id="長方形_2872" data-name="長方形 2872" width="1.871" height="4.677" transform="translate(39.583 14.955) rotate(90)" fill="#1d2a56"/>
      <rect id="長方形_2873" data-name="長方形 2873" width="1.871" height="4.677" transform="translate(39.583 17.762) rotate(90)" fill="#1d2a56"/>
      <rect id="長方形_2874" data-name="長方形 2874" width="1.871" height="4.677" transform="translate(-5.224 14.955)" fill="#1d2a56"/>
      <rect id="長方形_2875" data-name="長方形 2875" width="1.871" height="4.677" transform="translate(-2.418 14.955)" fill="#1d2a56"/>
      <rect id="長方形_2876" data-name="長方形 2876" width="1.871" height="4.677" transform="translate(5.182 14.955) rotate(90)" fill="#1d2a56"/>
      <rect id="長方形_2877" data-name="長方形 2877" width="1.871" height="4.677" transform="translate(5.182 17.762) rotate(90)" fill="#1d2a56"/>
      <rect id="長方形_2878" data-name="長方形 2878" width="1.871" height="4.677" transform="translate(6.223 14.955)" fill="#1d2a56"/>
      <rect id="長方形_2879" data-name="長方形 2879" width="1.871" height="4.677" transform="translate(9.029 14.955)" fill="#1d2a56"/>
      <rect id="長方形_2880" data-name="長方形 2880" width="1.871" height="4.677" transform="translate(16.632 14.955) rotate(90)" fill="#1d2a56"/>
      <rect id="長方形_2881" data-name="長方形 2881" width="1.871" height="4.677" transform="translate(16.632 17.762) rotate(90)" fill="#1d2a56"/>
      <rect id="長方形_2882" data-name="長方形 2882" width="1.871" height="4.677" transform="translate(-28.075 14.955)" fill="#1d2a56"/>
      <rect id="長方形_2883" data-name="長方形 2883" width="1.871" height="4.677" transform="translate(-25.269 14.955)" fill="#1d2a56"/>
      <rect id="長方形_2884" data-name="長方形 2884" width="1.871" height="4.677" transform="translate(-17.668 14.955) rotate(90)" fill="#1d2a56"/>
      <rect id="長方形_2885" data-name="長方形 2885" width="1.871" height="4.677" transform="translate(-17.668 17.762) rotate(90)" fill="#1d2a56"/>
      <rect id="長方形_2886" data-name="長方形 2886" width="1.871" height="4.677" transform="translate(-16.628 14.955)" fill="#1d2a56"/>
      <rect id="長方形_2887" data-name="長方形 2887" width="1.871" height="4.677" transform="translate(-13.821 14.955)" fill="#1d2a56"/>
      <rect id="長方形_2888" data-name="長方形 2888" width="1.871" height="4.677" transform="translate(-6.221 14.955) rotate(90)" fill="#1d2a56"/>
      <rect id="長方形_2889" data-name="長方形 2889" width="1.871" height="4.677" transform="translate(-6.221 17.762) rotate(90)" fill="#1d2a56"/>
      <rect id="長方形_2890" data-name="長方形 2890" width="1.871" height="4.677" transform="translate(46.246 20.439)" fill="#1d2a56"/>
      <rect id="長方形_2891" data-name="長方形 2891" width="1.871" height="4.677" transform="translate(49.052 20.439)" fill="#1d2a56"/>
      <rect id="長方形_2892" data-name="長方形 2892" width="1.871" height="4.677" transform="translate(56.653 20.439) rotate(90)" fill="#1d2a56"/>
      <rect id="長方形_2893" data-name="長方形 2893" width="1.871" height="4.677" transform="translate(56.653 23.246) rotate(90)" fill="#1d2a56"/>
      <rect id="長方形_2894" data-name="長方形 2894" width="1.871" height="4.677" transform="translate(57.696 20.439)" fill="#1d2a56"/>
      <rect id="長方形_2895" data-name="長方形 2895" width="1.871" height="4.677" transform="translate(60.502 20.439)" fill="#1d2a56"/>
      <rect id="長方形_2896" data-name="長方形 2896" width="1.871" height="4.677" transform="translate(68.1 20.439) rotate(90)" fill="#1d2a56"/>
      <rect id="長方形_2897" data-name="長方形 2897" width="1.871" height="4.677" transform="translate(68.1 23.246) rotate(90)" fill="#1d2a56"/>
      <rect id="長方形_2898" data-name="長方形 2898" width="1.871" height="4.677" transform="translate(23.395 20.439)" fill="#1d2a56"/>
      <rect id="長方形_2899" data-name="長方形 2899" width="1.871" height="4.677" transform="translate(26.202 20.439)" fill="#1d2a56"/>
      <rect id="長方形_2900" data-name="長方形 2900" width="1.871" height="4.677" transform="translate(33.802 20.437) rotate(90)" fill="#1d2a56"/>
      <rect id="長方形_2901" data-name="長方形 2901" width="1.871" height="4.677" transform="translate(33.802 23.243) rotate(90)" fill="#1d2a56"/>
      <rect id="長方形_2902" data-name="長方形 2902" width="1.871" height="4.677" transform="translate(34.843 20.439)" fill="#1d2a56"/>
      <rect id="長方形_2903" data-name="長方形 2903" width="1.871" height="4.677" transform="translate(37.649 20.439)" fill="#1d2a56"/>
      <rect id="長方形_2904" data-name="長方形 2904" width="1.871" height="4.677" transform="translate(45.25 20.439) rotate(90)" fill="#1d2a56"/>
      <rect id="長方形_2905" data-name="長方形 2905" width="1.871" height="4.677" transform="translate(45.25 23.246) rotate(90)" fill="#1d2a56"/>
      <rect id="長方形_2906" data-name="長方形 2906" width="1.871" height="4.677" transform="translate(0.444 20.439)" fill="#1d2a56"/>
      <rect id="長方形_2907" data-name="長方形 2907" width="1.871" height="4.677" transform="translate(3.251 20.439)" fill="#1d2a56"/>
      <rect id="長方形_2908" data-name="長方形 2908" width="1.871" height="4.677" transform="translate(10.849 20.439) rotate(90)" fill="#1d2a56"/>
      <rect id="長方形_2909" data-name="長方形 2909" width="1.871" height="4.677" transform="translate(10.849 23.246) rotate(90)" fill="#1d2a56"/>
      <rect id="長方形_2910" data-name="長方形 2910" width="1.871" height="4.677" transform="translate(11.892 20.439)" fill="#1d2a56"/>
      <rect id="長方形_2911" data-name="長方形 2911" width="1.871" height="4.677" transform="translate(14.698 20.439)" fill="#1d2a56"/>
      <rect id="長方形_2912" data-name="長方形 2912" width="1.871" height="4.677" transform="translate(22.299 20.437) rotate(90)" fill="#1d2a56"/>
      <rect id="長方形_2913" data-name="長方形 2913" width="1.871" height="4.677" transform="translate(22.299 23.243) rotate(90)" fill="#1d2a56"/>
      <rect id="長方形_2914" data-name="長方形 2914" width="1.871" height="4.677" transform="translate(-22.409 20.439)" fill="#1d2a56"/>
      <rect id="長方形_2915" data-name="長方形 2915" width="1.871" height="4.677" transform="translate(-19.602 20.439)" fill="#1d2a56"/>
      <rect id="長方形_2916" data-name="長方形 2916" width="1.871" height="4.677" transform="translate(-12.002 20.439) rotate(90)" fill="#1d2a56"/>
      <rect id="長方形_2917" data-name="長方形 2917" width="1.871" height="4.677" transform="translate(-12.002 23.246) rotate(90)" fill="#1d2a56"/>
      <rect id="長方形_2918" data-name="長方形 2918" width="1.871" height="4.677" transform="translate(-10.961 20.439)" fill="#1d2a56"/>
      <rect id="長方形_2919" data-name="長方形 2919" width="1.871" height="4.677" transform="translate(-8.155 20.439)" fill="#1d2a56"/>
      <rect id="長方形_2920" data-name="長方形 2920" width="1.871" height="4.677" transform="translate(-0.554 20.439) rotate(90)" fill="#1d2a56"/>
      <rect id="長方形_2921" data-name="長方形 2921" width="1.871" height="4.677" transform="translate(-0.554 23.246) rotate(90)" fill="#1d2a56"/>
      <rect id="長方形_2922" data-name="長方形 2922" width="1.871" height="4.677" transform="translate(40.4 25.818)" fill="#1d2a56"/>
      <rect id="長方形_2923" data-name="長方形 2923" width="1.871" height="4.677" transform="translate(43.206 25.818)" fill="#1d2a56"/>
      <rect id="長方形_2924" data-name="長方形 2924" width="1.871" height="4.677" transform="translate(50.806 25.818) rotate(90)" fill="#1d2a56"/>
      <rect id="長方形_2925" data-name="長方形 2925" width="1.871" height="4.677" transform="translate(50.806 28.625) rotate(90)" fill="#1d2a56"/>
      <rect id="長方形_2926" data-name="長方形 2926" width="1.871" height="4.677" transform="translate(51.849 25.818)" fill="#1d2a56"/>
      <rect id="長方形_2927" data-name="長方形 2927" width="1.871" height="4.677" transform="translate(54.656 25.818)" fill="#1d2a56"/>
      <rect id="長方形_2928" data-name="長方形 2928" width="1.871" height="4.677" transform="translate(62.254 25.818) rotate(90)" fill="#1d2a56"/>
      <rect id="長方形_2929" data-name="長方形 2929" width="1.871" height="4.677" transform="translate(62.254 28.625) rotate(90)" fill="#1d2a56"/>
      <rect id="長方形_2930" data-name="長方形 2930" width="1.871" height="4.677" transform="translate(17.549 25.818)" fill="#1d2a56"/>
      <rect id="長方形_2931" data-name="長方形 2931" width="1.871" height="4.677" transform="translate(20.355 25.818)" fill="#1d2a56"/>
      <rect id="長方形_2932" data-name="長方形 2932" width="1.871" height="4.677" transform="translate(27.956 25.816) rotate(90)" fill="#1d2a56"/>
      <rect id="長方形_2933" data-name="長方形 2933" width="1.871" height="4.677" transform="translate(27.956 28.622) rotate(90)" fill="#1d2a56"/>
      <rect id="長方形_2934" data-name="長方形 2934" width="1.871" height="4.677" transform="translate(28.996 25.818)" fill="#1d2a56"/>
      <rect id="長方形_2935" data-name="長方形 2935" width="1.871" height="4.677" transform="translate(31.803 25.818)" fill="#1d2a56"/>
      <rect id="長方形_2936" data-name="長方形 2936" width="1.871" height="4.677" transform="translate(39.403 25.818) rotate(90)" fill="#1d2a56"/>
      <rect id="長方形_2937" data-name="長方形 2937" width="1.871" height="4.677" transform="translate(39.403 28.625) rotate(90)" fill="#1d2a56"/>
      <rect id="長方形_2938" data-name="長方形 2938" width="1.871" height="4.677" transform="translate(-5.402 25.818)" fill="#1d2a56"/>
      <rect id="長方形_2939" data-name="長方形 2939" width="1.871" height="4.677" transform="translate(-2.596 25.818)" fill="#1d2a56"/>
      <rect id="長方形_2940" data-name="長方形 2940" width="1.871" height="4.677" transform="translate(5.002 25.818) rotate(90)" fill="#1d2a56"/>
      <rect id="長方形_2941" data-name="長方形 2941" width="1.871" height="4.677" transform="translate(5.002 28.625) rotate(90)" fill="#1d2a56"/>
      <rect id="長方形_2942" data-name="長方形 2942" width="1.871" height="4.677" transform="translate(6.045 25.818)" fill="#1d2a56"/>
      <rect id="長方形_2943" data-name="長方形 2943" width="1.871" height="4.677" transform="translate(8.852 25.818)" fill="#1d2a56"/>
      <rect id="長方形_2944" data-name="長方形 2944" width="1.871" height="4.677" transform="translate(16.452 25.816) rotate(90)" fill="#1d2a56"/>
      <rect id="長方形_2945" data-name="長方形 2945" width="1.871" height="4.677" transform="translate(16.452 28.622) rotate(90)" fill="#1d2a56"/>
      <rect id="長方形_2946" data-name="長方形 2946" width="1.871" height="4.677" transform="translate(-28.255 25.818)" fill="#1d2a56"/>
      <rect id="長方形_2947" data-name="長方形 2947" width="1.871" height="4.677" transform="translate(-25.449 25.818)" fill="#1d2a56"/>
      <rect id="長方形_2948" data-name="長方形 2948" width="1.871" height="4.677" transform="translate(-17.848 25.818) rotate(90)" fill="#1d2a56"/>
      <rect id="長方形_2949" data-name="長方形 2949" width="1.871" height="4.677" transform="translate(-17.848 28.625) rotate(90)" fill="#1d2a56"/>
      <rect id="長方形_2950" data-name="長方形 2950" width="1.871" height="4.677" transform="translate(-16.808 25.818)" fill="#1d2a56"/>
      <rect id="長方形_2951" data-name="長方形 2951" width="1.871" height="4.677" transform="translate(-14.001 25.818)" fill="#1d2a56"/>
      <rect id="長方形_2952" data-name="長方形 2952" width="1.871" height="4.677" transform="translate(-6.401 25.818) rotate(90)" fill="#1d2a56"/>
      <rect id="長方形_2953" data-name="長方形 2953" width="1.871" height="4.677" transform="translate(-6.401 28.625) rotate(90)" fill="#1d2a56"/>
      <rect id="長方形_2954" data-name="長方形 2954" width="1.871" height="4.677" transform="translate(46.064 31.19)" fill="#1d2a56"/>
      <rect id="長方形_2955" data-name="長方形 2955" width="1.871" height="4.677" transform="translate(48.87 31.19)" fill="#1d2a56"/>
      <rect id="長方形_2956" data-name="長方形 2956" width="1.871" height="4.677" transform="translate(56.468 31.19) rotate(90)" fill="#1d2a56"/>
      <rect id="長方形_2957" data-name="長方形 2957" width="1.871" height="4.677" transform="translate(56.468 33.996) rotate(90)" fill="#1d2a56"/>
      <rect id="長方形_2958" data-name="長方形 2958" width="1.871" height="4.677" transform="translate(57.511 31.19)" fill="#1d2a56"/>
      <rect id="長方形_2959" data-name="長方形 2959" width="1.871" height="4.677" transform="translate(60.318 31.19)" fill="#1d2a56"/>
      <rect id="長方形_2960" data-name="長方形 2960" width="1.871" height="4.677" transform="translate(67.918 31.19) rotate(90)" fill="#1d2a56"/>
      <rect id="長方形_2961" data-name="長方形 2961" width="1.871" height="4.677" transform="translate(67.918 33.996) rotate(90)" fill="#1d2a56"/>
      <rect id="長方形_2962" data-name="長方形 2962" width="1.871" height="4.677" transform="translate(23.211 31.19)" fill="#1d2a56"/>
      <rect id="長方形_2963" data-name="長方形 2963" width="1.871" height="4.677" transform="translate(26.017 31.19)" fill="#1d2a56"/>
      <rect id="長方形_2964" data-name="長方形 2964" width="1.871" height="4.677" transform="translate(33.618 31.192) rotate(90)" fill="#1d2a56"/>
      <rect id="長方形_2965" data-name="長方形 2965" width="1.871" height="4.677" transform="translate(33.618 33.999) rotate(90)" fill="#1d2a56"/>
      <rect id="長方形_2966" data-name="長方形 2966" width="1.871" height="4.677" transform="translate(34.658 31.19)" fill="#1d2a56"/>
      <rect id="長方形_2967" data-name="長方形 2967" width="1.871" height="4.677" transform="translate(37.465 31.19)" fill="#1d2a56"/>
      <rect id="長方形_2968" data-name="長方形 2968" width="1.871" height="4.677" transform="translate(45.065 31.192) rotate(90)" fill="#1d2a56"/>
      <rect id="長方形_2969" data-name="長方形 2969" width="1.871" height="4.677" transform="translate(45.065 33.999) rotate(90)" fill="#1d2a56"/>
      <rect id="長方形_2970" data-name="長方形 2970" width="1.871" height="4.677" transform="translate(0.26 31.19)" fill="#1d2a56"/>
      <rect id="長方形_2971" data-name="長方形 2971" width="1.871" height="4.677" transform="translate(3.066 31.19)" fill="#1d2a56"/>
      <rect id="長方形_2972" data-name="長方形 2972" width="1.871" height="4.677" transform="translate(10.666 31.19) rotate(90)" fill="#1d2a56"/>
      <rect id="長方形_2973" data-name="長方形 2973" width="1.871" height="4.677" transform="translate(10.666 33.996) rotate(90)" fill="#1d2a56"/>
      <rect id="長方形_2974" data-name="長方形 2974" width="1.871" height="4.677" transform="translate(11.707 31.19)" fill="#1d2a56"/>
      <rect id="長方形_2975" data-name="長方形 2975" width="1.871" height="4.677" transform="translate(14.513 31.19)" fill="#1d2a56"/>
      <rect id="長方形_2976" data-name="長方形 2976" width="1.871" height="4.677" transform="translate(22.114 31.192) rotate(90)" fill="#1d2a56"/>
      <rect id="長方形_2977" data-name="長方形 2977" width="1.871" height="4.677" transform="translate(22.114 33.999) rotate(90)" fill="#1d2a56"/>
      <rect id="長方形_2978" data-name="長方形 2978" width="1.871" height="4.677" transform="translate(-22.593 31.19)" fill="#1d2a56"/>
      <rect id="長方形_2979" data-name="長方形 2979" width="1.871" height="4.677" transform="translate(-19.787 31.19)" fill="#1d2a56"/>
      <rect id="長方形_2980" data-name="長方形 2980" width="1.871" height="4.677" transform="translate(-12.187 31.192) rotate(90)" fill="#1d2a56"/>
      <rect id="長方形_2981" data-name="長方形 2981" width="1.871" height="4.677" transform="translate(-12.187 33.999) rotate(90)" fill="#1d2a56"/>
      <rect id="長方形_2982" data-name="長方形 2982" width="1.871" height="4.677" transform="translate(-11.146 31.19)" fill="#1d2a56"/>
      <rect id="長方形_2983" data-name="長方形 2983" width="1.871" height="4.677" transform="translate(-8.339 31.19)" fill="#1d2a56"/>
      <rect id="長方形_2984" data-name="長方形 2984" width="1.871" height="4.677" transform="translate(-0.739 31.19) rotate(90)" fill="#1d2a56"/>
      <rect id="長方形_2985" data-name="長方形 2985" width="1.871" height="4.677" transform="translate(-0.739 33.996) rotate(90)" fill="#1d2a56"/>
      <rect id="長方形_2986" data-name="長方形 2986" width="1.871" height="4.677" transform="translate(40.451 36.569)" fill="#1d2a56"/>
      <rect id="長方形_2987" data-name="長方形 2987" width="1.871" height="4.677" transform="translate(43.257 36.569)" fill="#1d2a56"/>
      <rect id="長方形_2988" data-name="長方形 2988" width="1.871" height="4.677" transform="translate(50.855 36.569) rotate(90)" fill="#1d2a56"/>
      <rect id="長方形_2989" data-name="長方形 2989" width="1.871" height="4.677" transform="translate(50.855 39.375) rotate(90)" fill="#1d2a56"/>
      <rect id="長方形_2990" data-name="長方形 2990" width="1.871" height="4.677" transform="translate(51.899 36.569)" fill="#1d2a56"/>
      <rect id="長方形_2991" data-name="長方形 2991" width="1.871" height="4.677" transform="translate(54.705 36.569)" fill="#1d2a56"/>
      <rect id="長方形_2992" data-name="長方形 2992" width="1.871" height="4.677" transform="translate(62.305 36.569) rotate(90)" fill="#1d2a56"/>
      <rect id="長方形_2993" data-name="長方形 2993" width="1.871" height="4.677" transform="translate(62.305 39.375) rotate(90)" fill="#1d2a56"/>
      <rect id="長方形_2994" data-name="長方形 2994" width="1.871" height="4.677" transform="translate(17.598 36.569)" fill="#1d2a56"/>
      <rect id="長方形_2995" data-name="長方形 2995" width="1.871" height="4.677" transform="translate(20.404 36.569)" fill="#1d2a56"/>
      <rect id="長方形_2996" data-name="長方形 2996" width="1.871" height="4.677" transform="translate(28.005 36.571) rotate(90)" fill="#1d2a56"/>
      <rect id="長方形_2997" data-name="長方形 2997" width="1.871" height="4.677" transform="translate(28.005 39.378) rotate(90)" fill="#1d2a56"/>
      <rect id="長方形_2998" data-name="長方形 2998" width="1.871" height="4.677" transform="translate(29.046 36.569)" fill="#1d2a56"/>
      <rect id="長方形_2999" data-name="長方形 2999" width="1.871" height="4.677" transform="translate(31.852 36.569)" fill="#1d2a56"/>
      <rect id="長方形_3000" data-name="長方形 3000" width="1.871" height="4.677" transform="translate(39.452 36.571) rotate(90)" fill="#1d2a56"/>
      <rect id="長方形_3001" data-name="長方形 3001" width="1.871" height="4.677" transform="translate(39.452 39.378) rotate(90)" fill="#1d2a56"/>
      <rect id="長方形_3002" data-name="長方形 3002" width="1.871" height="4.677" transform="translate(-5.353 36.569)" fill="#1d2a56"/>
      <rect id="長方形_3003" data-name="長方形 3003" width="1.871" height="4.677" transform="translate(-2.547 36.569)" fill="#1d2a56"/>
      <rect id="長方形_3004" data-name="長方形 3004" width="1.871" height="4.677" transform="translate(5.054 36.569) rotate(90)" fill="#1d2a56"/>
      <rect id="長方形_3005" data-name="長方形 3005" width="1.871" height="4.677" transform="translate(5.054 39.375) rotate(90)" fill="#1d2a56"/>
      <rect id="長方形_3006" data-name="長方形 3006" width="1.871" height="4.677" transform="translate(6.094 36.569)" fill="#1d2a56"/>
      <rect id="長方形_3007" data-name="長方形 3007" width="1.871" height="4.677" transform="translate(8.901 36.569)" fill="#1d2a56"/>
      <rect id="長方形_3008" data-name="長方形 3008" width="1.871" height="4.677" transform="translate(16.501 36.571) rotate(90)" fill="#1d2a56"/>
      <rect id="長方形_3009" data-name="長方形 3009" width="1.871" height="4.677" transform="translate(16.501 39.378) rotate(90)" fill="#1d2a56"/>
      <rect id="長方形_3010" data-name="長方形 3010" width="1.871" height="4.677" transform="translate(-28.206 36.569)" fill="#1d2a56"/>
      <rect id="長方形_3011" data-name="長方形 3011" width="1.871" height="4.677" transform="translate(-25.4 36.569)" fill="#1d2a56"/>
      <rect id="長方形_3012" data-name="長方形 3012" width="1.871" height="4.677" transform="translate(-17.799 36.571) rotate(90)" fill="#1d2a56"/>
      <rect id="長方形_3013" data-name="長方形 3013" width="1.871" height="4.677" transform="translate(-17.799 39.378) rotate(90)" fill="#1d2a56"/>
      <rect id="長方形_3014" data-name="長方形 3014" width="1.871" height="4.677" transform="translate(-16.759 36.569)" fill="#1d2a56"/>
      <rect id="長方形_3015" data-name="長方形 3015" width="1.871" height="4.677" transform="translate(-13.952 36.569)" fill="#1d2a56"/>
      <rect id="長方形_3016" data-name="長方形 3016" width="1.871" height="4.677" transform="translate(-6.352 36.569) rotate(90)" fill="#1d2a56"/>
      <rect id="長方形_3017" data-name="長方形 3017" width="1.871" height="4.677" transform="translate(-6.352 39.375) rotate(90)" fill="#1d2a56"/>
      <rect id="長方形_3018" data-name="長方形 3018" width="1.871" height="4.677" transform="translate(46.064 42.182)" fill="#1d2a56"/>
      <rect id="長方形_3019" data-name="長方形 3019" width="1.871" height="4.677" transform="translate(48.87 42.182)" fill="#1d2a56"/>
      <rect id="長方形_3020" data-name="長方形 3020" width="1.871" height="4.677" transform="translate(56.468 42.182) rotate(90)" fill="#1d2a56"/>
      <rect id="長方形_3021" data-name="長方形 3021" width="1.871" height="4.677" transform="translate(56.468 44.988) rotate(90)" fill="#1d2a56"/>
      <rect id="長方形_3022" data-name="長方形 3022" width="1.871" height="4.677" transform="translate(57.511 42.182)" fill="#1d2a56"/>
      <rect id="長方形_3023" data-name="長方形 3023" width="1.871" height="4.677" transform="translate(60.318 42.182)" fill="#1d2a56"/>
      <rect id="長方形_3024" data-name="長方形 3024" width="1.871" height="4.677" transform="translate(67.918 42.182) rotate(90)" fill="#1d2a56"/>
      <rect id="長方形_3025" data-name="長方形 3025" width="1.871" height="4.677" transform="translate(67.918 44.988) rotate(90)" fill="#1d2a56"/>
      <rect id="長方形_3026" data-name="長方形 3026" width="1.871" height="4.677" transform="translate(23.211 42.182)" fill="#1d2a56"/>
      <rect id="長方形_3027" data-name="長方形 3027" width="1.871" height="4.677" transform="translate(26.017 42.182)" fill="#1d2a56"/>
      <rect id="長方形_3028" data-name="長方形 3028" width="1.871" height="4.677" transform="translate(33.618 42.184) rotate(90)" fill="#1d2a56"/>
      <rect id="長方形_3029" data-name="長方形 3029" width="1.871" height="4.677" transform="translate(33.618 44.99) rotate(90)" fill="#1d2a56"/>
      <rect id="長方形_3030" data-name="長方形 3030" width="1.871" height="4.677" transform="translate(34.658 42.182)" fill="#1d2a56"/>
      <rect id="長方形_3031" data-name="長方形 3031" width="1.871" height="4.677" transform="translate(37.465 42.182)" fill="#1d2a56"/>
      <rect id="長方形_3032" data-name="長方形 3032" width="1.871" height="4.677" transform="translate(45.065 42.184) rotate(90)" fill="#1d2a56"/>
      <rect id="長方形_3033" data-name="長方形 3033" width="1.871" height="4.677" transform="translate(45.065 44.99) rotate(90)" fill="#1d2a56"/>
      <rect id="長方形_3034" data-name="長方形 3034" width="1.871" height="4.677" transform="translate(0.26 42.182)" fill="#1d2a56"/>
      <rect id="長方形_3035" data-name="長方形 3035" width="1.871" height="4.677" transform="translate(3.066 42.182)" fill="#1d2a56"/>
      <rect id="長方形_3036" data-name="長方形 3036" width="1.871" height="4.677" transform="translate(10.666 42.182) rotate(90)" fill="#1d2a56"/>
      <rect id="長方形_3037" data-name="長方形 3037" width="1.871" height="4.677" transform="translate(10.666 44.988) rotate(90)" fill="#1d2a56"/>
      <rect id="長方形_3038" data-name="長方形 3038" width="1.871" height="4.677" transform="translate(11.707 42.182)" fill="#1d2a56"/>
      <rect id="長方形_3039" data-name="長方形 3039" width="1.871" height="4.677" transform="translate(14.513 42.182)" fill="#1d2a56"/>
      <rect id="長方形_3040" data-name="長方形 3040" width="1.871" height="4.677" transform="translate(22.114 42.184) rotate(90)" fill="#1d2a56"/>
      <rect id="長方形_3041" data-name="長方形 3041" width="1.871" height="4.677" transform="translate(22.114 44.99) rotate(90)" fill="#1d2a56"/>
      <rect id="長方形_3042" data-name="長方形 3042" width="1.871" height="4.677" transform="translate(-22.593 42.182)" fill="#1d2a56"/>
      <rect id="長方形_3043" data-name="長方形 3043" width="1.871" height="4.677" transform="translate(-19.787 42.182)" fill="#1d2a56"/>
      <rect id="長方形_3044" data-name="長方形 3044" width="1.871" height="4.677" transform="translate(-12.187 42.184) rotate(90)" fill="#1d2a56"/>
      <rect id="長方形_3045" data-name="長方形 3045" width="1.871" height="4.677" transform="translate(-12.187 44.99) rotate(90)" fill="#1d2a56"/>
      <rect id="長方形_3046" data-name="長方形 3046" width="1.871" height="4.677" transform="translate(-11.146 42.182)" fill="#1d2a56"/>
      <rect id="長方形_3047" data-name="長方形 3047" width="1.871" height="4.677" transform="translate(-8.339 42.182)" fill="#1d2a56"/>
      <rect id="長方形_3048" data-name="長方形 3048" width="1.871" height="4.677" transform="translate(-0.739 42.182) rotate(90)" fill="#1d2a56"/>
      <rect id="長方形_3049" data-name="長方形 3049" width="1.871" height="4.677" transform="translate(-0.739 44.988) rotate(90)" fill="#1d2a56"/>
    </g>
  </g>
</svg>
