<svg xmlns="http://www.w3.org/2000/svg" width="45" height="45" viewBox="0 0 45 45">
  <path id="instagram" d="M31.831,0a12.933,12.933,0,0,1,9.522,3.711,13.008,13.008,0,0,1,3.636,9.447V31.83a13.038,13.038,0,0,1-3.711,9.615,13.383,13.383,0,0,1-9.522,3.543H13.237a13.233,13.233,0,0,1-9.428-3.543A13.046,13.046,0,0,1,0,31.755V13.162C0,5.252,5.252,0,13.162,0Zm.094,4.18H13.237A9.253,9.253,0,0,0,6.621,6.526a9.034,9.034,0,0,0-2.437,6.635V31.755a9.141,9.141,0,0,0,2.437,6.71,9.372,9.372,0,0,0,6.616,2.343H31.756a9.372,9.372,0,0,0,6.616-2.343A8.866,8.866,0,0,0,41,31.83V13.162A9.372,9.372,0,0,0,38.56,6.62a9.034,9.034,0,0,0-6.635-2.437ZM22.5,10.8A11.621,11.621,0,1,1,10.875,22.421,11.692,11.692,0,0,1,22.5,10.8Zm0,4.161A7.441,7.441,0,1,0,29.938,22.4,7.479,7.479,0,0,0,22.5,14.961ZM34.567,7.895a2.624,2.624,0,1,1-2.624,2.624,2.624,2.624,0,0,1,2.624-2.624Z" transform="translate(0.005 0.004)" fill="#fff"/>
</svg>
