<svg xmlns="http://www.w3.org/2000/svg" width="1920" height="1434.283" viewBox="0 0 1920 1434.283">
  <g id="グループ_2510" data-name="グループ 2510" transform="translate(0 -4675)">
    <g id="グループ_2572" data-name="グループ 2572">
      <g id="Colored_Shapes_1_" data-name="Colored Shapes (1)" transform="translate(0 4675)">
        <rect id="長方形_3468" data-name="長方形 3468" width="1920" height="1434" fill="#f5f5f5"/>
        <path id="パス_5545" data-name="パス 5545" d="M764.25,812.91H778.2v41.91H764.25Z" transform="translate(0 467.723)" fill="#1d2a56"/>
        <path id="パス_5546" data-name="パス 5546" d="M1084.06,372.71h16.41v70.34h-16.41Z" transform="translate(0 194.568)" fill="#8abcd7"/>
        <path id="パス_5547" data-name="パス 5547" d="M482.32,374.01a60.6,60.6,0,1,0,60.6-60.6,60.6,60.6,0,0,0-60.6,60.6Z" transform="translate(0 173.458)" fill="none" stroke="#1d2a56" stroke-width="1"/>
        <path id="パス_5548" data-name="パス 5548" d="M307.59,837.18h11.38v11.38H307.59Z" transform="translate(0 467.723)" fill="none" stroke="#1d2a56" stroke-width="1"/>
        <path id="パス_5549" data-name="パス 5549" d="M1541.98,556.87a35.939,35.939,0,1,0,47.731-53.742Z" transform="translate(0 260.462)" fill="#8abcd7"/>
        <path id="パス_5550" data-name="パス 5550" d="M1312.81,151.08h81.18v81.18h-81.18Z" transform="translate(0 79.835)" fill="none" stroke="#1d2a56" stroke-width="1"/>
        <path id="パス_5551" data-name="パス 5551" d="M984.32,807.5h61.28v27.54H984.32Z" transform="translate(0 467.723)" fill="none" stroke="#8abcd7" stroke-width="1"/>
        <path id="パス_5552" data-name="パス 5552" d="M1658.41,776.78h79.31v79.31h-79.31Z" transform="translate(0 467.723)" fill="#8abcd7"/>
        <path id="パス_5553" data-name="パス 5553" d="M743.16,640.81a12.582,12.582,0,1,0-11.33,22.47Z" transform="translate(0 317.343)" fill="#8abcd7"/>
        <path id="パス_5554" data-name="パス 5554" d="M431.06,850.25h76.38V931.2H431.06Z" transform="translate(0 467.723)" fill="none" stroke="#1d2a56" stroke-width="1"/>
        <path id="パス_5555" data-name="パス 5555" d="M1707.29,105.97h21.13V127.1h-21.13Z" fill="none" stroke="#1d2a56" stroke-width="1"/>
        <path id="パス_5556" data-name="パス 5556" d="M417.37,371.1A92.489,92.489,0,1,0,518.491,525.992Z" transform="translate(0 217.959)" fill="#1d2a56"/>
        <path id="パス_5557" data-name="パス 5557" d="M587.95,82.17h35.79v35.79H587.95Z" fill="#1d2a56"/>
        <path id="パス_5558" data-name="パス 5558" d="M1795.26,25.76h47.72V70.83h-47.72Z" fill="#8abcd7"/>
        <path id="パス_5559" data-name="パス 5559" d="M702.76,536.48a20.731,20.731,0,0,0-25.05-33.04Z" transform="translate(0 251.332)" fill="none" stroke="#8abcd7" stroke-width="1"/>
        <path id="パス_5560" data-name="パス 5560" d="M73.41,584.1h48.85v20.55H73.41Z" transform="translate(0 288.867)" fill="none" stroke="#1d2a56" stroke-width="1"/>
        <path id="パス_5561" data-name="パス 5561" d="M278.55,208.06h56.76v56.76H278.55Z" transform="translate(0 106.993)" fill="#8abcd7"/>
        <path id="パス_5562" data-name="パス 5562" d="M1074.53,431.72a6.38,6.38,0,1,0,6.38-6.38,6.38,6.38,0,0,0-6.38,6.38Z" transform="translate(0 208.634)" fill="none" stroke="#1d2a56" stroke-width="1"/>
        <path id="パス_5563" data-name="パス 5563" d="M471.08,340.14a41.04,41.04,0,1,0,41.04-41.04,41.04,41.04,0,0,0-41.04,41.04Z" transform="translate(0 158.214)" fill="none" stroke="#8abcd7" stroke-width="1"/>
        <path id="パス_5564" data-name="パス 5564" d="M1666.63,588.33a52.01,52.01,0,1,0,52.01-52.01A52.01,52.01,0,0,0,1666.63,588.33Z" transform="translate(0 290.914)" fill="none" stroke="#1d2a56" stroke-width="1"/>
        <path id="パス_5565" data-name="パス 5565" d="M1289.04,260.81h77.03v87.64h-77.03Z" transform="translate(0 138.833)" fill="none" stroke="#1d2a56" stroke-width="1"/>
        <path id="パス_5566" data-name="パス 5566" d="M1122.46,833.63h54.37v58.54h-54.37Z" transform="translate(0 467.723)" fill="#8abcd7"/>
        <path id="パス_5567" data-name="パス 5567" d="M565.23,127.34a45.91,45.91,0,1,0,45.91-45.91,45.91,45.91,0,0,0-45.91,45.91Z" fill="none" stroke="#8abcd7" stroke-width="1"/>
        <path id="パス_5569" data-name="パス 5569" d="M1717.12,344.84h36.73v36.73h-36.73Z" transform="translate(0 173.509)" fill="none" stroke="#1d2a56" stroke-width="1"/>
      </g>
      <path id="パス_919" data-name="パス 919" d="M0,0H1920V1434.283H0Z" transform="translate(0 4675)" fill="#f5f5f5" opacity="0.9"/>
    </g>
  </g>
</svg>
