<svg xmlns="http://www.w3.org/2000/svg" xmlns:xlink="http://www.w3.org/1999/xlink" width="412" height="412" viewBox="0 0 412 412">
  <defs>
    <filter id="楕円形_371" x="0" y="0" width="412" height="412" filterUnits="userSpaceOnUse">
      <feOffset dx="5" dy="5" input="SourceAlpha"/>
      <feGaussianBlur stdDeviation="5" result="blur"/>
      <feFlood flood-opacity="0.161"/>
      <feComposite operator="in" in2="blur"/>
      <feComposite in="SourceGraphic"/>
    </filter>
  </defs>
  <g id="グループ_2576" data-name="グループ 2576" transform="translate(-11671 -14743)">
    <g id="グループ_2502" data-name="グループ 2502" transform="translate(10286 12804)">
      <g transform="matrix(1, 0, 0, 1, 1385, 1939)" filter="url(#楕円形_371)">
        <circle id="楕円形_371-2" data-name="楕円形 371" cx="191" cy="191" r="191" transform="translate(10 10)" fill="#fff"/>
      </g>
    </g>
    <g id="グループ_2509" data-name="グループ 2509" transform="translate(-13 -12.627)">
      <g id="Business_deal-amico" data-name="Business deal-amico" transform="translate(11759.313 14846.552)">
        <g id="freepik--Floor--inject-37" transform="translate(0 92.975)">
          <ellipse id="freepik--floor--inject-37-2" data-name="freepik--floor--inject-37" cx="128.91" cy="74.425" rx="128.91" ry="74.425" fill="#f5f5f5"/>
        </g>
        <g id="freepik--Shadows--inject-37" transform="translate(10.974 106.798)">
          <ellipse id="freepik--Shadow--inject-37" cx="33.294" cy="19.221" rx="33.294" ry="19.221" transform="translate(147.828 67.572)" fill="#e0e0e0"/>
          <ellipse id="freepik--shadow--inject-37-2" data-name="freepik--shadow--inject-37" cx="33.613" cy="19.408" rx="33.613" ry="19.408" transform="translate(67.051 68.951)" fill="#e0e0e0"/>
          <path id="freepik--shadow--inject-37-3" data-name="freepik--shadow--inject-37" d="M80.072,321.858,28.5,292.095,135.51,230.31l51.572,29.764Z" transform="translate(-28.5 -230.31)" fill="#e0e0e0"/>
        </g>
        <g id="freepik--Chair--inject-37" transform="translate(7.012 42.924)">
          <g id="freepik--chair--inject-37-2" data-name="freepik--chair--inject-37" transform="translate(0 0)">
            <path id="パス_4379" data-name="パス 4379" d="M66.59,299.128a2.662,2.662,0,0,0,.064.57,1.294,1.294,0,0,0,.532.793h0a1.485,1.485,0,0,0,1.6-.122,4.792,4.792,0,0,0,2.151-3.722,1.544,1.544,0,0,0-.612-1.379h0l-.106-.059h0a1.331,1.331,0,0,0-.926-.037,2.631,2.631,0,0,0-.532.229A4.792,4.792,0,0,0,66.59,299.128Z" transform="translate(-42.348 -196.733)" fill="#455a64"/>
            <path id="パス_4380" data-name="パス 4380" d="M65.83,293.633a1.96,1.96,0,0,1,.964-.293,1.124,1.124,0,0,1,.612.17l.059.032,1.4.809a1.331,1.331,0,0,0-.926-.037,2.633,2.633,0,0,0-.532.229,4.792,4.792,0,0,0-2.172,3.759,2.662,2.662,0,0,0,.064.57,1.294,1.294,0,0,0,.532.793l-1.443-.831h0l-.122-.075a.08.08,0,0,1-.037-.027,1.6,1.6,0,0,1-.532-1.331,4.792,4.792,0,0,1,2.135-3.77Z" transform="translate(-40.991 -195.907)" fill="#263238"/>
            <path id="パス_4381" data-name="パス 4381" d="M110.73,275.365a2.663,2.663,0,0,0,.059.57,1.3,1.3,0,0,0,.532.793h0a1.486,1.486,0,0,0,1.6-.122,4.792,4.792,0,0,0,2.172-3.759,1.539,1.539,0,0,0-.607-1.379h0l-.106-.064h0a1.363,1.363,0,0,0-.926-.032,2.629,2.629,0,0,0-.532.229,4.792,4.792,0,0,0-2.188,3.764Z" transform="translate(-62.986 -185.605)" fill="#455a64"/>
            <path id="パス_4382" data-name="パス 4382" d="M109.96,269.9a1.959,1.959,0,0,1,.969-.293,1.118,1.118,0,0,1,.607.17l.059.032,1.4.8a1.363,1.363,0,0,0-.926-.032,2.629,2.629,0,0,0-.532.229,4.792,4.792,0,0,0-2.167,3.759,2.663,2.663,0,0,0,.059.57,1.3,1.3,0,0,0,.532.793l-1.443-.831h0l-.122-.075h-.037a1.6,1.6,0,0,1-.532-1.331A4.792,4.792,0,0,1,109.96,269.9Z" transform="translate(-61.625 -184.812)" fill="#263238"/>
            <path id="パス_4383" data-name="パス 4383" d="M99.015,308.363a2.624,2.624,0,0,1-.059.564,1.315,1.315,0,0,1-.532.8h0a1.507,1.507,0,0,1-1.6-.122,4.792,4.792,0,0,1-2.172-3.764,1.539,1.539,0,0,1,.612-1.374h0l.106-.064h0a1.347,1.347,0,0,1,.921-.037,2.2,2.2,0,0,1,.532.234A4.792,4.792,0,0,1,99.015,308.363Z" transform="translate(-55.466 -201.032)" fill="#455a64"/>
            <path id="パス_4384" data-name="パス 4384" d="M99.056,302.9a1.975,1.975,0,0,0-.969-.293,1.15,1.15,0,0,0-.612.17l-.053.027L96,303.616a1.347,1.347,0,0,1,.921-.037,2.2,2.2,0,0,1,.532.234,4.792,4.792,0,0,1,2.172,3.759,2.625,2.625,0,0,1-.059.564,1.315,1.315,0,0,1-.532.8l1.438-.836h0l.122-.075h.037a1.6,1.6,0,0,0,.532-1.336,4.792,4.792,0,0,0-2.108-3.786Z" transform="translate(-56.099 -200.241)" fill="#263238"/>
            <path id="パス_4385" data-name="パス 4385" d="M127.665,294.332a3.073,3.073,0,0,1-.059.57,1.336,1.336,0,0,1-.532.8h0a1.518,1.518,0,0,1-1.6-.122,4.792,4.792,0,0,1-2.172-3.764,1.534,1.534,0,0,1,.612-1.374h0l.1-.059h0a1.347,1.347,0,0,1,.921-.037,2.289,2.289,0,0,1,.532.234A4.792,4.792,0,0,1,127.665,294.332Z" transform="translate(-68.862 -194.476)" fill="#455a64"/>
            <path id="パス_4386" data-name="パス 4386" d="M127.725,288.863a2.05,2.05,0,0,0-.969-.293,1.171,1.171,0,0,0-.612.17l-.053.032-1.4.809a1.347,1.347,0,0,1,.921-.037,2.289,2.289,0,0,1,.532.234,4.792,4.792,0,0,1,2.172,3.754,3.071,3.071,0,0,1-.059.57,1.336,1.336,0,0,1-.532.8l1.438-.836h0l.122-.075h.037a1.6,1.6,0,0,0,.532-1.336,4.792,4.792,0,0,0-2.13-3.791Z" transform="translate(-69.513 -193.677)" fill="#263238"/>
            <path id="パス_4387" data-name="パス 4387" d="M72.323,277.145a2.662,2.662,0,0,1-.064.57,1.326,1.326,0,0,1-.532.8h0a1.507,1.507,0,0,1-1.6-.122,4.792,4.792,0,0,1-2.135-3.738,1.533,1.533,0,0,1,.612-1.374h0l.106-.059h0a1.363,1.363,0,0,1,.926-.037,2.4,2.4,0,0,1,.532.234,4.792,4.792,0,0,1,2.151,3.727Z" transform="translate(-43.001 -186.453)" fill="#455a64"/>
            <path id="パス_4388" data-name="パス 4388" d="M72.335,271.653a2.018,2.018,0,0,0-.964-.293,1.171,1.171,0,0,0-.612.17l-.059.032-1.4.809a1.363,1.363,0,0,1,.926-.037,2.4,2.4,0,0,1,.532.234,4.792,4.792,0,0,1,2.172,3.754,2.662,2.662,0,0,1-.064.57,1.326,1.326,0,0,1-.532.8l1.438-.836h0l.122-.074h.037a1.6,1.6,0,0,0,.532-1.336A4.792,4.792,0,0,0,72.335,271.653Z" transform="translate(-43.615 -185.63)" fill="#263238"/>
            <path id="パス_4389" data-name="パス 4389" d="M100.48,270.106l7.752-2.226v1.656l-7.752,4.478Z" transform="translate(-58.193 -184.003)" fill="#ebebeb"/>
            <path id="パス_4390" data-name="パス 4390" d="M99.807,269.783l-.767-.469,7.779-2.124.74.367Z" transform="translate(-57.52 -183.68)" fill="#f5f5f5"/>
            <path id="パス_4391" data-name="パス 4391" d="M84.525,276.253,73.53,272.137V270.46l10.995.98Z" transform="translate(-45.593 -185.209)" fill="#ebebeb"/>
            <path id="パス_4392" data-name="パス 4392" d="M73.53,270.273l.809-.213,10.841.7-.655.5Z" transform="translate(-45.593 -185.022)" fill="#f5f5f5"/>
            <path id="パス_4393" data-name="パス 4393" d="M93.62,270.8c0,1.246,3.828,1.246,3.828,0V259.93H93.62Z" transform="translate(-54.986 -180.286)" fill="#fafafa"/>
            <path id="パス_4394" data-name="パス 4394" d="M97.859,275l2.13,13.673H98.551L96.56,275A2.305,2.305,0,0,0,97.859,275Z" transform="translate(-56.36 -187.332)" fill="#f5f5f5"/>
            <path id="パス_4395" data-name="パス 4395" d="M96.56,275.04v3.748L98.53,291v-2.311Z" transform="translate(-56.36 -187.351)" fill="#ebebeb"/>
            <rect id="長方形_3448" data-name="長方形 3448" width="1.438" height="2.311" transform="translate(42.17 101.341)" fill="#e0e0e0"/>
            <path id="パス_4396" data-name="パス 4396" d="M82.884,278.686,68.71,286.119v-2.29l14.174-8.769Z" transform="translate(-43.339 -187.36)" fill="#ebebeb"/>
            <path id="パス_4397" data-name="パス 4397" d="M82.084,274.7a1.63,1.63,0,0,1-.91-.415L67,282.863l.889.6Z" transform="translate(-42.539 -186.995)" fill="#f5f5f5"/>
            <path id="パス_4398" data-name="パス 4398" d="M67.929,293.291V291l-.889-.6v2.22Z" transform="translate(-42.558 -194.532)" fill="#e0e0e0"/>
            <path id="パス_4399" data-name="パス 4399" d="M115.6,283.353l-15.143-5.181v-3.4l15.143,6.3Z" transform="translate(-58.184 -187.225)" fill="#ebebeb"/>
            <path id="パス_4400" data-name="パス 4400" d="M100.46,274.251c.122-.037.176-.256.186-.591l15.4,6.7-.447.186Z" transform="translate(-58.184 -186.706)" fill="#f5f5f5"/>
            <path id="パス_4401" data-name="パス 4401" d="M129.347,286.25v2.215l-.447.256v-2.284Z" transform="translate(-71.481 -192.592)" fill="#e0e0e0"/>
            <rect id="長方形_3449" data-name="長方形 3449" width="1.438" height="2.311" transform="translate(42.17 101.341)" opacity="0.1"/>
            <path id="パス_4402" data-name="パス 4402" d="M67.929,293.291V291l-.889-.6v2.22Z" transform="translate(-42.558 -194.532)" opacity="0.1"/>
            <path id="パス_4403" data-name="パス 4403" d="M129.347,286.25v2.215l-.447.256v-2.284Z" transform="translate(-71.481 -192.592)" opacity="0.1"/>
            <path id="パス_4404" data-name="パス 4404" d="M97.61,224.35H91.13v22.427c0,1.858,6.48,1.858,6.48,0Z" transform="translate(-53.822 -163.65)" fill="#f0f0f0"/>
            <path id="パス_4405" data-name="パス 4405" d="M42.312,169.076l24.812-12.96s1.741-8.487-4.137-17.741c0,0,1.752-16.506-1.187-21.969-2.13-4.185-4.717-3.61-4.717-3.61L28.9,125.517Z" transform="translate(-24.726 -111.48)" fill="#284192"/>
            <path id="パス_4406" data-name="パス 4406" d="M42.312,169.076l24.812-12.96s1.741-8.487-4.137-17.741c0,0,1.752-16.506-1.187-21.969-2.13-4.185-4.717-3.61-4.717-3.61L28.9,125.517Z" transform="translate(-24.726 -111.48)" opacity="0.2"/>
            <path id="パス_4407" data-name="パス 4407" d="M57.082,112.8,28.9,125.517l.926,3.008,30.818-13.913C58.829,112.408,57.082,112.8,57.082,112.8Z" transform="translate(-24.726 -111.481)" fill="#284192"/>
            <path id="パス_4408" data-name="パス 4408" d="M82,161.186a.532.532,0,0,0,.841.367,1.336,1.336,0,0,0,.634-1.219c-.059-.437-.437-.6-.847-.367A1.342,1.342,0,0,0,82,161.186Z" transform="translate(-49.551 -133.498)" fill="#fff" opacity="0.4"/>
            <path id="パス_4409" data-name="パス 4409" d="M74,165.836a.532.532,0,0,0,.841.367,1.336,1.336,0,0,0,.634-1.219c-.059-.437-.437-.6-.847-.367A1.342,1.342,0,0,0,74,165.836Z" transform="translate(-45.81 -135.672)" fill="#fff" opacity="0.4"/>
            <path id="パス_4410" data-name="パス 4410" d="M65.887,170.506a.532.532,0,0,0,.841.367,1.336,1.336,0,0,0,.634-1.219c-.059-.437-.437-.6-.847-.367a1.331,1.331,0,0,0-.628,1.219Z" transform="translate(-42.018 -137.855)" fill="#fff" opacity="0.4"/>
            <path id="パス_4411" data-name="パス 4411" d="M57.817,175.166a.532.532,0,0,0,.841.367,1.336,1.336,0,0,0,.634-1.219c-.059-.437-.437-.6-.847-.367a1.331,1.331,0,0,0-.628,1.219Z" transform="translate(-38.245 -140.034)" fill="#fff" opacity="0.4"/>
            <path id="パス_4412" data-name="パス 4412" d="M107.263,202.51v1.368a4.968,4.968,0,0,1-2.412,4L77.164,222.4a5.521,5.521,0,0,1-4.792-.1L56.4,213.09A5.229,5.229,0,0,1,54.04,209v-1.368a4.941,4.941,0,0,1,2.417-3.988l26.18-13.678a6,6,0,0,1,4.856-.043l17.278,8.647A4.835,4.835,0,0,1,107.263,202.51Z" transform="translate(-36.48 -147.321)" fill="#284192"/>
            <path id="パス_4413" data-name="パス 4413" d="M107.263,202.51v1.368a4.968,4.968,0,0,1-2.412,4L77.164,222.4a5.521,5.521,0,0,1-4.792-.1L56.4,213.09A5.229,5.229,0,0,1,54.04,209v-1.368a4.941,4.941,0,0,1,2.417-3.988l26.18-13.678a6,6,0,0,1,4.856-.043l17.278,8.647A4.835,4.835,0,0,1,107.263,202.51Z" transform="translate(-36.48 -147.321)" opacity="0.2"/>
            <path id="パス_4414" data-name="パス 4414" d="M75.39,235.569a5.4,5.4,0,0,1-3-.57l-15.973-9.211A5.223,5.223,0,0,1,54.06,221.7v-1.374a4.968,4.968,0,0,1,2.1-3.775c-.985.7-.889,1.73.288,2.412l15.973,9.217a5.08,5.08,0,0,0,2.439.586Z" transform="translate(-36.489 -160.003)" opacity="0.2"/>
            <path id="パス_4415" data-name="パス 4415" d="M78.409,215.6l27.687-14.52c1.331-.7,1.32-1.81,0-2.486l-17.278-8.647a6,6,0,0,0-4.856.043L57.734,203.669c-1.336.7-1.363,1.874-.059,2.625l15.973,9.211a5.484,5.484,0,0,0,4.76.1Z" transform="translate(-37.73 -147.335)" fill="#284192"/>
            <path id="パス_4416" data-name="パス 4416" d="M78.409,215.6l27.687-14.52c1.331-.7,1.32-1.81,0-2.486l-17.278-8.647a6,6,0,0,0-4.856.043L57.734,203.669c-1.336.7-1.363,1.874-.059,2.625l15.973,9.211a5.484,5.484,0,0,0,4.76.1Z" transform="translate(-37.73 -147.335)" fill="#284192"/>
            <path id="パス_4417" data-name="パス 4417" d="M81.83,111.664a8.3,8.3,0,0,1,8.375-.282c4.3,2.481,2.881,10.835,2.423,16.218s-.591,14.759,3.136,18.172,16.106-1.123,21.489-1.123l-4.744,17.507a81.343,81.343,0,0,0-20.659-7.172s.229-10.915-4.792-17.15c0,0,1.848-4.366.639-13.114C86.617,116.621,85.115,113.554,81.83,111.664Z" transform="translate(-49.473 -110.348)" fill="#284192"/>
            <path id="パス_4418" data-name="パス 4418" d="M81.83,111.664a8.3,8.3,0,0,1,8.375-.282c4.3,2.481,2.881,10.835,2.423,16.218s-.591,14.759,3.136,18.172,16.106-1.123,21.489-1.123l-4.744,17.507a81.343,81.343,0,0,0-20.659-7.172s.229-10.915-4.792-17.15c0,0,1.848-4.366.639-13.114C86.617,116.621,85.115,113.554,81.83,111.664Z" transform="translate(-49.473 -110.348)" opacity="0.35"/>
            <path id="パス_4419" data-name="パス 4419" d="M139.037,192.281c-.245-1.56-1.241-10.574.442-14.493,1.464-3.413,5.324-3.615,6.5-2.13s.133,3.232-1.789,5.734c-1.6,2.13-2.2,4.089-2.2,9.206Z" transform="translate(-75.98 -140.473)" fill="#284192"/>
            <path id="パス_4420" data-name="パス 4420" d="M139.037,192.281c-.245-1.56-1.241-10.574.442-14.493,1.464-3.413,5.324-3.615,6.5-2.13s.133,3.232-1.789,5.734c-1.6,2.13-2.2,4.089-2.2,9.206Z" transform="translate(-75.98 -140.473)" opacity="0.2"/>
            <g id="グループ_2245" data-name="グループ 2245" transform="translate(63.624 35.377)" opacity="0.5">
              <path id="パス_4421" data-name="パス 4421" d="M144.737,177.168a1.507,1.507,0,0,1,1.065.335c.426.532-.138,1.725-1.826,3.924-1.784,2.332-2.412,4.606-2.492,9.02a.373.373,0,0,1-.2.335l-.128.064c-.373-4.036-.41-9.19.6-11.549a3.269,3.269,0,0,1,2.971-2.13m0-.362a3.631,3.631,0,0,0-3.306,2.348c-1.123,2.63-.942,8.248-.623,11.714a.367.367,0,0,0,.559.288l.117-.064a.767.767,0,0,0,.373-.644c.08-4.409.692-6.554,2.423-8.807,1.88-2.455,2.385-3.684,1.81-4.382a1.816,1.816,0,0,0-1.352-.463Z" transform="translate(-140.554 -176.79)" fill="#fff"/>
            </g>
            <path id="パス_4422" data-name="パス 4422" d="M37.633,186.972,56.8,196.593l-.41-7.06,2.955-1.7c-.213-5.474-1.709-11.085-5.585-12.331-4.84-1.533-11.128-2.029-14.908-5.436s-3.615-12.779-3.157-18.178,1.88-13.732-2.417-16.213a8.314,8.314,0,0,0-8.381.277c-1.837,1.193-3.977,2.055-3.8,3.5a1.56,1.56,0,0,0,1.31,1.475L33.1,181.392a8.748,8.748,0,0,0,4.531,5.58Z" transform="translate(-21.074 -121.704)" fill="#284192"/>
            <path id="パス_4423" data-name="パス 4423" d="M37.633,186.972,56.8,196.593l-.41-7.06,2.955-1.7c-.213-5.474-1.709-11.085-5.585-12.331-4.84-1.533-11.128-2.029-14.908-5.436s-3.615-12.779-3.157-18.178,1.88-13.732-2.417-16.213a8.314,8.314,0,0,0-8.381.277c-1.837,1.193-3.977,2.055-3.8,3.5a1.56,1.56,0,0,0,1.31,1.475L33.1,181.392a8.748,8.748,0,0,0,4.531,5.58Z" transform="translate(-21.074 -121.704)" opacity="0.5"/>
            <path id="パス_4424" data-name="パス 4424" d="M30.447,140.71c1.72,2.061,2.6,5.324,2.29,13.364s-.192,14.514,2.955,18.454C39.419,177.2,52.2,180.92,52.2,180.92l4.994-2.284a6.251,6.251,0,0,0-3.461-3.088c-4.84-1.533-11.128-2.029-14.908-5.436s-3.615-12.779-3.157-18.178,1.88-13.732-2.417-16.213a8.314,8.314,0,0,0-8.381.277c-1.837,1.193-3.977,2.055-3.8,3.5a1.56,1.56,0,0,0,1.31,1.475C24.792,140.177,28.727,138.628,30.447,140.71Z" transform="translate(-21.06 -121.727)" fill="#284192"/>
            <path id="パス_4425" data-name="パス 4425" d="M30.447,140.71c1.72,2.061,2.6,5.324,2.29,13.364s-.192,14.514,2.955,18.454C39.419,177.2,52.2,180.92,52.2,180.92l4.994-2.284a6.251,6.251,0,0,0-3.461-3.088c-4.84-1.533-11.128-2.029-14.908-5.436s-3.615-12.779-3.157-18.178,1.88-13.732-2.417-16.213a8.314,8.314,0,0,0-8.381.277c-1.837,1.193-3.977,2.055-3.8,3.5a1.56,1.56,0,0,0,1.31,1.475C24.792,140.177,28.727,138.628,30.447,140.71Z" transform="translate(-21.06 -121.727)" opacity="0.35"/>
            <path id="パス_4426" data-name="パス 4426" d="M81.333,225.2l2.955-1.7c0-3.275-.841-10.393-4.989-12.113-3.29-1.368-4.877.639-4.84,1.88.037,1.395,1.065,2.311,2.71,3.275C79.374,217.808,81.333,220.087,81.333,225.2Z" transform="translate(-46.027 -157.375)" fill="#284192"/>
            <path id="パス_4427" data-name="パス 4427" d="M81.333,225.2l2.955-1.7c0-3.275-.841-10.393-4.989-12.113-3.29-1.368-4.877.639-4.84,1.88.037,1.395,1.065,2.311,2.71,3.275C79.374,217.808,81.333,220.087,81.333,225.2Z" transform="translate(-46.027 -157.375)" opacity="0.2"/>
            <g id="グループ_2246" data-name="グループ 2246" transform="translate(29.519 54.643)" opacity="0.5">
              <path id="パス_4428" data-name="パス 4428" d="M78.2,213.339a4.031,4.031,0,0,1,1.5.346c2.737,1.139,3.9,5.857,4.068,9.872a.106.106,0,0,1-.048.1l-.133.075a9.537,9.537,0,0,0-4.739-7.5c-1.8-1.038-1.97-1.6-1.981-2.055a.761.761,0,0,1,.24-.447,1.454,1.454,0,0,1,1.1-.394m0-.362a1.816,1.816,0,0,0-1.358.5,1.166,1.166,0,0,0-.346.713c0,.676.4,1.342,2.167,2.359,2.662,1.544,4.185,4.009,4.6,7.529a.165.165,0,0,0,.16.144.149.149,0,0,0,.08,0l.394-.229a.474.474,0,0,0,.234-.431c-.176-4.137-1.4-8.988-4.3-10.191A4.318,4.318,0,0,0,78.2,213Z" transform="translate(-76.5 -212.975)" fill="#fff"/>
            </g>
          </g>
        </g>
        <g id="freepik--Desk--inject-37" transform="translate(18.359 51.64)">
          <g id="freepik--desk--inject-37-2" data-name="freepik--desk--inject-37" transform="translate(0 0)">
            <g id="freepik--desk--inject-37-3" data-name="freepik--desk--inject-37" transform="translate(0 7.493)">
              <path id="パス_4429" data-name="パス 4429" d="M86.7,224.3,42.37,198.709,142.682,140.79l44.326,25.595Z" transform="translate(-42.37 -140.79)" fill="#284192"/>
              <path id="パス_4430" data-name="パス 4430" d="M86.7,224.3,42.37,198.709,142.682,140.79l44.326,25.595Z" transform="translate(-42.37 -140.79)" fill="#fff" opacity="0.8"/>
              <path id="パス_4431" data-name="パス 4431" d="M42.37,249.57v51.178L44.7,302.1v-5.383l39.662,22.9V325l2.332,1.347V275.159Z" transform="translate(-42.37 -191.651)" fill="#284192"/>
              <path id="パス_4432" data-name="パス 4432" d="M42.37,249.57v51.178L44.7,302.1v-5.383l39.662,22.9V325l2.332,1.347V275.159Z" transform="translate(-42.37 -191.651)" fill="#fff" opacity="0.6"/>
              <path id="パス_4433" data-name="パス 4433" d="M46.75,343.493l2.332-1.347v-2.694L46.75,338.11Z" transform="translate(-44.418 -233.048)" fill="#284192"/>
              <path id="パス_4434" data-name="パス 4434" d="M46.75,343.493l2.332-1.347v-2.694L46.75,338.11Z" transform="translate(-44.418 -233.048)" fill="#284192"/>
              <path id="パス_4435" data-name="パス 4435" d="M125.62,297.958l2.332-1.347v-5.388L223.6,236v5.388l2.332-1.347V188.86L125.62,246.774Z" transform="translate(-81.294 -163.265)" fill="#284192"/>
              <path id="パス_4436" data-name="パス 4436" d="M125.62,297.958l2.332-1.347v-5.388L223.6,236v5.388l2.332-1.347V188.86L125.62,246.774Z" transform="translate(-81.294 -163.265)" fill="#fff" opacity="0.7"/>
              <path id="パス_4437" data-name="パス 4437" d="M307.592,282.778l-2.332-1.347v-2.694l2.332-1.347Z" transform="translate(-165.286 -204.658)" fill="#284192"/>
            </g>
            <g id="freepik--shadow--inject-37-4" data-name="freepik--shadow--inject-37" transform="translate(78.551 19.189)" opacity="0.2">
              <path id="パス_4438" data-name="パス 4438" d="M190.108,180.387l7.406,4.26a1.1,1.1,0,0,0,1,0l29.332-16.937c.277-.154.277-.415,0-.575l-7.406-4.26a1.1,1.1,0,0,0-1,0l-29.332,16.932C189.831,179.972,189.831,180.233,190.108,180.387Z" transform="translate(-189.9 -162.756)"/>
            </g>
            <g id="freepik--Sheets--inject-37" transform="translate(49.752 34.566)">
              <g id="グループ_2247" data-name="グループ 2247" transform="translate(0.025 2.843)" opacity="0.2">
                <path id="パス_4439" data-name="パス 4439" d="M136.056,205.567l18.513,10.681a1.161,1.161,0,0,0,1.065,0l13.615-7.859a.319.319,0,0,0,0-.6l-18.5-10.681a1.161,1.161,0,0,0-1.065,0l-13.631,7.87a.319.319,0,0,0,0,.591Z" transform="translate(-135.858 -196.977)"/>
              </g>
              <path id="パス_4440" data-name="パス 4440" d="M136.034,203.757l18.513,10.681a1.161,1.161,0,0,0,1.065,0l13.577-7.859a.319.319,0,0,0,0-.6l-18.5-10.681a1.161,1.161,0,0,0-1.065,0l-13.615,7.859a.319.319,0,0,0,.021.6Z" transform="translate(-135.811 -193.288)" fill="#ebebeb"/>
              <path id="パス_4441" data-name="パス 4441" d="M150.448,195.3l-12.928,7.454,17.826,10.292a1.129,1.129,0,0,0,1.065,0l12.928-7.454L151.529,195.3A1.161,1.161,0,0,0,150.448,195.3Z" transform="translate(-136.61 -193.286)" fill="#e0e0e0"/>
              <path id="パス_4442" data-name="パス 4442" d="M136.051,200.227l18.513,10.681a1.161,1.161,0,0,0,1.065,0l13.615-7.859a.319.319,0,0,0,0-.6l-18.5-10.681a1.161,1.161,0,0,0-1.065,0l-13.615,7.859a.319.319,0,0,0-.016.6Z" transform="translate(-135.827 -191.637)" fill="#fafafa"/>
            </g>
            <g id="freepik--shadow--inject-37-5" data-name="freepik--shadow--inject-37" transform="translate(9.553 64.354)" opacity="0.2">
              <path id="パス_4443" data-name="パス 4443" d="M69.07,248.449c2.007,1.155,2.007,3.035,0,4.19a8.019,8.019,0,0,1-7.252,0c-2.007-1.155-2.007-3.035,0-4.19A8.019,8.019,0,0,1,69.07,248.449Z" transform="translate(-60.313 -247.582)"/>
            </g>
            <g id="freepik--Pot--inject-37" transform="translate(9.776 52.732)">
              <path id="パス_4444" data-name="パス 4444" d="M68.771,247.342c1.6-1.651,2.566-5.772.99-7.082H61.733c-1.6,1.31-.628,5.431.985,7.082l.048.048.053.053.149.128.037.032.122.091a1.513,1.513,0,0,0,.208.133,5.324,5.324,0,0,0,4.819,0h0a2.266,2.266,0,0,0,.208-.133c.043-.027.075-.059.112-.085l.048-.037.144-.128.064-.059Z" transform="translate(-60.817 -232.537)" fill="#ebebeb"/>
              <path id="パス_4445" data-name="パス 4445" d="M62.554,238.572c-1.832,1.065-1.832,2.774,0,3.834a7.353,7.353,0,0,0,6.634,0c1.832-1.065,1.832-2.774,0-3.834A7.321,7.321,0,0,0,62.554,238.572Z" transform="translate(-60.94 -231.376)" fill="#fafafa"/>
              <path id="パス_4446" data-name="パス 4446" d="M65.464,240.256a1.23,1.23,0,0,0,0,2.332,4.456,4.456,0,0,0,4.036,0,1.232,1.232,0,0,0,0-2.332A4.457,4.457,0,0,0,65.464,240.256Z" transform="translate(-62.551 -232.309)" fill="#ebebeb"/>
              <path id="パス_4447" data-name="パス 4447" d="M69.647,242.336a4.457,4.457,0,0,0-4.036,0,1.848,1.848,0,0,0-.671.612,1.9,1.9,0,0,0,.671.612,4.457,4.457,0,0,0,4.036,0,1.874,1.874,0,0,0,.65-.612,1.826,1.826,0,0,0-.65-.612Z" transform="translate(-62.699 -233.281)" fill="#e0e0e0"/>
              <path id="パス_4448" data-name="パス 4448" d="M70.975,235.672a5.948,5.948,0,0,0,2.471-3.125,7.987,7.987,0,0,0-.357-5.857c-.9-1.464-3.083-1.3-2.433,1.145s1.065,5.106,0,6.879Z" transform="translate(-65.315 -225.754)" fill="#284192"/>
              <g id="グループ_2248" data-name="グループ 2248" transform="translate(5.221)" opacity="0.2">
                <path id="パス_4449" data-name="パス 4449" d="M70.975,235.672a5.948,5.948,0,0,0,2.471-3.125,7.987,7.987,0,0,0-.357-5.857c-.9-1.464-3.083-1.3-2.433,1.145s1.065,5.106,0,6.879Z" transform="translate(-70.537 -225.754)"/>
              </g>
              <path id="パス_4450" data-name="パス 4450" d="M71.415,235.716a.112.112,0,0,1-.069-.027.1.1,0,0,1,0-.138,7.129,7.129,0,0,0,1.826-5.324,6.059,6.059,0,0,0-1.017-3.264.1.1,0,0,1,0-.138.1.1,0,0,1,.138,0,6.046,6.046,0,0,1,1.065,3.4,7.342,7.342,0,0,1-1.874,5.468.107.107,0,0,1-.069.021Z" transform="translate(-65.681 -226.241)" fill="#fff"/>
              <path id="パス_4451" data-name="パス 4451" d="M64.516,236.77a.948.948,0,0,0-.4-.532,3.567,3.567,0,0,0-.719-.309c-.431-.16-.985-.389-1.065-.91a1.5,1.5,0,0,1,.069-.532,1.209,1.209,0,0,0,.075-.756c-.1-.234-.341-.357-.532-.5a1.847,1.847,0,0,1-.58-.532,1.161,1.161,0,0,1-.17-.671c.043-.485.506-.8.532-1.289,0-.7-1.6-1.651-.745-2.311,1.118-.847,2.87.133,3.376.852s.5,1.065,1.416,1.656c.761.532,1.661.612,1.661,1.6s-1.283,1.065-.277,2.172c.607.682-.394,1.267-.756,2.071a1.656,1.656,0,0,1-1.885-.011Z" transform="translate(-60.73 -226.853)" fill="#284192"/>
              <path id="パス_4452" data-name="パス 4452" d="M66.688,237.654h0a.1.1,0,0,1-.1-.106c.218-5.793-2.731-7.832-3.322-7.987a.1.1,0,0,1,.053-.192c1,.272,3.674,2.721,3.466,8.194A.1.1,0,0,1,66.688,237.654Z" transform="translate(-61.891 -227.445)" fill="#fff"/>
              <path id="パス_4453" data-name="パス 4453" d="M66.3,235.968a.112.112,0,0,1-.064-.027,4.459,4.459,0,0,0-2.545-.735.1.1,0,0,1,0-.2,4.686,4.686,0,0,1,2.662.783.106.106,0,0,1,0,.144.1.1,0,0,1-.053.032Z" transform="translate(-62.078 -230.082)" fill="#fff"/>
            </g>
            <g id="freepik--Document--inject-37" transform="translate(23.664 56.686)">
              <g id="グループ_2249" data-name="グループ 2249" transform="translate(0 0.913)" opacity="0.2">
                <path id="パス_4454" data-name="パス 4454" d="M129.247,249.108c.037.064,0,.133-.075.181l-17.459,10.084a.415.415,0,0,1-.218.048.351.351,0,0,1-.213-.048L86.913,245.3a.2.2,0,0,1-.08-.085.107.107,0,0,1,0-.122h.032l17.5-10.143a.453.453,0,0,1,.437,0l24.375,14.073h0a.187.187,0,0,1,.053.048Z" transform="translate(-86.814 -234.895)"/>
              </g>
              <g id="freepik--List--inject-37" transform="translate(0.909)">
                <path id="パス_4455" data-name="パス 4455" d="M88.52,243.264v.421a.463.463,0,0,0,.208.357l23.39,13.5a.442.442,0,0,0,.415,0l16.751-9.669a.458.458,0,0,0,.208-.362v-.421a.458.458,0,0,0-.208-.362l-23.385-13.5a.474.474,0,0,0-.415,0L88.728,242.9A.469.469,0,0,0,88.52,243.264Z" transform="translate(-88.52 -233.18)" fill="#284192"/>
                <path id="パス_4456" data-name="パス 4456" d="M150.238,258.67a.127.127,0,0,1,0,.218l-16.751,9.674a.442.442,0,0,1-.208.048v.884a.532.532,0,0,0,.208-.053l16.751-9.669a.458.458,0,0,0,.208-.362v-.421A.463.463,0,0,0,150.238,258.67Z" transform="translate(-109.448 -245.098)" fill="#fff" opacity="0.4"/>
                <path id="パス_4457" data-name="パス 4457" d="M88.733,251.48h0l-.027.027h0a.458.458,0,0,0-.106.224v.474a.458.458,0,0,0,.208.357l23.39,13.5a.431.431,0,0,0,.208.053v-.905a.416.416,0,0,1-.208-.048L88.765,251.7a.229.229,0,0,1-.08-.08.122.122,0,0,1,0-.117Z" transform="translate(-88.557 -241.736)" opacity="0.15"/>
                <path id="パス_4458" data-name="パス 4458" d="M100.42,240.01c0,.378.532.772.666,1.107a.277.277,0,0,1,.032.085c-.069.24-.293.4-.335.564a.377.377,0,0,0,0,.106v.319a1.968,1.968,0,0,0,.032.218,1.763,1.763,0,0,1-.053.234,1.3,1.3,0,0,0-.08.394v.309a.288.288,0,0,0,.16.288l.937.532,7.023-4.052v-.309l-.937-.532a.81.81,0,0,0-.474-.09h-.064a3.9,3.9,0,0,0-.639.043,5.806,5.806,0,0,1-1.065,0h-.272a1.225,1.225,0,0,0-.192,0,4.589,4.589,0,0,1-1.64.181h0a13.633,13.633,0,0,0-1.911-.389h-.064a1.544,1.544,0,0,0-.74.2c-.256.144-.346.3-.346.458A.925.925,0,0,0,100.42,240.01Zm1.065.218a.378.378,0,0,1,.165-.165.873.873,0,0,1,.176-.075,1.816,1.816,0,0,1,1.289.192.937.937,0,0,1,.378.373.453.453,0,0,1-.17.16,1.405,1.405,0,0,1-.953.075,1.842,1.842,0,0,1-.532-.192A.91.91,0,0,1,101.485,240.229Z" transform="translate(-94.084 -235.911)" fill="#263238"/>
                <path id="パス_4459" data-name="パス 4459" d="M107.381,239.175h-.064a3.9,3.9,0,0,0-.639.043,5.806,5.806,0,0,1-1.065,0h-.272a1.218,1.218,0,0,0-.192,0,4.59,4.59,0,0,1-1.64.181h0a13.633,13.633,0,0,0-1.911-.389h-.064a1.544,1.544,0,0,0-.74.2c-.857.5.117,1.065.319,1.565s-.234.724-.3.964.117.362-.043.879-.037.607.08.676l.937.532,7.023-4.052-.937-.532A.809.809,0,0,0,107.381,239.175Zm-5.261,3.945a.442.442,0,0,1-.389-.032c-.122-.069-.149-.17-.059-.224a.442.442,0,0,1,.389.032c.122.069.149.17.059.224Zm1.214-2.412a1.406,1.406,0,0,1-.953.075,1.841,1.841,0,0,1-.532-.192c-.458-.266-.532-.644-.208-.847a1.339,1.339,0,0,1,.176-.075,1.821,1.821,0,0,1,1.289.2c.479.266.575.644.229.841Zm4.2-.714a.442.442,0,0,1-.389-.032c-.122-.075-.144-.17-.053-.224a.442.442,0,0,1,.389.032C107.6,239.841,107.626,239.942,107.536,240Z" transform="translate(-94.097 -235.906)" fill="#37474f"/>
                <path id="パス_4460" data-name="パス 4460" d="M114.761,256.8l14.578-8.418a.261.261,0,0,0,.122-.213v-.149a.261.261,0,0,0-.122-.213l-19.264-11.123a.293.293,0,0,0-.25,0l-14.573,8.4a.261.261,0,0,0-.122.213v.165a.261.261,0,0,0,.122.213L114.516,256.8A.293.293,0,0,0,114.761,256.8Z" transform="translate(-91.611 -234.806)" fill="#f5f5f5"/>
                <path id="パス_4461" data-name="パス 4461" d="M141.68,260.127l5.037-2.907.181.107-5.032,2.907Z" transform="translate(-113.375 -244.42)" fill="#e0e0e0"/>
                <path id="パス_4462" data-name="パス 4462" d="M130.34,266.677l5.032-2.907.181.107-5.032,2.907Z" transform="translate(-108.073 -247.483)" fill="#e0e0e0"/>
                <path id="パス_4463" data-name="パス 4463" d="M146.5,257.61c.037.037.027.085-.027.122l-14.584,8.413a.256.256,0,0,1-.128.032v.447a.208.208,0,0,0,.128-.027l14.578-8.418a.261.261,0,0,0,.122-.213v-.149a.25.25,0,0,0-.091-.208Z" transform="translate(-108.737 -244.602)" fill="#fafafa"/>
                <path id="パス_4464" data-name="パス 4464" d="M95.259,252.52a.122.122,0,0,0-.037.037h0a.4.4,0,0,0-.032.069v.24a.261.261,0,0,0,.122.213L114.576,264.2a.192.192,0,0,0,.122.027v-.447a.234.234,0,0,1-.122-.032l-19.3-11.1C95.222,252.611,95.217,252.563,95.259,252.52Z" transform="translate(-91.639 -242.223)" fill="#e0e0e0"/>
                <path id="パス_4465" data-name="パス 4465" d="M131.867,264.944c-.048.053,0,.122.053.176a.811.811,0,0,1-.053.25.319.319,0,0,1-.117.17.208.208,0,0,1-.218-.048c-.053-.048-.059,0-.064,0a.479.479,0,0,0,0,.09.191.191,0,0,1-.08-.053.3.3,0,0,0-.1-.048h-.059a.962.962,0,0,0,0,.128c0,.043.037.1,0,.149s-.112,0-.128-.048a1,1,0,0,1-.1-.128h-.069a1.156,1.156,0,0,1,0,.192,1.133,1.133,0,0,1-.059.266c0,.032-.053.149-.133.144a.112.112,0,0,1-.091-.059v-.08a.634.634,0,0,0,0-.41.229.229,0,0,0-.069-.075.09.09,0,0,0-.064,0,.154.154,0,0,0-.069.17.306.306,0,0,0,.032.165,1.063,1.063,0,0,0,.043.176l.032.059a.533.533,0,0,1-.112.24c-.059.075-.245.218-.394.122a.479.479,0,0,1-.181-.277v-.085a1.264,1.264,0,0,0,.192-.24.911.911,0,0,0,.069-.234.607.607,0,0,0,0-.293.112.112,0,0,0-.075-.075.176.176,0,0,0-.138,0,.261.261,0,0,0-.122.2,2.473,2.473,0,0,0-.037.277,1.24,1.24,0,0,0,.043.367,1.2,1.2,0,0,1-.272.2h0a1.548,1.548,0,0,0,.261-.186h0a.532.532,0,0,0,.176.3.261.261,0,0,0,.17.064.468.468,0,0,0,.24-.059.474.474,0,0,0,.24-.309h.032a.2.2,0,0,0,.245-.075.639.639,0,0,0,.1-.282v-.149l.043.043a.192.192,0,0,0,.208.048c.064-.032.043-.1.032-.144a.287.287,0,0,1,0-.1v-.037c0-.037.1.1.208.091h.032a.15.15,0,0,0,0-.069.293.293,0,0,0,.2.037.256.256,0,0,0,.181-.16.687.687,0,0,0,.064-.2l.112.181a3.27,3.27,0,0,1,.261.6l.122.335h.069a5.025,5.025,0,0,0-.272-.745,2.859,2.859,0,0,0-.213-.367l-.069-.112a.319.319,0,0,0-.053-.165A.184.184,0,0,0,131.867,264.944Zm-2.029,1a1.486,1.486,0,0,1,0-.266.936.936,0,0,1,.032-.208.181.181,0,0,1,.149-.138.059.059,0,0,1,.075.048.452.452,0,0,1,0,.266,1.139,1.139,0,0,1-.069.256.926.926,0,0,1-.17.224.988.988,0,0,1-.016-.2Zm.761,0-.032-.154a.181.181,0,0,1,0-.165.256.256,0,0,1,.053.154.868.868,0,0,1,0,.2v.027Z" transform="translate(-107.694 -248.002)" fill="#37474f"/>
                <path id="パス_4466" data-name="パス 4466" d="M135.663,263.11H135.6a.061.061,0,0,0,.037.053h0a.191.191,0,0,1,0,.091.819.819,0,0,1,0,.165v.107h0a.139.139,0,0,1-.064-.027l-.1-.032h-.064a.325.325,0,0,1,0,.16.026.026,0,0,1-.027.027c-.027,0-.053-.027-.064-.032a.256.256,0,0,0-.091-.053h-.053a.3.3,0,0,0,0,.1s.032.091,0,.107-.064-.032-.1-.075a.117.117,0,0,0-.064-.122h-.059a.208.208,0,0,0,.048.112h0a.732.732,0,0,1,0,.149.394.394,0,0,1-.138.224.176.176,0,0,1-.272.059.474.474,0,0,0,0-.3.692.692,0,0,0-.367-.431.048.048,0,0,0-.048,0c-.053.032-.043.08-.037.117a.644.644,0,0,0,.059.16,1.911,1.911,0,0,0,.2.341.725.725,0,0,0,.144.144.459.459,0,0,1-.059.128h.027a.639.639,0,0,0,.08-.16.272.272,0,0,0,.213,0,.3.3,0,0,0,.192-.229.459.459,0,0,0,.032-.122.17.17,0,0,0,.117.037c.112,0,.08-.117.059-.186a.319.319,0,0,0,.069.048.138.138,0,0,0,.128,0,.1.1,0,0,0,.037-.09.069.069,0,1,1,.128-.027.109.109,0,0,0,.117-.112,1.158,1.158,0,0,0,.037-.186v-.032h0a1.539,1.539,0,0,1,.154.17,1.486,1.486,0,0,1,.17.25.484.484,0,0,0-.229.112c-.08.075-.181.256.037.288a.261.261,0,0,0,.314-.2.41.41,0,0,0-.032-.176.73.73,0,0,1,.186,0c.043,0,.064-.032,0-.037a1.061,1.061,0,0,0-.224,0,.748.748,0,0,0-.085-.138,2.339,2.339,0,0,0-.149-.192l-.117-.117-.059-.043A.189.189,0,0,0,135.663,263.11Zm-1.187.836a1.7,1.7,0,0,1-.176-.293,1.214,1.214,0,0,1-.069-.149c0-.032-.027-.08,0-.112a.682.682,0,0,1,.33.394.591.591,0,0,1,0,.272.623.623,0,0,1-.091-.112Zm1.56.053a.192.192,0,0,1-.192,0c-.059-.043-.027-.117,0-.165a.362.362,0,0,1,.224-.144.229.229,0,0,1-.037.309Z" transform="translate(-109.851 -247.174)" fill="#37474f"/>
                <path id="パス_4467" data-name="パス 4467" d="M140.976,260.2c-.032,0-.037.053-.043.075a1.221,1.221,0,0,0-.037.192.331.331,0,0,0-.106-.059.059.059,0,0,0-.053,0,.176.176,0,0,0-.059.069.186.186,0,0,0-.192-.069.208.208,0,0,0-.16.16.65.65,0,0,0,0,.085c-.032-.075-.059-.149-.085-.224a1.007,1.007,0,0,0-.181-.373.288.288,0,0,0-.33-.1.325.325,0,0,0-.122.117.457.457,0,0,0-.075.154.414.414,0,0,0,0,.085l-.176-.091h-.032l.2.112a.91.91,0,0,0,0,.24.835.835,0,0,0,.069.25.16.16,0,0,0,.075.069.138.138,0,0,0,.112,0c.128-.091.085-.234.027-.341a.532.532,0,0,0-.229-.192.452.452,0,0,1,.149-.341.117.117,0,0,1,.176,0,.753.753,0,0,1,.112.117,1.24,1.24,0,0,1,.144.325,2.419,2.419,0,0,0,.128.325v.032a.389.389,0,0,0,.048.293h.069a.4.4,0,0,0-.043-.293h0a.869.869,0,0,1,.043-.229.155.155,0,0,1,.085-.1.08.08,0,0,1,.091.027.372.372,0,0,1,.091.133v.048h.075c-.005,0,0,0,0-.032a.362.362,0,0,1,0-.075.133.133,0,0,1,.032-.1c.08.037.107.107.149.154s.085,0,.075,0a.384.384,0,0,1,0-.288v-.075a.181.181,0,0,1,.043.075.593.593,0,0,0,.043.16l.069.165a2.661,2.661,0,0,0,.181.314,1.172,1.172,0,0,0,.288.325h.048a3.4,3.4,0,0,1-.282-.351,2.365,2.365,0,0,1-.2-.378,1.251,1.251,0,0,1-.059-.186.208.208,0,0,0-.069-.144A.1.1,0,0,0,140.976,260.2Zm-1.294.3a.3.3,0,0,1,.1.314.181.181,0,0,1-.048.064h0c-.032,0-.043-.048-.053-.064a1.017,1.017,0,0,1-.059-.218,1.239,1.239,0,0,1,0-.2A.828.828,0,0,1,139.682,260.5Z" transform="translate(-112.272 -245.691)" fill="#37474f"/>
                <path id="パス_4468" data-name="パス 4468" d="M144.621,259.1a.475.475,0,0,0-.229,0,.725.725,0,0,0-.1-.085,1.417,1.417,0,0,0-.24-.154h-.075a.655.655,0,0,1,.069.218.207.207,0,0,1,0,.112c0,.032-.069,0-.1,0h-.064a.4.4,0,0,0,0,.08c0,.005-.09-.043-.112-.048a.129.129,0,0,0-.048,0s.027.075,0,.1l-.085-.048h-.059a.31.31,0,0,1,.027.075s.032.075,0,.091,0,0-.037,0l-.043-.032a.256.256,0,0,0-.085-.043H143.4a.478.478,0,0,0,0,.122.305.305,0,0,1,0,.069.064.064,0,0,1-.032.059c-.085.032-.213-.2-.234-.229s-.064,0-.059,0a1.358,1.358,0,0,1,.075.186c0,.064,0,.154-.1.181h0c.128,0,.144-.1.133-.17a.228.228,0,0,0,0-.027.213.213,0,0,0,.181.075.1.1,0,0,0,.085-.117,1.062,1.062,0,0,0,0-.128c.053.037.112.091.186.059s.043-.053.037-.085a.155.155,0,0,0,0-.048h.032a.053.053,0,0,0,.048,0c.053,0,.048-.059.037-.1a.122.122,0,0,0,.117,0,.053.053,0,0,0,.043-.069.208.208,0,0,0,.128,0,.106.106,0,0,0,.053-.106.436.436,0,0,0-.043-.107l.09.064a.651.651,0,0,1,.144.122.188.188,0,0,0-.064.037c-.053.043-.064.128.059.138s.144-.069.128-.117a.144.144,0,0,0-.032-.053.384.384,0,0,1,.176,0C144.621,259.137,144.674,259.1,144.621,259.1Zm-.25.154a.032.032,0,1,1-.064,0,.07.07,0,0,1,.048-.08h0a.08.08,0,0,1,.016.08Z" transform="translate(-114.016 -245.187)" fill="#37474f"/>
                <path id="パス_4469" data-name="パス 4469" d="M145.306,256.5c.032.107.075.213.1.32a3.28,3.28,0,0,1,.064.33,1.742,1.742,0,0,0,.037.33h0c-.059-.069-.107-.144-.176-.213a1.064,1.064,0,0,0-.266-.192.346.346,0,0,0-.272,0,.234.234,0,0,0-.1.075h-.117a.3.3,0,0,1-.122,0h-.032c.016,0,.17.027.245.037h0a.405.405,0,0,0-.048.1.266.266,0,0,0,.032.218.271.271,0,0,0,.2.1.176.176,0,0,0,.181-.138.288.288,0,0,0-.17-.24.532.532,0,0,0-.112-.043.144.144,0,0,1,.064-.048.213.213,0,0,1,.229,0,1.184,1.184,0,0,1,.229.181,2.566,2.566,0,0,1,.186.234l.059.08h0c0,.043,0,.085.053.112s.064,0,.064,0a.181.181,0,0,0-.043-.122h0a.325.325,0,0,0-.032-.17c-.032-.059,0-.213-.032-.319a1.385,1.385,0,0,0-.186-.618S145.3,256.489,145.306,256.5Zm-.357.82a.133.133,0,0,1-.032.2.144.144,0,0,1-.186-.059.245.245,0,0,1-.032-.181.315.315,0,0,1,.048-.107A.383.383,0,0,1,144.949,257.325Z" transform="translate(-114.658 -244.083)" fill="#37474f"/>
                <path id="パス_4470" data-name="パス 4470" d="M148.9,256.452a2.067,2.067,0,0,0-.437-.532h-.075a.631.631,0,0,1,.08.272.107.107,0,0,1-.032.075.37.37,0,0,1-.08.037.069.069,0,0,0-.037.053l-.091-.059h-.069a.378.378,0,0,0,0,.107v.091a.748.748,0,0,1-.149-.138.059.059,0,0,0-.075,0c0,.043,0,.1,0,.144a.534.534,0,0,1,0,.091v.059h0l-.032-.027a.271.271,0,0,1-.048-.085.394.394,0,0,1-.043-.154h-.075a3.674,3.674,0,0,1,0,.421.41.41,0,0,1-.085.208.351.351,0,0,1-.091.085.441.441,0,0,1-.16.069c-.053,0-.064-.048-.069-.069l-.032-.122v-.069a.383.383,0,0,0,.176-.4.1.1,0,0,0-.138-.1.085.085,0,0,0-.053.064.256.256,0,0,0,0,.107c0,.091-.032.176-.037.266v.064l-.059.043h.048v.059a.644.644,0,0,0,.043.133c.048.085.186.053.277,0a.5.5,0,0,0,.218-.2.628.628,0,0,0,.053-.325l.037.032a.144.144,0,0,0,.16,0c.048-.037.032-.1.032-.138v-.075a.531.531,0,0,0,.117.085h.053a.09.09,0,0,0,.064-.1.533.533,0,0,0,0-.085.239.239,0,0,0,.1.053h.064v-.075c0-.021.059,0,.08-.037a.122.122,0,0,0,.064-.117.362.362,0,0,0-.037-.144,2.032,2.032,0,0,1,.25.335l.064.1a.474.474,0,0,0-.234.17.309.309,0,0,0-.069.16.213.213,0,0,0,.059.186.325.325,0,0,0,.288.043.256.256,0,0,0,.176-.16.463.463,0,0,0-.122-.378h.085c.032,0,.048,0,0-.027A.484.484,0,0,0,148.9,256.452Zm-1.6.234v-.24h0a.086.086,0,0,1,0,.037.389.389,0,0,1,0,.192.367.367,0,0,1-.107.17.878.878,0,0,1,.1-.16Zm1.667,0a.234.234,0,0,1,0,.17.213.213,0,0,1-.192.122.16.16,0,0,1-.17-.16.2.2,0,0,1,0-.122.373.373,0,0,1,.229-.218.766.766,0,0,1,.122.229Z" transform="translate(-115.952 -243.812)" fill="#37474f"/>
                <path id="パス_4471" data-name="パス 4471" d="M114.891,241.466l.17.1a.1.1,0,0,1,0,.192l-11.714,6.757a.373.373,0,0,1-.335,0l-.165-.1c-.1-.053-.1-.138,0-.192l11.714-6.757a.373.373,0,0,1,.33,0Z" transform="translate(-95.185 -237.036)" fill="#e0e0e0"/>
                <path id="パス_4472" data-name="パス 4472" d="M116.811,242.575l.17.1a.1.1,0,0,1,0,.192l-11.714,6.757a.373.373,0,0,1-.335,0l-.165-.1c-.1-.053-.1-.138,0-.192l11.714-6.757a.362.362,0,0,1,.33,0Z" transform="translate(-96.083 -237.554)" fill="#e0e0e0"/>
                <path id="パス_4473" data-name="パス 4473" d="M118.721,243.675l.17.1a.1.1,0,0,1,0,.192l-11.714,6.762a.41.41,0,0,1-.335,0l-.165-.1c-.1-.053-.1-.138,0-.192l11.714-6.757a.362.362,0,0,1,.33,0Z" transform="translate(-96.976 -238.068)" fill="#e0e0e0"/>
                <path id="パス_4474" data-name="パス 4474" d="M122.951,246.115l.17.1a.1.1,0,0,1,0,.192l-11.714,6.757a.362.362,0,0,1-.33,0l-.17-.1c-.1-.053-.1-.138,0-.192l11.714-6.757a.362.362,0,0,1,.33,0Z" transform="translate(-98.954 -239.209)" fill="#e0e0e0"/>
                <path id="パス_4475" data-name="パス 4475" d="M124.871,247.225l.17.1a.1.1,0,0,1,0,.192l-11.714,6.757a.362.362,0,0,1-.33,0l-.17-.1c-.1-.053-.1-.138,0-.192l11.714-6.757a.362.362,0,0,1,.33,0Z" transform="translate(-99.851 -239.728)" fill="#e0e0e0"/>
                <path id="パス_4476" data-name="パス 4476" d="M126.775,248.325l.17.1a.1.1,0,0,1,0,.192l-11.714,6.757a.362.362,0,0,1-.33,0l-.17-.1a.1.1,0,0,1,0-.2l11.714-6.757A.362.362,0,0,1,126.775,248.325Z" transform="translate(-100.739 -240.243)" fill="#e0e0e0"/>
                <path id="パス_4477" data-name="パス 4477" d="M131.027,250.768l.17.1a.1.1,0,0,1,0,.192l-11.7,6.735a.362.362,0,0,1-.33,0l-.17-.1a.1.1,0,0,1,0-.192l11.714-6.757A.362.362,0,0,1,131.027,250.768Z" transform="translate(-102.739 -241.381)" fill="#e0e0e0"/>
                <path id="パス_4478" data-name="パス 4478" d="M132.957,251.9l.17.1a.1.1,0,0,1,0,.192l-11.714,6.757a.362.362,0,0,1-.33,0l-.144-.08a.1.1,0,0,1,0-.192l11.714-6.757A.362.362,0,0,1,132.957,251.9Z" transform="translate(-103.646 -241.919)" fill="#e0e0e0"/>
                <path id="パス_4479" data-name="パス 4479" d="M134.843,252.965l.17.1a.1.1,0,0,1,0,.192L123.3,260.009a.362.362,0,0,1-.33,0l-.17-.1a.1.1,0,0,1,0-.192l11.714-6.757A.362.362,0,0,1,134.843,252.965Z" transform="translate(-104.515 -242.412)" fill="#e0e0e0"/>
                <path id="パス_4480" data-name="パス 4480" d="M104.64,243.543v.314a.7.7,0,0,0,.16.431l8.594-4.957v-.314a1.889,1.889,0,0,0-.841-.208h0a1.384,1.384,0,0,0-.57.117c-.623.282-.8.373-1.187.532a.628.628,0,0,1-.586-.085h0l-.256-.234-.7-.644a.42.42,0,0,0-.33-.106h-.165a2.311,2.311,0,0,1-.713,0,1.544,1.544,0,0,1-.772-.293,1.8,1.8,0,0,0-1.2-.426h-.037a1.725,1.725,0,0,0-.788.192,1.139,1.139,0,0,0-.224,1.725.666.666,0,0,1,.192.367.857.857,0,0,1-.165.4.319.319,0,0,0-.1.208v.314a.2.2,0,0,0,.08.154l.8.74.256.234.027.032a.4.4,0,0,1-.059.08L105,242.93A.884.884,0,0,0,104.64,243.543Zm2.295-4.707a.586.586,0,0,1-.3.314,1.182,1.182,0,0,1-.905.053.91.91,0,0,1-.341-.2.575.575,0,0,1-.165-.24.586.586,0,0,1,.3-.319l.117-.053a1.171,1.171,0,0,1,1.123.2.586.586,0,0,1,.192.245Z" transform="translate(-96.057 -235.279)" fill="#37474f"/>
                <path id="パス_4481" data-name="パス 4481" d="M112.559,238.809h0a1.384,1.384,0,0,0-.57.117c-.623.282-.8.373-1.187.532a.628.628,0,0,1-.586-.085h0l-.256-.234-.7-.644a.42.42,0,0,0-.33-.106h-.165a2.311,2.311,0,0,1-.713,0,1.544,1.544,0,0,1-.772-.293,1.8,1.8,0,0,0-1.2-.426h-.037a1.725,1.725,0,0,0-.788.192.82.82,0,0,0-.224,1.416.852.852,0,0,1,0,1.065c-.2.234,0,.367,0,.367l.8.735.256.234c.192.181-.032.426-.032.426L105,242.92c-.447.4-.426.729-.192,1.065l8.594-4.957a1.89,1.89,0,0,0-.841-.218Zm-5.788-.532a.532.532,0,0,1-.133.868,1.182,1.182,0,0,1-.905.053.91.91,0,0,1-.341-.2.5.5,0,0,1,.138-.868.468.468,0,0,1,.117-.053,1.161,1.161,0,0,1,1.123.2Z" transform="translate(-96.058 -235.279)" fill="#455a64"/>
              </g>
            </g>
            <g id="freepik--Pen--inject-37" transform="translate(53.779 58.72)">
              <path id="パス_4482" data-name="パス 4482" d="M143.426,240.3l12.72,7.353,2.172.442a.069.069,0,0,0,.075-.1l-.682-1.246-12.725-7.353C144.56,239.166,143.085,240.1,143.426,240.3Z" transform="translate(-143.375 -238.101)" opacity="0.2"/>
              <g id="freepik--pen--inject-37-2" data-name="freepik--pen--inject-37" transform="translate(0.419)">
                <path id="パス_4483" data-name="パス 4483" d="M145.194,237.059h.059l-.112-.059h-.133a.533.533,0,0,0-.261.08,1.294,1.294,0,0,0-.58,1.006.678.678,0,0,0,0,.149v.037h0a.245.245,0,0,0,.048.091h0l.138.08a.251.251,0,0,1-.064-.048.479.479,0,0,0,.335-.069,1.288,1.288,0,0,0,.586-1.012A.5.5,0,0,0,145.194,237.059Zm-.863,1.4Z" transform="translate(-144.162 -237)" fill="#284192"/>
                <path id="パス_4484" data-name="パス 4484" d="M157.483,244.144l-.8,1.422-.138-.08-12-6.922a.25.25,0,0,1-.064-.048.479.479,0,0,1-.106-.33,1.283,1.283,0,0,1,.586-1.006.533.533,0,0,1,.261-.08h.133Z" transform="translate(-144.259 -237.047)" fill="#f0f0f0"/>
                <path id="パス_4485" data-name="パス 4485" d="M167.75,250.34c.325-.186.586-.037.586.335a1.288,1.288,0,0,1-.586,1.012c-.319.186-.58.032-.58-.341a1.294,1.294,0,0,1,.58-1.006Z" transform="translate(-154.92 -243.199)" fill="#284192"/>
                <path id="パス_4486" data-name="パス 4486" d="M169.041,251.213h0l-.745-.815h0a.378.378,0,0,0-.469,0,1.294,1.294,0,0,0-.58,1.006.389.389,0,0,0,.224.4h.043l1.065.24a.288.288,0,0,0,.186-.043.745.745,0,0,0,.33-.575A.266.266,0,0,0,169.041,251.213Z" transform="translate(-154.954 -243.227)" fill="#e0e0e0"/>
                <path id="パス_4487" data-name="パス 4487" d="M152.42,242.055h0a.138.138,0,0,0-.133,0,.442.442,0,0,0-.208.357.16.16,0,0,0,.048.128h0l8.86,5.117.586-.335Z" transform="translate(-147.864 -239.356)" fill="#455a64"/>
                <path id="パス_4488" data-name="パス 4488" d="M167.27,251.286l.82.474.586-.335-1.118-.644A1.406,1.406,0,0,0,167.27,251.286Z" transform="translate(-154.966 -243.443)" fill="#37474f"/>
                <path id="パス_4489" data-name="パス 4489" d="M169.92,252.068h0l-.676-.74h0a.266.266,0,0,0-.335,0,.911.911,0,0,0-.41.714.277.277,0,0,0,.154.282h.027l.99.213h0a.17.17,0,0,0,.106,0,.431.431,0,0,0,.186-.325.149.149,0,0,0-.043-.144Z" transform="translate(-155.54 -243.671)" fill="#284192"/>
                <path id="パス_4490" data-name="パス 4490" d="M169.92,252.068h0l-.676-.74h0a.266.266,0,0,0-.335,0,.911.911,0,0,0-.41.714.277.277,0,0,0,.154.282h.027l.99.213h0a.17.17,0,0,0,.106,0,.431.431,0,0,0,.186-.325.149.149,0,0,0-.043-.144Z" transform="translate(-155.54 -243.671)" opacity="0.1"/>
                <path id="パス_4491" data-name="パス 4491" d="M170.425,252.5a.431.431,0,0,1-.186.325.17.17,0,0,1-.106,0h0l-.5-.106a.2.2,0,0,1-.133-.213.666.666,0,0,1,.3-.532.2.2,0,0,1,.245,0h0l.335.367h0A.149.149,0,0,1,170.425,252.5Z" transform="translate(-156.008 -243.982)" fill="#284192"/>
                <ellipse id="楕円形_352" data-name="楕円形 352" cx="0.266" cy="0.154" rx="0.266" ry="0.154" transform="translate(13.963 8.747) rotate(-60)" opacity="0.1"/>
                <path id="パス_4492" data-name="パス 4492" d="M148.27,239.653a.154.154,0,0,0-.149,0,.453.453,0,0,0-.2.357.138.138,0,0,0,.059.133h0l2.183,1.262a.16.16,0,0,1-.048-.128.442.442,0,0,1,.208-.357.139.139,0,0,1,.133,0Z" transform="translate(-145.918 -238.232)" fill="#fafafa"/>
                <path id="パス_4493" data-name="パス 4493" d="M148.329,239.786a.442.442,0,0,1-.208.357.133.133,0,0,1-.144,0,.138.138,0,0,1-.059-.133.453.453,0,0,1,.2-.357.154.154,0,0,1,.149,0A.144.144,0,0,1,148.329,239.786Z" transform="translate(-145.918 -238.232)" fill="#f5f5f5"/>
                <path id="パス_4494" data-name="パス 4494" d="M146.29,237.811h0l-.863-.5h0a.373.373,0,0,0-.357.043,1.161,1.161,0,0,0-.532.91.362.362,0,0,0,.154.341h0l.873.5h0a.367.367,0,0,0,.362-.037,1.177,1.177,0,0,0,.532-.91A.373.373,0,0,0,146.29,237.811Z" transform="translate(-144.337 -237.135)" fill="#284192"/>
                <path id="パス_4495" data-name="パス 4495" d="M146.29,237.811h0l-.863-.5h0a.373.373,0,0,0-.357.043,1.161,1.161,0,0,0-.532.91.362.362,0,0,0,.154.341h0l.873.5h0a.367.367,0,0,0,.362-.037,1.177,1.177,0,0,0,.532-.91A.373.373,0,0,0,146.29,237.811Z" transform="translate(-144.337 -237.135)" opacity="0.05"/>
                <path id="パス_4496" data-name="パス 4496" d="M146.642,238.258c.288-.165.532-.032.532.3a1.177,1.177,0,0,1-.532.91c-.288.165-.532.032-.532-.3A1.177,1.177,0,0,1,146.642,238.258Z" transform="translate(-145.073 -237.555)" opacity="0.1"/>
                <path id="パス_4497" data-name="パス 4497" d="M171.216,253.177h0l-.367-.186h0a.064.064,0,0,0-.069,0,.213.213,0,0,0-.1.165.074.074,0,0,0,0,.064h0l.351.213h0a.149.149,0,0,0,.069,0,.138.138,0,0,0,.138-.138.144.144,0,0,0-.027-.117Z" transform="translate(-156.559 -244.472)" fill="#455a64"/>
                <path id="パス_4498" data-name="パス 4498" d="M171.579,253.371h0a.091.091,0,0,0-.064,0,.213.213,0,0,0-.1.165.075.075,0,0,0,.027.064h.043a.138.138,0,0,0,.091-.24Z" transform="translate(-156.907 -244.649)" fill="#263238"/>
              </g>
            </g>
            <path id="freepik--shadow--inject-37-6" data-name="freepik--shadow--inject-37" d="M228.543,208.752,258.1,191.688a1.288,1.288,0,0,1,1.166,0l1.028.591a.357.357,0,0,1,0,.676L230.737,210.02a1.288,1.288,0,0,1-1.166,0l-1.028-.6a.357.357,0,0,1,0-.671Z" transform="translate(-129.307 -157.029)" opacity="0.2"/>
            <g id="freepik--Device--inject-37" transform="translate(79.67)">
              <path id="パス_4499" data-name="パス 4499" d="M192,177.312v-.2a1.065,1.065,0,0,1,.5-.857l29.316-16.937a1.1,1.1,0,0,1,1,0l6,3.466a1.1,1.1,0,0,1,.5.863v.2a1.1,1.1,0,0,1-.5.863l-29.332,16.932a1.1,1.1,0,0,1-1,0l-6-3.466A1.065,1.065,0,0,1,192,177.312Z" transform="translate(-192 -141.902)" fill="#284192"/>
              <g id="グループ_2250" data-name="グループ 2250" transform="translate(0 17.293)" opacity="0.5">
                <path id="パス_4500" data-name="パス 4500" d="M192,177.312v-.2a1.065,1.065,0,0,1,.5-.857l29.316-16.937a1.1,1.1,0,0,1,1,0l6,3.466a1.1,1.1,0,0,1,.5.863v.2a1.1,1.1,0,0,1-.5.863l-29.332,16.932a1.1,1.1,0,0,1-1,0l-6-3.466A1.065,1.065,0,0,1,192,177.312Z" transform="translate(-192 -159.196)"/>
              </g>
              <path id="パス_4501" data-name="パス 4501" d="M192.748,176.822l6,3.466a1.113,1.113,0,0,0,1,0l29.332-16.942a.3.3,0,0,0,0-.575l-6-3.466a1.1,1.1,0,0,0-1,0l-29.332,16.937C192.471,176.4,192.471,176.657,192.748,176.822Z" transform="translate(-192.252 -141.898)" fill="#284192"/>
              <g id="グループ_2251" data-name="グループ 2251" transform="translate(0.288 17.288)" opacity="0.2">
                <path id="パス_4502" data-name="パス 4502" d="M192.748,176.822l6,3.466a1.113,1.113,0,0,0,1,0l29.332-16.942a.3.3,0,0,0,0-.575l-6-3.466a1.1,1.1,0,0,0-1,0l-29.332,16.937C192.471,176.4,192.471,176.657,192.748,176.822Z" transform="translate(-192.54 -159.186)"/>
              </g>
              <path id="パス_4503" data-name="パス 4503" d="M255.341,154.555l2.082-25.44a2.4,2.4,0,0,0-1.065-2.13,2.662,2.662,0,0,0-2.412.043l-27.879,16.1a3.083,3.083,0,0,0-1.363,2.13l-2.1,25.456a2.4,2.4,0,0,0,1.065,2.13,2.662,2.662,0,0,0,2.412-.048l27.879-16.09A3.1,3.1,0,0,0,255.341,154.555Z" transform="translate(-206.309 -126.717)" fill="#284192"/>
              <path id="パス_4504" data-name="パス 4504" d="M255.341,154.555l2.082-25.44a2.4,2.4,0,0,0-1.065-2.13,2.662,2.662,0,0,0-2.412.043l-27.879,16.1a3.083,3.083,0,0,0-1.363,2.13l-2.1,25.456a2.4,2.4,0,0,0,1.065,2.13,2.662,2.662,0,0,0,2.412-.048l27.879-16.09A3.1,3.1,0,0,0,255.341,154.555Z" transform="translate(-206.309 -126.717)" opacity="0.5"/>
              <path id="パス_4505" data-name="パス 4505" d="M257.589,154.555l2.082-25.44a2.4,2.4,0,0,0-1.065-2.13,2.662,2.662,0,0,0-2.412.043l-27.879,16.1a2.806,2.806,0,0,0-.905.916l4.334,2.5v24.274l24.45-14.115A3.1,3.1,0,0,0,257.589,154.555Z" transform="translate(-208.556 -126.717)" fill="#284192"/>
              <path id="パス_4506" data-name="パス 4506" d="M257.589,154.555l2.082-25.44a2.4,2.4,0,0,0-1.065-2.13,2.662,2.662,0,0,0-2.412.043l-27.879,16.1a2.806,2.806,0,0,0-.905.916l4.334,2.5v24.274l24.45-14.115A3.1,3.1,0,0,0,257.589,154.555Z" transform="translate(-208.556 -126.717)" opacity="0.2"/>
              <path id="パス_4507" data-name="パス 4507" d="M227.054,173.472l2.1-25.483a3.083,3.083,0,0,1,1.363-2.13l27.873-16.09c.692-.4,1.193-.08,1.129.713l-2.1,25.419a3.1,3.1,0,0,1-1.363,2.13l-27.879,16.09C227.491,174.537,226.985,174.239,227.054,173.472Z" transform="translate(-208.387 -128.063)" fill="#284192"/>
              <path id="パス_4508" data-name="パス 4508" d="M227.054,173.472l2.1-25.483a3.083,3.083,0,0,1,1.363-2.13l27.873-16.09c.692-.4,1.193-.08,1.129.713l-2.1,25.419a3.1,3.1,0,0,1-1.363,2.13l-27.879,16.09C227.491,174.537,226.985,174.239,227.054,173.472Z" transform="translate(-208.387 -128.063)" opacity="0.35"/>
              <path id="パス_4509" data-name="パス 4509" d="M254.071,170.377a4.829,4.829,0,0,1,2.039-3.429c1.017-.591,1.757,0,1.651,1.294a4.835,4.835,0,0,1-2.039,3.429C254.7,172.262,253.965,171.66,254.071,170.377Z" transform="translate(-221.017 -145.42)" fill="#284192"/>
              <path id="パス_4510" data-name="パス 4510" d="M254.286,183.959l6.853-3.983-1.166-.676-6.853,3.983Z" transform="translate(-220.577 -151.302)" fill="#284192"/>
              <g id="グループ_2252" data-name="グループ 2252" transform="translate(32.543 27.998)" opacity="0.2">
                <path id="パス_4511" data-name="パス 4511" d="M254.286,183.959l6.853-3.983-1.166-.676-6.853,3.983Z" transform="translate(-253.12 -179.3)"/>
              </g>
              <path id="パス_4512" data-name="パス 4512" d="M262.307,192.261l-8.343,4.824a1.125,1.125,0,0,1-.99.005h0l-3.674-2.13h0a1.065,1.065,0,0,1-.479-.852v-.2c0-.314.218-.447.5-.288l2.22,1.278.5.288-.112-.564-.783-10.723,1.166.671,6.853-3.983,3.573,10.835A.868.868,0,0,1,262.307,192.261Z" transform="translate(-218.567 -151.905)" fill="#284192"/>
              <g id="グループ_2253" data-name="グループ 2253" transform="translate(30.253 28.684)" opacity="0.45">
                <path id="パス_4513" data-name="パス 4513" d="M262.307,192.261l-8.343,4.824a1.125,1.125,0,0,1-.99.005h0l-3.674-2.13h0a1.065,1.065,0,0,1-.479-.852v-.2c0-.314.218-.447.5-.288l2.22,1.278.5.288-.112-.564-.783-10.723,1.166.671,6.853-3.983,3.573,10.835A.868.868,0,0,1,262.307,192.261Z" transform="translate(-248.82 -180.59)"/>
              </g>
              <path id="パス_4514" data-name="パス 4514" d="M249.06,203.535l2.843-1.645.58,3.828Z" transform="translate(-218.679 -161.864)" fill="#284192"/>
              <path id="パス_4515" data-name="パス 4515" d="M249.06,203.535l2.843-1.645.58,3.828Z" transform="translate(-218.679 -161.864)" opacity="0.5"/>
              <path id="パス_4516" data-name="パス 4516" d="M252.252,187.461l-1.166-.671.783,10.723c.064.314-.112.437-.383.277l-2.22-1.278c-.277-.16-.5-.027-.5.288v.218a1.065,1.065,0,0,0,.479.852h0l3.674,2.13h0a1.065,1.065,0,0,0,.458.112Z" transform="translate(-218.543 -154.804)" fill="#284192"/>
              <g id="グループ_2254" data-name="グループ 2254" transform="translate(30.227 31.986)" opacity="0.65">
                <path id="パス_4517" data-name="パス 4517" d="M252.252,187.461l-1.166-.671.783,10.723c.064.314-.112.437-.383.277l-2.22-1.278c-.277-.16-.5-.027-.5.288v.218a1.065,1.065,0,0,0,.479.852h0l3.674,2.13h0a1.065,1.065,0,0,0,.458.112Z" transform="translate(-248.77 -186.79)"/>
              </g>
            </g>
          </g>
        </g>
        <g id="freepik--Characters--inject-37" transform="translate(88.338 23.076)">
          <g id="freepik--characters--inject-37-2" data-name="freepik--characters--inject-37">
            <g id="freepik--Character--inject-37" transform="translate(2.107)">
              <path id="パス_4518" data-name="パス 4518" d="M227.3,180.379h0c-2.4-5.7-6.437-15.792-6.682-17.725-.373-2.923,0-18.018.474-23.076s1.959-7.454,5.218-8.578a7.305,7.305,0,0,1,4.371,4.361c1.193,3.392.5,8.109.5,8.109l-1.47,19.168,3.754,14.216a6.816,6.816,0,0,0,2.274,3.557,24.153,24.153,0,0,1,2.359,1.97,42.827,42.827,0,0,0,2.87,3.418c1.161,1.044.783,1.23,0,1.544s-2.13-.458-3.195-1.486c-.351-.325-.676-.591-.958-.809a22.458,22.458,0,0,0,3.61,7c1.352,1.645,1.741,3.056-.213,3.669a7.766,7.766,0,0,1-7.066-.735c-2.1-1.5-3.195-4.494-3.919-6.959S228.337,182.743,227.3,180.379Z" transform="translate(-197.725 -100.156)" fill="#ffa8a7"/>
              <path id="パス_4519" data-name="パス 4519" d="M229.421,161.323l.282-5.42s1.6-16.953,1.6-20.233c0-3.679-1.006-5.324-2.359-5.963a20.92,20.92,0,0,0-5.745-1.416c-4.18,2.614-3.956,14.669-4.084,21.915s-.447,10.862.639,13.13,6.837,15.75,6.837,15.75a10.388,10.388,0,0,0,6.288-3.1Z" transform="translate(-197.026 -98.888)" fill="#37474f"/>
              <path id="パス_4520" data-name="パス 4520" d="M181.97,381.96H188.5l1.3-11.57H181.97Z" transform="translate(-179.727 -212.084)" fill="#ffa8a7"/>
              <path id="パス_4521" data-name="パス 4521" d="M221.6,359.33l6.959.229-.122-11.98-7.875-.149Z" transform="translate(-197.77 -201.349)" fill="#ffa8a7"/>
              <path id="パス_4522" data-name="パス 4522" d="M180.069,214.063c-.128,6.341-1.47,49.927-1.47,49.927a93.108,93.108,0,0,0-.831,10.34c-.176,8.381,1.6,28.289,1.6,28.289.389,1.81,7.145,2.545,8.04.91,0,0,3.7-28.874,4.744-37.17.91-7.247,3.727-30.083,3.727-30.083l2.524,22.411a72.668,72.668,0,0,0,.181,8.146c.272,3.839,2.2,26.489,2.2,26.489.032,1.411,7.06,2.577,8.242.5,0,0,2.226-33.059,2.29-36.584.08-4.015-.479-43.623-.479-43.623Z" transform="translate(-177.757 -138.78)" fill="#37474f"/>
              <path id="パス_4523" data-name="パス 4523" d="M187.489,385l.112-.985c.362,0,.532.4.666,1.273A18.924,18.924,0,0,0,190,390.612a26.6,26.6,0,0,0,3.945,5.985,23.6,23.6,0,0,1,2.1,2.417c.41.729.532,2.747-.144,3.195-2.55,1.7-6.427,1.746-9.163.942a5.255,5.255,0,0,1-3.983-4.467c-.442-2.5-.676-4.041-1.949-5.926a12.891,12.891,0,0,1-1.533-2.023c-.57-1.39-.112-2.95.25-4.334.314-1.193.65-2.508,1.065-2.4v.735a6.861,6.861,0,0,0,3.727,1.145C185.312,385.937,187.521,385.756,187.489,385Z" transform="translate(-178.34 -218.446)" fill="#263238"/>
              <path id="パス_4524" data-name="パス 4524" d="M227.694,366.163c.17.117.564.57,1.267,1.219a24.276,24.276,0,0,0,2.252,1.741,41.246,41.246,0,0,0,5.016,3.147c2.071,1.139,3.94,1.832,6.389,2.95a2.091,2.091,0,0,1,.692.458,1.363,1.363,0,0,1,.3.618,2.566,2.566,0,0,1-1.033,2.476,6.879,6.879,0,0,1-2.588,1.1,13.311,13.311,0,0,1-6.453.192,18.294,18.294,0,0,1-5.186-2.4,11.714,11.714,0,0,0-4.435-1.906c-1.39-.2-3.1-.133-4.307-.964-1.342-.921-.8-2.9-.426-4.59.415-1.853.506-4.675,1.347-4.611l.064.735c.075.8,2.013,1.166,3.509,1.171,1.241,0,3.583-.325,3.578-.91Z" transform="translate(-196.922 -209.843)" fill="#263238"/>
              <path id="パス_4525" data-name="パス 4525" d="M212.849,233.889a21.244,21.244,0,0,0,7.135-4.579s-1.139,3.322-5.809,6.054l.309,28.96-2.353-20.707Z" transform="translate(-193.828 -146.121)" opacity="0.3"/>
              <path id="パス_4526" data-name="パス 4526" d="M190.621,127.352c-1.187.282-4.946,1.294-7.987,2.375a8.519,8.519,0,0,0-3.85,2.944c-2.22,3.243-.218,10.431,1.411,23.96-.122,8.753-.373,18.018-.373,18.018,4.02,2.928,22.789,4.92,31.254-1.262,0,0,.282-31.228-.277-35.5-1.065-8.168-4.26-10.356-10.878-10.739Z" transform="translate(-177.777 -98.355)" fill="#263238"/>
              <path id="パス_4527" data-name="パス 4527" d="M220.26,145.2c.6,2.045,3.919,15.542,3.674,20.622-.186,3.972-1.677,5.9-2.476,6.751s-2.178,1.294-3.062-.1a11.575,11.575,0,0,1-1.837-5c-.277-2.715,1.219-12.108.8-21.777a2.076,2.076,0,0,1,2.9-.5Z" transform="translate(-195.883 -106.618)" fill="#284192"/>
              <path id="パス_4528" data-name="パス 4528" d="M218.689,136.517c1.39,1.193-.133,4.611-.133,4.611a3.951,3.951,0,0,0-2.9.5s-2.774-1.182-2.779-3.237c0-1.869,1.986-1.267,3.4-1.512C217.773,136.613,218.524,135.516,218.689,136.517Z" transform="translate(-194.179 -102.541)" fill="#284192"/>
              <path id="パス_4529" data-name="パス 4529" d="M218.556,141.846c-.229-.8-1.32-.724-2.188-1a2.343,2.343,0,0,1-1.177-1.012c-.447-.772,0-2.061.628-2.194h0c-1.347.1-2.944-.208-2.939,1.464,0,2.055,2.779,3.237,2.779,3.237a3.951,3.951,0,0,1,2.9-.5Z" transform="translate(-194.179 -103.26)" opacity="0.2"/>
              <path id="パス_4530" data-name="パス 4530" d="M205.6,84.156a8.551,8.551,0,1,0,8.343-8.759A8.551,8.551,0,0,0,205.6,84.156Z" transform="translate(-190.773 -74.157)" fill="#263238"/>
              <path id="パス_4531" data-name="パス 4531" d="M194.17,103.54s1.539,6.48,2.13,7.534a2.95,2.95,0,0,0,1.736,1.331l-.229-4.574Z" transform="translate(-185.431 -87.316)" fill="#263238"/>
              <path id="パス_4532" data-name="パス 4532" d="M194.188,85.985a3.2,3.2,0,0,0-2.662,1c-1.113,1.2-.389,4.829,1.118,8.37l2.62.24Z" transform="translate(-183.943 -79.101)" fill="#263238"/>
              <path id="パス_4533" data-name="パス 4533" d="M195.289,91.807c-.532.325-1.289-.666-1.949-1.326a2.275,2.275,0,0,0-3.791.708c-1,2.236,1.065,5.218,2.726,5.7,2.881.831,3.264-1.012,3.264-1.012l.49,11.671h0c2.039,2.487,6.389,1.81,8.759,1.326,1.9-.383,2.391-.916.532-2.982l-.085-3.344a18.15,18.15,0,0,0,3.86.106c2.092-.378,3.381-2.066,3.956-4.355.879-3.5,1.1-7.406.218-13.806C212.2,76.627,202.962,76.77,198.09,80S195.289,91.807,195.289,91.807Z" transform="translate(-183.148 -75.338)" fill="#ffa8a7"/>
              <path id="パス_4534" data-name="パス 4534" d="M198.515,90.4c-.261,0-1.3-1.6-1.965-2.2-.926-.783.053-8.237.053-8.237a3.615,3.615,0,0,1,.532-4.031c1.209-1.39,2.891-3.093,8.519-2.561,4.009.373,8.391,1.517,11.868-.293a5.99,5.99,0,0,1-1.933,6.389A12.08,12.08,0,0,1,211,80.8a49.41,49.41,0,0,1-9.281.048c-.974-.112-1.161.836-1.624,3.418C199.692,86.525,199.4,90.358,198.515,90.4Z" transform="translate(-186.358 -73.07)" fill="#263238"/>
              <path id="パス_4535" data-name="パス 4535" d="M194.221,84.688,191,83.09a1.752,1.752,0,0,1,2.38-.852,1.89,1.89,0,0,1,.841,2.449Z" transform="translate(-183.949 -77.271)" fill="#263238"/>
              <path id="パス_4536" data-name="パス 4536" d="M211.551,120.745a36.508,36.508,0,0,1-6.389-1.667,5.468,5.468,0,0,1-2.321-2.188,7.384,7.384,0,0,0,1.352,2.614c1.241,1.507,7.38,2.582,7.38,2.582Z" transform="translate(-189.485 -93.558)" fill="#f28f8f"/>
              <path id="パス_4543" data-name="パス 4543" d="M208.758,130.011c-2.609-.532-8.322-2.13-8.918-5.165l-.08-1.656c-1.012,0-1.475,1.134-1.975,2.753-.208,4.26,4.291,8.157,8.812,9.206a6.894,6.894,0,0,1,.65-3.37,7.821,7.821,0,0,1,1.512-1.768Z" transform="translate(-187.117 -96.504)" fill="#37474f"/>
              <path id="パス_4544" data-name="パス 4544" d="M218.837,125a4.462,4.462,0,0,1,1.821,1.065c3.386,3.5,1.454,8.093,1.454,8.093s-.149-2.007-1.134-2.662a4.936,4.936,0,0,0-2.577-.639,2.548,2.548,0,0,0,.532-2.982Z" transform="translate(-196.76 -97.35)" fill="#37474f"/>
            </g>
            <g id="freepik--character--inject-37-2" data-name="freepik--character--inject-37" transform="translate(56.849 1.327)">
              <path id="パス_4545" data-name="パス 4545" d="M310.051,141.3c-2.013,5.857-4.526,16.106-4.526,16.106l-18.811,7.577.533,2.471-4.467-1.837-2.21,2.305s2.444,5.713,5.7,4.984a21.406,21.406,0,0,0,2.284-.575c1.028-.362,1.826-.815,2.625-1.129,1.182-.458,2.385-.831,3.956-1.3,6.15-1.832,12.683-3.546,14.6-4.132,2.95-.905,2.987-1.523,4.212-4.9,1.762-4.877,5.181-16.373,5.181-16.373V133.67C315.248,133.713,312.213,134.974,310.051,141.3Z" transform="translate(-280.57 -102.731)" fill="#ffc6c6"/>
              <g id="freepik--character--inject-37-3" data-name="freepik--character--inject-37" transform="translate(24.593)">
                <path id="パス_4546" data-name="パス 4546" d="M394.171,369.9a53.012,53.012,0,0,1,.98,5.378c.261,2.029.421,3.53,1.012,7,.532,3.163.948,5.58-1.289,7.955-1.965,2.092-5.431,2.9-6.57.532-1.3-2.715-1.134-7.129-.958-9.877s.138-3.551.16-5.74c0-1.927.112-2.715.218-4.377C389.837,370.635,392.062,370.065,394.171,369.9Z" transform="translate(-355.03 -213.182)" fill="#37474f"/>
                <path id="パス_4547" data-name="パス 4547" d="M355.333,381.807l-.724-.107c-.048-2.279.085-4.355-.479-5.431l1.033-2.79Z" transform="translate(-339.556 -214.856)" fill="#263238"/>
                <path id="パス_4548" data-name="パス 4548" d="M358.024,369.66c-.165,1.56-1.065,3.157-1.113,6.23a26.748,26.748,0,0,0,.08,3.929l-.751.2-.17-8.327Z" transform="translate(-340.463 -213.07)" fill="#263238"/>
                <path id="パス_4549" data-name="パス 4549" d="M327.5,380.747s.032.91.426,1.209,1.219,1.2,5.223.964,5.41-1.225,6.778-2.476,1.725-4.526,1.933-6.075a11.362,11.362,0,0,1,2.806-6.075,2.662,2.662,0,0,0,.117-1.555,5.041,5.041,0,0,0-4.744,3.482c-1.432,3.669-2.556,7.923-5.793,8.94A56.025,56.025,0,0,1,327.5,380.747Z" transform="translate(-327.105 -211.703)" fill="#263238"/>
                <path id="パス_4550" data-name="パス 4550" d="M366.076,285.408c0-2.588,0-6.022.24-10.574.272-5.324.309-9.44.287-15.057,0-4.26-.24-8.019-1.746-16.17,1.6-16.373,2.178-33.294.245-39.513-1.656-5.324-3.349-7.119-4.84-9.733-.777-1.352-2.2-3.36-2.2-5.17a33.458,33.458,0,0,1-11.831,2.3c-7.593.069-10.244-1.991-10.244-1.991s-3.424,39.667-2.71,52.611c.426,7.662,1.038,19,1.267,24.578.176,4.3.671,9.887.628,12.246a19.9,19.9,0,0,1-1.187,6.054,43.7,43.7,0,0,1-2.487,6.128,6.246,6.246,0,0,1-.921,1.448,16.59,16.59,0,0,1-1.7,1.651c-1.225,1.065-1.837,1.6-1.73,2.556s.836,1.374,1.661,1.6a13.7,13.7,0,0,0,6.166,0c1.97-.346,4.169-1.278,5.01-3.157a7.657,7.657,0,0,0,.469-1.725,24.809,24.809,0,0,1,1.507-5.718,12.609,12.609,0,0,1,1.076-2.2,5.549,5.549,0,0,0,1.246-2.492,5.894,5.894,0,0,0-1.3-3.056h0c-.682-1.022-.5-1.73-.256-4.946.532-6.964,1.933-11.975,3.125-20.435a39,39,0,0,0-.25-12.246c.809-5.543,2.21-11.357,3.035-15.185,1.336,7.987,2.194,10.931,2.923,16.99,1.006,8.4,5.729,25.973,6.48,30.493s1.225,7.55,1.6,11.224c.3,3.195.532,9.584.942,12.507.639,4.669,5.447,3.243,6.224-.873C367.28,294.784,366.119,288.981,366.076,285.408Z" transform="translate(-326.936 -128.69)" fill="#ffc6c6"/>
                <path id="パス_4551" data-name="パス 4551" d="M340.633,195.09c-.437,5.495-2.433,27.687-2.822,34.651-.314,5.6-.154,12.2,0,16.767,3.685,2.391,18.763,6.693,26.553-4.622,1.6,3.85,3.5,5.942,5.756,4.643,0,0,1.656-16.181,1.725-26.622s-1.182-15.414-3.727-19.168-4.345-6.389-4.345-6.389Z" transform="translate(-331.842 -131.102)" fill="#37474f"/>
                <path id="パス_4552" data-name="パス 4552" d="M344.085,360.556c-.57-1.006-1.091-1.289-1.64-2.156a4.291,4.291,0,0,0-1.294,2.13c-.245.8-.884,4.733-1.853,7.859a5.938,5.938,0,0,1-3.621,4.233,6.773,6.773,0,0,1-3.3.373h0c-2.082-.282-1.6-1.784-1.6-1.784-.479.666-2.465,2.284-3.642,3.477a1.811,1.811,0,0,0,.154,2.359c.58.5,1.938,1.5,6.922.777,4.419-.639,5.452-2.662,5.857-3.6a21.531,21.531,0,0,0,.916-4.142,13.115,13.115,0,0,1,1.549-4.393c.1-.17.2-.33.293-.469h0a16.953,16.953,0,0,1,1.065-1.4c.309-.373.532-.532.639-.905A3.376,3.376,0,0,0,344.085,360.556Z" transform="translate(-326.758 -207.805)" fill="#37474f"/>
                <path id="パス_4553" data-name="パス 4553" d="M339.014,153.376c.117,2.2,1.1,10.164,1.1,10.164,8.982,6.081,22.07-.309,22.07-.309l2.449-16.575a10.1,10.1,0,0,1-.974-12.422l-7.124-.458-7.625-.037-3.9-.069c-2.742,2.013-7.481,7.161-8.359,9.419S335.021,148.674,339.014,153.376Z" transform="translate(-331.059 -102.731)" fill="#284192"/>
                <g id="グループ_2255" data-name="グループ 2255" transform="translate(4.897 30.939)" opacity="0.6">
                  <path id="パス_4554" data-name="パス 4554" d="M339.014,153.376c.117,2.2,1.1,10.164,1.1,10.164,8.982,6.081,22.07-.309,22.07-.309l2.449-16.575a10.1,10.1,0,0,1-.974-12.422l-7.124-.458-7.625-.037-3.9-.069c-2.742,2.013-7.481,7.161-8.359,9.419S335.021,148.674,339.014,153.376Z" transform="translate(-335.955 -133.67)" fill="#fff"/>
                </g>
                <path id="パス_4555" data-name="パス 4555" d="M358.25,166.049c.777,1.006,4.387,2.247,7.353.932a6.709,6.709,0,0,0,4.126-5.431A5.9,5.9,0,0,1,366,167.987C361.429,169.851,358.484,167.05,358.25,166.049Z" transform="translate(-341.482 -115.766)" fill="#263238" opacity="0.1"/>
                <path id="パス_4556" data-name="パス 4556" d="M344.532,99.876s13.439,5.239,13.439,2.9c2.518-4.67,7.609-6.176,7.609-14.339,0-8.519-7.081-12.693-14.163-12.693h0a12.869,12.869,0,0,0-11.038,6.171c-4.041,1.065-3.008,6.645,1.038,7.646Z" transform="translate(-331.929 -75.645)" fill="#263238"/>
                <path id="パス_4557" data-name="パス 4557" d="M375.066,122.293a5.184,5.184,0,1,1,6.884-.777A4.906,4.906,0,0,1,375.066,122.293Z" transform="translate(-348.672 -93.308)" fill="#263238"/>
                <path id="パス_4558" data-name="パス 4558" d="M360.747,112.857V102.506a2.458,2.458,0,0,0,3.285-.106c1.752-1.283,2.486-4.036,1.257-5.458-.868-1.006-3.562-1.56-4.611.607,0,0-3.12-.149-7.193-3.04s-5.037-5.442-7.534-5.729c-1.171.895-2.311,3.53-2.188,10.478.091,5.143,2.391,7.6,3.567,8.482.958.719,2.183.82,4.26.479V113.1s-6.128,6.821-1.193,6.517A12.642,12.642,0,0,0,360.747,112.857Z" transform="translate(-334.704 -81.742)" fill="#ffc6c6"/>
                <path id="パス_4559" data-name="パス 4559" d="M373.754,102.686v2.854h0a2.018,2.018,0,0,1-2.034-2V100.79Z" transform="translate(-347.78 -87.358)" fill="#263238"/>
                <path id="パス_4565" data-name="パス 4565" d="M358.451,122.4c2.183-.277,6.682-1.544,7.38-3.29a4.51,4.51,0,0,1-1.6,2.226c-1.342,1.129-5.8,2.4-5.8,2.4Z" transform="translate(-341.567 -95.923)" fill="#ffa8a7"/>
                <path id="パス_4566" data-name="パス 4566" d="M353.97,75.971c-4.515-1.033-6.315.277-10.883-.208-1.874-.2-3.589-.288-4.84.346a4.144,4.144,0,0,0-2.071,4.323c.325,3.429,4.02,4.307,4.02,4.307s3.136-7.055,7.3-7A10.782,10.782,0,0,0,353.97,75.971Z" transform="translate(-331.149 -75.562)" fill="#263238"/>
              </g>
              <path id="パス_4567" data-name="パス 4567" d="M343.35,186.945l-.08,4.414a16.136,16.136,0,0,0,8.242,2.582c5.335.357,12.827-1.746,14.908-3.312a7.29,7.29,0,0,1-.564-4.26,26.51,26.51,0,0,1-13.221,2.955C345.16,188.963,343.35,186.945,343.35,186.945Z" transform="translate(-309.886 -127.371)" fill="#263238"/>
              <path id="パス_4568" data-name="パス 4568" d="M397.049,180.02h0c.607-5.527,1.475-15.9,1.2-17.624-.426-2.614-4.936-17.571-6.491-22.128-1.486-4.313-3.727-5.628-7.545-5.628,0,0-2.662,1.193-2.662,5.431a17.455,17.455,0,0,0,1.6,6.533l6.7,19.014.394,13.21a6.144,6.144,0,0,1-1.065,3.642,21.629,21.629,0,0,0-1.528,2.3c-.639,1.326-.873,2.487-1.6,3.679s-.362,1.262.383,1.336,1.7-.932,2.385-2.13c.218-.367.426-.682.618-.942a20.074,20.074,0,0,1-1.326,6.954c-.745,1.762-.719,3.078,1.123,3.1a8.358,8.358,0,0,0,6.48-2.721c1.422-1.832,1.6-4.686,1.6-7S396.762,182.32,397.049,180.02Z" transform="translate(-327.784 -103.184)" fill="#ffc6c6"/>
            </g>
            <path id="パス_4569" data-name="パス 4569" d="M257.847,198.854c-.729-.117-2.061-.288-2.939-.362-2.518-.213-5.8-.41-5.8-.41l.783-7.96,4.765.682a13.348,13.348,0,0,0,4.419-.106c1.922-.335,3.589-1.677,5.543-1.677a2.753,2.753,0,0,1,2.194,1.432,11.536,11.536,0,0,1,1.107,1.5c1.438,2.391,3.589,5.511,4.409,5.974a1.737,1.737,0,0,0,1.517.261c1.092,1.853-2.822,2.385-4.51,2.822a11.458,11.458,0,0,1-5.495-.1C262.48,200.473,258.577,198.971,257.847,198.854Z" transform="translate(-209.012 -127.283)" fill="#ffa8a7"/>
            <path id="パス_4570" data-name="パス 4570" d="M180.749,132a12.608,12.608,0,0,0-5.117,3.04c-2.13,2.13-2.236,5.713-1.166,9.312s10.345,19.674,11.714,22.134c1.784,3.195,2.833,3.195,5.857,3.535,3.786.453,26.505,1.938,26.505,1.938,1.326-.261,2.039-6.89.713-8.1l-23.933-3.727L187.266,142.6S185.088,132.612,180.749,132Z" transform="translate(-173.801 -100.623)" fill="#37474f"/>
            <path id="パス_4571" data-name="パス 4571" d="M286.114,189.63c-1.517.426-2.694-.053-4.377-.612-1.768-.58-2.2-.66-3.551-.234-1.257.4-2.7.687-3.221,1.432-.154.229-.666,1.794-1.065,2.955.032.575,1.406.777,2.007-.059.532-.713.628-1.134.857-1.4a15.478,15.478,0,0,1,2.742,0l6.3,2.811Z" transform="translate(-220.603 -127.047)" fill="#ffc6c6"/>
            <path id="パス_4572" data-name="パス 4572" d="M264.773,206.578a2.215,2.215,0,0,1,1.837-.926,13.1,13.1,0,0,1,2.369.122c.708.085,1.422.138,2.13.224.362.048.719.1,1.065.165.234.043.532.208.532.5a2.967,2.967,0,0,1,.926-.234,1.214,1.214,0,0,1,.889.282c.532.485.165,1.23-.176,1.7a2.721,2.721,0,0,1-1.6,1.161,9.585,9.585,0,0,1-3.69-.181C267.872,209.08,263.645,207.738,264.773,206.578Z" transform="translate(-216.247 -135.055)" fill="#ffc6c6"/>
          </g>
        </g>
        <g id="freepik--speech-bubble--inject-37" transform="translate(128.373 0)">
          <g id="freepik--speech-bubble--inject-37-2" data-name="freepik--speech-bubble--inject-37">
            <ellipse id="楕円形_353" data-name="楕円形 353" cx="18.769" cy="16.437" rx="18.769" ry="16.437" transform="translate(2.097)" fill="#284192"/>
            <path id="パス_4573" data-name="パス 4573" d="M255.044,77.77a9.687,9.687,0,0,1-5.889,7.156.234.234,0,0,0,0,.447A10.116,10.116,0,0,0,259.8,82.232Z" transform="translate(-248.991 -52.191)" fill="#284192"/>
            <path id="パス_4574" data-name="パス 4574" d="M311.825,77.77a9.683,9.683,0,0,0,5.894,7.156.234.234,0,0,1,0,.447,10.116,10.116,0,0,1-10.649-3.141Z" transform="translate(-276.146 -52.191)" fill="#284192"/>
          </g>
        </g>
      </g>
      <path id="thumbs-up" d="M12.751,8.271V4.688A2.688,2.688,0,0,0,10.063,2L6.48,10.063v9.855H16.586A1.792,1.792,0,0,0,18.377,18.4l1.236-8.063a1.792,1.792,0,0,0-1.792-2.061ZM6.48,19.918H3.792A1.792,1.792,0,0,1,2,18.127V11.855a1.792,1.792,0,0,1,1.792-1.792H6.48" transform="translate(11898.377 14851.676)" fill="none" stroke="#fff" stroke-linecap="round" stroke-linejoin="round" stroke-width="2"/>
    </g>
  </g>
</svg>
