<svg xmlns="http://www.w3.org/2000/svg" xmlns:xlink="http://www.w3.org/1999/xlink" width="412" height="412" viewBox="0 0 412 412">
  <defs>
    <filter id="楕円形_369" x="0" y="0" width="412" height="412" filterUnits="userSpaceOnUse">
      <feOffset dx="5" dy="5" input="SourceAlpha"/>
      <feGaussianBlur stdDeviation="5" result="blur"/>
      <feFlood flood-opacity="0.161"/>
      <feComposite operator="in" in2="blur"/>
      <feComposite in="SourceGraphic"/>
    </filter>
  </defs>
  <g id="グループ_2573" data-name="グループ 2573" transform="translate(-10602 -14743)">
    <g transform="matrix(1, 0, 0, 1, 10602, 14743)" filter="url(#楕円形_369)">
      <circle id="楕円形_369-2" data-name="楕円形 369" cx="191" cy="191" r="191" transform="translate(10 10)" fill="#fff"/>
    </g>
    <g id="グループ_2388" data-name="グループ 2388" transform="translate(10698.047 14831.275)">
      <g id="Tiredness-amico" transform="translate(0 21.562)">
        <g id="freepik--Shadow--inject-25" transform="translate(1.769 87.081)">
          <path id="freepik--shadow--inject-25-2" data-name="freepik--shadow--inject-25" d="M136.669,382.666,39.53,326.446l148-85.586,97.139,56.213Z" transform="translate(-39.53 -240.86)" fill="#e0e0e0"/>
        </g>
        <g id="freepik--Boxes--inject-25" transform="translate(111.017 24.243)">
          <g id="freepik--boxes--inject-25-2" data-name="freepik--boxes--inject-25">
            <g id="freepik--Box--inject-25" transform="translate(2.033 27.459)">
              <path id="パス_4076" data-name="パス 4076" d="M268.526,264.444V240.75L237.75,222.98v23.694Z" transform="translate(-236.836 -197.366)" fill="#f0f0f0"/>
              <path id="パス_4077" data-name="パス 4077" d="M291.94,235.6l42.577-24.546v23.688L291.94,259.29Z" transform="translate(-260.25 -192.212)" fill="#e6e6e6"/>
              <path id="パス_4078" data-name="パス 4078" d="M267.83,221.264l-31.69-18.3,43.486-25.08,31.69,18.3Z" transform="translate(-236.14 -177.88)" fill="#fafafa"/>
              <path id="パス_4079" data-name="パス 4079" d="M267.83,240.344v5.923l-31.69-18.3V222.04Z" transform="translate(-236.14 -196.96)" fill="#f0f0f0"/>
              <path id="パス_4080" data-name="パス 4080" d="M335.426,210.11,291.94,235.19v5.923l43.486-25.074Z" transform="translate(-260.25 -191.806)" fill="#e6e6e6"/>
              <path id="パス_4081" data-name="パス 4081" d="M237.75,228.255v1.3l30.776,17.776v-1.306ZM311.1,221.48l-42.594,24.546v1.306L311.1,222.786Z" transform="translate(-236.836 -196.718)" opacity="0.1"/>
              <path id="パス_4082" data-name="パス 4082" d="M265.476,255.907l-10.512-6.071c-.454-.261-.823-.045-.823.477v6.213a1.812,1.812,0,0,0,.823,1.42l10.512,6.071c.454.261.818.051.818-.471v-6.219A1.806,1.806,0,0,0,265.476,255.907Z" transform="translate(-243.917 -208.922)" fill="#e0e0e0"/>
              <path id="パス_4083" data-name="パス 4083" d="M265.476,255.907l-10.512-6.071c-.454-.261-.823-.045-.823.477v6.213a1.812,1.812,0,0,0,.823,1.42l10.512,6.071c.454.261.818.051.818-.471v-6.219A1.806,1.806,0,0,0,265.476,255.907Z" transform="translate(-243.917 -208.922)" opacity="0.1"/>
              <path id="パス_4084" data-name="パス 4084" d="M265.5,257.768l-9.166-5.293c-.3-.17-.568-.028-.568.318v4.663a1.2,1.2,0,0,0,.568.943l9.166,5.293c.3.176.568.034.568-.312v-4.663A1.221,1.221,0,0,0,265.5,257.768Z" transform="translate(-244.622 -210.079)" fill="#f5f5f5"/>
              <g id="グループ_2214" data-name="グループ 2214" transform="translate(11.839 43.646)" opacity="0.2">
                <path id="パス_4085" data-name="パス 4085" d="M265.774,260a.142.142,0,0,0,.119-.068.136.136,0,0,0-.051-.182l-8.655-5a.136.136,0,0,0-.182.051.131.131,0,0,0,.045.182l8.655,5Z" transform="translate(-256.985 -254.732)"/>
                <path id="パス_4086" data-name="パス 4086" d="M265.774,262a.148.148,0,0,0,.119-.062.136.136,0,0,0-.051-.182l-8.655-5a.132.132,0,0,0-.136.227l8.655,5Z" transform="translate(-256.986 -255.598)"/>
                <path id="パス_4087" data-name="パス 4087" d="M265.774,264.045a.142.142,0,0,0,.119-.068.136.136,0,0,0-.051-.182l-8.655-5a.136.136,0,0,0-.182.051.131.131,0,0,0,.045.182l8.655,5A.155.155,0,0,0,265.774,264.045Z" transform="translate(-256.985 -256.482)"/>
                <path id="パス_4088" data-name="パス 4088" d="M265.774,266.058a.147.147,0,0,0,.119-.062.136.136,0,0,0-.051-.182l-8.655-5a.133.133,0,0,0-.136.227l8.655,5a.156.156,0,0,0,.068.017Z" transform="translate(-256.986 -257.352)"/>
              </g>
            </g>
            <g id="freepik--box--inject-25-2" data-name="freepik--box--inject-25">
              <path id="パス_4089" data-name="パス 4089" d="M309.364,194.725l-42.731,24.642L237.47,202.522,280.2,177.88Z" transform="translate(-234.682 -150.421)" opacity="0.1"/>
              <g id="freepik--box--inject-25-3" data-name="freepik--box--inject-25">
                <path id="パス_4090" data-name="パス 4090" d="M264.946,216.094V192.4L234.17,174.63v23.694Z" transform="translate(-233.256 -149.016)" fill="#f0f0f0"/>
                <path id="パス_4091" data-name="パス 4091" d="M288.36,187.241l42.577-24.552v23.694L288.36,210.935Z" transform="translate(-256.67 -143.858)" fill="#e6e6e6"/>
                <path id="パス_4092" data-name="パス 4092" d="M264.25,172.914l-31.69-18.3,43.486-25.08,31.69,18.3Z" transform="translate(-232.56 -129.53)" fill="#fafafa"/>
                <path id="パス_4093" data-name="パス 4093" d="M264.25,191.994v5.923l-31.69-18.3V173.69Z" transform="translate(-232.56 -148.61)" fill="#f0f0f0"/>
                <path id="パス_4094" data-name="パス 4094" d="M331.846,161.76,288.36,186.84v5.923l43.486-25.074Z" transform="translate(-256.67 -143.456)" fill="#e6e6e6"/>
                <path id="パス_4095" data-name="パス 4095" d="M234.17,179.905v1.3l30.776,17.77v-1.3Zm73.353-6.775-42.594,24.546v1.3l42.594-24.546Z" transform="translate(-233.256 -148.368)" opacity="0.1"/>
                <path id="パス_4096" data-name="パス 4096" d="M261.891,207.556l-10.518-6.071c-.454-.261-.823-.051-.823.477v6.213a1.812,1.812,0,0,0,.823,1.42l10.512,6.071c.454.261.818.051.818-.471v-6.247A1.806,1.806,0,0,0,261.891,207.556Z" transform="translate(-240.333 -160.571)" fill="#e0e0e0"/>
                <path id="パス_4097" data-name="パス 4097" d="M261.891,207.556l-10.518-6.071c-.454-.261-.823-.051-.823.477v6.213a1.812,1.812,0,0,0,.823,1.42l10.512,6.071c.454.261.818.051.818-.471v-6.247A1.806,1.806,0,0,0,261.891,207.556Z" transform="translate(-240.333 -160.571)" opacity="0.1"/>
                <path id="パス_4098" data-name="パス 4098" d="M261.924,209.417l-9.166-5.293c-.3-.17-.568-.034-.568.318V209.1a1.2,1.2,0,0,0,.568.948l9.166,5.293c.307.176.568.034.568-.318v-4.657A1.2,1.2,0,0,0,261.924,209.417Z" transform="translate(-241.042 -161.729)" fill="#f5f5f5"/>
                <g id="グループ_2215" data-name="グループ 2215" transform="translate(11.844 43.667)" opacity="0.2">
                  <path id="パス_4099" data-name="パス 4099" d="M262.212,211.673a.142.142,0,0,0,.119-.068.136.136,0,0,0-.051-.182l-8.655-5a.136.136,0,0,0-.131.233l8.655,5A.114.114,0,0,0,262.212,211.673Z" transform="translate(-253.429 -206.419)"/>
                  <path id="パス_4100" data-name="パス 4100" d="M262.2,213.679a.147.147,0,0,0,.119-.063.136.136,0,0,0-.051-.182l-8.655-5a.131.131,0,0,0-.131.227l8.655,5A.114.114,0,0,0,262.2,213.679Z" transform="translate(-253.414 -207.283)"/>
                  <path id="パス_4101" data-name="パス 4101" d="M262.212,215.7a.142.142,0,0,0,.119-.068.136.136,0,0,0-.051-.182l-8.655-5a.136.136,0,0,0-.131.233l8.655,5A.114.114,0,0,0,262.212,215.7Z" transform="translate(-253.429 -208.16)"/>
                  <path id="パス_4102" data-name="パス 4102" d="M262.2,217.709a.147.147,0,0,0,.119-.062.142.142,0,0,0-.051-.187l-8.655-4.992a.131.131,0,0,0-.131.227l8.655,5A.113.113,0,0,0,262.2,217.709Z" transform="translate(-253.414 -209.024)"/>
                </g>
              </g>
            </g>
          </g>
        </g>
        <g id="freepik--Files--inject-25" transform="translate(115.507 12.482)">
          <g id="freepik--files--inject-25-2" data-name="freepik--files--inject-25">
            <path id="パス_4103" data-name="パス 4103" d="M240.45,153.08,269.369,169.6a.608.608,0,0,0,.329.085.67.67,0,0,0,.341-.074l35.887-20.718a.213.213,0,0,0,0-.4L276.962,131.97Z" transform="translate(-240.45 -118.748)" opacity="0.1"/>
            <path id="パス_4104" data-name="パス 4104" d="M305.932,149.243a.676.676,0,0,1-.324.494L272.1,169.047a.619.619,0,0,1-.6,0L245.38,154.116l.034-.63,34.11-19.7,26.153,14.936A.63.63,0,0,1,305.932,149.243Z" transform="translate(-242.58 -119.534)" fill="#e6e6e6"/>
            <path id="パス_4105" data-name="パス 4105" d="M291.908,179.853l-.028.63a.653.653,0,0,0,.3-.068l33.508-19.31a.71.71,0,0,0,.335-.494.67.67,0,0,0-.278-.511.2.2,0,0,1,0,.369l-33.508,19.309A.608.608,0,0,1,291.908,179.853Z" transform="translate(-262.672 -130.902)" opacity="0.1"/>
            <path id="パス_4106" data-name="パス 4106" d="M245.38,153.487,271.5,168.418a.569.569,0,0,0,.3.08.608.608,0,0,0,.307-.068l33.508-19.31a.2.2,0,0,0,0-.369L279.456,133.82Z" transform="translate(-242.58 -119.547)" opacity="0.25"/>
            <path id="パス_4107" data-name="パス 4107" d="M245.354,168.45l-.034.63,26.125,14.931a.569.569,0,0,0,.3.08l.028-.63a.567.567,0,0,1-.3-.08Z" transform="translate(-242.554 -134.51)" opacity="0.15"/>
            <path id="パス_4108" data-name="パス 4108" d="M246.07,147.579l34.121-19.69.426-8.349L246.5,139.321Z" transform="translate(-242.878 -113.377)" fill="#e6e6e6"/>
            <path id="パス_4109" data-name="パス 4109" d="M246.07,147.579l34.121-19.69.426-8.349L246.5,139.321Z" transform="translate(-242.878 -113.377)" opacity="0.3"/>
            <path id="パス_4110" data-name="パス 4110" d="M308.811,142.743a.852.852,0,0,1,.341.693l-.085,1.7a.92.92,0,0,1-.409.676l-33.349,19.247a.8.8,0,0,1-.75,0L252.41,151.557l.136-2.607,34.11-19.69Z" transform="translate(-245.618 -117.577)" fill="#ebebeb"/>
            <path id="パス_4111" data-name="パス 4111" d="M286.81,129.25l22.149,13.511a.252.252,0,0,1,0,.46l-33.371,19.241a.8.8,0,0,1-.75,0L252.7,148.94Z" transform="translate(-245.743 -117.573)" fill="#fafafa"/>
            <path id="パス_4112" data-name="パス 4112" d="M257.094,163.97a.8.8,0,0,1-.256.085.709.709,0,0,1-.409,0,.227.227,0,0,1-.119-.051c-.2-.119-.165-.341.079-.477a.848.848,0,0,1,.358-.1.682.682,0,0,1,.426.08.041.041,0,0,1,.04.034C257.366,163.652,257.321,163.84,257.094,163.97Z" transform="translate(-247.246 -132.336)" fill="#e0e0e0"/>
            <path id="パス_4113" data-name="パス 4113" d="M292.191,172.868l-.131,2.612a.766.766,0,0,0,.381-.085l33.349-19.241a.943.943,0,0,0,.409-.682l.085-1.7a.857.857,0,0,0-.256-.619c.108.119.074.278-.1.38l-33.332,19.253A.682.682,0,0,1,292.191,172.868Z" transform="translate(-262.749 -127.899)" fill="#e6e6e6"/>
            <path id="パス_4114" data-name="パス 4114" d="M250.346,157.768a1.4,1.4,0,0,1,1.539.125,5.384,5.384,0,0,1,1.942,3.356l-.517.068a4.9,4.9,0,0,0-1.7-2.965,1.187,1.187,0,0,0-.63-.222.694.694,0,0,0-.4.1,2.192,2.192,0,0,0-.7,1.84,5.623,5.623,0,0,0,1.857,4.4,1.136,1.136,0,0,0,.761.216l.54.346H253a1.232,1.232,0,0,1-.659.176,1.7,1.7,0,0,1-.88-.3,6.046,6.046,0,0,1-2.09-4.85A2.588,2.588,0,0,1,250.346,157.768Z" transform="translate(-244.303 -129.82)" fill="#e0e0e0"/>
            <g id="グループ_2216" data-name="グループ 2216" transform="translate(5.064 27.775)" opacity="0.35">
              <path id="パス_4115" data-name="パス 4115" d="M250.346,157.768a1.4,1.4,0,0,1,1.539.125,5.384,5.384,0,0,1,1.942,3.356l-.517.068a4.9,4.9,0,0,0-1.7-2.965,1.187,1.187,0,0,0-.63-.222.694.694,0,0,0-.4.1,2.192,2.192,0,0,0-.7,1.84,5.623,5.623,0,0,0,1.857,4.4,1.136,1.136,0,0,0,.761.216l.54.346H253a1.232,1.232,0,0,1-.659.176,1.7,1.7,0,0,1-.88-.3,6.046,6.046,0,0,1-2.09-4.85A2.588,2.588,0,0,1,250.346,157.768Z" transform="translate(-249.367 -157.595)"/>
            </g>
            <path id="パス_4116" data-name="パス 4116" d="M306.486,137.578a.7.7,0,0,1-.324.5l-33.508,19.309a.636.636,0,0,1-.6,0L246.07,139.446l.028-.636,34.11-19.69,26.022,17.952A.63.63,0,0,1,306.486,137.578Z" transform="translate(-242.878 -113.196)" fill="#e6e6e6"/>
            <path id="パス_4117" data-name="パス 4117" d="M292.384,170.512l-.034.63a.608.608,0,0,0,.307-.068l33.508-19.31a.7.7,0,0,0,.324-.5.636.636,0,0,0-.273-.505.2.2,0,0,1,0,.363l-33.508,19.31A.512.512,0,0,1,292.384,170.512Z" transform="translate(-262.874 -126.867)" opacity="0.1"/>
            <path id="パス_4118" data-name="パス 4118" d="M246.12,138.852l25.988,17.941a.568.568,0,0,0,.3.08.511.511,0,0,0,.307-.068l33.508-19.309c.17-.1.182-.261,0-.363L280.218,119.19Z" transform="translate(-242.9 -113.226)" fill="#e6e6e6"/>
            <path id="パス_4119" data-name="パス 4119" d="M246.1,153.81l-.028.636,25.988,17.941a.523.523,0,0,0,.3.074l.034-.63a.567.567,0,0,1-.3-.08Z" transform="translate(-242.878 -128.185)" opacity="0.15"/>
            <path id="パス_4120" data-name="パス 4120" d="M245.38,162.137l.42-8.3.4.3-.426,8.258Z" transform="translate(-242.58 -128.198)" fill="#e6e6e6"/>
            <path id="パス_4121" data-name="パス 4121" d="M245.38,162.137l.42-8.3.4.3-.426,8.258Z" transform="translate(-242.58 -128.198)" opacity="0.15"/>
            <path id="パス_4122" data-name="パス 4122" d="M247.641,138.49a.5.5,0,0,1-.261-.426c0-.148.034-.647.034-.647l32.968-18.639a1.426,1.426,0,0,1,1.369,0l25.676,16.737-34.138,19.707Z" transform="translate(-243.444 -112.972)" fill="#e6e6e6"/>
            <path id="パス_4123" data-name="パス 4123" d="M247.641,138.49a.5.5,0,0,1-.261-.426c0-.148.034-.647.034-.647l32.968-18.639a1.426,1.426,0,0,1,1.369,0l25.676,16.737-34.138,19.707Z" transform="translate(-243.444 -112.972)" opacity="0.15"/>
            <path id="パス_4124" data-name="パス 4124" d="M247.7,137.377c-.369-.239-.346-.613.04-.841l32.7-18.878a1.454,1.454,0,0,1,1.374,0L307.485,134.4l-34.121,19.73Z" transform="translate(-243.468 -112.49)" fill="#e6e6e6"/>
            <path id="パス_4125" data-name="パス 4125" d="M247.7,137.377c-.369-.239-.346-.613.04-.841l32.7-18.878a1.454,1.454,0,0,1,1.374,0L307.485,134.4l-34.121,19.73Z" transform="translate(-243.468 -112.49)" opacity="0.25"/>
            <path id="パス_4126" data-name="パス 4126" d="M302.2,130.073,283.19,117.687a1.426,1.426,0,0,0-1.369,0l-30.356,17.526-2.471-1.624-.165,3.209.045.034a.432.432,0,0,0,.21.568l21.769,14.2,34.121-19.684.176-3.51Z" transform="translate(-244.071 -112.501)" fill="#ebebeb"/>
            <path id="パス_4127" data-name="パス 4127" d="M249.39,131.2c-.369-.239-.346-.613.045-.841l32.69-18.878a1.454,1.454,0,0,1,1.374.028l21.78,14.2-34.121,19.679Z" transform="translate(-244.199 -109.826)" fill="#fafafa"/>
            <path id="パス_4128" data-name="パス 4128" d="M287.786,156.32l-.176,3.5,34.121-19.684.176-3.51Z" transform="translate(-260.827 -120.762)" fill="#e6e6e6"/>
            <path id="パス_4129" data-name="パス 4129" d="M287.991,168.48a1,1,0,0,1-.261.085.693.693,0,0,1-.4,0,.267.267,0,0,1-.125-.051c-.2-.119-.165-.341.08-.477a.892.892,0,0,1,.364-.1.687.687,0,0,1,.426.08.045.045,0,0,1,.04.034C288.258,168.162,288.218,168.35,287.991,168.48Z" transform="translate(-260.594 -134.285)" fill="#e0e0e0"/>
            <path id="パス_4130" data-name="パス 4130" d="M289.792,167.4a1.783,1.783,0,0,0-.943-.318,1.227,1.227,0,0,0-1.011.471,1.607,1.607,0,0,0-.318.63.693.693,0,0,0,.4,0,1.017,1.017,0,0,1,.38-.534,1.079,1.079,0,0,1,1.272.091,3.919,3.919,0,0,1,1.533,3.158c-.057,1.136-.829,1.6-1.7,1.028l-.4.227c.057.045.119.079.17.114a1.76,1.76,0,0,0,.937.324h0a1.249,1.249,0,0,0,1.011-.483,2.05,2.05,0,0,0,.409-1.2A4.282,4.282,0,0,0,289.792,167.4Z" transform="translate(-260.788 -133.918)" fill="#e0e0e0"/>
            <path id="パス_4131" data-name="パス 4131" d="M289.792,167.4a1.783,1.783,0,0,0-.943-.318,1.227,1.227,0,0,0-1.011.471,1.607,1.607,0,0,0-.318.63.693.693,0,0,0,.4,0,1.017,1.017,0,0,1,.38-.534,1.079,1.079,0,0,1,1.272.091,3.919,3.919,0,0,1,1.533,3.158c-.057,1.136-.829,1.6-1.7,1.028l-.4.227c.057.045.119.079.17.114a1.76,1.76,0,0,0,.937.324h0a1.249,1.249,0,0,0,1.011-.483,2.05,2.05,0,0,0,.409-1.2A4.282,4.282,0,0,0,289.792,167.4Z" transform="translate(-260.788 -133.918)" opacity="0.35"/>
            <path id="パス_4132" data-name="パス 4132" d="M273.562,157.2,247.88,143v.454a.79.79,0,0,0,.312.636l25.364,13.715Z" transform="translate(-243.66 -123.514)" fill="#e6e6e6"/>
            <path id="パス_4133" data-name="パス 4133" d="M273.562,157.2,247.88,143v.454a.79.79,0,0,0,.312.636l25.364,13.715Z" transform="translate(-243.66 -123.514)" opacity="0.15"/>
            <path id="パス_4134" data-name="パス 4134" d="M248.142,128.607a.454.454,0,0,1,.045-.841l32.7-18.9a1.414,1.414,0,0,1,1.369,0l25.818,13.994L273.948,142.6Z" transform="translate(-243.661 -108.689)" fill="#e6e6e6"/>
            <path id="パス_4135" data-name="パス 4135" d="M293.03,161.748l34.121-19.684.426-8.354-34.121,19.7Z" transform="translate(-263.168 -119.5)" fill="#e6e6e6"/>
            <path id="パス_4136" data-name="パス 4136" d="M293.03,161.748l34.121-19.684.426-8.354-34.121,19.7Z" transform="translate(-263.168 -119.5)" opacity="0.1"/>
            <path id="パス_4137" data-name="パス 4137" d="M303.183,169.675a1.17,1.17,0,0,1-.965-.511,2,2,0,0,1-.284-1.221,4.657,4.657,0,0,1,2.079-3.459,1.9,1.9,0,0,1,.971-.284c.8,0,1.3.71,1.249,1.732a4.641,4.641,0,0,1-2.079,3.459A1.9,1.9,0,0,1,303.183,169.675Z" transform="translate(-267.012 -132.674)" fill="#e0e0e0"/>
            <path id="パス_4138" data-name="パス 4138" d="M302.638,168.271c-.057,1.136.676,1.63,1.647,1.073a4.2,4.2,0,0,0,1.857-3.1c.057-1.136-.676-1.63-1.647-1.073A4.225,4.225,0,0,0,302.638,168.271Z" transform="translate(-267.318 -132.996)" fill="#f5f5f5"/>
            <path id="パス_4139" data-name="パス 4139" d="M313.845,153.7l-.028.63c-.068,1.261.744,1.789,1.806,1.176l16.243-9.376a4.634,4.634,0,0,0,2.044-3.408l.028-.63c.068-1.266-.744-1.795-1.806-1.181l-16.243,9.382A4.606,4.606,0,0,0,313.845,153.7Z" transform="translate(-272.148 -122.498)" fill="#f5f5f5"/>
            <path id="パス_4140" data-name="パス 4140" d="M292.34,176.313l.42-8.3.4.221-.426,8.337Z" transform="translate(-262.87 -134.32)" fill="#e6e6e6"/>
            <path id="パス_4141" data-name="パス 4141" d="M292.34,176.313l.42-8.3.4.221-.426,8.337Z" transform="translate(-262.87 -134.32)" opacity="0.15"/>
          </g>
        </g>
        <g id="freepik--Character--inject-25" transform="translate(0 0)">
          <g id="freepik--character--inject-25-2" data-name="freepik--character--inject-25">
            <g id="freepik--Chair--inject-25" transform="translate(0 39.736)">
              <path id="パス_4142" data-name="パス 4142" d="M149.935,267.362c.159-2.084-1.494-4.464-5.174-7.292-6.787-5.214-31.452-22.365-41.033-28.72a.1.1,0,0,0-.079-.085c-7.338-5.3-8.973-41.578-12.949-58.911-.04-.165-.312-1.494-.869-3.209a.943.943,0,0,0-.08-.233c-.079-.233-.165-.466-.25-.71-.045-.119-.085-.244-.125-.358h0a16.334,16.334,0,0,0-3.158-5.435,7.747,7.747,0,0,0-1.647-1.363c-.829-.568-2.84-1.573-3.283-1.874-4.992-3.555-17.651,5.463-26.59,9.467-5.56,2.5-10.382,5.605-13.664,11.853h0a37.534,37.534,0,0,0-3.578,11.432c-1.471,8.871-1.176,38.619-.392,51.681h0c.9,21.808,4.117,22.1,8.519,26.091,7.553,6.866,29.737,20.905,37.142,24.523,13.42,6.559,25.42-.948,34.206-4.447s25.4-11.642,29.163-13.943c2.232-1.369,3.453-2.84,3.561-4.47C149.657,270.7,149.878,268.049,149.935,267.362Z" transform="translate(-36.416 -157.55)" fill="#263238"/>
              <path id="パス_4143" data-name="パス 4143" d="M122.628,338.627A315.574,315.574,0,0,0,151.8,324.679c5.083-3.1,4.924-6.707-1.6-11.722-9.087-6.969-46.3-32.207-46.3-32.207S60.616,301.6,50.36,310.714c-1.55,1.38-1.613,4.294-1.073,4.969,5.622,7.025,30.668,23.24,39.142,27.385C101.853,349.611,113.854,342.126,122.628,338.627Z" transform="translate(-41.844 -210.432)" fill="#455a64"/>
              <path id="パス_4144" data-name="パス 4144" d="M88.045,160.379a1.183,1.183,0,0,0-.142-.085,7.6,7.6,0,0,0-3.709-1.136c-4.543-.369-11.7,2.806-22.422,9.734a58.681,58.681,0,0,0-9.195,7.025l-.165.159a22.383,22.383,0,0,0-2.351,2.63c-.119.153-.239.307-.352.471s-.136.176-.193.267c-.148.21-.3.426-.432.642-.284.437-.568.892-.829,1.357-.034.051-.057.1-.085.148l-.307.568h0l-3.334-2.306c3.283-6.247,8.32-9.462,13.511-12.648,8.945-5.481,18.906-12.6,25.25-9.53C83.745,157.9,87.21,159.84,88.045,160.379Z" transform="translate(-39.922 -156.934)" fill="#455a64"/>
              <path id="パス_4145" data-name="パス 4145" d="M93.433,173.426c-.568-2.272-2.584-12.159-9.984-12.557-4.543-.358-11.7,2.811-22.422,9.74-4.992,3.226-10.745,7.355-13.63,12.7-4.2,6.639-4.861,25.051-4.612,42.759s1.391,34.717,3.788,37.852c4.214-11.813,53.953-35.069,59.808-31.554C99.044,227.038,97.408,190.759,93.433,173.426Z" transform="translate(-39.148 -158.623)" fill="#37474f"/>
            </g>
            <g id="freepik--Bottom--inject-25" transform="translate(17.825 106.747)">
              <path id="パス_4146" data-name="パス 4146" d="M70.152,275.14C67.188,286.9,67.438,298.1,68.67,303.127c1.5,6.156,5.242,13.7,16.987,20.61,16.708,9.831,28.323,16.351,28.323,16.351L169.3,304.025l-40.2-23.4Z" transform="translate(-67.802 -275.14)" fill="#284192"/>
              <path id="パス_4147" data-name="パス 4147" d="M70.152,275.14C67.188,286.9,67.438,298.1,68.67,303.127c1.5,6.156,5.242,13.7,16.987,20.61,16.708,9.831,28.323,16.351,28.323,16.351L169.3,304.025l-40.2-23.4Z" transform="translate(-67.802 -275.14)" opacity="0.1"/>
              <path id="パス_4148" data-name="パス 4148" d="M95.418,315.525c-.449-.488-.88-.977-1.3-1.46,4.169-1.107,6.622-6.287,6.1-12.131a51.256,51.256,0,0,1-.182-10.751l-.727-.091A51.588,51.588,0,0,0,99.485,302c.528,5.895-1.965,10.66-5.906,11.432-7.985-9.564-6.741-18.849-2.84-31.174l-.7-.221c-4.259,13.511-4.907,23.427,4.856,33.985,6.418,6.94,23.921,16.413,34.161,22.717l.687-.443C119.51,332.035,101.847,322.482,95.418,315.525Z" transform="translate(-76.133 -278.121)" opacity="0.35"/>
              <path id="パス_4149" data-name="パス 4149" d="M175.18,306.14a21.861,21.861,0,0,1-6.861,10.592c8.667,6.315,15.777,12.171,20.735,16.47l6.065-3.856-21.3-14.317C176.311,309.951,175.18,306.14,175.18,306.14Z" transform="translate(-111.233 -288.534)" opacity="0.35"/>
            </g>
            <g id="freepik--Desk--inject-25" transform="translate(5.449 78.994)">
              <path id="パス_4150" data-name="パス 4150" d="M139.434,365.989,46.01,311.923l147.465-85.3L286.9,280.687Z" transform="translate(-46.01 -226.62)" fill="#284192"/>
              <path id="パス_4151" data-name="パス 4151" d="M139.434,365.989,46.01,311.923l147.465-85.3L286.9,280.687Z" transform="translate(-46.01 -226.62)" fill="#fff" opacity="0.8"/>
              <path id="パス_4152" data-name="パス 4152" d="M46.01,376.82v6.758l93.645,54.067v-6.758Z" transform="translate(-46.01 -291.517)" fill="#284192"/>
              <path id="パス_4153" data-name="パス 4153" d="M46.01,376.82v6.758l93.645,54.067v-6.758Z" transform="translate(-46.01 -291.517)" fill="#fff" opacity="0.5"/>
              <path id="パス_4154" data-name="パス 4154" d="M210.9,413.881l147.814-85.3V321.82L210.9,407.123Z" transform="translate(-117.825 -267.753)" fill="#284192"/>
              <path id="パス_4155" data-name="パス 4155" d="M210.9,407.123l147.814-85.3v6.758L210.9,413.881Z" transform="translate(-117.825 -267.753)" fill="#fff" opacity="0.65"/>
            </g>
            <g id="freepik--Top--inject-25" transform="translate(17.665)">
              <path id="freepik--Chest--inject-25" d="M139.857,172.049c-8.922-4.6-19.344-3.209-34.859,2.556-20.661,7.684-23.325,16.867-29.248,32.5-4.146,10.938-8.235,28.675-8.229,36.978,7.241,6.463,16.237,6.673,27.368,5.31,20.258-2.471,35.779-12.33,36.807-16.873-.17-3.754,3.584-12.636,7.122-21.348,4.106-10.1,5.35-12.71,6.844-20.122C146.979,184.538,147.075,175.763,139.857,172.049Z" transform="translate(-67.52 -122.267)" fill="#f0f0f0"/>
              <g id="freepik--Arm--inject-25" transform="translate(16.225 57.574)">
                <path id="パス_4156" data-name="パス 4156" d="M107.293,191c7.252.381,11.251,10.791,14.692,21.723,3.941,12.494,12.165,38.159,12.165,38.159l-16.021,10.4s-3.277-3.765-8.116-15.76a241.278,241.278,0,0,1-8.979-25.222C98.229,210.832,94.288,197.707,107.293,191Z" transform="translate(-97.002 -189.217)" fill="#b16668"/>
                <path id="パス_4157" data-name="パス 4157" d="M138.248,289.091l9.03-3.828c-.369-1.477-.659-3.453-1.2-5.611l-.733-2.272c-7.65,4.021-12.773,9.683-13.187,15.646Z" transform="translate(-111.674 -226.539)" fill="#9a4a4d"/>
                <path id="パス_4158" data-name="パス 4158" d="M200.424,259.133c2.062-.6,3.845-1.215,6.168-1.993a7.953,7.953,0,0,0,1.976-.914c.7-.522.994-1.658.409-1.965a5.305,5.305,0,0,0-1.9-.238,26.465,26.465,0,0,0-4.237.375c1.318-.4,2.482-.789,3.629-1.261a1.505,1.505,0,0,0,1.028-1.886c-.148-.681-1.028-.971-2.874-.846-.273-.568-1.221-1.289-3.1-1.09-.221-.534-1.312-.965-2.664-.841s-2.2.29-3.527.488c-1.7.25-2.732.568-4.39.954-3.129.7-6.134,1.732-9.206,2.641a73.064,73.064,0,0,0-9.621,3.328c-2.448,1.056-11.745,5.259-18.742,8.065-11.307,4.543-17.095,6.951-20.269,13.375-2.209,4.458-2.982,7.826,1.323,10.5s12.886,1.579,18.537-2.272c7.826-5.373,15.942-11.807,24.256-17.214a7.187,7.187,0,0,1,4.612-1.482,13.419,13.419,0,0,0,4.186-.153,17.121,17.121,0,0,0,2.84-.948,27.218,27.218,0,0,0,4.509-2.84c.54-.4,1.056-.835,1.613-1.215A18.918,18.918,0,0,1,200.424,259.133Z" transform="translate(-111.309 -214.04)" fill="#ffa8a7"/>
                <path id="パス_4159" data-name="パス 4159" d="M252.219,251.89c-.914.216-1.817.432-2.72.664s-1.806.46-2.7.716l-2.681.8-2.681.806a24.686,24.686,0,0,1,2.573-1.136c.875-.341,1.766-.63,2.669-.892a25.218,25.218,0,0,1,2.743-.625,20.06,20.06,0,0,1,2.794-.329Z" transform="translate(-158.891 -215.526)" fill="#f28f8f"/>
                <path id="パス_4160" data-name="パス 4160" d="M246.683,250c-.926.153-1.834.358-2.743.568l-2.72.67-2.726.67c-.909.216-1.823.437-2.743.625.869-.363,1.755-.664,2.652-.954s1.8-.539,2.709-.772,1.829-.426,2.76-.568A15.574,15.574,0,0,1,246.683,250Z" transform="translate(-156.432 -214.709)" fill="#f28f8f"/>
                <path id="パス_4161" data-name="パス 4161" d="M202.895,278.5a19.882,19.882,0,0,0,2.908.051,7.484,7.484,0,0,1-2.323-.653c-2.022-.948-2.692-3.305-3.629-2.067s-.88,2.272-6.435,6.395c-3.862,2.84-13.386,10.711-13.426,10.745l2.771-2.022,2.408-1.761.971-.71q1.431-1.051,2.879-2.09h0c.9-.653,1.817-1.306,2.732-1.948l.8-.568c.693-.483,1.38-.965,2.073-1.437l.841-.568c.937-.636,1.88-1.266,2.84-1.88a7.24,7.24,0,0,1,2.783-1.323A5.955,5.955,0,0,1,202.895,278.5Z" transform="translate(-132.34 -225.719)" fill="#f28f8f"/>
                <path id="パス_4162" data-name="パス 4162" d="M257.189,255.361a1.477,1.477,0,0,0,1.045-1.761,1.454,1.454,0,0,1-1.011,1.2c-.943.318-3.459.852-5.412,1.426a11.023,11.023,0,0,0-3.141,1.488c.471-.114,3.868-.931,4.89-1.09C254.877,256.218,256.042,255.832,257.189,255.361Z" transform="translate(-162.015 -216.264)" fill="#f28f8f"/>
                <path id="パス_4163" data-name="パス 4163" d="M106.312,187.86c-8,3.976-13.784,9.3-7.673,30.35S113.854,257.823,116.131,261s8.059,3.7,12.716,2.874,9.626-3.51,17.8-10.018c0,0-9.734-9.087-4.2-17.822l-11.319,4.157s-5.782-18.174-9.087-28.271C119.482,204.131,116.574,190.143,106.312,187.86Z" transform="translate(-96.088 -187.86)" fill="#e0e0e0"/>
                <path id="パス_4164" data-name="パス 4164" d="M149.274,278.436c-2.715,1-8.564,4.634-11.194,9.592,1.056-5.549,5.452-9.655,10.535-11.648Z" transform="translate(-114.232 -226.107)" opacity="0.1"/>
                <path id="パス_4165" data-name="パス 4165" d="M172.707,270.864l-1.261.534a16.163,16.163,0,0,0-.71,9.195,17.378,17.378,0,0,0,4.543,7.951l1.658-1.136a2.84,2.84,0,0,1-.54,2.272c-.852,1.176-3.192,1.971-4.935,3.516s-4.4.187-6.446-2.5c-2.976-3.907-3.976-11.927-1.7-15.8,1.533-2.6,2.612-1.778,4.736-2.987S172.071,269.484,172.707,270.864Z" transform="translate(-124.597 -223.459)" fill="#fafafa"/>
              </g>
              <path id="パス_4166" data-name="パス 4166" d="M235.3,208.252l-12.534,11.983s-4.577-1.295-16.123-8.786c-5.214-3.379-11.926-7.906-16.169-10.666a60.846,60.846,0,0,0,2.675-9.689c1.312-6.52,1.408-15.294-5.81-19.014a24.649,24.649,0,0,0-9.927-2.686c9.535-.2,16.538,3.606,24.807,11.08C210.867,188.289,235.3,208.252,235.3,208.252Z" transform="translate(-115.001 -122.304)" fill="#e0e0e0"/>
              <path id="パス_4167" data-name="パス 4167" d="M209.579,163.028s-.568-.216-.852-1.363-.238-1.965-.522-3.243-1.045-3.408-2.272-3.5-1.59,2.669-1.42,4.89a9.836,9.836,0,0,1-1.005,6.168c-1.266,2.641-2.238,5.958-.42,8.621Z" transform="translate(-125.662 -116.052)" fill="#f28f8f"/>
              <path id="パス_4168" data-name="パス 4168" d="M217.957,146.837c-.875-2.1-1.062-4.833-1.454-6.537a18.558,18.558,0,0,0-1.976-4.754c-.886-1.647-1.664-3.839-2.311-3.975s-1.641.619-1.46,1.971c0,0-.92-.92-1.7-1.891s-1.408-2.221-2.425-2.357-1.335,1.454-.875,2.493.784,1.63.784,1.63-.926.528.119,2.38a9.733,9.733,0,0,0,1.579,2.033,9.323,9.323,0,0,0,1.465,3.328,17.063,17.063,0,0,0,1.7,3.606c-.244,1.056-.965,2.346-.772,4.112s.517,2.152-1.346,4.475c-1.255,1.562-3.481,3.408-4.6,5.526s-1.806,4.259.159,6.639,3.47,4.1,5.344,6.628c1.414,1.908,2.885,4.475,8.882,13.59,4.657,7.082,5.066,7.985,7.241,10.5s3.646,4.7,6.883,6.111a21.173,21.173,0,0,0,9.819,1.573,7.048,7.048,0,0,0,2.84-.664c2.192-1.176,2.783-4.049,2.715-6.537-.1-3.6-1.42-6.753-4.134-10.1a57.569,57.569,0,0,0-8.3-8.263c-3.408-2.953-5.4-5.111-10.092-9.507-4.254-4.015-6.372-6.543-7.218-8.695a15.044,15.044,0,0,1-.7-7.326C218.718,149.978,219.161,150.029,217.957,146.837Z" transform="translate(-126.316 -104.978)" fill="#ffa8a7"/>
              <path id="パス_4169" data-name="パス 4169" d="M203.82,189.57a12.712,12.712,0,0,0,2.351,3.311c.835,1.09,1.7,2.147,2.533,3.237s1.653,2.181,2.448,3.294,1.7,2.754,2.476,3.885c-.875-1.051-1.84-2.652-2.686-3.731s-1.7-2.164-2.522-3.243l-2.5-3.254-1.249-1.63A4.77,4.77,0,0,1,203.82,189.57Z" transform="translate(-126.412 -131.025)" fill="#f28f8f"/>
              <path id="パス_4170" data-name="パス 4170" d="M216.2,136.74a10.327,10.327,0,0,0,.7,1.7,16.627,16.627,0,0,0,.886,1.6l.051.079v.119a6.29,6.29,0,0,0,.028.977,7.167,7.167,0,0,0,.17.977,6.112,6.112,0,0,0,.784,1.812l.085.142-.045.125a4.539,4.539,0,0,0-.2.727,7.037,7.037,0,0,0-.119.772,6.071,6.071,0,0,0-.034.789,7.63,7.63,0,0,0,.068.8,4.619,4.619,0,0,1-.426-1.59,5.19,5.19,0,0,1,0-.84,5.672,5.672,0,0,1,.136-.846l.04.267a5.594,5.594,0,0,1-.971-1.988,5.9,5.9,0,0,1-.176-1.09,4.59,4.59,0,0,1,.028-1.136l.04.2a9.922,9.922,0,0,1-.733-1.766A5.982,5.982,0,0,1,216.2,136.74Z" transform="translate(-131.761 -108.199)" fill="#f28f8f"/>
              <path id="パス_4171" data-name="パス 4171" d="M208.74,136.52a5.931,5.931,0,0,0,.755.755,6.986,6.986,0,0,0,.858.568l.057.028.04.1a7.99,7.99,0,0,0,1.056,1.931,5.9,5.9,0,0,0,1.562,1.488l.193.125v.221a6.509,6.509,0,0,0,0,1.2,10.174,10.174,0,0,0,.187,1.238,10.333,10.333,0,0,0,.341,1.227c.125.415.3.807.466,1.215a8.09,8.09,0,0,1-.755-1.09,7.11,7.11,0,0,1-.568-1.215,6.762,6.762,0,0,1-.324-1.306,5.049,5.049,0,0,1-.045-1.38l.165.346a4.906,4.906,0,0,1-.977-.761,5.865,5.865,0,0,1-.778-.943,7.253,7.253,0,0,1-.568-1.056,6.319,6.319,0,0,1-.369-1.136l.1.131a4.728,4.728,0,0,1-.8-.784A3.937,3.937,0,0,1,208.74,136.52Z" transform="translate(-128.537 -108.104)" fill="#f28f8f"/>
              <path id="パス_4172" data-name="パス 4172" d="M217.383,160.58a5,5,0,0,1-.375,2.334,7.5,7.5,0,0,1-1.238,2.027c.131-.375.3-.733.454-1.09s.312-.7.449-1.062A17.609,17.609,0,0,0,217.383,160.58Z" transform="translate(-131.575 -118.499)" fill="#f28f8f"/>
              <path id="パス_4173" data-name="パス 4173" d="M207.363,177.37a9.654,9.654,0,0,0-.091,4.186,7.615,7.615,0,0,0,.727,1.937,16.084,16.084,0,0,0,1.176,1.812,5.781,5.781,0,0,1-1.653-1.522,5.509,5.509,0,0,1-.948-2.073A5.611,5.611,0,0,1,207.363,177.37Z" transform="translate(-127.541 -125.754)" fill="#f28f8f"/>
              <path id="パス_4174" data-name="パス 4174" d="M236.35,234.737c4.543,2.488,13.216,3.618,19.309,1.039,3.623-1.528,3.521-4.276,3.521-4.276s7.162,7.588,2.84,14.766c-1.494,2.488-5.821,2.272-8.632,2.045C246.374,247.777,241.177,243.449,236.35,234.737Z" transform="translate(-140.467 -149.142)" fill="#ebebeb"/>
              <path id="パス_4175" data-name="パス 4175" d="M232.335,229.2l.863,1.318s7.61,3.158,14.766,1.766,8.076-4.623,8.076-4.623l-1.289-1.477a2.89,2.89,0,0,1,2.556,1.533c1.187,1.721,1.414,2.647,2.465,3.771s1.891,5.242-1.971,7.684-13.335,3.192-17.719,1.1c-3.408-1.658-3.606-3.856-5.2-5.577S231,231.518,232.335,229.2Z" transform="translate(-138.559 -146.843)" fill="#fafafa"/>
              <g id="freepik--Head--inject-25" transform="translate(42.17)">
                <path id="パス_4176" data-name="パス 4176" d="M148.832,130.888c.653-4.827-2.414-11.029-3.214-15.663-.778-4.47-1.022-7.826.329-11.359.8-2.1,3.061-4.583,4.844-4.7a10.446,10.446,0,0,1,11.194-10.137,35.293,35.293,0,0,0,4.776.148c1.954-.182,2.777-1.448,4.543-2.2,3.033-1.284,7.082-.068,7.656,3.487,2.243-1.562,4.39-.835,6.69.568a4.47,4.47,0,0,1,1.766,5.844c3.924-.829,6.247,2.493,5.946,4.543-.227,1.522-.92,2.647-.375,4.242.613,1.8,2.641,2.4,3.623,1.414-.3,2.169-1.6,3.487-3.794,2.675a4.884,4.884,0,0,1-.642,4.112,4.475,4.475,0,0,1-4.782,1.738,7.581,7.581,0,0,1-1.971,2.84A7.8,7.8,0,0,1,182.05,120c-3.879.568-7.786-.091-11.66-.471l-4.606-.454c-.267,0-1.6-.358-1.823-.182Z" transform="translate(-143.16 -86.485)" fill="#263238"/>
                <path id="パス_4177" data-name="パス 4177" d="M143.747,136.057c2.618,2.931,5.446,1.533,5.446,1.533l-4.947,15.033c2.215,5.236,11.387,13.443,17.191,16.027,1.465-3.408,2.039-8.468,1.942-12.369l1.045-2.38a47.217,47.217,0,0,0,5.526,1.46c3.743.625,7.383-1.443,9.6-5.009A42.31,42.31,0,0,0,184.8,135.08a14.1,14.1,0,0,1,.983-3.834c1.391-3.231,1.4-5.367,1.414-8.439-2.959-4.418-11.762-8.36-21.9-5.838-.6,5.378-3.828,8.78-8.121,9.558-.256,1.425-1.164,4.941-3.408,4.169-1.607-.568-1.079-2.618-2.181-4.93s-4.844-4.01-7.173-1.834C141.169,126.97,140.874,132.848,143.747,136.057Z" transform="translate(-141.772 -99.315)" fill="#ffa8a7"/>
                <path id="パス_4178" data-name="パス 4178" d="M191.39,160.4a8.439,8.439,0,0,0,4.85-.852,10.615,10.615,0,0,0,3.748-3.163,23.793,23.793,0,0,0,2.448-4.328,44.724,44.724,0,0,0,1.789-4.674,43.107,43.107,0,0,0,1.323-4.833c.176-.812.307-1.636.426-2.459a14.567,14.567,0,0,1,.528-2.5c.239-.829.63-1.6.926-2.363a15.005,15.005,0,0,0,.721-2.385,28.117,28.117,0,0,0,.483-4.992,25.557,25.557,0,0,1-.182,5.055,15.386,15.386,0,0,1-.653,2.459c-.284.812-.636,1.562-.835,2.363a17.6,17.6,0,0,0-.46,2.431c-.108.846-.233,1.7-.409,2.51a43.071,43.071,0,0,1-1.284,4.913,45.992,45.992,0,0,1-1.863,4.719,21.76,21.76,0,0,1-2.59,4.384,11.013,11.013,0,0,1-3.975,3.146A8.32,8.32,0,0,1,191.39,160.4Z" transform="translate(-163.211 -104.357)" fill="#f28f8f"/>
                <path id="パス_4181" data-name="パス 4181" d="M171.674,169.435c-5.481-2.453-9.615-4.424-11.3-9.479a37.459,37.459,0,0,1-1.323-7.826,29.031,29.031,0,0,0-.2,9.223c.608,3.084,3.271,6.469,11.961,10.03Z" transform="translate(-149.02 -114.848)" fill="#f28f8f"/>
              </g>
              <g id="freepik--Neck--inject-25" transform="translate(38.948 44.122)">
                <path id="パス_4186" data-name="パス 4186" d="M158.987,189.387a39.021,39.021,0,0,0-7.088-2.09c-1.88,2.879-2.578,4.969-4.617,7.514-2.033-1.993-10.348-12.494-11.182-22.961,4.083-3.271,7.3-8.366,8.695-7.6l-1,3.038s1.505,7.218,5.185,11.694C153.916,184.986,158.158,185.168,158.987,189.387Z" transform="translate(-136.1 -164.174)" fill="#e0e0e0"/>
                <path id="パス_4187" data-name="パス 4187" d="M176.4,197.349c1.761-1.017,4.509-4.186,5.214-3.924s2.272,4.492,2.272,4.492.9-3.283-.738-8.434-3.782-6.883-3.782-6.883l-.835,1.931A56.868,56.868,0,0,1,176.4,197.349Z" transform="translate(-153.513 -172.135)" fill="#e0e0e0"/>
              </g>
            </g>
          </g>
        </g>
        <g id="freepik--Plant--inject-25" transform="translate(209.424 98.544)">
          <g id="freepik--plant--inject-25-2" data-name="freepik--plant--inject-25">
            <g id="freepik--Pot--inject-25">
              <g id="グループ_2217" data-name="グループ 2217" transform="translate(0 26.269)" opacity="0.2">
                <path id="パス_4188" data-name="パス 4188" d="M427.587,308.991c4.9,2.84,4.9,7.383,0,10.223s-12.841,2.84-17.742,0-4.9-7.411,0-10.223S422.686,306.163,427.587,308.991Z" transform="translate(-406.171 -306.876)" fill="#284192"/>
              </g>
              <path id="パス_4189" data-name="パス 4189" d="M410.913,306.519c-4.265-4.356-6.77-15.226-2.612-18.679h21.172c4.163,3.453,1.658,14.317-2.607,18.673l-.114.119-.148.142c-.119.119-.25.233-.386.346l-.1.079c-.1.08-.21.165-.324.239a6.5,6.5,0,0,1-.568.358,14.064,14.064,0,0,1-12.7,0h0a5.775,5.775,0,0,1-.568-.358c-.108-.074-.2-.148-.3-.227l-.125-.1c-.136-.108-.255-.221-.375-.335l-.17-.165Z" transform="translate(-406.172 -272.382)" fill="#f0f0f0"/>
              <path id="パス_4190" data-name="パス 4190" d="M427.932,283.8c4.827,2.794,4.827,7.315,0,10.1s-12.665,2.789-17.5,0-4.827-7.309,0-10.1S423.082,281.009,427.932,283.8Z" transform="translate(-406.448 -269.731)" fill="#fafafa"/>
              <path id="パス_4191" data-name="パス 4191" d="M428.156,287.913c2.942,1.7,2.942,4.447,0,6.145a11.737,11.737,0,0,1-10.643,0c-2.942-1.7-2.936-4.453,0-6.145A11.772,11.772,0,0,1,428.156,287.913Z" transform="translate(-410.119 -271.864)" fill="#e0e0e0"/>
              <path id="パス_4192" data-name="パス 4192" d="M417.85,293.028a11.72,11.72,0,0,1,10.643,0,4.861,4.861,0,0,1,1.76,1.613,4.822,4.822,0,0,1-1.761,1.619,11.72,11.72,0,0,1-10.643,0,4.916,4.916,0,0,1-1.761-1.619A4.952,4.952,0,0,1,417.85,293.028Z" transform="translate(-410.457 -274.072)" fill="#455a64"/>
              <path id="パス_4193" data-name="パス 4193" d="M424.186,281.2a24.016,24.016,0,0,0,3.851-5.111c1.778-3.141,3.3-7.139,2.38-7.656s-5.85,3.464-5.85,3.464a22.719,22.719,0,0,0,.392-5.367c-.159-2.8-.841-5.344-1.641-5.855s-2.6,3.016-3.368,5.577-1.073,4.152-1.073,4.152-.676-2.947-1.533-5.378c-.931-2.658-1.778-3.26-2.436-2.993s-1.085,1.5-1.278,5.037a34.683,34.683,0,0,0,.159,5.066s-1.323-1.448-2.788-2.84c-1.607-1.545-2.743-1.539-3.2-1.249s-.136,2.487,2.351,6.991a25.058,25.058,0,0,0,4.7,6.185S418.3,283.423,424.186,281.2Z" transform="translate(-406.797 -260.622)" fill="#284192"/>
              <g id="グループ_2218" data-name="グループ 2218" transform="translate(0.822)" opacity="0.2">
                <path id="パス_4194" data-name="パス 4194" d="M424.186,281.2a24.016,24.016,0,0,0,3.851-5.111c1.778-3.141,3.3-7.139,2.38-7.656s-5.85,3.464-5.85,3.464a22.719,22.719,0,0,0,.392-5.367c-.159-2.8-.841-5.344-1.641-5.855s-2.6,3.016-3.368,5.577-1.073,4.152-1.073,4.152-.676-2.947-1.533-5.378c-.931-2.658-1.778-3.26-2.436-2.993s-1.085,1.5-1.278,5.037a34.683,34.683,0,0,0,.159,5.066s-1.323-1.448-2.788-2.84c-1.607-1.545-2.743-1.539-3.2-1.249s-.136,2.487,2.351,6.991a25.058,25.058,0,0,0,4.7,6.185S418.3,283.423,424.186,281.2Z" transform="translate(-407.619 -260.622)"/>
              </g>
              <path id="パス_4195" data-name="パス 4195" d="M428.513,269.328c-.767,2.561-1.073,4.151-1.073,4.151h0l.466,2.2s.483-4.822,1.164-7.923C428.854,268.294,428.667,268.828,428.513,269.328Z" transform="translate(-415.361 -263.706)" opacity="0.2"/>
              <path id="パス_4196" data-name="パス 4196" d="M419.217,272.649a31.966,31.966,0,0,1-.681-6.139,23.889,23.889,0,0,0-.318,3.1,34.686,34.686,0,0,0,.159,5.066l3.408,3.567A28.823,28.823,0,0,1,419.217,272.649Z" transform="translate(-411.363 -263.166)" opacity="0.2"/>
              <path id="パス_4197" data-name="パス 4197" d="M433.68,276.052l2.147-2.09h0a22.767,22.767,0,0,0,.392-5.367,19.694,19.694,0,0,0-.432-3.175,15.151,15.151,0,0,1-.25,5.151A47.812,47.812,0,0,1,433.68,276.052Z" transform="translate(-418.057 -262.695)" opacity="0.2"/>
            </g>
          </g>
        </g>
        <g id="freepik--Device--inject-25" transform="translate(35.083 61.962)">
          <g id="freepik--device--inject-25-2" data-name="freepik--device--inject-25">
            <g id="freepik--Mouse--inject-25" transform="translate(0 92.477)">
              <path id="パス_4198" data-name="パス 4198" d="M129.57,376.437v-.312c-.273-7.167-9.626-13.869-17.56-15.2-8.048-1.352-12.807,4.424-12.807,8.11v.028c-.182,2.686,2.368,5.816,7.247,8.258,7.5,3.76,16.9,4.89,21.013,2.533a3.828,3.828,0,0,0,2.1-3.408Z" transform="translate(-99.194 -359.827)" fill="#284192" opacity="0.2"/>
              <path id="パス_4199" data-name="パス 4199" d="M129.841,374.106v-.278c-.256-6.815-9.172-13.221-16.737-14.493-7.678-1.289-12.21,4.22-12.21,7.735v.028c-.17,2.561,2.272,5.543,6.912,7.877,7.15,3.578,16.112,4.657,20.014,2.408a3.646,3.646,0,0,0,2-3.249Z" transform="translate(-99.925 -359.143)" fill="#37474f"/>
              <path id="パス_4200" data-name="パス 4200" d="M134.576,369.89c-7.184,1.755-10.677,7.951-11.756,11.887.261.079.517.148.778.216,1.045-3.839,4.5-9.95,11.677-11.444C135.048,370.327,134.815,370.106,134.576,369.89Z" transform="translate(-109.402 -363.786)" fill="#284192"/>
              <path id="パス_4201" data-name="パス 4201" d="M144.346,382.5a10.558,10.558,0,0,0-7.014-9.956l-.273.767a9.655,9.655,0,0,1,6.48,9.791A5.047,5.047,0,0,0,144.346,382.5Z" transform="translate(-115.555 -364.931)" fill="#284192"/>
            </g>
            <g id="freepik--Keyboard--inject-25" transform="translate(30.479 46.179)">
              <path id="freepik--shadow--inject-25-3" data-name="freepik--shadow--inject-25" d="M153.377,318.1l22.206,12.863a2.657,2.657,0,0,0,2.414,0l63.733-36.745a.738.738,0,0,0,0-1.4l-22.2-12.875a2.668,2.668,0,0,0-2.419,0l-63.733,36.745a.738.738,0,0,0,0,1.409Z" transform="translate(-152.86 -278.502)" fill="#284192" opacity="0.2"/>
              <g id="freepik--keyboard--inject-25-2" data-name="freepik--keyboard--inject-25" transform="translate(2.422)">
                <path id="パス_4202" data-name="パス 4202" d="M240.979,290.058a.841.841,0,0,0-.488-.687L220.613,277.9a2.618,2.618,0,0,0-2.368,0l-60.62,35.058a.829.829,0,0,0-.494.682v2.084a.829.829,0,0,0,.494.682L177.5,327.877a2.618,2.618,0,0,0,2.368,0l60.626-35a.84.84,0,0,0,.488-.681Z" transform="translate(-157.127 -277.621)" fill="#263238"/>
                <path id="パス_4203" data-name="パス 4203" d="M177.5,325.745,157.622,314.33a.716.716,0,0,1,0-1.363l60.615-35.052a2.618,2.618,0,0,1,2.368,0l19.877,11.466a.721.721,0,0,1,0,1.369l-60.62,35A2.635,2.635,0,0,1,177.5,325.745Z" transform="translate(-157.124 -277.626)" fill="#37474f"/>
                <path id="パス_4204" data-name="パス 4204" d="M178.608,353.409v2.13a2.538,2.538,0,0,1-1.136-.273L157.628,343.8a.84.84,0,0,1-.488-.687V341a.84.84,0,0,0,.488.687l19.877,11.444A2.539,2.539,0,0,0,178.608,353.409Z" transform="translate(-157.131 -305.006)" fill="#263238"/>
                <path id="パス_4205" data-name="パス 4205" d="M222.03,281.3h.04l1.965,1.136-2.664,1.528-2.033-1.136L222,281.29Zm3.078,1.778h.04l1.965,1.136-2.09,1.21-2.033-1.136,2.09-1.21Zm-6.815.375h.04l1.965,1.136-2.09,1.21-2.033-1.136,2.113-1.21Zm9.876,1.4h.045l1.965,1.136-3.374,1.948-2.039-1.136,3.408-1.954Zm-6.247.04a.073.073,0,0,1,.045,0l1.965,1.136-1.664.96-2.033-1.136,1.664-.96Zm-6.815.375h.045l1.965,1.136-2.1,1.215-2.028-1.136,2.09-1.2Zm4.083,1.2h.045l1.965,1.136-1.664.965-2.033-1.136,1.658-.954Zm12.029.165h.045l1.965,1.136-2.664,1.539-2.033-1.136,2.664-1.539Zm-19.264.46h.085l1.965,1.136-15.135,8.74-2.033-1.136,15.135-8.74Zm11.745.324h.045l1.965,1.136-1.664.96-2.033-1.136,1.664-.96Zm-7.235.625h.045l1.965,1.136-1.664.96L214.778,289l1.664-.96Zm17.833.369h.045l1.965,1.136-1.664.96-2.033-1.136,1.664-.96Zm-6.815.369h.045l1.965,1.136-1.664.96-2.033-1.136,1.664-.96Zm-6.514.21h.045l1.965,1.136-1.664.966-2.033-1.136L220.94,289Zm-7.184.653h.045l1.965,1.136-1.664.96L212.1,290.6l1.647-.96Zm17.833.363h.045l1.965,1.136-1.664.96-2.033-1.136,1.658-.96Zm-6.815.375h.04l1.971,1.136-1.653.965-2.033-1.136,1.658-.954Zm-6.52.21h.045l1.965,1.136-1.664.96-2.033-1.136,1.664-.96Zm19.781,0h.045l1.965,1.136-2.1,1.21-2.033-1.136,2.1-1.2Zm-27.016.625h.045l1.965,1.136-1.664.96-2.033-1.136,1.664-.96Zm17.833.363h.045l1.965,1.136-1.664.96-2.033-1.136,1.664-.96Zm-6.815.375h.045l1.965,1.136-1.664.965-2.033-1.136,1.664-.96Zm-6.514.21h.04l1.971,1.136-1.664.96-2.033-1.136,1.658-.96Zm-7.235.625h.045l1.965,1.136-1.664.96-2.033-1.136,1.664-.96Zm25.4.307a.074.074,0,0,1,.045,0l1.965,1.136-1.664.96-2.033-1.136,1.664-.96Zm-7.565.057h.091l1.965,1.136-1.664.96-2.033-1.136,1.658-.96Zm-6.815.375h.091l1.971,1.136-1.664.96-2.033-1.136,1.658-.96Zm-6.52.21h.045l1.965,1.136-1.647.937-2.033-1.136,1.664-.96Zm-7.235.619h.045l1.965,1.136-1.63.965-2.033-1.136,1.664-.954Zm25.4.312h.045l1.965,1.136-1.641.937-2.033-1.136,1.658-.96Zm-7.571.057h.045l1.965,1.136-1.664.96-2.033-1.136,1.675-.988Zm-6.815.375h.045l1.965,1.136-1.664.96-2.033-1.136,1.664-.96Zm-6.514.2h.04l1.971,1.136-1.664.96-2.033-1.136,1.658-.96Zm-7.19.585a.074.074,0,0,1,.045,0l1.965,1.136-1.664.965-2.033-1.136,1.664-.954Zm25.4.312h.045l1.965,1.136-1.664.96-2.033-1.136,1.664-.96Zm-7.565.057h.045l1.965,1.136-1.664.96-2.033-1.136,1.658-.96Zm-24.926.17h.045l1.965,1.136-2.09,1.21-2.033-1.136,2.09-1.2Zm18.123.2h.045l1.965,1.136-1.664.96-2.033-1.136,1.658-.96Zm-6.52.2h.045l1.965,1.136-1.664.96-2.033-1.136,1.664-.954Zm-7.23.625h.04l1.965,1.136-1.664.96-2.033-1.136,1.664-.96Zm25.4.312h.04l1.971,1.136-1.664.954-2.033-1.136,1.658-.96Zm-7.57.051h.045l1.965,1.136-1.664.96-2.033-1.136,1.664-.96Zm-6.815.375a.073.073,0,0,1,.045,0l1.965,1.136-1.664.96-2.033-1.136,1.664-.96Zm-18.549.051h.045l1.965,1.136-2.09,1.21-2.039-1.136,2.1-1.21Zm12.034.159a.072.072,0,0,1,.045,0l1.965,1.136-1.664.966-2.033-1.136,1.658-.954Zm-7.235.625h.045l1.965,1.136-1.664.96L195.747,300l1.664-.96Zm17.833.363a.075.075,0,0,1,.045,0l1.965,1.136-1.664.96-2.033-1.136,1.658-.954Zm-6.815.375h.045l1.965,1.136-1.664.966-2.033-1.136,1.664-.954Zm-6.52.21h.045l1.965,1.136-1.664.96-2.033-1.136,1.664-.96Zm19.707.045h.057l1.971,1.136-1.658.971L219.991,301l1.658-.96Zm-32.167.04h.045l1.965,1.136-2.1,1.2-2.033-1.136,2.1-1.2Zm5.231.539h.04l1.971,1.136-1.647.96-2.033-1.136,1.664-.96Zm17.827.363a.079.079,0,0,1,.051,0l1.959,1.136-1.664.96-2.033-1.136,1.664-.96Zm-6.815.375h.079l1.965,1.136-1.664.96-2.033-1.136,1.664-.96Zm-6.514.21h.04l1.971,1.136-1.664.96-2.033-1.136,1.692-.948Zm19.7.045h.045l1.965,1.136-1.664.96-2.033-1.136,1.664-.96Zm-32.593.29h.045l1.965,1.136-2.669,1.539-2.033-1.136,2.664-1.539Zm5.679.284a.074.074,0,0,1,.045,0L194,303.314l-5.242,3.05-2.033-1.136,5.248-3.027Zm17.833.369h.045l1.965,1.136-1.664.96-2.033-1.136,1.664-.96Zm-6.815.375h.045l1.965,1.136-1.664.96-2.033-1.136,1.664-.96Zm-6.52.21h.045l1.965,1.136-1.664.96-2.033-1.136,1.664-.96Zm19.707.045h.04l1.971,1.136-1.619.977-2.033-1.136,1.658-.96Zm-9.087.943h.04l1.965,1.136-1.664.96-2.033-1.136,1.664-.96Zm-25.068.256h.04l1.971,1.136-1.664.96-2.033-1.136,1.664-.96Zm18.259.119h.045l1.965,1.136-1.664.96-2.028-1.136,1.658-.96Zm-6.514.2a.057.057,0,0,1,.04,0l1.971,1.136-1.522.875a.324.324,0,0,0-.17.278.33.33,0,0,0,.182.29l2.584,1.494-1.954,1.136-5.111-2.919,3.975-2.272Zm19.7.045h.045l1.965,1.136-1.664.96-2.033-1.136,1.664-.96Zm-9.087.943h.045l1.965,1.136-1.675.994-2.033-1.136,1.664-.96Zm-25.068.261h.045l1.965,1.136-1.67.977-2.033-1.136,1.664-.96Zm18.265.119h.045L199.6,307.2l-1.664.96-2.033-1.136,1.658-.96Zm12,.937h.045l1.965,1.136-1.664.96-2.033-1.136,1.664-.96Zm-7.917.256h.045l1.959,1.136-1.664.96-2.033-1.136,1.664-.96Zm-25.068.256h.045l1.965,1.136-1.664.96-2.033-1.136,1.664-.96Zm5.8.21h.045l1.965,1.136-1.664.96-2.033-1.136,1.664-.96Zm24.466.846h.04l1.971,1.136-1.664.96-2.033-1.136,1.658-.96Zm-7.923.261H199l1.965,1.136-2.953,1.7-2.033-1.136,2.953-1.7Zm-25.642.568h.045l1.965,1.136-4.384,2.533-2.033-1.136,4.384-2.533Zm17.981.284h.045l1.965,1.136-1.7,1-2.028-1.136,1.658-.96Zm12.858.437h.045l1.965,1.136-1.664.96-2.033-1.136,1.664-.96Zm-27.772,1.1h.045l1.965,1.136-1.664.96-2.033-1.136,1.664-.96Zm12.176.074h.045l1.965,1.136-1.664.96-2.033-1.136,1.664-.96Zm5.8.2h.045l1.971,1.136-1.67.96-2.028-1.136,1.658-.96Zm7.065.239h.04l1.971,1.136-1.664.96-2.033-1.136,1.658-.96Zm-33.559.846h.04l1.965,1.136-1.664.96-2.033-1.136,1.664-.96Zm5.8.2h.045l1.965,1.136-1.675.96-2.033-1.136,1.658-.96Zm12.176.08h.045l1.965,1.136-1.67.965-2.028-1.136,1.658-.954Zm-6.378.125h.045l1.965,1.136-1.664.96-2.033-1.136,1.664-.96Zm12.176.079h.045l1.965,1.136-1.664.988-2.033-1.136,1.664-.96Zm6.457.568h.045l1.965,1.136-1.687.988-2.033-1.136,1.664-.96Zm-32.94.5h.045l5.043,2.908-1.664.966L163.46,315.1l1.664-.966Zm5.8.2h.045l1.965,1.136-1.664.966-2.033-1.136,1.664-.954Zm5.8.2h.045l1.965,1.136-1.664.96-2.033-1.136,1.658-.96Zm12.171.079a.08.08,0,0,1,.051,0l1.959,1.136-1.658.965-2.033-1.136,1.658-.96Zm-6.372.125h.045l1.965,1.136-1.664.96-2.033-1.136,1.664-.954Zm12.835.46h.045l1.965,1.136-1.664.96-2.033-1.136,1.658-.96Zm-21.394.914h.046L176,317.268l-1.664.96-2.033-1.136,1.664-.96Zm5.8.2h.04l1.971,1.136-1.664.96-2.033-1.136,1.675-.96Zm5.8.2h.045l1.965,1.136-1.664.966-2.033-1.136,1.664-.954Zm7.031.256h.045l1.965,1.136-1.664.96-2.033-1.136,1.664-.96Zm-21.354.909h.045l5.043,2.913-1.664.96-5.111-2.919,1.658-.96Zm5.8.2h.045l1.965,1.136-1.664.96-2.033-1.136,1.664-.96Zm5.8.2h.04l1.971,1.136-1.664.96-2.033-1.136,1.658-.96Zm7.264,1.062a.072.072,0,0,1,.045,0l.852.483-1.664.96-.914-.494,1.658-.954Zm-9.973.534h.074l1.965,1.136-1.664.96L178.5,320.67l1.664-.96Zm7.247,1.039h.045l.858.477-1.664.966-.914-.494,1.653-.96Zm-9.967.534h.04l1.971,1.136-1.664.96-2.033-1.136,1.658-.96Zm7.247,1.039h.045l.852.483-1.664.96-.914-.488,1.658-.96Zm-2.726,1.573h.051l.852.483-1.664.96-.914-.494,1.653-.954Z" transform="translate(-159.862 -279.207)" fill="#284192"/>
              </g>
            </g>
            <path id="パス_4206" data-name="パス 4206" d="M348.722,335.789,345,333.7a4.544,4.544,0,0,0-4.225-.074L322.24,344.365l-2.442-1.425a4.123,4.123,0,0,0-3.76,0l-22.535,13.1a1.148,1.148,0,0,0,0,2.175l2.374,1.374-26.818,15.476a1.3,1.3,0,0,0,0,2.465l3.731,2.158a4.725,4.725,0,0,0,4.259,0l26.806-15.5a4.151,4.151,0,0,0,3.765,0l22.445-13.062a1.139,1.139,0,0,0,.085-2.13l18.571-10.694A1.338,1.338,0,0,0,348.722,335.789Z" transform="translate(-172.207 -255.433)" fill="#284192" opacity="0.2"/>
            <path id="パス_4207" data-name="パス 4207" d="M333.6,257.5l4.748-56.435a4.816,4.816,0,0,0-2.107-4.225,5.35,5.35,0,0,0-4.839.091l-70.917,40.942a6.179,6.179,0,0,0-2.737,4.316L253,298.622a4.822,4.822,0,0,0,2.107,4.231,5.367,5.367,0,0,0,4.839-.091l70.917-40.942A6.18,6.18,0,0,0,333.6,257.5Z" transform="translate(-165.645 -196.31)" fill="#263238"/>
            <path id="パス_4208" data-name="パス 4208" d="M337.912,257.5l4.748-56.435a4.816,4.816,0,0,0-2.107-4.225,5.35,5.35,0,0,0-4.839.091L264.8,237.876a5.612,5.612,0,0,0-1.817,1.834l8.689,5.02-.534,54.061,64.039-36.972A6.179,6.179,0,0,0,337.912,257.5Z" transform="translate(-169.962 -196.31)" fill="#455a64"/>
            <path id="パス_4209" data-name="パス 4209" d="M261.24,303.956l4.748-56.429a6.156,6.156,0,0,1,2.737-4.316l70.048-40.476c1.38-.8,1.954-.193,1.823,1.4l-3.442,56a6.179,6.179,0,0,1-2.737,4.316L263.5,305.387C262.12,306.182,261.1,305.529,261.24,303.956Z" transform="translate(-169.204 -198.935)" fill="#37474f"/>
            <path id="パス_4210" data-name="パス 4210" d="M329.144,288.153a9.725,9.725,0,0,1,4.089-6.878c2.045-1.2,3.533,0,3.317,2.59a9.777,9.777,0,0,1-4.095,6.878C330.411,291.941,328.928,290.771,329.144,288.153Z" transform="translate(-198.54 -232.82)" fill="#284192"/>
            <path id="パス_4211" data-name="パス 4211" d="M326.353,324.252l15.158-8.809-2.584-1.494-15.147,8.814Z" transform="translate(-196.232 -247.139)" fill="#455a64"/>
            <path id="パス_4212" data-name="パス 4212" d="M344.662,342.451l-18.452,10.66a2.419,2.419,0,0,1-2.192,0h0l-8.127-4.7h-.04a2.38,2.38,0,0,1-1.051-1.88V346.1c0-.7.483-.988,1.09-.636l4.907,2.84,1.1.636-.244-1.249-1.7-23.722,2.573,1.488,15.164-8.8,7.888,23.955a1.9,1.9,0,0,1-.909,1.846Z" transform="translate(-192.352 -248.306)" fill="#37474f"/>
            <path id="パス_4213" data-name="パス 4213" d="M315.35,364.425l6.3-3.635,1.278,8.468Z" transform="translate(-192.589 -267.377)"/>
            <path id="パス_4214" data-name="パス 4214" d="M322.438,330.958l-2.573-1.488,1.7,23.722c.142.687-.25.965-.852.613l-4.907-2.84c-.608-.352-1.09-.062-1.09.636v.437a2.38,2.38,0,0,0,1.051,1.88h.04l8.155,4.731h0a2.351,2.351,0,0,0,1.005.256Z" transform="translate(-192.317 -253.845)" fill="#263238"/>
          </g>
        </g>
        <g id="freepik--Coffee--inject-25" transform="translate(78.786 150.928)">
          <g id="freepik--coffee--inject-25-2" data-name="freepik--coffee--inject-25">
            <path id="freepik--shadow--inject-25-4" data-name="freepik--shadow--inject-25" d="M180.77,413.841c5.111-2.675,13.284-2.737,18.265-.148s5.015,6.849.079,9.519-13.119,2.737-18.27.148S175.659,416.511,180.77,413.841Z" transform="translate(-176.139 -378.562)" fill="#284192" opacity="0.2"/>
            <g id="freepik--coffee--inject-25-3" data-name="freepik--coffee--inject-25">
              <g id="freepik--coffee--inject-25-4" data-name="freepik--coffee--inject-25">
                <path id="パス_4215" data-name="パス 4215" d="M182.342,382.739c4.685-1.783,12.188-1.868,16.754-.182s4.595,4.487.068,6.247a27.844,27.844,0,0,1-16.748.187C177.7,387.317,177.645,384.523,182.342,382.739Z" transform="translate(-176.955 -365.407)" fill="#284192"/>
                <g id="グループ_2219" data-name="グループ 2219" transform="translate(1.892 15.939)" opacity="0.3">
                  <path id="パス_4216" data-name="パス 4216" d="M182.342,382.739c4.685-1.783,12.188-1.868,16.754-.182s4.595,4.487.068,6.247a27.844,27.844,0,0,1-16.748.187C177.7,387.317,177.645,384.523,182.342,382.739Z" transform="translate(-178.847 -381.345)"/>
                </g>
                <path id="パス_4217" data-name="パス 4217" d="M178.27,373.658l24.131-.239-1.516,28.447h0c-.1,1.034-1.056,2.067-2.891,2.879a21.5,21.5,0,0,1-14.477.159c-1.914-.767-2.925-1.778-3.055-2.811h0Z" transform="translate(-176.706 -361.982)" fill="#fafafa"/>
                <path id="パス_4218" data-name="パス 4218" d="M202.4,373.42l-.307,5.776a10.739,10.739,0,0,1-2,1.1c-5.191,2.221-13.8,2.311-19.219.21-.233-.091-.432-.187-.642-.284a12.409,12.409,0,0,1-1.528-.835l-.432-5.73Z" transform="translate(-176.706 -361.982)" fill="#ebebeb"/>
                <path id="パス_4219" data-name="パス 4219" d="M175.565,370.274l-.045-4.35,2.811-.028a13.16,13.16,0,0,1,1.232-.568c5.373-2.215,13.977-2.311,19.219-.21a12.227,12.227,0,0,1,1.187.568l2.732-.028.045,4.345h0c0,1.414-1.272,2.84-3.868,3.975-5.2,2.221-13.8,2.317-19.219.216C176.928,373.091,175.582,371.688,175.565,370.274Z" transform="translate(-175.518 -357.74)" fill="#284192"/>
                <g id="グループ_2220" data-name="グループ 2220" transform="translate(0.002 5.861)" opacity="0.2">
                  <path id="パス_4220" data-name="パス 4220" d="M175.565,370.274l-.045-4.35,2.811-.028a13.16,13.16,0,0,1,1.232-.568c5.373-2.215,13.977-2.311,19.219-.21a12.227,12.227,0,0,1,1.187.568l2.732-.028.045,4.345h0c0,1.414-1.272,2.84-3.868,3.975-5.2,2.221-13.8,2.317-19.219.216C176.928,373.091,175.582,371.688,175.565,370.274Z" transform="translate(-175.52 -363.601)"/>
                </g>
                <path id="パス_4221" data-name="パス 4221" d="M179.522,359.413c5.373-2.221,13.977-2.317,19.219-.216s5.282,5.611.085,7.826-13.795,2.311-19.219.216S174.15,361.634,179.522,359.413Z" transform="translate(-175.516 -355.183)" fill="#284192"/>
                <path id="パス_4222" data-name="パス 4222" d="M179.827,362.826h0l.829-3.595,6.906-.08a28.309,28.309,0,0,1,6.861-.074l6.7-.074.914,3.572h0c.443,1.295-.568,2.669-3.078,3.7-4.282,1.755-11.359,1.835-15.845.176C180.452,365.484,179.39,364.133,179.827,362.826Z" transform="translate(-177.338 -355.711)" fill="#284192"/>
                <path id="パス_4223" data-name="パス 4223" d="M179.827,362.826h0l.829-3.595,6.906-.08a28.309,28.309,0,0,1,6.861-.074l6.7-.074.914,3.572h0c.443,1.295-.568,2.669-3.078,3.7-4.282,1.755-11.359,1.835-15.845.176C180.452,365.484,179.39,364.133,179.827,362.826Z" transform="translate(-177.338 -355.711)" opacity="0.2"/>
                <path id="パス_4224" data-name="パス 4224" d="M184.284,354.479a24.346,24.346,0,0,1,14.556-.165c3.97,1.437,3.975,3.856.057,5.384a24.3,24.3,0,0,1-14.55.159C180.246,358.414,180.217,356.006,184.284,354.479Z" transform="translate(-177.995 -353.281)" fill="#284192"/>
                <path id="パス_4225" data-name="パス 4225" d="M183.74,358.257a1.216,1.216,0,0,0,.46.505,6.632,6.632,0,0,0,1.7.829,21.224,21.224,0,0,0,6.855.96,20.181,20.181,0,0,0,6.719-1.1,5.82,5.82,0,0,0,1.613-.875c.329-.273.42-.471.42-.517s-.363-.727-2.062-1.346a20.225,20.225,0,0,0-6.741-.948,21.082,21.082,0,0,0-6.815,1.136C184.166,357.507,183.746,358.132,183.74,358.257Z" transform="translate(-179.069 -354.35)" fill="#284192"/>
                <g id="グループ_2221" data-name="グループ 2221" transform="translate(4.671 1.405)" opacity="0.5">
                  <path id="パス_4226" data-name="パス 4226" d="M183.74,358.257a1.216,1.216,0,0,0,.46.505,6.632,6.632,0,0,0,1.7.829,21.224,21.224,0,0,0,6.855.96,20.181,20.181,0,0,0,6.719-1.1,5.82,5.82,0,0,0,1.613-.875c.329-.273.42-.471.42-.517s-.363-.727-2.062-1.346a20.225,20.225,0,0,0-6.741-.948,21.082,21.082,0,0,0-6.815,1.136C184.166,357.507,183.746,358.132,183.74,358.257Z" transform="translate(-183.74 -355.755)"/>
                </g>
                <path id="パス_4227" data-name="パス 4227" d="M184.55,359.544a6.623,6.623,0,0,0,1.7.829,21.222,21.222,0,0,0,6.855.96,20.18,20.18,0,0,0,6.719-1.1,5.818,5.818,0,0,0,1.613-.875,6,6,0,0,0-1.63-.835,20.226,20.226,0,0,0-6.741-.948,20.782,20.782,0,0,0-6.815,1.107A6.362,6.362,0,0,0,184.55,359.544Z" transform="translate(-179.419 -355.132)" fill="#284192"/>
                <g id="グループ_2222" data-name="グループ 2222" transform="translate(5.131 2.433)" opacity="0.2">
                  <path id="パス_4228" data-name="パス 4228" d="M184.55,359.544a6.623,6.623,0,0,0,1.7.829,21.222,21.222,0,0,0,6.855.96,20.18,20.18,0,0,0,6.719-1.1,5.818,5.818,0,0,0,1.613-.875,6,6,0,0,0-1.63-.835,20.226,20.226,0,0,0-6.741-.948,20.782,20.782,0,0,0-6.815,1.107A6.362,6.362,0,0,0,184.55,359.544Z" transform="translate(-184.55 -357.565)"/>
                </g>
                <g id="グループ_2223" data-name="グループ 2223" transform="translate(7.482 4.114)" opacity="0.5">
                  <path id="パス_4229" data-name="パス 4229" d="M190.434,360.874a2.061,2.061,0,0,0-1.619-.3c-.3.176-.051.568.568.92a2.028,2.028,0,0,0,1.619.29C191.28,361.612,191.036,361.2,190.434,360.874Z" transform="translate(-188.69 -360.524)"/>
                </g>
                <path id="パス_4230" data-name="パス 4230" d="M201.95,399.368c0,1.073-1.045,2.153-3.18,2.993-4.265,1.7-11.33,1.755-15.783.176-2.221-.8-3.339-1.846-3.356-2.913l-.8-10.433c0,1.136,1.2,2.272,3.567,3.1,4.719,1.676,12.222,1.6,16.748-.187,2.272-.892,3.408-2.039,3.408-3.175Z" transform="translate(-176.948 -368.684)" fill="#284192"/>
                <g id="グループ_2224" data-name="グループ 2224" transform="translate(1.882 20.246)" opacity="0.35">
                  <path id="パス_4231" data-name="パス 4231" d="M201.95,399.368c0,1.073-1.045,2.153-3.18,2.993-4.265,1.7-11.33,1.755-15.783.176-2.221-.8-3.339-1.846-3.356-2.913l-.8-10.433c0,1.136,1.2,2.272,3.567,3.1,4.719,1.676,12.222,1.6,16.748-.187,2.272-.892,3.408-2.039,3.408-3.175Z" transform="translate(-178.83 -388.93)" fill="#fff"/>
                </g>
                <path id="パス_4232" data-name="パス 4232" d="M205.78,405.315a15.075,15.075,0,0,0,.926-1.778,5.214,5.214,0,0,1,2.7-2.436.352.352,0,0,1,.432.148,4.1,4.1,0,0,1-5.043,5.214c-.068-.034-.085-.165-.034-.2A3.362,3.362,0,0,0,205.78,405.315Z" transform="translate(-188.138 -373.932)" fill="#37474f"/>
                <path id="パス_4233" data-name="パス 4233" d="M207.7,399.845a5.744,5.744,0,0,0-1.7,1.079,5.109,5.109,0,0,0-1.227,1.7,5.043,5.043,0,0,1-1.545,2.1.335.335,0,0,1-.471-.068,4.021,4.021,0,0,1,4.986-5.418.329.329,0,0,1-.04.608Z" transform="translate(-187.089 -373)" fill="#37474f"/>
              </g>
            </g>
          </g>
        </g>
      </g>
      <g id="freepik--Line--inject-207" transform="translate(98.057)">
        <path id="パス_4040" data-name="パス 4040" d="M69.108,77.351a17.675,17.675,0,0,1,7.57,1.2c2.045.69,4.09,1.419,6.072,2.275,3.638,1.585,7.53,3.852,9.464,7.475a3.963,3.963,0,0,1,.515,2.885,3.258,3.258,0,0,1-1.9,1.99c-2.053.919-4.518.539-6.595-.071a48.063,48.063,0,0,1-6.967-2.8c-2.211-1.054-4.375-2.219-6.468-3.488a50.84,50.84,0,0,1-5.881-4.042,16.274,16.274,0,0,1-2.5-2.536c-.491-.61-1.165-1.585-.246-2.172a3.107,3.107,0,0,1,1.34-.309,16.141,16.141,0,0,1,1.855-.087,20.165,20.165,0,0,1,3.519.373,30.118,30.118,0,0,1,6.88,2.378,44.934,44.934,0,0,1,11.707,7.554,20.062,20.062,0,0,1,4.217,5.271c.848,1.641,1.831,4.328.246,5.834a4.605,4.605,0,0,1-2.56,1.054,14.356,14.356,0,0,1-3.4.048,22.789,22.789,0,0,1-6.817-1.958,53.5,53.5,0,0,1-6.23-3.345,31.024,31.024,0,0,1-5.208-3.868A19.022,19.022,0,0,1,65.6,88.63a14.546,14.546,0,0,1-.935-1.379,2.854,2.854,0,0,1-.626-1.466c.055-1.038,1.34-1.26,2.156-1.347a9.384,9.384,0,0,1,3.472.4A36.224,36.224,0,0,1,76.012,87.4a32.8,32.8,0,0,1,5.675,3.591,24.934,24.934,0,0,1,2.544,2.3,6.341,6.341,0,0,1,1.744,2.536c.658,2.378-2.053,3.171-3.836,3.369a13.419,13.419,0,0,1-6.706-1.435,31.516,31.516,0,0,1-5.794-3.416,17.772,17.772,0,0,1-4.47-4.6c-.206-.333-.523-.729-.4-1.149a1.157,1.157,0,0,1,.864-.737,4.288,4.288,0,0,1,3.052.507,17,17,0,0,1,2.869,1.99,31.291,31.291,0,0,1,2.632,2.378,16.976,16.976,0,0,1,2.18,2.647,6.523,6.523,0,0,1,1.2,2.941c.135,2.378-3.282,2.021-4.708,1.5a13.84,13.84,0,0,1-3-1.665,21.055,21.055,0,0,1-2.552-2.045,12.485,12.485,0,0,1-1.974-2.4c-.46-.745-1.086-1.807-.658-2.695s1.522-.9,2.378-.737a5.945,5.945,0,0,1,2.988,1.53c1.133,1.11,1.926,3.226.594,4.51s-3.924.571-5.255-.468c-.658-.515-1.585-1.419-1.506-2.378s1.094-1.165,1.823-1a2.322,2.322,0,0,1,1.744,1.847,2.5,2.5,0,0,1-.84,2.211,2.742,2.742,0,0,1-4.3-.935c-.151-.293.444-.618.61-.285a2.378,2.378,0,0,0,2.164,1.34,1.894,1.894,0,0,0,1.768-1.76,1.871,1.871,0,0,0-1.672-1.871c-1.53-.063.166,1.863.626,2.235a4.89,4.89,0,0,0,2.425,1.054c.793.1,1.918,0,2.283-.864.666-1.6-.919-3.321-2.211-4.019a3.8,3.8,0,0,0-2.616-.563c-1.03.365,0,1.982.349,2.529a14.268,14.268,0,0,0,3.892,3.916c1.585,1.141,3.5,2.441,5.548,2.291a1.657,1.657,0,0,0,1.221-.452c.309-.412.119-1.038,0-1.466a9.916,9.916,0,0,0-1.443-2.616,25.2,25.2,0,0,0-4.241-4.233,19.02,19.02,0,0,0-2.5-1.768,5.772,5.772,0,0,0-1.316-.547,3.346,3.346,0,0,0-.793-.1c-.159,0-.658,0-.793.135-.238.293.46,1.1.626,1.34a14.511,14.511,0,0,0,.912,1.149,18.572,18.572,0,0,0,2,1.95,29.586,29.586,0,0,0,4.605,3.091,19.76,19.76,0,0,0,5.683,2.291,9.352,9.352,0,0,0,3.115.143,3.8,3.8,0,0,0,2.521-1.038c.674-.864,0-2.005-.547-2.727a18.406,18.406,0,0,0-1.934-2A29.089,29.089,0,0,0,77.93,89.3a39.222,39.222,0,0,0-4.994-2.513A16.722,16.722,0,0,0,67,85.1a5.287,5.287,0,0,0-1.585.159c-.222.063-.491.143-.555.4s.182.658.317.9a14.431,14.431,0,0,0,1.585,2.267,21.948,21.948,0,0,0,4.019,3.694,47.062,47.062,0,0,0,4.756,3,41.514,41.514,0,0,0,5.548,2.7,19.119,19.119,0,0,0,6.008,1.347c1.538.055,4.336.1,4.811-1.823a5.263,5.263,0,0,0-.4-2.909,12.1,12.1,0,0,0-1.371-2.616,23.264,23.264,0,0,0-3.9-4.3,45.6,45.6,0,0,0-9.908-6.42c-3.694-1.839-7.76-3.313-11.945-3.171a11.953,11.953,0,0,0-1.506.135c-.737.135-.3.793,0,1.149a15.274,15.274,0,0,0,2.085,2.2,40.286,40.286,0,0,0,4.875,3.519,70.438,70.438,0,0,0,11.1,5.786A22.3,22.3,0,0,0,87.117,93c1.585.166,4.542.048,4.97-2.005.373-1.768-1.237-3.654-2.378-4.835a18.333,18.333,0,0,0-4.019-3.171A35.571,35.571,0,0,0,80.6,80.609c-1.831-.729-3.694-1.427-5.548-2.013a16.115,16.115,0,0,0-5.969-.888c-.2,0-.111-.357.056-.38Z" transform="translate(-61.708 -77.318)" fill="#455a64"/>
      </g>
    </g>
  </g>
</svg>
