<svg xmlns="http://www.w3.org/2000/svg" xmlns:xlink="http://www.w3.org/1999/xlink" width="412" height="412" viewBox="0 0 412 412">
  <defs>
    <filter id="楕円形_370" x="0" y="0" width="412" height="412" filterUnits="userSpaceOnUse">
      <feOffset dx="5" dy="5" input="SourceAlpha"/>
      <feGaussianBlur stdDeviation="5" result="blur"/>
      <feFlood flood-opacity="0.161"/>
      <feComposite operator="in" in2="blur"/>
      <feComposite in="SourceGraphic"/>
    </filter>
    <filter id="パス_8656" x="135.224" y="92.438" width="167.24" height="265.313" filterUnits="userSpaceOnUse">
      <feOffset dx="10" dy="10" input="SourceAlpha"/>
      <feGaussianBlur stdDeviation="5" result="blur-2"/>
      <feFlood flood-color="#fff"/>
      <feComposite operator="in" in2="blur-2"/>
      <feComposite in="SourceGraphic"/>
    </filter>
  </defs>
  <g id="グループ_2574" data-name="グループ 2574" transform="translate(-11146 -14743)">
    <g transform="matrix(1, 0, 0, 1, 11146, 14743)" filter="url(#楕円形_370)">
      <circle id="楕円形_370-2" data-name="楕円形 370" cx="191" cy="191" r="191" transform="translate(10 10)" fill="#fff"/>
    </g>
    <g id="グループ_2229" data-name="グループ 2229" transform="translate(11200.748 14801.232)">
      <g id="グループ_2228" data-name="グループ 2228" transform="translate(0.245 -0.472)">
        <g id="グループ_2144" data-name="グループ 2144" transform="translate(0)">
          <g id="グループ_36" data-name="グループ 36" transform="translate(68 78.215)" opacity="0.423">
            <g id="グループ_34" data-name="グループ 34" transform="translate(0.217 114.628)">
              <g id="長方形_165" data-name="長方形 165" transform="translate(0 0)" fill="#284192" stroke="#707070" stroke-width="1">
                <rect width="167.583" height="41.783" rx="20.892" stroke="none"/>
                <rect x="0.5" y="0.5" width="166.583" height="40.783" rx="20.392" fill="none"/>
              </g>
              <g id="PR-TIMES---Logo" transform="translate(25.538 9.508)">
                <path id="Fill-1" d="M37.735,2.319V6.364h5.527V22.838l4.1-4.658V6.364H52.91V2.319Z" transform="translate(-1.049 -0.258)" fill="#fff" fill-rule="evenodd"/>
                <g id="Group-14" transform="translate(0 0)">
                  <path id="Fill-2" d="M11.086,8.941A2.248,2.248,0,0,1,9.922,11.2a4.081,4.081,0,0,1-1.822.328H4.063V6.359H8.1a4.065,4.065,0,0,1,1.8.328,2.247,2.247,0,0,1,1.185,2.254M13.06,4.152A7.33,7.33,0,0,0,8.1,2.259H0V21.1H4.063V15.622H8.1a7.324,7.324,0,0,0,4.961-1.9,6.424,6.424,0,0,0,2.1-4.771V8.936a6.428,6.428,0,0,0-2.1-4.784" transform="translate(0 -0.253)" fill="#fff" fill-rule="evenodd"/>
                  <path id="Fill-4" d="M119.224,10.873h0c-1.181-1.057-2.7-1.216-4.43-1.217h-2.511a3.867,3.867,0,0,1-1.47-.222,1.3,1.3,0,0,1-.831-1.333,1.485,1.485,0,0,1,.821-1.513,3.3,3.3,0,0,1,1.4-.231h7.447v-4.1h-7.369a6.435,6.435,0,0,0-4.417,1.45A6.054,6.054,0,0,0,105.935,8.1v0A6.073,6.073,0,0,0,107.8,12.53c1.184,1.056,2.66,1.2,4.484,1.2h2.573a3.552,3.552,0,0,1,1.348.2,1.283,1.283,0,0,1,.813,1.319,1.517,1.517,0,0,1-.859,1.542,3.275,3.275,0,0,1-1.374.231h-8.046V21.1h8.056a6.475,6.475,0,0,0,4.418-1.46A6.04,6.04,0,0,0,121.15,15.3v-.046a6.01,6.01,0,0,0-1.926-4.379" transform="translate(-2.944 -0.253)" fill="#fff" fill-rule="evenodd"/>
                  <path id="Fill-6" d="M55.88,5.093V21.046h4.3V.2l-4.3,4.821Z" transform="translate(-1.553 -0.196)" fill="#fff" fill-rule="evenodd"/>
                  <path id="Fill-8" d="M28.6,8.942A2.249,2.249,0,0,1,27.433,11.2a4.083,4.083,0,0,1-1.823.328H21.575V6.359H25.61a4.066,4.066,0,0,1,1.8.328A2.248,2.248,0,0,1,28.6,8.942Zm-.455,6.236a7.132,7.132,0,0,0,2.428-1.453,6.432,6.432,0,0,0,2.1-4.771V8.936a6.432,6.432,0,0,0-2.1-4.784A7.325,7.325,0,0,0,25.61,2.26h-8.1V21.1h4.064V13.495l6.589,7.62h5.075l-.281-.329Z" transform="translate(-0.487 -0.253)" fill="#fff" fill-rule="evenodd"/>
                  <path id="Fill-10" d="M88.073,3.7A4.411,4.411,0,0,0,86.585,7v9.4a4.385,4.385,0,0,0,1.491,3.3,5.029,5.029,0,0,0,3.554,1.423h11.985V17.053H91.238a.527.527,0,0,1-.385-.16.657.657,0,0,1-.212-.5V13.744h11.133l.021-4.063H90.641V7.037a.647.647,0,0,1,.217-.5.526.526,0,0,1,.389-.158h12.369V2.28H91.635A5.088,5.088,0,0,0,88.073,3.7" transform="translate(-2.406 -0.254)" fill="#fff" fill-rule="evenodd"/>
                  <path id="Fill-12" d="M77.822,2.308H68.4a4.4,4.4,0,0,0-3.3,1.488A5,5,0,0,0,63.667,7.35V21.1h4.074V6.949a.524.524,0,0,1,.16-.384.662.662,0,0,1,.5-.212h2.66V21.08l4.074.022V6.353h2.653a.655.655,0,0,1,.5.217.524.524,0,0,1,.158.389V21.1h4.112V7.345A5.057,5.057,0,0,0,81.13,3.792a4.437,4.437,0,0,0-3.308-1.484" transform="translate(-1.769 -0.255)" fill="#fff" fill-rule="evenodd"/>
                </g>
              </g>
            </g>
            <g id="グループ_35" data-name="グループ 35" transform="translate(0 0)">
              <path id="facebook-square" d="M87.915,0A17.583,17.583,0,0,1,105.5,17.583V87.915A17.583,17.583,0,0,1,87.915,105.5H17.583A17.583,17.583,0,0,1,0,87.915V17.583A17.583,17.583,0,0,1,17.583,0ZM70.332,32V19.781H60.266c-9.231,0-15.033,7.033-15.033,17.1v7.341H35.166V56.4H45.232v29.32H57.76V56.4H67.826l2.506-12.176H57.76V39.3c0-4.835,2.55-7.3,7.561-7.3Z" transform="translate(0 0)" fill="#284192"/>
              <path id="twitter-square" d="M41.454,0a8.291,8.291,0,0,1,8.291,8.291V41.454a8.291,8.291,0,0,1-8.291,8.291H8.291A8.291,8.291,0,0,1,0,41.454V8.291A8.291,8.291,0,0,1,8.291,0ZM32.293,12.022a6.8,6.8,0,0,0-6.633,8.353,19.318,19.318,0,0,1-14.032-7.109,6.757,6.757,0,0,0,2.114,9.079,6.778,6.778,0,0,1-3.088-.829v.062a6.8,6.8,0,0,0,5.472,6.674,6.84,6.84,0,0,1-3.088.124A6.819,6.819,0,0,0,19.4,33.1,13.659,13.659,0,0,1,9.327,35.92a19.256,19.256,0,0,0,10.426,3.047c12.519,0,19.359-10.364,19.359-19.359v-.871a13.784,13.784,0,0,0,3.379-3.524,13.7,13.7,0,0,1-3.917,1.078,6.891,6.891,0,0,0,3.005-3.772,13.714,13.714,0,0,1-4.332,1.658,6.8,6.8,0,0,0-4.975-2.156Z" transform="translate(118.267 55.752)" fill="#284192"/>
              <path id="instagram-square" d="M41.454,0a8.291,8.291,0,0,1,8.291,8.291V41.454a8.291,8.291,0,0,1-8.291,8.291H8.291A8.291,8.291,0,0,1,0,41.454V8.291A8.291,8.291,0,0,1,8.291,0ZM31.319,9.327H18.447c-5.327,0-8.913,3.42-9.12,8.623V31.277a8.978,8.978,0,0,0,2.632,6.695A9,9,0,0,0,17.929,40.4l.56.021H31.257a9.224,9.224,0,0,0,6.591-2.446A8.809,8.809,0,0,0,40.4,31.858l.021-.539V18.447a8.958,8.958,0,0,0-2.508-6.529,8.788,8.788,0,0,0-6.052-2.549l-.539-.021Zm-12.851,2.9H31.4a6.236,6.236,0,0,1,4.56,1.658,6.36,6.36,0,0,1,1.679,4.083V31.3a6.062,6.062,0,0,1-1.8,4.581,6.279,6.279,0,0,1-4.1,1.617H18.489a6.406,6.406,0,0,1-4.581-1.617,6.049,6.049,0,0,1-1.679-4.145V18.406a6.236,6.236,0,0,1,1.658-4.56,6.177,6.177,0,0,1,4.145-1.617h.435Zm6.4,4.56a8.042,8.042,0,0,0,0,16.043,8.042,8.042,0,0,0,0-16.043Zm0,2.881a5.14,5.14,0,1,1-5.14,5.14,5.182,5.182,0,0,1,5.14-5.14Zm8.332-4.892A1.824,1.824,0,1,0,35.029,16.6,1.824,1.824,0,0,0,33.205,14.779Z" transform="translate(118.267 0)" fill="#284192"/>
            </g>
          </g>
        </g>
        <g transform="matrix(1, 0, 0, 1, -54.99, -57.76)" filter="url(#パス_8656)">
          <path id="パス_8656-2" data-name="パス 8656" d="M8.372-67.574c-1.2-9.568-1.2-10.465-1.2-13.156,0-15.249,7.176-28.106,23.322-42.458,20.93-17.641,37.973-34.385,37.973-58.6,0-25.415-20.93-50.531-74.451-50.531-23.92,0-46.644,6.279-62.79,14.352L-58.6-193.453c11.661-6.578,30.2-11.362,47.84-11.362,29.9,0,43.654,11.661,43.654,27.209,0,15.249-11.362,26.312-30.2,43.355-19.136,17.94-26.91,33.787-26.91,50.531,0,2.691,1.2,14.053,1.5,16.146ZM-6.877,2.99c14.95,0,22.724-11.063,22.724-23.322,0-13.754-8.97-23.621-22.126-23.621C-17.94-43.953-28.7-35.88-28.7-19.734-28.7-6.877-19.435,2.99-6.877,2.99Z" transform="translate(208.99 329.76)" fill="#284192"/>
        </g>
      </g>
    </g>
  </g>
</svg>
