<svg xmlns="http://www.w3.org/2000/svg" width="670.509" height="454.714" viewBox="0 0 670.509 454.714">
  <g id="グループ_5413" data-name="グループ 5413" transform="translate(-207.819 -346.694)">
    <g id="グループ_5412" data-name="グループ 5412" transform="translate(207.425 703.022)">
      <path id="パス_9576" data-name="パス 9576" d="M26.28-56.376c3.744,1.224,6.264,3.384,6.912,4.9.432,1.008.072,1.512-.936,1.728-1.656.288-6.048.648-10.3,1.008-2.664.144-7.56-.144-7.848,5.112-.216,2.736,1.512,4.1,3.24,6.192.864,1.08,1.8,2.376,2.88,3.888-1.728.864-3.384,1.728-5.04,2.592-2.592,1.224-5.184,2.592-6.912,2.592-1.656,0-3.024-1.368-4.248-2.952l-1.08.5c-.432,3.24-.072,4.824,1.008,6.408a10.959,10.959,0,0,0,7.56,4.248c2.376,0,3.528-1.8,6.12-3.816,1.8-1.368,3.816-2.808,5.9-4.248a73.894,73.894,0,0,1,7.488,18.5C32.184-5.328,32.76-1.512,33.552.936c.792,2.736,2.016,3.96,4.176,3.96,2.592,0,4.32-2.088,4.32-5.112,0-2.808-1.44-7.2-2.88-10.728A153.329,153.329,0,0,0,28.8-31.68c7.992-5.112,16.848-9.576,23.04-9.576,4.9,0,9.072,3.24,9.072,7.992,0,5.616-4.248,8.784-10.08,8.784a19.932,19.932,0,0,1-13.824-5.328L36-29.016c4.176,6.984,9.864,10.944,16.344,10.944,9.36,0,15.624-5.4,15.624-12.888,0-7.416-5.976-13.32-15.768-13.32-7.272,0-16.776,3.528-26.424,8.064-2.448-3.312-5.4-6.552-5.4-7.992,0-1.584,1.224-1.872,3.024-1.944a78.473,78.473,0,0,1,11.808.576,30.339,30.339,0,0,0,4.824,1.008,2.987,2.987,0,0,0,3.24-3.24A7.947,7.947,0,0,0,40.9-53.352c-2.232-2.376-6.84-4.752-14.328-4.1Zm65.3,35.208c-.144,4.752-.072,9.216-.144,11.736-.072,1.368-.648,1.584-1.656.72-.72-.72-2.376-2.3-3.888-3.744Zm51.192,6.984C138.6-10.872,135-9.216,130.68-9.216c-3.168,0-4.464-1.44-4.464-5.184,0-7.488,2.736-14.832,2.736-21.528,0-7.2-2.736-11.3-9.792-11.3-5.616,0-11.952,3.888-16.992,8.064a2.588,2.588,0,0,0,.144-.792c0-.648-1.3-2.088-2.592-3.168.432-1.368.792-2.52,1.152-3.384.936-2.3,1.872-3.384,1.872-5.04,0-2.664-4.9-6.912-8.856-6.912a13.286,13.286,0,0,0-5.76,1.368v1.224a19.922,19.922,0,0,1,4.464,1.728c1.3.72,1.512,1.152,1.512,2.736s-.36,4.9-.792,8.856c-3.816,1.944-10.008,4.9-12.24,4.9-1.656,0-2.808-1.368-4.032-3.1l-1.008.288a13.044,13.044,0,0,0,.072,4.1c.936,3.024,4.824,6.768,8.064,6.768,1.512,0,2.232-2.088,3.672-3.168,1.008-.648,2.88-1.728,4.752-2.808-.144,1.368-.288,2.736-.36,4.1a161.934,161.934,0,0,1-14.9,18.72A7,7,0,0,0,75.24-7.56c0,2.52,1.584,4.032,3.168,3.96,1.8,0,2.88-1.728,4.176-3.744L84.816-10.8a32.149,32.149,0,0,1,3.168,5.9,32.824,32.824,0,0,1,1.584,5.9c.288,2.016,1.224,3.384,3.744,3.384,2.736,0,4.9-3.384,4.9-7.632,0-2.016-.5-3.96-.792-6.84a104.351,104.351,0,0,1-.648-17.568q.108-1.08.216-2.376c5.9-7.632,13.536-13.68,19.656-13.68,3.528,0,4.536,2.376,4.536,6.768,0,7.92-2.736,15.624-2.736,24.264C118.44-5.04,121.9-1.8,127.728-1.8c7.92,0,13.248-6.192,15.84-11.592Zm35.5,11.16c-5.544,0-8.856-1.728-8.856-4.464,0-2.232,1.8-3.6,4.536-3.6,3.96,0,6.84,3.1,7.7,7.92C180.576-3.1,179.5-3.024,178.272-3.024Zm-16.2-51.336a15.431,15.431,0,0,0-.576,4.68c.216,2.52,3.456,7.416,7.7,7.416,1.512,0,2.736-1.08,4.1-1.944,2.736-1.584,7.2-4.032,9.864-4.464,1.152-.216,1.872.288.648,1.872-3.744,5.112-18.864,19.368-25.92,26.28-2.376,2.3-3.528,3.888-3.672,5.832-.144,2.736,1.44,4.608,3.024,4.68,1.8.072,2.52-.576,4.248-2.808,6.12-7.92,13.032-15.12,22.9-15.12,8.28,0,12.528,4.9,12.456,11.232-.072,4.968-2.52,9.576-8.5,12.024a12.564,12.564,0,0,0-12.528-9.792c-5.328,0-9.648,3.1-9.648,7.848,0,6.264,6.264,9.936,14.688,9.936,14.832,0,23.4-7.776,23.472-17.424.072-10.8-8.064-16.848-17.784-16.848a34.769,34.769,0,0,0-12.024,2.448c-.72.216-1.152-.288-.36-1.08A133.879,133.879,0,0,1,190.512-43.2c2.376-1.656,4.9-2.232,4.9-4.248,0-3.1-5.688-7.632-9.072-7.632-1.512,0-1.512,1.08-4.32,2.016-3.888,1.224-11.448,3.024-14.04,3.024-1.872,0-3.672-2.088-4.9-4.392Zm87.84,8.5c1.008-2.376,3.1-3.456,3.1-5.472,0-2.52-6.7-5.4-10.008-5.4a13.194,13.194,0,0,0-6.552,1.8v1.08a17.133,17.133,0,0,1,5.328,1.728,2.186,2.186,0,0,1,1.152,2.16c0,1.44-1.152,5.616-3.024,10.8-5.544,1.08-10.656,2.3-13.1,2.3-1.872,0-2.736-1.584-4.032-3.888l-1.008.216a8.572,8.572,0,0,0-.792,4.968c.5,2.952,3.816,6.7,5.976,6.7,1.944,0,3.312-.792,5.688-1.872,1.3-.576,3.024-1.3,4.824-2.016-1.152,2.808-2.376,5.688-3.744,8.5a96.6,96.6,0,0,1-10.944,17.64,5.909,5.909,0,0,0-1.656,4.68c0,2.736,1.8,4.464,3.528,4.464,1.944,0,3.1-.72,4.68-3.456,2.592-4.392,7.056-13.68,10.368-20.88,1.8-3.888,4.032-9.072,5.976-13.824a20.879,20.879,0,0,1,5.184-.936c3.384,0,4.608,1.944,4.608,5.832,0,7.2-2.016,17.424-5.472,21.6a5.247,5.247,0,0,1-4.824,2.52c-1.944,0-4.752-1.224-8.352-3.1l-.648.936c3.456,3.744,3.96,4.392,4.32,5.832.864,3.6,1.944,4.68,4.752,4.68a12.782,12.782,0,0,0,9.36-4.176c5.328-5.832,7.488-16.2,7.488-25.416,0-9.576-3.744-13.032-9.5-13.032a43.766,43.766,0,0,0-4.9.432Zm15.12,5.9a13.453,13.453,0,0,1,8.352,6.12,16.854,16.854,0,0,1,2.52,8.568c.072,1.944-.576,2.736-2.232,3.456a68.377,68.377,0,0,1-7.056,2.016l.216,1.3a33.268,33.268,0,0,1,7.848,1.08c2.376.936,2.52,3.24,5.04,3.168,3.168,0,4.752-3.1,4.752-7.416,0-5.616-1.8-10.656-5.832-14.4a20.233,20.233,0,0,0-13.176-5.184Zm55.08-9.5c.648.864.576,1.512-.288,1.944-2.376,1.3-9.144,3.024-12.312,3.528-2.52.432-3.312,2.664-3.312,4.608a41.912,41.912,0,0,1-.144,5.112c-.36,3.384-1.512,10.512-2.016,13.9a55.987,55.987,0,0,0-.936,5.76,6.375,6.375,0,0,0,1.872,4.536q2.052,2.376,4.1,2.376c2.376,0,3.312-2.88,5.112-5.4,4.1-5.184,12.744-13.968,20.808-13.968,6.192,0,9.576,4.752,9.576,9.792,0,5.9-3.528,11.664-15.912,16.128A73.285,73.285,0,0,1,312.12,2.16l.144,1.44c18.072,1.656,38.88-4.032,38.88-18.072,0-7.7-5.76-15.624-17.352-15.624-9.792,0-18.72,5.9-23.832,9.216-.576.36-.864.216-.936-.576-.072-2.16.72-5.112,1.08-7.92a28.451,28.451,0,0,0,.5-5.9c-.216-2.016-1.3-3.816-1.3-4.968,0-.576.288-1.152,1.584-1.3a53.909,53.909,0,0,1,9.936-.648c3.24.288,4.968,1.08,7.344,1.08s3.384-1.224,3.384-3.24c0-4.176-2.3-7.272-6.408-9.648-2.952-1.728-7.416-2.88-14.544-2.376l-.288,1.08C314.784-53.784,318.24-52.416,320.112-49.464Zm42.264,37.512c6.48,5.184,8.5,10.44,10.44,14.472,1.08,2.3,2.592,3.24,4.68,3.24A4.386,4.386,0,0,0,382.1,1.008a7.875,7.875,0,0,0-1.512-4.824c-2.664-4.032-7.92-7.344-17.568-9.072Zm74.3-38.16h26.784V-41.4H441.936l.576,2.016H494.5c1.008,0,1.8-.36,2.016-1.152-3.1-2.88-8.352-6.912-8.352-6.912L483.48-41.4H472.248v-8.712h26.568c1.008,0,1.8-.36,2.016-1.152-3.168-2.808-8.352-6.912-8.352-6.912l-4.608,6.048H472.248v-5.9c2.232-.288,2.808-1.08,2.952-2.232l-11.736-.864v9H436.1Zm52.416,20.3a104.2,104.2,0,0,1-3.528,10.152l.576.5a77.418,77.418,0,0,0,12.384-8.784c1.512-.072,2.3-.288,2.88-.864l-7.992-7.7-4.68,4.68h-41.9a26.525,26.525,0,0,0-1.44-4.464h-.936a11.241,11.241,0,0,1-5.616,10.08c-2.376,1.08-3.96,3.168-3.1,5.832,1.008,2.808,4.464,3.528,7.056,2.016,2.808-1.656,5.04-5.688,4.392-11.448ZM434.448,6.408c24.408-4.968,28.944-15.552,29.736-29.016,1.728-.144,2.448-.864,2.664-2.016l-11.736-1.152c1.008,12.672-1.44,24.408-21.1,31.248Zm64.8-19.584h-.792a74.637,74.637,0,0,1-3.24,9.288,1.736,1.736,0,0,1-1.8.936c-.936.072-2.88.072-5.184.072H482.04c-2.088,0-2.448-.288-2.448-1.368V-23.04c1.44-.216,2.16-.864,2.232-1.8l-10.44-.936V-2.232c0,5.616,1.584,7.056,8.784,7.056h7.2c11.664,0,14.832-1.512,14.832-4.968,0-1.512-.5-2.448-2.736-3.384Zm24.336-7.992c-.144,4.752-.072,9.216-.144,11.736-.072,1.368-.648,1.584-1.656.72-.72-.72-2.376-2.3-3.888-3.744Zm51.192,6.984C570.6-10.872,567-9.216,562.68-9.216c-3.168,0-4.464-1.44-4.464-5.184,0-7.488,2.736-14.832,2.736-21.528,0-7.2-2.736-11.3-9.792-11.3-5.616,0-11.952,3.888-16.992,8.064a2.588,2.588,0,0,0,.144-.792c0-.648-1.3-2.088-2.592-3.168.432-1.368.792-2.52,1.152-3.384.936-2.3,1.872-3.384,1.872-5.04,0-2.664-4.9-6.912-8.856-6.912a13.286,13.286,0,0,0-5.76,1.368v1.224a19.921,19.921,0,0,1,4.464,1.728c1.3.72,1.512,1.152,1.512,2.736s-.36,4.9-.792,8.856c-3.816,1.944-10.008,4.9-12.24,4.9-1.656,0-2.808-1.368-4.032-3.1l-1.008.288a13.042,13.042,0,0,0,.072,4.1c.936,3.024,4.824,6.768,8.064,6.768,1.512,0,2.232-2.088,3.672-3.168,1.008-.648,2.88-1.728,4.752-2.808-.144,1.368-.288,2.736-.36,4.1a161.93,161.93,0,0,1-14.9,18.72A7,7,0,0,0,507.24-7.56c0,2.52,1.584,4.032,3.168,3.96,1.8,0,2.88-1.728,4.176-3.744l2.232-3.456a32.147,32.147,0,0,1,3.168,5.9,32.823,32.823,0,0,1,1.584,5.9c.288,2.016,1.224,3.384,3.744,3.384,2.736,0,4.9-3.384,4.9-7.632,0-2.016-.5-3.96-.792-6.84a104.348,104.348,0,0,1-.648-17.568q.108-1.08.216-2.376c5.9-7.632,13.536-13.68,19.656-13.68,3.528,0,4.536,2.376,4.536,6.768,0,7.92-2.736,15.624-2.736,24.264C550.44-5.04,553.9-1.8,559.728-1.8c7.92,0,13.248-6.192,15.84-11.592Zm35.5,11.16c-5.544,0-8.856-1.728-8.856-4.464,0-2.232,1.8-3.6,4.536-3.6,3.96,0,6.84,3.1,7.7,7.92C612.576-3.1,611.5-3.024,610.272-3.024Zm-16.2-51.336a15.432,15.432,0,0,0-.576,4.68c.216,2.52,3.456,7.416,7.7,7.416,1.512,0,2.736-1.08,4.1-1.944,2.736-1.584,7.2-4.032,9.864-4.464,1.152-.216,1.872.288.648,1.872-3.744,5.112-18.864,19.368-25.92,26.28-2.376,2.3-3.528,3.888-3.672,5.832-.144,2.736,1.44,4.608,3.024,4.68,1.8.072,2.52-.576,4.248-2.808,6.12-7.92,13.032-15.12,22.9-15.12,8.28,0,12.528,4.9,12.456,11.232-.072,4.968-2.52,9.576-8.5,12.024a12.564,12.564,0,0,0-12.528-9.792c-5.328,0-9.648,3.1-9.648,7.848,0,6.264,6.264,9.936,14.688,9.936,14.832,0,23.4-7.776,23.472-17.424.072-10.8-8.064-16.848-17.784-16.848a34.769,34.769,0,0,0-12.024,2.448c-.72.216-1.152-.288-.36-1.08A133.881,133.881,0,0,1,622.512-43.2c2.376-1.656,4.9-2.232,4.9-4.248,0-3.1-5.688-7.632-9.072-7.632-1.512,0-1.512,1.08-4.32,2.016-3.888,1.224-11.448,3.024-14.04,3.024-1.872,0-3.672-2.088-4.9-4.392Zm67.1,60.336A10.2,10.2,0,0,0,671.328-4.248,10.14,10.14,0,0,0,661.176-14.4,10.2,10.2,0,0,0,650.952-4.248,10.263,10.263,0,0,0,661.176,5.976Zm0-17.784a7.559,7.559,0,0,1,7.56,7.56,7.621,7.621,0,0,1-7.56,7.632,7.636,7.636,0,0,1-7.632-7.632A7.575,7.575,0,0,1,661.176-11.808Z" transform="translate(-0.425 91.978)" fill="#333"/>
    </g>
    <path id="パス_9577" data-name="パス 9577" d="M15.756-21.255c1.794-1.092,1.872-4.524-4.173-5.655h11.9c-.273,1.677-.78,3.939-1.248,5.655ZM16.263-4.29v-5.733h6.279V-4.29ZM30.186-28H21.645v-3.471c1.053-.156,1.326-.546,1.4-1.092l-6.084-.468V-28H1.248L1.56-26.91h9.477l-.234.156a11.829,11.829,0,0,1,1.911,5.109,5.081,5.081,0,0,0,.585.39H8.5L3.7-23.244V3.471h.741c1.833,0,3.7-1.053,3.7-1.56V-20.163h5.577a10.063,10.063,0,0,1-5.3,8.151l.156.546c5.226-1.521,8.346-4.173,9.4-8.7h2.652v2.847c0,3.315.546,4.1,3.705,4.1h3c2.457,0,3.354-.936,3.354-2.3,0-.585-.078-.7-1.17-1.248l-.078-2.106h-.468a12.782,12.782,0,0,1-.819,2.223.742.742,0,0,1-.663.273H24.96c-.507,0-.546-.039-.546-.819v-2.964h6.435V-2.106c0,.507-.156.78-.78.78-.819,0-3.432-.195-4.212-.273.429-.156.741-.312.741-.39V-9.555a2.181,2.181,0,0,0,1.248-.663L24.063-13.1l-1.872,1.95H16.419l-4.173-1.677V-.39h.585c1.677,0,3.432-.9,3.432-1.248V-3.2h6.279v2.184h.7a7.663,7.663,0,0,0,2.418-.507v.468A4.672,4.672,0,0,1,28.821.429a5.457,5.457,0,0,1,.819,3.042c5.031-.429,5.694-2.184,5.694-5.148V-19.383a2.866,2.866,0,0,0,1.6-.819L32.565-23.6l-2.106,2.34H24.024a50.731,50.731,0,0,0,4.134-3.7c.858,0,1.287-.351,1.443-.819L24.414-26.91H36.621c.585,0,1.014-.195,1.092-.624-1.833-1.56-4.836-3.822-4.836-3.822Zm33.93-1.209v8.892H52.884v-8.892ZM52.884-19.227H64.116v3.159h.78c1.56,0,3.783-.936,3.822-1.248V-28.47a2.641,2.641,0,0,0,1.6-.819l-4.446-3.393-2.145,2.34H53.118l-4.836-1.911v16.536h.7c1.911,0,3.9-1.014,3.9-1.443ZM46.566-1.95V-12.207H52.26V-1.95Zm5.3-11.388H46.761l-4.524-1.794V3.12H42.9c1.794,0,3.666-1.014,3.666-1.443v-2.5H52.26V2.418H53c1.482,0,3.627-.975,3.666-1.287V-11.5a2.634,2.634,0,0,0,1.56-.78L53.9-15.561ZM64.506-1.95V-12.207h6.006V-1.95ZM72.228-15.6l-2.106,2.262H64.7l-4.524-1.794V3.159h.663c1.833,0,3.666-1.014,3.666-1.443V-.819h6.006V2.613h.741c1.482,0,3.7-.819,3.744-1.131V-11.466a3.187,3.187,0,0,0,1.6-.819ZM85.683-33.15a72.9,72.9,0,0,1-7.332,20.358l.468.312a34.719,34.719,0,0,0,4.056-4.212V3.393h.741c1.6,0,3.354-.858,3.393-1.17V-20.4c.741-.117,1.092-.351,1.248-.741L86.463-21.8a60.833,60.833,0,0,0,4.1-8.619c.9,0,1.365-.312,1.56-.819ZM107.289-1.794V-19.539h2.769V-1.794ZM94.146-19.539h2.535V-1.794H94.146Zm9.087,0V-1.794H100.7V-19.539ZM100.7-27.495h2.535v6.864H100.7Zm9.165,6.864h-2.574v-6.864h7.644c.585,0,.975-.195,1.092-.624-1.755-1.56-4.68-3.822-4.68-3.822l-2.613,3.354h-18.8l.312,1.092h6.435v6.864H94.614l-4.485-1.755V2.808h.7c2.067,0,3.315-.819,3.315-1.092V-.7h15.912V2.574h.7c2.106,0,3.549-.9,3.549-1.131V-19.149a2.641,2.641,0,0,0,1.6-.78l-3.939-3.12Zm15.288-12.48a74.986,74.986,0,0,1-7.41,20.475l.468.312a34.64,34.64,0,0,0,3.9-4.017V3.471h.819c1.755,0,3.549-.975,3.627-1.326V-20.787c.741-.117,1.092-.351,1.209-.741l-1.677-.624a52.257,52.257,0,0,0,3.9-8.268c.9,0,1.4-.312,1.56-.819Zm15.21,27.339v-4.8h7.02v4.8Zm0-10.374h7.02v4.485h-7.02Zm7.02-5.733v4.641h-7.02v-4.641Zm4.524.351a2.514,2.514,0,0,0,1.56-.741l-4.056-3.159-2.184,2.457h-2.691c.156-1.092.351-2.418.546-3.783h9.165c.585,0,1.014-.195,1.131-.624-1.716-1.56-4.563-3.822-4.563-3.822l-2.535,3.315h-3.042c.156-1.248.312-2.5.429-3.51.9-.156,1.365-.585,1.482-1.209l-6.2-.546c0,1.638-.039,3.471-.078,5.265H130.65l.312,1.131h9.867c-.039,1.365-.078,2.652-.117,3.744l-4.641-1.755V-2.3h.78c2.184,0,3.51-.78,3.51-1.131V-4.719h7.02v1.755h.78a7.1,7.1,0,0,0,2.691-.468L148.278-.078H133.614V-21.8c.936-.156,1.248-.507,1.326-1.053l-5.46-.507V3.354h.78c1.521,0,3.354-.9,3.354-1.326V1.053H154.4c.546,0,.975-.195,1.092-.624-1.716-1.56-4.485-3.744-4.641-3.861.663-.234,1.053-.546,1.053-.663Zm31.512-6.357a19.607,19.607,0,0,1,3.471,4.056c.624.936,1.131,1.482,1.755,1.521a1.394,1.394,0,0,0,1.482-1.4,2.875,2.875,0,0,0-1.131-2.223,12.864,12.864,0,0,0-5.187-2.457Zm-2.886,15.522a22.868,22.868,0,0,1,4.758-1.248,14.258,14.258,0,0,1,2.574-.312c1.677-.039,2.418-.624,2.418-1.716a2.942,2.942,0,0,0-1.638-2.418,10.549,10.549,0,0,0-5.07-1.092,15.768,15.768,0,0,0-8.346,2.535l.234.585a28.341,28.341,0,0,1,4.6-.507,12.292,12.292,0,0,1,3.354.429c.312.117.39.312.2.546a34.4,34.4,0,0,1-3.432,2.691ZM172.38-24.18c.9-2.964,1.716-3.7,1.716-4.758-.039-1.053-2.535-2.3-4.914-2.3a7.589,7.589,0,0,0-3.2.663l-.039.585a7.45,7.45,0,0,1,2.3,1.131c.663.507.78.819.741,1.794a42.027,42.027,0,0,1-.741,4.524,23.55,23.55,0,0,1-4.8.468c-1.638,0-2.769-.468-4.8-1.911l-.468.351c1.248,4.251,3.042,4.992,6.006,4.992a24.142,24.142,0,0,0,3.159-.273c-.312,1.131-.624,2.223-.936,3.12a54.686,54.686,0,0,1-5.031,10.842c-1.092,1.833-2.067,2.379-2.067,3.978s.936,2.886,2.106,2.886c1.443,0,1.989-.819,2.691-2.145,1.521-2.808,3.978-9.789,5.421-14.235.585-1.677,1.092-3.51,1.56-5.148a58.1,58.1,0,0,0,6.084-1.794c2.847-1.014,3.705-1.638,3.705-2.73,0-1.521-1.911-2.067-2.886-2.067a6.579,6.579,0,0,0-1.716.9,23.011,23.011,0,0,1-4.056,1.716Zm.741,15.21a12.71,12.71,0,0,0-.078,3.861c.429,4.368,3.861,6.786,9.828,6.786a22.517,22.517,0,0,0,5.577-.585c1.56-.351,2.535-1.053,2.535-2.067,0-1.677-1.833-2.379-3.354-2.379a28.405,28.405,0,0,1-5.694.741c-3.159,0-5.421-.663-6.942-2.886a8.58,8.58,0,0,1-1.209-3.51Zm13.845-21.372a17.139,17.139,0,0,1,3.549,3.588c.741.936,1.17,1.56,1.911,1.56a1.24,1.24,0,0,0,1.326-1.365,2.979,2.979,0,0,0-1.365-2.418,13.33,13.33,0,0,0-5.109-1.911ZM207.909-15.8a54.953,54.953,0,0,1-3.51,7.371c-.312.507-.7.468-1.014-.078a7.194,7.194,0,0,1-.546-3.042,18.634,18.634,0,0,1,2.808-8.853c.78-1.443,1.326-2.379,1.326-3.471,0-2.145-2.145-4.329-3.354-5.109a9.511,9.511,0,0,0-3.12-1.287l-.351.468a7.2,7.2,0,0,1,2.067,4.6c0,4.134-2.3,9.048-2.3,14.508A17.709,17.709,0,0,0,202.059-1.6c.819,1.443,1.833,2.3,2.925,2.3a1.859,1.859,0,0,0,2.067-2.028c0-1.443-.663-2.73-.663-4.134a13.527,13.527,0,0,1,.273-2.652c.39-1.716,1.287-4.836,2.067-7.332Zm9.282-12.558a10.2,10.2,0,0,1,2.73.975c.507.273.741.624.819,1.521.156,1.092.273,2.808.39,4.524a23.836,23.836,0,0,1-4.329.546,10.9,10.9,0,0,1-5.928-1.95l-.39.39c1.794,4.446,4.719,5.109,7.137,5.109a30.094,30.094,0,0,0,3.666-.273c.117,3.51.234,7.332-.585,10.257-1.17,4.836-3.744,7.449-7.761,9.633l.312.585c5.3-1.326,9.438-3.354,11.232-8.229,1.287-3.276.936-8.814.7-12.987a25.143,25.143,0,0,0,4.641-1.482c1.248-.585,1.638-1.209,1.638-1.989,0-1.248-1.56-2.067-3-2.067a10.383,10.383,0,0,0-1.95.819c-.429.195-.936.39-1.482.585,0-.975,0-1.911.039-2.613.078-1.365.546-1.989.546-2.652,0-1.4-2.964-2.691-4.836-2.691a7.571,7.571,0,0,0-3.666,1.4ZM259.9-17.511a1.382,1.382,0,0,0,1.482-1.443,3.14,3.14,0,0,0-1.248-2.379,13.634,13.634,0,0,0-5.577-2.847l-.429.546a20.233,20.233,0,0,1,3.9,4.563C258.687-18.057,259.233-17.511,259.9-17.511Zm4.1-3.627a1.321,1.321,0,0,0,1.365-1.4,3.29,3.29,0,0,0-1.521-2.613,12.07,12.07,0,0,0-5.5-2.34l-.39.546A16.246,16.246,0,0,1,262-22.776C262.743-21.684,263.211-21.138,263.991-21.138Zm-20.709-6.669c.7.624.9,1.326.9,3.237,0,2.925-.819,10.842-.819,16.419,0,7.293,3.354,10.14,8.814,10.14,8.034,0,13.806-5.46,16.38-11.817l-.7-.507c-3.432,4.29-9.36,7.8-15.054,7.8-4.6,0-5.811-1.677-5.811-6.123a69.067,69.067,0,0,1,1.677-13.572c.429-1.989,1.482-2.613,1.482-3.705,0-1.6-3.705-4.485-6.357-4.524a8.69,8.69,0,0,0-3.042.741v.624A7.577,7.577,0,0,1,243.282-27.807ZM288.21-22.7a4.807,4.807,0,0,1,2.73,1.95c.156.39.039.624-.39.7a33.739,33.739,0,0,1-3.744.429c-1.131.078-3.432-.039-3.471,2.34-.039,1.092.741,1.677,1.482,2.652.312.39.624.858,1.014,1.4-.663.312-1.287.624-1.911.936a7.878,7.878,0,0,1-2.925,1.17c-.663,0-1.17-.507-1.755-1.131l-.39.156c-.234,1.56-.078,2.262.429,2.964a4.815,4.815,0,0,0,3.315,1.755c.975,0,1.521-.741,2.457-1.56.7-.585,1.482-1.209,2.34-1.833a27.788,27.788,0,0,1,2.886,7.371c.429,1.716.624,3.276.975,4.407.39,1.248.936,1.833,1.95,1.833A2.061,2.061,0,0,0,295.23.507a13.966,13.966,0,0,0-1.209-4.563,74.792,74.792,0,0,0-4.173-8.385c3.2-2.106,6.747-3.9,9.126-3.9a3.408,3.408,0,0,1,3.588,3.2c0,2.34-1.716,3.627-4.056,3.627a8.027,8.027,0,0,1-5.616-2.223l-.39.273c1.638,3.042,3.9,4.914,6.786,4.914,4.017,0,6.552-2.418,6.552-5.46,0-3.081-2.535-5.616-6.708-5.616-2.847,0-6.747,1.365-10.686,3.159-1.053-1.4-2.262-2.691-2.262-3.237,0-.7.546-.78,1.209-.78a34.188,34.188,0,0,1,4.641.312,10.714,10.714,0,0,0,2.067.468,1.392,1.392,0,0,0,1.482-1.482,3.31,3.31,0,0,0-1.014-2.3c-.936-1.053-2.964-2.028-6.318-1.6ZM313.287-6.474c3.51,2.808,4.6,5.655,5.655,7.839a2.613,2.613,0,0,0,2.535,1.755,2.376,2.376,0,0,0,2.5-2.574,4.266,4.266,0,0,0-.819-2.613c-1.443-2.184-4.29-3.978-9.516-4.914Zm63.57-10.764a30.855,30.855,0,0,1-6.318,9.165,23,23,0,0,1-7.761-9.165Zm2.769-3.666-2.847,2.574h-4.056v-6.786h14.352c.585,0,1.014-.195,1.131-.624-1.872-1.638-4.914-3.978-4.914-3.978l-2.73,3.471h-7.839v-5.265c1.053-.156,1.365-.546,1.4-1.092L368-33.111v6.864H353.028l.312,1.131H368v6.786H355.8l.312,1.092H362a28.91,28.91,0,0,0,6.357,11.232,46.835,46.835,0,0,1-16.107,8.892l.234.507a48.045,48.045,0,0,0,18.33-7.059,37.352,37.352,0,0,0,14,7.059,5.253,5.253,0,0,1,4.173-4.017l.078-.468a50.93,50.93,0,0,1-15.171-4.914,34.287,34.287,0,0,0,8.19-10.179c1.092-.078,1.521-.195,1.833-.624Zm42.237-12.4a113.054,113.054,0,0,1-18.018,4.524l.078.585a137.17,137.17,0,0,0,19.851-1.326,2.4,2.4,0,0,0,2.379-.117ZM411.45-27.729a14.085,14.085,0,0,1,1.755,5.772c3.237,2.964,7.371-3.354-1.365-5.928Zm-6.2.507a14.261,14.261,0,0,1,1.794,5.538c3.2,2.925,7.215-3.276-1.4-5.733Zm-5.07,13.065c2.106-1.365,3.783-2.535,5.031-3.471l-.156-.429c-1.638.468-3.276.936-4.875,1.365v-6.4h4.446a.933.933,0,0,0,1.014-.624c-1.17-1.365-3.393-3.432-3.393-3.432l-1.872,2.925h-.2v-7.293c.975-.117,1.365-.507,1.443-1.092l-5.733-.546v8.931h-4.68l.312,1.131h4.368V-15.6c-2.184.546-3.939.975-4.992,1.17l1.872,5.382a1.651,1.651,0,0,0,1.014-1.131c.741-.429,1.443-.858,2.106-1.248v9.009c0,.429-.2.624-.78.624-.7,0-3.861-.195-3.861-.195v.546A3.945,3.945,0,0,1,394.1.078a6.779,6.779,0,0,1,.741,3.354c4.758-.468,5.343-2.262,5.343-5.46Zm18.837,4.1a20.136,20.136,0,0,1-2.652,4.6,13.2,13.2,0,0,1-3.939-4.6Zm2.5-3.471-2.535,2.34H412.5a27.7,27.7,0,0,0,.858-3.081h13.572c.546,0,.936-.195,1.053-.585-1.638-1.4-4.29-3.354-4.29-3.354l-2.379,2.886H413.6c.273-1.248.468-2.535.624-3.861H426.7c.546,0,.936-.195,1.053-.624-1.443-1.4-3.9-3.471-3.9-3.471l-2.145,2.964h-3.393a36.276,36.276,0,0,0,6.084-5.733c.858.039,1.326-.273,1.521-.7l-5.46-1.872a44.2,44.2,0,0,1-3,8.307H403.377l.312,1.131H409.3c-.078,1.287-.2,2.574-.39,3.861h-6.006l.312,1.053h5.538C407.706-7.722,405.132-1.638,399.867,3l.312.39a23.8,23.8,0,0,0,11.7-12.87,20.693,20.693,0,0,0,2.847,5.889,27.587,27.587,0,0,1-10.257,6.513l.2.507a32.875,32.875,0,0,0,12.051-4.719,22.361,22.361,0,0,0,8.034,4.719A5.156,5.156,0,0,1,428.3-.7l.039-.429A34.8,34.8,0,0,1,419.6-3.588a21.036,21.036,0,0,0,4.407-5.772c.9-.117,1.248-.234,1.56-.624Zm19.5-1.053c-1.053,1.95-3.12,6.2-4.056,7.605-.351.585-.78.546-1.014-.039a6.717,6.717,0,0,1-.429-2.73A22.889,22.889,0,0,1,438.555-20.2c.9-1.794,1.521-2.574,1.521-3.666,0-2.106-2.184-4.368-3.354-5.109a8.441,8.441,0,0,0-3.081-1.287l-.39.429a7.565,7.565,0,0,1,2.028,4.641,19.867,19.867,0,0,1-.9,5.226A46.7,46.7,0,0,0,432.666-9.4c0,4.446.975,7.761,2.418,9.711A3.514,3.514,0,0,0,437.7,2.067c1.287,0,1.989-.78,1.989-2.184,0-1.209-.741-2.535-.741-3.939a18.031,18.031,0,0,1,.468-2.964c.429-1.4,1.716-5.07,2.457-7.215Zm13.65,8.307c0,2.691-.936,4.056-4.875,4.056-1.833,0-3.549-.624-3.549-2.067,0-1.638,2.145-2.574,4.329-2.574a15.505,15.505,0,0,1,4.1.507Zm-4.173-21.879a13.4,13.4,0,0,1,2.808.663c.663.234.975.351.975,2.028l-.039,3.9a24.229,24.229,0,0,1-4.368.39,9.356,9.356,0,0,1-5.265-1.794l-.468.429c1.911,4.329,3.9,4.641,6.435,4.641a29.864,29.864,0,0,0,3.666-.234v.936c.039,2.574.2,5.46.312,7.761-.585-.039-1.17-.078-1.794-.078-4.485,0-8.424,1.677-8.424,5.538,0,3.354,3.12,5.187,6.63,5.187,5.226,0,7.566-1.95,7.566-5.655V-4.68a19.285,19.285,0,0,1,3,2.3c1.287,1.209,1.872,1.833,2.769,1.833,1.053,0,1.755-.78,1.755-2.067a3.627,3.627,0,0,0-1.326-2.574,14.109,14.109,0,0,0-6.552-3.666c-.2-2.223-.468-4.953-.468-8.268,0-.507,0-1.053.039-1.56a33.2,33.2,0,0,0,4.68-1.209c1.794-.741,2.457-1.014,2.457-2.3,0-1.209-1.6-1.872-3-1.872-.234,0-1.248.624-3.939,1.521.117-1.092.234-1.989.351-2.613.273-1.4.663-1.716.663-2.652,0-1.131-2.457-2.5-5.07-2.5a7.588,7.588,0,0,0-3.51,1.56ZM17.667,60.987v3.276h-6.63V60.987Zm0,7.761h-6.63V65.394h6.63Zm0,4.6h-6.63V69.84h6.63ZM6.513,76.938h.819c2.3,0,3.7-1.014,3.7-1.365V74.481H34.164c.546,0,.936-.195,1.053-.624-1.6-1.482-4.329-3.471-4.329-3.471L28.47,73.35H22.347V69.84H32.994c.546,0,.975-.195,1.092-.624-1.521-1.365-4.017-3.315-4.017-3.315l-2.223,2.847h-5.5V65.394H32.994c.546,0,.936-.195,1.053-.624-1.482-1.4-3.978-3.315-3.978-3.315l-2.223,2.808h-5.5V60.987h11.31a.982.982,0,0,0,1.053-.624c-1.56-1.482-4.212-3.549-4.212-3.549l-2.3,3.042H19.188a43.8,43.8,0,0,0,5.07-2.964,1.288,1.288,0,0,0,1.443-.624l-6.162-2.3a39.445,39.445,0,0,1-1.482,5.889H11.583l-.156-.078a25.5,25.5,0,0,0,2.145-2.73c.9.156,1.4-.156,1.6-.585L9.438,53.694A35.141,35.141,0,0,1,.819,66.642l.39.39a29.656,29.656,0,0,0,5.3-2.925ZM36.66,79.317c.546,0,.975-.195,1.092-.624-1.638-1.482-4.329-3.627-4.329-3.627l-2.379,3.159H21.762V76.353c.936-.156,1.209-.546,1.287-1.014L17,74.832v3.393H1.443l.312,1.092H13.3A32.814,32.814,0,0,1,.819,88.755l.234.507C7.41,87.7,12.987,85.323,17,82.086v8.385h.858c1.794,0,3.9-.78,3.9-1.131V79.4a22.7,22.7,0,0,0,12.87,9.711A5.029,5.029,0,0,1,38.1,84.894l.039-.468c-5.3-.585-11.544-2.418-15.21-5.109ZM57.8,81.228c0,3.549-1.911,4.446-5.733,4.446-2.067,0-3.549-.858-3.549-2.145,0-1.4,2.223-2.691,5.421-2.691a20.3,20.3,0,0,1,3.861.351ZM53.781,57.633a15.231,15.231,0,0,1,2.886.858,1.322,1.322,0,0,1,.936,1.4c0,.546-.039,1.677-.039,3.12a48.171,48.171,0,0,1-5.889.39,10.228,10.228,0,0,1-6.747-2.223l-.468.351c1.872,4.134,4.563,5.148,8.385,5.148,1.6,0,3.159-.078,4.641-.195v4.29a43.777,43.777,0,0,1-4.6.234c-3.2,0-4.29-.858-2.613-3.432l-.585-.39c-4.836,3.783-1.755,7.059,3.549,7.059,1.443,0,2.925-.078,4.368-.195.039,1.6.117,3.12.156,4.485-.624-.039-1.248-.078-1.911-.078-5.226,0-9.2,2.028-9.2,5.3,0,3.432,3.081,5.265,7.566,5.265,4.6,0,7.371-2.067,7.371-5.226,0-.507,0-.975-.039-1.482a22.229,22.229,0,0,1,6.318,4.251c.936.78,1.365,1.209,2.34,1.209a1.71,1.71,0,0,0,1.716-1.95c0-1.326-.858-2.379-2.145-3.315a21.256,21.256,0,0,0-8.541-3.549c-.195-1.56-.39-3.237-.507-5.226A37.115,37.115,0,0,0,68.8,72.1a2.075,2.075,0,0,0,1.6-1.95c0-1.287-1.521-1.716-3.12-1.716-.273,0-.858.39-2.535.9a38.622,38.622,0,0,1-4.056.975c.039-1.443.078-2.886.195-4.173A46.343,46.343,0,0,0,69.3,64.263c1.17-.39,1.872-.78,1.872-1.911,0-1.482-2.223-1.911-3.315-1.911-.312,0-.9.39-2.5.936-.9.273-2.34.663-4.1,1.014a9.934,9.934,0,0,1,.312-1.56c.273-.975.819-1.443.819-2.223,0-1.482-2.652-2.652-5.148-2.652a6.366,6.366,0,0,0-3.51,1.131Zm41.613,2.574c.351.468.312.819-.156,1.053a30.3,30.3,0,0,1-6.669,1.911,2.281,2.281,0,0,0-1.794,2.5,22.7,22.7,0,0,1-.078,2.769c-.195,1.833-.819,5.694-1.092,7.527a30.329,30.329,0,0,0-.507,3.12,3.453,3.453,0,0,0,1.014,2.457,3.059,3.059,0,0,0,2.223,1.287c1.287,0,1.794-1.56,2.769-2.925,2.223-2.808,6.9-7.566,11.271-7.566a5.063,5.063,0,0,1,5.187,5.3c0,3.2-1.911,6.318-8.619,8.736a39.7,39.7,0,0,1-7.878,1.794l.078.78c9.789.9,21.06-2.184,21.06-9.789,0-4.173-3.12-8.463-9.4-8.463-5.3,0-10.14,3.2-12.909,4.992-.312.195-.468.117-.507-.312a33.77,33.77,0,0,1,.585-4.29,15.412,15.412,0,0,0,.273-3.2c-.117-1.092-.7-2.067-.7-2.691,0-.312.156-.624.858-.7a29.2,29.2,0,0,1,5.382-.351c1.755.156,2.691.585,3.978.585a1.591,1.591,0,0,0,1.833-1.755c0-2.262-1.248-3.939-3.471-5.226-1.6-.936-4.017-1.56-7.878-1.287l-.156.585C92.508,57.867,94.38,58.608,95.394,60.207Zm31.98-3.471a7.329,7.329,0,0,1,1.716.9,2.036,2.036,0,0,1,.975,1.794,18.468,18.468,0,0,1-.468,3.237,19.967,19.967,0,0,1-3.666.429c-2.5,0-3.744-.936-5.382-2.184l-.585.312c1.092,4.329,2.574,5.3,5.811,5.3a22.626,22.626,0,0,0,2.73-.156,38.361,38.361,0,0,1-6.942,12.09,3.672,3.672,0,0,0-.936,2.535c0,1.326.741,2.613,2.067,2.613,1.092,0,1.872-1.014,2.847-2.535,2.925-4.68,5.265-11.31,6.552-15.288a21.515,21.515,0,0,0,6.435-2.184,2.124,2.124,0,0,0,1.209-1.794,1.947,1.947,0,0,0-2.028-1.872c-.507,0-1.4.741-4.251,1.677,1.131-3.354,1.521-4.563.741-5.187a6.5,6.5,0,0,0-3.666-1.014,7.851,7.851,0,0,0-3.159.78Zm12.714,25.506c0,2.223-1.56,3.471-4.446,3.471-2.73,0-3.783-.936-3.783-2.223,0-1.248,1.482-2.691,4.641-2.691a14.883,14.883,0,0,1,3.588.39Zm1.755-18.564A7.135,7.135,0,0,1,145.782,65c.39.312.546.663.351,1.014a12.987,12.987,0,0,0-4.68,3.159c-1.17,1.365-1.6,3.081-1.6,5.538,0,1.053.039,2.262.117,3.51-.39-.039-.78-.039-1.17-.039-5.694,0-8.814,2.886-8.814,6.045,0,2.886,2.574,5.07,6.864,5.07,4.485,0,7.137-1.833,7.137-5.3,0-.468,0-.936-.039-1.4a16.221,16.221,0,0,1,3.588,2.535c1.521,1.326,2.067,2.418,3.237,2.418.9,0,1.794-.663,1.794-2.184,0-1.716-1.716-3.354-4.173-4.641a18.886,18.886,0,0,0-4.914-1.989c-.351-2.106-.741-4.017-.9-5.148-.234-1.521-.312-2.847.273-3.705a3.814,3.814,0,0,1,2.925-1.287c2.145-.039,3.2,1.131,4.719,1.131,1.248,0,1.677-.9,1.677-2.145,0-2.184-1.638-3.939-4.29-4.758a10.852,10.852,0,0,0-6.084.156Zm19.578,11.31c.429,6.279,4.017,9.789,7.176,11.115,2.457,1.014,4.29.117,4.29-1.677,0-1.209-.624-1.131-.546-3.51a43.6,43.6,0,0,1,1.794-7.683l-.819-.351a70.083,70.083,0,0,1-4.056,6.942,1.221,1.221,0,0,1-1.56.351c-1.248-.546-3.042-2.613-3.042-6.006,0-4.914,2.067-7.059,2.067-8.97,0-1.794-2.34-4.017-4.329-4.836a9.469,9.469,0,0,0-3.666-.507l-.195.429c2.067,1.677,3,3.276,3,5.538C161.538,68.475,161.148,71.907,161.421,74.988Zm24.531-4.1c1.17,3.276,1.053,5.421,1.482,7.1a2,2,0,0,0,1.989,1.482c1.911,0,2.73-1.326,2.73-3.783a11.69,11.69,0,0,0-3.432-8.463,12.63,12.63,0,0,0-8.736-3.744l-.195.663A11.367,11.367,0,0,1,185.952,70.893Zm16.185,19.344A5.519,5.519,0,1,0,196.6,84.7,5.526,5.526,0,0,0,202.137,90.237Zm0-9.633a4.115,4.115,0,0,1,0,8.229,4.115,4.115,0,1,1,0-8.229Zm34.047-18.915a8.277,8.277,0,0,0-.312,2.418c.117,1.911,2.808,4.446,4.641,4.446,1.092,0,1.911-.858,2.73-1.326,2.34-1.4,7.722-3.315,12.324-4.368.39-.117.429.117.117.351a15.919,15.919,0,0,0-7.02,13.455c0,4.953,1.755,7.644,4.446,9.321,2.457,1.6,5.3,1.95,8.307,1.95,1.794,0,3.744-.429,3.744-2.223a3.134,3.134,0,0,0-3-2.73c-1.131,0-4.29.195-6.513-.975-1.365-.741-3.354-2.223-3.354-6.747,0-6.63,3.276-9.828,4.68-10.8a10.372,10.372,0,0,1,6.24-1.638c1.092,0,2.379.156,3.432.156a1.862,1.862,0,0,0,2.067-1.755c0-1.053-.78-1.755-1.833-2.223a7.85,7.85,0,0,0-3.315-.624,75.248,75.248,0,0,0-9.438,1.989c-6.864,1.638-12.558,3.12-14.9,3.12-1.014,0-1.872-.975-2.574-1.95ZM264.3,65.355a16.246,16.246,0,0,1,3.549,3.588c.741.975,1.209,1.56,1.95,1.56a1.212,1.212,0,0,0,1.287-1.365,2.979,2.979,0,0,0-1.365-2.418,13.594,13.594,0,0,0-5.109-1.911Zm-3.549,2.535a19.831,19.831,0,0,1,3.471,4.056c.624.9,1.131,1.482,1.755,1.521a1.362,1.362,0,0,0,1.443-1.4,2.889,2.889,0,0,0-1.092-2.223,13.314,13.314,0,0,0-5.226-2.457Zm21.1,3.783c0-1.638,3.042-3.354,5.616-3.549-.39,1.794-.78,3.939-1.131,6.084C283.608,73.818,281.853,72.96,281.853,71.673Zm13.494-1.911c3.354,2.574,5.772,5.187,5.772,9.594,0,3.783-3.081,6.669-7.449,6.669-3.588,0-5.772-1.638-5.772-5.226,0-.7.078-1.443.156-2.262a16.93,16.93,0,0,0,4.407.078C294.1,78.381,295,77.64,295,76.509c0-1.365-.858-1.989-2.3-2.067-.9-.039-2.223,0-3.783-.039.546-2.184,1.248-4.329,1.872-6.084a18.935,18.935,0,0,0,2.106,0c1.17-.078,1.911-.429,1.911-1.521,0-1.014-.663-2.106-2.535-2.34a24.506,24.506,0,0,1,1.443-2.886c.468-.819,1.131-1.326,1.131-2.262,0-1.365-2.808-3.783-5.226-3.783a8.665,8.665,0,0,0-2.769.468l-.039.624a11.374,11.374,0,0,1,1.716.741,1.815,1.815,0,0,1,1.053,1.755,35.649,35.649,0,0,1-1.131,5.07,16.8,16.8,0,0,1-4.368-.819,7.576,7.576,0,0,1-3.7-3l-.468.273c.312,2.574,1.092,3.705,2.262,4.641A7.559,7.559,0,0,0,284.7,66.6c-2.652,1.521-4.6,3.705-4.6,5.928,0,2.34,2.067,4.524,5.694,5.538-.117,1.17-.2,2.184-.2,3.042,0,4.914,2.769,8.385,8.892,8.385,7.956,0,11.076-4.992,11.076-9.009,0-4.8-3.315-8.775-9.828-11.271Zm17.94,10.764c3.51,2.808,4.6,5.655,5.655,7.839a2.613,2.613,0,0,0,2.535,1.755,2.376,2.376,0,0,0,2.5-2.574,4.266,4.266,0,0,0-.819-2.613c-1.443-2.184-4.29-3.978-9.516-4.914Zm49.3-22.737V63.6h-4.446V57.789ZM358.137,70.7V64.731h4.446V70.7Zm0,7.176V71.829h4.446v6.045Zm0,1.131h4.446v1.833h.7c2.145,0,3.51-.858,3.51-1.131V58.179a2.536,2.536,0,0,0,1.638-.819L364.494,54.2l-2.106,2.457h-3.783L354.081,54.9V81.54h.7a6.173,6.173,0,0,0,1.6-.195,24.724,24.724,0,0,1-4.251,8.7l.39.468a22.852,22.852,0,0,0,7.683-7.02c.936.078,1.287-.156,1.482-.546l-4.173-1.989c.39-.195.624-.429.624-.546Zm2.769,2.067a12.587,12.587,0,0,1,2.145,5.85c3.471,2.964,7.527-3.9-1.794-6.084Zm21.411-14.2a41.133,41.133,0,0,1-3.081,11.271,26.287,26.287,0,0,1-4.017-11.271Zm2.067-3.51-2.379,2.418H373.62v-7.41h14.235c.546,0,.936-.195,1.053-.624-1.6-1.4-4.173-3.471-4.173-3.471l-2.34,3h-8.112l-4.758-1.755V68.085c0,7.605-.429,15.678-4.719,22.074l.468.312c7.8-6.006,8.346-15.171,8.346-22.386V66.876h.9C374.985,73,375.96,77.6,377.6,81.228a24.73,24.73,0,0,1-8.5,8.541l.312.507a27.552,27.552,0,0,0,9.75-6.162,21.74,21.74,0,0,0,6.006,6.084,5.371,5.371,0,0,1,4.251-3.549l.078-.39a24.664,24.664,0,0,1-7.839-5.148,33.714,33.714,0,0,0,5.226-13.455c.9-.117,1.287-.273,1.56-.663Zm14.937,1.287a50.45,50.45,0,0,0,3.9-8.112c.9.039,1.4-.312,1.521-.819l-6.279-1.872a62.444,62.444,0,0,1-7.917,20.085l.507.312a32.881,32.881,0,0,0,4.6-4.446v20.67h.858c1.794,0,3.666-.975,3.744-1.365V66.174c.741-.117,1.092-.39,1.209-.741Zm10.1-6.825h10.647v9.126H409.422Zm7.761,18.915h8.853c.546,0,1.014-.195,1.092-.624-1.638-1.521-4.329-3.705-4.329-3.705l-2.418,3.2h-3.2V68.085h2.886v1.638h.819c2.34,0,3.783-.78,3.783-.975V58.14a2.019,2.019,0,0,0,1.482-.741l-4.1-3.12-2.184,2.457H409.851L405.015,54.9V70.191h.78c2.3,0,3.627-.741,3.627-1.053V68.085h3.2V83.334a9.323,9.323,0,0,1-4.368-3.978,31.776,31.776,0,0,0,1.014-5.3c.975-.078,1.365-.429,1.482-1.053l-6.006-.741c.156,5.616-.663,12.909-4.056,17.784l.351.39a18.719,18.719,0,0,0,6.825-9.75c2.262,6.747,6.435,8.541,13.611,8.541h4.563c0-2.028.663-3.822,2.028-4.134V84.66c-1.716.039-4.875.039-6.279.039a40.669,40.669,0,0,1-4.6-.234Zm24.492-4.485c-1.014,1.95-3,5.694-3.978,7.1-.39.585-.741.546-.975-.039a5.617,5.617,0,0,1-.429-2.457,20.393,20.393,0,0,1,2.964-9.477c.936-1.794,1.482-2.574,1.482-3.666,0-2.145-2.106-4.29-3.315-5.07a8.843,8.843,0,0,0-3.081-1.287l-.39.429a7.271,7.271,0,0,1,2.028,4.6,23.367,23.367,0,0,1-.9,5.187A41.615,41.615,0,0,0,433.368,77.6c0,4.368.936,7.41,2.379,9.36a3.641,3.641,0,0,0,2.652,1.755c1.287,0,1.989-.819,1.989-2.223,0-1.17-.858-2.5-.858-3.9a19.224,19.224,0,0,1,.507-3c.351-1.443,1.716-4.836,2.5-6.942ZM445.5,75.69a15.473,15.473,0,0,0,.039,3.276c.585,4.524,3.627,7.683,11,7.683,4.719,0,8.658-.507,8.658-2.925,0-1.482-1.755-2.223-3.432-2.223a32.9,32.9,0,0,1-6.357.741c-4.875,0-6.708-1.014-8.229-3.7a12.362,12.362,0,0,1-1.014-2.925Zm1.248-10.452a23.17,23.17,0,0,1,6.318-1.014c2.847,0,2.652.39,2.262.858-.663.741-2.613,2.379-4.329,3.822l.507.585a35.174,35.174,0,0,1,6.435-3.081,29.969,29.969,0,0,1,4.173-.7c.975-.195,1.482-.663,1.482-1.638a2.4,2.4,0,0,0-1.521-2.145,11.373,11.373,0,0,0-5.538-1.014,15.607,15.607,0,0,0-10.062,3.666Zm33.267,7.176c-1.053,1.95-3.12,6.2-4.056,7.6-.351.585-.78.546-1.014-.039a6.717,6.717,0,0,1-.429-2.73A22.889,22.889,0,0,1,477.555,66.8c.9-1.794,1.521-2.574,1.521-3.666,0-2.106-2.184-4.368-3.354-5.109a8.441,8.441,0,0,0-3.081-1.287l-.39.429a7.565,7.565,0,0,1,2.028,4.641,19.866,19.866,0,0,1-.9,5.226A46.7,46.7,0,0,0,471.666,77.6c0,4.446.975,7.761,2.418,9.711a3.514,3.514,0,0,0,2.613,1.755c1.287,0,1.989-.78,1.989-2.184,0-1.209-.741-2.535-.741-3.939a18.031,18.031,0,0,1,.468-2.964c.429-1.4,1.716-5.07,2.457-7.215Zm13.65,8.307c0,2.691-.936,4.056-4.875,4.056-1.833,0-3.549-.624-3.549-2.067,0-1.638,2.145-2.574,4.329-2.574a15.505,15.505,0,0,1,4.1.507Zm-4.173-21.879a13.4,13.4,0,0,1,2.808.663c.663.234.975.351.975,2.028l-.039,3.9a24.229,24.229,0,0,1-4.368.39,9.356,9.356,0,0,1-5.265-1.794l-.468.429c1.911,4.329,3.9,4.641,6.435,4.641a29.865,29.865,0,0,0,3.666-.234V69.8c.039,2.574.2,5.46.312,7.761-.585-.039-1.17-.078-1.794-.078-4.485,0-8.424,1.677-8.424,5.538,0,3.354,3.12,5.187,6.63,5.187,5.226,0,7.566-1.95,7.566-5.655V82.32a19.284,19.284,0,0,1,3,2.3c1.287,1.209,1.872,1.833,2.769,1.833,1.053,0,1.755-.78,1.755-2.067a3.627,3.627,0,0,0-1.326-2.574,14.109,14.109,0,0,0-6.552-3.666c-.2-2.223-.468-4.953-.468-8.268,0-.507,0-1.053.039-1.56a33.2,33.2,0,0,0,4.68-1.209c1.794-.741,2.457-1.014,2.457-2.3,0-1.209-1.6-1.872-3-1.872-.234,0-1.248.624-3.939,1.521.117-1.092.234-1.989.351-2.613.273-1.4.663-1.716.663-2.652,0-1.131-2.457-2.5-5.07-2.5a7.588,7.588,0,0,0-3.51,1.56ZM14.664,157.854h-1.6c.039-.9.078-1.755.078-2.574V149.2h6.084c.546,0,.975-.195,1.053-.624-1.716-1.521-4.368-3.432-4.368-3.432l-2.34,2.925H8.034a31.516,31.516,0,0,0,2.067-4.641,1.429,1.429,0,0,0,1.521-.858L5.46,140.928a44.131,44.131,0,0,1-4.329,14.547l.468.312A22.687,22.687,0,0,0,7.371,149.2H8.658v6.084c0,.858,0,1.716-.039,2.574H1.365l.312,1.092H8.541c-.351,6.084-1.911,12.675-7.449,18.213l.39.39A20.538,20.538,0,0,0,12.09,164.328a22.9,22.9,0,0,1,3.51,7.644c4.134,3.2,7.722-4.8-3.2-8.931a25.885,25.885,0,0,0,.585-4.1h7.059c.546,0,.975-.195,1.092-.624-1.56-1.482-4.173-3.627-4.173-3.627Zm10.959,13.065V147.246H31.59v23.673Zm7.8-27.222L31.2,146.115H25.779l-4.641-1.989v32.019h.741c2.028,0,3.744-1.131,3.744-1.677v-2.457H31.59v3.51h.741c1.638,0,3.783-1.053,3.822-1.365V147.987a2.677,2.677,0,0,0,1.6-.819Zm37.089.156a16.966,16.966,0,0,1,1.872,5.967c3.12,2.925,7.215-3.2-1.482-6.123Zm-19.5,1.014c.546,0,.936-.2,1.053-.624-1.326-1.287-3.549-3.042-3.549-3.042l-1.95,2.535H41.613l.312,1.131Zm-3.159,3.822h-7.6l.312,1.092H52.377c.546,0,.936-.156,1.053-.585-1.365-1.287-3.627-3.081-3.627-3.081Zm-.975,4.953H41.5l.312,1.131H51.09c.546,0,.936-.195,1.014-.624-1.287-1.209-3.393-2.925-3.393-2.925Zm0,5.109H41.5l.312,1.053H51.09c.546,0,.936-.2,1.014-.585-1.287-1.209-3.393-2.886-3.393-2.886Zm-1.521,13.923V164.8h2.5v7.878ZM47.5,163.7H45.513L41.5,162.027V177.51h.585c1.638,0,3.276-.858,3.276-1.248V173.8h2.5v2.028h.663c1.326,0,3.237-.936,3.276-1.248V165.3a2.113,2.113,0,0,0,1.326-.7l-3.783-2.847Zm13.182-3.822v4.524H57.525v-4.524Zm-3.159,10.413v-4.758h3.159v4.758Zm3.159,1.131v1.989h.624c1.287,0,3.042-.9,3.081-1.248V160.389a2.455,2.455,0,0,0,1.365-.7l-3.666-2.769-1.794,1.911H57.681l-3.9-1.638V174.7h.585c1.6,0,3.159-.858,3.159-1.209v-2.067Zm.039-16.614a25.4,25.4,0,0,0,3.666-5.07c.78,0,1.209-.234,1.365-.663.039,1.989.117,3.9.195,5.733Zm11.466,2.613a29.237,29.237,0,0,1-1.521,4.875,61.327,61.327,0,0,1-.624-6.4h6.123c.546,0,.9-.2,1.014-.624-1.443-1.4-3.9-3.393-3.9-3.393l-2.145,2.925H70.005c-.156-3.861-.117-7.995,0-12.168.975-.156,1.326-.624,1.4-1.131l-5.694-.624v4.992c-1.053-1.053-2.34-2.145-2.34-2.145l-1.638,2.418h-.78v-3.471c.9-.156,1.209-.507,1.248-.975l-5.421-.468v4.914h-4.29l.312,1.092H65.442a.859.859,0,0,0,.312-.039V149l-4.914-1.326a44.735,44.735,0,0,1-.936,7.137H52.026l.312,1.092H66.027a56.745,56.745,0,0,0,1.833,12.012,26.76,26.76,0,0,1-8.5,8.619l.351.468a26.522,26.522,0,0,0,9.2-6.084A21.821,21.821,0,0,0,70.9,174.7c1.092,1.716,3.744,3.666,5.655,2.3.7-.507.429-1.872-.546-4.251l.819-6.669-.429-.078a47.605,47.605,0,0,1-1.872,4.524c-.351.741-.507.78-.9.117a15.345,15.345,0,0,1-1.716-3.393,32.04,32.04,0,0,0,3.861-7.527c1.014.039,1.365-.195,1.521-.624ZM53.9,147.909a13.754,13.754,0,0,1,1.131,5.616c2.73,2.769,6.63-2.535-.663-5.811Zm47.931,11.271a4.329,4.329,0,1,0-4.329,4.329A4.344,4.344,0,0,0,101.829,159.18ZM124.1,140.889c-.624,2.613-1.4,5.577-2.067,7.722a13.293,13.293,0,0,0-3.627-1.131l-.351.234a13.584,13.584,0,0,1,3.081,5.889c2.691,2.028,5.3-1.677,1.989-4.29a38.59,38.59,0,0,0,5.265-5.655c.858.039,1.365-.273,1.521-.741Zm23.361,3.783a24.436,24.436,0,0,1-3.939,6.63,18.075,18.075,0,0,1-5.733-6.63Zm-17.2,13.845a10.909,10.909,0,0,1,.39,2.652c1.989,1.794,4.173.234,3.939-2.028a32.916,32.916,0,0,0,8.853-3.939,27.1,27.1,0,0,0,8.307,4.992,4.468,4.468,0,0,1,3.432-3.51l.039-.429a35.842,35.842,0,0,1-8.931-3.237,23.826,23.826,0,0,0,5.889-7.683c.9-.117,1.326-.195,1.6-.585l-3.939-3.51-2.418,2.3H133.263l.351,1.131h3.354a23.96,23.96,0,0,0,4.641,8.619,27.725,27.725,0,0,1-7.215,5.031c-.546-1.482-2.184-3.159-5.577-4.329l-.429.2a17.02,17.02,0,0,1,1.56,3.276c-1.95.156-3.822.273-5.538.351a92.457,92.457,0,0,0,8.541-9.477c.9.078,1.4-.195,1.56-.663l-5.577-2.145a108.692,108.692,0,0,1-6.045,12.363c-2.028.117-3.705.195-4.758.234l1.443,4.329a1.582,1.582,0,0,0,1.092-.858c1.365-.429,2.652-.819,3.822-1.17v3.978l-4.251-1.014a42.758,42.758,0,0,1-2.184,10.647l.585.273A22.512,22.512,0,0,0,123.9,165.5a2.36,2.36,0,0,0,.585-.078v12.051h.741c2.106,0,3.432-.9,3.432-1.17V159.063Zm-1.287,4.914a18.482,18.482,0,0,1,1.794,7.371c3.315,3.276,7.527-3.627-1.365-7.527Zm19.851,11.778h-3.159V166.2h7.449c.546,0,.975-.195,1.092-.624-1.6-1.4-4.173-3.471-4.173-3.471l-2.3,3h-2.067V159.96c.9-.156,1.17-.507,1.248-.936l-5.811-.507v6.591h-6.825l.312,1.092H141.1v9.009h-9.594l.273,1.092H154.44c.546,0,.975-.195,1.092-.624-1.638-1.443-4.329-3.588-4.329-3.588Zm10.1-10.413a10.278,10.278,0,0,1-1.6,5.967c-2.691,4.056,5.85,5.421,2.184-5.967Zm2.106-.273a19.139,19.139,0,0,1,.429,6.9c1.911,2.34,4.836-2.184.156-7.02Zm2.34-.624a15.3,15.3,0,0,1,1.833,5.889c2.067,1.989,4.485-2.379-1.326-6.123Zm1.794-3.588h-2.418v-4.329h2.418Zm0-15.21v4.29h-2.418V145.1Zm0,9.75h-2.418v-4.368h2.418Zm15.912,2.925v4.017c0,.663,0,1.326-.039,1.989h-2.457v-6.006Zm7.02,0v6.006h-3.081a17.632,17.632,0,0,0,.078-2.028v-3.978Zm6.279-9.009c-3.432-.936-7.761-2.691-9.594-5.655.975-.117,1.326-.312,1.443-.741l-5.928-1.248c-.741,3.822-4.134,9.4-7.683,12.6-.78-.663-1.4-1.17-1.4-1.17l-1.716,2.3h-.819v-4.368h4.758c.546,0,.936-.2,1.014-.624-1.17-1.17-3.159-2.808-3.159-2.808l-1.716,2.34h-.9V145.1h5.382c.546,0,.936-.195,1.053-.624-1.4-1.326-3.783-3.081-3.783-3.081l-1.989,2.574h-6.084l-4.1-1.6V163.7h.624c1.833,0,2.964-.858,2.964-1.131V161.4h7.527c-.078,1.287-.156,2.457-.273,3.51a6.133,6.133,0,0,0-3.939-2.106l-.429.312a8.009,8.009,0,0,1,2.652,4.134,1.364,1.364,0,0,0,1.4.195c-.468,3-1.092,4.719-1.755,5.265a1.813,1.813,0,0,1-1.287.351c-.7,0-2.3-.078-3.315-.195l-.039.624a4.231,4.231,0,0,1,2.34,1.092,3.549,3.549,0,0,1,.507,2.3,6.214,6.214,0,0,0,4.056-1.248c1.833-1.482,2.886-5.265,3.432-13.728a2.812,2.812,0,0,0,1.17-.312v5.382h.663c1.911,0,3.12-.663,3.12-.936v-1.17h2.34c-.546,4.8-2.73,8.775-9.789,12.051l.312.468c9.2-2.5,12.285-6.552,13.26-11.076,1.014,5.3,2.769,8.775,6.357,11.154.429-2.34,1.6-3.783,3.237-4.29l.039-.429a13.715,13.715,0,0,1-9.2-7.878H188.1v1.638h.7a4.821,4.821,0,0,0,3.159-.819V158.01c.819-.156,1.17-.351,1.4-.7l-3.588-2.73-1.794,2.067h-2.886v-3.432h3.627c.546,0,.936-.195,1.014-.624-1.287-1.17-3.354-2.886-3.354-2.886l-1.872,2.418h-7.761l.312,1.092h4.017v3.432h-2.106l-4.173-1.638v5.928l-3.042-2.5-1.833,1.872h-1.248v-4.329h4.719c.546,0,.936-.195,1.014-.624a15.128,15.128,0,0,0-1.4-1.248c4.758-2.262,9.282-6.24,11.31-10.608a16.751,16.751,0,0,0,7.176,9.711,4.638,4.638,0,0,1,2.886-3.978Zm28.275-2.613a17.109,17.109,0,0,1,3.51,3.978c.624.936,1.131,1.482,1.794,1.482a1.384,1.384,0,0,0,1.4-1.443,2.689,2.689,0,0,0-1.131-2.145,12.35,12.35,0,0,0-5.187-2.418Zm-9.75,3.354c.546-1.287,1.677-1.872,1.677-2.964,0-1.365-3.627-2.925-5.421-2.925a7.147,7.147,0,0,0-3.549.975v.585a9.28,9.28,0,0,1,2.886.936,1.184,1.184,0,0,1,.624,1.17,26.563,26.563,0,0,1-1.638,5.85,58.625,58.625,0,0,1-7.1,1.248c-1.014,0-1.482-.858-2.184-2.106l-.546.117a4.643,4.643,0,0,0-.429,2.691c.273,1.6,2.067,3.627,3.237,3.627a7.3,7.3,0,0,0,3.081-1.014c.7-.312,1.638-.7,2.613-1.092-.624,1.521-1.287,3.081-2.028,4.6a52.324,52.324,0,0,1-5.928,9.555,3.2,3.2,0,0,0-.9,2.535,2.2,2.2,0,0,0,1.911,2.418c1.053,0,1.677-.39,2.535-1.872,1.4-2.379,3.822-7.41,5.616-11.31.975-2.106,2.184-4.914,3.237-7.488a11.309,11.309,0,0,1,2.808-.507c1.833,0,2.5,1.053,2.5,3.159,0,3.9-1.092,9.438-2.964,11.7a2.842,2.842,0,0,1-2.613,1.365c-1.053,0-2.574-.663-4.524-1.677l-.351.507c1.872,2.028,2.145,2.379,2.34,3.159.468,1.95,1.053,2.535,2.574,2.535a6.924,6.924,0,0,0,5.07-2.262c2.886-3.159,4.056-8.775,4.056-13.767,0-5.187-2.028-7.059-5.148-7.059a23.706,23.706,0,0,0-2.652.234Zm8.19,3.2a7.287,7.287,0,0,1,4.524,3.315,9.13,9.13,0,0,1,1.365,4.641,1.659,1.659,0,0,1-1.209,1.872,37.039,37.039,0,0,1-3.822,1.092l.117.7a18.02,18.02,0,0,1,4.251.585c1.287.507,1.365,1.755,2.73,1.716,1.716,0,2.574-1.677,2.574-4.017a10.266,10.266,0,0,0-3.159-7.8A10.959,10.959,0,0,0,221.325,152Zm5.187-9.243a17.139,17.139,0,0,1,3.549,3.588c.78.975,1.209,1.6,1.95,1.6a1.23,1.23,0,0,0,1.287-1.365,2.835,2.835,0,0,0-1.365-2.418,12.751,12.751,0,0,0-5.07-1.911Zm19.5-1.794c4.407,2.5,7.02,6.006,7.839,8.151,4.875,2.847,8.97-8-7.683-8.58ZM240.4,153.954c-.078,4.056-2.106,7.683-3.978,9.087-1.131.936-1.716,2.3-.936,3.588.936,1.443,3.159,1.443,4.485-.039,1.95-2.106,3.276-6.4.936-12.636Zm23.205,11.31h-.39a33.7,33.7,0,0,1-2.028,5.616,1.59,1.59,0,0,1-1.287.624c-.7.039-1.989.078-3.627.078h-4.407c-1.6,0-1.989-.273-1.989-1.209v-3.861a65.1,65.1,0,0,0,17.121-19.773c1.014.156,1.4-.078,1.638-.507l-5.811-2.808a69.74,69.74,0,0,1-12.948,19.149V150.366c.9-.117,1.248-.546,1.326-1.014l-5.967-.585v18.252a59.066,59.066,0,0,1-9.906,7.02l.351.468a59.113,59.113,0,0,0,9.555-4.8v1.95c0,3.627,1.443,4.446,5.889,4.446h4.719c7.761,0,9.711-.9,9.711-3.042,0-.858-.39-1.4-1.794-1.95Zm-.975-11.232c2.223,3.471,4.407,8.229,4.6,12.441,4.6,4.134,8.7-6.4-4.173-12.675Zm31.512-9.555v4.1H290.55v-4.1Zm8.034,5.187v6.357h-3.627v-6.357Zm-11.622,0h3.588v6.357H290.55Zm-7.8,0h3.471v6.357H282.75Zm3.471-5.187v4.1H283.1l-4.836-1.872v12.87h.624c1.833,0,3.861-.936,3.861-1.326v-1.092h19.422v1.872h.78c1.4,0,3.7-.78,3.744-1.053V150.4a3.368,3.368,0,0,0,1.56-.78l-4.368-3.315-2.106,2.262h-3.237v-4.1H309.27c.585,0,1.014-.2,1.131-.624-1.794-1.4-4.485-3.276-4.485-3.276l-2.457,2.769H274.677l.312,1.131Zm10.92,18.72a15.377,15.377,0,0,1-3.354,5.811c-2.145-.312-4.641-.585-7.449-.741,1.209-1.638,2.5-3.432,3.627-5.07Zm6.669-1.092h-13.1c.741-1.053,1.365-1.989,1.794-2.691,1.131,0,1.638-.312,1.755-.858l-5.967-1.326a37.878,37.878,0,0,1-2.964,4.875H274.248l.312,1.092h10.023a89.612,89.612,0,0,1-5.538,7.293,7.165,7.165,0,0,0,4.719,1.053c.546-.663,1.209-1.482,1.911-2.379,2.145.546,4.134,1.131,5.967,1.794-3.783,2.847-9.36,4.6-17,5.928l.117.546c10.062-.7,16.5-2.145,20.787-4.992a45.255,45.255,0,0,1,8.112,4.329c4.134,2.535,9.36-3.588-5.07-6.9a20.621,20.621,0,0,0,3.9-6.669h7.254c.585,0,.975-.2,1.092-.624-1.716-1.482-4.524-3.549-4.524-3.549Zm15.327,15.132A5.519,5.519,0,1,0,313.6,171.7,5.526,5.526,0,0,0,319.137,177.237Zm0-9.633a4.115,4.115,0,0,1,0,8.229,4.115,4.115,0,1,1,0-8.229Zm44.694-13.494h6.2c.546,0,.936-.195,1.053-.624-1.443-1.443-3.9-3.51-3.9-3.51l-2.145,3.042h-1.209v-6.63c1.638-.273,3.159-.585,4.407-.9,1.248.429,2.184.39,2.613,0l-4.992-4.563a62.113,62.113,0,0,1-13.455,6.2l.117.468c2.223-.078,4.563-.312,6.864-.585v6.006h-7.1l.312,1.092h6.24c-1.287,5.577-3.627,11.544-7.02,15.678l.468.468a32.1,32.1,0,0,0,7.1-7.254v14.469h.819c2.184,0,3.627-1.014,3.627-1.287V157.815a17.948,17.948,0,0,1,2.535,6.162c3.51,2.886,7.176-4.017-2.535-7.254Zm15.132,5.616a77.624,77.624,0,0,1,4.017,9.633c-3.978.39-7.839.7-11.037.936,4.017-8.346,7.176-19.227,8.658-25.584a1.571,1.571,0,0,0,1.6-1.209l-6.786-1.521c-.585,6.123-2.613,18.837-4.641,28.392-2.145.195-3.939.312-5.109.351l2.145,5.655a1.643,1.643,0,0,0,1.17-.936c6.4-2.067,11.037-3.7,14.352-5.031a30.124,30.124,0,0,1,1.209,5.538c4.953,4.446,8.385-6.825-5.031-16.419Zm31.083-2.769c2.184-.429,3.237-4.017-2.067-5.928h9.048c-.234,1.794-.624,4.173-1.053,5.928ZM400.92,149.9l.312,1.131h5.187a9.649,9.649,0,0,1,1.248,5.109,2.709,2.709,0,0,0,1.482.819h-7.02l.312,1.092h9.087v3.627h-8.034l.312,1.131h7.722v3.7H401.466l.312,1.131h9.75V171.7h.78c2.3,0,3.666-.858,3.666-1.092v-2.964h10.257c.546,0,.936-.2,1.053-.624-1.56-1.365-4.1-3.237-4.1-3.237l-2.262,2.73h-4.953v-3.7h8.268c.546,0,.936-.2,1.053-.624-1.482-1.326-3.939-3.081-3.939-3.081l-2.145,2.574h-3.237v-3.627h9.282c.546,0,.975-.195,1.053-.624-1.56-1.326-4.017-3.12-4.017-3.12l-2.223,2.652h-3.12a45.564,45.564,0,0,0,4.6-4.251c.858,0,1.287-.351,1.443-.819l-4.056-.858H426.7c.546,0,.936-.2,1.053-.624-1.6-1.365-4.173-3.276-4.173-3.276l-2.3,2.769h-5.3V146.31h8.112c.546,0,.975-.195,1.092-.624-1.56-1.365-4.134-3.276-4.134-3.276l-2.262,2.769h-2.808v-3c.819-.156,1.053-.468,1.131-.9l-5.577-.468v4.368h-8.19l.312,1.131h7.878V149.9Zm-8.385-7.6a15.8,15.8,0,0,1,3.7,7.332c4.29,3.12,8.151-5.46-3.393-7.566ZM400.1,159.57a3.216,3.216,0,0,0,2.028-.78l-4.68-3.822-2.184,2.964h-4.1l.234,1.092h4.446v11.583c-1.755.78-3.432,1.482-4.641,1.911l2.457,4.953a.861.861,0,0,0,.585-.975,76.965,76.965,0,0,0,5.421-6.552c2.613,5.538,5.616,6.669,13.065,6.669h12.246a3.9,3.9,0,0,1,2.925-3.783v-.468c-4.836.156-10.8.156-15.21.156-7.137,0-9.867-.39-12.6-3.2Zm39.273-15.834a7.329,7.329,0,0,1,1.716.9,2.037,2.037,0,0,1,.975,1.794,18.466,18.466,0,0,1-.468,3.237,19.967,19.967,0,0,1-3.666.429c-2.5,0-3.744-.936-5.382-2.184l-.585.312c1.092,4.329,2.574,5.3,5.811,5.3a22.628,22.628,0,0,0,2.73-.156,38.361,38.361,0,0,1-6.942,12.09,3.672,3.672,0,0,0-.936,2.535c0,1.326.741,2.613,2.067,2.613,1.092,0,1.872-1.014,2.847-2.535,2.925-4.68,5.265-11.31,6.552-15.288a21.515,21.515,0,0,0,6.435-2.184,2.124,2.124,0,0,0,1.209-1.794,1.947,1.947,0,0,0-2.028-1.872c-.507,0-1.4.741-4.251,1.677,1.131-3.354,1.521-4.563.741-5.187a6.5,6.5,0,0,0-3.666-1.014,7.851,7.851,0,0,0-3.159.78Zm12.714,25.506c0,2.223-1.56,3.471-4.446,3.471-2.73,0-3.783-.936-3.783-2.223,0-1.248,1.482-2.691,4.641-2.691a14.884,14.884,0,0,1,3.588.39Zm1.755-18.564A7.135,7.135,0,0,1,457.782,152c.39.312.546.663.351,1.014a12.987,12.987,0,0,0-4.68,3.159c-1.17,1.365-1.6,3.081-1.6,5.538,0,1.053.039,2.262.117,3.51-.39-.039-.78-.039-1.17-.039-5.694,0-8.814,2.886-8.814,6.045,0,2.886,2.574,5.07,6.864,5.07,4.485,0,7.137-1.833,7.137-5.3,0-.468,0-.936-.039-1.4a16.22,16.22,0,0,1,3.588,2.535c1.521,1.326,2.067,2.418,3.237,2.418.9,0,1.794-.663,1.794-2.184,0-1.716-1.716-3.354-4.173-4.641a18.886,18.886,0,0,0-4.914-1.989c-.351-2.106-.741-4.017-.9-5.148-.234-1.521-.312-2.847.273-3.705a3.814,3.814,0,0,1,2.925-1.287c2.145-.039,3.2,1.131,4.719,1.131,1.248,0,1.677-.9,1.677-2.145,0-2.184-1.638-3.939-4.29-4.758a10.852,10.852,0,0,0-6.084.156Zm31.551-3.471c.351.468.312.819-.156,1.053a30.305,30.305,0,0,1-6.669,1.911,2.281,2.281,0,0,0-1.794,2.5,22.7,22.7,0,0,1-.078,2.769c-.195,1.833-.819,5.694-1.092,7.527a30.326,30.326,0,0,0-.507,3.12,3.453,3.453,0,0,0,1.014,2.457,3.059,3.059,0,0,0,2.223,1.287c1.287,0,1.794-1.56,2.769-2.925,2.223-2.808,6.9-7.566,11.271-7.566a5.063,5.063,0,0,1,5.187,5.3c0,3.2-1.911,6.318-8.619,8.736a39.7,39.7,0,0,1-7.878,1.794l.078.78c9.789.9,21.06-2.184,21.06-9.789,0-4.173-3.12-8.463-9.4-8.463-5.3,0-10.14,3.2-12.909,4.992-.312.195-.468.117-.507-.312a33.774,33.774,0,0,1,.585-4.29,15.411,15.411,0,0,0,.273-3.2c-.117-1.092-.7-2.067-.7-2.691,0-.312.156-.624.858-.7a29.2,29.2,0,0,1,5.382-.351c1.755.156,2.691.585,3.978.585a1.591,1.591,0,0,0,1.833-1.755c0-2.262-1.248-3.939-3.471-5.226-1.6-.936-4.017-1.56-7.878-1.287l-.156.585C482.508,144.867,484.38,145.608,485.394,147.207Zm22.893,20.319c3.51,2.808,4.6,5.655,5.655,7.839a2.613,2.613,0,0,0,2.535,1.755,2.376,2.376,0,0,0,2.5-2.574,4.266,4.266,0,0,0-.819-2.613c-1.443-2.184-4.29-3.978-9.516-4.914ZM31.434,252.576,29.757,259.4H20.865c-.117-3.939-.117-7.878-.117-11.505v-2.613c0-3.666,0-7.566.117-11.427l3.9-.39v-1.4H11.544v1.4l3.7.351c.078,3.939.078,7.878.078,11.778v2.613c0,3.354,0,7.215-.078,11.076l-3.666.351L11.544,261H33.462l.078-8.424Zm16.38-18.993c4.563,0,6.747,2.457,6.747,7.059,0,4.29-2.106,7.254-7.02,7.254H45.63v-2.3c0-4.056,0-8.073.117-12.012Zm-.351,15.834c9.009,0,12.285-3.939,12.285-8.775,0-5.3-3.471-8.58-11.7-8.58H36.426v1.4l3.7.351c.078,3.939.078,7.878.078,11.778v1.911c0,3.978,0,7.917-.078,11.778l-3.7.351V261H49.92v-1.365l-4.173-.39c-.117-3.432-.117-6.786-.117-9.828Zm31.278-8.5h-3.51v-5.031h7.878c.546,0,.975-.2,1.053-.624-1.482-1.4-4.017-3.432-4.017-3.432l-2.184,2.964h-2.73V229.8c1.014-.156,1.287-.546,1.4-1.131l-5.655-.546v6.669H67.548a29.892,29.892,0,0,0,1.794-3.315c.858-.039,1.326-.351,1.482-.858l-5.577-1.56a52,52,0,0,1-2.808,10.959l.546.312a22.779,22.779,0,0,0,3.861-4.446H70.98v5.031H61.854l.312,1.131H70.98v4.524H67.86l-4.29-1.716v16.5h.624c1.638,0,3.432-.9,3.432-1.287v-12.4H70.98v16.731H71.8c1.6,0,3.432-1.014,3.432-1.482V247.662h3.393v8.424c0,.429-.117.624-.585.624-.507,0-1.95-.117-1.95-.117v.546a2.182,2.182,0,0,1,1.716,1.209,6.815,6.815,0,0,1,.39,2.808c4.1-.351,4.6-1.911,4.6-4.641V248.4a2.866,2.866,0,0,0,1.6-.819l-4.29-3.159-1.872,2.145h-3v-4.524h8.775c.546,0,.975-.2,1.092-.624-1.56-1.4-4.134-3.432-4.134-3.432Zm11-8.541c.936-.156,1.248-.507,1.326-1.053l-5.265-.507v25h.741c1.482,0,3.2-.819,3.2-1.209Zm3.159-3.9v30.5c0,.507-.195.7-.819.7-.819,0-4.68-.234-4.68-.234v.546c1.872.273,2.691.741,3.276,1.4a5.316,5.316,0,0,1,.9,3.042c4.836-.429,5.46-2.145,5.46-5.148V230.151c.936-.156,1.326-.507,1.443-1.092Zm16.887,10.842a56.476,56.476,0,0,0,4.524-8.658c.858.039,1.365-.273,1.56-.78l-6.2-2.067A65.812,65.812,0,0,1,100.62,248.4l.468.351a31.434,31.434,0,0,0,5.031-4.68v20.4h.858c1.794,0,3.666-.975,3.744-1.326V240.876c.741-.156,1.092-.429,1.209-.78Zm27.066-2.028c.546,0,.975-.195,1.092-.624-1.755-1.521-4.641-3.783-4.641-3.783l-2.574,3.354h-9.165a50.8,50.8,0,0,0,2.886-5.421c.9.078,1.4-.234,1.6-.741l-6.279-2.223a62.9,62.9,0,0,1-8.034,18.408l.429.312a35.074,35.074,0,0,0,8.736-9.282h.936v27.144h.858c2.418,0,3.861-.936,3.861-1.209V254.1h9.516c.585,0,1.014-.2,1.131-.624-1.794-1.56-4.68-3.861-4.68-3.861l-2.613,3.393h-3.354v-7.371h8.775c.546,0,.975-.2,1.092-.624-1.677-1.482-4.368-3.627-4.368-3.627l-2.379,3.12h-3.12v-7.215Zm29.406-4.173a19.607,19.607,0,0,1,3.471,4.056c.624.936,1.131,1.482,1.755,1.521a1.394,1.394,0,0,0,1.482-1.4,2.875,2.875,0,0,0-1.131-2.223,12.864,12.864,0,0,0-5.187-2.457Zm-2.886,15.522a22.868,22.868,0,0,1,4.758-1.248,14.257,14.257,0,0,1,2.574-.312c1.677-.039,2.418-.624,2.418-1.716a2.942,2.942,0,0,0-1.638-2.418,10.549,10.549,0,0,0-5.07-1.092,15.768,15.768,0,0,0-8.346,2.535l.234.585a28.341,28.341,0,0,1,4.6-.507,12.291,12.291,0,0,1,3.354.429c.312.117.39.312.2.546a34.4,34.4,0,0,1-3.432,2.691ZM155.22,236.82c.9-2.964,1.716-3.705,1.716-4.758-.039-1.053-2.535-2.3-4.914-2.3a7.589,7.589,0,0,0-3.2.663l-.039.585a7.449,7.449,0,0,1,2.3,1.131c.663.507.78.819.741,1.794a42.027,42.027,0,0,1-.741,4.524,23.55,23.55,0,0,1-4.8.468c-1.638,0-2.769-.468-4.8-1.911l-.468.351c1.248,4.251,3.042,4.992,6.006,4.992a24.141,24.141,0,0,0,3.159-.273c-.312,1.131-.624,2.223-.936,3.12a54.686,54.686,0,0,1-5.031,10.842c-1.092,1.833-2.067,2.379-2.067,3.978s.936,2.886,2.106,2.886c1.443,0,1.989-.819,2.691-2.145,1.521-2.808,3.978-9.789,5.421-14.235.585-1.677,1.092-3.51,1.56-5.148a58.1,58.1,0,0,0,6.084-1.794c2.847-1.014,3.705-1.638,3.705-2.73,0-1.521-1.911-2.067-2.886-2.067a6.579,6.579,0,0,0-1.716.9,23.011,23.011,0,0,1-4.056,1.716Zm.741,15.21a12.71,12.71,0,0,0-.078,3.861c.429,4.368,3.861,6.786,9.828,6.786a22.518,22.518,0,0,0,5.577-.585c1.56-.351,2.535-1.053,2.535-2.067,0-1.677-1.833-2.379-3.354-2.379a28.405,28.405,0,0,1-5.694.741c-3.159,0-5.421-.663-6.942-2.886a8.58,8.58,0,0,1-1.209-3.51Zm13.845-21.372a17.139,17.139,0,0,1,3.549,3.588c.741.936,1.17,1.56,1.911,1.56a1.24,1.24,0,0,0,1.326-1.365,2.979,2.979,0,0,0-1.365-2.418,13.33,13.33,0,0,0-5.109-1.911ZM184.2,246.843a6.431,6.431,0,0,0,.117,2.418,5.078,5.078,0,0,0,3.9,2.925c1.014,0,1.716-.7,3.393-2.067,1.6-1.209,5.577-5.382,9.594-5.382,3.2,0,4.953,2.535,4.953,5.3,0,5.772-6.786,8.853-14.469,9.711l.078.663c4.29.39,9.867.078,13.221-1.794,2.964-1.6,5.343-3.939,5.343-7.995,0-4.017-3.588-7.8-9.009-7.8-4.992,0-9.438,3-13.221,4.524a4.082,4.082,0,0,1-1.56.429,2.863,2.863,0,0,1-1.95-1.092ZM219.57,235.65a8.278,8.278,0,0,0-.312,2.418c.117,1.911,2.808,4.446,4.641,4.446,1.092,0,1.911-.858,2.73-1.326,2.34-1.4,7.722-3.315,12.324-4.368.39-.117.429.117.117.351a15.919,15.919,0,0,0-7.02,13.455c0,4.953,1.755,7.644,4.446,9.321,2.457,1.6,5.3,1.95,8.307,1.95,1.794,0,3.744-.429,3.744-2.223a3.134,3.134,0,0,0-3-2.73c-1.131,0-4.29.2-6.513-.975-1.365-.741-3.354-2.223-3.354-6.747,0-6.63,3.276-9.828,4.68-10.8a10.372,10.372,0,0,1,6.24-1.638c1.092,0,2.379.156,3.432.156a1.862,1.862,0,0,0,2.067-1.755c0-1.053-.78-1.755-1.833-2.223a7.85,7.85,0,0,0-3.315-.624,75.248,75.248,0,0,0-9.438,1.989c-6.864,1.638-12.558,3.12-14.9,3.12-1.014,0-1.872-.975-2.574-1.95Zm61.113,13.026a43.651,43.651,0,0,1,5.265,7.917c-5.148.468-10.023.858-14.079,1.17a80.539,80.539,0,0,0,7.878-17.16,1.444,1.444,0,0,0,1.443-1.053l-6.786-1.131a144.1,144.1,0,0,1-3.861,19.461c-2.808.2-5.148.351-6.669.39l2.262,5.382a1.931,1.931,0,0,0,1.17-.936c8.5-2.028,14.664-3.666,19.188-5.07a24.138,24.138,0,0,1,1.872,5.5c5.226,4.1,8.853-7.644-7.254-14.7Zm5.928-14h-7.878V229.41c1.053-.156,1.365-.546,1.443-1.092l-6.045-.468v6.825h-7.917l-5.3-1.872v9.321c0,6.942-.312,15.327-3.978,22.074l.39.273c7.644-6.162,8.19-15.834,8.19-22.347v-6.318h26.832c.585,0,.975-.2,1.092-.624-1.638-1.56-4.368-3.822-4.368-3.822Zm19.968,25.389v-9.4h15.327v9.4Zm14.937-10.53H306.891l-4.8-1.911v16.809h.624c1.872,0,3.861-.975,3.861-1.4v-1.872h15.327v2.964h.78c1.521,0,3.783-.819,3.822-1.092V251.484a3.31,3.31,0,0,0,1.716-.858l-4.563-3.432Zm3.666-6.006h-8.463v-7.371H328.5a.982.982,0,0,0,1.053-.624c-1.755-1.638-4.8-3.939-4.8-3.939l-2.691,3.432h-5.343v-5.577c1.053-.156,1.365-.546,1.443-1.092l-6.2-.546v7.215h-6.123a27.93,27.93,0,0,0,2.106-4.368c.858,0,1.326-.351,1.482-.819l-6.2-1.677c-.663,4.875-2.3,10.491-4.407,13.962l.468.351a22.668,22.668,0,0,0,5.85-6.318h6.825v7.371H296.244l.312,1.131h34.866c.585,0,.975-.195,1.092-.624-1.755-1.638-4.719-3.978-4.719-3.978Zm38.415-2.3v3.237h-3.861v-3.237Zm-3.861,7.8V245.6H363.6v3.432Zm-8.073,0V245.6h3.744v3.432Zm3.744-7.8v3.237h-3.744v-3.237Zm10.452-9.633c-.117.663-.2,1.365-.312,2.067l-2.067,2.5h-3.744v-1.911c1.053-.156,1.326-.546,1.443-1.092l-5.772-.585v3.588H345.93l.312,1.053h9.165v2.925h-3.549l-4.485-1.833v13.923H348c1.755,0,3.666-.936,3.666-1.365v-.741h3.744v3.861H344.838l.312,1.131h10.257v3.978h.78c1.677,0,3.549-.9,3.549-1.287v-2.691h10.8c.546,0,.975-.195,1.053-.624-1.6-1.4-4.134-3.354-4.134-3.354l-2.3,2.847h-5.421v-3.861H363.6v1.443h.741c1.443,0,3.588-.9,3.588-1.209v-8.385a2.641,2.641,0,0,0,1.6-.819l-4.29-3.276-2.028,2.262h-3.471V237.21h8.892c.546,0,.936-.195,1.053-.585-.78-.624-1.716-1.4-2.535-1.989a28.474,28.474,0,0,0,3.12-2.184c.78-.039,1.209-.156,1.482-.468l-3.939-3.822-2.262,2.34h-15.6a9.881,9.881,0,0,0-.7-2.34H348.7a3.454,3.454,0,0,1-2.223,3.12,2.469,2.469,0,0,0-1.872,2.886,2.4,2.4,0,0,0,3.315,1.521c1.248-.507,2.184-1.989,2.145-4.1ZM335.79,229.41a16.722,16.722,0,0,1,3.549,7.995c4.29,3.471,8.424-5.3-3.2-8.268Zm8.151,17.16a3.216,3.216,0,0,0,2.028-.78l-4.68-3.822-2.184,2.964h-4.1l.234,1.092h4.446v11.583c-1.755.78-3.432,1.482-4.641,1.911l2.457,4.953a.861.861,0,0,0,.585-.975,76.967,76.967,0,0,0,5.421-6.552c2.652,5.538,5.694,6.669,13.221,6.669h12.324c.234-2.028,1.209-3.354,2.964-3.783v-.468c-4.875.156-10.92.156-15.366.156-7.215,0-9.945-.39-12.714-3.2Zm50.661,2.886v-8.307h7.839v8.307Zm-11.817,0a52.479,52.479,0,0,0,.312-6.474v-1.833h6.981v8.307Zm7.293-17.433v8H383.1v-8Zm12.363,0v8H394.6v-8Zm1.755-3.666-2.184,2.574H383.8l-5.226-1.872v13.962c0,7.371-.39,14.9-4.563,20.826l.429.312c5.382-3.666,7.449-8.619,8.19-13.611h7.449v13.416h.819c2.34,0,3.7-.975,3.7-1.248V250.548h7.839v7.722c0,.546-.2.819-.858.819-.78,0-4.6-.273-4.6-.273v.546a5.327,5.327,0,0,1,3.315,1.521,5.879,5.879,0,0,1,.858,3.159c5.187-.468,5.85-2.184,5.85-5.3V232.92a3.045,3.045,0,0,0,1.755-.936Zm35.061,4.758a19.607,19.607,0,0,1,3.471,4.056c.624.936,1.131,1.482,1.755,1.521a1.394,1.394,0,0,0,1.482-1.4,2.875,2.875,0,0,0-1.131-2.223,12.863,12.863,0,0,0-5.187-2.457Zm-2.886,15.522a22.868,22.868,0,0,1,4.758-1.248,14.257,14.257,0,0,1,2.574-.312c1.677-.039,2.418-.624,2.418-1.716a2.942,2.942,0,0,0-1.638-2.418,10.549,10.549,0,0,0-5.07-1.092,15.768,15.768,0,0,0-8.346,2.535l.234.585a28.341,28.341,0,0,1,4.6-.507,12.292,12.292,0,0,1,3.354.429c.312.117.39.312.2.546a34.4,34.4,0,0,1-3.432,2.691ZM428.22,236.82c.9-2.964,1.716-3.705,1.716-4.758-.039-1.053-2.535-2.3-4.914-2.3a7.588,7.588,0,0,0-3.2.663l-.039.585a7.449,7.449,0,0,1,2.3,1.131c.663.507.78.819.741,1.794a42.031,42.031,0,0,1-.741,4.524,23.55,23.55,0,0,1-4.8.468c-1.638,0-2.769-.468-4.8-1.911l-.468.351c1.248,4.251,3.042,4.992,6.006,4.992a24.141,24.141,0,0,0,3.159-.273c-.312,1.131-.624,2.223-.936,3.12a54.685,54.685,0,0,1-5.031,10.842c-1.092,1.833-2.067,2.379-2.067,3.978s.936,2.886,2.106,2.886c1.443,0,1.989-.819,2.691-2.145,1.521-2.808,3.978-9.789,5.421-14.235.585-1.677,1.092-3.51,1.56-5.148a58.1,58.1,0,0,0,6.084-1.794c2.847-1.014,3.7-1.638,3.7-2.73,0-1.521-1.911-2.067-2.886-2.067a6.578,6.578,0,0,0-1.716.9,23.012,23.012,0,0,1-4.056,1.716Zm.741,15.21a12.71,12.71,0,0,0-.078,3.861c.429,4.368,3.861,6.786,9.828,6.786a22.518,22.518,0,0,0,5.577-.585c1.56-.351,2.535-1.053,2.535-2.067,0-1.677-1.833-2.379-3.354-2.379a28.405,28.405,0,0,1-5.694.741c-3.159,0-5.421-.663-6.942-2.886a8.58,8.58,0,0,1-1.209-3.51Zm13.845-21.372a17.139,17.139,0,0,1,3.549,3.588c.741.936,1.17,1.56,1.911,1.56a1.24,1.24,0,0,0,1.326-1.365,2.979,2.979,0,0,0-1.365-2.418,13.33,13.33,0,0,0-5.109-1.911ZM457.2,246.843a6.431,6.431,0,0,0,.117,2.418,5.078,5.078,0,0,0,3.9,2.925c1.014,0,1.716-.7,3.393-2.067,1.6-1.209,5.577-5.382,9.594-5.382,3.2,0,4.953,2.535,4.953,5.3,0,5.772-6.786,8.853-14.469,9.711l.078.663c4.29.39,9.867.078,13.221-1.794,2.964-1.6,5.343-3.939,5.343-7.995,0-4.017-3.588-7.8-9.009-7.8-4.992,0-9.438,3-13.221,4.524a4.082,4.082,0,0,1-1.56.429,2.863,2.863,0,0,1-1.95-1.092ZM492.57,235.65a8.277,8.277,0,0,0-.312,2.418c.117,1.911,2.808,4.446,4.641,4.446,1.092,0,1.911-.858,2.73-1.326,2.34-1.4,7.722-3.315,12.324-4.368.39-.117.429.117.117.351a15.919,15.919,0,0,0-7.02,13.455c0,4.953,1.755,7.644,4.446,9.321,2.457,1.6,5.3,1.95,8.307,1.95,1.794,0,3.744-.429,3.744-2.223a3.134,3.134,0,0,0-3-2.73c-1.131,0-4.29.2-6.513-.975-1.365-.741-3.354-2.223-3.354-6.747,0-6.63,3.276-9.828,4.68-10.8a10.372,10.372,0,0,1,6.24-1.638c1.092,0,2.379.156,3.432.156a1.862,1.862,0,0,0,2.067-1.755c0-1.053-.78-1.755-1.833-2.223a7.85,7.85,0,0,0-3.315-.624,75.247,75.247,0,0,0-9.438,1.989c-6.864,1.638-12.558,3.12-14.9,3.12-1.014,0-1.872-.975-2.574-1.95ZM535.2,264.237a5.519,5.519,0,1,0-5.538-5.538A5.526,5.526,0,0,0,535.2,264.237Zm0-9.633a4.115,4.115,0,0,1,0,8.229,4.115,4.115,0,1,1,0-8.229Z" transform="translate(207 380)" fill="#333"/>
  </g>
</svg>
