<svg xmlns="http://www.w3.org/2000/svg" width="335.664" height="45.564" viewBox="0 0 335.664 45.564">
  <g id="グループ_5426" data-name="グループ 5426" transform="translate(-18 -215.436)">
    <g id="グループ_2608" data-name="グループ 2608" transform="translate(18.425 154.022)">
      <path id="パス_9649" data-name="パス 9649" d="M13.14,12.812A5.855,5.855,0,0,1,16.6,15.26c.216.5.036.756-.468.864-.828.144-3.024.324-5.148.5-1.332.072-3.78-.072-3.924,2.556-.108,1.368.756,2.052,1.62,3.1.432.54.9,1.188,1.44,1.944-.864.432-1.692.864-2.52,1.3a10.689,10.689,0,0,1-3.456,1.3A3.011,3.011,0,0,1,2.016,25.34l-.54.252a4.073,4.073,0,0,0,.5,3.2A5.479,5.479,0,0,0,5.76,30.92c1.188,0,1.764-.9,3.06-1.908.9-.684,1.908-1.4,2.952-2.124a36.947,36.947,0,0,1,3.744,9.252c.576,2.2.864,4.1,1.26,5.328.4,1.368,1.008,1.98,2.088,1.98,1.3,0,2.16-1.044,2.16-2.556a17.1,17.1,0,0,0-1.44-5.364A76.664,76.664,0,0,0,14.4,25.16c4-2.556,8.424-4.788,11.52-4.788,2.448,0,4.536,1.62,4.536,4,0,2.808-2.124,4.392-5.04,4.392A9.966,9.966,0,0,1,18.5,26.1l-.5.4c2.088,3.492,4.932,5.472,8.172,5.472,4.68,0,7.812-2.7,7.812-6.444,0-3.708-2.988-6.66-7.884-6.66-3.636,0-8.388,1.764-13.212,4.032-1.224-1.656-2.7-3.276-2.7-4,0-.792.612-.936,1.512-.972a39.236,39.236,0,0,1,5.9.288,15.169,15.169,0,0,0,2.412.5,1.494,1.494,0,0,0,1.62-1.62,3.974,3.974,0,0,0-1.188-2.772c-1.116-1.188-3.42-2.376-7.164-2.052Zm32.652,17.6c-.072,2.376-.036,4.608-.072,5.868-.036.684-.324.792-.828.36-.36-.36-1.188-1.152-1.944-1.872Zm25.6,3.492C69.3,35.564,67.5,36.392,65.34,36.392c-1.584,0-2.232-.72-2.232-2.592,0-3.744,1.368-7.416,1.368-10.764,0-3.6-1.368-5.652-4.9-5.652-2.808,0-5.976,1.944-8.5,4.032a1.294,1.294,0,0,0,.072-.4c0-.324-.648-1.044-1.3-1.584.216-.684.4-1.26.576-1.692.468-1.152.936-1.692.936-2.52,0-1.332-2.448-3.456-4.428-3.456a6.643,6.643,0,0,0-2.88.684v.612a9.961,9.961,0,0,1,2.232.864c.648.36.756.576.756,1.368s-.18,2.448-.4,4.428c-1.908.972-5,2.448-6.12,2.448-.828,0-1.4-.684-2.016-1.548l-.5.144a6.522,6.522,0,0,0,.036,2.052c.468,1.512,2.412,3.384,4.032,3.384.756,0,1.116-1.044,1.836-1.584.5-.324,1.44-.864,2.376-1.4-.072.684-.144,1.368-.18,2.052a80.967,80.967,0,0,1-7.452,9.36A3.5,3.5,0,0,0,37.62,37.22c0,1.26.792,2.016,1.584,1.98.9,0,1.44-.864,2.088-1.872L42.408,35.6a16.075,16.075,0,0,1,1.584,2.952,16.412,16.412,0,0,1,.792,2.952A1.7,1.7,0,0,0,46.656,43.2c1.368,0,2.448-1.692,2.448-3.816,0-1.008-.252-1.98-.4-3.42a52.176,52.176,0,0,1-.324-8.784q.054-.54.108-1.188c2.952-3.816,6.768-6.84,9.828-6.84,1.764,0,2.268,1.188,2.268,3.384,0,3.96-1.368,7.812-1.368,12.132,0,3.816,1.728,5.436,4.644,5.436,3.96,0,6.624-3.1,7.92-5.8Zm17.748,5.58c-2.772,0-4.428-.864-4.428-2.232,0-1.116.9-1.8,2.268-1.8,1.98,0,3.42,1.548,3.852,3.96C90.288,39.452,89.748,39.488,89.136,39.488Zm-8.1-25.668a7.715,7.715,0,0,0-.288,2.34c.108,1.26,1.728,3.708,3.852,3.708a4.152,4.152,0,0,0,2.052-.972,19.227,19.227,0,0,1,4.932-2.232c.576-.108.936.144.324.936-1.872,2.556-9.432,9.684-12.96,13.14-1.188,1.152-1.764,1.944-1.836,2.916-.072,1.368.72,2.3,1.512,2.34.9.036,1.26-.288,2.124-1.4,3.06-3.96,6.516-7.56,11.448-7.56,4.14,0,6.264,2.448,6.228,5.616a6.323,6.323,0,0,1-4.248,6.012,6.282,6.282,0,0,0-6.264-4.9c-2.664,0-4.824,1.548-4.824,3.924,0,3.132,3.132,4.968,7.344,4.968,7.416,0,11.7-3.888,11.736-8.712.036-5.4-4.032-8.424-8.892-8.424a17.385,17.385,0,0,0-6.012,1.224c-.36.108-.576-.144-.18-.54a66.939,66.939,0,0,1,8.172-6.8c1.188-.828,2.448-1.116,2.448-2.124,0-1.548-2.844-3.816-4.536-3.816-.756,0-.756.54-2.16,1.008a37.07,37.07,0,0,1-7.02,1.512c-.936,0-1.836-1.044-2.448-2.2Zm43.92,4.248c.5-1.188,1.548-1.728,1.548-2.736,0-1.26-3.348-2.7-5-2.7a6.6,6.6,0,0,0-3.276.9v.54a8.567,8.567,0,0,1,2.664.864,1.093,1.093,0,0,1,.576,1.08,24.52,24.52,0,0,1-1.512,5.4,54.117,54.117,0,0,1-6.552,1.152c-.936,0-1.368-.792-2.016-1.944l-.5.108a4.286,4.286,0,0,0-.4,2.484c.252,1.476,1.908,3.348,2.988,3.348a6.735,6.735,0,0,0,2.844-.936c.648-.288,1.512-.648,2.412-1.008-.576,1.4-1.188,2.844-1.872,4.248a48.3,48.3,0,0,1-5.472,8.82,2.954,2.954,0,0,0-.828,2.34,2.028,2.028,0,0,0,1.764,2.232c.972,0,1.548-.36,2.34-1.728,1.3-2.2,3.528-6.84,5.184-10.44.9-1.944,2.016-4.536,2.988-6.912a10.439,10.439,0,0,1,2.592-.468c1.692,0,2.3.972,2.3,2.916,0,3.6-1.008,8.712-2.736,10.8a2.624,2.624,0,0,1-2.412,1.26A10.942,10.942,0,0,1,118.4,36.14l-.324.468c1.728,1.872,1.98,2.2,2.16,2.916.432,1.8.972,2.34,2.376,2.34a6.391,6.391,0,0,0,4.68-2.088c2.664-2.916,3.744-8.1,3.744-12.708,0-4.788-1.872-6.516-4.752-6.516a21.883,21.883,0,0,0-2.448.216Zm7.56,2.952a6.726,6.726,0,0,1,4.176,3.06,8.427,8.427,0,0,1,1.26,4.284,1.531,1.531,0,0,1-1.116,1.728,34.188,34.188,0,0,1-3.528,1.008l.108.648a16.634,16.634,0,0,1,3.924.54c1.188.468,1.26,1.62,2.52,1.584,1.584,0,2.376-1.548,2.376-3.708a9.476,9.476,0,0,0-2.916-7.2,10.116,10.116,0,0,0-6.588-2.592Zm27.54-4.752c.324.432.288.756-.144.972A27.974,27.974,0,0,1,153.756,19a2.106,2.106,0,0,0-1.656,2.3,20.956,20.956,0,0,1-.072,2.556c-.18,1.692-.756,5.256-1.008,6.948a27.994,27.994,0,0,0-.468,2.88,3.188,3.188,0,0,0,.936,2.268,2.823,2.823,0,0,0,2.052,1.188c1.188,0,1.656-1.44,2.556-2.7,2.052-2.592,6.372-6.984,10.4-6.984a4.673,4.673,0,0,1,4.788,4.9c0,2.952-1.764,5.832-7.956,8.064a36.643,36.643,0,0,1-7.272,1.656l.072.72c9.036.828,19.44-2.016,19.44-9.036,0-3.852-2.88-7.812-8.676-7.812-4.9,0-9.36,2.952-11.916,4.608-.288.18-.432.108-.468-.288a31.172,31.172,0,0,1,.54-3.96,14.225,14.225,0,0,0,.252-2.952c-.108-1.008-.648-1.908-.648-2.484,0-.288.144-.576.792-.648a26.955,26.955,0,0,1,4.968-.324c1.62.144,2.484.54,3.672.54a1.469,1.469,0,0,0,1.692-1.62c0-2.088-1.152-3.636-3.2-4.824-1.476-.864-3.708-1.44-7.272-1.188l-.144.54C157.392,14.108,159.12,14.792,160.056,16.268Zm21.132,18.756a17.556,17.556,0,0,1,5.22,7.236,2.412,2.412,0,0,0,2.34,1.62,2.193,2.193,0,0,0,2.3-2.376,3.938,3.938,0,0,0-.756-2.412c-1.332-2.016-3.96-3.672-8.784-4.536Zm37.152-19.08h13.392V20.3H220.968l.288,1.008h25.992c.5,0,.9-.18,1.008-.576-1.548-1.44-4.176-3.456-4.176-3.456L241.74,20.3h-5.616V15.944h13.284c.5,0,.9-.18,1.008-.576-1.584-1.4-4.176-3.456-4.176-3.456l-2.3,3.024h-7.812V11.984c1.116-.144,1.4-.54,1.476-1.116l-5.868-.432v4.5h-13.68ZM244.548,26.1a52.1,52.1,0,0,1-1.764,5.076l.288.252a38.709,38.709,0,0,0,6.192-4.392,2.009,2.009,0,0,0,1.44-.432l-4-3.852-2.34,2.34H223.416a13.262,13.262,0,0,0-.72-2.232h-.468a5.621,5.621,0,0,1-2.808,5.04,2.354,2.354,0,0,0-1.548,2.916A2.385,2.385,0,0,0,221.4,31.82c1.4-.828,2.52-2.844,2.2-5.724ZM217.224,44.2c12.2-2.484,14.472-7.776,14.868-14.508.864-.072,1.224-.432,1.332-1.008l-5.868-.576c.5,6.336-.72,12.2-10.548,15.624Zm32.4-9.792h-.4a37.318,37.318,0,0,1-1.62,4.644.868.868,0,0,1-.9.468c-.468.036-1.44.036-2.592.036h-3.1c-1.044,0-1.224-.144-1.224-.684v-9.4c.72-.108,1.08-.432,1.116-.9l-5.22-.468V39.884c0,2.808.792,3.528,4.392,3.528h3.6c5.832,0,7.416-.756,7.416-2.484,0-.756-.252-1.224-1.368-1.692Zm12.168-4c-.072,2.376-.036,4.608-.072,5.868-.036.684-.324.792-.828.36-.36-.36-1.188-1.152-1.944-1.872Zm25.6,3.492c-2.088,1.656-3.888,2.484-6.048,2.484-1.584,0-2.232-.72-2.232-2.592,0-3.744,1.368-7.416,1.368-10.764,0-3.6-1.368-5.652-4.9-5.652-2.808,0-5.976,1.944-8.5,4.032a1.294,1.294,0,0,0,.072-.4c0-.324-.648-1.044-1.3-1.584.216-.684.4-1.26.576-1.692.468-1.152.936-1.692.936-2.52,0-1.332-2.448-3.456-4.428-3.456a6.643,6.643,0,0,0-2.88.684v.612a9.96,9.96,0,0,1,2.232.864c.648.36.756.576.756,1.368s-.18,2.448-.4,4.428c-1.908.972-5,2.448-6.12,2.448-.828,0-1.4-.684-2.016-1.548l-.5.144a6.521,6.521,0,0,0,.036,2.052c.468,1.512,2.412,3.384,4.032,3.384.756,0,1.116-1.044,1.836-1.584.5-.324,1.44-.864,2.376-1.4-.072.684-.144,1.368-.18,2.052a80.965,80.965,0,0,1-7.452,9.36,3.5,3.5,0,0,0-1.044,2.592c0,1.26.792,2.016,1.584,1.98.9,0,1.44-.864,2.088-1.872l1.116-1.728a16.074,16.074,0,0,1,1.584,2.952,16.412,16.412,0,0,1,.792,2.952,1.7,1.7,0,0,0,1.872,1.692c1.368,0,2.448-1.692,2.448-3.816,0-1.008-.252-1.98-.4-3.42a52.174,52.174,0,0,1-.324-8.784q.054-.54.108-1.188c2.952-3.816,6.768-6.84,9.828-6.84,1.764,0,2.268,1.188,2.268,3.384,0,3.96-1.368,7.812-1.368,12.132,0,3.816,1.728,5.436,4.644,5.436,3.96,0,6.624-3.1,7.92-5.8Zm17.748,5.58c-2.772,0-4.428-.864-4.428-2.232,0-1.116.9-1.8,2.268-1.8,1.98,0,3.42,1.548,3.852,3.96C306.288,39.452,305.748,39.488,305.136,39.488Zm-8.1-25.668a7.716,7.716,0,0,0-.288,2.34c.108,1.26,1.728,3.708,3.852,3.708a4.153,4.153,0,0,0,2.052-.972,19.226,19.226,0,0,1,4.932-2.232c.576-.108.936.144.324.936-1.872,2.556-9.432,9.684-12.96,13.14-1.188,1.152-1.764,1.944-1.836,2.916-.072,1.368.72,2.3,1.512,2.34.9.036,1.26-.288,2.124-1.4,3.06-3.96,6.516-7.56,11.448-7.56,4.14,0,6.264,2.448,6.228,5.616a6.323,6.323,0,0,1-4.248,6.012,6.282,6.282,0,0,0-6.264-4.9c-2.664,0-4.824,1.548-4.824,3.924,0,3.132,3.132,4.968,7.344,4.968,7.416,0,11.7-3.888,11.736-8.712.036-5.4-4.032-8.424-8.892-8.424a17.385,17.385,0,0,0-6.012,1.224c-.36.108-.576-.144-.18-.54a66.94,66.94,0,0,1,8.172-6.8c1.188-.828,2.448-1.116,2.448-2.124,0-1.548-2.844-3.816-4.536-3.816-.756,0-.756.54-2.16,1.008a37.07,37.07,0,0,1-7.02,1.512c-.936,0-1.836-1.044-2.448-2.2Zm33.552,30.168a5.094,5.094,0,1,0-5.112-5.112A5.1,5.1,0,0,0,330.588,43.988Zm0-8.892a3.8,3.8,0,0,1,0,7.6,3.8,3.8,0,1,1,0-7.6Z" transform="translate(-0.425 50.978)" fill="#333"/>
    </g>
    <line id="線_479" data-name="線 479" x2="180.5" transform="translate(18 259.5)" fill="none" stroke="#333" stroke-width="3"/>
  </g>
</svg>
