<svg xmlns="http://www.w3.org/2000/svg" xmlns:xlink="http://www.w3.org/1999/xlink" width="375" height="672" viewBox="0 0 375 672">
  <defs>
    <clipPath id="clip-path">
      <rect id="長方形_4473" data-name="長方形 4473" width="375" height="672" transform="translate(0 140)" fill="#fff" stroke="#707070" stroke-width="1"/>
    </clipPath>
  </defs>
  <g id="マスクグループ_56" data-name="マスクグループ 56" transform="translate(0 -140)" clip-path="url(#clip-path)">
    <g id="グループ_5419" data-name="グループ 5419">
      <path id="パス_9578" data-name="パス 9578" d="M7.272-9.81c.828-.5.864-2.088-1.926-2.61h5.49c-.126.774-.36,1.818-.576,2.61Zm.234,7.83V-4.626h2.9V-1.98Zm6.426-10.944H9.99v-1.6c.486-.072.612-.252.648-.5L7.83-15.246v2.322H.576l.144.5H5.094l-.108.072A5.459,5.459,0,0,1,5.868-9.99a2.345,2.345,0,0,0,.27.18H3.924L1.71-10.728V1.6h.342c.846,0,1.71-.486,1.71-.72V-9.306H6.336A4.645,4.645,0,0,1,3.888-5.544l.072.252c2.412-.7,3.852-1.926,4.338-4.014H9.522v1.314c0,1.53.252,1.89,1.71,1.89h1.386c1.134,0,1.548-.432,1.548-1.062,0-.27-.036-.324-.54-.576l-.036-.972h-.216A5.9,5.9,0,0,1,13-7.686a.343.343,0,0,1-.306.126H11.52c-.234,0-.252-.018-.252-.378V-9.306h2.97V-.972c0,.234-.072.36-.36.36-.378,0-1.584-.09-1.944-.126.2-.072.342-.144.342-.18V-4.41a1.007,1.007,0,0,0,.576-.306L11.106-6.048l-.864.9H7.578L5.652-5.922V-.18h.27c.774,0,1.584-.414,1.584-.576v-.72h2.9V-.468h.324A3.537,3.537,0,0,0,11.844-.7v.216A2.156,2.156,0,0,1,13.3.2a2.519,2.519,0,0,1,.378,1.4C16,1.4,16.308.594,16.308-.774V-8.946a1.323,1.323,0,0,0,.738-.378L15.03-10.89l-.972,1.08h-2.97A23.414,23.414,0,0,0,13-11.52c.4,0,.594-.162.666-.378l-2.394-.522H16.9c.27,0,.468-.09.5-.288-.846-.72-2.232-1.764-2.232-1.764Zm15.66-.558v4.1H24.408v-4.1ZM24.408-8.874h5.184v1.458h.36a3.106,3.106,0,0,0,1.764-.576V-13.14a1.219,1.219,0,0,0,.738-.378L30.4-15.084,29.412-14h-4.9l-2.232-.882v7.632h.324c.882,0,1.8-.468,1.8-.666ZM21.492-.9V-5.634H24.12V-.9ZM23.94-6.156H21.582l-2.088-.828V1.44H19.8c.828,0,1.692-.468,1.692-.666V-.378H24.12V1.116h.342A2.9,2.9,0,0,0,26.154.522V-5.31a1.216,1.216,0,0,0,.72-.36l-2-1.512ZM29.772-.9V-5.634h2.772V-.9Zm3.564-6.3-.972,1.044h-2.5l-2.088-.828V1.458h.306c.846,0,1.692-.468,1.692-.666V-.378h2.772V1.206h.342A3.155,3.155,0,0,0,34.614.684V-5.292a1.471,1.471,0,0,0,.738-.378Zm6.21-8.1a33.647,33.647,0,0,1-3.384,9.4l.216.144A16.024,16.024,0,0,0,38.25-7.7v9.27h.342a2.345,2.345,0,0,0,1.566-.54V-9.414c.342-.054.5-.162.576-.342l-.828-.306A28.077,28.077,0,0,0,41.8-14.04c.414,0,.63-.144.72-.378ZM49.518-.828v-8.19H50.8v8.19Zm-6.066-8.19h1.17v8.19h-1.17Zm4.194,0v8.19h-1.17v-8.19Zm-1.17-3.672h1.17v3.168h-1.17Zm4.23,3.168H49.518V-12.69h3.528c.27,0,.45-.09.5-.288-.81-.72-2.16-1.764-2.16-1.764l-1.206,1.548H41.508l.144.5h2.97v3.168h-.954l-2.07-.81V1.3h.324c.954,0,1.53-.378,1.53-.5V-.324H50.8V1.188h.324A2.2,2.2,0,0,0,52.758.666v-9.5A1.219,1.219,0,0,0,53.5-9.2l-1.818-1.44Zm7.056-5.76a34.609,34.609,0,0,1-3.42,9.45l.216.144a15.988,15.988,0,0,0,1.8-1.854V1.6h.378A2.423,2.423,0,0,0,58.41.99V-9.594c.342-.054.5-.162.558-.342l-.774-.288a24.119,24.119,0,0,0,1.8-3.816c.414,0,.648-.144.72-.378Zm7.02,12.618V-4.878h3.24v2.214Zm0-4.788h3.24v2.07h-3.24Zm3.24-2.646v2.142h-3.24V-10.1Zm2.088.162a1.161,1.161,0,0,0,.72-.342l-1.872-1.458L67.95-10.6H66.708c.072-.5.162-1.116.252-1.746h4.23c.27,0,.468-.09.522-.288-.792-.72-2.106-1.764-2.106-1.764l-1.17,1.53h-1.4c.072-.576.144-1.152.2-1.62.414-.072.63-.27.684-.558L65.052-15.3c0,.756-.018,1.6-.036,2.43H60.3l.144.522H65c-.018.63-.036,1.224-.054,1.728L62.8-11.43V-1.062h.36c1.008,0,1.62-.36,1.62-.522v-.594h3.24v.81h.36a3.276,3.276,0,0,0,1.242-.216L68.436-.036H61.668V-10.062c.432-.072.576-.234.612-.486l-2.52-.234V1.548h.36c.7,0,1.548-.414,1.548-.612V.486h9.594c.252,0,.45-.09.5-.288-.792-.72-2.07-1.728-2.142-1.782.306-.108.486-.252.486-.306ZM84.654-12.87A9.049,9.049,0,0,1,86.256-11c.288.432.522.684.81.7a.644.644,0,0,0,.684-.648,1.327,1.327,0,0,0-.522-1.026A5.937,5.937,0,0,0,84.834-13.1ZM83.322-5.706a10.554,10.554,0,0,1,2.2-.576,6.581,6.581,0,0,1,1.188-.144c.774-.018,1.116-.288,1.116-.792a1.358,1.358,0,0,0-.756-1.116,4.869,4.869,0,0,0-2.34-.5,7.277,7.277,0,0,0-3.852,1.17l.108.27a13.081,13.081,0,0,1,2.124-.234,5.673,5.673,0,0,1,1.548.2c.144.054.18.144.09.252A15.877,15.877,0,0,1,83.16-5.94ZM79.56-11.16c.414-1.368.792-1.71.792-2.2-.018-.486-1.17-1.062-2.268-1.062a3.5,3.5,0,0,0-1.476.306l-.018.27a3.438,3.438,0,0,1,1.062.522c.306.234.36.378.342.828a19.4,19.4,0,0,1-.342,2.088,10.869,10.869,0,0,1-2.214.216,3.478,3.478,0,0,1-2.214-.882l-.216.162c.576,1.962,1.4,2.3,2.772,2.3a11.142,11.142,0,0,0,1.458-.126c-.144.522-.288,1.026-.432,1.44a25.24,25.24,0,0,1-2.322,5c-.5.846-.954,1.1-.954,1.836S73.962.882,74.5.882c.666,0,.918-.378,1.242-.99a54.188,54.188,0,0,0,2.5-6.57c.27-.774.5-1.62.72-2.376a26.817,26.817,0,0,0,2.808-.828c1.314-.468,1.71-.756,1.71-1.26,0-.7-.882-.954-1.332-.954a3.036,3.036,0,0,0-.792.414,10.621,10.621,0,0,1-1.872.792ZM79.9-4.14a5.867,5.867,0,0,0-.036,1.782C80.064-.342,81.648.774,84.4.774A10.392,10.392,0,0,0,86.976.5c.72-.162,1.17-.486,1.17-.954,0-.774-.846-1.1-1.548-1.1a13.11,13.11,0,0,1-2.628.342,3.463,3.463,0,0,1-3.2-1.332,3.96,3.96,0,0,1-.558-1.62ZM86.292-14a7.91,7.91,0,0,1,1.638,1.656c.342.432.54.72.882.72a.573.573,0,0,0,.612-.63,1.375,1.375,0,0,0-.63-1.116,6.152,6.152,0,0,0-2.358-.882ZM95.958-7.29a25.363,25.363,0,0,1-1.62,3.4c-.144.234-.324.216-.468-.036a3.32,3.32,0,0,1-.252-1.4,8.6,8.6,0,0,1,1.3-4.086,3.521,3.521,0,0,0,.612-1.6,3.407,3.407,0,0,0-1.548-2.358,4.39,4.39,0,0,0-1.44-.594l-.162.216a3.323,3.323,0,0,1,.954,2.124c0,1.908-1.062,4.176-1.062,6.7a8.173,8.173,0,0,0,.99,4.194c.378.666.846,1.062,1.35,1.062a.858.858,0,0,0,.954-.936c0-.666-.306-1.26-.306-1.908a6.242,6.242,0,0,1,.126-1.224c.18-.792.594-2.232.954-3.384Zm4.284-5.8a4.706,4.706,0,0,1,1.26.45c.234.126.342.288.378.7.072.5.126,1.3.18,2.088a11,11,0,0,1-2,.252,5.031,5.031,0,0,1-2.736-.9l-.18.18a3.249,3.249,0,0,0,3.294,2.358,13.89,13.89,0,0,0,1.692-.126,16.838,16.838,0,0,1-.27,4.734A6.4,6.4,0,0,1,98.28,1.1l.144.27c2.448-.612,4.356-1.548,5.184-3.8.594-1.512.432-4.068.324-5.994a11.6,11.6,0,0,0,2.142-.684c.576-.27.756-.558.756-.918,0-.576-.72-.954-1.386-.954a4.792,4.792,0,0,0-.9.378c-.2.09-.432.18-.684.27,0-.45,0-.882.018-1.206.036-.63.252-.918.252-1.224,0-.648-1.368-1.242-2.232-1.242a3.494,3.494,0,0,0-1.692.648Zm19.71,5a.638.638,0,0,0,.684-.666,1.449,1.449,0,0,0-.576-1.1,6.292,6.292,0,0,0-2.574-1.314l-.2.252a9.339,9.339,0,0,1,1.8,2.106C119.394-8.334,119.646-8.082,119.952-8.082Zm1.89-1.674a.61.61,0,0,0,.63-.648,1.518,1.518,0,0,0-.7-1.206,5.571,5.571,0,0,0-2.538-1.08l-.18.252a7.5,7.5,0,0,1,1.872,1.926C121.266-10.008,121.482-9.756,121.842-9.756Zm-9.558-3.078c.324.288.414.612.414,1.494,0,1.35-.378,5-.378,7.578,0,3.366,1.548,4.68,4.068,4.68a8.235,8.235,0,0,0,7.56-5.454l-.324-.234a9.539,9.539,0,0,1-6.948,3.6c-2.124,0-2.682-.774-2.682-2.826a31.877,31.877,0,0,1,.774-6.264c.2-.918.684-1.206.684-1.71,0-.738-1.71-2.07-2.934-2.088a4.011,4.011,0,0,0-1.4.342v.288A3.5,3.5,0,0,1,112.284-12.834Zm20.736,2.358a2.219,2.219,0,0,1,1.26.9c.072.18.018.288-.18.324a15.572,15.572,0,0,1-1.728.2c-.522.036-1.584-.018-1.6,1.08-.018.5.342.774.684,1.224.144.18.288.4.468.648-.306.144-.594.288-.882.432a3.636,3.636,0,0,1-1.35.54c-.306,0-.54-.234-.81-.522l-.18.072a1.635,1.635,0,0,0,.2,1.368,2.222,2.222,0,0,0,1.53.81c.45,0,.7-.342,1.134-.72.324-.27.684-.558,1.08-.846a12.825,12.825,0,0,1,1.332,3.4c.2.792.288,1.512.45,2.034.18.576.432.846.9.846a.951.951,0,0,0,.936-1.08,6.446,6.446,0,0,0-.558-2.106,34.518,34.518,0,0,0-1.926-3.87,9.394,9.394,0,0,1,4.212-1.8,1.573,1.573,0,0,1,1.656,1.476,1.664,1.664,0,0,1-1.872,1.674,3.7,3.7,0,0,1-2.592-1.026l-.18.126a3.642,3.642,0,0,0,3.132,2.268c1.854,0,3.024-1.116,3.024-2.52,0-1.422-1.17-2.592-3.1-2.592a13.517,13.517,0,0,0-4.932,1.458c-.486-.648-1.044-1.242-1.044-1.494,0-.324.252-.36.558-.36a15.779,15.779,0,0,1,2.142.144,4.945,4.945,0,0,0,.954.216.642.642,0,0,0,.684-.684,1.528,1.528,0,0,0-.468-1.062,3.246,3.246,0,0,0-2.916-.738Zm11.574,7.488A8.778,8.778,0,0,1,147.2.63a1.206,1.206,0,0,0,1.17.81A1.1,1.1,0,0,0,149.526.252a1.969,1.969,0,0,0-.378-1.206c-.666-1.008-1.98-1.836-4.392-2.268Zm29.34-4.968a14.241,14.241,0,0,1-2.916,4.23,10.613,10.613,0,0,1-3.582-4.23Zm1.278-1.692L173.9-8.46h-1.872v-3.132h6.624c.27,0,.468-.09.522-.288-.864-.756-2.268-1.836-2.268-1.836l-1.26,1.6h-3.618v-2.43c.486-.072.63-.252.648-.5l-2.826-.234v3.168h-6.912l.144.522h6.768V-8.46h-5.634l.144.5h2.718a13.343,13.343,0,0,0,2.934,5.184,21.616,21.616,0,0,1-7.434,4.1l.108.234a22.175,22.175,0,0,0,8.46-3.258,17.24,17.24,0,0,0,6.462,3.258,2.424,2.424,0,0,1,1.926-1.854l.036-.216a23.506,23.506,0,0,1-7-2.268,15.825,15.825,0,0,0,3.78-4.7c.5-.036.7-.09.846-.288Zm19.494-5.724a52.178,52.178,0,0,1-8.316,2.088l.036.27a63.309,63.309,0,0,0,9.162-.612,1.109,1.109,0,0,0,1.1-.054ZM189.9-12.8a6.5,6.5,0,0,1,.81,2.664c1.494,1.368,3.4-1.548-.63-2.736Zm-2.862.234a6.582,6.582,0,0,1,.828,2.556c1.476,1.35,3.33-1.512-.648-2.646Zm-2.34,6.03c.972-.63,1.746-1.17,2.322-1.6l-.072-.2c-.756.216-1.512.432-2.25.63v-2.952h2.052a.431.431,0,0,0,.468-.288c-.54-.63-1.566-1.584-1.566-1.584l-.864,1.35h-.09v-3.366c.45-.054.63-.234.666-.5l-2.646-.252v4.122h-2.16l.144.522h2.016V-7.2c-1.008.252-1.818.45-2.3.54l.864,2.484a.762.762,0,0,0,.468-.522c.342-.2.666-.4.972-.576v4.158c0,.2-.09.288-.36.288-.324,0-1.782-.09-1.782-.09v.252a1.821,1.821,0,0,1,1.314.7,3.129,3.129,0,0,1,.342,1.548c2.2-.216,2.466-1.044,2.466-2.52Zm8.694,1.89a9.293,9.293,0,0,1-1.224,2.124,6.093,6.093,0,0,1-1.818-2.124Zm1.152-1.6-1.17,1.08h-2.988a12.786,12.786,0,0,0,.4-1.422h6.264c.252,0,.432-.09.486-.27-.756-.648-1.98-1.548-1.98-1.548l-1.1,1.332H190.89c.126-.576.216-1.17.288-1.782h5.76c.252,0,.432-.09.486-.288-.666-.648-1.8-1.6-1.8-1.6l-.99,1.368h-1.566a16.743,16.743,0,0,0,2.808-2.646c.4.018.612-.126.7-.324l-2.52-.864a20.4,20.4,0,0,1-1.386,3.834h-6.5l.144.522h2.592c-.036.594-.09,1.188-.18,1.782h-2.772l.144.486h2.556a12.973,12.973,0,0,1-4.1,7.974l.144.18a10.985,10.985,0,0,0,5.4-5.94,9.551,9.551,0,0,0,1.314,2.718,12.732,12.732,0,0,1-4.734,3.006l.09.234A15.173,15.173,0,0,0,192.33-.594a10.321,10.321,0,0,0,3.708,2.178,2.38,2.38,0,0,1,1.638-1.908l.018-.2a16.062,16.062,0,0,1-4.032-1.134A9.709,9.709,0,0,0,195.7-4.32c.414-.054.576-.108.72-.288Zm9-.486c-.486.9-1.44,2.862-1.872,3.51-.162.27-.36.252-.468-.018a3.1,3.1,0,0,1-.2-1.26,10.564,10.564,0,0,1,1.4-4.824c.414-.828.7-1.188.7-1.692a3.465,3.465,0,0,0-1.548-2.358,3.9,3.9,0,0,0-1.422-.594l-.18.2a3.492,3.492,0,0,1,.936,2.142,9.169,9.169,0,0,1-.414,2.412,21.553,21.553,0,0,0-.792,4.878A7.687,7.687,0,0,0,200.808.144a1.622,1.622,0,0,0,1.206.81c.594,0,.918-.36.918-1.008,0-.558-.342-1.17-.342-1.818a8.322,8.322,0,0,1,.216-1.368c.2-.648.792-2.34,1.134-3.33Zm6.3,3.834c0,1.242-.432,1.872-2.25,1.872-.846,0-1.638-.288-1.638-.954,0-.756.99-1.188,2-1.188a7.156,7.156,0,0,1,1.89.234ZM207.918-13a6.184,6.184,0,0,1,1.3.306c.306.108.45.162.45.936l-.018,1.8a11.182,11.182,0,0,1-2.016.18,4.318,4.318,0,0,1-2.43-.828l-.216.2c.882,2,1.8,2.142,2.97,2.142a13.783,13.783,0,0,0,1.692-.108v.432c.018,1.188.09,2.52.144,3.582-.27-.018-.54-.036-.828-.036-2.07,0-3.888.774-3.888,2.556,0,1.548,1.44,2.394,3.06,2.394,2.412,0,3.492-.9,3.492-2.61V-2.16A8.9,8.9,0,0,1,213.012-1.1c.594.558.864.846,1.278.846.486,0,.81-.36.81-.954a1.674,1.674,0,0,0-.612-1.188,6.512,6.512,0,0,0-3.024-1.692c-.09-1.026-.216-2.286-.216-3.816,0-.234,0-.486.018-.72a15.324,15.324,0,0,0,2.16-.558c.828-.342,1.134-.468,1.134-1.062,0-.558-.738-.864-1.386-.864-.108,0-.576.288-1.818.7.054-.5.108-.918.162-1.206.126-.648.306-.792.306-1.224,0-.522-1.134-1.152-2.34-1.152a3.5,3.5,0,0,0-1.62.72ZM8.154,22.994v1.512H5.094V22.994Zm0,3.582H5.094V25.028h3.06Zm0,2.124H5.094V27.08h3.06ZM3.006,30.356h.378c1.062,0,1.71-.468,1.71-.63v-.5H15.768c.252,0,.432-.09.486-.288-.738-.684-2-1.6-2-1.6L13.14,28.7H10.314V27.08h4.914c.252,0,.45-.09.5-.288-.7-.63-1.854-1.53-1.854-1.53l-1.026,1.314H10.314V25.028h4.914c.252,0,.432-.09.486-.288-.684-.648-1.836-1.53-1.836-1.53l-1.026,1.3H10.314V22.994h5.22a.453.453,0,0,0,.486-.288c-.72-.684-1.944-1.638-1.944-1.638l-1.062,1.4H8.856A20.217,20.217,0,0,0,11.2,21.1a.594.594,0,0,0,.666-.288L9.018,19.754a18.2,18.2,0,0,1-.684,2.718H5.346l-.072-.036a11.769,11.769,0,0,0,.99-1.26c.414.072.648-.072.738-.27L4.356,19.628A16.219,16.219,0,0,1,.378,25.6l.18.18a13.687,13.687,0,0,0,2.448-1.35Zm13.914,1.1c.252,0,.45-.09.5-.288-.756-.684-2-1.674-2-1.674l-1.1,1.458H10.044v-.864c.432-.072.558-.252.594-.468l-2.79-.234V30.95H.666l.144.5H6.138A15.145,15.145,0,0,1,.378,35.81l.108.234a19.051,19.051,0,0,0,7.362-3.312V36.6h.4c.828,0,1.8-.36,1.8-.522V31.49a10.479,10.479,0,0,0,5.94,4.482,2.321,2.321,0,0,1,1.6-1.944l.018-.216a15.922,15.922,0,0,1-7.02-2.358Zm9.756.882c0,1.638-.882,2.052-2.646,2.052-.954,0-1.638-.4-1.638-.99,0-.648,1.026-1.242,2.5-1.242a9.371,9.371,0,0,1,1.782.162Zm-1.854-10.89a7.03,7.03,0,0,1,1.332.4.61.61,0,0,1,.432.648c0,.252-.018.774-.018,1.44a22.233,22.233,0,0,1-2.718.18,4.72,4.72,0,0,1-3.114-1.026l-.216.162a3.668,3.668,0,0,0,3.87,2.376c.738,0,1.458-.036,2.142-.09v1.98a20.2,20.2,0,0,1-2.124.108c-1.476,0-1.98-.4-1.206-1.584l-.27-.18c-2.232,1.746-.81,3.258,1.638,3.258.666,0,1.35-.036,2.016-.09.018.738.054,1.44.072,2.07-.288-.018-.576-.036-.882-.036-2.412,0-4.248.936-4.248,2.448,0,1.584,1.422,2.43,3.492,2.43,2.124,0,3.4-.954,3.4-2.412,0-.234,0-.45-.018-.684A10.259,10.259,0,0,1,31.32,34.8c.432.36.63.558,1.08.558a.789.789,0,0,0,.792-.9,1.959,1.959,0,0,0-.99-1.53,9.81,9.81,0,0,0-3.942-1.638c-.09-.72-.18-1.494-.234-2.412a17.13,17.13,0,0,0,3.726-.756.958.958,0,0,0,.738-.9c0-.594-.7-.792-1.44-.792-.126,0-.4.18-1.17.414a17.826,17.826,0,0,1-1.872.45c.018-.666.036-1.332.09-1.926a21.389,21.389,0,0,0,3.888-.864c.54-.18.864-.36.864-.882,0-.684-1.026-.882-1.53-.882-.144,0-.414.18-1.152.432-.414.126-1.08.306-1.89.468a4.585,4.585,0,0,1,.144-.72c.126-.45.378-.666.378-1.026,0-.684-1.224-1.224-2.376-1.224a2.938,2.938,0,0,0-1.62.522Zm19.206,1.188c.162.216.144.378-.072.486A13.987,13.987,0,0,1,40.878,24a1.053,1.053,0,0,0-.828,1.152,10.478,10.478,0,0,1-.036,1.278c-.09.846-.378,2.628-.5,3.474a14,14,0,0,0-.234,1.44,1.594,1.594,0,0,0,.468,1.134,1.412,1.412,0,0,0,1.026.594c.594,0,.828-.72,1.278-1.35,1.026-1.3,3.186-3.492,5.2-3.492a2.337,2.337,0,0,1,2.394,2.448c0,1.476-.882,2.916-3.978,4.032a18.321,18.321,0,0,1-3.636.828l.036.36c4.518.414,9.72-1.008,9.72-4.518,0-1.926-1.44-3.906-4.338-3.906-2.448,0-4.68,1.476-5.958,2.3-.144.09-.216.054-.234-.144a15.586,15.586,0,0,1,.27-1.98,7.113,7.113,0,0,0,.126-1.476c-.054-.5-.324-.954-.324-1.242,0-.144.072-.288.4-.324a13.477,13.477,0,0,1,2.484-.162c.81.072,1.242.27,1.836.27a.734.734,0,0,0,.846-.81,2.734,2.734,0,0,0-1.6-2.412,6.207,6.207,0,0,0-3.636-.594l-.072.27A4.3,4.3,0,0,1,44.028,22.634Zm14.76-1.6a3.383,3.383,0,0,1,.792.414.94.94,0,0,1,.45.828,8.523,8.523,0,0,1-.216,1.494,9.216,9.216,0,0,1-1.692.2,3.631,3.631,0,0,1-2.484-1.008l-.27.144c.5,2,1.188,2.448,2.682,2.448a10.443,10.443,0,0,0,1.26-.072,17.7,17.7,0,0,1-3.2,5.58,1.7,1.7,0,0,0-.432,1.17c0,.612.342,1.206.954,1.206.5,0,.864-.468,1.314-1.17a34.62,34.62,0,0,0,3.024-7.056,9.93,9.93,0,0,0,2.97-1.008.98.98,0,0,0,.558-.828.9.9,0,0,0-.936-.864c-.234,0-.648.342-1.962.774.522-1.548.7-2.106.342-2.394a3,3,0,0,0-1.692-.468,3.623,3.623,0,0,0-1.458.36ZM64.656,32.8c0,1.026-.72,1.6-2.052,1.6-1.26,0-1.746-.432-1.746-1.026,0-.576.684-1.242,2.142-1.242a6.869,6.869,0,0,1,1.656.18Zm.81-8.568a3.293,3.293,0,0,1,1.818.612c.18.144.252.306.162.468a5.994,5.994,0,0,0-2.16,1.458,3.676,3.676,0,0,0-.738,2.556c0,.486.018,1.044.054,1.62-.18-.018-.36-.018-.54-.018-2.628,0-4.068,1.332-4.068,2.79,0,1.332,1.188,2.34,3.168,2.34,2.07,0,3.294-.846,3.294-2.448,0-.216,0-.432-.018-.648a7.486,7.486,0,0,1,1.656,1.17c.7.612.954,1.116,1.494,1.116.414,0,.828-.306.828-1.008,0-.792-.792-1.548-1.926-2.142a8.717,8.717,0,0,0-2.268-.918c-.162-.972-.342-1.854-.414-2.376a2.494,2.494,0,0,1,.126-1.71,1.76,1.76,0,0,1,1.35-.594c.99-.018,1.476.522,2.178.522.576,0,.774-.414.774-.99a2.425,2.425,0,0,0-1.98-2.2,5.009,5.009,0,0,0-2.808.072Zm9.036,5.22a5.732,5.732,0,0,0,3.312,5.13c1.134.468,1.98.054,1.98-.774,0-.558-.288-.522-.252-1.62a20.124,20.124,0,0,1,.828-3.546l-.378-.162a32.348,32.348,0,0,1-1.872,3.2.563.563,0,0,1-.72.162A2.992,2.992,0,0,1,76,29.078c0-2.268.954-3.258.954-4.14,0-.828-1.08-1.854-2-2.232a4.37,4.37,0,0,0-1.692-.234l-.09.2a3.086,3.086,0,0,1,1.386,2.556C74.556,26.45,74.376,28.034,74.5,29.456Zm11.322-1.89a19.692,19.692,0,0,1,.684,3.276.921.921,0,0,0,.918.684c.882,0,1.26-.612,1.26-1.746A5.4,5.4,0,0,0,87.1,25.874a5.829,5.829,0,0,0-4.032-1.728l-.09.306A5.246,5.246,0,0,1,85.824,27.566Zm7.47,8.928a2.547,2.547,0,1,0-2.556-2.556A2.55,2.55,0,0,0,93.294,36.494Zm0-4.446a1.9,1.9,0,0,1,0,3.8,1.9,1.9,0,1,1,0-3.8Zm15.714-8.73a3.82,3.82,0,0,0-.144,1.116,2.7,2.7,0,0,0,2.142,2.052c.5,0,.882-.4,1.26-.612a23.981,23.981,0,0,1,5.688-2.016c.18-.054.2.054.054.162a7.347,7.347,0,0,0-3.24,6.21c0,2.286.81,3.528,2.052,4.3a6.806,6.806,0,0,0,3.834.9c.828,0,1.728-.2,1.728-1.026A1.446,1.446,0,0,0,121,33.146a6.656,6.656,0,0,1-3.006-.45c-.63-.342-1.548-1.026-1.548-3.114A5.866,5.866,0,0,1,118.6,24.6a4.787,4.787,0,0,1,2.88-.756c.5,0,1.1.072,1.584.072a.86.86,0,0,0,.954-.81c0-.486-.36-.81-.846-1.026a3.623,3.623,0,0,0-1.53-.288,34.73,34.73,0,0,0-4.356.918,49.9,49.9,0,0,1-6.876,1.44c-.468,0-.864-.45-1.188-.9Zm12.978,1.692a7.5,7.5,0,0,1,1.638,1.656c.342.45.558.72.9.72a.559.559,0,0,0,.594-.63,1.375,1.375,0,0,0-.63-1.116,6.274,6.274,0,0,0-2.358-.882Zm-1.638,1.17a9.153,9.153,0,0,1,1.6,1.872c.288.414.522.684.81.7a.629.629,0,0,0,.666-.648,1.334,1.334,0,0,0-.5-1.026,6.145,6.145,0,0,0-2.412-1.134Zm9.738,1.746c0-.756,1.4-1.548,2.592-1.638-.18.828-.36,1.818-.522,2.808C130.9,28.916,130.086,28.52,130.086,27.926Zm6.228-.882c1.548,1.188,2.664,2.394,2.664,4.428a3.173,3.173,0,0,1-3.438,3.078c-1.656,0-2.664-.756-2.664-2.412,0-.324.036-.666.072-1.044a7.814,7.814,0,0,0,2.034.036c.756-.108,1.17-.45,1.17-.972,0-.63-.4-.918-1.062-.954-.414-.018-1.026,0-1.746-.018.252-1.008.576-2,.864-2.808a8.739,8.739,0,0,0,.972,0c.54-.036.882-.2.882-.7,0-.468-.306-.972-1.17-1.08a11.31,11.31,0,0,1,.666-1.332c.216-.378.522-.612.522-1.044,0-.63-1.3-1.746-2.412-1.746a4,4,0,0,0-1.278.216l-.018.288a5.25,5.25,0,0,1,.792.342.837.837,0,0,1,.486.81,16.451,16.451,0,0,1-.522,2.34,7.756,7.756,0,0,1-2.016-.378,3.5,3.5,0,0,1-1.71-1.386l-.216.126a2.82,2.82,0,0,0,1.044,2.142,3.489,3.489,0,0,0,1.17.612,3.615,3.615,0,0,0-2.124,2.736c0,1.08.954,2.088,2.628,2.556-.054.54-.09,1.008-.09,1.4,0,2.268,1.278,3.87,4.1,3.87,3.672,0,5.112-2.3,5.112-4.158,0-2.214-1.53-4.05-4.536-5.2Zm8.28,4.968a8.778,8.778,0,0,1,2.61,3.618,1.206,1.206,0,0,0,1.17.81,1.1,1.1,0,0,0,1.152-1.188,1.969,1.969,0,0,0-.378-1.206c-.666-1.008-1.98-1.836-4.392-2.268Zm22.752-10.494V24.2h-2.052V21.518Zm-2.052,5.958V24.722h2.052v2.754Zm0,3.312V28h2.052v2.79Zm0,.522h2.052v.846h.324c.99,0,1.62-.4,1.62-.522V21.7a1.17,1.17,0,0,0,.756-.378l-1.818-1.458L167.256,21H165.51l-2.088-.81V32.48h.324a2.849,2.849,0,0,0,.738-.09,11.411,11.411,0,0,1-1.962,4.014l.18.216a10.547,10.547,0,0,0,3.546-3.24c.432.036.594-.072.684-.252l-1.926-.918c.18-.09.288-.2.288-.252Zm1.278.954a5.809,5.809,0,0,1,.99,2.7c1.6,1.368,3.474-1.8-.828-2.808Zm9.882-6.552a18.984,18.984,0,0,1-1.422,5.2,12.133,12.133,0,0,1-1.854-5.2Zm.954-1.62-1.1,1.116h-3.87v-3.42h6.57c.252,0,.432-.09.486-.288-.738-.648-1.926-1.6-1.926-1.6l-1.08,1.386h-3.744l-2.2-.81v5.8c0,3.51-.2,7.236-2.178,10.188l.216.144c3.6-2.772,3.852-7,3.852-10.332v-.558h.414a19.774,19.774,0,0,0,1.422,6.624,11.414,11.414,0,0,1-3.924,3.942l.144.234a12.716,12.716,0,0,0,4.5-2.844,10.034,10.034,0,0,0,2.772,2.808,2.479,2.479,0,0,1,1.962-1.638l.036-.18a11.383,11.383,0,0,1-3.618-2.376,15.56,15.56,0,0,0,2.412-6.21c.414-.054.594-.126.72-.306Zm6.894.594a23.285,23.285,0,0,0,1.8-3.744c.414.018.648-.144.7-.378l-2.9-.864a28.821,28.821,0,0,1-3.654,9.27l.234.144a15.175,15.175,0,0,0,2.124-2.052V36.6h.4a2.458,2.458,0,0,0,1.728-.63V25.388c.342-.054.5-.18.558-.342Zm4.662-3.15h4.914v4.212h-4.914Zm3.582,8.73h4.086c.252,0,.468-.09.5-.288-.756-.7-2-1.71-2-1.71l-1.116,1.476h-1.476V26.27h1.332v.756h.378a2.583,2.583,0,0,0,1.746-.45v-4.9a.932.932,0,0,0,.684-.342L194.8,19.9l-1.008,1.134h-4.626l-2.232-.846v7.056h.36c1.062,0,1.674-.342,1.674-.486V26.27h1.476v7.038a4.3,4.3,0,0,1-2.016-1.836,14.664,14.664,0,0,0,.468-2.448c.45-.036.63-.2.684-.486L186.8,28.2c.072,2.592-.306,5.958-1.872,8.208l.162.18a8.64,8.64,0,0,0,3.15-4.5c1.044,3.114,2.97,3.942,6.282,3.942h2.106c0-.936.306-1.764.936-1.908v-.2c-.792.018-2.25.018-2.9.018a18.771,18.771,0,0,1-2.124-.108Zm11.3-2.07c-.468.9-1.386,2.628-1.836,3.276-.18.27-.342.252-.45-.018a2.592,2.592,0,0,1-.2-1.134,9.412,9.412,0,0,1,1.368-4.374,3.891,3.891,0,0,0,.684-1.692,3.351,3.351,0,0,0-1.53-2.34,4.082,4.082,0,0,0-1.422-.594l-.18.2a3.356,3.356,0,0,1,.936,2.124,10.785,10.785,0,0,1-.414,2.394,19.208,19.208,0,0,0-.792,4.626,7.2,7.2,0,0,0,1.1,4.32,1.681,1.681,0,0,0,1.224.81c.594,0,.918-.378.918-1.026,0-.54-.4-1.152-.4-1.8a8.872,8.872,0,0,1,.234-1.386c.162-.666.792-2.232,1.152-3.2Zm1.764,1.584a7.142,7.142,0,0,0,.018,1.512c.27,2.088,1.674,3.546,5.076,3.546,2.178,0,4-.234,4-1.35,0-.684-.81-1.026-1.584-1.026a15.184,15.184,0,0,1-2.934.342c-2.25,0-3.1-.468-3.8-1.71a5.706,5.706,0,0,1-.468-1.35Zm.576-4.824a10.694,10.694,0,0,1,2.916-.468c1.314,0,1.224.18,1.044.4-.306.342-1.206,1.1-2,1.764l.234.27a16.234,16.234,0,0,1,2.97-1.422,13.831,13.831,0,0,1,1.926-.324c.45-.09.684-.306.684-.756a1.11,1.11,0,0,0-.7-.99,5.249,5.249,0,0,0-2.556-.468,7.2,7.2,0,0,0-4.644,1.692Zm15.354,3.312c-.486.9-1.44,2.862-1.872,3.51-.162.27-.36.252-.468-.018a3.1,3.1,0,0,1-.2-1.26,10.564,10.564,0,0,1,1.4-4.824c.414-.828.7-1.188.7-1.692a3.465,3.465,0,0,0-1.548-2.358,3.9,3.9,0,0,0-1.422-.594l-.18.2a3.492,3.492,0,0,1,.936,2.142,9.169,9.169,0,0,1-.414,2.412,21.553,21.553,0,0,0-.792,4.878,7.687,7.687,0,0,0,1.116,4.482,1.622,1.622,0,0,0,1.206.81c.594,0,.918-.36.918-1.008,0-.558-.342-1.17-.342-1.818a8.322,8.322,0,0,1,.216-1.368c.2-.648.792-2.34,1.134-3.33Zm6.3,3.834c0,1.242-.432,1.872-2.25,1.872-.846,0-1.638-.288-1.638-.954,0-.756.99-1.188,2-1.188a7.156,7.156,0,0,1,1.89.234ZM225.918,22a6.184,6.184,0,0,1,1.3.306c.306.108.45.162.45.936l-.018,1.8a11.183,11.183,0,0,1-2.016.18,4.318,4.318,0,0,1-2.43-.828l-.216.2c.882,2,1.8,2.142,2.97,2.142a13.783,13.783,0,0,0,1.692-.108v.432c.018,1.188.09,2.52.144,3.582-.27-.018-.54-.036-.828-.036-2.07,0-3.888.774-3.888,2.556,0,1.548,1.44,2.394,3.06,2.394,2.412,0,3.492-.9,3.492-2.61V32.84a8.9,8.9,0,0,1,1.386,1.062c.594.558.864.846,1.278.846.486,0,.81-.36.81-.954a1.674,1.674,0,0,0-.612-1.188,6.512,6.512,0,0,0-3.024-1.692c-.09-1.026-.216-2.286-.216-3.816,0-.234,0-.486.018-.72a15.324,15.324,0,0,0,2.16-.558c.828-.342,1.134-.468,1.134-1.062,0-.558-.738-.864-1.386-.864-.108,0-.576.288-1.818.7.054-.5.108-.918.162-1.206.126-.648.306-.792.306-1.224,0-.522-1.134-1.152-2.34-1.152a3.5,3.5,0,0,0-1.62.72ZM6.768,62.548H6.03c.018-.414.036-.81.036-1.188V58.552H8.874c.252,0,.45-.09.486-.288-.792-.7-2.016-1.584-2.016-1.584l-1.08,1.35H3.708a14.546,14.546,0,0,0,.954-2.142.659.659,0,0,0,.7-.4L2.52,54.736a20.368,20.368,0,0,1-2,6.714l.216.144A10.471,10.471,0,0,0,3.4,58.552H4V61.36c0,.4,0,.792-.018,1.188H.63l.144.5H3.942A12.3,12.3,0,0,1,.5,71.458l.18.18a9.479,9.479,0,0,0,4.9-6.1A10.567,10.567,0,0,1,7.2,69.064c1.908,1.476,3.564-2.214-1.476-4.122a11.947,11.947,0,0,0,.27-1.89H9.252c.252,0,.45-.09.5-.288C9.036,62.08,7.83,61.09,7.83,61.09Zm5.058,6.03V57.652H14.58V68.578Zm3.6-12.564L14.4,57.13H11.9l-2.142-.918V70.99H10.1c.936,0,1.728-.522,1.728-.774V69.082H14.58V70.7h.342a2.925,2.925,0,0,0,1.764-.63V57.994a1.235,1.235,0,0,0,.738-.378Zm17.118.072a7.83,7.83,0,0,1,.864,2.754c1.44,1.35,3.33-1.476-.684-2.826Zm-9,.468c.252,0,.432-.09.486-.288-.612-.594-1.638-1.4-1.638-1.4l-.9,1.17H19.206l.144.522Zm-1.458,1.764h-3.51l.144.5h5.454c.252,0,.432-.072.486-.27-.63-.594-1.674-1.422-1.674-1.422Zm-.45,2.286H19.152l.144.522H23.58c.252,0,.432-.09.468-.288-.594-.558-1.566-1.35-1.566-1.35Zm0,2.358H19.152l.144.486H23.58c.252,0,.432-.09.468-.27-.594-.558-1.566-1.332-1.566-1.332Zm-.7,6.426V65.752h1.152v3.636Zm.99-4.14h-.918l-1.854-.774V71.62h.27c.756,0,1.512-.4,1.512-.576V69.91h1.152v.936h.306A2.456,2.456,0,0,0,23.9,70.27V65.986a.975.975,0,0,0,.612-.324L22.77,64.348Zm6.084-1.764v2.088H26.55V63.484ZM26.55,68.29v-2.2h1.458v2.2Zm1.458.522v.918H28.3a2.1,2.1,0,0,0,1.422-.576V63.718a1.133,1.133,0,0,0,.63-.324l-1.692-1.278L27.828,63H26.622l-1.8-.756v8.082h.27c.738,0,1.458-.4,1.458-.558v-.954Zm.018-7.668a11.722,11.722,0,0,0,1.692-2.34c.36,0,.558-.108.63-.306.018.918.054,1.8.09,2.646Zm5.292,1.206a13.494,13.494,0,0,1-.7,2.25,28.3,28.3,0,0,1-.288-2.952h2.826c.252,0,.414-.09.468-.288-.666-.648-1.8-1.566-1.8-1.566l-.99,1.35H32.31c-.072-1.782-.054-3.69,0-5.616.45-.072.612-.288.648-.522l-2.628-.288v2.3c-.486-.486-1.08-.99-1.08-.99l-.756,1.116h-.36v-1.6c.414-.072.558-.234.576-.45l-2.5-.216v2.268h-1.98l.144.5H30.2a.4.4,0,0,0,.144-.018v.828L28.08,57.85a20.647,20.647,0,0,1-.432,3.294H24.012l.144.5h6.318a26.19,26.19,0,0,0,.846,5.544A12.351,12.351,0,0,1,27.4,71.17l.162.216a12.241,12.241,0,0,0,4.248-2.808,10.071,10.071,0,0,0,.918,1.746c.5.792,1.728,1.692,2.61,1.062.324-.234.2-.864-.252-1.962l.378-3.078-.2-.036A21.972,21.972,0,0,1,34.4,68.4c-.162.342-.234.36-.414.054a7.082,7.082,0,0,1-.792-1.566,14.788,14.788,0,0,0,1.782-3.474c.468.018.63-.09.7-.288Zm-8.442-4.392A6.348,6.348,0,0,1,25.4,60.55c1.26,1.278,3.06-1.17-.306-2.682ZM47,63.16a2,2,0,1,0-2,2A2.005,2.005,0,0,0,47,63.16Zm10.278-8.442c-.288,1.206-.648,2.574-.954,3.564a6.135,6.135,0,0,0-1.674-.522l-.162.108a6.27,6.27,0,0,1,1.422,2.718c1.242.936,2.448-.774.918-1.98A17.811,17.811,0,0,0,59.256,56c.4.018.63-.126.7-.342Zm10.782,1.746a11.278,11.278,0,0,1-1.818,3.06,8.342,8.342,0,0,1-2.646-3.06Zm-7.938,6.39a5.035,5.035,0,0,1,.18,1.224,1.053,1.053,0,0,0,1.818-.936A15.192,15.192,0,0,0,66.2,61.324a12.506,12.506,0,0,0,3.834,2.3,2.062,2.062,0,0,1,1.584-1.62l.018-.2a16.543,16.543,0,0,1-4.122-1.494,11,11,0,0,0,2.718-3.546c.414-.054.612-.09.738-.27l-1.818-1.62L68.04,55.942H61.506l.162.522h1.548a11.059,11.059,0,0,0,2.142,3.978,12.8,12.8,0,0,1-3.33,2.322,3.854,3.854,0,0,0-2.574-2l-.2.09a7.856,7.856,0,0,1,.72,1.512c-.9.072-1.764.126-2.556.162a42.672,42.672,0,0,0,3.942-4.374c.414.036.648-.09.72-.306l-2.574-.99a50.164,50.164,0,0,1-2.79,5.706c-.936.054-1.71.09-2.2.108l.666,2a.73.73,0,0,0,.5-.4c.63-.2,1.224-.378,1.764-.54v1.836L55.494,65.1a19.734,19.734,0,0,1-1.008,4.914l.27.126a10.39,10.39,0,0,0,2.43-4.068,1.09,1.09,0,0,0,.27-.036V71.6H57.8c.972,0,1.584-.414,1.584-.54V63.106Zm-.594,2.268a8.53,8.53,0,0,1,.828,3.4c1.53,1.512,3.474-1.674-.63-3.474Zm9.162,5.436H67.23V66.4h3.438c.252,0,.45-.09.5-.288-.738-.648-1.926-1.6-1.926-1.6L68.184,65.9H67.23V63.52c.414-.072.54-.234.576-.432l-2.682-.234V65.9h-3.15l.144.5h3.006v4.158H60.7l.126.5H71.28c.252,0,.45-.09.5-.288-.756-.666-2-1.656-2-1.656Zm4.662-4.806a4.743,4.743,0,0,1-.738,2.754c-1.242,1.872,2.7,2.5,1.008-2.754Zm.972-.126a8.833,8.833,0,0,1,.2,3.186c.882,1.08,2.232-1.008.072-3.24Zm1.08-.288a7.06,7.06,0,0,1,.846,2.718c.954.918,2.07-1.1-.612-2.826Zm.828-1.656H75.114v-2H76.23Zm0-7.02v1.98H75.114v-1.98Zm0,4.5H75.114V59.146H76.23Zm7.344,1.35v1.854c0,.306,0,.612-.018.918H82.422V62.512Zm3.24,0v2.772H85.392a8.136,8.136,0,0,0,.036-.936V62.512Zm2.9-4.158c-1.584-.432-3.582-1.242-4.428-2.61.45-.054.612-.144.666-.342l-2.736-.576a12.513,12.513,0,0,1-3.546,5.814c-.36-.306-.648-.54-.648-.54l-.792,1.062H77.85V59.146h2.2c.252,0,.432-.09.468-.288-.54-.54-1.458-1.3-1.458-1.3l-.792,1.08H77.85v-1.98h2.484c.252,0,.432-.09.486-.288-.648-.612-1.746-1.422-1.746-1.422l-.918,1.188H75.348l-1.89-.738v9.846h.288c.846,0,1.368-.4,1.368-.522v-.54h3.474c-.036.594-.072,1.134-.126,1.62a2.83,2.83,0,0,0-1.818-.972l-.2.144a3.7,3.7,0,0,1,1.224,1.908.629.629,0,0,0,.648.09,4.563,4.563,0,0,1-.81,2.43.837.837,0,0,1-.594.162c-.324,0-1.062-.036-1.53-.09l-.018.288a1.953,1.953,0,0,1,1.08.5,1.638,1.638,0,0,1,.234,1.062,2.868,2.868,0,0,0,1.872-.576c.846-.684,1.332-2.43,1.584-6.336a1.3,1.3,0,0,0,.54-.144V66.76h.306c.882,0,1.44-.306,1.44-.432v-.54H83.5c-.252,2.214-1.26,4.05-4.518,5.562l.144.216c4.248-1.152,5.67-3.024,6.12-5.112.468,2.448,1.278,4.05,2.934,5.148a2.307,2.307,0,0,1,1.494-1.98l.018-.2a6.33,6.33,0,0,1-4.248-3.636h1.368v.756h.324a2.225,2.225,0,0,0,1.458-.378V62.62c.378-.072.54-.162.648-.324l-1.656-1.26-.828.954H85.428V60.406H87.1c.252,0,.432-.09.468-.288-.594-.54-1.548-1.332-1.548-1.332L85.158,59.9H81.576l.144.5h1.854V61.99H82.6l-1.926-.756V63.97l-1.4-1.152-.846.864H77.85v-2h2.178c.252,0,.432-.09.468-.288a6.982,6.982,0,0,0-.648-.576,11.155,11.155,0,0,0,5.22-4.9,7.731,7.731,0,0,0,3.312,4.482,2.141,2.141,0,0,1,1.332-1.836Zm13.05-1.206a7.9,7.9,0,0,1,1.62,1.836c.288.432.522.684.828.684a.639.639,0,0,0,.648-.666,1.241,1.241,0,0,0-.522-.99,5.7,5.7,0,0,0-2.394-1.116Zm-4.5,1.548c.252-.594.774-.864.774-1.368,0-.63-1.674-1.35-2.5-1.35a3.3,3.3,0,0,0-1.638.45v.27a4.283,4.283,0,0,1,1.332.432.546.546,0,0,1,.288.54,12.26,12.26,0,0,1-.756,2.7,27.059,27.059,0,0,1-3.276.576c-.468,0-.684-.4-1.008-.972l-.252.054a2.143,2.143,0,0,0-.2,1.242c.126.738.954,1.674,1.494,1.674a3.367,3.367,0,0,0,1.422-.468c.324-.144.756-.324,1.206-.5-.288.7-.594,1.422-.936,2.124a24.149,24.149,0,0,1-2.736,4.41,1.477,1.477,0,0,0-.414,1.17,1.014,1.014,0,0,0,.882,1.116c.486,0,.774-.18,1.17-.864.648-1.1,1.764-3.42,2.592-5.22.45-.972,1.008-2.268,1.494-3.456a5.22,5.22,0,0,1,1.3-.234c.846,0,1.152.486,1.152,1.458,0,1.8-.5,4.356-1.368,5.4a1.312,1.312,0,0,1-1.206.63,5.471,5.471,0,0,1-2.088-.774l-.162.234c.864.936.99,1.1,1.08,1.458.216.9.486,1.17,1.188,1.17a3.2,3.2,0,0,0,2.34-1.044c1.332-1.458,1.872-4.05,1.872-6.354,0-2.394-.936-3.258-2.376-3.258a10.941,10.941,0,0,0-1.224.108Zm3.78,1.476a3.363,3.363,0,0,1,2.088,1.53,4.214,4.214,0,0,1,.63,2.142.766.766,0,0,1-.558.864,17.094,17.094,0,0,1-1.764.5l.054.324a8.317,8.317,0,0,1,1.962.27c.594.234.63.81,1.26.792.792,0,1.188-.774,1.188-1.854a4.738,4.738,0,0,0-1.458-3.6,5.058,5.058,0,0,0-3.294-1.3Zm2.394-4.266a7.91,7.91,0,0,1,1.638,1.656c.36.45.558.738.9.738a.568.568,0,0,0,.594-.63,1.309,1.309,0,0,0-.63-1.116,5.885,5.885,0,0,0-2.34-.882Zm9-.828a8.337,8.337,0,0,1,3.618,3.762c2.25,1.314,4.14-3.69-3.546-3.96Zm-2.484,5.67a5.741,5.741,0,0,1-1.836,4.194,1.259,1.259,0,0,0-.432,1.656,1.309,1.309,0,0,0,2.07-.018c.9-.972,1.512-2.952.432-5.832Zm10.71,5.22h-.18a15.55,15.55,0,0,1-.936,2.592.734.734,0,0,1-.594.288c-.324.018-.918.036-1.674.036h-2.034c-.738,0-.918-.126-.918-.558V66.544a30.047,30.047,0,0,0,7.9-9.126c.468.072.648-.036.756-.234l-2.682-1.3a32.187,32.187,0,0,1-5.976,8.838V59.092c.414-.054.576-.252.612-.468l-2.754-.27v8.424a27.261,27.261,0,0,1-4.572,3.24l.162.216a27.283,27.283,0,0,0,4.41-2.214v.9c0,1.674.666,2.052,2.718,2.052h2.178c3.582,0,4.482-.414,4.482-1.4,0-.4-.18-.648-.828-.9Zm-.45-5.184a12.724,12.724,0,0,1,2.124,5.742c2.124,1.908,4.014-2.952-1.926-5.85Zm14.544-4.41v1.89H134.1v-1.89Zm3.708,2.394V61.7H137.79V58.768Zm-5.364,0h1.656V61.7H134.1Zm-3.6,0h1.6V61.7h-1.6Zm1.6-2.394v1.89h-1.44L128.43,57.4v5.94h.288c.846,0,1.782-.432,1.782-.612v-.5h8.964v.864h.36a3.531,3.531,0,0,0,1.728-.486V59.11a1.555,1.555,0,0,0,.72-.36l-2.016-1.53-.972,1.044H137.79v-1.89h4.95c.27,0,.468-.09.522-.288-.828-.648-2.07-1.512-2.07-1.512l-1.134,1.278H126.774l.144.522Zm5.04,8.64a7.1,7.1,0,0,1-1.548,2.682c-.99-.144-2.142-.27-3.438-.342.558-.756,1.152-1.584,1.674-2.34Zm3.078-.5h-6.048c.342-.486.63-.918.828-1.242.522,0,.756-.144.81-.4l-2.754-.612a17.482,17.482,0,0,1-1.368,2.25h-5.112l.144.5h4.626a41.354,41.354,0,0,1-2.556,3.366,3.307,3.307,0,0,0,2.178.486c.252-.306.558-.684.882-1.1.99.252,1.908.522,2.754.828-1.746,1.314-4.32,2.124-7.848,2.736l.054.252c4.644-.324,7.614-.99,9.594-2.3a20.887,20.887,0,0,1,3.744,2c1.908,1.17,4.32-1.656-2.34-3.186a9.517,9.517,0,0,0,1.8-3.078h3.348c.27,0,.45-.09.5-.288-.792-.684-2.088-1.638-2.088-1.638Zm7.074,6.984a2.547,2.547,0,1,0-2.556-2.556A2.55,2.55,0,0,0,147.294,71.494Zm0-4.446a1.9,1.9,0,0,1,0,3.8,1.9,1.9,0,1,1,0-3.8Zm20.628-6.228h2.862c.252,0,.432-.09.486-.288-.666-.666-1.8-1.62-1.8-1.62l-.99,1.4h-.558v-3.06c.756-.126,1.458-.27,2.034-.414.576.2,1.008.18,1.206,0l-2.3-2.106a28.667,28.667,0,0,1-6.21,2.862l.054.216c1.026-.036,2.106-.144,3.168-.27v2.772h-3.276l.144.5h2.88a18.284,18.284,0,0,1-3.24,7.236l.216.216a14.815,14.815,0,0,0,3.276-3.348V71.6h.378a2.082,2.082,0,0,0,1.674-.594V62.53a8.283,8.283,0,0,1,1.17,2.844c1.62,1.332,3.312-1.854-1.17-3.348Zm6.984,2.592a35.825,35.825,0,0,1,1.854,4.446c-1.836.18-3.618.324-5.094.432a63.434,63.434,0,0,0,4-11.808.725.725,0,0,0,.738-.558l-3.132-.7c-.27,2.826-1.206,8.694-2.142,13.1-.99.09-1.818.144-2.358.162l.99,2.61a.758.758,0,0,0,.54-.432c2.952-.954,5.094-1.71,6.624-2.322a13.9,13.9,0,0,1,.558,2.556c2.286,2.052,3.87-3.15-2.322-7.578Zm14.346-1.278c1.008-.2,1.494-1.854-.954-2.736h4.176c-.108.828-.288,1.926-.486,2.736Zm-4.212-3.258.144.522h2.394a4.453,4.453,0,0,1,.576,2.358,1.25,1.25,0,0,0,.684.378H185.6l.144.5h4.194v1.674h-3.708l.144.522h3.564v1.71h-4.644l.144.522h4.5v1.872h.36c1.062,0,1.692-.4,1.692-.5V67.066h4.734c.252,0,.432-.09.486-.288-.72-.63-1.89-1.494-1.89-1.494l-1.044,1.26h-2.286v-1.71H195.8c.252,0,.432-.09.486-.288-.684-.612-1.818-1.422-1.818-1.422l-.99,1.188h-1.494V62.638h4.284c.252,0,.45-.09.486-.288-.72-.612-1.854-1.44-1.854-1.44l-1.026,1.224h-1.44a21.029,21.029,0,0,0,2.124-1.962c.4,0,.594-.162.666-.378l-1.872-.4h3.582c.252,0,.432-.09.486-.288-.738-.63-1.926-1.512-1.926-1.512l-1.062,1.278h-2.448V57.22h3.744c.252,0,.45-.09.5-.288-.72-.63-1.908-1.512-1.908-1.512L193.284,56.7h-1.3V55.312c.378-.072.486-.216.522-.414l-2.574-.216V56.7h-3.78l.144.522h3.636v1.656Zm-3.87-3.51a7.3,7.3,0,0,1,1.71,3.384c1.98,1.44,3.762-2.52-1.566-3.492Zm3.492,7.974a1.484,1.484,0,0,0,.936-.36l-2.16-1.764-1.008,1.368h-1.89l.108.5H182.7v5.346c-.81.36-1.584.684-2.142.882l1.134,2.286a.4.4,0,0,0,.27-.45,35.524,35.524,0,0,0,2.5-3.024c1.206,2.556,2.592,3.078,6.03,3.078h5.652a1.8,1.8,0,0,1,1.35-1.746v-.216c-2.232.072-4.986.072-7.02.072-3.294,0-4.554-.18-5.814-1.476Zm18.126-7.308a3.383,3.383,0,0,1,.792.414.94.94,0,0,1,.45.828,8.523,8.523,0,0,1-.216,1.494,9.215,9.215,0,0,1-1.692.2,3.631,3.631,0,0,1-2.484-1.008l-.27.144c.5,2,1.188,2.448,2.682,2.448a10.443,10.443,0,0,0,1.26-.072,17.7,17.7,0,0,1-3.2,5.58,1.7,1.7,0,0,0-.432,1.17c0,.612.342,1.206.954,1.206.5,0,.864-.468,1.314-1.17a34.621,34.621,0,0,0,3.024-7.056,9.93,9.93,0,0,0,2.97-1.008.98.98,0,0,0,.558-.828.9.9,0,0,0-.936-.864c-.234,0-.648.342-1.962.774.522-1.548.7-2.106.342-2.394a3,3,0,0,0-1.692-.468,3.624,3.624,0,0,0-1.458.36ZM208.656,67.8c0,1.026-.72,1.6-2.052,1.6-1.26,0-1.746-.432-1.746-1.026,0-.576.684-1.242,2.142-1.242a6.869,6.869,0,0,1,1.656.18Zm.81-8.568a3.293,3.293,0,0,1,1.818.612c.18.144.252.306.162.468a5.994,5.994,0,0,0-2.16,1.458,3.676,3.676,0,0,0-.738,2.556c0,.486.018,1.044.054,1.62-.18-.018-.36-.018-.54-.018-2.628,0-4.068,1.332-4.068,2.79,0,1.332,1.188,2.34,3.168,2.34,2.07,0,3.294-.846,3.294-2.448,0-.216,0-.432-.018-.648a7.486,7.486,0,0,1,1.656,1.17c.7.612.954,1.116,1.494,1.116.414,0,.828-.306.828-1.008,0-.792-.792-1.548-1.926-2.142a8.717,8.717,0,0,0-2.268-.918c-.162-.972-.342-1.854-.414-2.376a2.494,2.494,0,0,1,.126-1.71,1.76,1.76,0,0,1,1.35-.594c.99-.018,1.476.522,2.178.522.576,0,.774-.414.774-.99a2.425,2.425,0,0,0-1.98-2.2,5.009,5.009,0,0,0-2.808.072Zm14.562-1.6c.162.216.144.378-.072.486a13.987,13.987,0,0,1-3.078.882,1.053,1.053,0,0,0-.828,1.152,10.481,10.481,0,0,1-.036,1.278c-.09.846-.378,2.628-.5,3.474a14,14,0,0,0-.234,1.44,1.594,1.594,0,0,0,.468,1.134,1.412,1.412,0,0,0,1.026.594c.594,0,.828-.72,1.278-1.35,1.026-1.3,3.186-3.492,5.2-3.492a2.337,2.337,0,0,1,2.394,2.448c0,1.476-.882,2.916-3.978,4.032a18.321,18.321,0,0,1-3.636.828l.036.36c4.518.414,9.72-1.008,9.72-4.518,0-1.926-1.44-3.906-4.338-3.906-2.448,0-4.68,1.476-5.958,2.3-.144.09-.216.054-.234-.144a15.589,15.589,0,0,1,.27-1.98,7.114,7.114,0,0,0,.126-1.476c-.054-.5-.324-.954-.324-1.242,0-.144.072-.288.4-.324a13.478,13.478,0,0,1,2.484-.162c.81.072,1.242.27,1.836.27a.734.734,0,0,0,.846-.81,2.734,2.734,0,0,0-1.6-2.412,6.207,6.207,0,0,0-3.636-.594l-.072.27A4.3,4.3,0,0,1,224.028,57.634Zm10.566,9.378a8.778,8.778,0,0,1,2.61,3.618,1.206,1.206,0,0,0,1.17.81,1.1,1.1,0,0,0,1.152-1.188,1.969,1.969,0,0,0-.378-1.206c-.666-1.008-1.98-1.836-4.392-2.268Zm-224.6,34.1-.774,3.15h-4.1c-.054-1.818-.054-3.636-.054-5.31V97.746c0-1.692,0-3.492.054-5.274l1.8-.18v-.648H.81v.648l1.71.162c.036,1.818.036,3.636.036,5.436V99.1c0,1.548,0,3.33-.036,5.112l-1.692.162L.81,105H10.926l.036-3.888Zm7.56-8.766c2.106,0,3.114,1.134,3.114,3.258,0,1.98-.972,3.348-3.24,3.348h-.882V97.89c0-1.872,0-3.726.054-5.544Zm-.162,7.308c4.158,0,5.67-1.818,5.67-4.05,0-2.448-1.6-3.96-5.4-3.96H12.294v.648l1.71.162c.036,1.818.036,3.636.036,5.436v.882c0,1.836,0,3.654-.036,5.436l-1.71.162V105h6.228v-.63l-1.926-.18c-.054-1.584-.054-3.132-.054-4.536ZM31.824,95.73H30.2V93.408H33.84c.252,0,.45-.09.486-.288-.684-.648-1.854-1.584-1.854-1.584L31.464,92.9H30.2V90.6c.468-.072.594-.252.648-.522l-2.61-.252V92.9H26.658a13.8,13.8,0,0,0,.828-1.53c.4-.018.612-.162.684-.4l-2.574-.72a24,24,0,0,1-1.3,5.058l.252.144a10.513,10.513,0,0,0,1.782-2.052h1.908V95.73H24.03l.144.522h4.068V98.34H26.8l-1.98-.792v7.614h.288c.756,0,1.584-.414,1.584-.594V98.844h1.548v7.722h.378c.738,0,1.584-.468,1.584-.684V98.844H31.77v3.888c0,.2-.054.288-.27.288-.234,0-.9-.054-.9-.054v.252a1.007,1.007,0,0,1,.792.558,3.146,3.146,0,0,1,.18,1.3c1.89-.162,2.124-.882,2.124-2.142V99.186a1.323,1.323,0,0,0,.738-.378l-1.98-1.458-.864.99H30.2V96.252h4.05c.252,0,.45-.09.5-.288-.72-.648-1.908-1.584-1.908-1.584ZM36.9,91.788c.432-.072.576-.234.612-.486l-2.43-.234v11.538h.342c.684,0,1.476-.378,1.476-.558Zm1.458-1.8v14.076c0,.234-.09.324-.378.324-.378,0-2.16-.108-2.16-.108v.252a2.234,2.234,0,0,1,1.512.648,2.454,2.454,0,0,1,.414,1.4c2.232-.2,2.52-.99,2.52-2.376V90.762c.432-.072.612-.234.666-.5Zm7.794,5a26.066,26.066,0,0,0,2.088-4c.4.018.63-.126.72-.36L46.1,89.682a30.375,30.375,0,0,1-4.176,9.5l.216.162a14.508,14.508,0,0,0,2.322-2.16V106.6h.4a2.561,2.561,0,0,0,1.728-.612V95.712c.342-.072.5-.2.558-.36Zm12.492-.936c.252,0,.45-.09.5-.288-.81-.7-2.142-1.746-2.142-1.746L55.818,93.57h-4.23a23.444,23.444,0,0,0,1.332-2.5c.414.036.648-.108.738-.342L50.76,89.7a29.029,29.029,0,0,1-3.708,8.5l.2.144a16.188,16.188,0,0,0,4.032-4.284h.432v12.528h.4c1.116,0,1.782-.432,1.782-.558v-4.212h4.392c.27,0,.468-.09.522-.288-.828-.72-2.16-1.782-2.16-1.782L55.44,101.31H53.892v-3.4h4.05c.252,0,.45-.09.5-.288-.774-.684-2.016-1.674-2.016-1.674l-1.1,1.44h-1.44v-3.33ZM72.216,92.13A9.049,9.049,0,0,1,73.818,94c.288.432.522.684.81.7a.644.644,0,0,0,.684-.648,1.327,1.327,0,0,0-.522-1.026A5.937,5.937,0,0,0,72.4,91.9Zm-1.332,7.164a10.554,10.554,0,0,1,2.2-.576,6.581,6.581,0,0,1,1.188-.144c.774-.018,1.116-.288,1.116-.792a1.358,1.358,0,0,0-.756-1.116,4.869,4.869,0,0,0-2.34-.5,7.277,7.277,0,0,0-3.852,1.17l.108.27a13.081,13.081,0,0,1,2.124-.234,5.673,5.673,0,0,1,1.548.2c.144.054.18.144.09.252a15.877,15.877,0,0,1-1.584,1.242ZM67.122,93.84c.414-1.368.792-1.71.792-2.2-.018-.486-1.17-1.062-2.268-1.062a3.5,3.5,0,0,0-1.476.306l-.018.27a3.438,3.438,0,0,1,1.062.522c.306.234.36.378.342.828a19.4,19.4,0,0,1-.342,2.088A10.869,10.869,0,0,1,63,94.812a3.478,3.478,0,0,1-2.214-.882l-.216.162c.576,1.962,1.4,2.3,2.772,2.3A11.141,11.141,0,0,0,64.8,96.27c-.144.522-.288,1.026-.432,1.44a25.239,25.239,0,0,1-2.322,5c-.5.846-.954,1.1-.954,1.836s.432,1.332.972,1.332c.666,0,.918-.378,1.242-.99a54.186,54.186,0,0,0,2.5-6.57c.27-.774.5-1.62.72-2.376a26.813,26.813,0,0,0,2.808-.828c1.314-.468,1.71-.756,1.71-1.26,0-.7-.882-.954-1.332-.954a3.036,3.036,0,0,0-.792.414,10.621,10.621,0,0,1-1.872.792Zm.342,7.02a5.866,5.866,0,0,0-.036,1.782c.2,2.016,1.782,3.132,4.536,3.132a10.392,10.392,0,0,0,2.574-.27c.72-.162,1.17-.486,1.17-.954,0-.774-.846-1.1-1.548-1.1a13.11,13.11,0,0,1-2.628.342,3.463,3.463,0,0,1-3.2-1.332,3.96,3.96,0,0,1-.558-1.62ZM73.854,91a7.911,7.911,0,0,1,1.638,1.656c.342.432.54.72.882.72a.573.573,0,0,0,.612-.63,1.375,1.375,0,0,0-.63-1.116A6.152,6.152,0,0,0,74,90.744Zm6.642,7.47a2.968,2.968,0,0,0,.054,1.116,2.344,2.344,0,0,0,1.8,1.35c.468,0,.792-.324,1.566-.954.738-.558,2.574-2.484,4.428-2.484a2.282,2.282,0,0,1,2.286,2.448c0,2.664-3.132,4.086-6.678,4.482l.036.306c1.98.18,4.554.036,6.1-.828a4.043,4.043,0,0,0,2.466-3.69,3.867,3.867,0,0,0-4.158-3.6c-2.3,0-4.356,1.386-6.1,2.088a1.884,1.884,0,0,1-.72.2,1.321,1.321,0,0,1-.9-.5ZM96.822,93.3a3.82,3.82,0,0,0-.144,1.116,2.7,2.7,0,0,0,2.142,2.052c.5,0,.882-.4,1.26-.612a23.981,23.981,0,0,1,5.688-2.016c.18-.054.2.054.054.162a7.347,7.347,0,0,0-3.24,6.21c0,2.286.81,3.528,2.052,4.3a6.806,6.806,0,0,0,3.834.9c.828,0,1.728-.2,1.728-1.026a1.446,1.446,0,0,0-1.386-1.26,6.656,6.656,0,0,1-3.006-.45c-.63-.342-1.548-1.026-1.548-3.114a5.866,5.866,0,0,1,2.16-4.986,4.787,4.787,0,0,1,2.88-.756c.5,0,1.1.072,1.584.072a.86.86,0,0,0,.954-.81c0-.486-.36-.81-.846-1.026a3.623,3.623,0,0,0-1.53-.288,34.73,34.73,0,0,0-4.356.918,49.9,49.9,0,0,1-6.876,1.44c-.468,0-.864-.45-1.188-.9Zm28.206,6.012a20.147,20.147,0,0,1,2.43,3.654c-2.376.216-4.626.4-6.5.54a37.171,37.171,0,0,0,3.636-7.92.667.667,0,0,0,.666-.486l-3.132-.522a66.509,66.509,0,0,1-1.782,8.982c-1.3.09-2.376.162-3.078.18l1.044,2.484a.891.891,0,0,0,.54-.432c3.924-.936,6.768-1.692,8.856-2.34a11.139,11.139,0,0,1,.864,2.538c2.412,1.89,4.086-3.528-3.348-6.786Zm2.736-6.462h-3.636V90.42c.486-.072.63-.252.666-.5L122,89.7v3.15H118.35l-2.448-.864v4.3c0,3.2-.144,7.074-1.836,10.188l.18.126c3.528-2.844,3.78-7.308,3.78-10.314V93.372H130.41c.27,0,.45-.09.5-.288-.756-.72-2.016-1.764-2.016-1.764Zm9.216,11.718V100.23h7.074v4.338Zm6.894-4.86h-6.75l-2.214-.882v7.758h.288c.864,0,1.782-.45,1.782-.648v-.864h7.074v1.368h.36a3.46,3.46,0,0,0,1.764-.5v-5.328a1.528,1.528,0,0,0,.792-.4l-2.106-1.584Zm1.692-2.772H141.66v-3.4H147.1a.453.453,0,0,0,.486-.288c-.81-.756-2.214-1.818-2.214-1.818l-1.242,1.584H141.66V90.438c.486-.072.63-.252.666-.5l-2.862-.252v3.33h-2.826A12.891,12.891,0,0,0,137.61,91c.4,0,.612-.162.684-.378l-2.862-.774a18.452,18.452,0,0,1-2.034,6.444l.216.162a10.462,10.462,0,0,0,2.7-2.916h3.15v3.4H132.21l.144.522h16.092c.27,0,.45-.09.5-.288-.81-.756-2.178-1.836-2.178-1.836Zm17.73-1.062v1.494h-1.782V95.874Zm-1.782,3.6V97.89H163.3v1.584Zm-3.726,0V97.89h1.728v1.584Zm1.728-3.6v1.494h-1.728V95.874Zm4.824-4.446c-.054.306-.09.63-.144.954l-.954,1.152h-1.728v-.882c.486-.072.612-.252.666-.5l-2.664-.27v1.656h-4.374l.144.486h4.23v1.35h-1.638l-2.07-.846v6.426h.288c.81,0,1.692-.432,1.692-.63v-.342h1.728v1.782h-4.878l.144.522h4.734v1.836h.36c.774,0,1.638-.414,1.638-.594v-1.242H166.5c.252,0,.45-.09.486-.288-.738-.648-1.908-1.548-1.908-1.548l-1.062,1.314h-2.5V99.978H163.3v.666h.342a2.806,2.806,0,0,0,1.656-.558v-3.87a1.219,1.219,0,0,0,.738-.378l-1.98-1.512-.936,1.044h-1.6V94.02h4.1c.252,0,.432-.09.486-.27-.36-.288-.792-.648-1.17-.918a13.144,13.144,0,0,0,1.44-1.008c.36-.018.558-.072.684-.216l-1.818-1.764-1.044,1.08H157a4.561,4.561,0,0,0-.324-1.08h-.252a1.594,1.594,0,0,1-1.026,1.44,1.139,1.139,0,0,0-.864,1.332,1.11,1.11,0,0,0,1.53.7,1.884,1.884,0,0,0,.99-1.89ZM150.462,90.42a7.718,7.718,0,0,1,1.638,3.69c1.98,1.6,3.888-2.448-1.476-3.816Zm3.762,7.92a1.484,1.484,0,0,0,.936-.36L153,96.216l-1.008,1.368H150.1l.108.5h2.052v5.346c-.81.36-1.584.684-2.142.882l1.134,2.286a.4.4,0,0,0,.27-.45,35.524,35.524,0,0,0,2.5-3.024c1.224,2.556,2.628,3.078,6.1,3.078h5.688a1.813,1.813,0,0,1,1.368-1.746v-.216c-2.25.072-5.04.072-7.092.072-3.33,0-4.59-.18-5.868-1.476Zm23.382,1.332V95.838h3.618v3.834Zm-5.454,0a24.218,24.218,0,0,0,.144-2.988v-.846h3.222v3.834Zm3.366-8.046v3.69H172.3v-3.69Zm5.706,0v3.69h-3.618v-3.69Zm.81-1.692-1.008,1.188H172.62l-2.412-.864V96.7c0,3.4-.18,6.876-2.106,9.612l.2.144a8.707,8.707,0,0,0,3.78-6.282h3.438v6.192h.378c1.08,0,1.71-.45,1.71-.576v-5.616h3.618v3.564c0,.252-.09.378-.4.378-.36,0-2.124-.126-2.124-.126v.252a2.458,2.458,0,0,1,1.53.7,2.713,2.713,0,0,1,.4,1.458c2.394-.216,2.7-1.008,2.7-2.448V92.04a1.405,1.405,0,0,0,.81-.432Zm16.182,2.2a9.049,9.049,0,0,1,1.6,1.872c.288.432.522.684.81.7a.644.644,0,0,0,.684-.648,1.327,1.327,0,0,0-.522-1.026A5.937,5.937,0,0,0,198.4,91.9Zm-1.332,7.164a10.554,10.554,0,0,1,2.2-.576,6.581,6.581,0,0,1,1.188-.144c.774-.018,1.116-.288,1.116-.792a1.358,1.358,0,0,0-.756-1.116,4.869,4.869,0,0,0-2.34-.5,7.277,7.277,0,0,0-3.852,1.17l.108.27a13.081,13.081,0,0,1,2.124-.234,5.673,5.673,0,0,1,1.548.2c.144.054.18.144.09.252a15.878,15.878,0,0,1-1.584,1.242Zm-3.762-5.454c.414-1.368.792-1.71.792-2.2-.018-.486-1.17-1.062-2.268-1.062a3.5,3.5,0,0,0-1.476.306l-.018.27a3.438,3.438,0,0,1,1.062.522c.306.234.36.378.342.828a19.4,19.4,0,0,1-.342,2.088,10.869,10.869,0,0,1-2.214.216,3.478,3.478,0,0,1-2.214-.882l-.216.162c.576,1.962,1.4,2.3,2.772,2.3a11.142,11.142,0,0,0,1.458-.126c-.144.522-.288,1.026-.432,1.44a25.24,25.24,0,0,1-2.322,5c-.5.846-.954,1.1-.954,1.836s.432,1.332.972,1.332c.666,0,.918-.378,1.242-.99a54.187,54.187,0,0,0,2.5-6.57c.27-.774.5-1.62.72-2.376a26.814,26.814,0,0,0,2.808-.828c1.314-.468,1.71-.756,1.71-1.26,0-.7-.882-.954-1.332-.954a3.037,3.037,0,0,0-.792.414,10.621,10.621,0,0,1-1.872.792Zm.342,7.02a5.867,5.867,0,0,0-.036,1.782c.2,2.016,1.782,3.132,4.536,3.132a10.392,10.392,0,0,0,2.574-.27c.72-.162,1.17-.486,1.17-.954,0-.774-.846-1.1-1.548-1.1a13.11,13.11,0,0,1-2.628.342,3.463,3.463,0,0,1-3.2-1.332,3.96,3.96,0,0,1-.558-1.62ZM199.854,91a7.911,7.911,0,0,1,1.638,1.656c.342.432.54.72.882.72a.573.573,0,0,0,.612-.63,1.375,1.375,0,0,0-.63-1.116A6.153,6.153,0,0,0,200,90.744Zm6.642,7.47a2.968,2.968,0,0,0,.054,1.116,2.344,2.344,0,0,0,1.8,1.35c.468,0,.792-.324,1.566-.954.738-.558,2.574-2.484,4.428-2.484a2.282,2.282,0,0,1,2.286,2.448c0,2.664-3.132,4.086-6.678,4.482l.036.306c1.98.18,4.554.036,6.1-.828a4.043,4.043,0,0,0,2.466-3.69,3.867,3.867,0,0,0-4.158-3.6c-2.3,0-4.356,1.386-6.1,2.088a1.884,1.884,0,0,1-.72.2,1.321,1.321,0,0,1-.9-.5ZM222.822,93.3a3.821,3.821,0,0,0-.144,1.116,2.7,2.7,0,0,0,2.142,2.052c.5,0,.882-.4,1.26-.612a23.981,23.981,0,0,1,5.688-2.016c.18-.054.2.054.054.162a7.347,7.347,0,0,0-3.24,6.21c0,2.286.81,3.528,2.052,4.3a6.806,6.806,0,0,0,3.834.9c.828,0,1.728-.2,1.728-1.026a1.446,1.446,0,0,0-1.386-1.26,6.656,6.656,0,0,1-3.006-.45c-.63-.342-1.548-1.026-1.548-3.114a5.866,5.866,0,0,1,2.16-4.986,4.787,4.787,0,0,1,2.88-.756c.5,0,1.1.072,1.584.072a.86.86,0,0,0,.954-.81c0-.486-.36-.81-.846-1.026a3.623,3.623,0,0,0-1.53-.288,34.73,34.73,0,0,0-4.356.918,49.9,49.9,0,0,1-6.876,1.44c-.468,0-.864-.45-1.188-.9ZM242.5,106.494a2.547,2.547,0,1,0-2.556-2.556A2.55,2.55,0,0,0,242.5,106.494Zm0-4.446a1.9,1.9,0,0,1,0,3.8,1.9,1.9,0,1,1,0-3.8Z" transform="translate(25 649)" fill="#333"/>
      <g id="グループ_5417" data-name="グループ 5417" transform="translate(18.425 154.022)">
        <path id="パス_9580" data-name="パス 9580" d="M13.14,12.812A5.855,5.855,0,0,1,16.6,15.26c.216.5.036.756-.468.864-.828.144-3.024.324-5.148.5-1.332.072-3.78-.072-3.924,2.556-.108,1.368.756,2.052,1.62,3.1.432.54.9,1.188,1.44,1.944-.864.432-1.692.864-2.52,1.3a10.689,10.689,0,0,1-3.456,1.3A3.011,3.011,0,0,1,2.016,25.34l-.54.252a4.073,4.073,0,0,0,.5,3.2A5.479,5.479,0,0,0,5.76,30.92c1.188,0,1.764-.9,3.06-1.908.9-.684,1.908-1.4,2.952-2.124a36.947,36.947,0,0,1,3.744,9.252c.576,2.2.864,4.1,1.26,5.328.4,1.368,1.008,1.98,2.088,1.98,1.3,0,2.16-1.044,2.16-2.556a17.1,17.1,0,0,0-1.44-5.364A76.664,76.664,0,0,0,14.4,25.16c4-2.556,8.424-4.788,11.52-4.788,2.448,0,4.536,1.62,4.536,4,0,2.808-2.124,4.392-5.04,4.392A9.966,9.966,0,0,1,18.5,26.1l-.5.4c2.088,3.492,4.932,5.472,8.172,5.472,4.68,0,7.812-2.7,7.812-6.444,0-3.708-2.988-6.66-7.884-6.66-3.636,0-8.388,1.764-13.212,4.032-1.224-1.656-2.7-3.276-2.7-4,0-.792.612-.936,1.512-.972a39.236,39.236,0,0,1,5.9.288,15.169,15.169,0,0,0,2.412.5,1.494,1.494,0,0,0,1.62-1.62,3.974,3.974,0,0,0-1.188-2.772c-1.116-1.188-3.42-2.376-7.164-2.052Zm32.652,17.6c-.072,2.376-.036,4.608-.072,5.868-.036.684-.324.792-.828.36-.36-.36-1.188-1.152-1.944-1.872Zm25.6,3.492C69.3,35.564,67.5,36.392,65.34,36.392c-1.584,0-2.232-.72-2.232-2.592,0-3.744,1.368-7.416,1.368-10.764,0-3.6-1.368-5.652-4.9-5.652-2.808,0-5.976,1.944-8.5,4.032a1.294,1.294,0,0,0,.072-.4c0-.324-.648-1.044-1.3-1.584.216-.684.4-1.26.576-1.692.468-1.152.936-1.692.936-2.52,0-1.332-2.448-3.456-4.428-3.456a6.643,6.643,0,0,0-2.88.684v.612a9.961,9.961,0,0,1,2.232.864c.648.36.756.576.756,1.368s-.18,2.448-.4,4.428c-1.908.972-5,2.448-6.12,2.448-.828,0-1.4-.684-2.016-1.548l-.5.144a6.522,6.522,0,0,0,.036,2.052c.468,1.512,2.412,3.384,4.032,3.384.756,0,1.116-1.044,1.836-1.584.5-.324,1.44-.864,2.376-1.4-.072.684-.144,1.368-.18,2.052a80.967,80.967,0,0,1-7.452,9.36A3.5,3.5,0,0,0,37.62,37.22c0,1.26.792,2.016,1.584,1.98.9,0,1.44-.864,2.088-1.872L42.408,35.6a16.075,16.075,0,0,1,1.584,2.952,16.412,16.412,0,0,1,.792,2.952A1.7,1.7,0,0,0,46.656,43.2c1.368,0,2.448-1.692,2.448-3.816,0-1.008-.252-1.98-.4-3.42a52.176,52.176,0,0,1-.324-8.784q.054-.54.108-1.188c2.952-3.816,6.768-6.84,9.828-6.84,1.764,0,2.268,1.188,2.268,3.384,0,3.96-1.368,7.812-1.368,12.132,0,3.816,1.728,5.436,4.644,5.436,3.96,0,6.624-3.1,7.92-5.8Zm17.748,5.58c-2.772,0-4.428-.864-4.428-2.232,0-1.116.9-1.8,2.268-1.8,1.98,0,3.42,1.548,3.852,3.96C90.288,39.452,89.748,39.488,89.136,39.488Zm-8.1-25.668a7.715,7.715,0,0,0-.288,2.34c.108,1.26,1.728,3.708,3.852,3.708a4.152,4.152,0,0,0,2.052-.972,19.227,19.227,0,0,1,4.932-2.232c.576-.108.936.144.324.936-1.872,2.556-9.432,9.684-12.96,13.14-1.188,1.152-1.764,1.944-1.836,2.916-.072,1.368.72,2.3,1.512,2.34.9.036,1.26-.288,2.124-1.4,3.06-3.96,6.516-7.56,11.448-7.56,4.14,0,6.264,2.448,6.228,5.616a6.323,6.323,0,0,1-4.248,6.012,6.282,6.282,0,0,0-6.264-4.9c-2.664,0-4.824,1.548-4.824,3.924,0,3.132,3.132,4.968,7.344,4.968,7.416,0,11.7-3.888,11.736-8.712.036-5.4-4.032-8.424-8.892-8.424a17.385,17.385,0,0,0-6.012,1.224c-.36.108-.576-.144-.18-.54a66.939,66.939,0,0,1,8.172-6.8c1.188-.828,2.448-1.116,2.448-2.124,0-1.548-2.844-3.816-4.536-3.816-.756,0-.756.54-2.16,1.008a37.07,37.07,0,0,1-7.02,1.512c-.936,0-1.836-1.044-2.448-2.2Zm43.92,4.248c.5-1.188,1.548-1.728,1.548-2.736,0-1.26-3.348-2.7-5-2.7a6.6,6.6,0,0,0-3.276.9v.54a8.567,8.567,0,0,1,2.664.864,1.093,1.093,0,0,1,.576,1.08,24.52,24.52,0,0,1-1.512,5.4,54.117,54.117,0,0,1-6.552,1.152c-.936,0-1.368-.792-2.016-1.944l-.5.108a4.286,4.286,0,0,0-.4,2.484c.252,1.476,1.908,3.348,2.988,3.348a6.735,6.735,0,0,0,2.844-.936c.648-.288,1.512-.648,2.412-1.008-.576,1.4-1.188,2.844-1.872,4.248a48.3,48.3,0,0,1-5.472,8.82,2.954,2.954,0,0,0-.828,2.34,2.028,2.028,0,0,0,1.764,2.232c.972,0,1.548-.36,2.34-1.728,1.3-2.2,3.528-6.84,5.184-10.44.9-1.944,2.016-4.536,2.988-6.912a10.439,10.439,0,0,1,2.592-.468c1.692,0,2.3.972,2.3,2.916,0,3.6-1.008,8.712-2.736,10.8a2.624,2.624,0,0,1-2.412,1.26A10.942,10.942,0,0,1,118.4,36.14l-.324.468c1.728,1.872,1.98,2.2,2.16,2.916.432,1.8.972,2.34,2.376,2.34a6.391,6.391,0,0,0,4.68-2.088c2.664-2.916,3.744-8.1,3.744-12.708,0-4.788-1.872-6.516-4.752-6.516a21.883,21.883,0,0,0-2.448.216Zm7.56,2.952a6.726,6.726,0,0,1,4.176,3.06,8.427,8.427,0,0,1,1.26,4.284,1.531,1.531,0,0,1-1.116,1.728,34.188,34.188,0,0,1-3.528,1.008l.108.648a16.634,16.634,0,0,1,3.924.54c1.188.468,1.26,1.62,2.52,1.584,1.584,0,2.376-1.548,2.376-3.708a9.476,9.476,0,0,0-2.916-7.2,10.116,10.116,0,0,0-6.588-2.592Zm27.54-4.752c.324.432.288.756-.144.972A27.974,27.974,0,0,1,153.756,19a2.106,2.106,0,0,0-1.656,2.3,20.956,20.956,0,0,1-.072,2.556c-.18,1.692-.756,5.256-1.008,6.948a27.994,27.994,0,0,0-.468,2.88,3.188,3.188,0,0,0,.936,2.268,2.823,2.823,0,0,0,2.052,1.188c1.188,0,1.656-1.44,2.556-2.7,2.052-2.592,6.372-6.984,10.4-6.984a4.673,4.673,0,0,1,4.788,4.9c0,2.952-1.764,5.832-7.956,8.064a36.643,36.643,0,0,1-7.272,1.656l.072.72c9.036.828,19.44-2.016,19.44-9.036,0-3.852-2.88-7.812-8.676-7.812-4.9,0-9.36,2.952-11.916,4.608-.288.18-.432.108-.468-.288a31.172,31.172,0,0,1,.54-3.96,14.225,14.225,0,0,0,.252-2.952c-.108-1.008-.648-1.908-.648-2.484,0-.288.144-.576.792-.648a26.955,26.955,0,0,1,4.968-.324c1.62.144,2.484.54,3.672.54a1.469,1.469,0,0,0,1.692-1.62c0-2.088-1.152-3.636-3.2-4.824-1.476-.864-3.708-1.44-7.272-1.188l-.144.54C157.392,14.108,159.12,14.792,160.056,16.268Zm21.132,18.756a17.556,17.556,0,0,1,5.22,7.236,2.412,2.412,0,0,0,2.34,1.62,2.193,2.193,0,0,0,2.3-2.376,3.938,3.938,0,0,0-.756-2.412c-1.332-2.016-3.96-3.672-8.784-4.536Zm37.152-19.08h13.392V20.3H220.968l.288,1.008h25.992c.5,0,.9-.18,1.008-.576-1.548-1.44-4.176-3.456-4.176-3.456L241.74,20.3h-5.616V15.944h13.284c.5,0,.9-.18,1.008-.576-1.584-1.4-4.176-3.456-4.176-3.456l-2.3,3.024h-7.812V11.984c1.116-.144,1.4-.54,1.476-1.116l-5.868-.432v4.5h-13.68ZM244.548,26.1a52.1,52.1,0,0,1-1.764,5.076l.288.252a38.709,38.709,0,0,0,6.192-4.392,2.009,2.009,0,0,0,1.44-.432l-4-3.852-2.34,2.34H223.416a13.262,13.262,0,0,0-.72-2.232h-.468a5.621,5.621,0,0,1-2.808,5.04,2.354,2.354,0,0,0-1.548,2.916A2.385,2.385,0,0,0,221.4,31.82c1.4-.828,2.52-2.844,2.2-5.724ZM217.224,44.2c12.2-2.484,14.472-7.776,14.868-14.508.864-.072,1.224-.432,1.332-1.008l-5.868-.576c.5,6.336-.72,12.2-10.548,15.624Zm32.4-9.792h-.4a37.318,37.318,0,0,1-1.62,4.644.868.868,0,0,1-.9.468c-.468.036-1.44.036-2.592.036h-3.1c-1.044,0-1.224-.144-1.224-.684v-9.4c.72-.108,1.08-.432,1.116-.9l-5.22-.468V39.884c0,2.808.792,3.528,4.392,3.528h3.6c5.832,0,7.416-.756,7.416-2.484,0-.756-.252-1.224-1.368-1.692Zm12.168-4c-.072,2.376-.036,4.608-.072,5.868-.036.684-.324.792-.828.36-.36-.36-1.188-1.152-1.944-1.872Zm25.6,3.492c-2.088,1.656-3.888,2.484-6.048,2.484-1.584,0-2.232-.72-2.232-2.592,0-3.744,1.368-7.416,1.368-10.764,0-3.6-1.368-5.652-4.9-5.652-2.808,0-5.976,1.944-8.5,4.032a1.294,1.294,0,0,0,.072-.4c0-.324-.648-1.044-1.3-1.584.216-.684.4-1.26.576-1.692.468-1.152.936-1.692.936-2.52,0-1.332-2.448-3.456-4.428-3.456a6.643,6.643,0,0,0-2.88.684v.612a9.96,9.96,0,0,1,2.232.864c.648.36.756.576.756,1.368s-.18,2.448-.4,4.428c-1.908.972-5,2.448-6.12,2.448-.828,0-1.4-.684-2.016-1.548l-.5.144a6.521,6.521,0,0,0,.036,2.052c.468,1.512,2.412,3.384,4.032,3.384.756,0,1.116-1.044,1.836-1.584.5-.324,1.44-.864,2.376-1.4-.072.684-.144,1.368-.18,2.052a80.965,80.965,0,0,1-7.452,9.36,3.5,3.5,0,0,0-1.044,2.592c0,1.26.792,2.016,1.584,1.98.9,0,1.44-.864,2.088-1.872l1.116-1.728a16.074,16.074,0,0,1,1.584,2.952,16.412,16.412,0,0,1,.792,2.952,1.7,1.7,0,0,0,1.872,1.692c1.368,0,2.448-1.692,2.448-3.816,0-1.008-.252-1.98-.4-3.42a52.174,52.174,0,0,1-.324-8.784q.054-.54.108-1.188c2.952-3.816,6.768-6.84,9.828-6.84,1.764,0,2.268,1.188,2.268,3.384,0,3.96-1.368,7.812-1.368,12.132,0,3.816,1.728,5.436,4.644,5.436,3.96,0,6.624-3.1,7.92-5.8Zm17.748,5.58c-2.772,0-4.428-.864-4.428-2.232,0-1.116.9-1.8,2.268-1.8,1.98,0,3.42,1.548,3.852,3.96C306.288,39.452,305.748,39.488,305.136,39.488Zm-8.1-25.668a7.716,7.716,0,0,0-.288,2.34c.108,1.26,1.728,3.708,3.852,3.708a4.153,4.153,0,0,0,2.052-.972,19.226,19.226,0,0,1,4.932-2.232c.576-.108.936.144.324.936-1.872,2.556-9.432,9.684-12.96,13.14-1.188,1.152-1.764,1.944-1.836,2.916-.072,1.368.72,2.3,1.512,2.34.9.036,1.26-.288,2.124-1.4,3.06-3.96,6.516-7.56,11.448-7.56,4.14,0,6.264,2.448,6.228,5.616a6.323,6.323,0,0,1-4.248,6.012,6.282,6.282,0,0,0-6.264-4.9c-2.664,0-4.824,1.548-4.824,3.924,0,3.132,3.132,4.968,7.344,4.968,7.416,0,11.7-3.888,11.736-8.712.036-5.4-4.032-8.424-8.892-8.424a17.385,17.385,0,0,0-6.012,1.224c-.36.108-.576-.144-.18-.54a66.94,66.94,0,0,1,8.172-6.8c1.188-.828,2.448-1.116,2.448-2.124,0-1.548-2.844-3.816-4.536-3.816-.756,0-.756.54-2.16,1.008a37.07,37.07,0,0,1-7.02,1.512c-.936,0-1.836-1.044-2.448-2.2Zm33.552,30.168a5.094,5.094,0,1,0-5.112-5.112A5.1,5.1,0,0,0,330.588,43.988Zm0-8.892a3.8,3.8,0,0,1,0,7.6,3.8,3.8,0,1,1,0-7.6Z" transform="translate(-0.425 50.978)" fill="#333"/>
      </g>
      <path id="パス_9579" data-name="パス 9579" d="M0,0H180.5" transform="translate(18 259.5)" fill="none" stroke="#333" stroke-width="3"/>
    </g>
  </g>
</svg>
