<svg xmlns="http://www.w3.org/2000/svg" xmlns:xlink="http://www.w3.org/1999/xlink" width="1920" height="760.111" viewBox="0 0 1920 760.111">
  <defs>
    <clipPath id="clip-path">
      <path id="パス_790" data-name="パス 790" d="M0,0H1920V760.111H0Z" transform="translate(0 0)" fill="#8abcd7"/>
    </clipPath>
  </defs>
  <g id="グループ_2463" data-name="グループ 2463" transform="translate(0 -8290)">
    <g id="マスクグループ_1" data-name="マスクグループ 1" transform="translate(0 8290)" clip-path="url(#clip-path)">
      <g id="Colored_Shapes" data-name="Colored Shapes" transform="translate(-55.095 0)">
        <rect id="長方形_3051" data-name="長方形 3051" width="1920" height="760" transform="translate(55.095)" fill="#f5f5f5"/>
        <path id="パス_798" data-name="パス 798" d="M899.38,557.843c0,41.561,44.505,75.254,99.4,75.254s99.4-33.692,99.4-75.254-44.505-75.254-99.4-75.254-99.4,33.692-99.4,75.254Z" transform="translate(122.111 2.951)" fill="none" stroke="#1d2a56" stroke-width="1"/>
        <path id="パス_799" data-name="パス 799" d="M1171.068,318.2c-8.489-33.454-51.194-55.365-95.385-48.938s-73.133,38.756-64.644,72.211Z" transform="translate(131.787 40.795)" fill="none" stroke="#8abcd7" stroke-width="1"/>
        <path id="パス_800" data-name="パス 800" d="M151.19,692.49h40.5v30.66h-40.5Z" transform="translate(56.407 -34.092)" fill="#8abcd7"/>
        <path id="パス_801" data-name="パス 801" d="M-30.382,719.87c-17.886,21.749-9.1,50.357,19.635,63.9s66.519,6.885,84.4-14.865Z" transform="translate(39.648 -38.924)" fill="#1d2a56"/>
        <path id="パス_802" data-name="パス 802" d="M788.122,819.741c4.984-9.328-.966-19.949-13.288-23.722s-26.351.731-31.335,10.059Z" transform="translate(108.422 -52.127)" fill="none" stroke="#8abcd7" stroke-width="1"/>
        <path id="パス_803" data-name="パス 803" d="M430.12,672.224c0,6.69,7.164,12.114,16,12.114s16-5.424,16-12.114-7.164-12.114-16-12.114-16,5.424-16,12.114Z" transform="translate(80.902 -28.378)" fill="#1d2a56"/>
        <path id="パス_804" data-name="パス 804" d="M1343.2,460.131c0,32.238,34.521,58.371,77.1,58.371s77.1-26.134,77.1-58.371-34.521-58.371-77.1-58.371S1343.2,427.894,1343.2,460.131Z" transform="translate(161.087 17.215)" fill="#8abcd7"/>
        <path id="パス_805" data-name="パス 805" d="M852.87-21.76c-23.932-15.887-60.345-14.078-81.331,4.039s-18.6,45.684,5.336,61.571Z" transform="translate(109.629 93.868)" fill="none" stroke="#8abcd7" stroke-width="1"/>
        <path id="パス_806" data-name="パス 806" d="M714.97,629.538c0,5.185,5.552,9.388,12.4,9.388s12.4-4.2,12.4-9.388-5.552-9.388-12.4-9.388S714.97,624.353,714.97,629.538Z" transform="translate(105.917 -21.326)" fill="#8abcd7"/>
        <path id="パス_807" data-name="パス 807" d="M988.21,136.19c0,19.252,20.616,34.86,46.047,34.86s46.047-15.607,46.047-34.86-20.616-34.86-46.047-34.86S988.21,116.937,988.21,136.19Z" transform="translate(129.912 70.234)" fill="#1d2a56"/>
        <path id="パス_808" data-name="パス 808" d="M1070.522,277.68c-38.91,13.67-55.811,48.632-37.751,78.088s64.243,42.25,103.152,28.578Z" transform="translate(133.19 39.113)" fill="#1d2a56"/>
        <path id="パス_809" data-name="パス 809" d="M1585.55,393.99h82.163v16.4H1585.55Z" transform="translate(182.37 18.587)" fill="#1d2a56"/>
        <path id="パス_810" data-name="パス 810" d="M449.61,737.1C502.128,745.125,553.3,719.4,563.9,679.643s-23.374-78.5-75.892-86.524Z" transform="translate(82.613 -16.555)" fill="none" stroke="#8abcd7" stroke-width="1"/>
        <path id="パス_811" data-name="パス 811" d="M378.2,521.757c0,25.857,27.688,46.817,61.843,46.817s61.842-20.961,61.842-46.817S474.2,474.94,440.043,474.94,378.2,495.9,378.2,521.757Z" transform="translate(76.342 4.301)" fill="#1d2a56"/>
        <path id="パス_812" data-name="パス 812" d="M240.49,237.98h.587v.445h-.587Z" transform="translate(64.249 46.119)" fill="#8abcd7"/>
        <path id="パス_813" data-name="パス 813" d="M1445.676,797.434c17.962-7.083,24.936-23.849,15.579-37.446s-31.5-18.877-49.465-11.793Z" transform="translate(167.111 -43.367)" fill="#1d2a56"/>
        <path id="パス_814" data-name="パス 814" d="M456.033,727.1c17.035-16.349,13.339-40.056-8.257-52.953s-52.911-10.1-69.947,6.251Z" transform="translate(76.31 -29.424)" fill="#8abcd7"/>
        <path id="パス_815" data-name="パス 815" d="M631.64,58.689c0,23.842,25.53,43.169,57.023,43.169s57.023-19.327,57.023-43.169S720.157,15.52,688.663,15.52,631.64,34.847,631.64,58.689Z" transform="translate(98.599 85.378)" fill="none" stroke="#1d2a56" stroke-width="1"/>
        <path id="パス_816" data-name="パス 816" d="M223.86,184.467c30.712,3.641,59.508-12.256,64.317-35.506s-16.189-45.05-46.9-48.691Z" transform="translate(62.788 70.422)" fill="#8abcd7"/>
        <path id="パス_818" data-name="パス 818" d="M1299.551,101.9c-12.559-33.677-58.8-53.27-103.289-43.762s-70.367,44.517-57.807,78.194Z" transform="translate(142.828 78.281)" fill="#1d2a56"/>
        <path id="パス_819" data-name="パス 819" d="M927.95,382.06H959.16v23.627H927.95Z" transform="translate(124.62 20.692)" fill="#8abcd7"/>
        <path id="パス_820" data-name="パス 820" d="M1600.01,567.6h14.87v11.258h-14.87Z" transform="translate(183.64 -12.052)" fill="#8abcd7"/>
        <path id="パス_821" data-name="パス 821" d="M1363.48,244.775c14.392.579,26.678-7.786,27.442-18.681s-10.286-20.2-24.678-20.775Z" transform="translate(162.868 51.883)" fill="#1d2a56"/>
      </g>
    </g>
    <path id="パス_4579" data-name="パス 4579" d="M0,0H1920V760.111H0Z" transform="translate(0 8290)" fill="#f5f5f5" opacity="0.9"/>
  </g>
</svg>
