<?xml version="1.0" standalone="no"?>
<!DOCTYPE svg PUBLIC "-//W3C//DTD SVG 20010904//EN"
 "http://www.w3.org/TR/2001/REC-SVG-20010904/DTD/svg10.dtd">
<svg version="1.0" xmlns="http://www.w3.org/2000/svg"
 width="816.000000pt" height="816.000000pt" viewBox="0 0 816.000000 816.000000"
 preserveAspectRatio="xMidYMid meet">
<metadata>
Created by potrace 1.14, written by Peter Selinger 2001-2017
</metadata>
<g transform="translate(0.000000,816.000000) scale(0.100000,-0.100000)"
fill="#000000" stroke="none">
<path d="M4018 7957 c0 -7 -2 -23 -3 -37 -1 -14 -3 -30 -3 -36 -2 -9 -107 -12
-389 -12 -366 0 -393 -1 -483 -22 -52 -12 -97 -25 -100 -27 -3 -3 -5 -100 -5
-216 l-1 -212 -137 -3 c-75 -1 -138 1 -138 5 -1 4 -2 79 -3 165 -1 86 -4 159
-7 162 -3 3 -48 -11 -100 -32 l-94 -37 -1 -120 c-1 -66 -2 -126 -3 -133 -1
-10 -33 -12 -138 -10 l-138 3 0 57 c0 32 -1 58 -2 58 -4 0 -101 -54 -128 -71
-16 -10 -37 -22 -45 -26 -8 -4 -49 -30 -90 -58 -41 -29 -106 -73 -144 -99
l-68 -46 134 0 133 0 0 -377 0 -378 -140 0 -139 0 -1 372 c0 248 -3 369 -10
365 -24 -14 -175 -134 -182 -145 -4 -6 -8 -142 -8 -302 l0 -290 -140 0 -140 0
0 163 0 162 -50 -54 c-45 -48 -82 -90 -149 -164 -14 -15 -21 -37 -21 -65 0
-41 -1 -42 -38 -45 -24 -2 -41 -10 -47 -22 -5 -10 -16 -24 -22 -32 -19 -19
-68 -86 -68 -91 0 -3 24 -5 53 -5 28 0 69 0 90 -1 l37 -1 0 -378 0 -379 -140
-1 -140 -1 0 27 c-1 15 -1 155 -1 311 l-1 285 -20 -35 c-11 -19 -29 -46 -38
-60 -10 -14 -46 -78 -80 -142 l-61 -115 0 -131 c-1 -92 -4 -131 -12 -132 -7
-1 -34 -2 -61 -3 l-49 -1 -33 -85 c-18 -47 -31 -87 -29 -90 2 -3 150 -5 329
-5 210 0 327 -3 329 -10 2 -5 3 -68 3 -140 l-1 -130 -373 0 c-331 0 -374 -2
-382 -16 -10 -17 -32 -106 -45 -184 -3 -16 -12 -61 -20 -100 -7 -38 -16 -90
-19 -115 -3 -25 -8 -56 -11 -70 -3 -14 -7 -50 -10 -80 -3 -30 -7 -65 -9 -77
-23 -115 -24 -593 -1 -758 2 -16 6 -57 10 -90 5 -52 14 -114 20 -137 2 -5 3
-19 4 -33 1 -18 7 -25 21 -25 17 0 20 7 20 40 0 22 0 43 -1 46 0 4 4 10 9 13
13 8 735 7 748 -1 7 -5 11 -218 5 -269 -1 -3 -166 -5 -368 -4 -203 0 -374 -1
-381 -3 -8 -3 -11 -14 -7 -31 3 -14 7 -36 10 -49 2 -12 6 -26 9 -30 3 -5 8
-24 11 -43 3 -18 8 -36 11 -39 3 -3 162 -6 352 -7 191 -1 352 -2 357 -2 8 -1
12 -221 6 -272 -1 -3 -141 -6 -311 -5 -350 1 -323 9 -286 -79 9 -22 21 -50 26
-62 7 -16 16 -21 40 -19 17 1 33 -1 35 -5 3 -4 5 -44 6 -89 1 -79 3 -86 60
-199 65 -129 100 -193 111 -201 4 -3 11 -17 17 -30 l10 -25 2 25 c1 14 0 29
-1 35 -1 5 -1 17 -1 25 0 8 0 74 0 145 0 72 0 137 1 145 0 8 0 48 1 87 0 40 5
75 11 79 5 3 68 7 138 8 l128 1 4 -53 c2 -28 0 -52 -4 -52 -4 0 -5 -7 -2 -15
8 -20 11 -465 3 -465 -4 0 -3 -17 1 -38 7 -38 5 -105 -4 -128 -3 -8 -25 -12
-60 -12 -31 1 -58 -1 -61 -4 -8 -8 98 -157 110 -156 28 1 35 -4 35 -27 0 -26
67 -112 167 -214 l53 -55 1 30 c0 16 1 83 2 149 l2 120 133 0 c73 1 136 -3
139 -8 3 -5 5 -132 5 -283 l0 -273 52 -44 c102 -86 138 -110 144 -100 4 6 7
169 6 362 l-1 351 139 0 c136 0 138 0 139 -22 3 -88 0 -730 -3 -734 -3 -2 -53
-5 -112 -5 -62 0 -104 -4 -101 -9 7 -12 283 -194 295 -195 3 0 19 -9 35 -19
65 -41 76 -47 84 -42 5 3 7 19 5 36 l-4 31 142 -3 142 -3 -1 -104 0 -103 56
-25 c31 -14 70 -31 86 -38 61 -27 58 -33 59 125 l1 145 138 0 c85 0 137 -4
138 -10 0 -5 2 -93 2 -194 l2 -185 30 -8 c63 -18 221 -57 250 -62 17 -3 41 -9
55 -12 14 -3 162 -7 330 -9 168 -2 308 -3 311 -4 3 -1 5 -12 4 -25 -2 -15 3
-27 13 -31 20 -8 190 -7 203 0 4 3 8 112 8 243 0 130 0 251 0 267 l1 30 133
-1 c72 -1 135 -2 140 -3 4 0 7 -110 6 -243 0 -134 0 -251 0 -262 1 -16 7 -17
69 -10 37 4 78 8 92 8 14 1 28 6 32 11 4 6 8 120 8 255 l0 246 138 -1 137 0 3
-223 2 -223 28 4 c15 3 47 10 72 17 25 7 52 14 60 15 60 13 360 116 360 124 0
3 -67 6 -150 6 l-150 0 0 136 c0 101 3 138 13 141 6 2 176 4 377 4 l365 -1 3
-37 c2 -21 5 -38 7 -38 3 0 39 20 81 45 41 25 79 45 83 45 4 0 16 9 26 20 10
11 22 20 27 20 8 0 218 140 218 145 0 0 -45 1 -100 0 -63 -1 -100 3 -101 10
-7 59 -2 265 6 266 6 1 130 2 277 3 l267 2 95 94 c53 52 96 97 96 100 0 3
-163 5 -362 5 -200 -1 -367 1 -373 2 -8 3 -12 176 -6 263 1 13 49 15 379 15
l377 0 0 -133 c0 -72 0 -132 1 -132 12 0 214 232 214 246 0 5 12 20 27 34 14
14 36 41 49 60 13 19 31 45 40 57 16 22 16 23 -12 24 -16 1 -48 1 -71 0 -34
-1 -43 3 -44 17 -4 88 -3 236 2 249 4 13 27 16 162 15 l157 -1 19 28 c27 38
91 163 86 170 -1 3 -98 5 -214 4 -201 -1 -211 0 -212 18 -1 25 -1 235 0 252 1
9 62 12 275 11 150 -1 278 1 283 5 11 8 64 143 58 149 -3 3 -34 5 -70 5 l-65
0 0 372 c0 282 4 375 13 382 9 7 219 10 260 4 4 0 7 -14 7 -30 0 -25 24 -50
37 -38 7 8 20 84 28 177 3 30 8 80 11 110 3 30 7 119 9 196 2 78 5 145 6 150
1 5 1 11 0 14 -1 3 -4 64 -7 135 -7 199 -9 228 -30 353 -3 21 -11 32 -22 32
-9 1 -75 2 -147 3 l-130 2 0 378 c-1 207 2 378 5 378 3 1 26 2 52 3 26 1 49 4
52 7 2 2 -11 42 -29 89 l-32 85 -251 0 c-138 0 -253 3 -257 6 -6 6 -9 92 -5
114 1 6 1 14 0 20 -4 23 -5 135 0 136 3 1 87 2 187 3 100 1 185 4 187 7 5 5
-42 100 -78 158 l-24 37 -126 -1 c-70 0 -131 2 -137 6 -12 7 -15 61 -5 78 4 6
4 11 -1 11 -4 0 -7 19 -6 42 1 24 2 66 2 94 l1 51 35 -2 c19 -1 39 1 44 5 16
9 -276 387 -301 389 -5 1 -8 -53 -8 -119 0 -118 0 -120 -22 -121 -28 -1 -708
-1 -725 0 -10 1 -13 36 -13 140 l0 139 360 0 c199 0 363 2 365 4 6 6 -191 199
-201 197 -5 -1 -125 -1 -267 0 l-258 1 3 138 3 137 83 1 c45 1 85 4 88 7 3 3
-27 28 -68 56 -40 28 -79 55 -85 61 -7 6 -13 7 -13 3 0 -4 -4 -3 -8 3 -15 23
-221 140 -223 127 -1 -5 -2 -24 -3 -43 l-1 -35 -377 -3 c-208 -1 -379 1 -379
5 -1 5 -2 68 -3 141 l-1 132 125 1 c69 1 152 1 184 0 35 -1 56 3 50 8 -15 14
-385 133 -458 147 -10 2 -33 8 -50 13 -79 23 -71 46 -71 -218 l0 -236 -137 -1
c-93 -1 -138 2 -140 10 -2 6 -4 124 -3 263 l0 252 -25 6 c-14 4 -50 9 -80 12
-30 2 -64 5 -75 6 -19 2 -20 -5 -20 -273 l0 -275 -140 0 -140 0 0 290 0 290
-113 2 c-78 1 -112 -2 -114 -10z m-7 -295 c1 -4 2 -67 3 -139 1 -113 -1 -133
-14 -134 -8 0 -176 -1 -373 -2 -310 -2 -360 0 -366 13 -6 12 -8 209 -2 257 1
9 91 12 376 12 206 -1 376 -4 376 -7z m-970 -459 c0 -5 1 -66 2 -138 l1 -130
-380 0 -379 0 -1 138 -1 137 378 0 c209 0 379 -3 380 -7z m509 -35 c1 -59 1
-623 0 -675 l0 -43 -140 0 -140 0 0 380 0 380 140 0 140 0 0 -42z m481 -5 c0
-27 0 -81 -1 -122 -1 -73 -1 -74 22 -66 101 33 184 -28 181 -133 -1 -33 -9
-50 -30 -72 -44 -45 -89 -55 -153 -35 -23 7 -22 16 -22 -162 l0 -123 -138 0
-138 0 0 380 0 380 139 0 139 0 1 -47z m980 40 c1 -11 1 -245 0 -260 -1 -10
-84 -13 -380 -13 l-378 0 -1 140 0 140 379 0 c208 0 379 -3 380 -7z m501 -5
c2 -7 3 -177 3 -378 l-1 -365 -107 -3 c-59 -1 -107 -5 -107 -9 0 -3 14 -21 30
-40 28 -31 35 -49 31 -80 -2 -16 -23 -15 329 -18 162 -1 300 -3 306 -4 14 -1
13 -271 -1 -272 -5 -1 -177 -2 -382 -3 l-372 -1 2 78 c2 84 -5 97 -52 97 -12
0 -21 5 -21 10 0 6 -6 10 -13 10 -18 0 -47 53 -52 95 -3 21 1 48 10 66 17 32
69 69 98 69 9 0 17 6 18 13 0 6 1 177 1 380 l1 367 137 0 c102 0 139 -3 142
-12z m482 -368 l0 -375 -140 -3 -140 -3 0 381 0 381 140 -3 140 -3 0 -375z
m-2958 -102 c4 -4 7 -72 8 -152 1 -135 3 -146 25 -176 36 -49 38 -97 6 -144
-19 -29 -26 -50 -25 -85 9 -403 8 -621 -3 -622 -7 -1 -69 -2 -140 -3 l-127 -1
2 380 3 380 24 0 c18 0 26 9 38 45 8 25 26 56 39 71 13 14 24 27 24 30 0 2
-141 4 -314 4 l-313 -1 0 136 c0 74 4 137 8 140 12 8 737 6 745 -2z m1975 -5
c1 -11 1 -245 0 -260 -1 -10 -84 -13 -380 -13 l-378 0 -1 140 0 140 379 0
c208 0 379 -3 380 -7z m-876 -260 c2 -13 11 -50 20 -81 10 -31 18 -64 20 -72
3 -14 25 -97 59 -219 8 -29 16 -55 19 -57 2 -2 3 57 2 131 l-1 135 26 1 c38 1
212 1 235 0 20 -1 21 -6 21 -375 0 -331 -2 -375 -15 -378 -9 -3 -77 -3 -151
-1 -340 7 -740 0 -740 -12 0 -6 -59 -45 -130 -87 -72 -41 -125 -78 -118 -80 7
-2 48 -3 91 -3 l77 2 1 -46 c0 -25 0 -92 0 -148 -1 -57 2 -103 6 -103 3 0 34
13 67 28 34 16 76 35 95 43 l33 15 2 104 1 105 139 0 138 0 2 -80 1 -80 60 -2
c33 -1 79 -4 101 -6 23 -3 46 -2 50 2 5 3 9 42 9 86 l0 80 285 1 c157 1 292 3
300 3 8 1 -12 16 -45 35 -105 58 -190 107 -199 116 -5 5 22 39 65 81 l74 72 2
301 c0 166 2 308 2 316 1 13 22 15 139 15 l137 0 1 -145 c1 -80 2 -156 3 -170
1 -23 4 -22 46 23 25 26 48 47 51 47 4 0 3 -12 -1 -27 -4 -16 -9 -35 -10 -43
-1 -8 -5 -22 -8 -30 -23 -58 -79 -296 -82 -345 -3 -78 -3 -75 -20 -75 -8 0
-15 -3 -16 -7 -1 -14 -7 -38 -19 -83 -19 -71 -20 -80 -4 -81 8 -1 24 -2 36 -3
21 -1 21 -5 21 -111 -1 -60 -2 -124 -2 -140 l-1 -31 -185 1 c-102 0 -185 -2
-185 -6 0 -4 30 -26 67 -50 37 -24 79 -55 93 -69 74 -72 84 -77 152 -75 l64 1
0 -138 0 -138 -76 -1 c-85 0 -386 0 -565 0 l-121 1 2 133 c1 72 2 135 3 139 1
3 43 6 94 6 50 1 126 1 167 2 l75 1 -45 24 c-129 69 -269 106 -410 108 l-105
2 0 -208 0 -208 -140 3 -140 3 0 171 0 172 -22 -9 c-35 -13 -100 -56 -141 -94
l-38 -33 1 -104 1 -103 -70 -5 -69 -5 -18 -55 c-10 -30 -19 -68 -21 -85 l-3
-30 305 -2 c168 -1 313 -2 323 -2 15 -1 17 -15 17 -140 l0 -138 -310 0 c-171
0 -312 -2 -314 -4 -9 -8 54 -124 86 -161 l33 -38 240 1 c132 0 245 0 251 0 7
-1 10 -50 10 -152 -1 -91 3 -154 9 -159 5 -4 37 -19 70 -33 33 -14 94 -41 135
-60 l75 -35 334 0 c183 -1 335 -3 337 -4 2 -3 5 -65 4 -108 -1 -8 0 -42 0 -75
1 -33 1 -67 1 -75 -1 -12 -16 -16 -63 -18 -34 -1 -63 -4 -65 -6 -2 -1 18 -18
45 -36 105 -75 204 -198 253 -315 52 -121 47 -115 49 -75 1 19 2 187 2 373 -1
308 1 337 16 338 58 1 257 -3 260 -6 3 -3 5 -551 3 -713 l-1 -43 -140 3 c-88
2 -140 -1 -141 -7 -1 -11 -1 -13 5 -48 3 -12 5 -41 5 -64 l1 -43 372 -2 372
-3 -1 -130 c-1 -71 -2 -133 -2 -137 -1 -5 -176 -8 -389 -8 l-388 0 -18 -56
c-17 -53 -84 -191 -106 -217 -65 -77 -78 -104 -76 -155 1 -29 -1 -52 -4 -53
-3 0 -30 -2 -60 -3 -48 -1 -63 -7 -110 -43 -30 -23 -81 -57 -113 -76 -32 -20
-54 -37 -50 -39 4 -3 86 -4 181 -3 111 0 172 -3 173 -10 0 -14 1 -225 0 -250
-1 -20 -8 -20 -378 -20 l-378 1 -2 49 c-1 28 -2 65 -2 83 l-1 32 -87 -6 c-149
-9 -132 25 -132 -267 0 -138 0 -279 0 -312 l-1 -61 -132 2 c-73 1 -136 2 -140
3 -5 0 -8 149 -8 331 l0 329 -42 11 c-24 6 -65 20 -92 30 -27 11 -53 20 -57
20 -5 0 -9 -156 -8 -354 1 -195 -1 -358 -4 -363 -4 -6 -236 -10 -269 -4 -4 0
-6 171 -5 379 l2 377 99 0 c95 0 97 1 75 17 -13 9 -62 45 -109 80 -47 34 -89
61 -95 59 -5 -1 -7 0 -3 4 4 4 -26 44 -65 89 -40 44 -89 105 -110 134 -21 28
-40 52 -42 52 -1 0 -3 -55 -3 -122 0 -68 0 -129 -1 -136 -1 -10 -32 -12 -138
-10 l-138 3 -1 378 0 377 138 0 c103 0 138 -3 139 -12 1 -7 1 -62 1 -123 -1
-60 1 -115 3 -122 3 -8 16 -6 44 8 22 10 42 19 45 19 3 0 22 -32 41 -70 19
-39 51 -95 70 -125 l36 -55 369 0 370 0 0 -140 0 -140 -207 -2 c-124 -2 -200
-6 -188 -11 11 -5 29 -13 40 -17 121 -51 275 -81 410 -80 104 0 103 0 195 16
152 27 271 76 403 167 l57 40 0 323 0 324 146 0 146 0 -6 48 c-3 26 -8 56 -10
67 -2 11 -4 26 -5 33 -1 9 -82 12 -371 12 l-370 0 0 140 0 140 270 0 c149 0
270 3 270 8 0 14 -145 110 -228 151 -82 41 -85 42 -193 42 -74 1 -109 5 -111
12 -1 12 -4 45 -6 85 -1 12 -6 22 -11 22 -5 0 -47 18 -94 40 -47 22 -91 41
-99 42 -10 2 -13 -61 -14 -327 -1 -181 -2 -336 -3 -342 -1 -10 -36 -13 -139
-13 l-138 0 0 380 0 380 46 1 c25 1 52 0 60 -1 24 -3 12 4 -130 76 -74 38
-136 72 -138 77 -2 4 -70 7 -152 7 l-149 0 -3 96 c-2 52 0 104 4 114 4 11 3
22 -2 25 -5 3 -7 12 -4 20 3 8 -3 27 -13 42 -127 189 -129 519 -3 760 l40 75
-1 290 0 291 -30 116 c-28 104 -52 199 -63 241 -2 8 -16 59 -31 113 -14 53
-28 105 -30 115 -2 9 -9 32 -14 51 -6 18 -8 32 -6 30 2 -2 55 -54 117 -116
l113 -112 283 0 c280 1 291 2 299 34 5 21 32 121 38 143 6 17 3 22 -11 23 -11
0 -166 1 -346 1 l-328 0 0 139 c0 125 2 139 18 140 9 0 182 1 385 1 l367 1 10
36 c5 20 16 68 24 106 28 125 27 125 43 80 7 -21 15 -50 18 -62z m-2067 -292
c1 -77 -1 -137 -7 -140 -5 -4 -175 -6 -378 -6 l-368 0 -3 130 c-1 71 -1 134 1
140 3 7 121 10 378 10 l374 0 3 -134z m502 -246 l0 -381 -137 1 -138 0 -3 380
-2 380 140 1 140 0 0 -381z m3925 0 l0 -380 -133 0 c-74 0 -136 3 -139 8 -4 6
-7 600 -4 727 l1 25 138 0 137 0 0 -380z m480 0 l0 -380 -133 0 c-74 0 -136 3
-138 7 -7 10 -7 735 -1 745 3 5 65 9 139 8 l133 0 0 -380z m-4907 -239 l-3
-141 -377 0 -378 0 0 136 c0 74 2 138 5 140 2 3 173 5 380 5 l376 0 -3 -140z
m3927 132 c12 -11 11 -259 0 -266 -5 -4 -177 -7 -381 -7 l-372 0 0 135 c0 74
2 137 3 140 5 8 742 6 750 -2z m-4415 -457 c6 -1 4 -727 -3 -744 -3 -9 -38
-13 -138 -12 l-134 0 -3 360 c-1 198 0 369 3 381 4 19 11 20 137 18 73 -1 135
-2 138 -3z m481 -16 c1 -24 1 -642 0 -700 l-1 -40 -132 1 c-73 1 -136 2 -140
3 -6 1 -9 740 -3 751 2 3 64 5 139 5 130 1 136 0 137 -20z m980 10 c1 -14 1
-237 0 -255 -1 -13 -50 -15 -379 -15 l-379 0 2 140 c1 77 3 140 3 140 1 1 171
1 377 1 252 0 375 -4 376 -11z m2474 -355 c0 -201 -1 -372 -3 -380 -3 -13 -25
-15 -140 -15 l-137 0 -1 375 c-1 206 0 377 2 380 1 3 64 5 140 5 l138 0 1
-365z m475 359 c4 -6 5 -706 1 -744 -1 -8 -239 -14 -272 -6 -9 2 -7 745 2 751
12 9 263 7 269 -1z m980 -1 c5 -6 5 -249 1 -268 0 -3 -171 -5 -378 -5 l-378 0
-1 135 c0 74 1 137 2 140 4 9 748 7 754 -2z m490 1 c4 -6 5 -707 1 -744 -1
-14 -270 -14 -273 0 -3 24 -6 721 -2 736 3 13 25 15 137 15 72 0 134 -3 137
-7z m-6375 -604 c1 -72 0 -135 -2 -140 -2 -7 -134 -10 -381 -10 l-377 0 0 140
-1 140 381 0 380 0 0 -130z m1956 125 c7 -34 2 -263 -6 -268 -5 -4 -175 -7
-378 -7 -319 0 -368 2 -371 15 -4 14 -1 265 2 265 52 3 752 -2 753 -5z m3934
-132 c0 -84 -4 -139 -10 -141 -5 -2 -176 -3 -380 -3 l-370 1 0 135 c0 74 3
137 7 140 3 3 174 5 380 5 l373 0 0 -137z m-6384 -358 c0 -42 0 -688 -1 -711
0 -13 -19 -16 -137 -15 l-138 1 -1 375 c-1 206 2 377 7 380 4 3 67 5 138 5
l131 0 1 -35z m480 10 c3 -74 4 -707 1 -721 -3 -13 -23 -15 -135 -13 -73 1
-135 2 -138 3 -9 2 -7 745 2 751 4 3 67 5 138 5 l131 0 1 -25z m980 10 c6 -86
2 -260 -6 -263 -5 -2 -176 -3 -380 -3 l-370 1 -1 137 c0 131 0 137 20 140 12
2 182 3 379 3 310 0 357 -2 358 -15z m494 11 c6 -1 10 -133 10 -376 0 -325 -2
-376 -15 -379 -8 -2 -71 -3 -140 -3 l-125 2 -1 370 c0 204 3 375 7 380 6 9
206 13 264 6z m485 0 c3 -1 5 -171 5 -379 l0 -377 -133 0 c-73 -1 -136 2 -140
5 -10 7 -10 743 0 750 6 5 248 5 268 1z m1490 0 c3 0 5 -171 5 -378 l0 -378
-140 -1 -140 -1 0 376 c-1 207 2 378 6 381 6 4 253 5 269 1z m480 0 c9 -2 6
-746 -2 -752 -5 -3 -68 -5 -141 -5 l-132 1 0 375 c-1 206 2 377 6 380 6 4 252
5 269 1z m980 0 c3 0 5 -63 5 -138 l0 -138 -378 0 c-207 0 -378 2 -378 5 -1 3
-2 63 -3 133 -1 92 2 130 11 135 9 6 721 8 743 3z m500 -26 c7 -41 5 -709 -3
-721 -3 -6 -63 -10 -139 -10 l-133 1 -1 375 c-1 206 0 377 2 380 1 3 62 5 135
5 l133 0 6 -30z m480 26 c7 -2 5 -735 -2 -747 -4 -6 -59 -10 -140 -10 l-133 1
-1 375 c-1 206 2 377 7 380 6 4 252 5 269 1z m979 -16 c6 -16 7 -211 2 -250
-1 -7 -129 -10 -368 -9 -203 1 -373 2 -379 3 -13 1 -16 262 -3 271 4 3 173 5
374 5 359 0 368 -1 374 -20z m-5892 -469 c12 -12 10 -265 -2 -269 -5 -2 -176
-3 -380 -3 l-370 1 -1 135 c-1 74 2 137 6 140 13 8 739 5 747 -4z m3933 2 c3
-4 6 -67 5 -140 l0 -133 -377 0 c-208 0 -379 2 -379 5 -1 3 -2 63 -3 133 -1
91 2 131 11 135 16 9 737 9 743 0z m1958 -134 l3 -140 -380 0 -380 1 -3 133
c-2 95 0 136 9 140 6 4 177 7 380 7 l368 -1 3 -140z m-6387 -329 c1 -16 2
-186 3 -378 1 -301 -1 -348 -14 -351 -8 -2 -71 -3 -140 -3 l-125 2 -1 375 c-1
206 0 377 1 380 2 3 64 5 139 5 l136 0 1 -30z m480 15 c4 -62 3 -733 -1 -739
-3 -4 -66 -7 -140 -7 l-135 1 -1 370 c0 204 3 375 7 380 4 6 62 10 138 10 109
0 131 -2 132 -15z m974 11 c8 -1 13 -238 6 -272 0 -3 -171 -5 -378 -5 l-378 1
0 135 c-1 74 0 137 1 140 2 4 707 5 749 1z m512 -5 c4 -3 7 -173 8 -377 0
-363 0 -370 -20 -374 -11 -2 -74 -3 -140 -2 l-120 2 -1 375 c0 206 3 377 7
380 11 8 258 4 266 -4z m2439 1 c4 -4 7 -174 7 -379 l0 -373 -129 -1 c-71 -1
-134 1 -141 3 -14 5 -16 745 -2 753 12 8 257 5 265 -3z m980 1 c5 -5 8 -207 5
-263 -1 -7 -125 -11 -378 -10 l-378 0 -1 137 c-1 116 1 137 14 140 31 6 732 2
738 -4z m494 0 c4 -5 5 -707 1 -744 -1 -11 -225 -18 -261 -8 -13 3 -15 52 -14
381 1 208 2 378 3 378 0 0 61 0 133 0 73 0 135 -3 138 -7z m-4435 -477 c20 -1
21 -7 20 -138 l0 -138 -378 -1 c-207 -1 -378 2 -378 5 -1 3 -2 64 -3 134 -1
92 2 130 10 135 10 5 613 8 729 3z m3946 -18 c1 -30 1 -229 0 -246 -1 -12 -69
-14 -378 -13 l-378 1 -1 137 -1 137 26 3 c14 2 185 3 378 3 l353 0 1 -22z
m-4924 -426 c8 -8 8 -252 -1 -265 -4 -6 -141 -9 -378 -8 l-373 1 -1 117 c-1
64 -4 123 -7 132 -5 11 2 18 23 23 36 9 727 9 737 0z m499 0 c5 -5 10 -687 5
-743 -1 -8 -44 -11 -138 -10 l-138 1 -1 377 -1 377 26 3 c48 6 241 2 247 -5z
m1459 4 c8 -1 12 -179 6 -262 -1 -15 -36 -17 -378 -15 l-378 1 -1 137 c-2 133
-1 137 20 140 18 3 701 1 731 -1z m513 -366 c0 -217 -5 -378 -10 -381 -10 -6
-260 -6 -266 0 -3 3 -5 425 -3 674 l1 82 140 0 139 0 -1 -375z m1957 -11 l0
-379 -137 -1 -138 -1 0 378 c0 242 4 379 10 381 5 2 67 3 137 2 l128 -1 0
-379z m478 377 c4 -1 6 -171 5 -378 l-3 -378 -137 -1 -138 -2 0 377 c0 208 2
380 4 382 3 3 239 3 269 0z m-4906 -485 c8 -7 7 -251 0 -264 -4 -6 -141 -9
-379 -8 l-373 1 -2 137 c-1 133 -1 137 20 140 40 6 728 0 734 -6z m3908 5 l30
-1 -2 -122 c0 -68 -2 -130 -2 -139 -1 -14 -40 -16 -378 -15 l-378 1 -1 137 c0
131 1 137 20 140 17 2 569 1 711 -1z m-2905 -443 c4 -5 5 -200 1 -260 -1 -15
-31 -17 -378 -15 l-378 2 -1 137 -1 137 31 3 c62 6 721 3 726 -4z m2438 3 l32
-1 0 -379 0 -379 -140 -1 -140 -1 0 47 c-1 66 -1 518 0 625 0 101 -9 94 130
91 47 -1 100 -2 118 -2z m480 0 l32 -1 0 -379 0 -379 -140 -1 -140 0 0 379 0
379 23 3 c12 2 60 2 107 1 47 -1 100 -2 118 -2z m-2915 -603 c0 -68 -2 -131
-2 -140 -1 -16 -13 -18 -113 -17 -62 0 -117 0 -123 -1 -5 -1 -14 -2 -19 -1
-25 5 -458 2 -463 -3 -3 -3 -13 -1 -23 4 -15 8 -17 26 -17 145 l0 135 381 0
381 0 -2 -122z m1968 107 c0 -8 0 -62 0 -120 0 -58 0 -114 0 -125 -1 -20 -7
-20 -138 -19 -76 0 -142 0 -148 -1 -5 -1 -14 -2 -19 -1 -6 1 -110 2 -232 2
l-222 0 0 140 -1 139 380 0 c330 0 379 -2 380 -15z m-1016 -469 c6 -2 10 -57
10 -137 l-1 -134 -380 -3 -380 -2 -1 141 c-1 130 0 140 17 136 10 -2 22 -2 28
2 11 6 690 4 707 -3z"/>
</g>
</svg>
