<svg xmlns="http://www.w3.org/2000/svg" xmlns:xlink="http://www.w3.org/1999/xlink" width="132.909" height="137.683" viewBox="0 0 132.909 137.683">
  <defs>
    <clipPath id="clip-path">
      <circle id="楕円形_292" data-name="楕円形 292" cx="47.435" cy="47.435" r="47.435" transform="translate(0)" fill="none"/>
    </clipPath>
  </defs>
  <g id="selectia_logo" transform="translate(-58.031 -6.54)">
    <path id="パス_9622" data-name="パス 9622" d="M11.928-16.268a5.006,5.006,0,0,0-4.536-2.66A4.537,4.537,0,0,0,2.6-14.28a4.015,4.015,0,0,0,.588,2.128c.644,1.064,1.568,1.568,3.416,2.464,1.54.756,2.632,1.316,3.164,1.624a3.286,3.286,0,0,1,1.82,2.94A4.343,4.343,0,0,1,7.084-.812a4.49,4.49,0,0,1-3.5-1.6A6.455,6.455,0,0,1,2.576-4.2l-1.064.5a6.135,6.135,0,0,0,1.2,2.044A5.334,5.334,0,0,0,7.056.308a5.589,5.589,0,0,0,5.824-5.46,4.105,4.105,0,0,0-1.988-3.612,26.3,26.3,0,0,0-3.724-1.96c-1.876-.924-3.276-1.6-3.276-3.612a3.32,3.32,0,0,1,3.472-3.472,3.992,3.992,0,0,1,3.668,2.3Zm18.144-2.408h-8.96V0h8.96V-1.12H22.344V-9.66H29.9v-1.12h-7.56v-6.776h7.728Zm8.232,0V0h6.44V-1.12H39.536V-18.676Zm22.512,0h-8.96V0h8.96V-1.12H53.088V-9.66h7.56v-1.12h-7.56v-6.776h7.728ZM84-16.492a9.094,9.094,0,0,0-6.272-2.436A9.608,9.608,0,0,0,68.04-9.3a9.6,9.6,0,0,0,9.744,9.6A9.379,9.379,0,0,0,84-2.016V-3.64A8.686,8.686,0,0,1,77.728-.812a8.365,8.365,0,0,1-8.4-8.428A8.368,8.368,0,0,1,77.7-17.808a8.267,8.267,0,0,1,6.3,2.94Zm17.024-1.064v-1.12H90.1v1.12h4.844V0H96.18V-17.556Zm7.112-1.12V0h1.232V-18.676ZM130.76,0H132.1l-7.756-19.236L116.48,0h1.344l2.492-6.132h7.952Zm-10-7.252L124.32-16.1l3.5,8.848Z" transform="translate(58.28 143.54)" fill="#f5f5f5" stroke="#f5f5f5" stroke-width="0.75"/>
    <g id="グループ_2034" data-name="グループ 2034" transform="translate(58.547 114.667)">
      <path id="パス_789" data-name="パス 789" d="M84.7,217.07l-3.526,3.555,2.225,1.281Z" transform="translate(-71.31 -212.16)" fill="#f5f5f5" stroke="#f5f5f5" stroke-miterlimit="10" stroke-width="1"/>
      <g id="グループ_2033" data-name="グループ 2033" transform="translate(0)">
        <path id="パス_787" data-name="パス 787" d="M74.282,211.17l-1.692,6.377h3.384Z" transform="translate(-66.925 -209.145)" fill="#f5f5f5" stroke="#f5f5f5" stroke-miterlimit="10" stroke-width="1"/>
        <circle id="楕円形_289" data-name="楕円形 289" cx="0.856" cy="0.856" r="0.856" transform="translate(6.486)" fill="#1d2a56" stroke="#f5f5f5" stroke-miterlimit="10" stroke-width="1"/>
        <g id="グループ_2032" data-name="グループ 2032" transform="translate(0 3.009)">
          <path id="パス_788" data-name="パス 788" d="M63.7,217.07l3.526,3.555L65,221.906Z" transform="translate(-62.383 -215.169)" fill="#f5f5f5" stroke="#f5f5f5" stroke-miterlimit="10" stroke-width="1"/>
          <circle id="楕円形_290" data-name="楕円形 290" cx="0.856" cy="0.856" r="0.856" transform="translate(0 0.058) rotate(-1.95)" fill="#1d2a56" stroke="#f5f5f5" stroke-miterlimit="10" stroke-width="1"/>
        </g>
      </g>
      <circle id="楕円形_291" data-name="楕円形 291" cx="0.856" cy="0.856" r="0.856" transform="translate(13.592 2.254) rotate(-1.718)" fill="#1d2a56" stroke="#f5f5f5" stroke-miterlimit="10" stroke-width="1"/>
    </g>
    <g id="グループ_2031" data-name="グループ 2031" transform="translate(77.953 6.54)" clip-path="url(#clip-path)">
      <rect id="長方形_2762" data-name="長方形 2762" width="3.912" height="9.78" transform="translate(96.732 -2.709)" fill="#f5f5f5"/>
      <rect id="長方形_2763" data-name="長方形 2763" width="3.912" height="9.78" transform="translate(102.601 -2.709)" fill="#f5f5f5"/>
      <rect id="長方形_2764" data-name="長方形 2764" width="3.912" height="9.78" transform="translate(118.494 -2.709) rotate(90)" fill="#f5f5f5"/>
      <rect id="長方形_2765" data-name="長方形 2765" width="3.912" height="9.78" transform="translate(118.494 3.159) rotate(90)" fill="#f5f5f5"/>
      <rect id="長方形_2766" data-name="長方形 2766" width="3.912" height="9.78" transform="translate(120.67 -2.709)" fill="#f5f5f5"/>
      <rect id="長方形_2767" data-name="長方形 2767" width="3.912" height="9.78" transform="translate(126.538 -2.709)" fill="#f5f5f5"/>
      <rect id="長方形_2768" data-name="長方形 2768" width="3.912" height="9.78" transform="translate(142.431 -2.709) rotate(90)" fill="#f5f5f5"/>
      <rect id="長方形_2769" data-name="長方形 2769" width="3.912" height="9.78" transform="translate(142.431 3.159) rotate(90)" fill="#f5f5f5"/>
      <rect id="長方形_2770" data-name="長方形 2770" width="3.912" height="9.78" transform="translate(48.946 -2.709)" fill="#f5f5f5"/>
      <rect id="長方形_2771" data-name="長方形 2771" width="3.912" height="9.78" transform="translate(54.814 -2.709)" fill="#f5f5f5"/>
      <rect id="長方形_2772" data-name="長方形 2772" width="3.912" height="9.78" transform="translate(70.712 -2.709) rotate(90)" fill="#f5f5f5"/>
      <rect id="長方形_2773" data-name="長方形 2773" width="3.912" height="9.78" transform="translate(70.712 3.159) rotate(90)" fill="#f5f5f5"/>
      <rect id="長方形_2774" data-name="長方形 2774" width="3.912" height="9.78" transform="translate(72.888 -2.709)" fill="#f5f5f5"/>
      <rect id="長方形_2775" data-name="長方形 2775" width="3.912" height="9.78" transform="translate(78.756 -2.709)" fill="#f5f5f5"/>
      <rect id="長方形_2776" data-name="長方形 2776" width="3.912" height="9.78" transform="translate(94.649 -2.709) rotate(90)" fill="#f5f5f5"/>
      <rect id="長方形_2777" data-name="長方形 2777" width="3.912" height="9.78" transform="translate(94.649 3.159) rotate(90)" fill="#f5f5f5"/>
      <rect id="長方形_2778" data-name="長方形 2778" width="3.912" height="9.78" transform="translate(0.954 -2.709)" fill="#f5f5f5"/>
      <rect id="長方形_2779" data-name="長方形 2779" width="3.912" height="9.78" transform="translate(6.822 -2.709)" fill="#f5f5f5"/>
      <rect id="長方形_2780" data-name="長方形 2780" width="3.912" height="9.78" transform="translate(22.72 -2.709) rotate(90)" fill="#f5f5f5"/>
      <rect id="長方形_2781" data-name="長方形 2781" width="3.912" height="9.78" transform="translate(22.72 3.159) rotate(90)" fill="#f5f5f5"/>
      <rect id="長方形_2782" data-name="長方形 2782" width="3.912" height="9.78" transform="translate(24.891 -2.709)" fill="#f5f5f5"/>
      <rect id="長方形_2783" data-name="長方形 2783" width="3.912" height="9.78" transform="translate(30.759 -2.709)" fill="#f5f5f5"/>
      <rect id="長方形_2784" data-name="長方形 2784" width="3.912" height="9.78" transform="translate(46.657 -2.709) rotate(90)" fill="#f5f5f5"/>
      <rect id="長方形_2785" data-name="長方形 2785" width="3.912" height="9.78" transform="translate(46.657 3.159) rotate(90)" fill="#f5f5f5"/>
      <rect id="長方形_2786" data-name="長方形 2786" width="3.912" height="9.78" transform="translate(-46.828 -2.709)" fill="#f5f5f5"/>
      <rect id="長方形_2787" data-name="長方形 2787" width="3.912" height="9.78" transform="translate(-40.96 -2.709)" fill="#f5f5f5"/>
      <rect id="長方形_2788" data-name="長方形 2788" width="3.912" height="9.78" transform="translate(-25.067 -2.709) rotate(90)" fill="#f5f5f5"/>
      <rect id="長方形_2789" data-name="長方形 2789" width="3.912" height="9.78" transform="translate(-25.067 3.159) rotate(90)" fill="#f5f5f5"/>
      <rect id="長方形_2790" data-name="長方形 2790" width="3.912" height="9.78" transform="translate(-22.891 -2.709)" fill="#f5f5f5"/>
      <rect id="長方形_2791" data-name="長方形 2791" width="3.912" height="9.78" transform="translate(-17.023 -2.709)" fill="#f5f5f5"/>
      <rect id="長方形_2792" data-name="長方形 2792" width="3.912" height="9.78" transform="translate(-1.13 -2.709) rotate(90)" fill="#f5f5f5"/>
      <rect id="長方形_2793" data-name="長方形 2793" width="3.912" height="9.78" transform="translate(-1.13 3.159) rotate(90)" fill="#f5f5f5"/>
      <rect id="長方形_2794" data-name="長方形 2794" width="3.912" height="9.78" transform="translate(84.844 8.705)" fill="#f5f5f5"/>
      <rect id="長方形_2795" data-name="長方形 2795" width="3.912" height="9.78" transform="translate(90.713 8.705)" fill="#f5f5f5"/>
      <rect id="長方形_2796" data-name="長方形 2796" width="3.912" height="9.78" transform="translate(106.606 8.704) rotate(90)" fill="#f5f5f5"/>
      <rect id="長方形_2797" data-name="長方形 2797" width="3.912" height="9.78" transform="translate(106.606 14.573) rotate(90)" fill="#f5f5f5"/>
      <rect id="長方形_2798" data-name="長方形 2798" width="3.912" height="9.78" transform="translate(108.782 8.705)" fill="#f5f5f5"/>
      <rect id="長方形_2799" data-name="長方形 2799" width="3.912" height="9.78" transform="translate(114.65 8.705)" fill="#f5f5f5"/>
      <rect id="長方形_2800" data-name="長方形 2800" width="3.912" height="9.78" transform="translate(130.543 8.704) rotate(90)" fill="#f5f5f5"/>
      <rect id="長方形_2801" data-name="長方形 2801" width="3.912" height="9.78" transform="translate(130.543 14.573) rotate(90)" fill="#f5f5f5"/>
      <rect id="長方形_2802" data-name="長方形 2802" width="3.912" height="9.78" transform="translate(37.058 8.705)" fill="#f5f5f5"/>
      <rect id="長方形_2803" data-name="長方形 2803" width="3.912" height="9.78" transform="translate(42.926 8.705)" fill="#f5f5f5"/>
      <rect id="長方形_2804" data-name="長方形 2804" width="3.912" height="9.78" transform="translate(58.824 8.705) rotate(90)" fill="#f5f5f5"/>
      <rect id="長方形_2805" data-name="長方形 2805" width="3.912" height="9.78" transform="translate(58.824 14.573) rotate(90)" fill="#f5f5f5"/>
      <rect id="長方形_2806" data-name="長方形 2806" width="3.912" height="9.78" transform="translate(60.995 8.705)" fill="#f5f5f5"/>
      <rect id="長方形_2807" data-name="長方形 2807" width="3.912" height="9.78" transform="translate(66.863 8.705)" fill="#f5f5f5"/>
      <rect id="長方形_2808" data-name="長方形 2808" width="3.912" height="9.78" transform="translate(82.761 8.704) rotate(90)" fill="#f5f5f5"/>
      <rect id="長方形_2809" data-name="長方形 2809" width="3.912" height="9.78" transform="translate(82.761 14.573) rotate(90)" fill="#f5f5f5"/>
      <rect id="長方形_2810" data-name="長方形 2810" width="3.912" height="9.78" transform="translate(-10.934 8.705)" fill="#f5f5f5"/>
      <rect id="長方形_2811" data-name="長方形 2811" width="3.912" height="9.78" transform="translate(-5.066 8.705)" fill="#f5f5f5"/>
      <rect id="長方形_2812" data-name="長方形 2812" width="3.912" height="9.78" transform="translate(10.827 8.705) rotate(90)" fill="#f5f5f5"/>
      <rect id="長方形_2813" data-name="長方形 2813" width="3.912" height="9.78" transform="translate(10.827 14.573) rotate(90)" fill="#f5f5f5"/>
      <rect id="長方形_2814" data-name="長方形 2814" width="3.912" height="9.78" transform="translate(13.003 8.705)" fill="#f5f5f5"/>
      <rect id="長方形_2815" data-name="長方形 2815" width="3.912" height="9.78" transform="translate(18.871 8.705)" fill="#f5f5f5"/>
      <rect id="長方形_2816" data-name="長方形 2816" width="3.912" height="9.78" transform="translate(34.769 8.705) rotate(90)" fill="#f5f5f5"/>
      <rect id="長方形_2817" data-name="長方形 2817" width="3.912" height="9.78" transform="translate(34.769 14.573) rotate(90)" fill="#f5f5f5"/>
      <rect id="長方形_2818" data-name="長方形 2818" width="3.912" height="9.78" transform="translate(-58.721 8.705)" fill="#f5f5f5"/>
      <rect id="長方形_2819" data-name="長方形 2819" width="3.912" height="9.78" transform="translate(-52.853 8.705)" fill="#f5f5f5"/>
      <rect id="長方形_2820" data-name="長方形 2820" width="3.912" height="9.78" transform="translate(-36.955 8.705) rotate(90)" fill="#f5f5f5"/>
      <rect id="長方形_2821" data-name="長方形 2821" width="3.912" height="9.78" transform="translate(-36.955 14.573) rotate(90)" fill="#f5f5f5"/>
      <rect id="長方形_2822" data-name="長方形 2822" width="3.912" height="9.78" transform="translate(-34.779 8.705)" fill="#f5f5f5"/>
      <rect id="長方形_2823" data-name="長方形 2823" width="3.912" height="9.78" transform="translate(-28.911 8.705)" fill="#f5f5f5"/>
      <rect id="長方形_2824" data-name="長方形 2824" width="3.912" height="9.78" transform="translate(-13.018 8.705) rotate(90)" fill="#f5f5f5"/>
      <rect id="長方形_2825" data-name="長方形 2825" width="3.912" height="9.78" transform="translate(-13.018 14.573) rotate(90)" fill="#f5f5f5"/>
      <rect id="長方形_2826" data-name="長方形 2826" width="3.912" height="9.78" transform="translate(96.913 19.786)" fill="#f5f5f5"/>
      <rect id="長方形_2827" data-name="長方形 2827" width="3.912" height="9.78" transform="translate(102.782 19.786)" fill="#f5f5f5"/>
      <rect id="長方形_2828" data-name="長方形 2828" width="3.912" height="9.78" transform="translate(118.675 19.786) rotate(90)" fill="#f5f5f5"/>
      <rect id="長方形_2829" data-name="長方形 2829" width="3.912" height="9.78" transform="translate(118.675 25.654) rotate(90)" fill="#f5f5f5"/>
      <rect id="長方形_2830" data-name="長方形 2830" width="3.912" height="9.78" transform="translate(120.851 19.786)" fill="#f5f5f5"/>
      <rect id="長方形_2831" data-name="長方形 2831" width="3.912" height="9.78" transform="translate(126.719 19.786)" fill="#f5f5f5"/>
      <rect id="長方形_2832" data-name="長方形 2832" width="3.912" height="9.78" transform="translate(142.612 19.786) rotate(90)" fill="#f5f5f5"/>
      <rect id="長方形_2833" data-name="長方形 2833" width="3.912" height="9.78" transform="translate(142.612 25.654) rotate(90)" fill="#f5f5f5"/>
      <rect id="長方形_2834" data-name="長方形 2834" width="3.912" height="9.78" transform="translate(49.127 19.786)" fill="#f5f5f5"/>
      <rect id="長方形_2835" data-name="長方形 2835" width="3.912" height="9.78" transform="translate(54.995 19.786)" fill="#f5f5f5"/>
      <rect id="長方形_2836" data-name="長方形 2836" width="3.912" height="9.78" transform="translate(70.893 19.786) rotate(90)" fill="#f5f5f5"/>
      <rect id="長方形_2837" data-name="長方形 2837" width="3.912" height="9.78" transform="translate(70.893 25.654) rotate(90)" fill="#f5f5f5"/>
      <rect id="長方形_2838" data-name="長方形 2838" width="3.912" height="9.78" transform="translate(73.069 19.786)" fill="#f5f5f5"/>
      <rect id="長方形_2839" data-name="長方形 2839" width="3.912" height="9.78" transform="translate(78.937 19.786)" fill="#f5f5f5"/>
      <rect id="長方形_2840" data-name="長方形 2840" width="3.912" height="9.78" transform="translate(94.83 19.786) rotate(90)" fill="#f5f5f5"/>
      <rect id="長方形_2841" data-name="長方形 2841" width="3.912" height="9.78" transform="translate(94.83 25.654) rotate(90)" fill="#f5f5f5"/>
      <rect id="長方形_2842" data-name="長方形 2842" width="3.912" height="9.78" transform="translate(1.135 19.786)" fill="#f5f5f5"/>
      <rect id="長方形_2843" data-name="長方形 2843" width="3.912" height="9.78" transform="translate(7.003 19.786)" fill="#f5f5f5"/>
      <rect id="長方形_2844" data-name="長方形 2844" width="3.912" height="9.78" transform="translate(22.896 19.786) rotate(90)" fill="#f5f5f5"/>
      <rect id="長方形_2845" data-name="長方形 2845" width="3.912" height="9.78" transform="translate(22.896 25.654) rotate(90)" fill="#f5f5f5"/>
      <rect id="長方形_2846" data-name="長方形 2846" width="3.912" height="9.78" transform="translate(25.072 19.786)" fill="#f5f5f5"/>
      <rect id="長方形_2847" data-name="長方形 2847" width="3.912" height="9.78" transform="translate(30.94 19.786)" fill="#f5f5f5"/>
      <rect id="長方形_2848" data-name="長方形 2848" width="3.912" height="9.78" transform="translate(46.838 19.786) rotate(90)" fill="#f5f5f5"/>
      <rect id="長方形_2849" data-name="長方形 2849" width="3.912" height="9.78" transform="translate(46.838 25.654) rotate(90)" fill="#f5f5f5"/>
      <rect id="長方形_2850" data-name="長方形 2850" width="3.912" height="9.78" transform="translate(-46.647 19.786)" fill="#f5f5f5"/>
      <rect id="長方形_2851" data-name="長方形 2851" width="3.912" height="9.78" transform="translate(-40.779 19.786)" fill="#f5f5f5"/>
      <rect id="長方形_2852" data-name="長方形 2852" width="3.912" height="9.78" transform="translate(-24.886 19.786) rotate(90)" fill="#f5f5f5"/>
      <rect id="長方形_2853" data-name="長方形 2853" width="3.912" height="9.78" transform="translate(-24.886 25.654) rotate(90)" fill="#f5f5f5"/>
      <rect id="長方形_2854" data-name="長方形 2854" width="3.912" height="9.78" transform="translate(-22.71 19.786)" fill="#f5f5f5"/>
      <rect id="長方形_2855" data-name="長方形 2855" width="3.912" height="9.78" transform="translate(-16.842 19.786)" fill="#f5f5f5"/>
      <rect id="長方形_2856" data-name="長方形 2856" width="3.912" height="9.78" transform="translate(-0.949 19.786) rotate(90)" fill="#f5f5f5"/>
      <rect id="長方形_2857" data-name="長方形 2857" width="3.912" height="9.78" transform="translate(-0.949 25.654) rotate(90)" fill="#f5f5f5"/>
      <rect id="長方形_2858" data-name="長方形 2858" width="3.912" height="9.78" transform="translate(84.854 31.273)" fill="#f5f5f5"/>
      <rect id="長方形_2859" data-name="長方形 2859" width="3.912" height="9.78" transform="translate(90.722 31.273)" fill="#f5f5f5"/>
      <rect id="長方形_2860" data-name="長方形 2860" width="3.912" height="9.78" transform="translate(106.615 31.268) rotate(90)" fill="#f5f5f5"/>
      <rect id="長方形_2861" data-name="長方形 2861" width="3.912" height="9.78" transform="translate(106.615 37.136) rotate(90)" fill="#f5f5f5"/>
      <rect id="長方形_2862" data-name="長方形 2862" width="3.912" height="9.78" transform="translate(108.792 31.273)" fill="#f5f5f5"/>
      <rect id="長方形_2863" data-name="長方形 2863" width="3.912" height="9.78" transform="translate(114.66 31.273)" fill="#f5f5f5"/>
      <rect id="長方形_2864" data-name="長方形 2864" width="3.912" height="9.78" transform="translate(130.553 31.273) rotate(90)" fill="#f5f5f5"/>
      <rect id="長方形_2865" data-name="長方形 2865" width="3.912" height="9.78" transform="translate(130.553 37.141) rotate(90)" fill="#f5f5f5"/>
      <rect id="長方形_2866" data-name="長方形 2866" width="3.912" height="9.78" transform="translate(37.067 31.273)" fill="#f5f5f5"/>
      <rect id="長方形_2867" data-name="長方形 2867" width="3.912" height="9.78" transform="translate(42.936 31.273)" fill="#f5f5f5"/>
      <rect id="長方形_2868" data-name="長方形 2868" width="3.912" height="9.78" transform="translate(58.834 31.273) rotate(90)" fill="#f5f5f5"/>
      <rect id="長方形_2869" data-name="長方形 2869" width="3.912" height="9.78" transform="translate(58.834 37.141) rotate(90)" fill="#f5f5f5"/>
      <rect id="長方形_2870" data-name="長方形 2870" width="3.912" height="9.78" transform="translate(61.01 31.273)" fill="#f5f5f5"/>
      <rect id="長方形_2871" data-name="長方形 2871" width="3.912" height="9.78" transform="translate(66.878 31.273)" fill="#f5f5f5"/>
      <rect id="長方形_2872" data-name="長方形 2872" width="3.912" height="9.78" transform="translate(82.771 31.273) rotate(90)" fill="#f5f5f5"/>
      <rect id="長方形_2873" data-name="長方形 2873" width="3.912" height="9.78" transform="translate(82.771 37.141) rotate(90)" fill="#f5f5f5"/>
      <rect id="長方形_2874" data-name="長方形 2874" width="3.912" height="9.78" transform="translate(-10.925 31.273)" fill="#f5f5f5"/>
      <rect id="長方形_2875" data-name="長方形 2875" width="3.912" height="9.78" transform="translate(-5.056 31.273)" fill="#f5f5f5"/>
      <rect id="長方形_2876" data-name="長方形 2876" width="3.912" height="9.78" transform="translate(10.837 31.273) rotate(90)" fill="#f5f5f5"/>
      <rect id="長方形_2877" data-name="長方形 2877" width="3.912" height="9.78" transform="translate(10.837 37.141) rotate(90)" fill="#f5f5f5"/>
      <rect id="長方形_2878" data-name="長方形 2878" width="3.912" height="9.78" transform="translate(13.013 31.273)" fill="#f5f5f5"/>
      <rect id="長方形_2879" data-name="長方形 2879" width="3.912" height="9.78" transform="translate(18.881 31.273)" fill="#f5f5f5"/>
      <rect id="長方形_2880" data-name="長方形 2880" width="3.912" height="9.78" transform="translate(34.779 31.273) rotate(90)" fill="#f5f5f5"/>
      <rect id="長方形_2881" data-name="長方形 2881" width="3.912" height="9.78" transform="translate(34.779 37.141) rotate(90)" fill="#f5f5f5"/>
      <rect id="長方形_2882" data-name="長方形 2882" width="3.912" height="9.78" transform="translate(-58.706 31.273)" fill="#f5f5f5"/>
      <rect id="長方形_2883" data-name="長方形 2883" width="3.912" height="9.78" transform="translate(-52.838 31.273)" fill="#f5f5f5"/>
      <rect id="長方形_2884" data-name="長方形 2884" width="3.912" height="9.78" transform="translate(-36.945 31.273) rotate(90)" fill="#f5f5f5"/>
      <rect id="長方形_2885" data-name="長方形 2885" width="3.912" height="9.78" transform="translate(-36.945 37.141) rotate(90)" fill="#f5f5f5"/>
      <rect id="長方形_2886" data-name="長方形 2886" width="3.912" height="9.78" transform="translate(-34.769 31.273)" fill="#f5f5f5"/>
      <rect id="長方形_2887" data-name="長方形 2887" width="3.912" height="9.78" transform="translate(-28.901 31.273)" fill="#f5f5f5"/>
      <rect id="長方形_2888" data-name="長方形 2888" width="3.912" height="9.78" transform="translate(-13.008 31.273) rotate(90)" fill="#f5f5f5"/>
      <rect id="長方形_2889" data-name="長方形 2889" width="3.912" height="9.78" transform="translate(-13.008 37.141) rotate(90)" fill="#f5f5f5"/>
      <rect id="長方形_2890" data-name="長方形 2890" width="3.912" height="9.78" transform="translate(96.703 42.74)" fill="#f5f5f5"/>
      <rect id="長方形_2891" data-name="長方形 2891" width="3.912" height="9.78" transform="translate(102.571 42.74)" fill="#f5f5f5"/>
      <rect id="長方形_2892" data-name="長方形 2892" width="3.912" height="9.78" transform="translate(118.464 42.74) rotate(90)" fill="#f5f5f5"/>
      <rect id="長方形_2893" data-name="長方形 2893" width="3.912" height="9.78" transform="translate(118.464 48.608) rotate(90)" fill="#f5f5f5"/>
      <rect id="長方形_2894" data-name="長方形 2894" width="3.912" height="9.78" transform="translate(120.645 42.74)" fill="#f5f5f5"/>
      <rect id="長方形_2895" data-name="長方形 2895" width="3.912" height="9.78" transform="translate(126.514 42.74)" fill="#f5f5f5"/>
      <rect id="長方形_2896" data-name="長方形 2896" width="3.912" height="9.78" transform="translate(142.402 42.74) rotate(90)" fill="#f5f5f5"/>
      <rect id="長方形_2897" data-name="長方形 2897" width="3.912" height="9.78" transform="translate(142.402 48.608) rotate(90)" fill="#f5f5f5"/>
      <rect id="長方形_2898" data-name="長方形 2898" width="3.912" height="9.78" transform="translate(48.921 42.74)" fill="#f5f5f5"/>
      <rect id="長方形_2899" data-name="長方形 2899" width="3.912" height="9.78" transform="translate(54.789 42.74)" fill="#f5f5f5"/>
      <rect id="長方形_2900" data-name="長方形 2900" width="3.912" height="9.78" transform="translate(70.683 42.735) rotate(90)" fill="#f5f5f5"/>
      <rect id="長方形_2901" data-name="長方形 2901" width="3.912" height="9.78" transform="translate(70.683 48.603) rotate(90)" fill="#f5f5f5"/>
      <rect id="長方形_2902" data-name="長方形 2902" width="3.912" height="9.78" transform="translate(72.859 42.74)" fill="#f5f5f5"/>
      <rect id="長方形_2903" data-name="長方形 2903" width="3.912" height="9.78" transform="translate(78.727 42.74)" fill="#f5f5f5"/>
      <rect id="長方形_2904" data-name="長方形 2904" width="3.912" height="9.78" transform="translate(94.62 42.74) rotate(90)" fill="#f5f5f5"/>
      <rect id="長方形_2905" data-name="長方形 2905" width="3.912" height="9.78" transform="translate(94.62 48.608) rotate(90)" fill="#f5f5f5"/>
      <rect id="長方形_2906" data-name="長方形 2906" width="3.912" height="9.78" transform="translate(0.929 42.74)" fill="#f5f5f5"/>
      <rect id="長方形_2907" data-name="長方形 2907" width="3.912" height="9.78" transform="translate(6.797 42.74)" fill="#f5f5f5"/>
      <rect id="長方形_2908" data-name="長方形 2908" width="3.912" height="9.78" transform="translate(22.685 42.74) rotate(90)" fill="#f5f5f5"/>
      <rect id="長方形_2909" data-name="長方形 2909" width="3.912" height="9.78" transform="translate(22.685 48.608) rotate(90)" fill="#f5f5f5"/>
      <rect id="長方形_2910" data-name="長方形 2910" width="3.912" height="9.78" transform="translate(24.867 42.74)" fill="#f5f5f5"/>
      <rect id="長方形_2911" data-name="長方形 2911" width="3.912" height="9.78" transform="translate(30.735 42.74)" fill="#f5f5f5"/>
      <rect id="長方形_2912" data-name="長方形 2912" width="3.912" height="9.78" transform="translate(46.628 42.735) rotate(90)" fill="#f5f5f5"/>
      <rect id="長方形_2913" data-name="長方形 2913" width="3.912" height="9.78" transform="translate(46.628 48.603) rotate(90)" fill="#f5f5f5"/>
      <rect id="長方形_2914" data-name="長方形 2914" width="3.912" height="9.78" transform="translate(-46.858 42.74)" fill="#f5f5f5"/>
      <rect id="長方形_2915" data-name="長方形 2915" width="3.912" height="9.78" transform="translate(-40.989 42.74)" fill="#f5f5f5"/>
      <rect id="長方形_2916" data-name="長方形 2916" width="3.912" height="9.78" transform="translate(-25.096 42.74) rotate(90)" fill="#f5f5f5"/>
      <rect id="長方形_2917" data-name="長方形 2917" width="3.912" height="9.78" transform="translate(-25.096 48.608) rotate(90)" fill="#f5f5f5"/>
      <rect id="長方形_2918" data-name="長方形 2918" width="3.912" height="9.78" transform="translate(-22.92 42.74)" fill="#f5f5f5"/>
      <rect id="長方形_2919" data-name="長方形 2919" width="3.912" height="9.78" transform="translate(-17.052 42.74)" fill="#f5f5f5"/>
      <rect id="長方形_2920" data-name="長方形 2920" width="3.912" height="9.78" transform="translate(-1.159 42.74) rotate(90)" fill="#f5f5f5"/>
      <rect id="長方形_2921" data-name="長方形 2921" width="3.912" height="9.78" transform="translate(-1.159 48.608) rotate(90)" fill="#f5f5f5"/>
      <rect id="長方形_2922" data-name="長方形 2922" width="3.912" height="9.78" transform="translate(84.478 53.987)" fill="#f5f5f5"/>
      <rect id="長方形_2923" data-name="長方形 2923" width="3.912" height="9.78" transform="translate(90.346 53.987)" fill="#f5f5f5"/>
      <rect id="長方形_2924" data-name="長方形 2924" width="3.912" height="9.78" transform="translate(106.239 53.987) rotate(90)" fill="#f5f5f5"/>
      <rect id="長方形_2925" data-name="長方形 2925" width="3.912" height="9.78" transform="translate(106.239 59.856) rotate(90)" fill="#f5f5f5"/>
      <rect id="長方形_2926" data-name="長方形 2926" width="3.912" height="9.78" transform="translate(108.42 53.987)" fill="#f5f5f5"/>
      <rect id="長方形_2927" data-name="長方形 2927" width="3.912" height="9.78" transform="translate(114.288 53.987)" fill="#f5f5f5"/>
      <rect id="長方形_2928" data-name="長方形 2928" width="3.912" height="9.78" transform="translate(130.176 53.987) rotate(90)" fill="#f5f5f5"/>
      <rect id="長方形_2929" data-name="長方形 2929" width="3.912" height="9.78" transform="translate(130.176 59.856) rotate(90)" fill="#f5f5f5"/>
      <rect id="長方形_2930" data-name="長方形 2930" width="3.912" height="9.78" transform="translate(36.696 53.987)" fill="#f5f5f5"/>
      <rect id="長方形_2931" data-name="長方形 2931" width="3.912" height="9.78" transform="translate(42.564 53.987)" fill="#f5f5f5"/>
      <rect id="長方形_2932" data-name="長方形 2932" width="3.912" height="9.78" transform="translate(58.457 53.983) rotate(90)" fill="#f5f5f5"/>
      <rect id="長方形_2933" data-name="長方形 2933" width="3.912" height="9.78" transform="translate(58.457 59.851) rotate(90)" fill="#f5f5f5"/>
      <rect id="長方形_2934" data-name="長方形 2934" width="3.912" height="9.78" transform="translate(60.633 53.987)" fill="#f5f5f5"/>
      <rect id="長方形_2935" data-name="長方形 2935" width="3.912" height="9.78" transform="translate(66.501 53.987)" fill="#f5f5f5"/>
      <rect id="長方形_2936" data-name="長方形 2936" width="3.912" height="9.78" transform="translate(82.394 53.987) rotate(90)" fill="#f5f5f5"/>
      <rect id="長方形_2937" data-name="長方形 2937" width="3.912" height="9.78" transform="translate(82.394 59.856) rotate(90)" fill="#f5f5f5"/>
      <rect id="長方形_2938" data-name="長方形 2938" width="3.912" height="9.78" transform="translate(-11.296 53.987)" fill="#f5f5f5"/>
      <rect id="長方形_2939" data-name="長方形 2939" width="3.912" height="9.78" transform="translate(-5.428 53.987)" fill="#f5f5f5"/>
      <rect id="長方形_2940" data-name="長方形 2940" width="3.912" height="9.78" transform="translate(10.46 53.987) rotate(90)" fill="#f5f5f5"/>
      <rect id="長方形_2941" data-name="長方形 2941" width="3.912" height="9.78" transform="translate(10.46 59.856) rotate(90)" fill="#f5f5f5"/>
      <rect id="長方形_2942" data-name="長方形 2942" width="3.912" height="9.78" transform="translate(12.641 53.987)" fill="#f5f5f5"/>
      <rect id="長方形_2943" data-name="長方形 2943" width="3.912" height="9.78" transform="translate(18.509 53.987)" fill="#f5f5f5"/>
      <rect id="長方形_2944" data-name="長方形 2944" width="3.912" height="9.78" transform="translate(34.402 53.983) rotate(90)" fill="#f5f5f5"/>
      <rect id="長方形_2945" data-name="長方形 2945" width="3.912" height="9.78" transform="translate(34.402 59.851) rotate(90)" fill="#f5f5f5"/>
      <rect id="長方形_2946" data-name="長方形 2946" width="3.912" height="9.78" transform="translate(-59.083 53.987)" fill="#f5f5f5"/>
      <rect id="長方形_2947" data-name="長方形 2947" width="3.912" height="9.78" transform="translate(-53.215 53.987)" fill="#f5f5f5"/>
      <rect id="長方形_2948" data-name="長方形 2948" width="3.912" height="9.78" transform="translate(-37.322 53.987) rotate(90)" fill="#f5f5f5"/>
      <rect id="長方形_2949" data-name="長方形 2949" width="3.912" height="9.78" transform="translate(-37.322 59.856) rotate(90)" fill="#f5f5f5"/>
      <rect id="長方形_2950" data-name="長方形 2950" width="3.912" height="9.78" transform="translate(-35.146 53.987)" fill="#f5f5f5"/>
      <rect id="長方形_2951" data-name="長方形 2951" width="3.912" height="9.78" transform="translate(-29.277 53.987)" fill="#f5f5f5"/>
      <rect id="長方形_2952" data-name="長方形 2952" width="3.912" height="9.78" transform="translate(-13.384 53.987) rotate(90)" fill="#f5f5f5"/>
      <rect id="長方形_2953" data-name="長方形 2953" width="3.912" height="9.78" transform="translate(-13.384 59.856) rotate(90)" fill="#f5f5f5"/>
      <rect id="長方形_2954" data-name="長方形 2954" width="3.912" height="9.78" transform="translate(96.322 65.22)" fill="#f5f5f5"/>
      <rect id="長方形_2955" data-name="長方形 2955" width="3.912" height="9.78" transform="translate(102.19 65.22)" fill="#f5f5f5"/>
      <rect id="長方形_2956" data-name="長方形 2956" width="3.912" height="9.78" transform="translate(118.078 65.22) rotate(90)" fill="#f5f5f5"/>
      <rect id="長方形_2957" data-name="長方形 2957" width="3.912" height="9.78" transform="translate(118.078 71.088) rotate(90)" fill="#f5f5f5"/>
      <rect id="長方形_2958" data-name="長方形 2958" width="3.912" height="9.78" transform="translate(120.259 65.22)" fill="#f5f5f5"/>
      <rect id="長方形_2959" data-name="長方形 2959" width="3.912" height="9.78" transform="translate(126.127 65.22)" fill="#f5f5f5"/>
      <rect id="長方形_2960" data-name="長方形 2960" width="3.912" height="9.78" transform="translate(142.02 65.22) rotate(90)" fill="#f5f5f5"/>
      <rect id="長方形_2961" data-name="長方形 2961" width="3.912" height="9.78" transform="translate(142.02 71.088) rotate(90)" fill="#f5f5f5"/>
      <rect id="長方形_2962" data-name="長方形 2962" width="3.912" height="9.78" transform="translate(48.535 65.22)" fill="#f5f5f5"/>
      <rect id="長方形_2963" data-name="長方形 2963" width="3.912" height="9.78" transform="translate(54.403 65.22)" fill="#f5f5f5"/>
      <rect id="長方形_2964" data-name="長方形 2964" width="3.912" height="9.78" transform="translate(70.296 65.225) rotate(90)" fill="#f5f5f5"/>
      <rect id="長方形_2965" data-name="長方形 2965" width="3.912" height="9.78" transform="translate(70.296 71.093) rotate(90)" fill="#f5f5f5"/>
      <rect id="長方形_2966" data-name="長方形 2966" width="3.912" height="9.78" transform="translate(72.472 65.22)" fill="#f5f5f5"/>
      <rect id="長方形_2967" data-name="長方形 2967" width="3.912" height="9.78" transform="translate(78.341 65.22)" fill="#f5f5f5"/>
      <rect id="長方形_2968" data-name="長方形 2968" width="3.912" height="9.78" transform="translate(94.234 65.225) rotate(90)" fill="#f5f5f5"/>
      <rect id="長方形_2969" data-name="長方形 2969" width="3.912" height="9.78" transform="translate(94.234 71.093) rotate(90)" fill="#f5f5f5"/>
      <rect id="長方形_2970" data-name="長方形 2970" width="3.912" height="9.78" transform="translate(0.543 65.22)" fill="#f5f5f5"/>
      <rect id="長方形_2971" data-name="長方形 2971" width="3.912" height="9.78" transform="translate(6.411 65.22)" fill="#f5f5f5"/>
      <rect id="長方形_2972" data-name="長方形 2972" width="3.912" height="9.78" transform="translate(22.304 65.22) rotate(90)" fill="#f5f5f5"/>
      <rect id="長方形_2973" data-name="長方形 2973" width="3.912" height="9.78" transform="translate(22.304 71.088) rotate(90)" fill="#f5f5f5"/>
      <rect id="長方形_2974" data-name="長方形 2974" width="3.912" height="9.78" transform="translate(24.48 65.22)" fill="#f5f5f5"/>
      <rect id="長方形_2975" data-name="長方形 2975" width="3.912" height="9.78" transform="translate(30.348 65.22)" fill="#f5f5f5"/>
      <rect id="長方形_2976" data-name="長方形 2976" width="3.912" height="9.78" transform="translate(46.241 65.225) rotate(90)" fill="#f5f5f5"/>
      <rect id="長方形_2977" data-name="長方形 2977" width="3.912" height="9.78" transform="translate(46.241 71.093) rotate(90)" fill="#f5f5f5"/>
      <rect id="長方形_2978" data-name="長方形 2978" width="3.912" height="9.78" transform="translate(-47.244 65.22)" fill="#f5f5f5"/>
      <rect id="長方形_2979" data-name="長方形 2979" width="3.912" height="9.78" transform="translate(-41.376 65.22)" fill="#f5f5f5"/>
      <rect id="長方形_2980" data-name="長方形 2980" width="3.912" height="9.78" transform="translate(-25.483 65.225) rotate(90)" fill="#f5f5f5"/>
      <rect id="長方形_2981" data-name="長方形 2981" width="3.912" height="9.78" transform="translate(-25.483 71.093) rotate(90)" fill="#f5f5f5"/>
      <rect id="長方形_2982" data-name="長方形 2982" width="3.912" height="9.78" transform="translate(-23.307 65.22)" fill="#f5f5f5"/>
      <rect id="長方形_2983" data-name="長方形 2983" width="3.912" height="9.78" transform="translate(-17.438 65.22)" fill="#f5f5f5"/>
      <rect id="長方形_2984" data-name="長方形 2984" width="3.912" height="9.78" transform="translate(-1.545 65.22) rotate(90)" fill="#f5f5f5"/>
      <rect id="長方形_2985" data-name="長方形 2985" width="3.912" height="9.78" transform="translate(-1.545 71.088) rotate(90)" fill="#f5f5f5"/>
      <rect id="長方形_2986" data-name="長方形 2986" width="3.912" height="9.78" transform="translate(84.585 76.468)" fill="#f5f5f5"/>
      <rect id="長方形_2987" data-name="長方形 2987" width="3.912" height="9.78" transform="translate(90.453 76.468)" fill="#f5f5f5"/>
      <rect id="長方形_2988" data-name="長方形 2988" width="3.912" height="9.78" transform="translate(106.342 76.468) rotate(90)" fill="#f5f5f5"/>
      <rect id="長方形_2989" data-name="長方形 2989" width="3.912" height="9.78" transform="translate(106.342 82.336) rotate(90)" fill="#f5f5f5"/>
      <rect id="長方形_2990" data-name="長方形 2990" width="3.912" height="9.78" transform="translate(108.523 76.468)" fill="#f5f5f5"/>
      <rect id="長方形_2991" data-name="長方形 2991" width="3.912" height="9.78" transform="translate(114.391 76.468)" fill="#f5f5f5"/>
      <rect id="長方形_2992" data-name="長方形 2992" width="3.912" height="9.78" transform="translate(130.284 76.468) rotate(90)" fill="#f5f5f5"/>
      <rect id="長方形_2993" data-name="長方形 2993" width="3.912" height="9.78" transform="translate(130.284 82.336) rotate(90)" fill="#f5f5f5"/>
      <rect id="長方形_2994" data-name="長方形 2994" width="3.912" height="9.78" transform="translate(36.799 76.468)" fill="#f5f5f5"/>
      <rect id="長方形_2995" data-name="長方形 2995" width="3.912" height="9.78" transform="translate(42.667 76.468)" fill="#f5f5f5"/>
      <rect id="長方形_2996" data-name="長方形 2996" width="3.912" height="9.78" transform="translate(58.56 76.472) rotate(90)" fill="#f5f5f5"/>
      <rect id="長方形_2997" data-name="長方形 2997" width="3.912" height="9.78" transform="translate(58.56 82.341) rotate(90)" fill="#f5f5f5"/>
      <rect id="長方形_2998" data-name="長方形 2998" width="3.912" height="9.78" transform="translate(60.736 76.468)" fill="#f5f5f5"/>
      <rect id="長方形_2999" data-name="長方形 2999" width="3.912" height="9.78" transform="translate(66.604 76.468)" fill="#f5f5f5"/>
      <rect id="長方形_3000" data-name="長方形 3000" width="3.912" height="9.78" transform="translate(82.497 76.472) rotate(90)" fill="#f5f5f5"/>
      <rect id="長方形_3001" data-name="長方形 3001" width="3.912" height="9.78" transform="translate(82.497 82.341) rotate(90)" fill="#f5f5f5"/>
      <rect id="長方形_3002" data-name="長方形 3002" width="3.912" height="9.78" transform="translate(-11.194 76.468)" fill="#f5f5f5"/>
      <rect id="長方形_3003" data-name="長方形 3003" width="3.912" height="9.78" transform="translate(-5.325 76.468)" fill="#f5f5f5"/>
      <rect id="長方形_3004" data-name="長方形 3004" width="3.912" height="9.78" transform="translate(10.568 76.468) rotate(90)" fill="#f5f5f5"/>
      <rect id="長方形_3005" data-name="長方形 3005" width="3.912" height="9.78" transform="translate(10.568 82.336) rotate(90)" fill="#f5f5f5"/>
      <rect id="長方形_3006" data-name="長方形 3006" width="3.912" height="9.78" transform="translate(12.744 76.468)" fill="#f5f5f5"/>
      <rect id="長方形_3007" data-name="長方形 3007" width="3.912" height="9.78" transform="translate(18.612 76.468)" fill="#f5f5f5"/>
      <rect id="長方形_3008" data-name="長方形 3008" width="3.912" height="9.78" transform="translate(34.505 76.472) rotate(90)" fill="#f5f5f5"/>
      <rect id="長方形_3009" data-name="長方形 3009" width="3.912" height="9.78" transform="translate(34.505 82.341) rotate(90)" fill="#f5f5f5"/>
      <rect id="長方形_3010" data-name="長方形 3010" width="3.912" height="9.78" transform="translate(-58.98 76.468)" fill="#f5f5f5"/>
      <rect id="長方形_3011" data-name="長方形 3011" width="3.912" height="9.78" transform="translate(-53.112 76.468)" fill="#f5f5f5"/>
      <rect id="長方形_3012" data-name="長方形 3012" width="3.912" height="9.78" transform="translate(-37.219 76.472) rotate(90)" fill="#f5f5f5"/>
      <rect id="長方形_3013" data-name="長方形 3013" width="3.912" height="9.78" transform="translate(-37.219 82.341) rotate(90)" fill="#f5f5f5"/>
      <rect id="長方形_3014" data-name="長方形 3014" width="3.912" height="9.78" transform="translate(-35.043 76.468)" fill="#f5f5f5"/>
      <rect id="長方形_3015" data-name="長方形 3015" width="3.912" height="9.78" transform="translate(-29.175 76.468)" fill="#f5f5f5"/>
      <rect id="長方形_3016" data-name="長方形 3016" width="3.912" height="9.78" transform="translate(-13.282 76.468) rotate(90)" fill="#f5f5f5"/>
      <rect id="長方形_3017" data-name="長方形 3017" width="3.912" height="9.78" transform="translate(-13.282 82.336) rotate(90)" fill="#f5f5f5"/>
      <rect id="長方形_3018" data-name="長方形 3018" width="3.912" height="9.78" transform="translate(96.322 88.204)" fill="#f5f5f5"/>
      <rect id="長方形_3019" data-name="長方形 3019" width="3.912" height="9.78" transform="translate(102.19 88.204)" fill="#f5f5f5"/>
      <rect id="長方形_3020" data-name="長方形 3020" width="3.912" height="9.78" transform="translate(118.078 88.204) rotate(90)" fill="#f5f5f5"/>
      <rect id="長方形_3021" data-name="長方形 3021" width="3.912" height="9.78" transform="translate(118.078 94.072) rotate(90)" fill="#f5f5f5"/>
      <rect id="長方形_3022" data-name="長方形 3022" width="3.912" height="9.78" transform="translate(120.259 88.204)" fill="#f5f5f5"/>
      <rect id="長方形_3023" data-name="長方形 3023" width="3.912" height="9.78" transform="translate(126.127 88.204)" fill="#f5f5f5"/>
      <rect id="長方形_3024" data-name="長方形 3024" width="3.912" height="9.78" transform="translate(142.02 88.204) rotate(90)" fill="#f5f5f5"/>
      <rect id="長方形_3025" data-name="長方形 3025" width="3.912" height="9.78" transform="translate(142.02 94.072) rotate(90)" fill="#f5f5f5"/>
      <rect id="長方形_3026" data-name="長方形 3026" width="3.912" height="9.78" transform="translate(48.535 88.204)" fill="#f5f5f5"/>
      <rect id="長方形_3027" data-name="長方形 3027" width="3.912" height="9.78" transform="translate(54.403 88.204)" fill="#f5f5f5"/>
      <rect id="長方形_3028" data-name="長方形 3028" width="3.912" height="9.78" transform="translate(70.296 88.209) rotate(90)" fill="#f5f5f5"/>
      <rect id="長方形_3029" data-name="長方形 3029" width="3.912" height="9.78" transform="translate(70.296 94.077) rotate(90)" fill="#f5f5f5"/>
      <rect id="長方形_3030" data-name="長方形 3030" width="3.912" height="9.78" transform="translate(72.472 88.204)" fill="#f5f5f5"/>
      <rect id="長方形_3031" data-name="長方形 3031" width="3.912" height="9.78" transform="translate(78.341 88.204)" fill="#f5f5f5"/>
      <rect id="長方形_3032" data-name="長方形 3032" width="3.912" height="9.78" transform="translate(94.234 88.209) rotate(90)" fill="#f5f5f5"/>
      <rect id="長方形_3033" data-name="長方形 3033" width="3.912" height="9.78" transform="translate(94.234 94.077) rotate(90)" fill="#f5f5f5"/>
      <rect id="長方形_3034" data-name="長方形 3034" width="3.912" height="9.78" transform="translate(0.543 88.204)" fill="#f5f5f5"/>
      <rect id="長方形_3035" data-name="長方形 3035" width="3.912" height="9.78" transform="translate(6.411 88.204)" fill="#f5f5f5"/>
      <rect id="長方形_3036" data-name="長方形 3036" width="3.912" height="9.78" transform="translate(22.304 88.204) rotate(90)" fill="#f5f5f5"/>
      <rect id="長方形_3037" data-name="長方形 3037" width="3.912" height="9.78" transform="translate(22.304 94.072) rotate(90)" fill="#f5f5f5"/>
      <rect id="長方形_3038" data-name="長方形 3038" width="3.912" height="9.78" transform="translate(24.48 88.204)" fill="#f5f5f5"/>
      <rect id="長方形_3039" data-name="長方形 3039" width="3.912" height="9.78" transform="translate(30.348 88.204)" fill="#f5f5f5"/>
      <rect id="長方形_3040" data-name="長方形 3040" width="3.912" height="9.78" transform="translate(46.241 88.209) rotate(90)" fill="#f5f5f5"/>
      <rect id="長方形_3041" data-name="長方形 3041" width="3.912" height="9.78" transform="translate(46.241 94.077) rotate(90)" fill="#f5f5f5"/>
      <rect id="長方形_3042" data-name="長方形 3042" width="3.912" height="9.78" transform="translate(-47.244 88.204)" fill="#f5f5f5"/>
      <rect id="長方形_3043" data-name="長方形 3043" width="3.912" height="9.78" transform="translate(-41.376 88.204)" fill="#f5f5f5"/>
      <rect id="長方形_3044" data-name="長方形 3044" width="3.912" height="9.78" transform="translate(-25.483 88.209) rotate(90)" fill="#f5f5f5"/>
      <rect id="長方形_3045" data-name="長方形 3045" width="3.912" height="9.78" transform="translate(-25.483 94.077) rotate(90)" fill="#f5f5f5"/>
      <rect id="長方形_3046" data-name="長方形 3046" width="3.912" height="9.78" transform="translate(-23.307 88.204)" fill="#f5f5f5"/>
      <rect id="長方形_3047" data-name="長方形 3047" width="3.912" height="9.78" transform="translate(-17.438 88.204)" fill="#f5f5f5"/>
      <rect id="長方形_3048" data-name="長方形 3048" width="3.912" height="9.78" transform="translate(-1.545 88.204) rotate(90)" fill="#f5f5f5"/>
      <rect id="長方形_3049" data-name="長方形 3049" width="3.912" height="9.78" transform="translate(-1.545 94.072) rotate(90)" fill="#f5f5f5"/>
    </g>
  </g>
</svg>
