<svg xmlns="http://www.w3.org/2000/svg" width="178.047" height="176.534" viewBox="0 0 178.047 176.534">
  <g id="グループ_2441" data-name="グループ 2441" transform="translate(-4.59 -4.503)">
    <g id="グループ_2427" data-name="グループ 2427" transform="translate(0 0)">
      <g id="グループ_2426" data-name="グループ 2426" transform="translate(30.13 0) rotate(11)">
        <path id="パス_7039" data-name="パス 7039" d="M83.163,0l6.6,12.653L103.6,5.788,105.7,20.159l14.966-2.5-2.592,14.683,14.634,2.114-7.037,13.557,12.869,6.519-10.794,11.1,9.845,10.286L124.1,83.487l5.857,13.046-14.873,3.284,1.3,14.529-14.8-1.318-3.392,14.589-13.271-5.791-7.748,13.222-10.447-9.7L55.38,135.912l-6.6-12.653-13.833,6.865L32.84,115.752l-14.966,2.5,2.592-14.683L5.832,101.454,12.869,87.9,0,81.378l10.794-11.1L.949,59.988l13.494-7.564L8.586,39.379,23.459,36.1l-1.3-14.529,14.8,1.318L40.351,8.3l13.271,5.791L61.37.864l10.447,9.7Z" transform="matrix(0.985, 0.174, -0.174, 0.985, 23.601, 0)" fill="#fb297a"/>
        <text id="Success_" data-name="Success!" transform="matrix(0.996, 0.087, -0.087, 0.996, 32.891, 82.739)" fill="#fff" font-size="23" font-family="KozGoPro-Medium, Kozuka Gothic Pro" font-weight="500"><tspan x="0" y="0">Success!</tspan></text>
      </g>
    </g>
  </g>
</svg>
