<svg xmlns="http://www.w3.org/2000/svg" width="178.047" height="176.534" viewBox="0 0 178.047 176.534">
  <g id="グループ_2441" data-name="グループ 2441" transform="translate(-4.59 -4.503)">
    <g id="グループ_2427" data-name="グループ 2427" transform="translate(0 0)">
      <g id="グループ_2426" data-name="グループ 2426" transform="translate(30.13 0) rotate(11)">
        <path id="パス_7039" data-name="パス 7039" d="M83.163,0l6.6,12.653L103.6,5.788,105.7,20.159l14.966-2.5-2.592,14.683,14.634,2.114-7.037,13.557,12.869,6.519-10.794,11.1,9.845,10.286L124.1,83.487l5.857,13.046-14.873,3.284,1.3,14.529-14.8-1.318-3.392,14.589-13.271-5.791-7.748,13.222-10.447-9.7L55.38,135.912l-6.6-12.653-13.833,6.865L32.84,115.752l-14.966,2.5,2.592-14.683L5.832,101.454,12.869,87.9,0,81.378l10.794-11.1L.949,59.988l13.494-7.564L8.586,39.379,23.459,36.1l-1.3-14.529,14.8,1.318L40.351,8.3l13.271,5.791L61.37.864l10.447,9.7Z" transform="matrix(0.985, 0.174, -0.174, 0.985, 23.601, 0)" fill="#fb297a"/>
        <path id="パス_9651" data-name="パス 9651" d="M10.718-17.066a8.186,8.186,0,0,0-3.7-.805c-3.5,0-5.727,2.093-5.727,4.876,0,2.392,1.771,3.979,4.393,5.037,2.093.874,2.99,1.794,2.99,3.289C8.671-3.082,7.5-2,5.405-2A7.687,7.687,0,0,1,1.587-3.036L.989-.805A8.56,8.56,0,0,0,5.244.253C9.2.253,11.385-1.955,11.385-4.9c0-2.415-1.357-3.956-4.186-5.2-2.231-.966-3.22-1.7-3.22-3.2,0-1.127.874-2.346,2.967-2.346a6.5,6.5,0,0,1,3.128.782ZM24.4-12.673H21.735V-4.83A2.714,2.714,0,0,1,19.09-1.955c-1.748,0-2.369-1.449-2.369-3.634V-12.7H14.053v7.544c0,4.048,1.909,5.4,4.094,5.4A4.414,4.414,0,0,0,21.965-1.84h.069L22.172,0h2.346c-.046-1.012-.115-2.208-.115-3.634ZM35.995-2.392a5.794,5.794,0,0,1-2.392.506c-2.208,0-3.841-1.656-3.841-4.439,0-2.484,1.38-4.508,3.864-4.508a4.959,4.959,0,0,1,2.277.506l.529-2.047a6.8,6.8,0,0,0-2.829-.575c-4.071,0-6.555,2.9-6.555,6.739C27.048-2.254,29.44.253,33.1.253a8.21,8.21,0,0,0,3.266-.644Zm10.925,0a5.794,5.794,0,0,1-2.392.506c-2.208,0-3.841-1.656-3.841-4.439,0-2.484,1.38-4.508,3.864-4.508a4.959,4.959,0,0,1,2.277.506l.529-2.047a6.8,6.8,0,0,0-2.829-.575c-4.071,0-6.555,2.9-6.555,6.739,0,3.956,2.392,6.463,6.049,6.463a8.21,8.21,0,0,0,3.266-.644Zm11.592,0a7.906,7.906,0,0,1-3.2.6c-2,0-3.772-1.081-3.841-3.933h8.05a7.993,7.993,0,0,0,.069-1.127c0-3.128-1.426-6.1-4.991-6.1-3.588,0-5.7,3.013-5.7,6.785C48.9-2.3,51.106.253,54.924.253a9.909,9.909,0,0,0,4.025-.759ZM51.5-7.636c.138-1.472.966-3.4,2.921-3.4,2.047,0,2.668,1.886,2.645,3.4Zm17.572-4.577a6.3,6.3,0,0,0-3.013-.736c-2.668,0-4.393,1.679-4.393,3.8,0,1.472.989,2.737,3.243,3.634,1.518.644,2.047,1.173,2.047,2.139s-.69,1.656-2.116,1.656a6.161,6.161,0,0,1-2.9-.851L61.341-.6a7.012,7.012,0,0,0,3.45.851c2.875,0,4.738-1.449,4.738-3.887,0-1.84-1.1-2.99-3.2-3.841-1.541-.667-2.116-1.1-2.116-1.978,0-.851.644-1.541,1.84-1.541a4.626,4.626,0,0,1,2.415.713Zm9.959,0a6.3,6.3,0,0,0-3.013-.736c-2.668,0-4.393,1.679-4.393,3.8,0,1.472.989,2.737,3.243,3.634,1.518.644,2.047,1.173,2.047,2.139s-.69,1.656-2.116,1.656a6.161,6.161,0,0,1-2.9-.851L71.3-.6a7.012,7.012,0,0,0,3.45.851c2.875,0,4.738-1.449,4.738-3.887,0-1.84-1.1-2.99-3.2-3.841-1.541-.667-2.116-1.1-2.116-1.978,0-.851.644-1.541,1.84-1.541a4.626,4.626,0,0,1,2.415.713Zm5.865-5.4H82l.414,12.374h2.07ZM83.421.253a1.661,1.661,0,0,0,1.7-1.771,1.662,1.662,0,0,0-1.679-1.794,1.693,1.693,0,0,0-1.7,1.794A1.654,1.654,0,0,0,83.421.253Z" transform="matrix(0.996, 0.087, -0.087, 0.996, 32.891, 82.739)" fill="#fff"/>
      </g>
    </g>
  </g>
</svg>
