<svg xmlns="http://www.w3.org/2000/svg" width="47.327" height="39.439" viewBox="0 0 47.327 39.439">
  <g id="グループ_2581" data-name="グループ 2581" transform="translate(-342.673 -5464.28)">
    <path id="twitter_1_" data-name="twitter (1)" d="M47.327,6.674a18.931,18.931,0,0,1-5.581,1.578A9.939,9.939,0,0,0,46.025,2.73a18.655,18.655,0,0,1-6.172,2.406A9.584,9.584,0,0,0,32.754,2a9.84,9.84,0,0,0-9.446,12.226A27.351,27.351,0,0,1,3.293,3.814,10.1,10.1,0,0,0,6.31,17.125a9.5,9.5,0,0,1-4.4-1.262V16A9.927,9.927,0,0,0,9.7,25.762a9.544,9.544,0,0,1-4.378.158A9.765,9.765,0,0,0,14.4,32.841,19.167,19.167,0,0,1,0,36.982a26.976,26.976,0,0,0,14.888,4.457C32.754,41.439,42.5,26.255,42.5,13.1V11.82A20.02,20.02,0,0,0,47.327,6.674Z" transform="translate(342.673 5462.28)" fill="#fff"/>
  </g>
</svg>
